<svg xmlns="http://www.w3.org/2000/svg" xmlns:xlink="http://www.w3.org/1999/xlink" width="323.516" height="65.15" viewBox="0 0 323.516 65.15">
  <defs>
    <filter id="Pfad_5646" x="1.726" y="0" width="321.789" height="65.15" filterUnits="userSpaceOnUse">
      <feOffset dy="2" input="SourceAlpha"/>
      <feGaussianBlur stdDeviation="2.5" result="blur"/>
      <feFlood flood-opacity="0.161"/>
      <feComposite operator="in" in2="blur"/>
      <feComposite in="SourceGraphic"/>
    </filter>
    <filter id="Oval_44" x="0" y="0" width="65.927" height="65.15" filterUnits="userSpaceOnUse">
      <feOffset dy="2" input="SourceAlpha"/>
      <feGaussianBlur stdDeviation="2.5" result="blur-2"/>
      <feFlood flood-opacity="0.259"/>
      <feComposite operator="in" in2="blur-2"/>
      <feComposite in="SourceGraphic"/>
    </filter>
  </defs>
  <g id="Gruppe_412" data-name="Gruppe 412" transform="translate(7.5 5.5)">
    <g id="Komponente_6_8" data-name="Komponente 6 – 8" transform="translate(1.727 0)">
      <g transform="matrix(1, 0, 0, 1, -9.23, -5.5)" filter="url(#Pfad_5646)">
        <path id="Pfad_5646-2" data-name="Pfad 5646" d="M511.6,283.942H425.645a24.539,24.539,0,0,0-24.539,24.538v1.075a24.539,24.539,0,0,0,24.539,24.538H683.357A24.538,24.538,0,0,0,707.9,309.555V308.48a24.538,24.538,0,0,0-24.538-24.538" transform="translate(-391.88 -278.44)" fill="#009640"/>
      </g>
    </g>
    <g id="Gruppe_407" data-name="Gruppe 407" transform="translate(0 0)">
      <g transform="matrix(1, 0, 0, 1, -7.5, -5.5)" filter="url(#Oval_44)">
        <ellipse id="Oval_44-2" data-name="Oval 44" cx="25.463" cy="25.075" rx="25.463" ry="25.075" transform="translate(7.5 5.5)" fill="#f39200"/>
      </g>
      <text id="_3" data-name="3" transform="translate(18.612 30.583)" fill="#fff" font-size="21" font-family="Roboto-Bold, Roboto" font-weight="700"><tspan x="0" y="0">3</tspan></text>
    </g>
    <text id="Die_Markenpyramide" data-name="Die Markenpyramide" transform="translate(71.062 32.699)" fill="#fff" font-size="22" font-family="Roboto-Bold, Roboto" font-weight="700"><tspan x="0" y="0">Die Markenpyramide</tspan></text>
  </g>
</svg>
