<svg height="31.666" viewBox="0 0 205.422 31.666" width="205.422" xmlns="http://www.w3.org/2000/svg" xmlns:xlink="http://www.w3.org/1999/xlink"><clipPath id="a"><path d="m465.822 199.559h205.422v31.666h-205.422z"/></clipPath><g clip-path="url(#a)" transform="translate(-465.822 -199.559)"><path d="m467.536 213.951a.945.945 0 0 0 .09-.054 13.22 13.22 0 0 1 2.492-1.371 21.1 21.1 0 0 1 3.67-1.165c.233-.054.467-.1.7-.157a.319.319 0 0 0 .05-.018c.018-.1.037-.215.054-.325a21.221 21.221 0 0 1 .825-3.469 17.1 17.1 0 0 1 1.3-2.981 10.706 10.706 0 0 1 2.364-2.937 7.822 7.822 0 0 1 3.374-1.728 7.935 7.935 0 0 1 1.779-.186 10.063 10.063 0 0 1 3.521.7 11.6 11.6 0 0 1 2.98 1.655 13.492 13.492 0 0 1 1.612 1.456 16.71 16.71 0 0 1 1.435 1.737 19.736 19.736 0 0 1 1.494 2.379 15.4 15.4 0 0 1 1.611 4.876 16.689 16.689 0 0 1 -.532 7.254 16.785 16.785 0 0 1 -2.169 4.554 16.335 16.335 0 0 1 -2.561 2.964 15.483 15.483 0 0 1 -3.676 2.487 16.157 16.157 0 0 1 -3.565 1.211 16.42 16.42 0 0 1 -2 .319 14.635 14.635 0 0 1 -2.713.013 13.454 13.454 0 0 1 -4.721-1.31 15.085 15.085 0 0 1 -2.582-1.6 18.913 18.913 0 0 1 -2.493-2.3 16.212 16.212 0 0 1 -1.887-2.5 14.606 14.606 0 0 1 -1.634-3.776 15.279 15.279 0 0 1 -.467-2.547 17.025 17.025 0 0 1 .515-6.029 14.119 14.119 0 0 1 3.938-6.582.946.946 0 0 1 .126-.1.407.407 0 0 1 .511.055.412.412 0 0 1 .071.521 2.5 2.5 0 0 1 -.163.216 16.614 16.614 0 0 0 -2.107 3.382 13.133 13.133 0 0 0 -1.129 3.855c-.059.461-.083.927-.123 1.392v.106m27.291-.494a.246.246 0 0 0 .015-.052c0-.031 0-.063-.008-.1a20.893 20.893 0 0 0 -.647-2.995 19.057 19.057 0 0 0 -1.124-2.939 14.782 14.782 0 0 0 -1.181-2 12.657 12.657 0 0 0 -2.562-2.79 9.018 9.018 0 0 0 -2.893-1.548 5.336 5.336 0 0 0 -2.443-.167 5.759 5.759 0 0 0 -2.725 1.207 8.1 8.1 0 0 0 -1.891 2.186c-.169.279-.319.568-.483.85a13.433 13.433 0 0 0 -1.075 2.326 16.77 16.77 0 0 0 -.77 3.2c-.006.043 0 .086-.007.138a37.5 37.5 0 0 1 11.919.48c-.005-.071-.005-.126-.011-.178-.037-.3-.07-.594-.113-.889a24.408 24.408 0 0 0 -.708-3.3.635.635 0 0 1 -.022-.105.284.284 0 0 1 .21-.309.293.293 0 0 1 .347.143 1.262 1.262 0 0 1 .054.124 21.85 21.85 0 0 1 1.301 4.334c.031.159.059.318.088.477a18.223 18.223 0 0 1 4.742 1.91m-6.3 6.354a24.114 24.114 0 0 0 .45-3.01c.038-.452.064-.9.09-1.356.047-.841.043-1.682.013-2.524 0-.109-.005-.111-.115-.128-.487-.073-.974-.154-1.464-.211-.746-.086-1.494-.16-2.242-.228-.87-.078-1.743-.114-2.617-.129-1.327-.022-2.653-.005-3.977.077-.566.034-1.13.077-1.694.117a.835.835 0 0 0 -.109.024 51.367 51.367 0 0 0 .1 7.674 48.528 48.528 0 0 0 11.561-.306m-11.365 1.959c.008.062.011.11.02.158a22.587 22.587 0 0 0 .572 2.5 11.6 11.6 0 0 0 .766 2.013 5.605 5.605 0 0 0 1.081 1.5 2.913 2.913 0 0 0 1.969.858 3.913 3.913 0 0 0 1.654-.312 5.379 5.379 0 0 0 1.7-1.174 10.086 10.086 0 0 0 1.794-2.41 17.725 17.725 0 0 0 1.365-3.349c.01-.032.015-.067.025-.113a38.335 38.335 0 0 1 -10.944.326m-2.79-9.015c-.041 0-.063 0-.084 0-.272.047-.544.093-.815.145a25.924 25.924 0 0 0 -3.6.953 9.9 9.9 0 0 0 -2.145 1.005c-.2.132-.175.074-.16.311a15.6 15.6 0 0 0 .382 2.562.2.2 0 0 0 .111.142c.275.136.546.283.825.411a15.61 15.61 0 0 0 2.161.762 28.1 28.1 0 0 0 3.109.7c.083.013.166.022.271.036a41.531 41.531 0 0 1 -.05-7.035m2.245 15.409c-.017-.048-.025-.078-.038-.1-.107-.219-.214-.439-.322-.658a16.367 16.367 0 0 1 -.716-1.656 18.835 18.835 0 0 1 -.963-4.21c-.023-.2-.02-.2-.216-.236a23.778 23.778 0 0 1 -3.241-.894 16.046 16.046 0 0 1 -2.634-1.211c-.041-.025-.083-.047-.148-.085a1.216 1.216 0 0 0 .029.131 15.34 15.34 0 0 0 1.224 2.851 13.248 13.248 0 0 0 3.086 3.7 15.941 15.941 0 0 0 3.812 2.327c.035.014.072.025.127.044m13.679-8.681c.05-.006.081-.008.111-.014.461-.112.924-.215 1.382-.339a15.476 15.476 0 0 0 2.769-.988.283.283 0 0 0 .177-.228c.086-.471.16-.944.2-1.422a14.044 14.044 0 0 0 .036-1.764.179.179 0 0 0 -.116-.177c-.363-.164-.717-.349-1.085-.5a21.609 21.609 0 0 0 -3.355-.984 1.11 1.11 0 0 0 -.116-.008 26.535 26.535 0 0 1 -.008 6.422m4.071-.122c-.069.032-.1.05-.141.069-.417.2-.827.41-1.252.59a21.338 21.338 0 0 1 -2.775.934.188.188 0 0 0 -.16.166c-.124.57-.243 1.142-.395 1.7a15.361 15.361 0 0 1 -1.462 3.6c-.339.6-.724 1.169-1.108 1.741-.034.049-.065.1-.1.152a.085.085 0 0 0 .077 0c.164-.078.329-.152.49-.234a11.726 11.726 0 0 0 2.248-1.538 14.46 14.46 0 0 0 2.6-2.983 16.245 16.245 0 0 0 1.9-3.95c.024-.072.045-.145.078-.25" fill="#00622c"/><path d="m518.4 212.694h13.814v14.081l-.323.261a18.966 18.966 0 0 1 -12.067 4.19c-9.355 0-16.683-6.955-16.683-15.833s7.328-15.833 16.683-15.833a17.434 17.434 0 0 1 11.185 3.986l.562.469-2.9 5.013-.785-.589a13.5 13.5 0 0 0 -8.064-2.632 8.389 8.389 0 0 0 -5.814 2.4 10.765 10.765 0 0 0 0 14.375 8.388 8.388 0 0 0 5.814 2.4 14.728 14.728 0 0 0 4.7-.758v-5.654l-6.122.042zm26.224-12.625h-7.693v30.647h17.894v-6.163h-10.2zm45.65 15.324c0 8.878-7.328 15.833-16.683 15.833s-16.683-6.955-16.683-15.833 7.328-15.833 16.683-15.833 16.683 6.954 16.683 15.833m-8.118 0a9.768 9.768 0 0 0 -2.751-7.188 8.247 8.247 0 0 0 -11.628 0 10.765 10.765 0 0 0 0 14.375 8.25 8.25 0 0 0 11.628 0 9.766 9.766 0 0 0 2.751-7.187m35.914 6.035a8.967 8.967 0 0 1 -2.273 6.039c-2.278 2.494-6.068 3.759-11.265 3.759a34.545 34.545 0 0 1 -9.632-1.352l-.632-.18v-28.309l.585-.2a28.367 28.367 0 0 1 9.34-1.621c7.639 0 10.349 4.591 10.349 8.521a7.319 7.319 0 0 1 -2.02 4.936 9.058 9.058 0 0 1 5.548 8.411m-16.109 3.652c.734.043 1.553.068 2.317.068 2.744 0 6.014-.683 6.014-3.932 0-.922-.372-3.932-5.164-3.932h-3.167zm5.059-16.573a2.9 2.9 0 0 0 -2.912-2.87c-.82 0-1.431 0-2.147.052v5.56h2.274a2.735 2.735 0 0 0 2.785-2.742m31.368 15.151a10.659 10.659 0 0 1 -4.656 1.064 4.531 4.531 0 0 1 -4.526-4.526v-20.131h-7.693v19.617a11.553 11.553 0 0 0 11.54 11.54 22.077 22.077 0 0 0 12.654-3.982l.373-.26v-26.915h-7.692zm23.946-11.985c-3-1.41-4.821-2.377-4.821-3.931 0-1.211 1.057-1.935 2.827-1.935a7.426 7.426 0 0 1 5.1 2.059l.658.621 3.725-4.267-.488-.572a11.787 11.787 0 0 0 -8.993-4.088c-7.12 0-10.308 4.344-10.308 8.649 0 5.855 4.836 8.266 8.723 10.2 2.709 1.35 5.049 2.516 5.049 4.375 0 .366-.167 2.189-3.464 2.189a9.53 9.53 0 0 1 -6.2-2.219l-.662-.555-3.783 4.443.62.568a14.491 14.491 0 0 0 10.025 4.012 11.665 11.665 0 0 0 8.007-2.761 8.712 8.712 0 0 0 2.895-6.526c0-6.082-4.939-8.4-8.908-10.266" fill="#f39200"/></g></svg>