<svg xmlns="http://www.w3.org/2000/svg" xmlns:xlink="http://www.w3.org/1999/xlink" width="283.464" height="226.772" viewBox="0 0 283.464 226.772">
  <defs>
    <clipPath id="clip-path">
      <path id="Pfad_13365" data-name="Pfad 13365" d="M0-226.772H283.464V0H0Z" fill="none"/>
    </clipPath>
  </defs>
  <g id="Gruppe_785" data-name="Gruppe 785" transform="translate(0 226.772)">
    <g id="Gruppe_784" data-name="Gruppe 784" clip-path="url(#clip-path)">
      <g id="Gruppe_782" data-name="Gruppe 782" transform="translate(200.105 -137.279)">
        <path id="Pfad_13363" data-name="Pfad 13363" d="M0,0C-.311.151-.473.233-.638.311c-1.883.894-3.74,1.852-5.658,2.667A95.473,95.473,0,0,1-18.841,7.2a.848.848,0,0,0-.72.745c-.562,2.577-1.1,5.163-1.784,7.708A69.7,69.7,0,0,1-27.953,31.93c-1.534,2.709-3.275,5.287-5.011,7.867-.153.228-.294.464-.44.7a.447.447,0,0,0,.348-.014c.739-.352,1.485-.689,2.21-1.066a52.583,52.583,0,0,0,10.162-6.947A65.436,65.436,0,0,0-8.953,18.986,73.663,73.663,0,0,0-.35,1.129C-.244.8-.147.475,0,0M-18.4.551c.229-.028.368-.031.5-.063,2.085-.505,4.18-.972,6.252-1.529A69.942,69.942,0,0,0,.861-5.508a1.279,1.279,0,0,0,.8-1.029c.39-2.133.723-4.272.926-6.432a63.083,63.083,0,0,0,.16-7.969.8.8,0,0,0-.525-.8c-1.637-.743-3.236-1.579-4.9-2.247a96.473,96.473,0,0,0-15.159-4.447,3.885,3.885,0,0,0-.525-.037A120.048,120.048,0,0,1-18.4.551m-61.82,39.234c-.079-.218-.115-.35-.174-.471q-.723-1.491-1.454-2.977a73.258,73.258,0,0,1-3.236-7.483A85.058,85.058,0,0,1-89.438,9.825c-.1-.884-.09-.884-.976-1.066A106.856,106.856,0,0,1-105.061,4.72,72.48,72.48,0,0,1-116.968-.757c-.186-.108-.375-.21-.672-.377.064.286.086.441.134.588a69.81,69.81,0,0,0,5.529,12.886A59.962,59.962,0,0,0-98.026,29.075,72.294,72.294,0,0,0-80.8,39.585c.159.07.329.115.578.2M-90.37-29.853c-.186.01-.283,0-.378.021-1.228.215-2.459.417-3.683.656a118.047,118.047,0,0,0-16.293,4.3,44.745,44.745,0,0,0-9.7,4.547c-.917.593-.791.334-.723,1.4a70.967,70.967,0,0,0,1.727,11.578.874.874,0,0,0,.5.642c1.245.618,2.467,1.286,3.731,1.86A71.2,71.2,0,0,0-105.416-1.4a125.932,125.932,0,0,0,14.05,3.179c.373.063.75.1,1.223.168a187.205,187.205,0,0,1-.227-31.8m12.608,40.74c.035.28.054.5.092.717A100.778,100.778,0,0,0-75.083,22.9,52.48,52.48,0,0,0-71.622,32a25.394,25.394,0,0,0,4.884,6.8,13.153,13.153,0,0,0,8.9,3.88,17.627,17.627,0,0,0,7.475-1.415,24.312,24.312,0,0,0,7.676-5.3,45.65,45.65,0,0,0,8.1-10.89A79.911,79.911,0,0,0-28.41,9.928c.045-.148.065-.3.11-.516a173.217,173.217,0,0,1-49.462,1.475M-26.4,2.035a108.563,108.563,0,0,0,2.031-13.608c.176-2.037.294-4.08.409-6.122.214-3.8.194-7.608.061-11.412-.016-.489-.026-.5-.52-.574-2.2-.326-4.4-.7-6.617-.954-3.372-.389-6.751-.724-10.132-1.031-3.934-.357-7.88-.517-11.829-.583-6-.1-11.991-.027-17.979.344-2.551.158-5.1.351-7.652.533a3.673,3.673,0,0,0-.494.1c-.781,5.444-.433,31.792.471,34.683A218.654,218.654,0,0,0-26.4,2.035M2.1-26.681a1.008,1.008,0,0,0,.064-.234,3.822,3.822,0,0,0-.036-.427A94.3,94.3,0,0,0-.79-40.883,86.649,86.649,0,0,0-5.868-54.164a67.163,67.163,0,0,0-5.342-9.02A57.387,57.387,0,0,0-22.789-75.8a40.9,40.9,0,0,0-13.073-6.993A24.122,24.122,0,0,0-46.9-83.547,26.033,26.033,0,0,0-59.222-78.1a36.564,36.564,0,0,0-8.546,9.884c-.765,1.258-1.441,2.568-2.183,3.841a61.081,61.081,0,0,0-4.861,10.509A76.094,76.094,0,0,0-78.289-39.39c-.027.194-.019.392-.029.623a169.556,169.556,0,0,1,53.865,2.176c-.02-.327-.022-.57-.051-.81-.164-1.34-.313-2.682-.508-4.017a110.534,110.534,0,0,0-3.2-14.926,2.536,2.536,0,0,1-.1-.479,1.284,1.284,0,0,1,.949-1.4,1.325,1.325,0,0,1,1.568.649,6.111,6.111,0,0,1,.247.561,98.61,98.61,0,0,1,5.819,19.545c.14.718.266,1.439.4,2.15,7.486,2.1,14.784,4.53,21.434,8.635m-123.348,2.23c.207-.119.314-.169.409-.236a59.344,59.344,0,0,1,11.266-6.2,95.6,95.6,0,0,1,16.58-5.263c1.056-.243,2.116-.47,3.173-.706a2.413,2.413,0,0,0,.231-.083c.078-.473.165-.973.243-1.474A95.462,95.462,0,0,1-85.613-54.1a77.218,77.218,0,0,1,5.892-13.472A48.317,48.317,0,0,1-69.037-80.841a35.452,35.452,0,0,1,15.249-7.811,35.642,35.642,0,0,1,8.037-.841A45.522,45.522,0,0,1-29.835-86.31a52.261,52.261,0,0,1,13.473,7.479,60.837,60.837,0,0,1,7.281,6.577A76.207,76.207,0,0,1-2.593-64.4a88.823,88.823,0,0,1,6.75,10.753,69.564,69.564,0,0,1,7.279,22.037,74.387,74.387,0,0,1,.681,15.426A73.892,73.892,0,0,1,9.037,1.169a76.114,76.114,0,0,1-9.8,20.588A73.835,73.835,0,0,1-12.344,35.146,70.041,70.041,0,0,1-28.958,46.394a72.707,72.707,0,0,1-16.111,5.468,74.6,74.6,0,0,1-9.022,1.443,66.59,66.59,0,0,1-12.26.064,60.932,60.932,0,0,1-21.338-5.923,68.585,68.585,0,0,1-11.67-7.223,85.682,85.682,0,0,1-11.266-10.392,72.972,72.972,0,0,1-8.531-11.3,66.135,66.135,0,0,1-7.385-17.063,69.434,69.434,0,0,1-2.11-11.511,74.84,74.84,0,0,1-.074-13.488,75.612,75.612,0,0,1,2.4-13.761A64.144,64.144,0,0,1-119.1-54.025a63.48,63.48,0,0,1,10.582-13.014,4.065,4.065,0,0,1,.565-.469,1.852,1.852,0,0,1,2.312.246,1.865,1.865,0,0,1,.319,2.357,11.61,11.61,0,0,1-.737.98,74.8,74.8,0,0,0-9.52,15.28,59.4,59.4,0,0,0-5.105,17.42c-.266,2.088-.376,4.195-.555,6.294-.01.12,0,.241,0,.48" fill="#01632e"/>
      </g>
      <g id="Gruppe_783" data-name="Gruppe 783" transform="translate(268.443 -32.971)">
        <path id="Pfad_13364" data-name="Pfad 13364" d="M0,0C-5.059-2.377-8.13-4.009-8.13-6.629c0-2.043,1.782-3.262,4.767-3.262a12.517,12.517,0,0,1,8.6,3.47L6.344-5.374l6.282-7.193-.824-.965A19.878,19.878,0,0,0-3.363-20.426c-12.007,0-17.381,7.325-17.381,14.585,0,9.874,8.155,13.94,14.709,17.205,4.568,2.278,8.514,4.244,8.514,7.38,0,.616-.282,3.692-5.842,3.692a16.056,16.056,0,0,1-10.453-3.744l-1.118-.934-6.379,7.492,1.046.956a24.43,24.43,0,0,0,16.9,6.765c5.474,0,10.144-1.61,13.5-4.655a14.686,14.686,0,0,0,4.881-11C15.021,7.056,6.692,3.144,0,0M-40.381,20.209A17.943,17.943,0,0,1-48.23,22a7.641,7.641,0,0,1-7.633-7.633V-19.566H-68.836V13.512A19.482,19.482,0,0,0-49.377,32.971a37.224,37.224,0,0,0,21.338-6.714l.631-.439V-19.566H-40.381ZM-93.275-5.339a4.881,4.881,0,0,0-4.911-4.839c-1.381,0-2.413,0-3.62.086V-.716h3.835a4.61,4.61,0,0,0,4.7-4.623m-8.531,27.947c1.238.073,2.619.114,3.908.114,4.627,0,10.142-1.151,10.142-6.63,0-1.556-.629-6.631-8.709-6.631h-5.341Zm27.165-6.158a15.119,15.119,0,0,1-3.834,10.183c-3.84,4.206-10.231,6.338-18.994,6.338a58.279,58.279,0,0,1-16.244-2.279l-1.065-.3V-17.349l.986-.343a47.775,47.775,0,0,1,15.75-2.734c12.882,0,17.452,7.741,17.452,14.37A12.34,12.34,0,0,1-84,2.267,15.271,15.271,0,0,1-74.641,16.45M-135.2,6.272c0-4.958-1.6-9.149-4.638-12.121a14.15,14.15,0,0,0-9.8-4.042,14.148,14.148,0,0,0-9.8,4.042c-3.034,2.972-4.638,7.163-4.638,12.121s1.6,9.149,4.638,12.121a14.149,14.149,0,0,0,9.8,4.043,14.151,14.151,0,0,0,9.8-4.043c3.034-2.972,4.638-7.163,4.638-12.121m13.689,0c0,14.971-12.357,26.7-28.132,26.7s-28.132-11.728-28.132-26.7,12.358-26.7,28.132-26.7,28.132,11.727,28.132,26.7m-76.977-25.838h-12.973V32.11h30.174V21.719h-17.2Zm-44.22,21.288h23.293V25.466l-.546.441a31.98,31.98,0,0,1-20.347,7.064c-15.775,0-28.132-11.728-28.132-26.7s12.357-26.7,28.132-26.7A29.408,29.408,0,0,1-221.45-13.7l.948.792-4.888,8.452-1.324-.993a22.764,22.764,0,0,0-13.6-4.437,14.146,14.146,0,0,0-9.8,4.042c-3.035,2.972-4.639,7.163-4.639,12.121s1.6,9.149,4.639,12.121a14.147,14.147,0,0,0,9.8,4.043,24.842,24.842,0,0,0,7.92-1.28V11.622l-10.32.071Z" fill="#ff9027"/>
      </g>
    </g>
  </g>
</svg>
