<svg height="144.625" viewBox="0 0 1920 144.625" width="1920" xmlns="http://www.w3.org/2000/svg"><path d="m39.54 170.52h120.57v59.04a47.43 47.43 0 0 1 -47.445 47.43h-25.695a47.43 47.43 0 0 1 -47.43-47.43z" fill="#f49c27" transform="translate(19.77 -132.365)"/><path d="m200.57 170.52h126.495v59.04a47.415 47.415 0 0 1 -47.43 47.43h-31.635a47.43 47.43 0 0 1 -47.43-47.43z" fill="#f49c27" transform="translate(100.285 -132.365)"/><path d="m363.18 170.52h126.51v59.04a47.43 47.43 0 0 1 -47.445 47.43h-31.62a47.43 47.43 0 0 1 -47.445-47.43z" fill="#f49c27" transform="translate(181.59 -132.365)"/><path d="m525.28 170.52h114.24v59.04a47.43 47.43 0 0 1 -47.43 47.43h-19.38a47.415 47.415 0 0 1 -47.43-47.43z" fill="#f49c27" transform="translate(262.64 -132.365)"/><path d="m120.19 170.52h120.18v59.04a47.43 47.43 0 0 1 -47.445 47.43h-25.3a47.415 47.415 0 0 1 -47.43-47.43z" fill="#f2f2f2" transform="translate(60.095 -132.365)"/><path d="m284.64 170.52h117.81v59.04a47.415 47.415 0 0 1 -47.445 47.43h-22.92a47.43 47.43 0 0 1 -47.445-47.43z" fill="#f2f2f2" transform="translate(142.32 -132.365)"/><path d="m447.52 170.52h116.22v59.04a47.445 47.445 0 0 1 -47.445 47.43h-21.33a47.43 47.43 0 0 1 -47.445-47.43z" fill="#f2f2f2" transform="translate(223.76 -132.365)"/><path d="m1280.66 170.52h-120.57v59.04a47.415 47.415 0 0 0 47.43 47.43h25.71a47.43 47.43 0 0 0 47.43-47.43z" fill="#f49c27" transform="translate(580.045 -132.365)"/><path d="m1121.61 170.52h-126.51v59.04a47.43 47.43 0 0 0 47.445 47.43h31.635a47.43 47.43 0 0 0 47.43-47.43z" fill="#f49c27" transform="translate(497.55 -132.365)"/><path d="m958.985 170.52h-126.495v59.04a47.415 47.415 0 0 0 47.43 47.43h31.635a47.415 47.415 0 0 0 47.43-47.43z" fill="#f49c27" transform="translate(416.245 -132.365)"/><path d="m792.825 170.52h-114.255v59.04a47.43 47.43 0 0 0 47.445 47.43h19.365a47.445 47.445 0 0 0 47.445-47.43z" fill="#f49c27" transform="translate(339.285 -132.365)"/><path d="m1199.9 170.52h-120.2v59.04a47.43 47.43 0 0 0 47.46 47.43h25.29a47.43 47.43 0 0 0 47.445-47.43z" fill="#f2f2f2" transform="translate(539.85 -132.365)"/><path d="m1034.63 170.52h-117.81v59.04a47.43 47.43 0 0 0 47.445 47.43h22.92a47.43 47.43 0 0 0 47.445-47.43z" fill="#f2f2f2" transform="translate(458.41 -132.365)"/><path d="m871.235 170.52h-116.235v59.04a47.43 47.43 0 0 0 47.445 47.43h21.345a47.43 47.43 0 0 0 47.445-47.43z" fill="#f2f2f2" transform="translate(377.5 -132.365)"/><path d="m1299.905 170.51v82.965c0 15.375-16.3 26.13-29.88 18.945-1.41-.765-2.865-1.62-4.335-2.58-16.29-10.785-25.5-29.625-25.5-49.185v-50.145z" fill="#f2f2f2" transform="translate(620.095 -132.37)"/><path d="m601.17 170.52h116.235v59.04a47.43 47.43 0 0 1 -47.49 47.43h-21.3a47.445 47.445 0 0 1 -47.445-47.43z" fill="#f2f2f2" transform="translate(300.585 -132.365)"/><path d="m1987.145 431.44h-1852.11a34.357 34.357 0 0 1 -8.6-1.083 33.081 33.081 0 0 1 -19.284-13.74 32.416 32.416 0 0 1 -5.228-14.322 31.4 31.4 0 0 1 .13-7.88 32.486 32.486 0 0 1 2.222-7.975l11.735-27.94h1888.535l12.676 26.4a32.742 32.742 0 0 1 2.68 8.113 31.438 31.438 0 0 1 .464 8.089 32.389 32.389 0 0 1 -4.9 14.841 33.011 33.011 0 0 1 -19.489 14.361 34.382 34.382 0 0 1 -8.831 1.136z" fill="#ffa500" transform="translate(-101 -358.5)"/><path d="m0 170.51v88.19c0 11.055 10.23 19.935 21 17.22a43.319 43.319 0 0 0 13.275-6.075c16.29-10.785 25.5-29.625 25.5-49.185v-50.15z" fill="#e2e2e2" transform="translate(0 -132.37)"/><g transform="translate(-101 -358.5)"><path d="m1118.81 431.441h-115.455v-72.941h115.455v72.94z" fill="#fff"/><path d="m888.74 431.441h-115.755l5.371-72.941h115.755l-5.371 72.94z" fill="#fff"/><path d="m1349.21 431.441h-115.77l-1.725-72.941h112.125l5.371 72.941z" fill="#fff"/><path d="m645.755 431.441h-117.435l13.58-72.941h113.79l-9.937 72.941z" fill="#fff"/><path d="m1593.875 431.44h-117.435l-13.582-72.94h117.43l13.587 72.941z" fill="#fff"/><path d="m401.075 431.44h-119.715l20.021-72.94h119.719z" fill="#fff"/><path d="m1840.835 431.44h-119.745l-20.012-72.94h119.736l20.021 72.941z" fill="#fff"/><path d="m160.535 431.411h-25.5a34.382 34.382 0 0 1 -8.6-1.081 33.06 33.06 0 0 1 -19.274-13.717 32.419 32.419 0 0 1 -5.236-14.326 31.463 31.463 0 0 1 .126-7.888 32.582 32.582 0 0 1 2.218-7.987l11.725-27.912h70.145l-25.6 72.911z" fill="#fcfcfc"/><path d="m1987.274 431.4h-25.574l-25.618-72.9h68.48l12.7 26.44a32.638 32.638 0 0 1 2.667 8.1 31.409 31.409 0 0 1 .454 8.078 32.4 32.4 0 0 1 -4.906 14.824 32.924 32.924 0 0 1 -19.415 14.318 34.165 34.165 0 0 1 -8.788 1.14z" fill="#fff"/></g></svg>