<svg xmlns="http://www.w3.org/2000/svg" width="164.239" height="1081" viewBox="0 0 164.239 1081">
  <path id="Differenzmenge_14" data-name="Differenzmenge 14" d="M162.916,1097H0c8.283-20.068,16.2-40.725,23.542-61.4,7.374-20.774,14.353-42.109,20.743-63.411,6.428-21.432,12.43-43.4,17.838-65.29,5.446-22.044,10.435-44.6,14.83-67.033,4.428-22.607,8.369-45.7,11.716-68.641,3.374-23.129,6.233-46.719,8.5-70.115,2.285-23.6,4.026-47.645,5.176-71.454,1.16-24.033,1.748-48.479,1.748-72.658s-.588-48.625-1.748-72.659c-1.149-23.809-2.891-47.85-5.176-71.454-2.265-23.4-5.124-46.987-8.5-70.115-3.347-22.939-7.289-46.034-11.716-68.641-4.394-22.435-9.383-44.988-14.83-67.032-5.408-21.891-11.41-43.857-17.838-65.289C37.9,120.509,30.917,99.174,23.542,78.4,16.207,57.734,8.286,37.077,0,17H162.916V1097Z" transform="translate(0.747 -16.5)" fill="orange" stroke="rgba(0,0,0,0)" stroke-miterlimit="10" stroke-width="1"/>
</svg>
