<svg xmlns="http://www.w3.org/2000/svg" width="399.634" height="138.511" viewBox="0 0 399.634 138.511">
  <g id="Gruppe_1111" data-name="Gruppe 1111" transform="translate(-440.461 -3409.285)">
    <path id="path30" d="M384.041-517.305a2.408,2.408,0,0,1,.428,1.011,1.258,1.258,0,0,0,.972,1.167.865.865,0,0,1,.505.195c.194.194.194.194.544,0,.156-.078.311-.428.428-.973a38.893,38.893,0,0,1,3.228-8.517A122.627,122.627,0,0,1,400.1-540.95c1.555-2.061,1.711-2.372,1.517-2.839-.117-.233-.272-.35-.428-.272-.117.039-.156,0-.117-.078s.039-.117-.039-.117c-.117,0-.194-.156-.272-.311q-.35-1.109-2.217.933a85.4,85.4,0,0,0-8.05,11.589,68.2,68.2,0,0,0-4.939,10.578c-.155.583-.389,1.011-.467.933a24.152,24.152,0,0,1-.117-2.839c0-4.045.233-5.872,1.867-13.767.622-3.073.856-4.667.739-5.328-.078-.272-.156-.467-.194-.389-.039.039-.156-.078-.272-.233a.415.415,0,0,0-.428-.233c-.117.039-.194,0-.194-.078s-.117-.117-.233-.117c-.078,0-.272-.194-.389-.389a.748.748,0,0,0-1.206-.116c-.933,1.05-3.072,8.205-3.539,11.783-.389,3.306.078,9.256.894,11.395a19.407,19.407,0,0,0,2.022,3.539Zm14.817-24.734a1.717,1.717,0,0,1,.35-.311c.039,0-.078.156-.194.311a1.159,1.159,0,0,1-.35.272C398.624-541.767,398.7-541.883,398.858-542.039Zm-.583.817.389-.467-.35.545c-1.945,2.761-3.656,5.25-4.433,6.533-.972,1.595-1.167,1.906-1.167,1.711a88.245,88.245,0,0,1,5.561-8.322Zm-6.261,9.411a1.661,1.661,0,0,1,.311-.467c.039,0,0,.194-.156.467a1.134,1.134,0,0,1-.311.428C391.819-531.383,391.9-531.578,392.013-531.811Zm-.583,1.089c.117-.155-.039.233-.389.895a17.213,17.213,0,0,1-1.594,2.839c0-.156,1.711-3.344,1.983-3.733Zm-2.061,3.928c.039,0-.039.233-.156.506-.272.544-.35.661-.35.505A2.728,2.728,0,0,1,389.369-526.794Zm-1.283,2.528c.117-.117.156-.156.156-.078a.628.628,0,0,1-.156.389c-.078.117-.117.156-.117.078A.869.869,0,0,1,388.085-524.266Zm3.228-5.484c2.334-4.239,7.272-11.667,8.828-13.261.35-.311-.117.35-.856,1.245A102.775,102.775,0,0,0,387.891-522.4c-.544,1.322-.661,1.556-.661,1.322A71.114,71.114,0,0,1,391.313-529.75Zm-4.239,9.061c.078-.155.117-.155.117-.078a.737.737,0,0,1-.117.35c-.078.117-.156.156-.156.078A.88.88,0,0,1,387.074-520.689Zm-.817,2.528c.117-.583.622-2.1.661-1.867a8.33,8.33,0,0,1-.389,1.245C386.335-518.161,386.219-517.889,386.257-518.161Zm-.117.661a.662.662,0,0,1,0,.389c-.039.117-.078,0-.078-.194S386.1-517.577,386.141-517.5Zm-.155.817a1.292,1.292,0,0,1,0,.545c-.039.117-.078,0-.078-.272s.039-.389.078-.272Zm-.233-1.011c0-.156.039-.194.078-.078a.319.319,0,0,1,0,.272C385.791-517.422,385.752-517.539,385.752-517.694Zm-.194,1.283c.078,0,.117.156.078.389-.039.194-.117.35-.156.35a1.6,1.6,0,0,1-.039-.35C385.441-516.255,385.48-516.411,385.557-516.411Zm-1.828-14.428c-.039.078-.078-.039-.078-.194.039-.156.078-.195.117-.078s.039.233-.039.272Zm.156-.933c-.039.078-.039,0-.039-.194s0-.272.039-.194A.353.353,0,0,1,383.885-531.772Zm.156-.817c-.039.039-.078-.039-.078-.194,0-.194.039-.233.078-.117A.426.426,0,0,1,384.041-532.589Zm.156-.739c-.039.039-.078-.039-.078-.194,0-.194.039-.234.078-.117A.427.427,0,0,1,384.2-533.328Zm.156-.739c-.078.039-.078-.039-.078-.195,0-.194.039-.233.078-.117A.427.427,0,0,1,384.352-534.067Zm.272,5.678c-.039.117-.039,0-.039-.233,0-.272.039-.35.078-.195A.516.516,0,0,1,384.624-528.389Zm.156-1.167c-.039.117-.078-.039-.039-.272,0-.233.039-.311.039-.195A.946.946,0,0,1,384.78-529.555Zm.156-.894c-.039.117-.078,0-.078-.272,0-.233.039-.311.078-.155A.8.8,0,0,1,384.935-530.45Zm0-6.145c-.039.039-.078-.039-.078-.194,0-.194.039-.233.078-.117A.426.426,0,0,1,384.935-536.595Zm-.467-.622a50.056,50.056,0,0,0-1.4,7.7c-.078,1.05-.195,2.567-.195,3.345-.039.739-.039.039-.039-1.633a25.78,25.78,0,0,1,.35-4.667,70.981,70.981,0,0,1,1.828-7.35C385.169-540.094,385.169-539.939,384.469-537.217Zm.544-.194c0-.156.039-.194.078-.078a.32.32,0,0,1,0,.272C385.013-537.139,385.013-537.255,385.013-537.411Zm.117,5.795c-.078.428-.117.428-.117.078a8.215,8.215,0,0,1,.117-.817c.117-.389.117-.389.117-.078A2.96,2.96,0,0,1,385.13-531.617Zm.272-1.361c-.039.117-.078.039-.078-.195,0-.194.039-.272.078-.155A.539.539,0,0,1,385.4-532.978Zm.117-.661c-.039.039-.078-.039-.078-.194,0-.195.039-.195.078-.078A.231.231,0,0,1,385.519-533.639Zm.622-3.111a.664.664,0,0,1,0,.389c-.039.078-.078,0-.078-.194S386.1-536.867,386.141-536.75Zm-.117.778c0,.117-.117.583-.194,1.05-.117.428-.233.661-.233.505a5.62,5.62,0,0,1,.194-1.05C385.908-535.856,386.024-536.089,386.024-535.972Zm-.156-6.922c.117-.233.156-.194.078.194a13.826,13.826,0,0,1-.778,2.333A10.726,10.726,0,0,1,385.869-542.895Zm-3.461,13.611a22.671,22.671,0,0,1,.311-3.189c.544-3.15,2.333-9.878,2.644-9.878a2.843,2.843,0,0,1-.233.778c-.545,1.594-1.828,6.767-2.294,9.295-.117.778-.311,2.178-.389,3.111l-.117,1.711Zm17.5-2.878c-.195.078-.272,0-.272-.117s-.117-.156-.233-.117-.233-.039-.311-.233a.63.63,0,0,0-.894-.428c-.972.35-2.761,5.989-3.383,10.617-.7,4.783.272,7.583,3.072,9.022,1.011.506,1.439.428,1.05-.233a6.272,6.272,0,0,1-.778-3.228c-.078-2.178.078-3.189,1.4-8.711,1.361-5.756,1.361-5.833.972-6.3A.655.655,0,0,0,399.908-532.161Zm-2.1,2.917c.039.078.039.233-.039.272-.039.039-.078-.039-.078-.195S397.73-529.361,397.808-529.244Zm-.622,1.944a3.453,3.453,0,0,1,.233-.817c.078-.195.078-.156.039.233-.078.272-.156.622-.233.817S397.108-526.95,397.185-527.3Zm-.739,3.072a15.533,15.533,0,0,1,.622-2.372,8.772,8.772,0,0,1-.272,1.517C396.485-523.8,396.252-523.255,396.447-524.227Zm-.117.817a1.328,1.328,0,0,1-.039.428c-.039.117-.039,0-.039-.233C396.252-523.489,396.291-523.566,396.33-523.411Zm-.467,3.344c-.078.039-.078-.039-.078-.194,0-.195.039-.233.078-.117A.425.425,0,0,1,395.863-520.066Zm.194-2.139q.117-.7.117-.117a3.235,3.235,0,0,1-.117.855C395.9-520.844,395.9-521.428,396.058-522.205Zm.117,3.383c-.039.117-.078,0-.078-.272,0-.233.039-.311.078-.156A.8.8,0,0,1,396.174-518.822Zm.194-1.672c-.117.894-.117.894-.156.311-.039-1.361,1.05-6.222,2.178-9.839a6.2,6.2,0,0,1,.661-1.711c.078,0,.078.039.039.117-.272.467-1.867,6.533-2.372,8.983C396.6-521.972,396.447-521,396.369-520.494Zm.817-1.867c-.039.078-.078,0-.078-.194s.039-.311.078-.195A.663.663,0,0,1,397.185-522.361Zm.156-.7c-.039.078-.078-.039-.078-.194s.039-.194.078-.078A.319.319,0,0,1,397.341-523.061Zm.272-1.322c-.039.039-.078-.039-.078-.195.039-.156.078-.194.117-.078S397.691-524.422,397.613-524.383Zm.233-.856c-.117.311-.117.311-.117.078a2.152,2.152,0,0,1,.117-.661c.078-.311.117-.311.117-.078A4.768,4.768,0,0,1,397.847-525.239Zm.233-1.05c-.039.039-.078-.039-.078-.195,0-.194.039-.233.078-.117A.426.426,0,0,1,398.08-526.289Zm.156-.622c-.078.078-.078-.039-.078-.194s.039-.194.078-.078A.318.318,0,0,1,398.235-526.911Zm.739-2.606A13.5,13.5,0,0,1,398.43-528a19.3,19.3,0,0,1,1.011-3.344C399.441-531.267,399.247-530.45,398.974-529.517Zm3.033-9.489a7.87,7.87,0,0,0-3.189,1.983c-.7.622-.7.661-.506,1.089.117.311.272.428.428.389s.272.039.272.117.156.039.35-.117.233-.194.156-.078c-.195.233-.272.778-.117.933.194.194.622.039.855-.35a8.122,8.122,0,0,1,2.411-2.217c.35-.156.661-.389.661-.506a3.7,3.7,0,0,0-1.322-1.245Zm8.128,6.961c-.311-.195-.856-.545-1.206-.778-1.206-.856-2.761-.506-4.317.933a6.86,6.86,0,0,0-2.139,4.2c-.194,1.75.35,3.306,2.1,5.833,1.05,1.555,1.322,2.333,1.206,3.461a3.518,3.518,0,0,1-3.15,3.111c-.817.117-.856.117-1.439-.389a4.367,4.367,0,0,1-.856-.856c-.117-.233-.272-.389-.35-.35a.4.4,0,0,1-.272-.194c-.078-.156-.194-.078-.467.272a1.6,1.6,0,0,0-.389.7c0,.7,2.294,2.333,4.006,2.878a7.143,7.143,0,0,0,1.983.117,4.644,4.644,0,0,0,4.317-2.528,3.015,3.015,0,0,0,.35-1.906c-.078-1.206-.35-1.75-1.828-4.122a13.508,13.508,0,0,1-1.283-2.333,5.83,5.83,0,0,1,1.283-5.639,3.457,3.457,0,0,1,1.478-1.05,6.286,6.286,0,0,1,0,1.867l-.078,1.867.467.195c.272.117.428.233.35.233s-.078.078.039.156c.428.428,1.206-.583,1.594-2.061a2.658,2.658,0,0,0,.078-1.633,3.174,3.174,0,0,0-1.478-1.983Zm-2.294,15.128c.117-.272.194-.389.194-.272,0,.233-.428,1.05-.428.856A2.048,2.048,0,0,1,407.841-516.916Zm-.506-.428c.194-.933.233-1.011.272-.428a1.566,1.566,0,0,1-.233.817C407.219-516.683,407.18-516.722,407.336-517.344Zm-.233-.622a.664.664,0,0,1,0,.389c-.039.078-.078,0-.078-.194S407.063-518.083,407.1-517.966Zm-3.111-10.072c-.039.039-.078-.039-.078-.194,0-.195.039-.195.078-.078A.329.329,0,0,1,403.991-528.039Zm.35.622c0,.156-.039.311-.117.35-.233.156.078-1.322.389-1.944a2.858,2.858,0,0,1,.389-.623,5.037,5.037,0,0,1-.311.972,6.408,6.408,0,0,0-.35,1.245Zm1.244-1.944c-.194.467-.467,1.05-.583,1.361l-.195.505.078-.505a4.3,4.3,0,0,1,.856-1.867C405.9-530.022,405.819-529.789,405.586-529.361Zm4.628,1.167c-.039.039-.078-.039-.078-.194s.039-.195.078-.078A.33.33,0,0,1,410.214-528.194Zm6.959-3.967c-.193.078-.27,0-.27-.117s-.117-.156-.233-.117-.235-.039-.311-.233a.631.631,0,0,0-.9-.428c-.972.35-2.759,5.989-3.383,10.617-.7,4.783.274,7.583,3.074,9.022,1.011.506,1.439.428,1.048-.233a6.273,6.273,0,0,1-.776-3.228c-.08-2.178.078-3.189,1.4-8.711,1.361-5.756,1.361-5.833.972-6.3A.658.658,0,0,0,417.173-532.161Zm-2.1,2.917c.037.078.037.233-.039.272-.041.039-.078-.039-.078-.195s.037-.194.117-.078Zm-.622,1.944a3.456,3.456,0,0,1,.232-.817c.08-.195.08-.156.041.233-.078.272-.157.622-.235.817S414.373-526.95,414.452-527.3Zm-.741,3.072a15.7,15.7,0,0,1,.624-2.372,8.961,8.961,0,0,1-.272,1.517C413.752-523.8,413.517-523.255,413.712-524.227Zm-.117.817a1.4,1.4,0,0,1-.037.428c-.041.117-.041,0-.041-.233C413.517-523.489,413.558-523.566,413.595-523.411Zm-.465,3.344c-.08.039-.08-.039-.08-.194,0-.195.041-.233.08-.117A.447.447,0,0,1,413.13-520.066Zm.194-2.139c.076-.467.117-.506.117-.117a3.315,3.315,0,0,1-.117.855C413.167-520.844,413.167-521.428,413.325-522.205Zm.117,3.383c-.041.117-.078,0-.078-.272,0-.233.037-.311.078-.156A.8.8,0,0,1,413.441-518.822Zm.195-1.672c-.119.894-.119.894-.156.311-.039-1.361,1.05-6.222,2.176-9.839a6.349,6.349,0,0,1,.661-1.711c.08,0,.08.039.041.117-.274.467-1.869,6.533-2.372,8.983C413.869-521.972,413.712-521,413.636-520.494Zm.817-1.867c-.039.078-.08,0-.08-.194s.041-.311.08-.195A.7.7,0,0,1,414.452-522.361Zm.156-.7c-.041.078-.078-.039-.078-.194s.037-.194.078-.078A.319.319,0,0,1,414.608-523.061Zm.272-1.322c-.039.039-.08-.039-.08-.195.041-.156.08-.194.117-.078s.041.233-.037.272Zm.231-.856c-.117.311-.117.311-.117.078a2.215,2.215,0,0,1,.117-.661c.08-.311.117-.311.117-.078A4.487,4.487,0,0,1,415.112-525.239Zm.233-1.05c-.037.039-.076-.039-.076-.195,0-.194.039-.233.076-.117A.408.408,0,0,1,415.345-526.289Zm.158-.622c-.078.078-.078-.039-.078-.194s.037-.194.078-.078A.334.334,0,0,1,415.5-526.911Zm.739-2.606A13.463,13.463,0,0,1,415.7-528a19.137,19.137,0,0,1,1.011-3.344C416.708-531.267,416.512-530.45,416.241-529.517Zm3.033-9.489a7.873,7.873,0,0,0-3.191,1.983c-.7.622-.7.661-.5,1.089.117.311.272.428.428.389s.272.039.272.117.154.039.348-.117.233-.194.157-.078c-.194.233-.274.778-.117.933.193.194.62.039.856-.35a8.123,8.123,0,0,1,2.411-2.217c.35-.156.661-.389.661-.506A3.7,3.7,0,0,0,419.275-539.006Zm9.682,6.65a3.13,3.13,0,0,0-1.945-.622,1.71,1.71,0,0,1-1.05-.195c-1.206-1.128-3.928,1.245-5.756,5.056-2.1,4.356-2.761,9.139-1.556,11.706.544,1.206,2.139,2.605,2.956,2.605a2.953,2.953,0,0,1,.855.35,2.1,2.1,0,0,0,2.1.156c1.983-.7,4.122-3.928,5.756-8.789,1.206-3.617,1.478-6.533.739-8.283C430.628-531.305,430.356-531.539,428.956-532.356Zm.467,8.245c0-.195.039-.233.078-.117a.426.426,0,0,1,0,.311C429.462-523.878,429.423-523.956,429.423-524.111Zm-9.217-.156c.039-.195.078-.233.117-.078a.329.329,0,0,1,0,.272C420.245-524.033,420.206-524.111,420.206-524.266Zm-.544,3.033c-.039.544-.117,1.011-.117,1.05-.117.117-.039-1.089.078-1.556C419.7-522.011,419.7-521.817,419.662-521.233Zm.156-1.245a2.156,2.156,0,0,1,.117-.661c.078-.311.117-.311.117-.078a4.753,4.753,0,0,1-.117.661C419.817-522.244,419.817-522.244,419.817-522.478Zm.661-.389a16.507,16.507,0,0,0-.389,3.111c-.117,1.75-.117,1.828-.233.972-.233-1.944.855-6.572,2.139-9.1.467-.933.467-.7,0,.311A40.067,40.067,0,0,0,420.478-522.866Zm1.167,3.072c-.039.078-.078-.039-.078-.194s.039-.195.078-.078A.319.319,0,0,1,421.645-519.794Zm.272-5.989c-.272.894-.739,2.45-.972,3.5a7.2,7.2,0,0,1-.428,1.556A27.513,27.513,0,0,1,422.656-528a10.409,10.409,0,0,1,.895-1.672,7.461,7.461,0,0,1-.506,1.167C422.734-527.883,422.228-526.639,421.917-525.783Zm6.611,5.483c-.156.156-.156.117-.078-.078.039-.156.156-.233.195-.195S428.645-520.378,428.529-520.3Zm.505-1.206a4.533,4.533,0,0,1-.233.583c-.117.155-.117.117-.039-.156a2.027,2.027,0,0,1,.233-.583C429.073-521.817,429.073-521.778,429.034-521.505Zm.039-6.883c-.195,3.617-2.722,10.15-4.667,11.939-.233.194-.661.544-.972.778-.35.195-.661.389-.7.389-.311,0-.583-1.595-.583-3.073a23.187,23.187,0,0,1,1.128-6.456c.739-2.645,1.283-3.734,2.411-4.783.933-.817,2.683-1.828,2.956-1.633C428.956-531.033,429.151-529.789,429.073-528.389Zm.428,5.6c-.272.583-.272.311-.039-.35.117-.311.233-.428.233-.311a3.724,3.724,0,0,1-.195.661Zm.195-2.45c.117-.272.117-.311.117-.078a1.613,1.613,0,0,1-.117.622C429.54-524.344,429.54-524.733,429.7-525.239Zm.078,1.439c-.039.078-.078-.039-.078-.194.039-.155.039-.194.117-.078C429.851-523.955,429.851-523.839,429.773-523.8Zm.311-1.011c-.039.039-.078-.039-.078-.194,0-.194.039-.233.078-.117A.415.415,0,0,1,430.084-524.811Zm.039-1.944a4.666,4.666,0,0,1-.117.778c-.117.272-.117.156-.039-.35C430.045-527.183,430.162-527.417,430.123-526.755Zm.117,1.361c-.039.039-.078-.039-.078-.233,0-.155.039-.194.078-.078A.426.426,0,0,1,430.24-525.394Zm0-2.1c-.039.156-.078,0-.078-.311.039-.35.039-.467.078-.272A1.461,1.461,0,0,1,430.24-527.494Zm.155,1.322c-.078.078-.117-.039-.078-.195,0-.155.039-.194.078-.078A.319.319,0,0,1,430.4-526.172Zm17.734-4.939a2.889,2.889,0,0,1-.778-.622c-1.05-1.011-1.517-1.05-2.994-.311-1.478.7-5.328,5.056-7.35,8.283a6.471,6.471,0,0,1-.505.778c-.156,0,.467-1.4,1.556-3.695a24.772,24.772,0,0,0,1.167-2.606c0-.194-.545-.7-1.05-.933a2.383,2.383,0,0,1-.661-.584c-.311-.466-1.05-.389-1.633.194a27.157,27.157,0,0,0-3.306,6.534,18.035,18.035,0,0,0-.894,4.472A17.254,17.254,0,0,0,433-514.427a1.129,1.129,0,0,0,.544.35.808.808,0,0,1,.428.311,1.1,1.1,0,0,0,1.478-.156c.117-.117,1.011-1.711,1.906-3.5a37.15,37.15,0,0,1,6.494-9.878c1.011-1.167,1.944-1.944,1.828-1.594-.039.117-.506,1.4-1.05,2.878s-1.206,3.422-1.439,4.356a12.41,12.41,0,0,0-.467,4.083c0,2.178.039,2.45.35,3.189a4.714,4.714,0,0,0,1.594,2.139,3.752,3.752,0,0,0,.894.544c.233,0,.233,0-.039-.622-.467-.856-.467-2.761,0-4.939a33.16,33.16,0,0,1,1.867-6.222c1.517-4.083,1.828-6.067,1.206-7.117-.195-.272-.389-.505-.467-.505Zm-10.889,9.917a7.493,7.493,0,0,1-.622,1.361c-.661,1.361-.933,1.828-.661,1.128A19.778,19.778,0,0,1,437.24-521.194Zm-2.761-4.083c.078-.039.117,0,.078.156-.117.233-.233.311-.233.078A.32.32,0,0,1,434.479-525.278Zm-.195.583a2.839,2.839,0,0,1-.311,1.011,2.8,2.8,0,0,1-.35.778,7.222,7.222,0,0,1,.661-1.789Zm-.817,2.256c.078-.195.117-.233.117-.078a3.064,3.064,0,0,1-.117.506c-.078.195-.156.195-.156.078A1.486,1.486,0,0,1,433.467-522.439Zm-.35,1.944c-.078.039-.117-.039-.078-.194,0-.194.039-.194.078-.078A.329.329,0,0,1,433.117-520.494Zm.117-.739c-.039.039-.078-.039-.078-.194,0-.195.039-.195.117-.078.039.078.039.233-.039.272Zm1.245-2.411c-.233.739-.622,1.983-.817,2.8-.194.856-.35,1.283-.35,1.05-.039-1.205,1.205-4.939,2.45-7.35,1.089-2.1,1.167-1.983.156.156C435.373-525.861,434.751-524.383,434.479-523.644Zm.311.311a31.608,31.608,0,0,1,2.411-5.328c.895-1.517.817-1.089-.117.583-.467.817-1.128,2.217-1.517,3.111C434.906-523.372,434.79-523.139,434.79-523.333Zm.894,5.444c-.117.156-.156.117-.078-.078.078-.156.156-.233.195-.194S435.8-518.005,435.684-517.889Zm-.389,2.022a2.024,2.024,0,0,1-.233.583c-.117.156-.117.117-.039-.117a1.89,1.89,0,0,1,.233-.622C435.334-516.177,435.373-516.139,435.3-515.866Zm-.078-.895c-.078.117-.117.156-.117.078a.737.737,0,0,1,.117-.35c.078-.156.155-.156.155-.078A.879.879,0,0,1,435.218-516.761Zm3.5-5.911c-.35.545-1.128,1.983-1.75,3.189-.583,1.206-1.206,2.45-1.322,2.722-.117.311-.233.467-.272.389-.039-.545,3.772-7.622,4.122-7.622C439.573-523.994,439.534-523.955,438.718-522.672Zm1.439-2.178c-.194.233-.311.311-.311.194,0-.039.117-.156.233-.272C440.312-525.122,440.312-525.083,440.156-524.85Zm.428-.622c-.194.272-.311.35-.311.233,0-.039.117-.156.272-.272.233-.194.233-.194.039.039Zm4.433,1.75c.078-.117.156-.156.156-.078a1.011,1.011,0,0,1-.156.389c-.078.117-.156.156-.156.078A1.01,1.01,0,0,1,445.018-523.722Zm-.661,3.811c-.039.039-.078-.039-.078-.194s.039-.195.078-.078A.226.226,0,0,1,444.357-519.911Zm.194-.778c-.078.195-.117.233-.117.078a3.077,3.077,0,0,1,.117-.506c.117-.194.156-.233.156-.078A1.482,1.482,0,0,1,444.551-520.689Zm2.45-7.117c-.156.739-2.294,6.417-2.217,5.95a15.72,15.72,0,0,1,.7-2.1c.311-.894.778-2.178,1.05-2.878C447-528.155,447.2-528.544,447-527.805Zm.195-.544c-.078.039-.117-.039-.078-.195,0-.194.039-.194.078-.077a.329.329,0,0,1,0,.272" transform="translate(229.926 3991.387)" fill="#4e574e"/>
    <path id="path32" d="M364.938-475.258a5.213,5.213,0,0,0,1.756-1.1l-.883-1.47a4.646,4.646,0,0,1-1.5.9,5.706,5.706,0,0,1-2.014.327,2.892,2.892,0,0,1-2.444-1.149,4.883,4.883,0,0,1-.906-2.934l.035-.058h8.054v-1.412a6.024,6.024,0,0,0-1.285-4.037,4.7,4.7,0,0,0-3.8-1.515,4.863,4.863,0,0,0-3.735,1.76,6.365,6.365,0,0,0-1.577,4.412v.505a6.5,6.5,0,0,0,1.532,4.48,5.236,5.236,0,0,0,4.124,1.727,7.048,7.048,0,0,0,2.639-.44Zm-.871-9.775a3.455,3.455,0,0,1,.71,2.219v.3h-5.724l-.023-.058a4.512,4.512,0,0,1,.988-2.4,2.453,2.453,0,0,1,1.939-.955A2.539,2.539,0,0,1,364.067-485.033Zm7.951-2.44h-2.261v12.413h2.261Zm0-5.485h-2.261v2.306h2.261Zm3.475,5.485v12.413h2.261v-9.052a3.423,3.423,0,0,1,1.2-1.285,3.177,3.177,0,0,1,1.727-.471,2.6,2.6,0,0,1,1.979.688,3.36,3.36,0,0,1,.65,2.329v7.79h2.259V-482.9a5.173,5.173,0,0,0-1.1-3.632,4.054,4.054,0,0,0-3.109-1.174,4.145,4.145,0,0,0-2.129.544,4.484,4.484,0,0,0-1.554,1.532l-.161-1.847Zm30.174-2.674v-1.618H394.286v1.779h8.8l-8.927,13.24v1.686h11.886v-1.779h-9.339Zm10.889,15.087h2.03v-12.413h-2.26v8.948a3.046,3.046,0,0,1-1.188,1.382,3.714,3.714,0,0,1-1.989.488,2.178,2.178,0,0,1-1.826-.747,4.623,4.623,0,0,1-.585-2.73v-7.342h-2.259v7.319a6.023,6.023,0,0,0,1.136,4.039,3.987,3.987,0,0,0,3.168,1.3,4.121,4.121,0,0,0,2.121-.539,4.2,4.2,0,0,0,1.5-1.538Zm7.583-17.9h-2.26v17.9h2.26v-9.166a3.686,3.686,0,0,1,1.256-1.2,3.351,3.351,0,0,1,1.7-.441,2.513,2.513,0,0,1,1.968.733,3.33,3.33,0,0,1,.661,2.273v7.8h2.26v-7.78a5.256,5.256,0,0,0-1.106-3.671,4.013,4.013,0,0,0-3.094-1.192,4.335,4.335,0,0,0-2.071.5,4.579,4.579,0,0,0-1.577,1.394Zm21.053,17.9a6.5,6.5,0,0,1-.251-1.217,11.385,11.385,0,0,1-.07-1.283v-5.977a3.8,3.8,0,0,0-1.285-3.094,5.132,5.132,0,0,0-3.4-1.071,5.248,5.248,0,0,0-3.483,1.124,3,3,0,0,0-1.28,2.477l.023.07h2.156a1.675,1.675,0,0,1,.682-1.338,2.726,2.726,0,0,1,1.773-.556,2.611,2.611,0,0,1,1.882.638,2.276,2.276,0,0,1,.665,1.727v1.227h-2.456a6.727,6.727,0,0,0-3.906,1,3.209,3.209,0,0,0-1.441,2.782,3.65,3.65,0,0,0,1.017,2.736,4.049,4.049,0,0,0,2.954.994,4.2,4.2,0,0,0,2.185-.6,5.27,5.27,0,0,0,1.647-1.5,7.172,7.172,0,0,0,.074.867c.043.286.1.617.179.992Zm-7.607-2.145a1.69,1.69,0,0,1-.515-1.3,2.047,2.047,0,0,1,.82-1.614,3.3,3.3,0,0,1,2.186-.686h2.536v2.013a3,3,0,0,1-1.285,1.443,4.026,4.026,0,0,1-2.215.628A2.165,2.165,0,0,1,437.586-477.2Zm18.6,2.145h2.03v-12.413h-2.259v8.948a3.046,3.046,0,0,1-1.188,1.382,3.716,3.716,0,0,1-1.991.488,2.176,2.176,0,0,1-1.824-.747,4.622,4.622,0,0,1-.585-2.73v-7.342h-2.259v7.319a6.023,6.023,0,0,0,1.135,4.039,3.987,3.987,0,0,0,3.168,1.3,4.127,4.127,0,0,0,2.121-.539,4.2,4.2,0,0,0,1.5-1.538Zm11.857-2.024a3.2,3.2,0,0,1-1.888.486,3.488,3.488,0,0,1-1.962-.552,2.083,2.083,0,0,1-.895-1.754h-2.156l-.023.07a3.436,3.436,0,0,0,1.3,2.81,5.454,5.454,0,0,0,3.739,1.206,5.6,5.6,0,0,0,3.494-1.021,3.21,3.21,0,0,0,1.336-2.674,2.759,2.759,0,0,0-1.147-2.324,9.037,9.037,0,0,0-3.5-1.371,5.369,5.369,0,0,1-2.1-.756,1.424,1.424,0,0,1-.517-1.159,1.658,1.658,0,0,1,.585-1.274,2.61,2.61,0,0,1,1.791-.529,2.51,2.51,0,0,1,1.806.65,1.973,1.973,0,0,1,.682,1.462h2.158l.021-.068a3.294,3.294,0,0,0-1.221-2.709A5.078,5.078,0,0,0,466.1-487.7a5.068,5.068,0,0,0-3.35,1.065,3.236,3.236,0,0,0-1.285,2.576,2.7,2.7,0,0,0,1.141,2.3,9.057,9.057,0,0,0,3.4,1.336,5.363,5.363,0,0,1,2.151.836,1.538,1.538,0,0,1,.568,1.229,1.506,1.506,0,0,1-.682,1.279Zm13.543,1.826a5.214,5.214,0,0,0,1.756-1.1l-.883-1.47a4.627,4.627,0,0,1-1.5.9,5.691,5.691,0,0,1-2.014.327,2.886,2.886,0,0,1-2.442-1.149,4.883,4.883,0,0,1-.908-2.934l.035-.058h8.054v-1.412a6.024,6.024,0,0,0-1.285-4.037,4.694,4.694,0,0,0-3.8-1.515,4.862,4.862,0,0,0-3.733,1.76,6.367,6.367,0,0,0-1.579,4.412v.505a6.5,6.5,0,0,0,1.532,4.48,5.236,5.236,0,0,0,4.124,1.727,7.039,7.039,0,0,0,2.639-.44Zm-.871-9.775a3.446,3.446,0,0,1,.712,2.219v.3H475.7l-.021-.058a4.526,4.526,0,0,1,.986-2.4,2.453,2.453,0,0,1,1.939-.955A2.539,2.539,0,0,1,480.714-485.033Zm7.974,7.632h-2.261v2.341h2.261V-477.4" transform="translate(218.768 4015.221)" fill="#4e574e"/>
    <path id="path34" d="M327.2-510.562h-2.25l4.015,16.7h2.02l3.35-11.589.286-1.5h.07l.3,1.5,3.294,11.589h2.018l4.027-16.7h-2.26l-2.491,10.922-.333,2.145h-.068l-.459-2.145-3.086-10.922h-2l-3.064,10.922-.447,2.1-.068-.012-.309-2.088Zm21.971,4.291h-2.26v12.414h2.26Zm0-5.485h-2.26v2.306h2.26Zm9.66,5.382a3.067,3.067,0,0,0-.379-.087,2.918,2.918,0,0,0-.48-.039,3.044,3.044,0,0,0-1.785.539,4.333,4.333,0,0,0-1.3,1.5l-.218-1.812h-2.018v12.414h2.26v-8.869a2.733,2.733,0,0,1,.947-1.194,2.594,2.594,0,0,1,1.509-.424l1.159.068Zm7.218,6.78a6.766,6.766,0,0,0,1.307,4.324,4.329,4.329,0,0,0,3.591,1.653,4.555,4.555,0,0,0,1.95-.4,3.917,3.917,0,0,0,1.456-1.177v1.4a3.108,3.108,0,0,1-.751,2.289,3.291,3.291,0,0,1-2.4.753,7.143,7.143,0,0,1-1.7-.212,5.812,5.812,0,0,1-1.47-.556l-.573,1.754a7.568,7.568,0,0,0,1.83.673,8.459,8.459,0,0,0,1.935.245,5.7,5.7,0,0,0,4-1.279,4.734,4.734,0,0,0,1.388-3.665v-12.482h-1.8l-.274,1.618a4.082,4.082,0,0,0-1.491-1.371,4.34,4.34,0,0,0-2.077-.476,4.193,4.193,0,0,0-3.615,1.836,8.151,8.151,0,0,0-1.307,4.83Zm2.259-.241a6.746,6.746,0,0,1,.8-3.477,2.632,2.632,0,0,1,2.421-1.353,2.968,2.968,0,0,1,1.686.465,3.483,3.483,0,0,1,1.136,1.256v5.713a3.535,3.535,0,0,1-1.136,1.315,2.992,2.992,0,0,1-1.709.464,2.738,2.738,0,0,1-2.409-1.135,5.169,5.169,0,0,1-.791-3.006Zm19.379,5.779a5.225,5.225,0,0,0,1.754-1.1l-.883-1.47a4.606,4.606,0,0,1-1.5.9,5.688,5.688,0,0,1-2.013.327,2.892,2.892,0,0,1-2.444-1.149,4.87,4.87,0,0,1-.906-2.934l.033-.058h8.054v-1.412a6.034,6.034,0,0,0-1.283-4.037,4.7,4.7,0,0,0-3.8-1.515,4.863,4.863,0,0,0-3.735,1.76,6.365,6.365,0,0,0-1.577,4.412v.505a6.5,6.5,0,0,0,1.53,4.48,5.239,5.239,0,0,0,4.126,1.727A7.049,7.049,0,0,0,387.69-494.056Zm-.873-9.775a3.446,3.446,0,0,1,.712,2.219v.3H381.8l-.023-.058a4.527,4.527,0,0,1,.986-2.4,2.456,2.456,0,0,1,1.941-.955A2.537,2.537,0,0,1,386.817-503.83Zm16.108,4a8.261,8.261,0,0,0-1.283-4.83,4.125,4.125,0,0,0-3.58-1.836,4.438,4.438,0,0,0-2.026.436,3.907,3.907,0,0,0-1.451,1.262v-6.953h-2.261v17.9h1.847l.276-1.641a3.949,3.949,0,0,0,1.5,1.406,4.531,4.531,0,0,0,2.133.476,4.266,4.266,0,0,0,3.553-1.647,6.825,6.825,0,0,0,1.289-4.33Zm-2.26.241a5.227,5.227,0,0,1-.78,3.006,2.69,2.69,0,0,1-2.376,1.136,2.943,2.943,0,0,1-1.783-.517,3.692,3.692,0,0,1-1.141-1.433v-5.382a3.586,3.586,0,0,1,1.141-1.371,2.96,2.96,0,0,1,1.762-.51,2.589,2.589,0,0,1,2.392,1.347,6.861,6.861,0,0,1,.786,3.483Zm12.8,5.538a5.235,5.235,0,0,0,1.756-1.1l-.885-1.47a4.6,4.6,0,0,1-1.5.9,5.687,5.687,0,0,1-2.012.327,2.892,2.892,0,0,1-2.444-1.149,4.883,4.883,0,0,1-.906-2.934l.035-.058h8.054v-1.412a6.035,6.035,0,0,0-1.285-4.037,4.7,4.7,0,0,0-3.8-1.515,4.864,4.864,0,0,0-3.735,1.76,6.366,6.366,0,0,0-1.577,4.412v.505a6.492,6.492,0,0,0,1.532,4.48,5.236,5.236,0,0,0,4.124,1.727A7.051,7.051,0,0,0,413.47-494.056Zm-.873-9.775a3.446,3.446,0,0,1,.712,2.219v.3h-5.724l-.023-.058a4.513,4.513,0,0,1,.988-2.4,2.45,2.45,0,0,1,1.939-.955A2.535,2.535,0,0,1,412.6-503.83Zm5.509-2.44v12.414h2.259v-9.053a3.422,3.422,0,0,1,1.2-1.283,3.168,3.168,0,0,1,1.727-.47,2.593,2.593,0,0,1,1.977.688,3.35,3.35,0,0,1,.649,2.329v7.79h2.259v-7.836a5.174,5.174,0,0,0-1.1-3.632,4.055,4.055,0,0,0-3.109-1.174,4.15,4.15,0,0,0-2.129.544,4.5,4.5,0,0,0-1.554,1.532l-.161-1.847Zm18.677,6.677a6.846,6.846,0,0,0,1.285,4.33,4.261,4.261,0,0,0,3.556,1.647,4.5,4.5,0,0,0,2.055-.447,4.058,4.058,0,0,0,1.491-1.32l.263,1.526h1.847v-17.9h-2.259v6.827a3.977,3.977,0,0,0-1.441-1.171,4.46,4.46,0,0,0-1.933-.4,4.122,4.122,0,0,0-3.586,1.836,8.29,8.29,0,0,0-1.279,4.83Zm2.261-.241a6.939,6.939,0,0,1,.774-3.488,2.585,2.585,0,0,1,2.4-1.342,2.976,2.976,0,0,1,1.67.453,3.487,3.487,0,0,1,1.13,1.221v5.794a3.451,3.451,0,0,1-1.124,1.285,3,3,0,0,1-1.7.459,2.687,2.687,0,0,1-2.386-1.13,5.283,5.283,0,0,1-.768-3.012Zm19.4,5.779a5.214,5.214,0,0,0,1.756-1.1l-.883-1.47a4.627,4.627,0,0,1-1.5.9,5.692,5.692,0,0,1-2.014.327,2.886,2.886,0,0,1-2.442-1.149,4.885,4.885,0,0,1-.908-2.934l.035-.058h8.054v-1.412a6.024,6.024,0,0,0-1.285-4.037,4.694,4.694,0,0,0-3.8-1.515,4.863,4.863,0,0,0-3.733,1.76,6.366,6.366,0,0,0-1.579,4.412v.505a6.5,6.5,0,0,0,1.532,4.48,5.235,5.235,0,0,0,4.124,1.727,7.042,7.042,0,0,0,2.639-.439Zm-.871-9.775a3.446,3.446,0,0,1,.712,2.219v.3h-5.726l-.021-.058a4.526,4.526,0,0,1,.986-2.4,2.452,2.452,0,0,1,1.939-.955A2.539,2.539,0,0,1,457.573-503.83Zm5.507-2.44v12.414h2.261v-9.19a2.72,2.72,0,0,1,1.021-1.194,3.111,3.111,0,0,1,1.7-.424,2.248,2.248,0,0,1,1.865.809,4.073,4.073,0,0,1,.648,2.553v7.445h2.271v-7.974a3.5,3.5,0,0,1,.844-2.03,2.391,2.391,0,0,1,1.876-.8,2.3,2.3,0,0,1,1.88.762,4.121,4.121,0,0,1,.632,2.6v7.446h2.26v-7.424a5.946,5.946,0,0,0-1.1-3.918,3.72,3.72,0,0,0-2.995-1.3,4.077,4.077,0,0,0-2.25.618,4.609,4.609,0,0,0-1.548,1.676,3.464,3.464,0,0,0-1.338-1.721,3.826,3.826,0,0,0-2.127-.574,4.635,4.635,0,0,0-2.174.486,4.235,4.235,0,0,0-1.544,1.373l-.159-1.629Zm38.905,4.072h-5.919v1.779h3.66v3.788a3.252,3.252,0,0,1-1.3.859,6.087,6.087,0,0,1-2.328.377,4.3,4.3,0,0,1-3.329-1.439,5.236,5.236,0,0,1-1.307-3.661v-3.463a5.545,5.545,0,0,1,1.171-3.632,3.783,3.783,0,0,1,3.086-1.433,4.09,4.09,0,0,1,2.9.939,3.5,3.5,0,0,1,1.106,2.4h2.156l.023-.07a4.681,4.681,0,0,0-1.674-3.636,6.691,6.691,0,0,0-4.509-1.412,6.2,6.2,0,0,0-4.7,1.915,6.891,6.891,0,0,0-1.826,4.956v3.442a6.633,6.633,0,0,0,1.956,4.956,6.789,6.789,0,0,0,4.953,1.917,8.222,8.222,0,0,0,3.813-.77,5.314,5.314,0,0,0,2.071-1.686Zm11.519,8.342h2.032v-12.414h-2.261v8.948a3.041,3.041,0,0,1-1.186,1.382,3.726,3.726,0,0,1-1.991.488,2.172,2.172,0,0,1-1.824-.747,4.609,4.609,0,0,1-.585-2.73v-7.342h-2.26v7.319a6.012,6.012,0,0,0,1.136,4.039,3.983,3.983,0,0,0,3.166,1.3,4.116,4.116,0,0,0,2.123-.541,4.206,4.206,0,0,0,1.5-1.536Zm6.047-15.408v2.995h-1.974v1.674h1.974v7.539a3.606,3.606,0,0,0,.815,2.609,2.928,2.928,0,0,0,2.191.832,3.751,3.751,0,0,0,.98-.132,2,2,0,0,0,.741-.338l-.3-1.55a2.356,2.356,0,0,1-.418.115,2.224,2.224,0,0,1-.43.047,1.307,1.307,0,0,1-.959-.356,1.685,1.685,0,0,1-.362-1.227V-504.6h2.353v-1.674h-2.353v-2.995Zm15.19,15.21a5.217,5.217,0,0,0,1.756-1.1l-.885-1.47a4.608,4.608,0,0,1-1.5.9,5.69,5.69,0,0,1-2.012.327,2.892,2.892,0,0,1-2.444-1.149,4.882,4.882,0,0,1-.906-2.934l.035-.058h8.054v-1.412a6.034,6.034,0,0,0-1.285-4.037,4.7,4.7,0,0,0-3.8-1.515,4.864,4.864,0,0,0-3.735,1.76,6.365,6.365,0,0,0-1.577,4.412v.506a6.5,6.5,0,0,0,1.532,4.48,5.236,5.236,0,0,0,4.124,1.727,7.049,7.049,0,0,0,2.639-.439Zm-.871-9.775a3.456,3.456,0,0,1,.71,2.219v.3h-5.724l-.023-.058a4.512,4.512,0,0,1,.988-2.4,2.45,2.45,0,0,1,1.939-.955A2.539,2.539,0,0,1,533.87-503.831Zm5.507-2.44v12.414h2.259v-9.053a3.437,3.437,0,0,1,1.2-1.283,3.168,3.168,0,0,1,1.727-.47,2.6,2.6,0,0,1,1.979.688,3.36,3.36,0,0,1,.647,2.329v7.79h2.259v-7.836a5.163,5.163,0,0,0-1.1-3.632,4.054,4.054,0,0,0-3.109-1.174,4.148,4.148,0,0,0-2.129.544,4.5,4.5,0,0,0-1.554,1.532l-.161-1.847h-2.018" transform="translate(204.243 4006.605)" fill="#4e574e"/>
    <path id="path98" d="M264.107-431.917l77.151-138.511h17.763L281.868-431.917H264.107" transform="translate(176.354 3979.713)" fill="#afca0b"/>
    <path id="path100" d="M567.968-431.917,490.817-570.428H473.056l77.151,138.511h17.761" transform="translate(272.127 3979.713)" fill="#afca0b"/>
  </g>
</svg>
