<svg xmlns="http://www.w3.org/2000/svg" width="573.143" height="139.152" viewBox="0 0 573.143 139.152">
  <g id="Gruppe_1110" data-name="Gruppe 1110" transform="translate(-353.205 -3564.312)">
    <path id="path18" d="M222.592-324.973l68.659-123.289H689.6l69.5,123.289h18.317L699.934-464.126H282.093L204.276-324.973h18.317" transform="translate(148.929 4028.438)" fill="#00622c"/>
    <path id="path24" d="M348.839-391.49h-7.654v-5.4h8.7v-1.779H338.926v16.7h11.084v-1.777h-8.824v-5.966h7.654Zm5.678,6.72a6.1,6.1,0,0,1-.756-3.17v-.48a6.023,6.023,0,0,1,.762-3.134,2.727,2.727,0,0,1,2.542-1.278,2.763,2.763,0,0,1,2.032.8,2.625,2.625,0,0,1,.8,1.933h2.042l.023-.068a4,4,0,0,0-1.338-3.156,5.019,5.019,0,0,0-3.562-1.285,5.022,5.022,0,0,0-4.136,1.773,6.79,6.79,0,0,0-1.439,4.422v.482a6.826,6.826,0,0,0,1.433,4.441,5.03,5.03,0,0,0,4.142,1.765,5.2,5.2,0,0,0,3.459-1.25,3.491,3.491,0,0,0,1.429-2.857l-.023-.068H359.9a2.119,2.119,0,0,1-.856,1.7,3.047,3.047,0,0,1-1.979.694,2.732,2.732,0,0,1-2.547-1.266Zm12.231-15.095h-2.26v17.9h2.26v-9.166a3.7,3.7,0,0,1,1.256-1.2,3.352,3.352,0,0,1,1.705-.441,2.513,2.513,0,0,1,1.968.735,3.324,3.324,0,0,1,.659,2.271v7.8H374.6v-7.778a5.253,5.253,0,0,0-1.106-3.671,4.013,4.013,0,0,0-3.092-1.194,4.325,4.325,0,0,0-2.071.5,4.586,4.586,0,0,0-1.579,1.394Zm11.819,2.489v2.994h-1.974v1.676h1.974v7.537a3.611,3.611,0,0,0,.815,2.611,2.927,2.927,0,0,0,2.191.83,3.674,3.674,0,0,0,.98-.132,2,2,0,0,0,.741-.338l-.3-1.548a2.855,2.855,0,0,1-.418.115,2.23,2.23,0,0,1-.43.045,1.313,1.313,0,0,1-.959-.354,1.691,1.691,0,0,1-.362-1.229V-392.7h2.353v-1.676h-2.353v-2.994Zm12.746,9.672a6.761,6.761,0,0,0,1.309,4.326,4.33,4.33,0,0,0,3.591,1.651,4.6,4.6,0,0,0,1.95-.395,3.971,3.971,0,0,0,1.456-1.176v1.4a3.111,3.111,0,0,1-.753,2.289,3.284,3.284,0,0,1-2.4.751,7.046,7.046,0,0,1-1.7-.212,5.8,5.8,0,0,1-1.468-.556l-.574,1.756a7.625,7.625,0,0,0,1.83.671,8.345,8.345,0,0,0,1.933.247,5.7,5.7,0,0,0,4-1.279,4.736,4.736,0,0,0,1.388-3.665v-12.484h-1.8l-.276,1.618a4.065,4.065,0,0,0-1.491-1.371,4.363,4.363,0,0,0-2.077-.477,4.194,4.194,0,0,0-3.613,1.836,8.145,8.145,0,0,0-1.309,4.83Zm2.259-.241a6.756,6.756,0,0,1,.8-3.477,2.636,2.636,0,0,1,2.421-1.353,2.987,2.987,0,0,1,1.688.465,3.515,3.515,0,0,1,1.136,1.256v5.715a3.512,3.512,0,0,1-1.136,1.313,2.976,2.976,0,0,1-1.709.465,2.733,2.733,0,0,1-2.409-1.136,5.15,5.15,0,0,1-.793-3.006Zm19.62,5.977h2.03v-12.414h-2.259v8.948a3.045,3.045,0,0,1-1.188,1.383,3.7,3.7,0,0,1-1.989.488,2.176,2.176,0,0,1-1.824-.745,4.621,4.621,0,0,1-.585-2.732v-7.342h-2.261v7.321a6.026,6.026,0,0,0,1.136,4.039,4,4,0,0,0,3.168,1.295,4.1,4.1,0,0,0,2.121-.539,4.184,4.184,0,0,0,1.5-1.538Zm6.047-15.408v2.994h-1.974v1.676h1.974v7.537a3.611,3.611,0,0,0,.815,2.611,2.922,2.922,0,0,0,2.19.83,3.677,3.677,0,0,0,.982-.132,2,2,0,0,0,.741-.338l-.3-1.548a2.858,2.858,0,0,1-.418.115,2.231,2.231,0,0,1-.43.045,1.313,1.313,0,0,1-.958-.354,1.69,1.69,0,0,1-.362-1.229V-392.7h2.353v-1.676H421.5v-2.994Zm12.746,9.672a6.761,6.761,0,0,0,1.309,4.326,4.329,4.329,0,0,0,3.589,1.651,4.584,4.584,0,0,0,1.95-.395,3.961,3.961,0,0,0,1.458-1.176v1.4a3.112,3.112,0,0,1-.753,2.289,3.284,3.284,0,0,1-2.4.751,7.045,7.045,0,0,1-1.7-.212,5.8,5.8,0,0,1-1.468-.556l-.574,1.756a7.624,7.624,0,0,0,1.83.671,8.345,8.345,0,0,0,1.933.247,5.7,5.7,0,0,0,4-1.279,4.736,4.736,0,0,0,1.388-3.665v-12.484h-1.8l-.276,1.618a4.066,4.066,0,0,0-1.491-1.371,4.364,4.364,0,0,0-2.077-.477,4.194,4.194,0,0,0-3.613,1.836,8.145,8.145,0,0,0-1.309,4.83Zm2.259-.241a6.754,6.754,0,0,1,.8-3.477,2.635,2.635,0,0,1,2.421-1.353,2.987,2.987,0,0,1,1.688.465,3.514,3.514,0,0,1,1.135,1.256v5.715a3.528,3.528,0,0,1-1.135,1.313,2.976,2.976,0,0,1-1.709.465,2.739,2.739,0,0,1-2.411-1.136,5.165,5.165,0,0,1-.791-3.006Zm19.379,5.781a5.25,5.25,0,0,0,1.756-1.1l-.885-1.47a4.641,4.641,0,0,1-1.5.9,5.685,5.685,0,0,1-2.013.327,2.889,2.889,0,0,1-2.444-1.151,4.883,4.883,0,0,1-.906-2.934l.035-.056h8.054v-1.412a6.04,6.04,0,0,0-1.285-4.039,4.706,4.706,0,0,0-3.8-1.515,4.86,4.86,0,0,0-3.735,1.762,6.366,6.366,0,0,0-1.577,4.412v.5a6.5,6.5,0,0,0,1.532,4.48,5.235,5.235,0,0,0,4.124,1.727,7.089,7.089,0,0,0,2.639-.437Zm-.871-9.777a3.444,3.444,0,0,1,.71,2.219v.3h-5.724l-.023-.056a4.506,4.506,0,0,1,.988-2.4,2.447,2.447,0,0,1,1.939-.955A2.543,2.543,0,0,1,452.752-391.941Zm5.507-2.44v12.414h2.259v-9.19a2.742,2.742,0,0,1,1.021-1.192,3.1,3.1,0,0,1,1.7-.426,2.248,2.248,0,0,1,1.863.809,4.06,4.06,0,0,1,.65,2.553v7.445h2.271v-7.972a3.5,3.5,0,0,1,.844-2.032,2.4,2.4,0,0,1,1.874-.8,2.3,2.3,0,0,1,1.882.764,4.126,4.126,0,0,1,.632,2.6v7.445h2.26v-7.422a5.954,5.954,0,0,0-1.1-3.918,3.715,3.715,0,0,0-2.994-1.3,4.062,4.062,0,0,0-2.25.62,4.588,4.588,0,0,0-1.548,1.674,3.484,3.484,0,0,0-1.338-1.721,3.853,3.853,0,0,0-2.127-.574,4.636,4.636,0,0,0-2.174.488,4.2,4.2,0,0,0-1.544,1.371l-.161-1.629Zm30.5,12.414a6.651,6.651,0,0,1-.253-1.215,11.944,11.944,0,0,1-.068-1.285v-5.977a3.8,3.8,0,0,0-1.285-3.092,5.126,5.126,0,0,0-3.4-1.073,5.258,5.258,0,0,0-3.483,1.124,3,3,0,0,0-1.279,2.479l.023.068h2.156a1.674,1.674,0,0,1,.682-1.336,2.714,2.714,0,0,1,1.773-.556,2.611,2.611,0,0,1,1.88.636,2.28,2.28,0,0,1,.667,1.727v1.229h-2.456a6.723,6.723,0,0,0-3.906,1,3.2,3.2,0,0,0-1.441,2.783,3.649,3.649,0,0,0,1.015,2.736,4.066,4.066,0,0,0,2.956.992,4.219,4.219,0,0,0,2.185-.6,5.319,5.319,0,0,0,1.647-1.5,6.808,6.808,0,0,0,.074.865c.041.288.1.618.177.992Zm-7.607-2.143a1.7,1.7,0,0,1-.515-1.3,2.053,2.053,0,0,1,.819-1.614,3.3,3.3,0,0,1,2.188-.686h2.536v2.015a3.01,3.01,0,0,1-1.285,1.441,4.031,4.031,0,0,1-2.215.63A2.174,2.174,0,0,1,481.147-384.11Zm13.069-.659a6.085,6.085,0,0,1-.758-3.169v-.48a6,6,0,0,1,.764-3.134,2.723,2.723,0,0,1,2.541-1.278,2.758,2.758,0,0,1,2.03.8,2.625,2.625,0,0,1,.8,1.933h2.042l.023-.068a4,4,0,0,0-1.336-3.156,5.022,5.022,0,0,0-3.562-1.285,5.023,5.023,0,0,0-4.138,1.773,6.791,6.791,0,0,0-1.439,4.422v.482a6.817,6.817,0,0,0,1.435,4.441,5.025,5.025,0,0,0,4.142,1.766,5.211,5.211,0,0,0,3.459-1.25,3.5,3.5,0,0,0,1.427-2.857l-.023-.068H499.6a2.119,2.119,0,0,1-.856,1.7,3.045,3.045,0,0,1-1.977.694A2.728,2.728,0,0,1,494.215-384.769Zm12.229-15.095h-2.259v17.9h2.259v-9.166a3.71,3.71,0,0,1,1.258-1.2,3.34,3.34,0,0,1,1.7-.441,2.513,2.513,0,0,1,1.968.735,3.324,3.324,0,0,1,.659,2.271v7.8h2.26v-7.778a5.244,5.244,0,0,0-1.106-3.671,4.012,4.012,0,0,0-3.092-1.194,4.326,4.326,0,0,0-2.071.5,4.585,4.585,0,0,0-1.579,1.394Zm11.819,2.489v2.994h-1.974v1.676h1.974v7.537a3.611,3.611,0,0,0,.815,2.611,2.927,2.927,0,0,0,2.191.83,3.671,3.671,0,0,0,.98-.132,1.994,1.994,0,0,0,.741-.338l-.3-1.548a2.789,2.789,0,0,1-.418.115,2.21,2.21,0,0,1-.43.045,1.313,1.313,0,0,1-.959-.354,1.69,1.69,0,0,1-.362-1.229V-392.7h2.353v-1.676h-2.353v-2.994Zm9.981-1.3h-2.259v11.222h2.259Zm.012,14.366h-2.271v2.339h2.271v-2.339" transform="translate(210.647 4057.892)" fill="#4e574e"/>
    <path id="path28" d="M371.8-435.271c0-.272.194-.467.895-.817.933-.505,1.478-1.05,1.478-1.439a1.7,1.7,0,0,0-.544-.739c-.506-.467-.622-.506-1.128-.428a13.04,13.04,0,0,0-1.867.778,43.968,43.968,0,0,0-13.417,11.861,4.885,4.885,0,0,1-1.128,1.322,11.809,11.809,0,0,1-.583-2.761,16.239,16.239,0,0,1,.233-5.328c.233-1.361.428-2.878.467-3.422l.078-1.011-.622-.622a2.269,2.269,0,0,1-.583-.817c0-.272-.661-.428-1.05-.195a2.235,2.235,0,0,0-.7,1.011,10.584,10.584,0,0,1-.778,1.361,76.363,76.363,0,0,0-5.522,9.761c-2.644,5.6-4.472,10.85-4.861,14.078a5.216,5.216,0,0,0,.156,2.606c.35,1.4.583,1.828,1.245,2.061a1.806,1.806,0,0,1,.661.467.7.7,0,0,0,.389.233.616.616,0,0,0,.467-.7.976.976,0,0,1,.117-.622,13.424,13.424,0,0,0,.583-1.983,98.07,98.07,0,0,1,6.028-16.489l.622-1.361.35,1.05a11.036,11.036,0,0,0,1.828,3.539l.622.661-.661,1.167c-.972,1.75-1.244,2.917-.778,3.578.35.428,1.244.856,1.517.661a7.827,7.827,0,0,0,1.206-1.75,58.95,58.95,0,0,1,5.172-7.233c1.517-1.828,3.267-3.617,3.111-3.228-.039.156-.506,1.206-1.05,2.372-2.995,6.728-4.472,12.911-3.967,16.372a4.575,4.575,0,0,0,1.089,2.683,5.4,5.4,0,0,0,2.022,1.128c.389,0,.428-.233.078-.428-.194-.117-.233-.467-.233-2.022-.039-5.017,1.75-10.228,7.195-21.273A32.813,32.813,0,0,0,371.8-435.271Zm-23.645,9.411c.117-.194.233-.311.233-.233a1.853,1.853,0,0,1-.233.544c-.117.194-.194.311-.194.194A1.41,1.41,0,0,1,348.151-425.859Zm-.661,1.478c.078-.117.156-.156.156-.078a1.009,1.009,0,0,1-.156.389c-.078.117-.117.156-.117.078A.87.87,0,0,1,347.49-424.382Zm-.428,1.05c.078-.117.117-.156.117-.078a1.031,1.031,0,0,1-.117.389c-.078.117-.156.155-.156.039A.881.881,0,0,1,347.063-423.332Zm-1.05,2.528c.078-.117.156-.156.156-.078a.878.878,0,0,1-.156.35c-.078.117-.156.156-.156.078A.879.879,0,0,1,346.013-420.8Zm-.35,1.05a8.971,8.971,0,0,1-.544,1.75,11.169,11.169,0,0,1-.583,1.556A27.263,27.263,0,0,1,345.663-419.754Zm-1.283,4.044a8.191,8.191,0,0,1-.272,1.05c-.156.467-.311.739-.311.583C343.835-414.387,344.34-415.943,344.379-415.709Zm-.622,2.139a.535.535,0,0,1,0,.35c-.039.117-.078.039-.078-.194C343.679-413.609,343.718-413.687,343.757-413.57Zm-.311,1.983c-.039.117-.078,0-.078-.272,0-.233.039-.311.078-.156A.8.8,0,0,1,343.446-411.587Zm.156-.894c-.039.117-.078.039-.078-.194,0-.195.039-.272.078-.156A.536.536,0,0,1,343.6-412.482Zm.505-.039c-.156.856-.311,1.75-.35,2.022-.078.389-.078.389-.078-.078-.078-1.906,1.517-7.311,3.694-12.445a101.962,101.962,0,0,1,4.589-9.372,24.486,24.486,0,0,1-1.322,2.878C347.374-423.1,344.963-416.759,344.107-412.52ZM344.34-411c-.039.117-.078.039-.078-.195,0-.194.039-.272.078-.156A.54.54,0,0,1,344.34-411Zm6.611-17.889a92.02,92.02,0,0,0-5.133,12.289c-.311.895-.739,2.372-.972,3.267-.467,1.711-.622,1.867-.233.233a76.3,76.3,0,0,1,4.433-12.172,46.568,46.568,0,0,1,2.994-6.028,21.719,21.719,0,0,1-1.089,2.411Zm3.733,9.8c-.039.078-.078-.039-.078-.194.039-.156.078-.195.117-.078S354.763-419.132,354.685-419.093Zm.467-.233c-.117.272-.233.428-.233.272,0-.194.428-1.05.428-.856A3.077,3.077,0,0,1,355.151-419.326Zm7.856-3.033c.039-.117.117-.195.155-.156.078.039,0,.156-.078.272C362.929-422.126,362.929-422.126,363.007-422.359Zm-.078.428c.078-.039.078,0,.039.156-.078.233-.194.311-.194.078A.242.242,0,0,1,362.929-421.932Zm-1.322,4.006c0-.195.039-.233.078-.117a.426.426,0,0,1,0,.311C361.607-417.693,361.568-417.77,361.607-417.926Zm-.156.583c0-.155.039-.194.078-.078a.329.329,0,0,1,0,.272C361.491-417.109,361.452-417.187,361.452-417.343Zm-.156.583c0-.155.039-.194.078-.078a.32.32,0,0,1,0,.272C361.335-416.526,361.3-416.6,361.3-416.759Zm-.156.739c0-.156.039-.194.078-.078a.226.226,0,0,1,0,.272C361.179-415.748,361.14-415.865,361.14-416.021Zm-.078.933c-.039.078-.078-.039-.078-.195.039-.156.039-.195.117-.078.039.117.039.233-.039.272Zm.311.855-.233,1.361.078-1.128c.194-3.15,2.411-9.567,5.133-15.011a30.738,30.738,0,0,1,2.605-4.55c.039,0-.039.155-.155.35-.544.856-2.256,4.122-3.15,5.989a60.888,60.888,0,0,0-3.695,10.189c-.194.817-.467,2.061-.583,2.8Zm.739-1.594c-.039.078-.078-.039-.078-.195s.039-.194.078-.078A.32.32,0,0,1,362.113-415.826Zm.156-.583c-.039.039-.078-.039-.078-.194s.039-.194.078-.078A.329.329,0,0,1,362.268-416.409Zm7.467-17.384c-1.4,2.489-1.983,3.539-3.111,5.911a64.184,64.184,0,0,0-3.539,8.711c-.661,2.139-.739,2.333-.739,2.061a38.077,38.077,0,0,1,2.022-6.067c1.517-3.889,4.706-10.228,5.483-10.967C369.968-434.3,369.929-434.1,369.735-433.793Zm12.522,7.972c-.156,0-.389-.194-.583-.428-.545-.739-1.439-.467-2.139.661-.233.35-.506.661-.583.661a2.947,2.947,0,0,1-1.206-.855c-1.128-1.128-3.033-.933-4.939.506a17.566,17.566,0,0,0-4.317,6.533c-.933,2.722-1.167,5.639-.583,7.195a3.511,3.511,0,0,0,1.789,1.983,3.387,3.387,0,0,1,.739.389,2.053,2.053,0,0,0,2.061-.039,11.421,11.421,0,0,0,3.15-3.694l.817-1.322.078,1.867c.078,1.05.194,2.139.272,2.489a5.164,5.164,0,0,0,2.061,2.217c.311.117.622.272.661.389.117.156.506.194.583.039a6.834,6.834,0,0,0-.155-1.4,18.314,18.314,0,0,1-.233-3.228c0-2.878.428-4.667,2.761-11.2a10.166,10.166,0,0,0,.544-1.789C383.035-425.237,382.569-425.821,382.257-425.821Zm-13.339,12.133c-.039.156-.078.039-.078-.272,0-.272.039-.389.078-.233a1.109,1.109,0,0,1,0,.506Zm.078-1.244a1.56,1.56,0,0,1,.117-.583c.078-.195.117-.195.117-.078s-.078.389-.117.622C369-414.7,369-414.659,369-414.932Zm.35,1.478c-.156.856-.233,1.128-.233.778a18.416,18.416,0,0,1,1.75-6.611c.7-1.322.7-1.089.039.35a16.714,16.714,0,0,0-.972,2.683A25.692,25.692,0,0,0,369.346-413.454Zm.739-1.011c-.428,1.672-.505,1.556-.156-.194a19.6,19.6,0,0,1,1.517-4.394,16.748,16.748,0,0,1,1.983-3.15,5.984,5.984,0,0,1-.661,1.167A13.99,13.99,0,0,0,370.9-417.3,21.81,21.81,0,0,0,370.085-414.465Zm7.389-5.561c-.35,1.283-3.228,5.95-4.861,7.895a11.373,11.373,0,0,1-1.206,1.206l-.389.233v-.583a23.5,23.5,0,0,1,2.489-7.506c1.322-2.411,3.461-4.667,4.472-4.667.467,0,.467.35.078,1.517C377.863-421.348,377.63-420.454,377.474-420.026Zm.467,3.656a.661.661,0,0,1,0,.389c-.039.078-.078,0-.078-.195S377.9-416.448,377.941-416.37Zm0,4.161c0,.233-.039.039-.039-.428,0-.428.039-.622.039-.389A2.865,2.865,0,0,1,377.941-412.209Zm.583-4.472c-.117.661-.311,1.633-.389,2.217l-.117,1.05.078-1.283a10.925,10.925,0,0,1,.583-3.189,5.369,5.369,0,0,1-.156,1.206Zm.311.778c-.039.039-.078-.039-.078-.195,0-.194.039-.233.078-.117A.427.427,0,0,1,378.835-415.9Zm.272-1.361c-.039.078-.078-.039-.078-.194.039-.156.078-.195.117-.078S379.185-417.3,379.107-417.265Zm.156-.661c-.039.117-.039.039-.039-.195,0-.194,0-.272.039-.156A.292.292,0,0,1,379.263-417.926Zm.078-.778a.956.956,0,0,1,.156-.428c.078-.117.117-.156.117-.078,0,.272-.272.739-.272.505Zm1.828-6.145c-.117.233-.194.311-.194.078a.335.335,0,0,1,.117-.233C381.207-425.043,381.207-425,381.168-424.848Zm.622-.078c-.272.506-.428.622-.272.195.117-.35.467-.895.467-.739A1.834,1.834,0,0,1,381.791-424.926Zm13.182-1.361c-.933-.467-1.206-.544-1.672-.467a6.155,6.155,0,0,0-2.839,1.633c-.505.428-.778.622-.7.467.039-.195.233-.778.389-1.361.311-.972.311-1.089.078-1.322a.787.787,0,0,0-.428-.233.872.872,0,0,1-.544-.35c-.389-.506-.622-.467-1.245.194-2.294,2.567-5.172,11.667-5.406,17.15l-.078,2.217.467.35c.544.389.544.389.817.078.156-.117.233-.156.233-.078,0,.311.311.156.311-.156.039-.311.039-.311.078-.039.039.156.117.428.156.622.078.389.506.428.856.117a2.427,2.427,0,0,0,.311-1.089,22.418,22.418,0,0,1,2.061-7.506c1.906-4.395,3.928-7.233,5.872-8.361,1.05-.622,1.361-.583,1.867.039.194.311.467.544.583.544s.233.039.233.156c0,.311.467.039.583-.311.195-.817-.35-1.439-1.983-2.294Zm-6.456.078c.078-.195.195-.311.233-.311s0,.117-.117.311c-.078.156-.194.272-.233.272S388.4-426.054,388.517-426.209Zm-.311.661c.078-.078.117,0,.039.117-.078.272-.194.311-.194.117A.32.32,0,0,1,388.206-425.548Zm-2.45,7.039a18.512,18.512,0,0,1-.583,1.906c-.156.117.039-.544.817-3.189a25.27,25.27,0,0,1,1.867-4.9,5.179,5.179,0,0,1-.389,1.089A47.821,47.821,0,0,0,385.755-418.509Zm3.617-8.245c-.117.233-.739,1.594-1.283,2.839-.272.583-.7,1.789-1.011,2.684-.506,1.594-.778,2.178-.583,1.322a41.192,41.192,0,0,1,2.761-6.844Q389.431-426.871,389.372-426.754Zm24.034-2.722c-.156,0-.661-.622-.661-.817-.039-.272-.583-.389-.933-.156a20.558,20.558,0,0,0-1.983,2.411c-3.111,4.122-5.833,7-8.128,8.478-.428.272-.778.428-.817.35a38.085,38.085,0,0,1,1.439-5.367c1.711-5.211,2.1-6.417,3.111-8.945,1.633-4.2,1.789-4.939,1.206-5.445-.194-.156-.389-.233-.467-.194s-.117,0-.117-.078c0-.117-.039-.156-.078-.117-.078.078-.233-.039-.35-.194-.583-.7-1.322-.039-2.722,2.489a38.167,38.167,0,0,0-2.839,6.572,59.214,59.214,0,0,0-3.189,10.734c-.817,4.083-.467,9.333.739,11.2a2.6,2.6,0,0,0,2.139,1.283c.778.078.856.078.778-.194-.583-1.867-1.05-5.094-.778-5.094a15.734,15.734,0,0,1,1.828,1.672c.972.895,2.256,2.061,2.839,2.528a19.672,19.672,0,0,0,4.433,2.411,3.379,3.379,0,0,0,2.178,0,3.129,3.129,0,0,0,1.089-1.245c0-.117-.233-.195-.506-.195-1.05,0-3.811-1.672-6.028-3.733a41.219,41.219,0,0,1-4.433-4.706,3.542,3.542,0,0,1,.856-.35,20.178,20.178,0,0,0,4.511-2.683c2.917-2.411,6.572-7,7.156-9.022.194-.622.194-.817.039-1.167-.078-.233-.233-.428-.311-.428ZM399.095-421.7c0-.156.039-.194.078-.078a.226.226,0,0,1,0,.272C399.133-421.426,399.095-421.543,399.095-421.7Zm-.972,11.006a10.364,10.364,0,0,1-.194-2.683c0-1.011.039-.933.156.739A18.609,18.609,0,0,1,398.122-410.693Zm.156.7c-.039.078-.039,0-.039-.194s0-.272.039-.195A.353.353,0,0,1,398.278-409.993Zm.078-8.284c0-.194.039-.194.078-.078a.329.329,0,0,1,0,.272C398.395-418.043,398.356-418.12,398.356-418.276Zm.233,7.739a8.145,8.145,0,0,1-.233-2.528c.039-1.089.039-1.011.156.661C398.589-411.393,398.589-410.537,398.589-410.537Zm0-8.206c-.039.078-.078,0-.078-.194s.039-.272.078-.195A.663.663,0,0,1,398.589-418.743Zm.156-.817c-.078.039-.078-.039-.078-.194,0-.195.039-.233.078-.117A.415.415,0,0,1,398.745-419.559Zm.428.661a2.677,2.677,0,0,1-.272.933,5.6,5.6,0,0,1,.311-1.789C399.406-420.609,399.406-419.909,399.172-418.9Zm.35-1.75c-.156.389-.156,0,0-.506.117-.311.117-.311.117-.078A1.561,1.561,0,0,1,399.522-420.648Zm9.411,13.572a1.01,1.01,0,0,1,.389.156c.117.078.156.117.078.117a.87.87,0,0,1-.389-.117C408.895-407,408.856-407.076,408.934-407.076Zm-3.383-31.578a4.3,4.3,0,0,1-.467,1.05c-.272.544-.817,1.711-1.206,2.528-.35.856-1.05,2.567-1.555,3.85a16.338,16.338,0,0,1-.856,2.1c-.039-.7,3.733-9.528,4.083-9.528Zm-5.717,14.311c0-.194.039-.233.078-.117a.3.3,0,0,1,0,.311C399.872-424.109,399.833-424.187,399.833-424.343Zm-.156,2.567c0-.544,2.411-7.934,3.578-10.85.739-1.828,2.489-5.756,2.683-5.95.156-.156-.117.467-.778,1.983a96.419,96.419,0,0,0-3.967,10.228c-.272.856-.739,2.294-1.011,3.189a6.139,6.139,0,0,1-.506,1.4Zm3.111,10.306c-.194-.233-.194-.272.039-.078.156.117.272.233.272.272,0,.117-.117.039-.311-.194Zm1.283,1.167c-.428-.35-.544-.544-.311-.35.233.155.583.467.817.661.544.583.311.467-.506-.311Zm2.333,1.906a7.045,7.045,0,0,1-1.167-.933l-.311-.35.389.311a10.786,10.786,0,0,0,1.206.894,5.892,5.892,0,0,1,.856.622c0,.078-.039.039-.972-.544Zm2.333,1.244c0,.117,0,.117-.661-.233a2.537,2.537,0,0,1-.544-.35c0-.039.272.039.583.233A2.1,2.1,0,0,1,408.739-407.154Zm-.233-.506c.233.233,0,.156-.622-.233a4.4,4.4,0,0,1-.661-.467,6.341,6.341,0,0,1,1.283.7ZM405.9-409.37c.544.389,1.05.778,1.128.817.078.078.078.156.039.156-.506,0-6.339-5.522-6.806-6.378-.078-.233.117-.039.467.35A56.72,56.72,0,0,0,405.9-409.37Zm5.95-19.445c.078-.039.039.078-.078.311a1.9,1.9,0,0,1-.35.389C411.345-428.115,411.695-428.7,411.85-428.815Zm-.933,1.4c.233-.156.233-.156.039.078s-.311.311-.311.194c0-.039.117-.156.272-.272Zm-.467.622c.233-.195.272-.195.078.039s-.311.311-.311.194c0-.039.117-.155.233-.233Zm-3.578,4.9a1.72,1.72,0,0,1,.35-.311c.039,0-.039.156-.194.311a1.167,1.167,0,0,1-.35.272C406.639-421.621,406.717-421.737,406.872-421.893Zm4.239-4.161A33.6,33.6,0,0,1,408-422.282c-.583.583-1.322,1.322-1.672,1.633-.35.35.078-.156.972-1.089s2.1-2.333,2.722-3.111C411.345-426.56,411.734-426.948,411.112-426.054Zm1.05-1.556a5.053,5.053,0,0,1-.389.583l-.233.311.117-.311a5.058,5.058,0,0,1,.389-.583l.233-.311Zm.389-1.439a44.181,44.181,0,0,1-4.356,5.872c-.35.35-.739.7-.817.778-.117.078.272-.428.856-1.05a44.036,44.036,0,0,0,3.656-4.861C412.745-429.593,413.212-430.137,412.55-429.048Zm6.767,4.161a10.356,10.356,0,0,0-5.017,3.772c-2.761,3.422-3.811,8.011-2.528,10.695a7,7,0,0,0,2.839,2.645,3.007,3.007,0,0,0,2.256.622,4.256,4.256,0,0,0,1.633-.35c2.178-1.05,5.794-6.339,4.628-6.767-.156-.078-.467.233-.895.895a24.93,24.93,0,0,1-1.75,2.1,7.83,7.83,0,0,1-4.433,2.372l-.894.039-.311-.7a4,4,0,0,1-.233-2.294c.078-1.439.622-3.656.856-3.5,1.828,1.011,3.461.739,5.289-.855,2.1-1.867,3.5-5.756,2.528-7.156a2.259,2.259,0,0,0-.428-.506,3.882,3.882,0,0,1-.778-.583,2.455,2.455,0,0,0-2.761-.428Zm-6.728,10.617c-.039.039-.078-.039-.078-.195s.039-.194.078-.078A.226.226,0,0,1,412.589-414.27Zm.078-.856a1.482,1.482,0,0,1,.156-.505c.078-.195.117-.233.117-.078a3.062,3.062,0,0,1-.117.506C412.706-415.009,412.667-414.97,412.667-415.126Zm.078,1.711a13.7,13.7,0,0,1,.739-2.956c.35-.894.35-.544-.039.661-.194.622-.428,1.556-.544,2.061C412.706-412.754,412.667-412.715,412.745-413.415Zm.739-.7c-.039.039-.078-.039-.078-.194,0-.195.039-.195.078-.078A.329.329,0,0,1,413.484-414.115Zm.622-2.178a4.835,4.835,0,0,1-.272.972c-.233.545-.272.622-.194.233C413.756-415.67,414.145-416.643,414.106-416.293Zm2.061-3.733c.233-.194.233-.194.078.039-.194.272-.311.35-.311.233,0-.039.117-.156.233-.272Zm-1.594,1.633c-.078.195-.194.311-.233.311s0-.117.078-.311c.117-.156.194-.272.233-.272S414.65-418.548,414.573-418.393Zm.817-.311a6.667,6.667,0,0,1-.622.934,6.019,6.019,0,0,1,.972-1.672C415.856-419.52,415.7-419.209,415.389-418.7ZM422-419.909a1.182,1.182,0,0,1-.233.428c-.233.272-.233.272-.078-.078.233-.467.311-.544.311-.35Zm-.35-2.878a6.872,6.872,0,0,1-.778,2.8,6.776,6.776,0,0,1-2.956,3.111c-.817.389-1.983.583-1.983.311a20.18,20.18,0,0,1,2.1-3.267c1.206-1.478,3.344-3.228,3.617-2.956Zm19.328-2.372a2.887,2.887,0,0,1-.778-.622c-1.05-1.011-1.517-1.05-2.995-.311-1.478.7-5.328,5.056-7.35,8.283a6.472,6.472,0,0,1-.506.778c-.155,0,.467-1.4,1.556-3.694a24.758,24.758,0,0,0,1.167-2.606c0-.194-.544-.7-1.05-.933a2.382,2.382,0,0,1-.661-.583c-.311-.467-1.05-.389-1.633.194a27.157,27.157,0,0,0-3.306,6.534,18.031,18.031,0,0,0-.894,4.472,17.258,17.258,0,0,0,1.322,5.172,1.128,1.128,0,0,0,.544.35.808.808,0,0,1,.428.311,1.1,1.1,0,0,0,1.478-.156c.117-.117,1.011-1.711,1.906-3.5a37.149,37.149,0,0,1,6.495-9.878c1.011-1.167,1.945-1.945,1.828-1.594-.039.117-.506,1.4-1.05,2.878s-1.206,3.422-1.439,4.356a12.411,12.411,0,0,0-.467,4.083c0,2.178.039,2.45.35,3.189a4.712,4.712,0,0,0,1.594,2.139,3.747,3.747,0,0,0,.894.545c.233,0,.233,0-.039-.622-.467-.856-.467-2.761,0-4.939a33.178,33.178,0,0,1,1.867-6.222c1.517-4.083,1.828-6.067,1.206-7.117-.194-.272-.389-.505-.467-.505Zm-10.889,9.917a7.5,7.5,0,0,1-.622,1.361c-.661,1.361-.933,1.828-.661,1.128a19.766,19.766,0,0,1,1.283-2.489Zm-2.761-4.083c.078-.039.117,0,.078.156-.117.233-.233.311-.233.078A.32.32,0,0,1,427.328-419.326Zm-.194.583a2.843,2.843,0,0,1-.311,1.011,2.794,2.794,0,0,1-.35.778,7.22,7.22,0,0,1,.661-1.789Zm-.817,2.256c.078-.195.117-.233.117-.078a3.065,3.065,0,0,1-.117.506c-.078.195-.156.195-.156.078A1.481,1.481,0,0,1,426.317-416.487Zm-.35,1.945c-.078.039-.117-.039-.078-.195,0-.195.039-.195.078-.078A.329.329,0,0,1,425.967-414.542Zm.117-.739c-.039.039-.078-.039-.078-.195,0-.194.039-.194.117-.078C426.162-415.476,426.162-415.32,426.084-415.281Zm1.244-2.411c-.233.739-.622,1.983-.817,2.8-.194.855-.35,1.283-.35,1.05-.039-1.206,1.206-4.939,2.45-7.35,1.089-2.1,1.167-1.983.156.156-.545,1.128-1.167,2.606-1.439,3.345Zm.311.311a31.6,31.6,0,0,1,2.411-5.328c.894-1.517.817-1.089-.117.583-.467.817-1.128,2.216-1.517,3.111C427.756-417.42,427.639-417.187,427.639-417.381Zm.895,5.444c-.117.156-.156.117-.078-.078.078-.156.156-.233.195-.194S428.651-412.054,428.534-411.937Zm-.389,2.022a2.027,2.027,0,0,1-.233.583c-.117.156-.117.117-.039-.117a1.9,1.9,0,0,1,.233-.622C428.184-410.226,428.223-410.187,428.145-409.915Zm-.078-.895c-.078.117-.117.156-.117.078a.737.737,0,0,1,.117-.35c.078-.156.156-.156.156-.078A.88.88,0,0,1,428.067-410.809Zm3.5-5.911c-.35.544-1.128,1.983-1.75,3.189-.583,1.205-1.206,2.45-1.322,2.722-.117.311-.233.467-.272.389-.039-.544,3.772-7.622,4.122-7.622C432.423-418.043,432.384-418,431.567-416.72Zm1.439-2.178c-.194.233-.311.311-.311.194,0-.039.117-.155.233-.272C433.162-419.17,433.162-419.132,433.006-418.9Zm.428-.622c-.195.272-.311.35-.311.233,0-.039.117-.156.272-.272.233-.194.233-.194.039.039Zm4.433,1.75c.078-.117.156-.156.156-.078a1.008,1.008,0,0,1-.156.389c-.078.117-.156.156-.156.078A1.009,1.009,0,0,1,437.867-417.77Zm-.661,3.811c-.039.039-.078-.039-.078-.194s.039-.195.078-.078A.226.226,0,0,1,437.206-413.959Zm.194-.778c-.078.195-.117.233-.117.078a3.067,3.067,0,0,1,.117-.506c.117-.194.156-.233.156-.078A1.484,1.484,0,0,1,437.4-414.737Zm2.45-7.117c-.156.739-2.295,6.417-2.217,5.95a15.7,15.7,0,0,1,.7-2.1c.311-.894.778-2.178,1.05-2.878C439.851-422.2,440.045-422.593,439.851-421.854Zm.194-.544c-.078.039-.117-.039-.078-.194,0-.194.039-.194.078-.078A.329.329,0,0,1,440.045-422.4Zm9.722-2.489a10.355,10.355,0,0,0-5.017,3.772c-2.761,3.422-3.811,8.011-2.528,10.695a7,7,0,0,0,2.839,2.645,3.008,3.008,0,0,0,2.256.622,4.258,4.258,0,0,0,1.633-.35c2.178-1.05,5.795-6.339,4.628-6.767-.156-.078-.467.233-.894.894a24.962,24.962,0,0,1-1.75,2.1A7.829,7.829,0,0,1,446.5-408.9l-.894.039-.311-.7a4,4,0,0,1-.233-2.295c.078-1.439.622-3.655.856-3.5,1.828,1.011,3.461.739,5.289-.855,2.1-1.867,3.5-5.756,2.528-7.156a2.267,2.267,0,0,0-.428-.506,3.877,3.877,0,0,1-.778-.583,2.455,2.455,0,0,0-2.761-.428ZM443.04-414.27c-.039.039-.078-.039-.078-.194s.039-.195.078-.078A.226.226,0,0,1,443.04-414.27Zm.078-.856a1.483,1.483,0,0,1,.156-.506c.078-.194.117-.233.117-.078a3.061,3.061,0,0,1-.117.506C443.156-415.009,443.118-414.97,443.118-415.126Zm.078,1.711a13.708,13.708,0,0,1,.739-2.956c.35-.895.35-.544-.039.661-.195.622-.428,1.556-.545,2.061C443.156-412.754,443.118-412.715,443.2-413.415Zm.739-.7c-.039.039-.078-.039-.078-.194,0-.194.039-.194.078-.078A.329.329,0,0,1,443.934-414.115Zm.622-2.178a4.83,4.83,0,0,1-.272.972c-.233.544-.272.622-.194.233C444.206-415.67,444.6-416.643,444.557-416.293Zm2.061-3.733c.233-.194.233-.194.078.039-.194.272-.311.35-.311.233C446.384-419.793,446.5-419.909,446.618-420.026Zm-1.594,1.633c-.078.195-.194.311-.233.311s0-.117.078-.311c.117-.156.194-.272.233-.272S445.1-418.548,445.023-418.393Zm.817-.311a6.655,6.655,0,0,1-.622.934,6.02,6.02,0,0,1,.972-1.672C446.307-419.52,446.151-419.209,445.84-418.7Zm6.611-1.206a1.183,1.183,0,0,1-.233.428c-.233.272-.233.272-.078-.078.233-.467.311-.544.311-.35Zm-.35-2.878a6.874,6.874,0,0,1-.778,2.8,6.776,6.776,0,0,1-2.956,3.111c-.817.389-1.983.583-1.983.311a20.176,20.176,0,0,1,2.1-3.267C449.69-421.309,451.829-423.059,452.1-422.787Zm12.248-3.306c-.311-.195-.855-.544-1.206-.778-1.206-.856-2.761-.506-4.317.933a6.86,6.86,0,0,0-2.139,4.2c-.194,1.75.35,3.306,2.1,5.833,1.05,1.556,1.322,2.333,1.206,3.461a3.518,3.518,0,0,1-3.15,3.111c-.817.117-.856.117-1.439-.389a4.372,4.372,0,0,1-.855-.856c-.117-.233-.272-.389-.35-.35a.4.4,0,0,1-.272-.194c-.078-.156-.194-.078-.467.272a1.6,1.6,0,0,0-.389.7c0,.7,2.294,2.333,4.006,2.878a7.142,7.142,0,0,0,1.983.117,4.644,4.644,0,0,0,4.317-2.528,3.016,3.016,0,0,0,.35-1.906c-.078-1.206-.35-1.75-1.828-4.122a13.5,13.5,0,0,1-1.283-2.333,5.829,5.829,0,0,1,1.283-5.639,3.456,3.456,0,0,1,1.478-1.05,6.272,6.272,0,0,1,0,1.867L463.3-421l.467.195c.272.117.428.233.35.233s-.078.078.039.156c.428.428,1.206-.583,1.594-2.061a2.659,2.659,0,0,0,.078-1.633,3.173,3.173,0,0,0-1.478-1.983Zm-2.294,15.128c.117-.272.194-.389.194-.272,0,.233-.428,1.05-.428.856A2.043,2.043,0,0,1,462.055-410.965Zm-.506-.428c.194-.933.233-1.011.272-.428a1.565,1.565,0,0,1-.233.817C461.432-410.731,461.394-410.77,461.549-411.393Zm-.233-.622a.663.663,0,0,1,0,.389c-.039.078-.078,0-.078-.194S461.277-412.131,461.316-412.015ZM458.2-422.087c-.039.039-.078-.039-.078-.194,0-.194.039-.194.078-.078A.328.328,0,0,1,458.2-422.087Zm.35.622c0,.156-.039.311-.117.35-.233.156.078-1.322.389-1.945a2.863,2.863,0,0,1,.389-.622,5.028,5.028,0,0,1-.311.972A6.4,6.4,0,0,0,458.555-421.465Zm1.245-1.944c-.195.467-.467,1.05-.583,1.361l-.194.506.078-.506a4.3,4.3,0,0,1,.855-1.867C460.11-424.071,460.032-423.837,459.8-423.409Zm4.628,1.167c-.039.039-.078-.039-.078-.194s.039-.195.078-.078A.33.33,0,0,1,464.427-422.243Zm10.928-3.85c-.311-.195-.856-.544-1.206-.778-1.206-.856-2.761-.506-4.317.933a6.859,6.859,0,0,0-2.139,4.2c-.194,1.75.35,3.306,2.1,5.833,1.05,1.556,1.322,2.333,1.206,3.461a3.518,3.518,0,0,1-3.15,3.111c-.817.117-.856.117-1.439-.389a4.375,4.375,0,0,1-.856-.856c-.117-.233-.272-.389-.35-.35a.4.4,0,0,1-.272-.194c-.078-.156-.194-.078-.467.272a1.605,1.605,0,0,0-.389.7c0,.7,2.294,2.333,4.006,2.878a7.142,7.142,0,0,0,1.983.117,4.644,4.644,0,0,0,4.317-2.528,3.016,3.016,0,0,0,.35-1.906c-.078-1.206-.35-1.75-1.828-4.122a13.49,13.49,0,0,1-1.283-2.333,5.829,5.829,0,0,1,1.283-5.639,3.455,3.455,0,0,1,1.478-1.05,6.272,6.272,0,0,1,0,1.867L474.305-421l.467.195c.272.117.428.233.35.233s-.078.078.039.156c.428.428,1.206-.583,1.594-2.061a2.659,2.659,0,0,0,.078-1.633,3.174,3.174,0,0,0-1.478-1.983Zm-2.294,15.128c.117-.272.194-.389.194-.272,0,.233-.428,1.05-.428.856A2.045,2.045,0,0,1,473.06-410.965Zm-.506-.428c.195-.933.233-1.011.272-.428a1.566,1.566,0,0,1-.233.817C472.438-410.731,472.4-410.77,472.555-411.393Zm-.233-.622a.664.664,0,0,1,0,.389c-.039.078-.078,0-.078-.194S472.283-412.131,472.322-412.015Zm-3.111-10.072c-.039.039-.078-.039-.078-.194,0-.194.039-.194.078-.078A.329.329,0,0,1,469.21-422.087Zm.35.622c0,.156-.039.311-.117.35-.233.156.078-1.322.389-1.945a2.856,2.856,0,0,1,.389-.622,5.037,5.037,0,0,1-.311.972,6.407,6.407,0,0,0-.35,1.244Zm1.244-1.944c-.195.467-.467,1.05-.583,1.361l-.195.506.078-.506a4.3,4.3,0,0,1,.856-1.867c.156-.156.078.078-.156.506Zm4.628,1.167c-.039.039-.078-.039-.078-.194s.039-.195.078-.078A.33.33,0,0,1,475.433-422.243Zm9.528-2.645a10.355,10.355,0,0,0-5.017,3.772c-2.761,3.422-3.811,8.011-2.528,10.695a7,7,0,0,0,2.839,2.645,3.008,3.008,0,0,0,2.256.622,4.258,4.258,0,0,0,1.633-.35c2.178-1.05,5.795-6.339,4.628-6.767-.156-.078-.467.233-.894.894a24.975,24.975,0,0,1-1.75,2.1,7.83,7.83,0,0,1-4.433,2.372l-.895.039-.311-.7a4,4,0,0,1-.233-2.295c.078-1.439.622-3.655.856-3.5,1.828,1.011,3.461.739,5.289-.855,2.1-1.867,3.5-5.756,2.528-7.156a2.265,2.265,0,0,0-.428-.506,3.874,3.874,0,0,1-.778-.583,2.455,2.455,0,0,0-2.761-.428Zm-6.728,10.617c-.039.039-.078-.039-.078-.194s.039-.195.078-.078A.226.226,0,0,1,478.233-414.27Zm.078-.856a1.482,1.482,0,0,1,.156-.506c.078-.194.117-.233.117-.078a3.067,3.067,0,0,1-.117.506C478.349-415.009,478.31-414.97,478.31-415.126Zm.078,1.711a13.7,13.7,0,0,1,.739-2.956c.35-.895.35-.544-.039.661-.194.622-.428,1.556-.544,2.061C478.349-412.754,478.31-412.715,478.388-413.415Zm.739-.7c-.039.039-.078-.039-.078-.194,0-.194.039-.194.078-.078A.329.329,0,0,1,479.127-414.115Zm.622-2.178a4.829,4.829,0,0,1-.272.972c-.233.544-.272.622-.194.233C479.4-415.67,479.788-416.643,479.749-416.293Zm2.061-3.733c.233-.194.233-.194.078.039-.194.272-.311.35-.311.233C481.577-419.793,481.694-419.909,481.811-420.026Zm-1.594,1.633c-.078.195-.195.311-.233.311s0-.117.078-.311c.117-.156.194-.272.233-.272S480.294-418.548,480.216-418.393Zm.817-.311a6.664,6.664,0,0,1-.622.934,6.016,6.016,0,0,1,.972-1.672C481.5-419.52,481.344-419.209,481.033-418.7Zm6.611-1.206a1.183,1.183,0,0,1-.233.428c-.233.272-.233.272-.078-.078.233-.467.311-.544.311-.35Zm-.35-2.878a6.873,6.873,0,0,1-.778,2.8,6.777,6.777,0,0,1-2.956,3.111c-.817.389-1.983.583-1.983.311a20.177,20.177,0,0,1,2.1-3.267C484.883-421.309,487.022-423.059,487.294-422.787Zm19.328-2.372a2.888,2.888,0,0,1-.778-.622c-1.05-1.011-1.517-1.05-2.994-.311-1.478.7-5.328,5.056-7.35,8.283a6.484,6.484,0,0,1-.506.778c-.156,0,.467-1.4,1.555-3.695a24.766,24.766,0,0,0,1.167-2.605c0-.195-.544-.7-1.05-.933a2.382,2.382,0,0,1-.661-.583c-.311-.467-1.05-.389-1.633.194a27.162,27.162,0,0,0-3.306,6.534,18.036,18.036,0,0,0-.894,4.472,17.26,17.26,0,0,0,1.322,5.172,1.129,1.129,0,0,0,.544.35.807.807,0,0,1,.428.311,1.1,1.1,0,0,0,1.478-.156c.117-.117,1.011-1.711,1.906-3.5a37.151,37.151,0,0,1,6.495-9.878c1.011-1.167,1.945-1.945,1.828-1.594-.039.117-.506,1.4-1.05,2.878s-1.206,3.422-1.439,4.356a12.407,12.407,0,0,0-.467,4.083c0,2.178.039,2.45.35,3.189a4.713,4.713,0,0,0,1.594,2.139,3.749,3.749,0,0,0,.895.544c.233,0,.233,0-.039-.622-.467-.855-.467-2.761,0-4.939a33.185,33.185,0,0,1,1.867-6.222c1.517-4.083,1.828-6.067,1.206-7.117-.195-.272-.389-.506-.467-.506Zm-10.889,9.917a7.479,7.479,0,0,1-.622,1.361c-.661,1.361-.933,1.828-.661,1.128a19.778,19.778,0,0,1,1.284-2.489Zm-2.761-4.083c.078-.039.117,0,.078.156-.117.233-.233.311-.233.078A.32.32,0,0,1,492.972-419.326Zm-.194.583a2.839,2.839,0,0,1-.311,1.011,2.8,2.8,0,0,1-.35.778,7.226,7.226,0,0,1,.661-1.789Zm-.817,2.256c.078-.195.117-.233.117-.078a3.076,3.076,0,0,1-.117.506c-.078.195-.156.195-.156.078A1.483,1.483,0,0,1,491.961-416.487Zm-.35,1.945c-.078.039-.117-.039-.078-.195,0-.195.039-.195.078-.078A.33.33,0,0,1,491.611-414.542Zm.117-.739c-.039.039-.078-.039-.078-.195,0-.194.039-.194.117-.078.039.078.039.233-.039.272Zm1.244-2.411c-.233.739-.622,1.983-.817,2.8-.194.856-.35,1.283-.35,1.05-.039-1.206,1.206-4.939,2.45-7.35,1.089-2.1,1.167-1.983.156.156-.544,1.128-1.167,2.606-1.439,3.344Zm.311.311a31.609,31.609,0,0,1,2.411-5.328c.894-1.517.817-1.089-.117.583-.467.817-1.128,2.217-1.517,3.111C493.4-417.42,493.283-417.187,493.283-417.381Zm.894,5.444c-.117.156-.156.117-.078-.078.078-.156.156-.233.194-.194S494.294-412.054,494.177-411.937Zm-.389,2.022a2.029,2.029,0,0,1-.233.583c-.117.156-.117.117-.039-.117a1.9,1.9,0,0,1,.233-.622C493.827-410.226,493.866-410.187,493.789-409.915Zm-.078-.895c-.078.117-.117.156-.117.078a.737.737,0,0,1,.117-.35c.078-.156.156-.156.156-.078A.879.879,0,0,1,493.711-410.809Zm3.5-5.911c-.35.545-1.128,1.983-1.75,3.189-.583,1.206-1.206,2.45-1.322,2.722-.117.311-.233.467-.272.389-.039-.544,3.772-7.622,4.122-7.622C498.066-418.043,498.027-418,497.211-416.72Zm1.439-2.178c-.195.233-.311.311-.311.195,0-.039.117-.156.233-.272.233-.194.233-.156.078.078Zm.428-.622c-.194.272-.311.35-.311.233,0-.039.117-.156.272-.272C499.272-419.754,499.272-419.754,499.077-419.52Zm4.433,1.75c.078-.117.155-.156.155-.078a1.01,1.01,0,0,1-.155.389c-.078.117-.156.156-.156.078A1.009,1.009,0,0,1,503.511-417.77Zm-.661,3.811c-.039.039-.078-.039-.078-.194s.039-.194.078-.078A.226.226,0,0,1,502.85-413.959Zm.194-.778c-.078.195-.117.233-.117.078a3.063,3.063,0,0,1,.117-.506c.117-.195.156-.233.156-.078A1.484,1.484,0,0,1,503.044-414.737Zm2.45-7.117c-.156.739-2.294,6.417-2.217,5.95a15.738,15.738,0,0,1,.7-2.1c.311-.895.778-2.178,1.05-2.878C505.494-422.2,505.689-422.593,505.494-421.854Zm.195-.544c-.078.039-.117-.039-.078-.194,0-.194.039-.194.078-.078A.328.328,0,0,1,505.689-422.4Zm2.681,13.806c.233.117.467.389.467.544a1.289,1.289,0,0,0,.428.622c.545.428,1.206.389,3.85-.156,1.206-.233,3.578-.583,5.25-.739a19.256,19.256,0,0,0,3.072-.505c.039-.117-.156-.389-.389-.661l-.467-.506-4.472-.078-4.472-.078,1.05-1.206c.583-.661,1.983-2.178,3.15-3.383,3.461-3.617,4.395-4.939,4.745-6.689a2.007,2.007,0,0,0-.078-1.517,4.84,4.84,0,0,0-.895-1.361,10.787,10.787,0,0,1-.856-1.128,2.3,2.3,0,0,0-1.983-.972c-2.022,0-5.678,1.906-5.678,2.956.039.311.35.778.583.778.078,0,.195.194.311.428.078.233.233.506.35.544a5.383,5.383,0,0,0,1.361-.389c1.633-.661,3.189-1.05,3.189-.856,0,.544-1.867,2.917-4.822,6.106-3.033,3.306-4.433,5.172-4.667,6.222A2.089,2.089,0,0,0,508.37-408.592Zm6.961-8.011c-1.711,1.828-2.722,2.878-3.733,4.083-.506.545-1.128,1.361-1.439,1.75s-.544.661-.544.544c0-.272,1.867-2.45,4.511-5.328,1.4-1.517,2.917-3.189,3.344-3.772a7.038,7.038,0,0,1,.856-.972c.272,0-1.283,1.906-2.995,3.695Zm1.789-3.928c.817-1.244.972-1.4.506-.544a6.013,6.013,0,0,1-.778,1.089C516.615-419.715,516.731-419.948,517.12-420.531Zm-3.811,5.056a48.862,48.862,0,0,0,4.667-5.561c.778-1.206.817-1.05.039.272a37.889,37.889,0,0,1-3.889,4.589,58.825,58.825,0,0,0-4.161,4.783,12.626,12.626,0,0,1-1.05,1.322c-.311,0,1.711-2.45,4.394-5.406" transform="translate(212.089 4039.582)" fill="#4e574e"/>
  </g>
</svg>
