<svg xmlns="http://www.w3.org/2000/svg" width="747.65" height="142.779" viewBox="0 0 747.65 142.779">
  <g id="Gruppe_1109" data-name="Gruppe 1109" transform="translate(-266.174 -3719.339)">
    <path id="path16" d="M162.915-218.669,231.629-341.96h573.2l69.1,123.291h18.317L813.987-357.823H222.469L144.6-218.669h18.317" transform="translate(121.576 4077.162)" fill="orange"/>
    <path id="path20" d="M212.556-257.931a5.214,5.214,0,0,0,1.756-1.1l-.885-1.47a4.606,4.606,0,0,1-1.5.9,5.686,5.686,0,0,1-2.013.329,2.893,2.893,0,0,1-2.444-1.151,4.883,4.883,0,0,1-.906-2.934l.035-.058h8.054v-1.41a6.037,6.037,0,0,0-1.285-4.039,4.706,4.706,0,0,0-3.8-1.515,4.86,4.86,0,0,0-3.735,1.762,6.363,6.363,0,0,0-1.577,4.41v.506a6.5,6.5,0,0,0,1.532,4.48,5.236,5.236,0,0,0,4.124,1.727,7.048,7.048,0,0,0,2.639-.439Zm-.871-9.775a3.455,3.455,0,0,1,.71,2.219v.3H206.67l-.023-.056a4.5,4.5,0,0,1,.988-2.4,2.446,2.446,0,0,1,1.939-.957A2.539,2.539,0,0,1,211.685-267.706Zm8.007,7.169a6.074,6.074,0,0,1-.756-3.168v-.482a6,6,0,0,1,.762-3.133,2.726,2.726,0,0,1,2.541-1.279,2.756,2.756,0,0,1,2.03.8,2.614,2.614,0,0,1,.8,1.933h2.044l.021-.07a3.991,3.991,0,0,0-1.336-3.154,5.022,5.022,0,0,0-3.562-1.285A5.019,5.019,0,0,0,218.1-268.6a6.781,6.781,0,0,0-1.441,4.422v.482a6.807,6.807,0,0,0,1.435,4.439,5.025,5.025,0,0,0,4.142,1.767,5.211,5.211,0,0,0,3.459-1.25,3.5,3.5,0,0,0,1.429-2.856l-.023-.07h-2.032a2.118,2.118,0,0,1-.854,1.705,3.051,3.051,0,0,1-1.979.694,2.727,2.727,0,0,1-2.547-1.268Zm12.231-15.093h-2.261v17.9h2.261V-266.9a3.686,3.686,0,0,1,1.256-1.2,3.346,3.346,0,0,1,1.7-.441,2.507,2.507,0,0,1,1.968.735,3.321,3.321,0,0,1,.659,2.271v7.8h2.261v-7.778a5.244,5.244,0,0,0-1.108-3.671,4.007,4.007,0,0,0-3.092-1.194,4.312,4.312,0,0,0-2.071.5,4.591,4.591,0,0,0-1.577,1.392Zm11.817,2.489v2.995h-1.974v1.674h1.974v7.539a3.612,3.612,0,0,0,.815,2.61,2.921,2.921,0,0,0,2.191.832,3.778,3.778,0,0,0,.982-.132,1.971,1.971,0,0,0,.739-.338l-.3-1.548a2.825,2.825,0,0,1-.42.115,2.351,2.351,0,0,1-.43.045,1.3,1.3,0,0,1-.957-.356,1.686,1.686,0,0,1-.362-1.227v-7.539h2.351v-1.674H246v-2.995Zm12.748,9.672a6.762,6.762,0,0,0,1.307,4.324,4.329,4.329,0,0,0,3.591,1.653,4.584,4.584,0,0,0,1.95-.395,3.955,3.955,0,0,0,1.456-1.176v1.4a3.111,3.111,0,0,1-.751,2.289,3.3,3.3,0,0,1-2.4.751,7.045,7.045,0,0,1-1.7-.212,5.846,5.846,0,0,1-1.47-.556l-.574,1.756a7.657,7.657,0,0,0,1.83.671,8.471,8.471,0,0,0,1.935.247,5.708,5.708,0,0,0,4-1.279,4.737,4.737,0,0,0,1.388-3.665v-12.483h-1.8l-.276,1.618a4.083,4.083,0,0,0-1.491-1.371,4.364,4.364,0,0,0-2.077-.476,4.2,4.2,0,0,0-3.615,1.836,8.151,8.151,0,0,0-1.307,4.83Zm2.259-.241a6.745,6.745,0,0,1,.8-3.477,2.632,2.632,0,0,1,2.421-1.353,2.983,2.983,0,0,1,1.686.465,3.5,3.5,0,0,1,1.135,1.256v5.713a3.5,3.5,0,0,1-1.135,1.315,2.992,2.992,0,0,1-1.709.465,2.742,2.742,0,0,1-2.409-1.136,5.168,5.168,0,0,1-.791-3.006Zm19.62,5.977h2.03v-12.414h-2.259v8.948a3.058,3.058,0,0,1-1.188,1.383,3.726,3.726,0,0,1-1.991.488,2.175,2.175,0,0,1-1.824-.747,4.609,4.609,0,0,1-.585-2.73v-7.342h-2.259v7.319a6.009,6.009,0,0,0,1.135,4.039,3.983,3.983,0,0,0,3.166,1.3,4.113,4.113,0,0,0,2.123-.539,4.212,4.212,0,0,0,1.5-1.538Zm6.045-15.408v2.995h-1.974v1.674h1.974v7.539a3.612,3.612,0,0,0,.815,2.61,2.921,2.921,0,0,0,2.191.832,3.777,3.777,0,0,0,.982-.132,1.971,1.971,0,0,0,.739-.338l-.3-1.548a2.822,2.822,0,0,1-.42.115,2.351,2.351,0,0,1-.43.045,1.307,1.307,0,0,1-.959-.356,1.686,1.686,0,0,1-.36-1.227v-7.539h2.351v-1.674h-2.351v-2.995Zm12.746,9.672a6.762,6.762,0,0,0,1.309,4.324,4.329,4.329,0,0,0,3.591,1.653,4.584,4.584,0,0,0,1.95-.395,3.954,3.954,0,0,0,1.456-1.176v1.4a3.119,3.119,0,0,1-.751,2.289,3.3,3.3,0,0,1-2.4.751,7.073,7.073,0,0,1-1.7-.212,5.832,5.832,0,0,1-1.468-.556l-.574,1.756a7.658,7.658,0,0,0,1.83.671,8.472,8.472,0,0,0,1.935.247,5.711,5.711,0,0,0,4-1.279,4.737,4.737,0,0,0,1.388-3.665v-12.483h-1.8l-.274,1.618a4.083,4.083,0,0,0-1.491-1.371,4.364,4.364,0,0,0-2.077-.476,4.2,4.2,0,0,0-3.615,1.836,8.151,8.151,0,0,0-1.309,4.83Zm2.261-.241a6.726,6.726,0,0,1,.8-3.477,2.632,2.632,0,0,1,2.421-1.353,2.983,2.983,0,0,1,1.686.465,3.5,3.5,0,0,1,1.136,1.256v5.713a3.5,3.5,0,0,1-1.136,1.315,2.992,2.992,0,0,1-1.709.465,2.738,2.738,0,0,1-2.409-1.136,5.168,5.168,0,0,1-.791-3.006Zm19.379,5.779a5.222,5.222,0,0,0,1.754-1.1l-.883-1.47a4.607,4.607,0,0,1-1.5.9,5.686,5.686,0,0,1-2.013.329,2.893,2.893,0,0,1-2.444-1.151,4.87,4.87,0,0,1-.906-2.934l.033-.058H320.9v-1.41a6.036,6.036,0,0,0-1.283-4.039,4.706,4.706,0,0,0-3.8-1.515,4.86,4.86,0,0,0-3.735,1.762,6.364,6.364,0,0,0-1.577,4.41v.506a6.5,6.5,0,0,0,1.53,4.48,5.24,5.24,0,0,0,4.126,1.727A7.049,7.049,0,0,0,318.8-257.931Zm-.873-9.775a3.445,3.445,0,0,1,.712,2.219v.3h-5.725l-.023-.056a4.518,4.518,0,0,1,.986-2.4,2.453,2.453,0,0,1,1.941-.957A2.537,2.537,0,0,1,317.925-267.706Zm5.507-2.44v12.414h2.261v-9.19a2.746,2.746,0,0,1,1.021-1.194,3.112,3.112,0,0,1,1.7-.424,2.251,2.251,0,0,1,1.865.809,4.074,4.074,0,0,1,.648,2.553v7.445H333.2v-7.974a3.489,3.489,0,0,1,.842-2.03,2.4,2.4,0,0,1,1.876-.8,2.306,2.306,0,0,1,1.882.762,4.134,4.134,0,0,1,.63,2.6v7.445h2.261v-7.422a5.942,5.942,0,0,0-1.1-3.918,3.712,3.712,0,0,0-2.995-1.3,4.056,4.056,0,0,0-2.248.62,4.6,4.6,0,0,0-1.55,1.674,3.468,3.468,0,0,0-1.336-1.721,3.839,3.839,0,0,0-2.129-.574,4.641,4.641,0,0,0-2.174.488,4.216,4.216,0,0,0-1.544,1.371l-.159-1.629Zm30.5,12.414a6.488,6.488,0,0,1-.253-1.215,11.46,11.46,0,0,1-.07-1.285v-5.977a3.8,3.8,0,0,0-1.283-3.092,5.127,5.127,0,0,0-3.4-1.073,5.258,5.258,0,0,0-3.483,1.124,3.013,3.013,0,0,0-1.28,2.479l.023.068h2.156a1.671,1.671,0,0,1,.684-1.336,2.71,2.71,0,0,1,1.771-.558,2.617,2.617,0,0,1,1.882.638,2.276,2.276,0,0,1,.665,1.727v1.227h-2.456A6.717,6.717,0,0,0,344.984-264a3.207,3.207,0,0,0-1.439,2.781,3.653,3.653,0,0,0,1.015,2.738,4.06,4.06,0,0,0,2.954.992,4.2,4.2,0,0,0,2.186-.6,5.252,5.252,0,0,0,1.647-1.5,7.591,7.591,0,0,0,.074.867c.043.286.1.616.179.992Zm-7.607-2.143a1.7,1.7,0,0,1-.517-1.3,2.052,2.052,0,0,1,.82-1.614,3.3,3.3,0,0,1,2.186-.686h2.536v2.014a3,3,0,0,1-1.285,1.441,4.028,4.028,0,0,1-2.215.63A2.169,2.169,0,0,1,346.322-259.876Zm13.067-.661a6.092,6.092,0,0,1-.756-3.167v-.482a6.021,6.021,0,0,1,.762-3.133,2.726,2.726,0,0,1,2.541-1.279,2.757,2.757,0,0,1,2.03.8,2.616,2.616,0,0,1,.8,1.933h2.042l.023-.07a4,4,0,0,0-1.338-3.154,5.022,5.022,0,0,0-3.562-1.285A5.021,5.021,0,0,0,357.8-268.6a6.779,6.779,0,0,0-1.439,4.422v.482a6.806,6.806,0,0,0,1.433,4.439,5.025,5.025,0,0,0,4.142,1.767,5.2,5.2,0,0,0,3.459-1.25,3.5,3.5,0,0,0,1.429-2.856l-.023-.07h-2.03a2.12,2.12,0,0,1-.856,1.705,3.047,3.047,0,0,1-1.979.694,2.727,2.727,0,0,1-2.547-1.268ZM371.62-275.63H369.36v17.9h2.259V-266.9a3.705,3.705,0,0,1,1.256-1.2,3.351,3.351,0,0,1,1.7-.441,2.507,2.507,0,0,1,1.968.735,3.321,3.321,0,0,1,.661,2.271v7.8h2.259v-7.778a5.253,5.253,0,0,0-1.106-3.671,4.014,4.014,0,0,0-3.094-1.194,4.312,4.312,0,0,0-2.071.5,4.591,4.591,0,0,0-1.577,1.392Zm11.817,2.489v2.994h-1.972v1.674h1.972v7.539a3.612,3.612,0,0,0,.815,2.609,2.924,2.924,0,0,0,2.191.832,3.766,3.766,0,0,0,.982-.132,1.972,1.972,0,0,0,.739-.338l-.3-1.548a2.872,2.872,0,0,1-.418.115,2.4,2.4,0,0,1-.432.045,1.3,1.3,0,0,1-.957-.356,1.686,1.686,0,0,1-.362-1.227v-7.539h2.351v-1.674H385.7v-2.994Zm15.192,15.21a5.225,5.225,0,0,0,1.754-1.1l-.883-1.47a4.607,4.607,0,0,1-1.5.9,5.686,5.686,0,0,1-2.013.329,2.893,2.893,0,0,1-2.444-1.151,4.87,4.87,0,0,1-.906-2.934l.033-.058h8.054v-1.41a6.036,6.036,0,0,0-1.283-4.039,4.708,4.708,0,0,0-3.8-1.515,4.859,4.859,0,0,0-3.733,1.762,6.364,6.364,0,0,0-1.577,4.41v.506a6.5,6.5,0,0,0,1.53,4.48,5.237,5.237,0,0,0,4.126,1.727A7.05,7.05,0,0,0,398.628-257.931Zm-.873-9.775a3.445,3.445,0,0,1,.712,2.219v.3h-5.724l-.023-.056a4.519,4.519,0,0,1,.986-2.4,2.452,2.452,0,0,1,1.939-.957A2.538,2.538,0,0,1,397.755-267.706Zm11.692-2.543a2.92,2.92,0,0,0-.379-.086,2.749,2.749,0,0,0-.482-.041,3.039,3.039,0,0,0-1.783.539,4.312,4.312,0,0,0-1.3,1.5l-.218-1.812h-2.02v12.414h2.261V-266.6a2.711,2.711,0,0,1,.947-1.192,2.578,2.578,0,0,1,1.507-.426l1.159.07Zm14.525,5.816a5.91,5.91,0,0,0,4.151-1.359,4.7,4.7,0,0,0,1.482-3.642,4.718,4.718,0,0,0-1.482-3.626,5.862,5.862,0,0,0-4.151-1.377h-6.392v16.705h2.259v-6.7Zm-4.132-8.225h4.132a3.253,3.253,0,0,1,2.53.927,3.312,3.312,0,0,1,.842,2.314,3.265,3.265,0,0,1-.836,2.3,3.285,3.285,0,0,1-2.536.91h-4.132Zm18.552,2.409a2.886,2.886,0,0,0-.377-.086,2.766,2.766,0,0,0-.482-.041,3.048,3.048,0,0,0-1.785.539,4.327,4.327,0,0,0-1.3,1.5l-.218-1.812h-2.02v12.414h2.259V-266.6a2.725,2.725,0,0,1,.947-1.192,2.585,2.585,0,0,1,1.509-.426l1.159.07Zm1.114,6.448a6.777,6.777,0,0,0,1.5,4.536,5.041,5.041,0,0,0,4.066,1.773,5.035,5.035,0,0,0,4.062-1.767,6.8,6.8,0,0,0,1.491-4.542v-.253a6.809,6.809,0,0,0-1.5-4.544,5.051,5.051,0,0,0-4.078-1.777,5,5,0,0,0-4.05,1.783,6.832,6.832,0,0,0-1.491,4.538Zm2.26-.259a5.892,5.892,0,0,1,.832-3.243,2.731,2.731,0,0,1,2.45-1.3,2.768,2.768,0,0,1,2.472,1.3,5.829,5.829,0,0,1,.844,3.243v.253a5.848,5.848,0,0,1-.838,3.255,2.747,2.747,0,0,1-2.456,1.283,2.753,2.753,0,0,1-2.471-1.283,5.879,5.879,0,0,1-.832-3.255Zm11.107.591a6.846,6.846,0,0,0,1.283,4.33,4.262,4.262,0,0,0,3.558,1.647,4.5,4.5,0,0,0,2.053-.447,4.024,4.024,0,0,0,1.491-1.32l.264,1.526h1.847v-17.9H461.11v6.825a3.972,3.972,0,0,0-1.439-1.171,4.468,4.468,0,0,0-1.935-.4,4.12,4.12,0,0,0-3.584,1.836,8.275,8.275,0,0,0-1.28,4.83Zm2.259-.241a6.95,6.95,0,0,1,.774-3.488,2.585,2.585,0,0,1,2.4-1.342,2.992,2.992,0,0,1,1.67.453,3.47,3.47,0,0,1,1.13,1.221v5.795a3.417,3.417,0,0,1-1.124,1.285,3,3,0,0,1-1.7.459,2.689,2.689,0,0,1-2.388-1.13,5.282,5.282,0,0,1-.768-3.012Zm19.643,5.977h2.03v-12.414h-2.26v8.948a3.057,3.057,0,0,1-1.188,1.383,3.726,3.726,0,0,1-1.991.488,2.175,2.175,0,0,1-1.824-.747,4.609,4.609,0,0,1-.585-2.73v-7.342H466.7v7.319a6.009,6.009,0,0,0,1.136,4.039,3.983,3.983,0,0,0,3.166,1.3,4.113,4.113,0,0,0,2.123-.539,4.213,4.213,0,0,0,1.5-1.538Zm13.09,0h2.662l-4.854-6.779,4.245-5.635h-2.707l-3.4,4.888h-1.445V-275.63H480.11v17.9h2.261v-5.748h1.468Zm5-15.408v2.994H490.9v1.674h1.972v7.539a3.612,3.612,0,0,0,.815,2.609,2.924,2.924,0,0,0,2.191.832,3.766,3.766,0,0,0,.982-.132,1.972,1.972,0,0,0,.739-.338l-.3-1.548a2.87,2.87,0,0,1-.418.115,2.4,2.4,0,0,1-.432.045,1.3,1.3,0,0,1-.957-.356,1.685,1.685,0,0,1-.362-1.227v-7.539h2.351v-1.674h-2.351v-2.994Zm15.192,15.21a5.225,5.225,0,0,0,1.754-1.1l-.883-1.47a4.605,4.605,0,0,1-1.5.9,5.69,5.69,0,0,1-2.014.329,2.89,2.89,0,0,1-2.442-1.151,4.871,4.871,0,0,1-.906-2.934l.033-.058h8.054v-1.41a6.027,6.027,0,0,0-1.285-4.039,4.7,4.7,0,0,0-3.8-1.515,4.858,4.858,0,0,0-3.733,1.762,6.363,6.363,0,0,0-1.577,4.41v.506a6.5,6.5,0,0,0,1.53,4.48,5.236,5.236,0,0,0,4.124,1.727,7.053,7.053,0,0,0,2.641-.439Zm-.873-9.775a3.445,3.445,0,0,1,.712,2.219v.3h-5.725l-.023-.056a4.518,4.518,0,0,1,.986-2.4,2.452,2.452,0,0,1,1.939-.957A2.538,2.538,0,0,1,507.186-267.706Zm7.48,7.438h-2.26v1.87l-.8,3.625h1.342l1.721-3.51Zm17.026.28a4.552,4.552,0,0,1-2.707.72,4.936,4.936,0,0,1-2.926-.838,2.807,2.807,0,0,1-1.18-2.444h-2.158l-.023.068a4.1,4.1,0,0,0,1.865,3.632,7.467,7.467,0,0,0,4.424,1.359,7.047,7.047,0,0,0,4.313-1.227,3.851,3.851,0,0,0,1.653-3.247,4.128,4.128,0,0,0-1.377-3.156,9.039,9.039,0,0,0-4.015-1.927,9.277,9.277,0,0,1-3.168-1.279,2.192,2.192,0,0,1-.974-1.818,2.485,2.485,0,0,1,.9-1.991,3.9,3.9,0,0,1,2.588-.762,3.918,3.918,0,0,1,2.781.906,3.1,3.1,0,0,1,.97,2.374h2.156l.023-.068a4.438,4.438,0,0,0-1.565-3.488,6.177,6.177,0,0,0-4.365-1.5,6.323,6.323,0,0,0-4.148,1.313,4.055,4.055,0,0,0-1.6,3.265,3.85,3.85,0,0,0,1.487,3.094,10.091,10.091,0,0,0,4.136,1.865,7.232,7.232,0,0,1,3.051,1.293,2.463,2.463,0,0,1,.861,1.911,2.276,2.276,0,0,1-1,1.95Zm13.918,2.057a5.225,5.225,0,0,0,1.754-1.1l-.883-1.47a4.606,4.606,0,0,1-1.5.9,5.688,5.688,0,0,1-2.015.329,2.89,2.89,0,0,1-2.442-1.151,4.869,4.869,0,0,1-.906-2.934l.033-.058h8.054v-1.41a6.027,6.027,0,0,0-1.285-4.039,4.7,4.7,0,0,0-3.8-1.515,4.858,4.858,0,0,0-3.733,1.762,6.364,6.364,0,0,0-1.577,4.41v.506a6.5,6.5,0,0,0,1.53,4.48,5.236,5.236,0,0,0,4.124,1.727,7.058,7.058,0,0,0,2.641-.44Zm-.873-9.775a3.445,3.445,0,0,1,.712,2.219v.3h-5.725l-.023-.056a4.52,4.52,0,0,1,.986-2.4,2.452,2.452,0,0,1,1.939-.957A2.538,2.538,0,0,1,544.738-267.706Zm11.692-2.543a2.914,2.914,0,0,0-.379-.086,2.749,2.749,0,0,0-.482-.041,3.039,3.039,0,0,0-1.783.539,4.313,4.313,0,0,0-1.3,1.5l-.218-1.812h-2.02v12.413h2.261V-266.6a2.723,2.723,0,0,1,.945-1.192,2.589,2.589,0,0,1,1.509-.426l1.159.07Zm3.28.1h-2.318l4.624,12.413h1.709l4.568-12.413h-2.306l-2.858,8.754-.218.871h-.068l-.194-.871Zm13.057,0h-2.261v12.413h2.261Zm0-5.483h-2.261v2.306h2.261Zm5.977,15.093a6.073,6.073,0,0,1-.758-3.167v-.482a6,6,0,0,1,.764-3.133,2.724,2.724,0,0,1,2.541-1.279,2.757,2.757,0,0,1,2.03.8,2.622,2.622,0,0,1,.8,1.933h2.042l.023-.07a3.991,3.991,0,0,0-1.336-3.154,5.022,5.022,0,0,0-3.562-1.285,5.016,5.016,0,0,0-4.136,1.773,6.78,6.78,0,0,0-1.441,4.422v.482a6.807,6.807,0,0,0,1.435,4.439,5.02,5.02,0,0,0,4.142,1.768,5.21,5.21,0,0,0,3.459-1.25,3.5,3.5,0,0,0,1.427-2.856l-.021-.07h-2.032a2.118,2.118,0,0,1-.854,1.705,3.051,3.051,0,0,1-1.98.694A2.725,2.725,0,0,1,578.745-260.537Zm17.761,2.606a5.225,5.225,0,0,0,1.754-1.1l-.883-1.47a4.607,4.607,0,0,1-1.5.9,5.686,5.686,0,0,1-2.013.329,2.894,2.894,0,0,1-2.444-1.151,4.869,4.869,0,0,1-.906-2.934l.033-.058H598.6v-1.41a6.036,6.036,0,0,0-1.283-4.039,4.706,4.706,0,0,0-3.8-1.515,4.86,4.86,0,0,0-3.735,1.762,6.364,6.364,0,0,0-1.577,4.41v.506a6.5,6.5,0,0,0,1.53,4.48,5.242,5.242,0,0,0,4.126,1.727A7.05,7.05,0,0,0,596.506-257.931Zm-.873-9.775a3.445,3.445,0,0,1,.712,2.219v.3H590.62l-.023-.056a4.518,4.518,0,0,1,.986-2.4,2.453,2.453,0,0,1,1.941-.957A2.537,2.537,0,0,1,595.633-267.706Zm12.042,7.949a3.2,3.2,0,0,1-1.888.488,3.474,3.474,0,0,1-1.962-.554,2.079,2.079,0,0,1-.894-1.752h-2.156l-.023.068a3.432,3.432,0,0,0,1.3,2.812,5.454,5.454,0,0,0,3.739,1.2,5.6,5.6,0,0,0,3.494-1.021,3.206,3.206,0,0,0,1.336-2.674,2.767,2.767,0,0,0-1.147-2.324,9.037,9.037,0,0,0-3.5-1.371,5.368,5.368,0,0,1-2.1-.756,1.421,1.421,0,0,1-.517-1.159,1.658,1.658,0,0,1,.585-1.274,2.611,2.611,0,0,1,1.791-.529,2.518,2.518,0,0,1,1.807.649,1.973,1.973,0,0,1,.682,1.462h2.156l.023-.068a3.294,3.294,0,0,0-1.221-2.709,5.078,5.078,0,0,0-3.448-1.112,5.078,5.078,0,0,0-3.35,1.066,3.236,3.236,0,0,0-1.285,2.576,2.7,2.7,0,0,0,1.141,2.3,9.067,9.067,0,0,0,3.4,1.334,5.325,5.325,0,0,1,2.153.838,1.54,1.54,0,0,1,.568,1.227A1.5,1.5,0,0,1,607.675-259.757Zm19.624,2.024h2.032v-12.413h-2.261v8.948a3.042,3.042,0,0,1-1.186,1.383,3.726,3.726,0,0,1-1.991.488,2.172,2.172,0,0,1-1.824-.747,4.609,4.609,0,0,1-.585-2.73v-7.342h-2.261v7.319a6.009,6.009,0,0,0,1.137,4.039,3.983,3.983,0,0,0,3.166,1.3,4.114,4.114,0,0,0,2.123-.539,4.228,4.228,0,0,0,1.5-1.538Zm5.324-12.413v12.413h2.261v-9.052a3.422,3.422,0,0,1,1.2-1.285,3.194,3.194,0,0,1,1.727-.47,2.6,2.6,0,0,1,1.979.688,3.36,3.36,0,0,1,.648,2.329v7.79H642.7v-7.836a5.156,5.156,0,0,0-1.1-3.63,4.05,4.05,0,0,0-3.109-1.176,4.138,4.138,0,0,0-2.127.544A4.522,4.522,0,0,0,634.8-268.3l-.159-1.847Zm12.839,6.677a6.834,6.834,0,0,0,1.285,4.33,4.255,4.255,0,0,0,3.556,1.647,4.5,4.5,0,0,0,2.053-.447,4.023,4.023,0,0,0,1.491-1.32l.265,1.526h1.847v-17.9H653.7v6.825a3.971,3.971,0,0,0-1.439-1.171,4.467,4.467,0,0,0-1.935-.4,4.12,4.12,0,0,0-3.584,1.836,8.275,8.275,0,0,0-1.28,4.83Zm2.26-.241a6.948,6.948,0,0,1,.774-3.488,2.585,2.585,0,0,1,2.4-1.342,2.993,2.993,0,0,1,1.67.453,3.471,3.471,0,0,1,1.13,1.221v5.795a3.418,3.418,0,0,1-1.124,1.285,3,3,0,0,1-1.7.459,2.689,2.689,0,0,1-2.388-1.13,5.282,5.282,0,0,1-.768-3.012Zm27.788-3.545h-7.653v-5.4h8.7v-1.779H665.6v16.705H676.68v-1.777h-8.824v-5.968h7.653Zm9.58-2.995a2.917,2.917,0,0,0-.379-.086,2.751,2.751,0,0,0-.482-.041,3.039,3.039,0,0,0-1.783.539,4.314,4.314,0,0,0-1.3,1.5l-.218-1.812H678.9v12.414h2.261V-266.6a2.722,2.722,0,0,1,.945-1.192,2.589,2.589,0,0,1,1.509-.426l1.159.07Zm4.313-5.38h-2.26v17.9h2.26Zm11.266,17.7a5.215,5.215,0,0,0,1.756-1.1l-.883-1.47a4.627,4.627,0,0,1-1.5.9,5.689,5.689,0,0,1-2.014.329,2.893,2.893,0,0,1-2.444-1.151,4.9,4.9,0,0,1-.906-2.934l.035-.058h8.054v-1.41a6.027,6.027,0,0,0-1.285-4.039,4.7,4.7,0,0,0-3.8-1.515,4.856,4.856,0,0,0-3.734,1.762,6.365,6.365,0,0,0-1.579,4.41v.506a6.5,6.5,0,0,0,1.532,4.48,5.235,5.235,0,0,0,4.124,1.727A7.043,7.043,0,0,0,700.669-257.931Zm-.871-9.775a3.445,3.445,0,0,1,.712,2.219v.3h-5.727l-.021-.056a4.519,4.519,0,0,1,.986-2.4,2.449,2.449,0,0,1,1.939-.957A2.538,2.538,0,0,1,699.8-267.706Zm16.108,4a8.247,8.247,0,0,0-1.285-4.83,4.125,4.125,0,0,0-3.58-1.836,4.46,4.46,0,0,0-2.024.436,3.945,3.945,0,0,0-1.453,1.262v-6.952H705.3v17.9h1.847l.276-1.641a3.949,3.949,0,0,0,1.5,1.406,4.524,4.524,0,0,0,2.133.476,4.259,4.259,0,0,0,3.551-1.647,6.813,6.813,0,0,0,1.291-4.33Zm-2.26.241a5.212,5.212,0,0,1-.782,3.006,2.684,2.684,0,0,1-2.374,1.136,2.935,2.935,0,0,1-1.783-.515,3.706,3.706,0,0,1-1.143-1.435v-5.38a3.609,3.609,0,0,1,1.143-1.371,2.951,2.951,0,0,1,1.76-.511,2.59,2.59,0,0,1,2.394,1.347,6.865,6.865,0,0,1,.786,3.482Zm5.013-6.677v12.413h2.261v-9.052a3.437,3.437,0,0,1,1.2-1.285,3.194,3.194,0,0,1,1.727-.47,2.6,2.6,0,0,1,1.979.688,3.359,3.359,0,0,1,.648,2.329v7.79h2.261v-7.836a5.156,5.156,0,0,0-1.1-3.63,4.05,4.05,0,0,0-3.109-1.176,4.138,4.138,0,0,0-2.127.544,4.523,4.523,0,0,0-1.556,1.532l-.159-1.847Zm15.8,0H732.2v12.413h2.26Zm0-5.483H732.2v2.306h2.26Zm10.01,15.873a3.2,3.2,0,0,1-1.886.488,3.47,3.47,0,0,1-1.962-.554,2.076,2.076,0,0,1-.9-1.752h-2.156l-.023.068a3.443,3.443,0,0,0,1.3,2.812,5.455,5.455,0,0,0,3.741,1.2,5.6,5.6,0,0,0,3.492-1.021,3.208,3.208,0,0,0,1.338-2.674,2.767,2.767,0,0,0-1.147-2.324,9.063,9.063,0,0,0-3.5-1.371,5.368,5.368,0,0,1-2.1-.756,1.42,1.42,0,0,1-.515-1.159,1.652,1.652,0,0,1,.585-1.274,2.6,2.6,0,0,1,1.789-.529,2.518,2.518,0,0,1,1.806.649,1.973,1.973,0,0,1,.682,1.462h2.158l.021-.068a3.289,3.289,0,0,0-1.221-2.709,5.078,5.078,0,0,0-3.448-1.112,5.082,5.082,0,0,0-3.35,1.066,3.242,3.242,0,0,0-1.285,2.576,2.706,2.706,0,0,0,1.141,2.3,9.091,9.091,0,0,0,3.4,1.334,5.313,5.313,0,0,1,2.151.838,1.535,1.535,0,0,1,.568,1.227,1.5,1.5,0,0,1-.682,1.279Zm12.287,0a3.2,3.2,0,0,1-1.886.488,3.47,3.47,0,0,1-1.962-.554,2.074,2.074,0,0,1-.894-1.752h-2.158l-.021.068a3.436,3.436,0,0,0,1.3,2.812,5.459,5.459,0,0,0,3.741,1.2,5.6,5.6,0,0,0,3.492-1.021,3.2,3.2,0,0,0,1.338-2.674,2.767,2.767,0,0,0-1.147-2.324,9.048,9.048,0,0,0-3.5-1.371,5.367,5.367,0,0,1-2.1-.756,1.42,1.42,0,0,1-.515-1.159,1.652,1.652,0,0,1,.585-1.274,2.6,2.6,0,0,1,1.789-.529,2.52,2.52,0,0,1,1.808.649,1.973,1.973,0,0,1,.682,1.462h2.156l.023-.068a3.3,3.3,0,0,0-1.223-2.709,5.071,5.071,0,0,0-3.448-1.112,5.082,5.082,0,0,0-3.35,1.066,3.24,3.24,0,0,0-1.283,2.576,2.7,2.7,0,0,0,1.141,2.3,9.068,9.068,0,0,0,3.4,1.334,5.3,5.3,0,0,1,2.151.838,1.536,1.536,0,0,1,.57,1.227,1.506,1.506,0,0,1-.684,1.279Zm13.545,1.826a5.235,5.235,0,0,0,1.756-1.1l-.885-1.47a4.6,4.6,0,0,1-1.5.9,5.686,5.686,0,0,1-2.012.329,2.893,2.893,0,0,1-2.444-1.151,4.883,4.883,0,0,1-.906-2.934l.035-.058H772.4v-1.41a6.037,6.037,0,0,0-1.285-4.039,4.706,4.706,0,0,0-3.8-1.515,4.86,4.86,0,0,0-3.735,1.762,6.364,6.364,0,0,0-1.577,4.41v.506a6.493,6.493,0,0,0,1.532,4.48,5.236,5.236,0,0,0,4.124,1.727A7.049,7.049,0,0,0,770.3-257.931Zm-.873-9.775a3.445,3.445,0,0,1,.712,2.219v.3h-5.724l-.023-.056a4.506,4.506,0,0,1,.988-2.4,2.447,2.447,0,0,1,1.939-.957,2.535,2.535,0,0,1,2.11.893Zm7.974,7.632h-2.26v2.341h2.26v-2.341" transform="translate(148.922 4114.836)" fill="#4e574e"/>
    <path id="path22" d="M250.62-276.454a7.091,7.091,0,0,0,5.268-2,7.079,7.079,0,0,0,1.983-5.2v-2.283a7.1,7.1,0,0,0-1.983-5.2,7.063,7.063,0,0,0-5.268-2.015h-5.128v16.7Zm0-14.926a4.611,4.611,0,0,1,3.656,1.525,5.682,5.682,0,0,1,1.336,3.885v2.3a5.718,5.718,0,0,1-1.336,3.91,4.617,4.617,0,0,1-3.656,1.524h-2.868V-291.38Zm12.369,2.512H260.73v12.414h2.259Zm0-5.485H260.73v2.308h2.259Zm11.266,17.7a5.217,5.217,0,0,0,1.756-1.1l-.883-1.47a4.625,4.625,0,0,1-1.5.9,5.7,5.7,0,0,1-2.015.327,2.892,2.892,0,0,1-2.444-1.149,4.883,4.883,0,0,1-.906-2.934l.035-.058h8.054v-1.41a6.026,6.026,0,0,0-1.285-4.039,4.7,4.7,0,0,0-3.8-1.515,4.855,4.855,0,0,0-3.733,1.762,6.361,6.361,0,0,0-1.579,4.41v.506a6.5,6.5,0,0,0,1.532,4.48,5.236,5.236,0,0,0,4.124,1.727,7.048,7.048,0,0,0,2.639-.44Zm-.871-9.775a3.445,3.445,0,0,1,.712,2.219v.3h-5.727l-.021-.058a4.517,4.517,0,0,1,.986-2.4,2.453,2.453,0,0,1,1.939-.955A2.539,2.539,0,0,1,273.384-286.428Zm11.772-6.732v16.7h2.259v-6.609l-.218-6.757.057-.012,5.394,13.378h1.5l5.415-13.411.056.01-.229,6.792v6.609h2.26v-16.7h-2.891l-5.322,13.572h-.07l-5.322-13.572Zm30.174,16.7a6.476,6.476,0,0,1-.253-1.215,11.45,11.45,0,0,1-.07-1.285v-5.977a3.8,3.8,0,0,0-1.283-3.092,5.127,5.127,0,0,0-3.4-1.073,5.258,5.258,0,0,0-3.482,1.124,3.012,3.012,0,0,0-1.28,2.479l.023.068h2.156a1.674,1.674,0,0,1,.684-1.336,2.71,2.71,0,0,1,1.771-.558,2.617,2.617,0,0,1,1.882.638,2.276,2.276,0,0,1,.665,1.727v1.227h-2.456a6.717,6.717,0,0,0-3.906,1.005,3.206,3.206,0,0,0-1.439,2.781,3.656,3.656,0,0,0,1.015,2.738,4.06,4.06,0,0,0,2.954.992,4.2,4.2,0,0,0,2.186-.6,5.253,5.253,0,0,0,1.647-1.5,7.607,7.607,0,0,0,.074.867c.043.286.1.616.179.992Zm-7.607-2.143a1.7,1.7,0,0,1-.517-1.3,2.052,2.052,0,0,1,.821-1.614,3.3,3.3,0,0,1,2.186-.686h2.536v2.014a3,3,0,0,1-1.285,1.441,4.026,4.026,0,0,1-2.215.63A2.169,2.169,0,0,1,307.724-278.6Zm16.75-10.374a2.851,2.851,0,0,0-.377-.086,2.765,2.765,0,0,0-.482-.041,3.049,3.049,0,0,0-1.785.539,4.309,4.309,0,0,0-1.3,1.5l-.22-1.812H318.29v12.413h2.26v-8.869a2.743,2.743,0,0,1,.947-1.194,2.6,2.6,0,0,1,1.509-.424l1.159.07Zm9.639,12.517h2.662l-4.853-6.778,4.245-5.635h-2.709l-3.4,4.886h-1.447v-10.372h-2.26v17.9h2.26V-282.2h1.47Zm5-15.408v2.995H337.14v1.674h1.974v7.539a3.612,3.612,0,0,0,.815,2.609,2.921,2.921,0,0,0,2.191.832,3.778,3.778,0,0,0,.982-.132,1.97,1.97,0,0,0,.739-.338l-.3-1.548a2.823,2.823,0,0,1-.42.115,2.359,2.359,0,0,1-.43.045,1.31,1.31,0,0,1-.959-.356,1.694,1.694,0,0,1-.36-1.227v-7.539h2.351v-1.674h-2.351v-2.995Zm9.66-2.491h-2.26v17.9h2.26v-9.166a3.7,3.7,0,0,1,1.256-1.2,3.352,3.352,0,0,1,1.705-.441,2.513,2.513,0,0,1,1.968.735,3.321,3.321,0,0,1,.659,2.271v7.8h2.259v-7.778a5.253,5.253,0,0,0-1.106-3.671,4.006,4.006,0,0,0-3.092-1.194,4.3,4.3,0,0,0-2.071.5,4.6,4.6,0,0,0-1.579,1.392Zm21.055,17.9a6.481,6.481,0,0,1-.253-1.215,11.464,11.464,0,0,1-.07-1.285v-5.977a3.793,3.793,0,0,0-1.285-3.092,5.118,5.118,0,0,0-3.4-1.073,5.258,5.258,0,0,0-3.482,1.124,3.012,3.012,0,0,0-1.279,2.479l.023.068h2.156a1.672,1.672,0,0,1,.682-1.336,2.716,2.716,0,0,1,1.773-.558,2.617,2.617,0,0,1,1.882.638,2.276,2.276,0,0,1,.665,1.727v1.227H364.79a6.713,6.713,0,0,0-3.906,1.005,3.2,3.2,0,0,0-1.439,2.781,3.656,3.656,0,0,0,1.015,2.738,4.057,4.057,0,0,0,2.954.992,4.2,4.2,0,0,0,2.186-.6,5.253,5.253,0,0,0,1.647-1.5,7.607,7.607,0,0,0,.074.867c.043.286.1.616.179.992Zm-7.607-2.143a1.7,1.7,0,0,1-.517-1.3,2.052,2.052,0,0,1,.821-1.614,3.3,3.3,0,0,1,2.186-.686h2.536v2.014a3,3,0,0,1-1.285,1.441,4.026,4.026,0,0,1-2.215.63A2.169,2.169,0,0,1,362.221-278.6Zm13.01-15.756H372.97v17.9h2.261Zm5.919,0h-2.26v17.9h2.26Zm11.266,17.7a5.217,5.217,0,0,0,1.756-1.1l-.883-1.47a4.623,4.623,0,0,1-1.5.9,5.689,5.689,0,0,1-2.015.327,2.886,2.886,0,0,1-2.442-1.149,4.884,4.884,0,0,1-.908-2.934l.035-.058h8.054v-1.41a6.027,6.027,0,0,0-1.285-4.039,4.7,4.7,0,0,0-3.8-1.515,4.858,4.858,0,0,0-3.733,1.762,6.362,6.362,0,0,0-1.579,4.41v.505a6.5,6.5,0,0,0,1.532,4.48,5.236,5.236,0,0,0,4.124,1.727,7.042,7.042,0,0,0,2.639-.44Zm-.871-9.775a3.446,3.446,0,0,1,.712,2.219v.3h-5.725l-.023-.058a4.533,4.533,0,0,1,.986-2.4,2.453,2.453,0,0,1,1.939-.955A2.539,2.539,0,0,1,391.546-286.428Zm14.549,9.973v-10.739h2.58v-1.674h-2.58v-1.571a2.665,2.665,0,0,1,.48-1.717,1.79,1.79,0,0,1,1.47-.589,5.158,5.158,0,0,1,.613.033,4.985,4.985,0,0,1,.5.082l.276-1.723c-.323-.076-.615-.134-.879-.177a4.879,4.879,0,0,0-.786-.062,3.82,3.82,0,0,0-2.9,1.083,4.263,4.263,0,0,0-1.038,3.07v1.571h-1.939v1.674h1.939v10.739Zm12.94,0h2.032v-12.413h-2.261v8.948a3.042,3.042,0,0,1-1.186,1.383,3.726,3.726,0,0,1-1.991.488,2.172,2.172,0,0,1-1.824-.747,4.609,4.609,0,0,1-.585-2.73v-7.342h-2.262v7.319a6.009,6.009,0,0,0,1.138,4.039,3.983,3.983,0,0,0,3.166,1.3,4.115,4.115,0,0,0,2.123-.539,4.229,4.229,0,0,0,1.5-1.538Zm.941-16.773h-2.512v2.294h2.512Zm-5.392,0h-2.512v2.294h2.512Zm15.958,4.256a2.857,2.857,0,0,0-.377-.086,2.766,2.766,0,0,0-.482-.041,3.048,3.048,0,0,0-1.785.539,4.327,4.327,0,0,0-1.3,1.5l-.218-1.812h-2.02v12.413h2.261v-8.869a2.738,2.738,0,0,1,.945-1.194,2.6,2.6,0,0,1,1.509-.424l1.159.07Zm15.5,12.318a5.236,5.236,0,0,0,1.756-1.1l-.885-1.47a4.6,4.6,0,0,1-1.5.9,5.685,5.685,0,0,1-2.013.327,2.892,2.892,0,0,1-2.444-1.149,4.883,4.883,0,0,1-.906-2.934l.035-.058h8.054v-1.41a6.037,6.037,0,0,0-1.285-4.039,4.706,4.706,0,0,0-3.8-1.515,4.859,4.859,0,0,0-3.735,1.762,6.36,6.36,0,0,0-1.577,4.41v.505a6.492,6.492,0,0,0,1.532,4.48,5.236,5.236,0,0,0,4.124,1.727,7.048,7.048,0,0,0,2.639-.44Zm-.873-9.775a3.445,3.445,0,0,1,.712,2.219v.3h-5.724l-.023-.058a4.517,4.517,0,0,1,.988-2.4,2.45,2.45,0,0,1,1.938-.955A2.535,2.535,0,0,1,445.171-286.428Zm7.951-2.44h-2.259v12.413h2.259Zm0-5.485h-2.259v2.308h2.259Zm3.477,5.485v12.413h2.261v-9.051a3.408,3.408,0,0,1,1.2-1.285,3.194,3.194,0,0,1,1.727-.471,2.6,2.6,0,0,1,1.98.688,3.361,3.361,0,0,1,.648,2.33v7.79h2.261v-7.836a5.156,5.156,0,0,0-1.1-3.63,4.05,4.05,0,0,0-3.109-1.176,4.138,4.138,0,0,0-2.127.544,4.523,4.523,0,0,0-1.556,1.532l-.159-1.847Zm21.146,12.215a5.227,5.227,0,0,0,1.754-1.1l-.883-1.47a4.6,4.6,0,0,1-1.5.9,5.686,5.686,0,0,1-2.013.327,2.892,2.892,0,0,1-2.444-1.149,4.871,4.871,0,0,1-.906-2.934l.033-.058h8.054v-1.41a6.036,6.036,0,0,0-1.283-4.039,4.706,4.706,0,0,0-3.8-1.515,4.86,4.86,0,0,0-3.735,1.762,6.36,6.36,0,0,0-1.577,4.41v.505a6.5,6.5,0,0,0,1.53,4.48,5.24,5.24,0,0,0,4.126,1.727,7.048,7.048,0,0,0,2.639-.44Zm-.873-9.775a3.446,3.446,0,0,1,.712,2.219v.3h-5.725l-.023-.058a4.531,4.531,0,0,1,.986-2.4,2.456,2.456,0,0,1,1.94-.955A2.538,2.538,0,0,1,476.871-286.428Zm21.306,9.973a6.661,6.661,0,0,1-.253-1.215,11.988,11.988,0,0,1-.068-1.285v-5.977a3.793,3.793,0,0,0-1.285-3.092,5.122,5.122,0,0,0-3.4-1.073,5.258,5.258,0,0,0-3.482,1.124,3.007,3.007,0,0,0-1.279,2.479l.023.068h2.156a1.672,1.672,0,0,1,.682-1.336,2.715,2.715,0,0,1,1.773-.558,2.613,2.613,0,0,1,1.88.638,2.271,2.271,0,0,1,.667,1.727v1.227h-2.456a6.713,6.713,0,0,0-3.906,1.005,3.2,3.2,0,0,0-1.441,2.781,3.649,3.649,0,0,0,1.017,2.738,4.057,4.057,0,0,0,2.954.992,4.2,4.2,0,0,0,2.185-.6,5.274,5.274,0,0,0,1.647-1.5,7.2,7.2,0,0,0,.074.867c.043.286.1.616.177.992ZM490.57-278.6a1.7,1.7,0,0,1-.515-1.3,2.046,2.046,0,0,1,.821-1.614,3.3,3.3,0,0,1,2.185-.686H495.6v2.014a3.01,3.01,0,0,1-1.285,1.441,4.031,4.031,0,0,1-2.215.63A2.174,2.174,0,0,1,490.57-278.6Zm18.6,2.143h2.03v-12.413h-2.26v8.948a3.046,3.046,0,0,1-1.188,1.383,3.721,3.721,0,0,1-1.991.488,2.176,2.176,0,0,1-1.824-.747,4.623,4.623,0,0,1-.585-2.73v-7.342h-2.259v7.319a6.019,6.019,0,0,0,1.136,4.039,3.987,3.987,0,0,0,3.167,1.3,4.107,4.107,0,0,0,2.121-.539,4.214,4.214,0,0,0,1.5-1.538Zm11.857-2.024a3.2,3.2,0,0,1-1.888.486,3.473,3.473,0,0,1-1.962-.552,2.08,2.08,0,0,1-.894-1.754h-2.156l-.023.07a3.44,3.44,0,0,0,1.3,2.812,5.453,5.453,0,0,0,3.739,1.2,5.6,5.6,0,0,0,3.494-1.021,3.207,3.207,0,0,0,1.336-2.674,2.761,2.761,0,0,0-1.147-2.324,9.032,9.032,0,0,0-3.5-1.371,5.373,5.373,0,0,1-2.1-.756,1.422,1.422,0,0,1-.517-1.159,1.658,1.658,0,0,1,.585-1.274,2.609,2.609,0,0,1,1.791-.529,2.519,2.519,0,0,1,1.806.649,1.973,1.973,0,0,1,.683,1.462h2.156l.023-.068a3.294,3.294,0,0,0-1.221-2.709,5.078,5.078,0,0,0-3.448-1.112,5.077,5.077,0,0,0-3.35,1.066,3.236,3.236,0,0,0-1.285,2.576,2.7,2.7,0,0,0,1.141,2.3,9.045,9.045,0,0,0,3.4,1.336,5.36,5.36,0,0,1,2.151.836,1.541,1.541,0,0,1,.568,1.229,1.5,1.5,0,0,1-.682,1.279Zm5.26-3.712a6.752,6.752,0,0,0,1.309,4.325,4.327,4.327,0,0,0,3.591,1.653,4.563,4.563,0,0,0,1.95-.4,3.933,3.933,0,0,0,1.457-1.174v1.4a3.12,3.12,0,0,1-.751,2.289,3.3,3.3,0,0,1-2.405.751,7.05,7.05,0,0,1-1.7-.212,5.8,5.8,0,0,1-1.468-.556l-.574,1.756a7.622,7.622,0,0,0,1.83.671,8.449,8.449,0,0,0,1.933.247,5.712,5.712,0,0,0,4.006-1.279,4.742,4.742,0,0,0,1.386-3.665v-12.484h-1.8l-.274,1.618a4.088,4.088,0,0,0-1.493-1.371,4.353,4.353,0,0,0-2.077-.476,4.2,4.2,0,0,0-3.613,1.836,8.137,8.137,0,0,0-1.309,4.83Zm2.261-.241a6.726,6.726,0,0,1,.8-3.477,2.632,2.632,0,0,1,2.421-1.353,2.984,2.984,0,0,1,1.686.465,3.5,3.5,0,0,1,1.136,1.256v5.713a3.5,3.5,0,0,1-1.136,1.314,2.992,2.992,0,0,1-1.709.465,2.738,2.738,0,0,1-2.409-1.135,5.154,5.154,0,0,1-.791-3.006Zm19.377,5.779a5.215,5.215,0,0,0,1.756-1.1l-.883-1.47a4.621,4.621,0,0,1-1.5.9,5.689,5.689,0,0,1-2.015.327,2.892,2.892,0,0,1-2.444-1.149,4.882,4.882,0,0,1-.906-2.934l.035-.058h8.054v-1.41a6.027,6.027,0,0,0-1.285-4.039,4.7,4.7,0,0,0-3.8-1.515,4.855,4.855,0,0,0-3.733,1.762,6.361,6.361,0,0,0-1.579,4.41v.505a6.5,6.5,0,0,0,1.532,4.48,5.236,5.236,0,0,0,4.124,1.727,7.043,7.043,0,0,0,2.639-.44Zm-.871-9.775a3.445,3.445,0,0,1,.712,2.219v.3h-5.726l-.022-.058a4.533,4.533,0,0,1,.986-2.4,2.453,2.453,0,0,1,1.939-.955A2.539,2.539,0,0,1,547.053-286.428Zm6.631-2.44h-2.248l3.6,12.413h1.824l2.362-7.56.494-2.1.068-.012.517,2.112,2.4,7.56h1.824l3.6-12.413h-2.25l-1.95,7.893L563.6-279.3h-.068l-.356-1.676-2.489-7.893H558.87l-2.477,7.893-.321,1.5H556l-.263-1.5ZM580.3-276.455a6.656,6.656,0,0,1-.253-1.215,11.987,11.987,0,0,1-.068-1.285v-5.977a3.793,3.793,0,0,0-1.285-3.092,5.122,5.122,0,0,0-3.4-1.073,5.258,5.258,0,0,0-3.483,1.124,3.007,3.007,0,0,0-1.279,2.479l.023.068h2.156a1.672,1.672,0,0,1,.683-1.336,2.715,2.715,0,0,1,1.773-.558,2.612,2.612,0,0,1,1.88.638,2.27,2.27,0,0,1,.667,1.727v1.227h-2.456a6.713,6.713,0,0,0-3.907,1.005,3.2,3.2,0,0,0-1.441,2.781,3.65,3.65,0,0,0,1.017,2.738,4.057,4.057,0,0,0,2.954.992,4.2,4.2,0,0,0,2.185-.6,5.271,5.271,0,0,0,1.647-1.5,7.175,7.175,0,0,0,.074.867c.043.286.1.616.179.992ZM572.7-278.6a1.7,1.7,0,0,1-.515-1.3,2.047,2.047,0,0,1,.821-1.614,3.3,3.3,0,0,1,2.186-.686h2.536v2.014a3.009,3.009,0,0,1-1.285,1.441,4.031,4.031,0,0,1-2.215.63A2.174,2.174,0,0,1,572.7-278.6Zm6.333-14.871h-2.512v2.295h2.512Zm-5.392,0h-2.512v2.295h2.512Zm11.887-.885h-2.259v17.9h2.259v-9.166a3.684,3.684,0,0,1,1.256-1.2,3.349,3.349,0,0,1,1.7-.441,2.507,2.507,0,0,1,1.968.735,3.321,3.321,0,0,1,.659,2.271v7.8h2.261v-7.778a5.244,5.244,0,0,0-1.108-3.671,4,4,0,0,0-3.092-1.194,4.314,4.314,0,0,0-2.071.5,4.592,4.592,0,0,0-1.577,1.392Zm13.537,0H596.8v17.9h2.259Zm4.2,2.491v2.995h-1.974v1.674h1.974v7.539a3.612,3.612,0,0,0,.815,2.609,2.921,2.921,0,0,0,2.191.832,3.752,3.752,0,0,0,.98-.132,2,2,0,0,0,.741-.338l-.3-1.548a2.824,2.824,0,0,1-.42.115,2.377,2.377,0,0,1-.43.045,1.306,1.306,0,0,1-.959-.356,1.684,1.684,0,0,1-.362-1.227v-7.539h2.353v-1.674H605.52v-2.995Zm15.19,15.21a5.215,5.215,0,0,0,1.756-1.1l-.883-1.47a4.643,4.643,0,0,1-1.5.9,5.7,5.7,0,0,1-2.014.327,2.892,2.892,0,0,1-2.444-1.149,4.883,4.883,0,0,1-.906-2.934l.035-.058h8.054v-1.41a6.027,6.027,0,0,0-1.285-4.039,4.707,4.707,0,0,0-3.8-1.515,4.859,4.859,0,0,0-3.735,1.762,6.36,6.36,0,0,0-1.577,4.41v.505a6.5,6.5,0,0,0,1.532,4.48,5.236,5.236,0,0,0,4.124,1.727,7.049,7.049,0,0,0,2.639-.44Zm-.871-9.775a3.445,3.445,0,0,1,.71,2.219v.3h-5.724l-.023-.058a4.518,4.518,0,0,1,.988-2.4,2.453,2.453,0,0,1,1.939-.955A2.539,2.539,0,0,1,617.579-286.428Zm12.414-6.732h-2.456l6.207,16.7h1.939l6.209-16.7h-2.444l-4.315,12.552-.377,1.32h-.07l-.379-1.32Zm16.234,4.292h-2.26v12.413h2.26Zm0-5.485h-2.26v2.308h2.26Zm11.266,17.7a5.215,5.215,0,0,0,1.756-1.1l-.883-1.47a4.621,4.621,0,0,1-1.5.9,5.7,5.7,0,0,1-2.015.327,2.892,2.892,0,0,1-2.444-1.149,4.883,4.883,0,0,1-.906-2.934l.035-.058h8.054v-1.41a6.027,6.027,0,0,0-1.285-4.039,4.7,4.7,0,0,0-3.8-1.515,4.859,4.859,0,0,0-3.735,1.762,6.369,6.369,0,0,0-1.577,4.41v.505a6.5,6.5,0,0,0,1.532,4.48,5.236,5.236,0,0,0,4.124,1.727,7.05,7.05,0,0,0,2.639-.44Zm-.871-9.775a3.445,3.445,0,0,1,.712,2.219v.3h-5.726l-.023-.058a4.535,4.535,0,0,1,.988-2.4,2.453,2.453,0,0,1,1.939-.955A2.539,2.539,0,0,1,656.622-286.428Zm7.951-7.926h-2.261v17.9h2.261Zm6.677,17.9v-10.739h2.58v-1.674h-2.58v-1.571a2.653,2.653,0,0,1,.482-1.717,1.783,1.783,0,0,1,1.468-.589,5.158,5.158,0,0,1,.613.033,4.982,4.982,0,0,1,.5.082l.276-1.723c-.321-.076-.614-.134-.879-.177a4.879,4.879,0,0,0-.786-.062,3.82,3.82,0,0,0-2.9,1.083,4.263,4.263,0,0,0-1.038,3.07v1.571h-1.939v1.674h1.939v10.739Zm14.869,0a6.5,6.5,0,0,1-.253-1.215,11.465,11.465,0,0,1-.07-1.285v-5.977a3.8,3.8,0,0,0-1.283-3.092,5.127,5.127,0,0,0-3.4-1.073,5.259,5.259,0,0,0-3.483,1.124,3.013,3.013,0,0,0-1.279,2.479l.023.068h2.156a1.668,1.668,0,0,1,.684-1.336,2.71,2.71,0,0,1,1.771-.558,2.617,2.617,0,0,1,1.882.638,2.276,2.276,0,0,1,.665,1.727v1.227h-2.456a6.717,6.717,0,0,0-3.906,1.005,3.207,3.207,0,0,0-1.439,2.781,3.657,3.657,0,0,0,1.015,2.738,4.061,4.061,0,0,0,2.954.992,4.2,4.2,0,0,0,2.186-.6,5.254,5.254,0,0,0,1.647-1.5,7.607,7.607,0,0,0,.074.867q.064.429.179.992Zm-7.607-2.143a1.7,1.7,0,0,1-.517-1.3,2.052,2.052,0,0,1,.82-1.614A3.3,3.3,0,0,1,681-282.2h2.536v2.014a3,3,0,0,1-1.285,1.441,4.026,4.026,0,0,1-2.215.63A2.168,2.168,0,0,1,678.513-278.6Zm13.01-15.756h-2.261v17.9h2.261Zm4.2,2.491v2.995h-1.974v1.674h1.974v7.539a3.612,3.612,0,0,0,.815,2.609,2.921,2.921,0,0,0,2.192.832,3.776,3.776,0,0,0,.982-.132,1.97,1.97,0,0,0,.739-.338l-.3-1.548a2.825,2.825,0,0,1-.42.115,2.363,2.363,0,0,1-.43.045,1.3,1.3,0,0,1-.957-.356,1.685,1.685,0,0,1-.362-1.227v-7.539h2.351v-1.674h-2.351v-2.995h-2.261" transform="translate(167.821 4106.145)" fill="#4e574e"/>
    <path id="path26" d="M341.118-326.862c0-.272.194-.467.894-.817.933-.506,1.478-1.05,1.478-1.439a1.7,1.7,0,0,0-.544-.739c-.506-.467-.622-.506-1.128-.428a13.023,13.023,0,0,0-1.867.778,43.966,43.966,0,0,0-13.417,11.861,4.885,4.885,0,0,1-1.128,1.322,11.808,11.808,0,0,1-.583-2.761,16.243,16.243,0,0,1,.233-5.328c.233-1.361.428-2.878.467-3.422l.078-1.011-.622-.622a2.272,2.272,0,0,1-.583-.817c0-.272-.661-.428-1.05-.195a2.236,2.236,0,0,0-.7,1.011,10.582,10.582,0,0,1-.778,1.361,76.338,76.338,0,0,0-5.522,9.761c-2.644,5.6-4.472,10.85-4.861,14.078a5.215,5.215,0,0,0,.156,2.606c.35,1.4.583,1.828,1.245,2.061a1.8,1.8,0,0,1,.661.467.7.7,0,0,0,.389.233.616.616,0,0,0,.467-.7.976.976,0,0,1,.117-.622,13.415,13.415,0,0,0,.583-1.983,98.072,98.072,0,0,1,6.028-16.489l.622-1.361.35,1.05a11.037,11.037,0,0,0,1.828,3.539l.622.661-.661,1.167c-.972,1.75-1.244,2.917-.778,3.578.35.428,1.245.856,1.517.661a7.818,7.818,0,0,0,1.206-1.75,58.961,58.961,0,0,1,5.172-7.233c1.517-1.828,3.267-3.617,3.111-3.228-.039.156-.506,1.206-1.05,2.372-2.994,6.728-4.472,12.911-3.967,16.372a4.574,4.574,0,0,0,1.089,2.683,5.4,5.4,0,0,0,2.022,1.128c.389,0,.428-.233.078-.428-.194-.117-.233-.467-.233-2.022-.039-5.017,1.75-10.228,7.195-21.273A32.848,32.848,0,0,0,341.118-326.862Zm-23.645,9.411c.117-.195.233-.311.233-.233a1.852,1.852,0,0,1-.233.544c-.117.194-.194.311-.194.194A1.412,1.412,0,0,1,317.473-317.45Zm-.661,1.478c.078-.117.156-.156.156-.078a1.009,1.009,0,0,1-.156.389c-.078.117-.117.156-.117.078A.869.869,0,0,1,316.812-315.973Zm-.428,1.05c.078-.117.117-.156.117-.078a1.03,1.03,0,0,1-.117.389c-.078.117-.156.155-.156.039A.881.881,0,0,1,316.384-314.923Zm-1.05,2.528c.078-.117.156-.156.156-.078a.879.879,0,0,1-.156.35c-.078.117-.155.156-.155.078A.88.88,0,0,1,315.334-312.395Zm-.35,1.05a8.954,8.954,0,0,1-.544,1.75,11.177,11.177,0,0,1-.583,1.556A27.29,27.29,0,0,1,314.984-311.345ZM313.7-307.3a8.2,8.2,0,0,1-.272,1.05c-.156.467-.311.739-.311.583C313.156-305.978,313.662-307.534,313.7-307.3Zm-.622,2.139a.536.536,0,0,1,0,.35c-.039.117-.078.039-.078-.194C313-305.2,313.039-305.278,313.078-305.161Zm-.311,1.983c-.039.117-.078,0-.078-.272,0-.233.039-.311.078-.156A.8.8,0,0,1,312.767-303.178Zm.156-.895c-.039.117-.078.039-.078-.194,0-.194.039-.272.078-.156A.538.538,0,0,1,312.923-304.073Zm.505-.039c-.156.856-.311,1.75-.35,2.022-.078.389-.078.389-.078-.078-.078-1.906,1.517-7.311,3.694-12.445a101.946,101.946,0,0,1,4.589-9.372,24.5,24.5,0,0,1-1.322,2.878C316.7-314.689,314.284-308.35,313.428-304.111Zm.233,1.517c-.039.117-.078.039-.078-.194,0-.194.039-.272.078-.156A.54.54,0,0,1,313.662-302.595Zm6.611-17.889a92.018,92.018,0,0,0-5.133,12.289c-.311.895-.739,2.372-.972,3.267-.467,1.711-.622,1.867-.233.233a76.313,76.313,0,0,1,4.433-12.172,46.576,46.576,0,0,1,2.994-6.028,21.7,21.7,0,0,1-1.089,2.411Zm3.733,9.8c-.039.078-.078-.039-.078-.194.039-.156.078-.194.117-.078S324.084-310.723,324.006-310.684Zm.467-.233c-.117.272-.233.428-.233.272,0-.195.428-1.05.428-.856A3.084,3.084,0,0,1,324.473-310.917Zm7.856-3.033c.039-.117.117-.194.155-.156.078.039,0,.156-.078.272C332.251-313.717,332.251-313.717,332.329-313.95Zm-.078.428c.078-.039.078,0,.039.156-.078.233-.194.311-.194.078A.242.242,0,0,1,332.251-313.523Zm-1.322,4.006c0-.194.039-.233.078-.117a.426.426,0,0,1,0,.311C330.929-309.284,330.89-309.361,330.929-309.517Zm-.156.583c0-.156.039-.195.078-.078a.329.329,0,0,1,0,.272C330.812-308.7,330.773-308.778,330.773-308.934Zm-.155.583c0-.156.039-.195.078-.078a.319.319,0,0,1,0,.272C330.656-308.117,330.617-308.195,330.617-308.35Zm-.156.739c0-.156.039-.195.078-.078a.226.226,0,0,1,0,.272C330.5-307.339,330.462-307.456,330.462-307.611Zm-.078.933c-.039.078-.078-.039-.078-.194.039-.156.039-.194.117-.078.039.117.039.233-.039.272Zm.311.856-.233,1.361.078-1.128c.195-3.15,2.411-9.567,5.133-15.011a30.73,30.73,0,0,1,2.606-4.55c.039,0-.039.156-.156.35-.545.856-2.256,4.122-3.15,5.989a60.9,60.9,0,0,0-3.694,10.189c-.194.817-.467,2.061-.583,2.8Zm.739-1.594c-.039.078-.078-.039-.078-.194s.039-.195.078-.078A.319.319,0,0,1,331.434-307.417Zm.156-.583c-.039.039-.078-.039-.078-.195s.039-.194.078-.078A.329.329,0,0,1,331.59-308Zm7.467-17.384c-1.4,2.489-1.983,3.539-3.111,5.911a64.2,64.2,0,0,0-3.539,8.711c-.661,2.139-.739,2.333-.739,2.061a38.082,38.082,0,0,1,2.022-6.067c1.517-3.889,4.706-10.228,5.483-10.967.117-.156.078.039-.117.35Zm12.522,7.972c-.156,0-.389-.195-.583-.428-.545-.739-1.439-.466-2.139.661-.233.35-.506.661-.583.661a2.947,2.947,0,0,1-1.206-.856c-1.128-1.128-3.033-.933-4.939.506a17.57,17.57,0,0,0-4.317,6.534c-.933,2.722-1.167,5.639-.583,7.195a3.511,3.511,0,0,0,1.789,1.983,3.385,3.385,0,0,1,.739.389,2.053,2.053,0,0,0,2.061-.039,11.42,11.42,0,0,0,3.15-3.695l.817-1.322.078,1.867c.078,1.05.194,2.139.272,2.489a5.165,5.165,0,0,0,2.061,2.217c.311.117.622.272.661.389.117.156.506.194.583.039a6.834,6.834,0,0,0-.156-1.4,18.314,18.314,0,0,1-.233-3.228c0-2.878.428-4.667,2.761-11.2a10.176,10.176,0,0,0,.544-1.789C352.357-316.828,351.89-317.411,351.579-317.411ZM338.24-305.278c-.039.156-.078.039-.078-.272,0-.272.039-.389.078-.233A1.106,1.106,0,0,1,338.24-305.278Zm.078-1.244a1.561,1.561,0,0,1,.117-.583c.078-.194.117-.194.117-.078s-.078.389-.117.622C338.318-306.289,338.318-306.25,338.318-306.522Zm.35,1.478c-.156.855-.233,1.128-.233.778a18.423,18.423,0,0,1,1.75-6.611c.7-1.322.7-1.089.039.35a16.71,16.71,0,0,0-.972,2.683A25.683,25.683,0,0,0,338.668-305.045Zm.739-1.011c-.428,1.672-.505,1.556-.156-.194a19.6,19.6,0,0,1,1.517-4.395,16.756,16.756,0,0,1,1.983-3.15,5.975,5.975,0,0,1-.661,1.167,13.985,13.985,0,0,0-1.867,3.733A21.8,21.8,0,0,0,339.406-306.056Zm7.389-5.561c-.35,1.283-3.228,5.95-4.861,7.894a11.374,11.374,0,0,1-1.206,1.206l-.389.233v-.583a23.5,23.5,0,0,1,2.489-7.506c1.322-2.411,3.461-4.667,4.472-4.667.467,0,.467.35.078,1.517C347.184-312.939,346.951-312.045,346.8-311.617Zm.467,3.656a.664.664,0,0,1,0,.389c-.039.078-.078,0-.078-.194S347.223-308.039,347.262-307.961Zm0,4.161c0,.233-.039.039-.039-.428,0-.428.039-.622.039-.389A2.878,2.878,0,0,1,347.262-303.8Zm.583-4.472c-.117.661-.311,1.633-.389,2.217l-.117,1.05.078-1.283a10.924,10.924,0,0,1,.583-3.189,5.366,5.366,0,0,1-.156,1.206Zm.311.778c-.039.039-.078-.039-.078-.195,0-.194.039-.233.078-.117A.426.426,0,0,1,348.156-307.495Zm.272-1.361c-.039.078-.078-.039-.078-.194.039-.155.078-.194.117-.078S348.507-308.895,348.429-308.856Zm.156-.661c-.039.117-.039.039-.039-.194,0-.194,0-.272.039-.156A.292.292,0,0,1,348.584-309.517Zm.078-.778a.955.955,0,0,1,.156-.428c.078-.117.117-.156.117-.078,0,.272-.272.739-.272.506Zm1.828-6.145c-.117.233-.194.311-.194.078a.336.336,0,0,1,.117-.233C350.529-316.634,350.529-316.595,350.49-316.439Zm.622-.078c-.272.506-.428.622-.272.195.117-.35.467-.894.467-.739A1.831,1.831,0,0,1,351.112-316.517Zm13.183-1.361c-.933-.467-1.206-.544-1.672-.467a6.153,6.153,0,0,0-2.839,1.633c-.506.428-.778.622-.7.466.039-.194.233-.778.389-1.361.311-.972.311-1.089.078-1.322a.787.787,0,0,0-.428-.233.873.873,0,0,1-.544-.35c-.389-.505-.622-.467-1.244.194-2.294,2.567-5.172,11.667-5.406,17.15l-.078,2.217.467.35c.544.389.544.389.817.078.156-.117.233-.156.233-.078,0,.311.311.156.311-.156.039-.311.039-.311.078-.039.039.156.117.428.156.622.078.389.505.428.856.117a2.427,2.427,0,0,0,.311-1.089,22.416,22.416,0,0,1,2.061-7.506c1.906-4.395,3.928-7.233,5.872-8.361,1.05-.622,1.361-.583,1.867.039.194.311.467.544.583.544s.233.039.233.156c0,.311.467.039.583-.311.194-.817-.35-1.439-1.983-2.294Zm-6.456.078c.078-.194.194-.311.233-.311s0,.117-.117.311c-.078.156-.194.272-.233.272S357.723-317.645,357.84-317.8Zm-.311.661c.078-.078.117,0,.039.117-.078.272-.195.311-.195.117a.32.32,0,0,1,.156-.233Zm-2.45,7.039a18.537,18.537,0,0,1-.583,1.906c-.156.117.039-.544.817-3.189a25.261,25.261,0,0,1,1.867-4.9,5.174,5.174,0,0,1-.389,1.089A47.878,47.878,0,0,0,355.079-310.1Zm3.617-8.245c-.117.233-.739,1.595-1.283,2.839-.272.583-.7,1.789-1.011,2.683-.506,1.594-.778,2.178-.583,1.322a41.177,41.177,0,0,1,2.761-6.844q.175-.117.117,0Zm24.034-2.722c-.156,0-.661-.622-.661-.817-.039-.272-.583-.389-.933-.156a20.6,20.6,0,0,0-1.983,2.411c-3.111,4.122-5.833,7-8.128,8.478-.428.272-.778.428-.817.35a38.092,38.092,0,0,1,1.439-5.367c1.711-5.211,2.1-6.417,3.111-8.945,1.633-4.2,1.789-4.939,1.206-5.445-.194-.156-.389-.233-.467-.195s-.117,0-.117-.078c0-.117-.039-.156-.078-.117-.078.078-.233-.039-.35-.194-.583-.7-1.322-.039-2.722,2.489a38.142,38.142,0,0,0-2.839,6.572,59.23,59.23,0,0,0-3.189,10.733c-.817,4.083-.467,9.333.739,11.2a2.6,2.6,0,0,0,2.139,1.283c.778.078.856.078.778-.194-.583-1.867-1.05-5.094-.778-5.094a15.757,15.757,0,0,1,1.828,1.672c.972.895,2.256,2.061,2.839,2.528a19.667,19.667,0,0,0,4.433,2.411,3.379,3.379,0,0,0,2.178,0,3.128,3.128,0,0,0,1.089-1.245c0-.117-.233-.194-.506-.194-1.05,0-3.811-1.672-6.028-3.733a41.207,41.207,0,0,1-4.433-4.706,3.537,3.537,0,0,1,.856-.35,20.166,20.166,0,0,0,4.511-2.683c2.917-2.411,6.572-7,7.156-9.022.194-.622.194-.817.039-1.167C382.963-320.873,382.807-321.067,382.729-321.067Zm-14.311,7.778c0-.155.039-.194.078-.078a.226.226,0,0,1,0,.272C368.457-313.017,368.418-313.134,368.418-313.289Zm-.972,11.006a10.364,10.364,0,0,1-.194-2.683c0-1.011.039-.933.156.739A18.6,18.6,0,0,1,367.446-302.284Zm.156.7c-.039.078-.039,0-.039-.194s0-.272.039-.194A.353.353,0,0,1,367.6-301.583Zm.078-8.284c0-.195.039-.195.078-.078a.329.329,0,0,1,0,.272C367.718-309.634,367.679-309.711,367.679-309.867Zm.233,7.739a8.148,8.148,0,0,1-.233-2.528c.039-1.089.039-1.011.156.661C367.912-302.983,367.912-302.128,367.912-302.128Zm0-8.206c-.039.078-.078,0-.078-.194s.039-.272.078-.194A.664.664,0,0,1,367.912-310.334Zm.156-.817c-.078.039-.078-.039-.078-.195,0-.194.039-.233.078-.117A.416.416,0,0,1,368.068-311.15Zm.428.661a2.679,2.679,0,0,1-.272.933,5.6,5.6,0,0,1,.311-1.789C368.729-312.2,368.729-311.5,368.5-310.489Zm.35-1.75c-.156.389-.156,0,0-.505.117-.311.117-.311.117-.078A1.559,1.559,0,0,1,368.846-312.239Zm9.411,13.573a1.009,1.009,0,0,1,.389.156c.117.078.156.117.078.117a.868.868,0,0,1-.389-.117C378.218-298.589,378.179-298.667,378.257-298.667Zm-3.383-31.578a4.3,4.3,0,0,1-.467,1.05c-.272.545-.817,1.711-1.206,2.528-.35.856-1.05,2.567-1.556,3.85a16.333,16.333,0,0,1-.856,2.1c-.039-.7,3.733-9.528,4.083-9.528Zm-5.717,14.311c0-.194.039-.233.078-.117a.3.3,0,0,1,0,.311C369.2-315.7,369.157-315.778,369.157-315.934ZM369-313.367c0-.544,2.411-7.933,3.578-10.85.739-1.828,2.489-5.756,2.683-5.95.156-.156-.117.467-.778,1.983a96.382,96.382,0,0,0-3.967,10.228c-.272.855-.739,2.294-1.011,3.189A6.143,6.143,0,0,1,369-313.367Zm3.111,10.306c-.194-.233-.194-.272.039-.078.156.117.272.233.272.272C372.424-302.75,372.307-302.828,372.112-303.061Zm1.283,1.167c-.428-.35-.545-.544-.311-.35.233.156.583.467.817.661.544.583.311.467-.506-.311Zm2.333,1.906a7.057,7.057,0,0,1-1.167-.933l-.311-.35.389.311a10.747,10.747,0,0,0,1.206.894,5.893,5.893,0,0,1,.855.622C376.7-299.367,376.663-299.406,375.729-299.989Zm2.333,1.244c0,.117,0,.117-.661-.233a2.537,2.537,0,0,1-.544-.35c0-.039.272.039.583.233A2.092,2.092,0,0,1,378.063-298.744Zm-.233-.506c.233.233,0,.156-.622-.233a4.4,4.4,0,0,1-.661-.467,6.353,6.353,0,0,1,1.283.7Zm-2.606-1.711c.544.389,1.05.778,1.128.817.078.078.078.155.039.155-.506,0-6.339-5.522-6.806-6.378-.078-.233.117-.039.467.35A56.7,56.7,0,0,0,375.224-300.961Zm5.95-19.445c.078-.039.039.078-.078.311a1.9,1.9,0,0,1-.35.389C380.668-319.706,381.018-320.289,381.174-320.406Zm-.933,1.4c.233-.156.233-.156.039.078s-.311.311-.311.194C379.968-318.773,380.085-318.889,380.24-319.006Zm-.467.622c.233-.194.272-.194.078.039s-.311.311-.311.195c0-.039.117-.156.233-.233Zm-3.578,4.9a1.719,1.719,0,0,1,.35-.311c.039,0-.039.156-.194.311a1.164,1.164,0,0,1-.35.272C375.963-313.211,376.04-313.328,376.2-313.484Zm4.239-4.161a33.612,33.612,0,0,1-3.111,3.772c-.583.583-1.322,1.322-1.672,1.633-.35.35.078-.156.972-1.089s2.1-2.333,2.722-3.111C380.668-318.151,381.057-318.539,380.435-317.645Zm1.05-1.556a5.065,5.065,0,0,1-.389.583l-.233.311.117-.311a5.075,5.075,0,0,1,.389-.583l.233-.311Zm.389-1.439a44.166,44.166,0,0,1-4.356,5.872c-.35.35-.739.7-.817.778-.117.078.272-.428.855-1.05a44.038,44.038,0,0,0,3.656-4.861C382.068-321.184,382.535-321.728,381.874-320.639Zm6.767,4.161a10.357,10.357,0,0,0-5.017,3.772c-2.761,3.422-3.811,8.011-2.528,10.695a7,7,0,0,0,2.839,2.644,3.008,3.008,0,0,0,2.256.622,4.262,4.262,0,0,0,1.633-.35c2.178-1.05,5.794-6.339,4.628-6.767-.156-.078-.467.233-.894.894a25.006,25.006,0,0,1-1.75,2.1,7.831,7.831,0,0,1-4.433,2.372l-.895.039-.311-.7a4,4,0,0,1-.233-2.294c.078-1.439.622-3.656.855-3.5,1.828,1.011,3.461.739,5.289-.856,2.1-1.867,3.5-5.756,2.528-7.156a2.263,2.263,0,0,0-.428-.506,3.871,3.871,0,0,1-.778-.583A2.455,2.455,0,0,0,388.641-316.478Zm-6.728,10.617c-.039.039-.078-.039-.078-.194s.039-.194.078-.078A.226.226,0,0,1,381.913-305.861Zm.078-.855a1.483,1.483,0,0,1,.156-.506c.078-.194.117-.233.117-.078a3.073,3.073,0,0,1-.117.505C382.029-306.6,381.99-306.561,381.99-306.717Zm.078,1.711a13.7,13.7,0,0,1,.739-2.956c.35-.894.35-.545-.039.661-.194.622-.428,1.556-.544,2.061C382.029-304.345,381.99-304.306,382.068-305.006Zm.739-.7c-.039.039-.078-.039-.078-.194,0-.194.039-.194.078-.078A.329.329,0,0,1,382.807-305.706Zm.622-2.178a4.845,4.845,0,0,1-.272.972c-.233.544-.272.622-.195.233C383.077-307.261,383.468-308.234,383.429-307.884Zm2.061-3.733c.233-.194.233-.194.078.039-.194.272-.311.35-.311.233,0-.039.117-.156.233-.272Zm-1.594,1.633c-.078.195-.194.311-.233.311s0-.117.078-.311c.117-.156.194-.272.233-.272S383.974-310.139,383.9-309.984Zm.817-.311a6.642,6.642,0,0,1-.622.933,6.022,6.022,0,0,1,.972-1.672C385.179-311.111,385.022-310.8,384.713-310.295Zm6.611-1.206a1.183,1.183,0,0,1-.233.428c-.235.272-.235.272-.078-.078.233-.467.311-.545.311-.35Zm-.35-2.878a6.873,6.873,0,0,1-.778,2.8,6.778,6.778,0,0,1-2.956,3.111c-.817.389-1.983.583-1.983.311a20.173,20.173,0,0,1,2.1-3.267c1.206-1.478,3.344-3.228,3.617-2.956ZM410.3-316.75a2.888,2.888,0,0,1-.778-.622c-1.05-1.011-1.517-1.05-2.994-.311-1.478.7-5.328,5.056-7.35,8.283a6.472,6.472,0,0,1-.506.778c-.156,0,.467-1.4,1.555-3.694a24.749,24.749,0,0,0,1.167-2.606c0-.194-.544-.7-1.05-.933a2.38,2.38,0,0,1-.661-.583c-.311-.466-1.05-.389-1.633.195a27.155,27.155,0,0,0-3.306,6.533,18.035,18.035,0,0,0-.894,4.472,17.26,17.26,0,0,0,1.322,5.172,1.128,1.128,0,0,0,.544.35.806.806,0,0,1,.428.311,1.1,1.1,0,0,0,1.478-.156c.117-.117,1.011-1.711,1.906-3.5a37.148,37.148,0,0,1,6.495-9.878c1.011-1.167,1.945-1.945,1.828-1.595-.039.117-.506,1.4-1.05,2.878s-1.206,3.422-1.439,4.356a12.406,12.406,0,0,0-.467,4.083c0,2.178.039,2.45.35,3.189a4.712,4.712,0,0,0,1.594,2.139,3.749,3.749,0,0,0,.894.544c.233,0,.233,0-.039-.622-.467-.855-.467-2.761,0-4.939a33.166,33.166,0,0,1,1.867-6.222c1.517-4.083,1.828-6.067,1.206-7.117-.194-.272-.389-.506-.467-.506Zm-10.889,9.917a7.491,7.491,0,0,1-.622,1.361c-.661,1.361-.933,1.828-.661,1.128a19.752,19.752,0,0,1,1.283-2.489Zm-2.761-4.083c.078-.039.117,0,.078.156-.117.233-.233.311-.233.078A.319.319,0,0,1,396.65-310.917Zm-.194.583a2.843,2.843,0,0,1-.311,1.011,2.792,2.792,0,0,1-.35.778A7.224,7.224,0,0,1,396.455-310.334Zm-.817,2.256c.078-.194.117-.233.117-.078a3.077,3.077,0,0,1-.117.505c-.078.194-.156.194-.156.078A1.484,1.484,0,0,1,395.639-308.078Zm-.35,1.944c-.078.039-.117-.039-.078-.194,0-.194.039-.194.078-.078A.328.328,0,0,1,395.289-306.134Zm.117-.739c-.039.039-.078-.039-.078-.194,0-.195.039-.195.117-.078.039.078.039.233-.039.272Zm1.244-2.411c-.233.739-.622,1.983-.817,2.8-.194.856-.35,1.283-.35,1.05-.039-1.206,1.206-4.939,2.45-7.35,1.089-2.1,1.167-1.983.155.156C397.544-311.5,396.922-310.022,396.65-309.284Zm.311.311a31.6,31.6,0,0,1,2.411-5.328c.894-1.517.817-1.089-.117.583-.467.817-1.128,2.217-1.517,3.111-.661,1.595-.778,1.828-.778,1.633Zm.894,5.445c-.117.156-.155.117-.078-.078.078-.156.156-.233.194-.195S397.972-303.645,397.855-303.528Zm-.389,2.022a2.032,2.032,0,0,1-.233.583c-.117.155-.117.117-.039-.117a1.9,1.9,0,0,1,.233-.622C397.505-301.817,397.544-301.778,397.467-301.506Zm-.078-.894c-.078.117-.117.156-.117.078a.737.737,0,0,1,.117-.35c.078-.156.156-.156.156-.078A.881.881,0,0,1,397.389-302.4Zm3.5-5.911c-.35.544-1.128,1.983-1.75,3.189-.583,1.206-1.205,2.45-1.322,2.722-.117.311-.233.467-.272.389-.039-.544,3.772-7.622,4.122-7.622C401.744-309.634,401.706-309.595,400.889-308.311Zm1.439-2.178c-.194.233-.311.311-.311.195,0-.039.117-.156.233-.272.233-.194.233-.156.078.078Zm.428-.622c-.194.272-.311.35-.311.233,0-.039.117-.156.272-.272C402.95-311.345,402.95-311.345,402.755-311.111Zm4.433,1.75c.078-.117.155-.156.155-.078a1.009,1.009,0,0,1-.155.389c-.078.117-.156.156-.156.078A1.008,1.008,0,0,1,407.189-309.361Zm-.661,3.811c-.039.039-.078-.039-.078-.195s.039-.194.078-.078A.226.226,0,0,1,406.528-305.55Zm.194-.778c-.078.195-.117.233-.117.078a3.075,3.075,0,0,1,.117-.506c.117-.194.156-.233.156-.078A1.482,1.482,0,0,1,406.722-306.328Zm2.45-7.117c-.156.739-2.295,6.417-2.217,5.95a15.751,15.751,0,0,1,.7-2.1c.311-.894.778-2.178,1.05-2.878C409.172-313.795,409.367-314.184,409.172-313.445Zm.194-.544c-.078.039-.117-.039-.078-.195,0-.194.039-.194.078-.078A.329.329,0,0,1,409.367-313.989Zm15.206-2.178a4.519,4.519,0,0,1-.778-.622c-.078-.233-.895-.544-1.4-.544a2.811,2.811,0,0,0-1.089.272A17.561,17.561,0,0,0,418-313.756c-.272.389-.506.7-.544.661a5.728,5.728,0,0,1,.35-1.361,10.544,10.544,0,0,0,.389-1.945c.039-.622,0-.7-.467-.972a2.3,2.3,0,0,1-.7-.505c-.35-.428-.972-.194-1.478.583-1.283,1.867-3.383,8.4-4.433,13.572a53.63,53.63,0,0,0-1.05,10.695c0,4.161.039,4.356.933,5.795.389.622.622.856.894.933a2.11,2.11,0,0,1,.583.078c.194,0,.272-.778.506-4.278a90.521,90.521,0,0,1,1.4-10.811c.039-.117.233-.039.661.311a6.542,6.542,0,0,0,3.345,1.517c2.061-.039,5.094-3.111,6.417-6.611a13.593,13.593,0,0,0,1.283-5.833c0-1.945-.039-2.139-.389-2.917A2.908,2.908,0,0,0,424.572-316.167Zm-7.35-.661a11.01,11.01,0,0,1-.622,1.867,13.313,13.313,0,0,1-.661,1.711,22.4,22.4,0,0,1,1.283-3.578Zm-5.406,25.278c-.039,1.439-.117,2.606-.117,2.645a22.763,22.763,0,0,1,.078-3.889c.078-.933.078-.544.039,1.244Zm.039-5.561c-.156,1.05-.311,3.422-.389,5.25l-.117,3.344.078-3.539a52.82,52.82,0,0,1,.856-9.372,31.6,31.6,0,0,1,.933-4.005,8.316,8.316,0,0,1-.233,1.478C412.556-302.011,412.128-299.406,411.856-297.111Zm.35.739a7.933,7.933,0,0,1-.117,1.322l-.117.778v-.7a7.6,7.6,0,0,1,.117-1.322l.117-.661Zm1.128-6.767c-.039.117-.272,1.361-.505,2.683-.233,1.361-.467,2.683-.506,2.994-.039.467-.039.467-.078.039,0-.389.272-2.294.739-4.978a2.051,2.051,0,0,1,.311-1.011C413.372-303.411,413.411-303.294,413.333-303.139Zm.972-5.95a.327.327,0,0,1-.156.272c-.194.117-.233.194.544-2.256.817-2.761,1.944-5.795,1.983-5.367,0,.039-.233.661-.467,1.322C415.667-313.6,414.306-309.361,414.306-309.089Zm1.594-3.889c0,.272-.233.778-.233.544a.652.652,0,0,1,.117-.467c.078-.117.155-.156.117-.078Zm-.272.972a3.022,3.022,0,0,1-.233.739c-.078.272-.194.428-.194.311a5.32,5.32,0,0,1,.194-.739C415.511-312.006,415.628-312.122,415.628-312.006Zm-.622,2.139a2.285,2.285,0,0,1-.311.739c-.156.156-.039-.194.272-1.089.272-.661.272-.467.039.35Zm2.294,8.322a2.1,2.1,0,0,1-.622.194c-.35,0-1.478-2.528-1.478-3.267,0-1.361.817-3.228,2.645-5.989,1.633-2.489,4.2-4.822,5.289-4.822.311,0,.272,2.061,0,3.695C422.317-307.456,419.439-302.439,417.3-301.544Zm6.689-6.028a10.852,10.852,0,0,1-.583,1.478,5.164,5.164,0,0,1-.583,1.05c-.039,0,0-.194.117-.389.117-.233.35-.739.505-1.089s.35-.817.467-1.05l.156-.35Zm-.817.856a3.151,3.151,0,0,1-.506.933c-.039,0,0-.194.117-.389a37.217,37.217,0,0,0,1.4-3.772c.078-.35.156-.544.194-.389A18.324,18.324,0,0,1,423.172-306.717Zm1.283-4.006c-.039.078-.078-.039-.078-.195.039-.156.039-.194.117-.078.039.117.039.233-.039.272Zm13.378-7.272a3.129,3.129,0,0,0-1.944-.622,1.712,1.712,0,0,1-1.05-.195c-1.206-1.128-3.928,1.244-5.756,5.056-2.1,4.356-2.761,9.139-1.556,11.706.544,1.206,2.139,2.606,2.956,2.606a2.954,2.954,0,0,1,.856.35,2.1,2.1,0,0,0,2.1.156c1.983-.7,4.122-3.928,5.756-8.789,1.206-3.617,1.478-6.534.739-8.284C439.506-316.945,439.234-317.178,437.834-317.995Zm.467,8.245c0-.195.039-.233.078-.117a.426.426,0,0,1,0,.311C438.339-309.517,438.3-309.595,438.3-309.75Zm-9.217-.156c.039-.195.078-.233.117-.078a.329.329,0,0,1,0,.272C429.123-309.672,429.084-309.75,429.084-309.906Zm-.544,3.033c-.039.544-.117,1.011-.117,1.05-.117.117-.039-1.089.078-1.556.078-.272.078-.078.039.506Zm.156-1.244a2.155,2.155,0,0,1,.117-.661c.078-.311.117-.311.117-.078a4.751,4.751,0,0,1-.117.661C428.695-307.883,428.695-307.883,428.695-308.117Zm.661-.389a16.509,16.509,0,0,0-.389,3.111c-.117,1.75-.117,1.828-.233.972-.233-1.944.856-6.572,2.139-9.1.467-.933.467-.7,0,.311A40.01,40.01,0,0,0,429.356-308.506Zm1.167,3.072c-.039.078-.078-.039-.078-.195s.039-.194.078-.078A.319.319,0,0,1,430.523-305.433Zm.272-5.989c-.272.894-.739,2.45-.972,3.5a7.181,7.181,0,0,1-.428,1.556,27.512,27.512,0,0,1,2.139-7.272,10.392,10.392,0,0,1,.894-1.672,7.475,7.475,0,0,1-.506,1.167C431.612-313.523,431.106-312.278,430.795-311.422Zm6.611,5.483c-.156.156-.156.117-.078-.078.039-.156.156-.233.195-.194S437.523-306.017,437.406-305.939Zm.506-1.206a4.524,4.524,0,0,1-.233.583c-.117.156-.117.117-.039-.156a2.027,2.027,0,0,1,.233-.583C437.951-307.456,437.951-307.417,437.912-307.145Zm.039-6.883c-.194,3.617-2.722,10.15-4.667,11.939-.233.194-.661.544-.972.778-.35.195-.661.389-.7.389-.311,0-.583-1.594-.583-3.072a23.184,23.184,0,0,1,1.128-6.456c.739-2.644,1.283-3.733,2.411-4.783.933-.817,2.683-1.828,2.956-1.633.311.195.506,1.439.428,2.839Zm.428,5.6c-.272.583-.272.311-.039-.35.117-.311.233-.428.233-.311a3.727,3.727,0,0,1-.194.661Zm.194-2.45c.117-.272.117-.311.117-.078a1.61,1.61,0,0,1-.117.622C438.417-309.983,438.417-310.372,438.573-310.878Zm.078,1.439c-.039.078-.078-.039-.078-.194.039-.156.039-.195.117-.078C438.728-309.595,438.728-309.478,438.651-309.439Zm.311-1.011c-.039.039-.078-.039-.078-.194,0-.194.039-.233.078-.117A.416.416,0,0,1,438.962-310.45Zm.039-1.944a4.667,4.667,0,0,1-.117.778c-.117.272-.117.156-.039-.35C438.923-312.823,439.039-313.056,439-312.395Zm.117,1.361c-.039.039-.078-.039-.078-.233,0-.156.039-.194.078-.078A.425.425,0,0,1,439.117-311.034Zm0-2.1c-.039.156-.078,0-.078-.311.039-.35.039-.467.078-.272A1.457,1.457,0,0,1,439.117-313.134Zm.156,1.322c-.078.078-.117-.039-.078-.195,0-.156.039-.194.078-.078A.319.319,0,0,1,439.273-311.811Zm10.656-5.872c-.311-.194-.856-.544-1.206-.778-1.206-.855-2.761-.505-4.317.933a6.86,6.86,0,0,0-2.139,4.2c-.194,1.75.35,3.306,2.1,5.833,1.05,1.556,1.322,2.333,1.206,3.461a3.518,3.518,0,0,1-3.15,3.111c-.817.117-.856.117-1.439-.389a4.369,4.369,0,0,1-.855-.855c-.117-.233-.272-.389-.35-.35a.4.4,0,0,1-.272-.195c-.078-.156-.194-.078-.467.272a1.606,1.606,0,0,0-.389.7c0,.7,2.294,2.333,4.006,2.878a7.146,7.146,0,0,0,1.983.117,4.644,4.644,0,0,0,4.317-2.528,3.015,3.015,0,0,0,.35-1.906c-.078-1.206-.35-1.75-1.828-4.122a13.506,13.506,0,0,1-1.283-2.333,5.829,5.829,0,0,1,1.283-5.639,3.457,3.457,0,0,1,1.478-1.05,6.272,6.272,0,0,1,0,1.867l-.078,1.867.467.194c.272.117.428.233.35.233s-.078.078.039.156c.428.428,1.206-.583,1.594-2.061a2.66,2.66,0,0,0,.078-1.633,3.175,3.175,0,0,0-1.478-1.983Zm-2.294,15.128c.117-.272.194-.389.194-.272,0,.233-.428,1.05-.428.856A2.045,2.045,0,0,1,447.634-302.556Zm-.506-.428c.194-.933.233-1.011.272-.428a1.566,1.566,0,0,1-.233.817C447.012-302.322,446.973-302.361,447.128-302.983Zm-.233-.622a.662.662,0,0,1,0,.389c-.039.078-.078,0-.078-.194S446.856-303.722,446.9-303.606Zm-3.111-10.072c-.039.039-.078-.039-.078-.195,0-.194.039-.194.078-.078A.329.329,0,0,1,443.784-313.678Zm.35.622c0,.156-.039.311-.117.35-.233.156.078-1.322.389-1.945a2.856,2.856,0,0,1,.389-.622,5.04,5.04,0,0,1-.311.972A6.4,6.4,0,0,0,444.134-313.056ZM445.378-315c-.194.467-.467,1.05-.583,1.361l-.195.505.078-.505a4.3,4.3,0,0,1,.855-1.867C445.689-315.661,445.612-315.428,445.378-315Zm4.628,1.167c-.039.039-.078-.039-.078-.194s.039-.194.078-.078A.329.329,0,0,1,450.006-313.834Zm6.961-3.967c-.194.078-.272,0-.272-.117s-.117-.156-.233-.117-.233-.039-.311-.233a.63.63,0,0,0-.895-.428c-.972.35-2.761,5.989-3.383,10.617-.7,4.784.272,7.583,3.072,9.022,1.011.506,1.439.428,1.05-.233a6.27,6.27,0,0,1-.778-3.228c-.078-2.178.078-3.189,1.4-8.711,1.361-5.756,1.361-5.833.972-6.3A.656.656,0,0,0,456.967-317.8Zm-2.1,2.917c.039.078.039.233-.039.272-.039.039-.078-.039-.078-.195S454.79-315,454.867-314.884Zm-.622,1.945a3.451,3.451,0,0,1,.233-.817c.078-.194.078-.156.039.233-.078.272-.156.622-.233.817S454.167-312.589,454.245-312.939Zm-.739,3.072a15.535,15.535,0,0,1,.622-2.372,8.773,8.773,0,0,1-.272,1.517C453.545-309.439,453.312-308.895,453.506-309.867Zm-.117.817a1.329,1.329,0,0,1-.039.428c-.039.117-.039,0-.039-.233C453.312-309.128,453.351-309.206,453.39-309.05Zm-.467,3.345c-.078.039-.078-.039-.078-.195,0-.194.039-.233.078-.117A.427.427,0,0,1,452.923-305.706Zm.194-2.139q.117-.7.117-.117a3.237,3.237,0,0,1-.117.855c-.156.622-.156.039,0-.739Zm.117,3.383c-.039.117-.078,0-.078-.272,0-.233.039-.311.078-.156A.8.8,0,0,1,453.234-304.461Zm.194-1.672c-.117.895-.117.895-.156.311-.039-1.361,1.05-6.222,2.178-9.839a6.205,6.205,0,0,1,.661-1.711c.078,0,.078.039.039.117-.272.467-1.867,6.534-2.372,8.984-.117.661-.272,1.633-.35,2.139Zm.817-1.867c-.039.078-.078,0-.078-.194s.039-.311.078-.194A.663.663,0,0,1,454.245-308Zm.156-.7c-.039.078-.078-.039-.078-.195s.039-.194.078-.078A.319.319,0,0,1,454.4-308.7Zm.272-1.322c-.039.039-.078-.039-.078-.195.039-.156.078-.194.117-.078S454.751-310.061,454.673-310.022Zm.233-.856c-.117.311-.117.311-.117.078a2.157,2.157,0,0,1,.117-.661c.078-.311.117-.311.117-.078A4.748,4.748,0,0,1,454.906-310.878Zm.233-1.05c-.039.039-.078-.039-.078-.195,0-.194.039-.233.078-.117A.427.427,0,0,1,455.14-311.928Zm.156-.622c-.078.078-.078-.039-.078-.195s.039-.194.078-.078A.319.319,0,0,1,455.3-312.55Zm.739-2.606a13.475,13.475,0,0,1-.544,1.517,19.3,19.3,0,0,1,1.011-3.345C456.5-316.906,456.306-316.089,456.034-315.156Zm3.033-9.489a7.868,7.868,0,0,0-3.189,1.983c-.7.622-.7.661-.506,1.089.117.311.272.428.428.389s.272.039.272.117.156.039.35-.117.233-.194.156-.078c-.194.233-.272.778-.117.933.194.195.622.039.856-.35a8.13,8.13,0,0,1,2.411-2.217c.35-.155.661-.389.661-.505a3.7,3.7,0,0,0-1.322-1.245Zm.776,2.722c.817.078,1.517.156,1.517.156,0,.039-.272.894-.622,1.983-2.256,6.689-3.306,12.834-2.722,16.217a5.434,5.434,0,0,0,3.306,4.278c1.167.622,1.867.7,1.983.35.039-.117-.233-.311-.622-.505-.856-.35-1.206-1.011-1.439-2.722-.389-2.8.428-7,3.267-16.606l.817-2.683H467.7c3.072-.039,3.617-.117,3.967-.778.156-.272.233-.544.195-.583a26.638,26.638,0,0,0-4.822-.7l-1.128-.078.272-1.089a8.35,8.35,0,0,0,.272-1.789c.039-.661,0-.778-.389-1.05a6.354,6.354,0,0,1-.778-.661c-.428-.389-.583-.467-.895-.233a20.256,20.256,0,0,0-1.75,3.461c-.389,1.05-.428,1.089-.856,1.011-.233-.039-1.05-.117-1.789-.156-1.4-.117-1.983.039-1.983.467a1.047,1.047,0,0,1-.311.506c-.661.661-.117.933,2.139,1.206Zm-.583,13.728c-.039.039-.078-.039-.078-.194.039-.194.039-.233.117-.117a.294.294,0,0,1-.039.311Zm.156,1.983c-.039.117-.039.039-.039-.194,0-.195,0-.272.039-.156A.538.538,0,0,1,459.415-306.211Zm1.206-8.633a3.453,3.453,0,0,1,.233-.817q.117-.292,0,.233a3.609,3.609,0,0,1-.194.817C460.543-314.417,460.543-314.495,460.621-314.845Zm-.233.817c0-.194.039-.233.078-.078a.33.33,0,0,1,0,.272C460.427-313.795,460.388-313.872,460.388-314.028Zm-.156.583c0-.156.039-.194.078-.078a.329.329,0,0,1,0,.272C460.271-313.211,460.232-313.289,460.232-313.445Zm-.156.583c0-.156.039-.194.117-.078.039.117.039.233-.039.272-.039.078-.078-.039-.078-.194Zm-.155.622q.058-.292.117-.117a.294.294,0,0,1-.039.311C459.96-312.006,459.921-312.084,459.921-312.239Zm-.117.739c0-.194.039-.233.078-.117a.425.425,0,0,1,0,.311C459.8-311.267,459.765-311.345,459.8-311.5Zm-.156.739c.078-.389.078-.428.078-.078a2.393,2.393,0,0,1-.078.739c-.117.311-.156.311-.117.078A2.865,2.865,0,0,1,459.649-310.761Zm5.522-16.489c.156-.156.078.117-.505,1.75-.544,1.595-.739,1.983-.739,1.672C463.927-323.984,465.093-327.173,465.171-327.25Zm-1.244,2.333c.078-.117.156-.156.156-.078a1.314,1.314,0,0,1-.156.389c-.078.117-.156.156-.156.078A.821.821,0,0,1,463.927-324.917Zm-1.128,4.9c-.544,1.711-1.944,6.533-2.372,8.283-.117.622-.389,1.983-.583,3.033-.194,1.089-.35,1.75-.35,1.478a42.907,42.907,0,0,1,.856-4.978,88.726,88.726,0,0,1,2.839-9.372c.194-.194.194-.117-.389,1.556Zm-.194-1.205c.078-.117.117-.156.117-.078a.869.869,0,0,1-.117.389c-.078.117-.156.156-.156.078A1.01,1.01,0,0,1,462.6-321.222Zm-.233.778a20.65,20.65,0,0,1-.661,2.294,13.493,13.493,0,0,1-.739,2.022A40.331,40.331,0,0,1,462.371-320.445Zm7.389,2.644c-.194.078-.272,0-.272-.117s-.117-.156-.233-.117-.233-.039-.311-.233a.63.63,0,0,0-.894-.428c-.972.35-2.761,5.989-3.383,10.617-.7,4.784.272,7.583,3.072,9.022,1.011.506,1.439.428,1.05-.233a6.27,6.27,0,0,1-.778-3.228c-.078-2.178.078-3.189,1.4-8.711,1.361-5.756,1.361-5.833.972-6.3A.656.656,0,0,0,469.76-317.8Zm-2.1,2.917c.039.078.039.233-.039.272-.039.039-.078-.039-.078-.195S467.582-315,467.66-314.884Zm-.622,1.945a3.448,3.448,0,0,1,.233-.817c.078-.194.078-.156.039.233-.078.272-.155.622-.233.817S466.96-312.589,467.038-312.939Zm-.739,3.072a15.524,15.524,0,0,1,.622-2.372,8.766,8.766,0,0,1-.272,1.517C466.338-309.439,466.1-308.895,466.3-309.867Zm-.117.817a1.331,1.331,0,0,1-.039.428c-.039.117-.039,0-.039-.233C466.1-309.128,466.143-309.206,466.182-309.05Zm-.467,3.345c-.078.039-.078-.039-.078-.195,0-.194.039-.233.078-.117A.427.427,0,0,1,465.716-305.706Zm.194-2.139q.117-.7.117-.117a3.234,3.234,0,0,1-.117.855c-.156.622-.156.039,0-.739Zm.117,3.383c-.039.117-.078,0-.078-.272,0-.233.039-.311.078-.156A.794.794,0,0,1,466.027-304.461Zm.194-1.672c-.117.895-.117.895-.156.311-.039-1.361,1.05-6.222,2.178-9.839a6.2,6.2,0,0,1,.661-1.711c.078,0,.078.039.039.117-.272.467-1.867,6.534-2.372,8.984-.117.661-.272,1.633-.35,2.139Zm.817-1.867c-.039.078-.078,0-.078-.194s.039-.311.078-.194A.663.663,0,0,1,467.038-308Zm.156-.7c-.039.078-.078-.039-.078-.195s.039-.194.078-.078A.319.319,0,0,1,467.193-308.7Zm.272-1.322c-.039.039-.078-.039-.078-.195.039-.156.078-.194.117-.078s.039.233-.039.272Zm.233-.856c-.117.311-.117.311-.117.078a2.157,2.157,0,0,1,.117-.661c.078-.311.117-.311.117-.078A4.757,4.757,0,0,1,467.7-310.878Zm.233-1.05c-.039.039-.078-.039-.078-.195,0-.194.039-.233.078-.117A.427.427,0,0,1,467.932-311.928Zm.156-.622c-.078.078-.078-.039-.078-.195s.039-.194.078-.078A.319.319,0,0,1,468.088-312.55Zm.739-2.606a13.469,13.469,0,0,1-.544,1.517,19.306,19.306,0,0,1,1.011-3.345C469.293-316.906,469.1-316.089,468.827-315.156Zm3.033-9.489a7.867,7.867,0,0,0-3.189,1.983c-.7.622-.7.661-.506,1.089.117.311.272.428.428.389s.272.039.272.117.156.039.35-.117.233-.194.156-.078c-.194.233-.272.778-.117.933.195.195.622.039.856-.35a8.129,8.129,0,0,1,2.411-2.217c.35-.155.661-.389.661-.505a3.7,3.7,0,0,0-1.322-1.245Zm9.684,6.65a3.129,3.129,0,0,0-1.945-.622,1.712,1.712,0,0,1-1.05-.195c-1.206-1.128-3.928,1.244-5.756,5.056-2.1,4.356-2.761,9.139-1.556,11.706.544,1.206,2.139,2.606,2.956,2.606a2.954,2.954,0,0,1,.856.35,2.1,2.1,0,0,0,2.1.156c1.983-.7,4.122-3.928,5.756-8.789,1.206-3.617,1.478-6.534.739-8.284C483.216-316.945,482.944-317.178,481.544-317.995Zm.467,8.245c0-.195.039-.233.078-.117a.427.427,0,0,1,0,.311C482.049-309.517,482.01-309.595,482.01-309.75Zm-9.217-.156c.039-.195.078-.233.117-.078a.329.329,0,0,1,0,.272C472.832-309.672,472.794-309.75,472.794-309.906Zm-.545,3.033c-.039.544-.117,1.011-.117,1.05-.117.117-.039-1.089.078-1.556C472.288-307.65,472.288-307.456,472.249-306.872Zm.156-1.244a2.156,2.156,0,0,1,.117-.661c.078-.311.117-.311.117-.078a4.76,4.76,0,0,1-.117.661C472.4-307.883,472.4-307.883,472.4-308.117Zm.661-.389a16.509,16.509,0,0,0-.389,3.111c-.117,1.75-.117,1.828-.233.972-.233-1.944.856-6.572,2.139-9.1.467-.933.467-.7,0,.311A40.01,40.01,0,0,0,473.066-308.506Zm1.167,3.072c-.039.078-.078-.039-.078-.195s.039-.194.078-.078A.32.32,0,0,1,474.232-305.433Zm.272-5.989c-.272.894-.739,2.45-.972,3.5a7.185,7.185,0,0,1-.428,1.556,27.511,27.511,0,0,1,2.139-7.272,10.384,10.384,0,0,1,.895-1.672,7.47,7.47,0,0,1-.506,1.167C475.321-313.523,474.816-312.278,474.5-311.422Zm6.611,5.483c-.156.156-.156.117-.078-.078.039-.156.156-.233.194-.194S481.232-306.017,481.116-305.939Zm.506-1.206a4.524,4.524,0,0,1-.233.583c-.117.156-.117.117-.039-.156a2.03,2.03,0,0,1,.233-.583C481.66-307.456,481.66-307.417,481.621-307.145Zm.039-6.883c-.194,3.617-2.722,10.15-4.667,11.939-.233.194-.661.544-.972.778-.35.195-.661.389-.7.389-.311,0-.583-1.594-.583-3.072a23.184,23.184,0,0,1,1.128-6.456c.739-2.644,1.283-3.733,2.411-4.783.933-.817,2.683-1.828,2.956-1.633.311.195.506,1.439.428,2.839Zm.428,5.6c-.272.583-.272.311-.039-.35.117-.311.233-.428.233-.311a3.728,3.728,0,0,1-.194.661Zm.194-2.45c.117-.272.117-.311.117-.078a1.612,1.612,0,0,1-.117.622C482.127-309.983,482.127-310.372,482.283-310.878Zm.078,1.439c-.039.078-.078-.039-.078-.194.039-.156.039-.195.117-.078.039.117.039.233-.039.272Zm.311-1.011c-.039.039-.078-.039-.078-.194,0-.194.039-.233.078-.117A.415.415,0,0,1,482.671-310.45Zm.039-1.944a4.66,4.66,0,0,1-.117.778c-.117.272-.117.156-.039-.35C482.633-312.823,482.749-313.056,482.71-312.395Zm.117,1.361c-.039.039-.078-.039-.078-.233,0-.156.039-.194.078-.078A.426.426,0,0,1,482.827-311.034Zm0-2.1c-.039.156-.078,0-.078-.311.039-.35.039-.467.078-.272A1.459,1.459,0,0,1,482.827-313.134Zm.156,1.322c-.078.078-.117-.039-.078-.195,0-.156.039-.194.078-.078A.319.319,0,0,1,482.982-311.811Zm17.734-4.939a2.886,2.886,0,0,1-.778-.622c-1.05-1.011-1.517-1.05-2.994-.311-1.478.7-5.328,5.056-7.35,8.283a6.479,6.479,0,0,1-.506.778c-.156,0,.467-1.4,1.556-3.695a24.787,24.787,0,0,0,1.167-2.605c0-.195-.544-.7-1.05-.933a2.38,2.38,0,0,1-.661-.583c-.311-.467-1.05-.389-1.633.194a27.16,27.16,0,0,0-3.306,6.533,18.034,18.034,0,0,0-.895,4.472,17.259,17.259,0,0,0,1.322,5.172,1.129,1.129,0,0,0,.544.35.807.807,0,0,1,.428.311,1.1,1.1,0,0,0,1.478-.156c.117-.117,1.011-1.711,1.906-3.5a37.148,37.148,0,0,1,6.495-9.878c1.011-1.167,1.944-1.945,1.828-1.594-.039.117-.506,1.4-1.05,2.878s-1.206,3.422-1.439,4.356a12.405,12.405,0,0,0-.467,4.083c0,2.178.039,2.45.35,3.189a4.713,4.713,0,0,0,1.594,2.139,3.746,3.746,0,0,0,.895.545c.233,0,.233,0-.039-.622-.467-.855-.467-2.761,0-4.939a33.18,33.18,0,0,1,1.867-6.222c1.517-4.083,1.828-6.067,1.206-7.117-.194-.272-.389-.506-.467-.506Zm-10.889,9.917a7.491,7.491,0,0,1-.622,1.361c-.661,1.361-.933,1.828-.661,1.128a19.76,19.76,0,0,1,1.283-2.489Zm-2.761-4.083c.078-.039.117,0,.078.156-.117.233-.233.311-.233.078A.319.319,0,0,1,487.066-310.917Zm-.194.583a2.839,2.839,0,0,1-.311,1.011,2.794,2.794,0,0,1-.35.778,7.229,7.229,0,0,1,.661-1.789Zm-.817,2.256c.078-.194.117-.233.117-.078a3.077,3.077,0,0,1-.117.505c-.078.194-.156.194-.156.078A1.483,1.483,0,0,1,486.055-308.078Zm-.35,1.945c-.078.039-.117-.039-.078-.195,0-.194.039-.194.078-.078A.329.329,0,0,1,485.7-306.133Zm.117-.739c-.039.039-.078-.039-.078-.194,0-.195.039-.195.117-.078C485.9-307.067,485.9-306.911,485.821-306.872Zm1.244-2.411c-.233.739-.622,1.983-.817,2.8-.194.856-.35,1.283-.35,1.05-.039-1.206,1.206-4.939,2.45-7.35,1.089-2.1,1.167-1.983.155.156-.544,1.128-1.167,2.606-1.439,3.344Zm.311.311a31.61,31.61,0,0,1,2.411-5.328c.894-1.517.817-1.089-.117.583-.467.817-1.128,2.217-1.517,3.111-.661,1.595-.778,1.828-.778,1.633Zm.894,5.445c-.117.156-.155.117-.078-.078.078-.156.156-.233.194-.195S488.388-303.644,488.271-303.528Zm-.389,2.022a2.034,2.034,0,0,1-.233.583c-.117.156-.117.117-.039-.117a1.9,1.9,0,0,1,.233-.622C487.922-301.817,487.96-301.778,487.883-301.506Zm-.078-.894c-.078.117-.117.156-.117.078a.738.738,0,0,1,.117-.35c.078-.156.156-.156.156-.078A.879.879,0,0,1,487.8-302.4Zm3.5-5.911c-.35.544-1.128,1.983-1.75,3.189-.583,1.206-1.206,2.45-1.322,2.722-.117.311-.233.467-.272.389-.039-.545,3.772-7.622,4.122-7.622C492.16-309.634,492.122-309.595,491.3-308.311Zm1.439-2.178c-.194.233-.311.311-.311.195,0-.039.117-.156.233-.272.233-.194.233-.156.078.078Zm.428-.622c-.194.272-.311.35-.311.233,0-.039.117-.156.272-.272C493.366-311.345,493.366-311.345,493.172-311.111Zm4.433,1.75c.078-.117.156-.156.156-.078a1.01,1.01,0,0,1-.156.389c-.078.117-.156.156-.156.078A1.01,1.01,0,0,1,497.6-309.361Zm-.661,3.811c-.039.039-.078-.039-.078-.194s.039-.195.078-.078A.226.226,0,0,1,496.944-305.55Zm.194-.778c-.078.194-.117.233-.117.078a3.077,3.077,0,0,1,.117-.506c.117-.194.156-.233.156-.078A1.484,1.484,0,0,1,497.138-306.328Zm2.45-7.117c-.156.739-2.294,6.417-2.217,5.95a15.748,15.748,0,0,1,.7-2.1c.311-.894.778-2.178,1.05-2.878C499.588-313.795,499.783-314.183,499.588-313.445Zm.194-.544c-.078.039-.117-.039-.078-.194,0-.195.039-.195.078-.078A.329.329,0,0,1,499.783-313.989Zm7.156-3.811c-.194.078-.272,0-.272-.117s-.117-.156-.233-.117-.233-.039-.311-.233a.63.63,0,0,0-.894-.428c-.972.35-2.761,5.989-3.383,10.617-.7,4.784.272,7.583,3.072,9.022,1.011.506,1.439.428,1.05-.233a6.269,6.269,0,0,1-.778-3.228c-.078-2.178.078-3.189,1.4-8.711,1.361-5.756,1.361-5.833.972-6.3A.655.655,0,0,0,506.938-317.8Zm-2.1,2.917c.039.078.039.233-.039.272-.039.039-.078-.039-.078-.195S504.761-315,504.839-314.884Zm-.622,1.945a3.448,3.448,0,0,1,.233-.817c.078-.194.078-.156.039.233-.078.272-.156.622-.233.817S504.138-312.589,504.216-312.939Zm-.739,3.072a15.528,15.528,0,0,1,.622-2.372,8.772,8.772,0,0,1-.272,1.517C503.516-309.439,503.283-308.895,503.477-309.867Zm-.117.817a1.329,1.329,0,0,1-.039.428c-.039.117-.039,0-.039-.233C503.283-309.128,503.322-309.206,503.361-309.05Zm-.467,3.345c-.078.039-.078-.039-.078-.195,0-.194.039-.233.078-.117A.427.427,0,0,1,502.894-305.706Zm.194-2.139q.117-.7.117-.117a3.239,3.239,0,0,1-.117.855c-.156.622-.156.039,0-.739Zm.117,3.383c-.039.117-.078,0-.078-.272,0-.233.039-.311.078-.156A.793.793,0,0,1,503.205-304.461Zm.194-1.672c-.117.895-.117.895-.155.311-.039-1.361,1.05-6.222,2.178-9.839a6.209,6.209,0,0,1,.661-1.711c.078,0,.078.039.039.117-.272.467-1.867,6.534-2.372,8.984-.117.661-.272,1.633-.35,2.139Zm.817-1.867c-.039.078-.078,0-.078-.194s.039-.311.078-.194A.663.663,0,0,1,504.216-308Zm.156-.7c-.039.078-.078-.039-.078-.195s.039-.194.078-.078A.319.319,0,0,1,504.372-308.7Zm.272-1.322c-.039.039-.078-.039-.078-.195.039-.156.078-.194.117-.078s.039.233-.039.272Zm.233-.856c-.117.311-.117.311-.117.078a2.157,2.157,0,0,1,.117-.661c.078-.311.117-.311.117-.078A4.748,4.748,0,0,1,504.877-310.878Zm.233-1.05c-.039.039-.078-.039-.078-.195,0-.194.039-.233.078-.117A.425.425,0,0,1,505.111-311.928Zm.156-.622c-.078.078-.078-.039-.078-.195s.039-.194.078-.078A.319.319,0,0,1,505.266-312.55Zm.739-2.606a13.46,13.46,0,0,1-.544,1.517,19.3,19.3,0,0,1,1.011-3.345C506.472-316.906,506.277-316.089,506.005-315.156Zm3.033-9.489a7.867,7.867,0,0,0-3.189,1.983c-.7.622-.7.661-.506,1.089.117.311.272.428.428.389s.272.039.272.117.156.039.35-.117.233-.194.156-.078c-.194.233-.272.778-.117.933.194.195.622.039.855-.35a8.13,8.13,0,0,1,2.411-2.217c.35-.155.661-.389.661-.505a3.7,3.7,0,0,0-1.322-1.245Zm6.728,8.167a10.356,10.356,0,0,0-5.017,3.772c-2.761,3.422-3.811,8.011-2.528,10.694a7,7,0,0,0,2.839,2.645,3.007,3.007,0,0,0,2.256.622,4.261,4.261,0,0,0,1.633-.35c2.178-1.05,5.795-6.339,4.628-6.767-.156-.078-.467.233-.894.894a25.006,25.006,0,0,1-1.75,2.1,7.83,7.83,0,0,1-4.433,2.372l-.894.039-.311-.7a4,4,0,0,1-.233-2.294c.078-1.439.622-3.656.856-3.5,1.828,1.011,3.461.739,5.289-.856,2.1-1.867,3.5-5.756,2.528-7.156a2.262,2.262,0,0,0-.428-.506,3.877,3.877,0,0,1-.778-.583,2.455,2.455,0,0,0-2.761-.428Zm-6.728,10.617c-.039.039-.078-.039-.078-.195s.039-.194.078-.078A.226.226,0,0,1,509.039-305.861Zm.078-.856a1.483,1.483,0,0,1,.156-.506c.078-.194.117-.233.117-.078a3.067,3.067,0,0,1-.117.505C509.155-306.6,509.116-306.561,509.116-306.717Zm.078,1.711a13.7,13.7,0,0,1,.739-2.956c.35-.894.35-.545-.039.661-.194.622-.428,1.556-.544,2.061C509.155-304.344,509.116-304.306,509.194-305.006Zm.739-.7c-.039.039-.078-.039-.078-.195,0-.194.039-.194.078-.078A.33.33,0,0,1,509.933-305.706Zm.622-2.178a4.843,4.843,0,0,1-.272.972c-.233.544-.272.622-.194.233C510.205-307.261,510.594-308.234,510.555-307.883Zm2.061-3.733c.233-.194.233-.194.078.039-.194.272-.311.35-.311.233,0-.039.117-.156.233-.272Zm-1.594,1.633c-.078.194-.194.311-.233.311s0-.117.078-.311c.117-.156.194-.272.233-.272S511.1-310.139,511.022-309.983Zm.817-.311a6.662,6.662,0,0,1-.622.933,6.018,6.018,0,0,1,.972-1.672C512.305-311.111,512.15-310.8,511.839-310.295Zm6.611-1.206a1.184,1.184,0,0,1-.233.428c-.233.272-.233.272-.078-.078.233-.467.311-.544.311-.35Zm-.35-2.878a6.873,6.873,0,0,1-.778,2.8,6.776,6.776,0,0,1-2.956,3.111c-.817.389-1.983.583-1.983.311a20.171,20.171,0,0,1,2.1-3.267C515.689-312.9,517.828-314.65,518.1-314.378Zm15.322-3.5c-.933-.467-1.206-.544-1.672-.467a6.153,6.153,0,0,0-2.839,1.633c-.506.428-.778.622-.7.467.039-.195.233-.778.389-1.361.311-.972.311-1.089.078-1.322a.787.787,0,0,0-.428-.233.872.872,0,0,1-.544-.35c-.389-.505-.622-.467-1.245.195-2.294,2.567-5.172,11.667-5.406,17.15l-.078,2.217.467.35c.545.389.545.389.817.078.156-.117.233-.156.233-.078,0,.311.311.156.311-.156.039-.311.039-.311.078-.039.039.156.117.428.155.622.078.389.506.428.856.117a2.428,2.428,0,0,0,.311-1.089,22.412,22.412,0,0,1,2.061-7.506c1.906-4.395,3.928-7.233,5.872-8.361,1.05-.622,1.361-.583,1.867.039.194.311.467.544.583.544s.233.039.233.156c0,.311.467.039.583-.311.194-.817-.35-1.439-1.983-2.295Zm-6.456.078c.078-.194.194-.311.233-.311s0,.117-.117.311c-.078.156-.194.272-.233.272S526.85-317.645,526.967-317.8Zm-.311.661c.078-.078.117,0,.039.117-.078.272-.194.311-.194.117A.32.32,0,0,1,526.655-317.139Zm-2.45,7.039a18.506,18.506,0,0,1-.583,1.906c-.156.117.039-.545.817-3.189a25.262,25.262,0,0,1,1.867-4.9,5.168,5.168,0,0,1-.389,1.089,47.8,47.8,0,0,0-1.711,5.095Zm3.617-8.244c-.117.233-.739,1.594-1.283,2.839-.272.583-.7,1.789-1.011,2.683-.506,1.594-.778,2.178-.583,1.322a41.192,41.192,0,0,1,2.761-6.845Q527.881-318.461,527.822-318.345Zm9.526,18.317,1.011.506c1.011.544,1.983-.389,3.733-3.578l1.05-1.828.078,1.206c.155,2.333.739,3.539,2.217,4.511a2.683,2.683,0,0,0,.778.467c.233.039.233-.311,0-1.478a14.961,14.961,0,0,1-.156-3.15c.156-2.839.661-5.017,2.489-10.5a15.232,15.232,0,0,0,.855-3.033c-.039-.311-.194-.467-.544-.622a1.347,1.347,0,0,1-.544-.467.392.392,0,0,0-.428-.272c-.739,0-1.711,1.633-2.839,4.745a16.96,16.96,0,0,1-.895,2.139,15.1,15.1,0,0,0-.739,1.556,44.832,44.832,0,0,1-3.772,7.234,6.641,6.641,0,0,1-1.05,1.206c-.194,0-.311-1.595-.233-3.034a43.051,43.051,0,0,1,2.411-10.033l.739-2.061-.428-.35c-.233-.233-.467-.35-.544-.311-.078.078-.156.039-.156-.078,0-.078-.039-.117-.117-.078s-.194-.078-.311-.272c-.233-.544-.778-.505-1.283.078a18.927,18.927,0,0,0-1.089,1.906,29.037,29.037,0,0,0-2.683,8.828c-.389,3.111.622,5.911,2.45,6.767Zm9.995-14.117c-.078.156-.117.156-.117.078a.738.738,0,0,1,.117-.35c.078-.117.156-.156.156-.078A.879.879,0,0,1,547.343-314.145Zm.311-.739c-.078.117-.156.156-.156.078a.879.879,0,0,1,.156-.35c.078-.117.156-.156.156-.078A.881.881,0,0,1,547.654-314.884Zm.311-.739c-.078.117-.156.156-.156.078a.88.88,0,0,1,.156-.35c.078-.156.117-.156.117-.078A.738.738,0,0,1,547.965-315.623Zm.272-1.011c.078-.155.156-.155.156-.078a.882.882,0,0,1-.156.35c-.078.117-.156.156-.156.078A.881.881,0,0,1,548.237-316.634Zm-1.556,2.645a28.84,28.84,0,0,1,1.439-3.189,12.408,12.408,0,0,1-.622,1.633C546.759-313.834,546.448-313.211,546.682-313.989Zm-1.75,5.95a3.533,3.533,0,0,1,.233-.972c.078-.194.078-.078,0,.272C545.048-307.806,544.815-307.261,544.932-308.039Zm-.156.933a.8.8,0,0,1,0,.428c-.039.117-.078,0-.078-.272C544.7-307.183,544.737-307.261,544.776-307.106Zm-7.389-.778c-.039.117-.078.039-.078-.156,0-.233.039-.311.078-.194A.54.54,0,0,1,537.387-307.884Zm.117-.661c-.039.039-.078-.039-.078-.194s.039-.194.117-.078a.3.3,0,0,1-.039.272Zm.156-.661c-.039.117-.078.039-.078-.195,0-.194.039-.272.078-.155A.535.535,0,0,1,537.659-309.206Zm.544-2.022c-.156.7-.35,1.128-.233.505a4.83,4.83,0,0,1,.194-.739C538.281-311.617,538.281-311.539,538.2-311.228ZM539.8-315.7c.117-.078.078.117-.078.467-.156.311-.506,1.245-.856,2.061-.311.817-.544,1.283-.467,1.05A25.513,25.513,0,0,1,539.8-315.7Zm-2.178,4.161a32.751,32.751,0,0,1,1.828-4.472,6.774,6.774,0,0,1-.506,1.439A36.424,36.424,0,0,0,537-308.234c-.195.817-.389,1.945-.467,2.489l-.117,1.011.039-1.128a28.944,28.944,0,0,1,1.167-5.678Zm-.35-.078c.078-.117.155-.156.155-.078a1.01,1.01,0,0,1-.155.389c-.078.117-.156.156-.156.078A1.008,1.008,0,0,1,537.27-311.617Zm-.428,1.4c0-.156.039-.194.078-.078a.329.329,0,0,1,0,.272C536.881-309.983,536.843-310.061,536.843-310.217Zm-.156.583c0-.156.039-.194.078-.078a.226.226,0,0,1,0,.272C536.726-309.361,536.687-309.478,536.687-309.634Zm-.156.622c.039-.194.039-.233.117-.117a.294.294,0,0,1-.039.311C536.57-308.778,536.531-308.856,536.531-309.011Zm-.156.739c.117-.389.117-.428.117-.078a2.442,2.442,0,0,1-.117.739c-.078.311-.117.311-.117.078A7.019,7.019,0,0,1,536.376-308.272Zm-.194,1.439a.945.945,0,0,1,0,.467c-.039.078-.078-.039-.078-.272S536.143-306.989,536.181-306.833ZM565.5-316.75a2.887,2.887,0,0,1-.778-.622c-1.05-1.011-1.517-1.05-2.995-.311-1.478.7-5.328,5.056-7.35,8.283a6.488,6.488,0,0,1-.506.778c-.156,0,.467-1.4,1.556-3.695a24.779,24.779,0,0,0,1.167-2.605c0-.195-.544-.7-1.05-.933a2.382,2.382,0,0,1-.661-.583c-.311-.467-1.05-.389-1.633.194a27.155,27.155,0,0,0-3.306,6.533,18.033,18.033,0,0,0-.894,4.472,17.259,17.259,0,0,0,1.322,5.172,1.129,1.129,0,0,0,.544.35.807.807,0,0,1,.428.311,1.1,1.1,0,0,0,1.478-.156c.117-.117,1.011-1.711,1.906-3.5a37.15,37.15,0,0,1,6.495-9.878c1.011-1.167,1.944-1.945,1.828-1.594-.039.117-.506,1.4-1.05,2.878s-1.206,3.422-1.439,4.356a12.408,12.408,0,0,0-.467,4.083c0,2.178.039,2.45.35,3.189a4.712,4.712,0,0,0,1.594,2.139,3.75,3.75,0,0,0,.895.545c.233,0,.233,0-.039-.622-.467-.855-.467-2.761,0-4.939a33.182,33.182,0,0,1,1.867-6.222c1.517-4.083,1.828-6.067,1.206-7.117-.194-.272-.389-.506-.467-.506Zm-10.889,9.917a7.5,7.5,0,0,1-.622,1.361c-.661,1.361-.933,1.828-.661,1.128a19.778,19.778,0,0,1,1.283-2.489Zm-2.761-4.083c.078-.039.117,0,.078.156-.117.233-.233.311-.233.078A.32.32,0,0,1,551.854-310.917Zm-.195.583a2.839,2.839,0,0,1-.311,1.011,2.8,2.8,0,0,1-.35.778,7.224,7.224,0,0,1,.661-1.789Zm-.817,2.256c.078-.194.117-.233.117-.078a3.058,3.058,0,0,1-.117.505c-.078.194-.156.194-.156.078A1.485,1.485,0,0,1,550.843-308.078Zm-.35,1.945c-.078.039-.117-.039-.078-.195,0-.194.039-.194.078-.078A.329.329,0,0,1,550.493-306.133Zm.117-.739c-.039.039-.078-.039-.078-.194,0-.195.039-.195.117-.078C550.687-307.067,550.687-306.911,550.609-306.872Zm1.245-2.411c-.233.739-.622,1.983-.817,2.8-.194.856-.35,1.283-.35,1.05-.039-1.206,1.206-4.939,2.45-7.35,1.089-2.1,1.167-1.983.156.156C552.748-311.5,552.126-310.022,551.854-309.284Zm.311.311a31.611,31.611,0,0,1,2.411-5.328c.895-1.517.817-1.089-.117.583-.467.817-1.128,2.217-1.517,3.111C552.282-309.011,552.165-308.778,552.165-308.972Zm.895,5.445c-.117.156-.156.117-.078-.078.078-.156.156-.233.195-.195S553.176-303.644,553.06-303.528Zm-.389,2.022a2.029,2.029,0,0,1-.233.583c-.117.156-.117.117-.039-.117a1.9,1.9,0,0,1,.233-.622C552.71-301.817,552.748-301.778,552.671-301.506Zm-.078-.894c-.078.117-.117.156-.117.078a.737.737,0,0,1,.117-.35c.078-.156.155-.156.155-.078A.88.88,0,0,1,552.593-302.4Zm3.5-5.911c-.35.544-1.128,1.983-1.75,3.189-.583,1.206-1.206,2.45-1.322,2.722-.117.311-.233.467-.272.389-.039-.545,3.772-7.622,4.122-7.622C556.948-309.634,556.91-309.595,556.093-308.311Zm1.439-2.178c-.194.233-.311.311-.311.195,0-.039.117-.156.233-.272.233-.194.233-.156.078.078Zm.428-.622c-.194.272-.311.35-.311.233,0-.039.117-.156.272-.272.233-.194.233-.194.039.039Zm4.433,1.75c.078-.117.156-.156.156-.078a1.01,1.01,0,0,1-.156.389c-.078.117-.156.156-.156.078A1.01,1.01,0,0,1,562.393-309.361Zm-.661,3.811c-.039.039-.078-.039-.078-.194s.039-.195.078-.078A.226.226,0,0,1,561.732-305.55Zm.194-.778c-.078.194-.117.233-.117.078a3.064,3.064,0,0,1,.117-.506c.117-.194.156-.233.156-.078A1.484,1.484,0,0,1,561.926-306.328Zm2.45-7.117c-.156.739-2.294,6.417-2.217,5.95a15.71,15.71,0,0,1,.7-2.1c.311-.894.778-2.178,1.05-2.878C564.376-313.795,564.571-314.183,564.376-313.445Zm.195-.544c-.078.039-.117-.039-.078-.194,0-.195.039-.195.078-.078A.33.33,0,0,1,564.571-313.989Zm16.722,1.167c.117-2.178.117-2.178-.233-2.528a1.871,1.871,0,0,0-1.089-.583c-.039.039-.117-.078-.117-.194s-.039-.233-.117-.233a.178.178,0,0,1-.156-.195c0-.233-.078-.272-.544-.272-.428,0-.467.039-.661.544l-.156.544-.428-.35c-.233-.194-.7-.544-1.05-.817a3.236,3.236,0,0,0-3.772-.272c-4.433,2.022-7.856,11.317-6.183,14.972.895,1.906,2.061,1.828,2.839,2.528a1.556,1.556,0,0,0,1.167.311,2.046,2.046,0,0,0,1.556-.506,9.943,9.943,0,0,0,2.761-3.5,6.773,6.773,0,0,1,.856-1.361,38.707,38.707,0,0,1-1.439,4.744c-.467,1.283-.739,1.828-1.906,4.356-2.178,4.589-4.122,6.533-6.456,6.456a3.907,3.907,0,0,1-1.361-.233c-.661-.35-.856-.039-.272.428a13.458,13.458,0,0,0,2.8,1.4,5.112,5.112,0,0,0,2.45-.233c1.478-.466,3.422-2.333,5.25-5.094a29.527,29.527,0,0,0,3.111-5.95,42.713,42.713,0,0,0,2.411-8.517A25.748,25.748,0,0,0,581.293-312.822Zm-3.617,6.767c0-.156.039-.194.078-.078a.329.329,0,0,1,0,.272C577.677-305.822,577.638-305.9,577.677-306.056Zm-.039.622a1.628,1.628,0,0,1-.156.583c-.156.389-.156-.039,0-.544C577.6-305.667,577.638-305.706,577.638-305.433Zm-9.839-.35c-.039.117-.039,0-.039-.272,0-.233.039-.311.078-.156A.809.809,0,0,1,567.8-305.783Zm.078-1.011c0-.311.389-1.594.428-1.322a6.4,6.4,0,0,1-.194.894C567.993-306.833,567.876-306.639,567.876-306.795Zm.35,1.361-.194,1.322.039-1.128a11.43,11.43,0,0,1,.467-2.411,21.032,21.032,0,0,1,1.906-4.317c.117-.156-.039.272-.389.972a15.789,15.789,0,0,0-1.128,2.761,19.659,19.659,0,0,0-.7,2.8Zm.933-1.711c-.428,1.4-.544,1.361-.156-.078a21.449,21.449,0,0,1,2.917-6.067c.233-.272.039.117-.389.817a17.591,17.591,0,0,0-1.4,2.683,19.985,19.985,0,0,0-.972,2.644Zm6.572-2.372c-1.478,3.383-3.539,6.728-4.628,7.544-1.05.739-1.089.7-.972-1.361a13.847,13.847,0,0,1,.467-3.15c1.089-3.695,3.15-7,5.017-8.089a3.513,3.513,0,0,1,1.011-.428c.117,0,.35.35.545.894l.35.933-.583,1.128A21.958,21.958,0,0,0,575.732-309.517Zm1.594,5.172a6.846,6.846,0,0,1-.544,1.867,9.707,9.707,0,0,1,.272-1.128C577.21-304.111,577.327-304.461,577.327-304.344ZM576-299.133c.078-.156.156-.156.156-.078a.881.881,0,0,1-.156.35c-.078.117-.117.156-.117.078A.739.739,0,0,1,576-299.133Zm1.517-2.294a35.968,35.968,0,0,1-1.361,3.383c-.817,1.711-.972,1.867-.233.194a48.2,48.2,0,0,0,1.828-4.745c.117-.467.272-.817.311-.778A11.22,11.22,0,0,1,577.521-301.428Zm.661-2.217c-.039.039-.078-.039-.078-.195s.039-.194.078-.078A.319.319,0,0,1,578.182-303.644Zm.156-.583c-.039.039-.078-.039-.078-.195,0-.194.039-.194.078-.078A.329.329,0,0,1,578.338-304.228Zm-1.517,3.306c-.467,1.283-.661,1.672-.661,1.439a3.945,3.945,0,0,1,.311-.894,63.011,63.011,0,0,0,1.789-6.533,16.784,16.784,0,0,1,.544-2.1C579-308.817,577.6-303.139,576.821-300.922Zm2.1-8.439c-.039.117-.078.039-.078-.156,0-.233.039-.311.078-.194A.536.536,0,0,1,578.921-309.361Zm.156-.661c-.039.078-.078-.039-.078-.194s.039-.194.078-.078a.32.32,0,0,1,0,.272" transform="translate(198.027 4089.272)" fill="#4e574e"/>
  </g>
</svg>
