<svg xmlns="http://www.w3.org/2000/svg" xmlns:xlink="http://www.w3.org/1999/xlink" width="249.056" height="236.521" viewBox="0 0 249.056 236.521">
  <defs>
    <linearGradient id="linear-gradient" x1="-24.772" y1="3.2" x2="-21.329" y2="-1.633" gradientUnits="objectBoundingBox">
      <stop offset="0" stop-color="#d1b4a4"/>
      <stop offset="0.92" stop-color="#fbf9f8"/>
      <stop offset="1" stop-color="#fff"/>
    </linearGradient>
    <linearGradient id="linear-gradient-2" x1="-0.628" y1="-0.535" x2="-2.158" y2="-1.939" gradientUnits="objectBoundingBox">
      <stop offset="0.05" stop-color="#323541"/>
      <stop offset="0.3" stop-color="#3d3f4a"/>
      <stop offset="0.73" stop-color="#595b63"/>
      <stop offset="1" stop-color="#6e6f75"/>
    </linearGradient>
    <linearGradient id="linear-gradient-3" x1="0.449" y1="0.293" x2="0.704" y2="1.401" gradientUnits="objectBoundingBox">
      <stop offset="0"/>
      <stop offset="0.17" stop-color="#0b0b0b"/>
      <stop offset="0.47" stop-color="#272727"/>
      <stop offset="0.85" stop-color="#555"/>
      <stop offset="1" stop-color="#696969"/>
    </linearGradient>
    <linearGradient id="linear-gradient-4" x1="0.347" y1="-0.666" x2="0.889" y2="3.459" xlink:href="#linear-gradient-3"/>
    <linearGradient id="linear-gradient-5" x1="0.825" y1="0.991" x2="0.146" y2="-0.113" gradientUnits="objectBoundingBox">
      <stop offset="0" stop-color="#51b6fa"/>
      <stop offset="1"/>
    </linearGradient>
    <linearGradient id="linear-gradient-6" x1="0.506" y1="0.702" x2="0.498" y2="0.029" gradientUnits="objectBoundingBox">
      <stop offset="0" stop-color="#f0f0f0"/>
      <stop offset="1" stop-color="#f4f4f4"/>
    </linearGradient>
    <linearGradient id="linear-gradient-7" x1="0.506" y1="1.773" x2="0.497" y2="0.071" xlink:href="#linear-gradient-6"/>
    <linearGradient id="linear-gradient-8" x1="0.505" y1="0.7" x2="0.497" y2="0.028" xlink:href="#linear-gradient-6"/>
    <linearGradient id="linear-gradient-10" x1="0.506" y1="0.702" x2="0.498" y2="0.029" xlink:href="#linear-gradient-6"/>
    <linearGradient id="linear-gradient-11" x1="0.506" y1="1.773" x2="0.498" y2="0.071" xlink:href="#linear-gradient-6"/>
    <linearGradient id="linear-gradient-12" x1="1.697" y1="-2.197" x2="0.206" y2="2.589" gradientUnits="objectBoundingBox">
      <stop offset="0" stop-color="#d1b4a4"/>
      <stop offset="1" stop-color="#fff"/>
    </linearGradient>
    <linearGradient id="linear-gradient-13" x1="-30.908" y1="-1.762" x2="-33.149" y2="2.637" xlink:href="#linear-gradient-12"/>
    <linearGradient id="linear-gradient-14" x1="-29.972" y1="3.587" x2="-30.933" y2="0.92" gradientUnits="objectBoundingBox">
      <stop offset="0" stop-color="#ed7d88"/>
      <stop offset="1" stop-color="#ffcfcd"/>
    </linearGradient>
  </defs>
  <g id="stand-2" transform="translate(0 0)" style="isolation: isolate">
    <g id="Ebene_2" data-name="Ebene 2" transform="translate(0 0)">
      <g id="street_food_stall" data-name="street food stall">
        <path id="Pfad_5762" data-name="Pfad 5762" d="M286.038,384.867c-10.082.5-25.439-3.465-25.368-13.68.076-12.021,24.823-18.116,39.366-9.546C313.99,369.865,305.173,383.919,286.038,384.867Z" transform="translate(-137.113 -188.115)" fill="url(#linear-gradient)"/>
        <path id="Pfad_5763" data-name="Pfad 5763" d="M275.08,251.925c.2,8.229.474,11.5.915,13.774.27,1.512,3.455,14.808,3.664,18.751a37.808,37.808,0,0,1-.431,8.532v.232a.782.782,0,0,0,0,.237.569.569,0,0,0,.038.2,2.071,2.071,0,0,0,.128.607c1.194,1.313,2.844,2.422,4.55,1.792a1,1,0,0,0,.308-.175h0a3.138,3.138,0,0,0,1.128-2.564c.294-10.366,3.664-12.836,1.085-20.107-.948-3.56-2.55-3.91-2.19-6.778.175-3.839,1.521-5.351,3.223-9.75a.981.981,0,0,0,.081-.213,76.778,76.778,0,0,0,3.911-16.021,15.63,15.63,0,0,0-2.342-11.475,3.318,3.318,0,0,0-4.015-1.18c-2.038.829-4.963,1.977-6.944,2.574-.246.284-.474.55-.687.811-.071.09-.905,2.057-.986,2.142-.071.8-.573,2.024-.981,4.612a41.389,41.389,0,0,0-.445,4.266C275.037,243.578,274.838,242.758,275.08,251.925Z" transform="translate(-144.631 -119.678)" fill="#5b3832"/>
        <g id="Gruppe_94" data-name="Gruppe 94" transform="translate(130.933 111.466)" opacity="0.3" style="mix-blend-mode: multiply;isolation: isolate">
          <path id="Pfad_5764" data-name="Pfad 5764" d="M276.23,241.919a11.465,11.465,0,0,0,1.9,1.777,22.079,22.079,0,0,0,3.991,2.223,33.628,33.628,0,0,1,1.65,4.181c1.242,3.546,1.849,4.309,1.929,6.333a7.981,7.981,0,0,1-.081,2.37c-1.545,7.745-4.143,7.243-2.541,14.784,1.232,5.792,4.356,4.048,2.342,16.528-.725,4.437-1.147,5.276-1.953,5.92a5.465,5.465,0,0,1-3.607,1.076.209.209,0,0,0,0,.095.783.783,0,0,0,0,.237.57.57,0,0,0,.038.2,2.072,2.072,0,0,0,.128.607c1.194,1.313,2.844,2.422,4.55,1.792a1,1,0,0,0,.308-.175h0s.095-.081.142-.114a4.825,4.825,0,0,0,.341-.356,3.18,3.18,0,0,0,.63-1.029c0-10.9,3.792-13.627,1.1-21.174-.948-3.56-2.55-3.91-2.19-6.778.175-3.839,1.521-5.351,3.223-9.75a.983.983,0,0,0,.081-.213c1.522-3.9,1.725-4.74-.142-12.22a65.1,65.1,0,0,0-1.792-6.716,14.915,14.915,0,0,0-8.143-6.356c-.071.09-.905,2.057-.986,2.142C277.14,238.1,276.638,239.35,276.23,241.919Z" transform="translate(-276.23 -235.16)" fill="#5b3832"/>
        </g>
        <path id="Pfad_5765" data-name="Pfad 5765" d="M281,366.423c-.209-.545-.062-.583-.322-.308a4.883,4.883,0,0,1-1.924,1.147c-1.1.474-1.351.564-1.583.427a.7.7,0,0,1-.294-.422s-.1-1.962-1.18-2.346-1.555.123-3.133,2.308c-1.171,1.635-1.223,2.114-2.1,2.887a39.242,39.242,0,0,0-3.076,2.65,2.844,2.844,0,0,0-.588.948,9.311,9.311,0,0,0-.308.9h0c-.161,1.048-.408,1.541.474,2.142s3.835,1.626,5.745,1.09a5.8,5.8,0,0,0,3.925-2.692,7.688,7.688,0,0,1,3.408-3.266c.6-.247.806-1.01.848-1.844A6.963,6.963,0,0,0,281,366.423Z" transform="translate(-140.093 -191.886)" fill="#a06b5f"/>
        <path id="Pfad_5766" data-name="Pfad 5766" d="M280.851,375.86c-.043.834-.261,1.6-.853,1.853a7.539,7.539,0,0,0-3.4,3.261,5.785,5.785,0,0,1-3.939,2.688,8.739,8.739,0,0,1-5.74-1.085c-.853-.611-.63-1.048-.474-2.019a1.024,1.024,0,0,0,.536,1.156c.848.593,3.835,1.621,5.735,1.085a5.772,5.772,0,0,0,3.925-2.683,7.585,7.585,0,0,1,3.4-3.242A1.616,1.616,0,0,0,280.851,375.86Z" transform="translate(-140.073 -197.702)" fill="#a06b5f" opacity="0.5" style="mix-blend-mode: multiply;isolation: isolate"/>
        <path id="Pfad_5767" data-name="Pfad 5767" d="M295.564,246.373s.2,2.948,4.674,17.372c.773,2.5.664,3.346,1.422,6.072a28.779,28.779,0,0,0,2.844,6.707c3.839,12.267,6.636,21.235,6.769,21.714h0c.356,1.171.27,1.223.55,2.247a51.984,51.984,0,0,0,5.28-.161.033.033,0,0,0,.033,0h.038c-.071-1.384-.327-4.318-.474-7.4-.5-11.67-1-14.045-2.707-16.689-.033-.038-.043-.085-.081-.109a9.775,9.775,0,0,0-1.171-1.422,7.65,7.65,0,0,1-.82-1.019,6.777,6.777,0,0,1-.839-2.37.085.085,0,0,1,0-.057,4.349,4.349,0,0,1-.119-.531c-.327-2.057.109-7.432.318-9.361a79.286,79.286,0,0,0,.232-15.794c-.185-4.351-.815-6.878-2.735-9.537-1.9-2.569-3.7-4.944-6.816-4.228-2.479.555-7.034,5.427-7.854,7.527h0a.09.09,0,0,0-.024.047h0c-.047.095-.062.18-.095.261A6.84,6.84,0,0,0,295.564,246.373Z" transform="translate(-154.479 -121.862)" fill="#5b3832"/>
        <g id="Gruppe_95" data-name="Gruppe 95" transform="translate(139.583 111.071)" opacity="0.3" style="mix-blend-mode: multiply;isolation: isolate">
          <path id="Pfad_5768" data-name="Pfad 5768" d="M294.484,240.755h0c-.1,1.849,1.384,3.631,5.494,4.622a8.982,8.982,0,0,0,8.447-2.711c.27.792.659,1.986,1.043,3.451,3.749,13.746-3.157,26.691,1.474,30.293a8.532,8.532,0,0,1,2.73,2.811,8.177,8.177,0,0,1,.867,4.157c0,1.526,1.161,14.073,1.754,18.424.6,0,1.251-.071,1.251-.071-.948-14.059-.5-21.192-3.673-24.771-1.242-1.5-2.18-1.953-2.493-4.811a.128.128,0,0,0,0-.071,62.1,62.1,0,0,1,.284-9.338,71.3,71.3,0,0,0,.327-13.381c-.265-8.058-.863-9.238-3.455-12.8C304.457,231.37,294.726,236.252,294.484,240.755Z" transform="translate(-294.479 -234.325)" fill="#5b3832"/>
        </g>
        <path id="Pfad_5769" data-name="Pfad 5769" d="M248.5,140.726l1.777-.384s.228-.649.744-1.9a7.205,7.205,0,0,0,.355-1.351c.436-1.375,2.1-1.687,1.977-2.237-.047-.228-.36-.337-.474-.374a1.341,1.341,0,0,0-.858.095c-.611.2-.844.474-1.01.351s-.123-.393-.114-.521c.171-2.048.891-6.015.27-6.2-.261-.081-.678.711-.735.815-.569,1.081-.384,1.9-.877,3.711-.332,1.228-.427.915-.844-2.37-.171-1.341-.237-2.019-.687-2.247a.6.6,0,0,0-.635.024c-.218.18-.19.545.024,2.128,0,0,.1.725.256,2.986.085,1.223-.621-.621-1.024-1.773-.507-1.422-.593-2.119-.867-2.128s-.531.531-.621,1.043c-.142.829.294,1.251.91,3.1.389,1.18.337,1.266.308,1.285-.128.081-.611-.474-.948-1.029-.749-1.2-.687-2.01-.948-2s-.412.611-.389,1.251c.052,1.394,1.218,2.7,1.289,3.318a10.786,10.786,0,0,0,.114,2.048,2.488,2.488,0,0,0,1.616,2.256,3.228,3.228,0,0,0,1.389.085Z" transform="translate(-128.389 -67.35)" fill="#ffcfcd"/>
        <path id="Pfad_5770" data-name="Pfad 5770" d="M248.94,152.6c.114,2.711.057,14.523,3.759,17.372a3.058,3.058,0,0,0,.806.446,3.171,3.171,0,0,0,1.1.265.532.532,0,0,0,.156,0,.18.18,0,0,0,.095,0c3.318.18,7.347-1.128,10.153-1.939.782-.223,1.465-.408,2.024-.517a21.865,21.865,0,0,1,4.413-.436c-1.858-10.528-2.332-8.892-4.266-8.153-1.493.545-1.507.517-11.239,4.413-.308-.867-.683-2-1.062-3.351-.071-.194-.389-1.356-.64-2.47a39.825,39.825,0,0,1-.948-6.508,4.554,4.554,0,0,1-2.247,1.422A2.877,2.877,0,0,1,248.94,152.6Z" transform="translate(-130.943 -79.804)" fill="#49aac4"/>
        <path id="Pfad_5771" data-name="Pfad 5771" d="M256.87,182.8a3.058,3.058,0,0,0,.806.446,3.17,3.17,0,0,0,1.1.265.531.531,0,0,0,.156,0,.18.18,0,0,0,.095,0c3.318.18,7.347-1.128,10.153-1.939a1.142,1.142,0,0,1,.948-.8l.74-1.815c-.213-.7-.1-.36-.891-2.844a17.443,17.443,0,0,1-1.872,2.176,15.357,15.357,0,0,1-6.162,3.839A13.921,13.921,0,0,1,256.87,182.8Z" transform="translate(-135.114 -92.638)" fill="#49aac4" opacity="0.5" style="mix-blend-mode: multiply;isolation: isolate"/>
        <path id="Pfad_5772" data-name="Pfad 5772" d="M276.508,186.59a12.627,12.627,0,0,1,1.133,6.925,59.894,59.894,0,0,1-2.526,11.3v.052a18.781,18.781,0,0,0,14.547,4.01c5.769-.683,7.584-2.37,8.741-4a4.419,4.419,0,0,0,.711-2.678c-.052-.948-.583-1.773-1.6-3.479-1.9-3.1-1.815-2.806-1.929-3.043a10.8,10.8,0,0,1-.365-7.371,29.271,29.271,0,0,1,1.261-2.792,32.949,32.949,0,0,0,1.9-6.9v-.081a4.292,4.292,0,0,1,.768-3.73,3.5,3.5,0,0,1,1.507-1,36.149,36.149,0,0,0-3.531-2.612c-1.062-.683-11.476-6.309-16.14-3.7-2.014,1.128-1.773,2.763-3.792,6.868-.668,1.379-1.156,2.261-1.156,2.261a11.345,11.345,0,0,0-1.578,3.631,4.607,4.607,0,0,0,0,1.27,8.563,8.563,0,0,0,.711,2.844h0a11.773,11.773,0,0,0,1.228,2.067C276.451,186.467,276.48,186.538,276.508,186.59Z" transform="translate(-144.339 -87.741)" fill="#49aac4"/>
        <path id="Pfad_5773" data-name="Pfad 5773" d="M275.9,215.929v.052a18.781,18.781,0,0,0,14.547,4.01c5.769-.683,7.584-2.37,8.741-4a4.418,4.418,0,0,0,.711-2.678c-.052-.948-.583-1.773-1.6-3.479-1.9-3.1-1.815-2.806-1.929-3.043a10.8,10.8,0,0,1-.365-7.371,29.265,29.265,0,0,1,1.261-2.792,32.941,32.941,0,0,0,1.9-6.9,11.851,11.851,0,0,0-2.792-1.8c-.588,1.09-1.45,2.768-2.484,4.821-2.038,4.062-1.986,5.555-3.564,6.532a6.57,6.57,0,0,1-5.75.185c-1.9-.853-1.706-2.029-3.759-2.711-1.55-.517-2.413-.1-4.091-.882a5.6,5.6,0,0,1-.754-.4,11.776,11.776,0,0,0,1.228,2.067c.028.057.057.128.085.18a12.627,12.627,0,0,1,1.133,6.925,55.41,55.41,0,0,1-1.085,6.252C276.9,212.706,276.421,214.389,275.9,215.929Z" transform="translate(-145.124 -98.85)" fill="#49aac4" opacity="0.5" style="mix-blend-mode: multiply;isolation: isolate"/>
        <path id="Pfad_5774" data-name="Pfad 5774" d="M266.432,223.165a18.644,18.644,0,0,1,3.792.948,4.081,4.081,0,0,0,.607,3.83c-.346.071-.877.185-1.54.351-.185.043-.265.062-.374.095-.578.166-.744.318-1.114.408a2.293,2.293,0,0,1-.815.052,1.422,1.422,0,0,1-.872.583,1.209,1.209,0,0,1-.948-.175c-.6.583-1.422.55-1.559.346l-.09-.213a3.261,3.261,0,0,0-1.313-.246,4.066,4.066,0,0,0-.863.123,10.525,10.525,0,0,1-1.294.351c-.5,0-1.18-.218-1.209-.5-.057-.569,2.574-.848,4.451-2.844.412-.441.687-.872.573-1.228-.147-.474-.948-.777-1.294-.92-.5-.218-.531-.2-.607-.289-.294-.318-.28-1.014,0-1.19.379-.232.882.175,1.455.4C264.6,223.444,264.783,222.946,266.432,223.165Z" transform="translate(-136.149 -117.073)" fill="#ffcfcd"/>
        <path id="Pfad_5775" data-name="Pfad 5775" d="M280.983,204.29a2.626,2.626,0,0,0,1.422,1.422h.085l.251-.028h0a10.888,10.888,0,0,1,2.526-.223c2.114-.071,9.371,1,13.585-1.19.616-.3.758-.251,1.749-2.275l1.033-2.038h0c2.076-4.422,6.342-14.623,3.181-18.349a3.264,3.264,0,0,0-2.441-1.27,3.38,3.38,0,0,0-2.247,1.19,7.745,7.745,0,0,0-2.014,3.418c-2.413,7.849-1.616,7.641-3.574,13.447a.873.873,0,0,1-.36.185c-8.333,2.285-8.395,2.252-9.831,2.541l-2.583.5A2.227,2.227,0,0,0,280.983,204.29Z" transform="translate(-147.723 -94.857)" fill="#49aac4"/>
        <path id="Pfad_5776" data-name="Pfad 5776" d="M284.29,207.1l.251-.028h0a10.889,10.889,0,0,1,2.526-.223c2.114-.071,9.371,1,13.585-1.19.616-.3.758-.251,1.749-2.275,0,0,.427-.777,1.033-2.038h0c2.1-4.266,6.29-14.694,3.181-18.348-1.536.2.422,9.954-5.5,19.6a4.794,4.794,0,0,1-2.138,2.223C295.192,207.036,291.955,205.406,284.29,207.1Z" transform="translate(-149.537 -96.257)" fill="#49aac4" opacity="0.2" style="mix-blend-mode: multiply;isolation: isolate"/>
        <path id="Pfad_5777" data-name="Pfad 5777" d="M302.37,169.991h0c-.275.82-2.583,3.574-6.043,4.678-3.792,1.2-5.176-2.3-2.626-5.133a3.91,3.91,0,0,1,2.972-1.356C298.744,168.768,301.218,169.616,302.37,169.991Z" transform="translate(-153.805 -88.462)" fill="#ffcfcd"/>
        <path id="Pfad_5778" data-name="Pfad 5778" d="M302.37,170.354h0c-.275.82-2.583,3.574-6.043,4.678-3.792,1.2-5.176-2.3-2.626-5.133a4.076,4.076,0,0,1,1.4-1.029c-.071.251-.213.621-.213.621a6.081,6.081,0,0,1-1.228,2.318,1.336,1.336,0,0,0-.4.749,1.721,1.721,0,0,0,.678,1.308c.521.422,1.422.54,2.958.161,2.436-.592,3.792-3.6,4.034-4.157C301.488,170.05,302,170.221,302.37,170.354Z" transform="translate(-153.805 -88.825)" fill="#ffcfcd" opacity="0.5" style="mix-blend-mode: multiply;isolation: isolate"/>
        <path id="Pfad_5779" data-name="Pfad 5779" d="M302.5,167.927a6.636,6.636,0,0,1-3,1.811,4.74,4.74,0,0,1-4.74-1.048,4.266,4.266,0,0,0-.275-4.479c2.612-.147,6.309-1.147,8.129-1.261A10.063,10.063,0,0,0,302.5,167.927Z" transform="translate(-154.897 -85.711)" fill="#ffcfcd"/>
        <path id="Pfad_5780" data-name="Pfad 5780" d="M300.042,149.6a5.417,5.417,0,0,1-2.256.758,5.384,5.384,0,0,1-1.076,1.142,12.629,12.629,0,0,1-2.7,1.536h0a4.266,4.266,0,0,1-2.422.351c-1.9-.474-3.536-3.266-3.816-6.257a18.767,18.767,0,0,1,.128-2.844c.242-2.877.536-3.522.848-3.967A4.394,4.394,0,0,1,290.2,139l6.826-1.147,5.579,4.621a29.307,29.307,0,0,1-1.422,5.257h0A3.9,3.9,0,0,1,300.042,149.6Z" transform="translate(-151.363 -72.508)" fill="#ffcfcd"/>
        <path id="Pfad_5781" data-name="Pfad 5781" d="M302.208,152.425a5.418,5.418,0,0,1-2.256.758,5.385,5.385,0,0,1-1.076,1.142,12.626,12.626,0,0,1-2.7,1.536,7.839,7.839,0,0,0,2.555-3.73,7.048,7.048,0,0,0-.427-4.536l-.09.687a6.252,6.252,0,0,1-6.333-4.612,8.66,8.66,0,0,1,5.148-.114c3.157.948,6.119,4.11,6.337,7.034h0A3.9,3.9,0,0,1,302.208,152.425Z" transform="translate(-153.529 -75.333)" fill="#ffcfcd"/>
        <path id="Pfad_5782" data-name="Pfad 5782" d="M289.217,132.223a9.006,9.006,0,0,1,3.982-2.1,6.939,6.939,0,0,1,5.129.8,8.059,8.059,0,0,1,2.318,2.052,8.3,8.3,0,0,1,1.365,2.726,2.607,2.607,0,0,1,1.076,1.929,2.55,2.55,0,0,1-.758,1.9,2.8,2.8,0,0,1,.64,2.152,2.726,2.726,0,0,1-.872,1.631,3.317,3.317,0,0,1,.062,2.446,3.2,3.2,0,0,0-.517,1.422,2.119,2.119,0,0,0,.341,1.09,7.267,7.267,0,0,1,.777,3.318,6.849,6.849,0,0,1-4.356-1.559,4.062,4.062,0,0,1-1.564-3.82,11.376,11.376,0,0,0,1.9-.683,2.512,2.512,0,0,0,.7-.867,2.005,2.005,0,0,0,.095-1.844c-.313-.574-1-1.076-1.616-.782a1.062,1.062,0,0,0-.351.261,1.129,1.129,0,0,0-.284.583,2.871,2.871,0,0,0-.123,1.166,4.427,4.427,0,0,1-1.465,3.024c-.095-.038.095-.441.28-1.7.038-.28.071-.607.09-.948v-.7c0-.574-.5-4.133-2.906-5.314-.749-.37-.948-.142-2.56-.758a16.034,16.034,0,0,1-1.768-.8,3.736,3.736,0,0,0-1.209,1.194,4.551,4.551,0,0,0-.569,2.247,32.608,32.608,0,0,0-.043,3.792,12.163,12.163,0,0,1-.972-3.892C286,139.741,285.615,135.133,289.217,132.223Z" transform="translate(-150.44 -68.346)" fill="#4f302c"/>
        <path id="Pfad_5783" data-name="Pfad 5783" d="M329.611,382.368a6.66,6.66,0,0,0,.6,2.185.339.339,0,0,0,.033.052c.8,1.768,2.128,2.147,4.11,2.1a6.02,6.02,0,0,0,.853-.062c.327-.043.683-.095,1.071-.175h0a2.6,2.6,0,0,0,1.853-2.735v-.014a38.809,38.809,0,0,0-1.9-9.622c-.114-.152-.242-.246-.294-.228s-.071.4-.166.6a.4.4,0,0,1-.327.218H335.4a.123.123,0,0,1-.052,0,.408.408,0,0,1-.265-.185,1.8,1.8,0,0,0-.8-.763,2.006,2.006,0,0,0-.948-.175h0a2.753,2.753,0,0,0-1.578.474,4.7,4.7,0,0,0-1.062,1.1,3.757,3.757,0,0,0-.19-.829c-.043.365-.915,6.636-.891,6.47a7.216,7.216,0,0,0-.043.806A5.766,5.766,0,0,0,329.611,382.368Z" transform="translate(-173.358 -196.493)" fill="#a06b5f"/>
        <path id="Pfad_5784" data-name="Pfad 5784" d="M329.555,391.128a8.261,8.261,0,0,0,.431,1.8v.038c.043.1.085.209.128.3s0,.033,0,.052a.345.345,0,0,0,.033.052c.8,1.768,2.128,2.147,4.11,2.1a6.028,6.028,0,0,0,.853-.062,9.536,9.536,0,0,0,1.071-.175h0a2.611,2.611,0,0,0,1.844-2.787,2.072,2.072,0,0,1-.36.858c-.536.834-7.062,2.422-8.058-2.569-.062-.351-.095-.72-.137-.389a5.777,5.777,0,0,0,.085.782Z" transform="translate(-173.302 -205.254)" fill="#a06b5f" opacity="0.5" style="mix-blend-mode: multiply;isolation: isolate"/>
        <path id="Pfad_5785" data-name="Pfad 5785" d="M329.94,391.62a2.307,2.307,0,0,0,.218.73A6.656,6.656,0,0,1,329.94,391.62Z" transform="translate(-173.549 -205.992)" fill="#a98575" opacity="0.3" style="mix-blend-mode: screen;isolation: isolate"/>
        <path id="Pfad_5786" data-name="Pfad 5786" d="M306.026,329.748l-14.248,8c-23.226,13.153-60.895,13.035-83.9-.261-22.889-13.172-23.482-35.014-.716-48.6l14.22-8.03Z" transform="translate(-100.149 -147.732)" fill="#ede2dc"/>
        <g id="Gruppe_96" data-name="Gruppe 96" transform="translate(82.87 135.726)" style="isolation: isolate">
          <path id="Pfad_5787" data-name="Pfad 5787" d="M245.667,312.479c-5.5,3.365-8.248,7.627-8.257,11.888v4.84c0-4.266,2.759-8.532,8.257-11.888l.8-.474V312.01Z" transform="translate(-207.748 -299.842)" fill="url(#linear-gradient-2)"/>
          <path id="Pfad_5788" data-name="Pfad 5788" d="M255.966,322.985l-.834.474c-11.826,6.536-30.175,6.418-41.755-.27s-11.85-17.315-.607-24.174l.8-.474-21.131-12.2-.839.5c-1.45.825-16.528,9.689-16.765,24.055-.2,12.035,10.03,19.87,16.623,24.923,22.321,17.069,50.67,12.224,58.15,10.651,14.831-3.119,24.174-9.428,27.492-11.286Z" transform="translate(-174.833 -286.34)" fill="#fcedce"/>
          <path id="Pfad_5789" data-name="Pfad 5789" d="M276.21,362.853C259.1,372.537,235,374.7,215.163,370.8c-15.509-3.038-34.7-11.471-39.375-26.5a21.065,21.065,0,0,1-.948-6.28,61.387,61.387,0,0,0,.1,6.911c1.422,14.286,16.671,23.776,30.45,28.2,21.97,7.063,51.211,5.641,70.811-5.441l.863-.474v-4.835Z" transform="translate(-174.832 -313.524)" fill="#f1b988"/>
        </g>
        <g id="Gruppe_97" data-name="Gruppe 97" transform="translate(83.887 97.171)" style="isolation: isolate">
          <path id="Pfad_5790" data-name="Pfad 5790" d="M235.029,241.047l-.109,39.129c0-4.451,2.844-8.9,8.532-12.357l.109-39.129C237.878,232.155,235.043,236.6,235.029,241.047Z" transform="translate(-207.456 -217.461)" fill="#9b9b9b"/>
          <path id="Pfad_5791" data-name="Pfad 5791" d="M276.566,279.016v4.9c0,.64-.085,33.569-.085,34.208-23.307,13.163-61.572,13.068-84.324-1.512-7.584-4.8-13.955-11.518-15.035-20.434,0-.071-.066-.588-.085-.673h0c-.142-1.232.024-33.7.024-34.943V254.7c0,9.442,6.494,17.064,14.282,22.278a56.589,56.589,0,0,0,7.025,3.934l.19.085c1.484.711,3.015,1.36,4.607,1.986a91.058,91.058,0,0,0,29.772,5.655,97.669,97.669,0,0,0,24.307-2.323h.024a78.161,78.161,0,0,0,15.2-5.171C273.869,280.476,275.249,279.765,276.566,279.016Z" transform="translate(-176.979 -231.142)" fill="#afca0b"/>
          <path id="Pfad_5792" data-name="Pfad 5792" d="M257.213,241.659c-12.163,6.726-31.436,6.636-43.409-.28s-12.2-18.078-.635-25.15L193.735,205c-22.278,13.272-22.031,34.526.692,47.646s59.378,13.187,82.253.242Z" transform="translate(-177.097 -205)" fill="#a3a5a8"/>
        </g>
        <path id="Pfad_5793" data-name="Pfad 5793" d="M353.111,306v4.9c0,.64-.085,33.569-.085,34.208a61.762,61.762,0,0,1-8.248,3.877L322.5,318.651l11.286-5.4h.024a78.172,78.172,0,0,0,15.2-5.171C350.414,307.46,351.793,306.749,353.111,306Z" transform="translate(-169.635 -160.955)" fill="#92a80b"/>
        <path id="Pfad_5794" data-name="Pfad 5794" d="M276.641,285.6v4.854c-19.6,10.722-48.381,11.978-70.076,5.034-12.191-3.915-25.553-11.812-29.435-23.491,0-1.555,0-3.18.024-4.906,3.048,9.215,11.585,15.9,21.292,20.382,0,0,.147.085,2.6,1.128a83.069,83.069,0,0,0,15.329,4.517c18.012,3.526,39.541,2.076,56.174-5.484A45.707,45.707,0,0,0,276.641,285.6Z" transform="translate(-93.171 -140.489)" fill="#92a80b"/>
        <g id="Gruppe_98" data-name="Gruppe 98" transform="translate(82.857 92.853)" style="isolation: isolate">
          <path id="Pfad_5795" data-name="Pfad 5795" d="M245.667,222.124c-5.5,3.365-8.248,7.631-8.257,11.893v4.835c0-4.266,2.759-8.532,8.257-11.888l.8-.474v-4.84Z" transform="translate(-207.735 -209.44)" fill="#f1b988"/>
          <path id="Pfad_5796" data-name="Pfad 5796" d="M276.21,272.443c-17.107,9.684-41.209,11.85-61.046,7.949-15.509-3.034-34.7-11.471-39.375-26.5a21.065,21.065,0,0,1-.948-6.28,61.389,61.389,0,0,0,.1,6.911c1.422,14.291,16.671,23.776,30.45,28.2,21.994,7.067,51.235,5.65,70.834-5.441l.863-.474v-4.84Z" transform="translate(-174.819 -223.095)" fill="#f1b988"/>
          <path id="Pfad_5797" data-name="Pfad 5797" d="M277.068,244.764l-.867.474c-29.729,16.846-80.684,11.3-96.89-11.49a25.074,25.074,0,0,1-3.631-7.323c-3.133-10.556,2.147-21.8,15.893-30.023l.834-.512L213.538,208.1l-.8.474c-7.006,4.3-9.546,10.044-7.66,15.372a15.816,15.816,0,0,0,5.688,7.148,26.546,26.546,0,0,0,2.56,1.673c11.575,6.683,29.928,6.8,41.75.275l.844-.474Z" transform="translate(-174.805 -195.89)" fill="#fcedce"/>
        </g>
        <path id="Pfad_5798" data-name="Pfad 5798" d="M205.066,223.941a15.816,15.816,0,0,0,5.688,7.148l-31.474,2.659a25.075,25.075,0,0,1-3.631-7.323c-3.133-10.556,2.147-21.8,15.893-30.023l.834-.512L213.508,208.1l-.8.474C205.72,212.869,203.179,218.614,205.066,223.941Z" transform="translate(-91.932 -103.037)" fill="url(#linear-gradient-3)" style="mix-blend-mode: screen;isolation: isolate"/>
        <path id="Pfad_5799" data-name="Pfad 5799" d="M276.565,349.94l-.024,4.854c-19.576,10.637-48.281,11.94-69.972,4.963-12.1-3.892-25.4-11.7-29.355-23.259a1.154,1.154,0,0,1-.085-.232v-.474c0-1.422,0-2.891.024-4.441,3.057,9.215,11.58,15.893,21.292,20.354,0,0,.8.393,2.6,1.133C224.378,362.468,255.833,361.127,276.565,349.94Z" transform="translate(-93.171 -174.29)" fill="#92a80b"/>
        <g id="Gruppe_99" data-name="Gruppe 99" transform="translate(82.86 142.153)" style="isolation: isolate">
          <path id="Pfad_5800" data-name="Pfad 5800" d="M277.07,330.378A84.4,84.4,0,0,1,249.6,341.664c-7.48,1.578-35.863,6.432-58.174-10.674-8.921-6.854-16.618-13.746-16.618-24.965a21.61,21.61,0,0,1,1.038-6.124c-.028,7.608,0,6.84.076,7.759,1.479,14.732,18.045,24.278,32.369,28.411,20.752,5.972,48.063,4.621,67-6.1v-.611Z" transform="translate(-174.81 -299.9)" fill="#fcedce"/>
          <path id="Pfad_5801" data-name="Pfad 5801" d="M276.21,337.683c-17.107,9.684-41.209,11.85-61.046,7.949-15.509-3.038-34.7-11.471-39.375-26.5a21.066,21.066,0,0,1-.948-6.281,61.388,61.388,0,0,0,.1,6.911c1.422,14.291,16.671,23.776,30.45,28.2,21.994,7.067,51.235,5.65,70.834-5.442l.863-.474v-4.835Z" transform="translate(-174.821 -306.712)" fill="#f1b988"/>
        </g>
        <path id="Pfad_5802" data-name="Pfad 5802" d="M218.342,53.1a1.09,1.09,0,0,0-.645-.9,3.479,3.479,0,0,0-3.143,0,1.076,1.076,0,0,0-.645.9h0v76.456h0a1.1,1.1,0,0,0,.659.905,3.493,3.493,0,0,0,3.128,0,1.119,1.119,0,0,0,.645-.915h0Z" transform="translate(-112.517 -27.261)" fill="#7e5165"/>
        <path id="Pfad_5803" data-name="Pfad 5803" d="M360.992,129.382a1.076,1.076,0,0,0-.645-.9,3.474,3.474,0,0,0-3.147,0,1.067,1.067,0,0,0-.64.891h0v76.456h0a1.119,1.119,0,0,0,.683.91,3.494,3.494,0,0,0,3.128,0,1.109,1.109,0,0,0,.645-.915h0V129.382Z" transform="translate(-187.551 -67.382)" fill="#7e5165"/>
        <path id="Pfad_5804" data-name="Pfad 5804" d="M283.643,55.931c-1.133-12.841-9.864-27.264-20.524-33.422C227.047,1.686,227.4,1.653,224.251.639a15.394,15.394,0,0,0-10.333.607,12.983,12.983,0,0,0-6.006,4.683c-3.015,4.219-3.152,10.532-3.152,10.532v8.447L280.6,68.89l3.048-1.778S283.823,58.016,283.643,55.931Z" transform="translate(-107.704 0.002)" fill="#92a80b"/>
        <path id="Pfad_5805" data-name="Pfad 5805" d="M280.6,62.235v8.456L229.613,41.1,204.78,26.7V18.267c0-13.272,9.423-18.657,20.979-12l3.873,2.237L260.077,26.1c.474.27.948.564,1.422.877C272.344,34.075,280.634,49.5,280.6,62.235Z" transform="translate(-107.715 -1.794)" fill="#afca0b"/>
        <path id="Pfad_5806" data-name="Pfad 5806" d="M257.4,34.786,225.5,48.958l-17.756-10.3L239.73,24.59Z" transform="translate(-109.272 -12.933)" fill="url(#linear-gradient-4)" style="mix-blend-mode: screen;isolation: isolate"/>
        <g id="Gruppe_100" data-name="Gruppe 100" transform="translate(86.339 113.656)" opacity="0.5" style="mix-blend-mode: multiply;isolation: isolate">
          <path id="Pfad_5807" data-name="Pfad 5807" d="M203.575,246.217,193.3,252.189l-11.153-6.442,10.272-5.968Z" transform="translate(-182.15 -239.78)" fill="#ca9983"/>
        </g>
        <path id="Pfad_5808" data-name="Pfad 5808" d="M205.673,233.322l-.611.351-4.588-3.346-5.11-2.944-3.2-12.608-.379-1.465.6.346,9.7,5.607.374,1.45Z" transform="translate(-100.877 -112.2)" fill="#e5d6c3"/>
        <path id="Pfad_5809" data-name="Pfad 5809" d="M205.061,233.673l-10.3-5.953-2.986-14.41,9.7,6.276Z" transform="translate(-100.877 -112.2)" fill="#c4a57e"/>
        <path id="Pfad_5810" data-name="Pfad 5810" d="M199.088,221.1l-1.981,9.613-1.417,6.835-.763.441-.455-1.142-9.091-5.238,3.413-16.448.218-1.119,9.7,5.607Z" transform="translate(-97.51 -112.584)" fill="#e5d6c3"/>
        <path id="Pfad_5811" data-name="Pfad 5811" d="M187.572,213.31l-3.792,18.344,10.3,5.949,3.792-18.348Z" transform="translate(-96.669 -112.2)" fill="#f9f1e6"/>
        <path id="Pfad_5812" data-name="Pfad 5812" d="M200.332,223.7l-.171.829-6.911-3.991.171-.83Z" transform="translate(-101.65 -115.567)" fill="#e5d6c3"/>
        <path id="Pfad_5813" data-name="Pfad 5813" d="M199.062,229.406l-.171.83-6.911-3.991.171-.825Z" transform="translate(-100.982 -118.57)" fill="#e5d6c3"/>
        <path id="Pfad_5814" data-name="Pfad 5814" d="M197.8,235.116l-.171.83-6.906-3.991.171-.825Z" transform="translate(-100.319 -121.574)" fill="#e5d6c3"/>
        <path id="Pfad_5815" data-name="Pfad 5815" d="M196.527,240.821l-.171.829-6.906-3.991.171-.829Z" transform="translate(-99.651 -124.572)" fill="#e5d6c3"/>
        <path id="Pfad_5816" data-name="Pfad 5816" d="M331.032,300.848c-1.853-1.071-1.834-2.8-.024-3.844,2.844-1.65,7.726-.583,8.011,1.735C339.346,301.237,334.08,302.616,331.032,300.848Z" transform="translate(-173.394 -155.804)" fill="#ca9983"/>
        <path id="Pfad_5817" data-name="Pfad 5817" d="M336.769,278.945a1.678,1.678,0,0,1-.806,1.65h0a3.961,3.961,0,0,1-.578.341,6.276,6.276,0,0,1-5.427-.133,2.047,2.047,0,0,1-1.185-1.649v-13.6c-.071-.678-.142-4.768,2.086-6.394a3.289,3.289,0,0,1,4.005,0c1.749,1.318,2.01,4.323,1.9,6.423v7.973Z" transform="translate(-172.922 -135.958)" fill="#ffea73"/>
        <path id="Pfad_5818" data-name="Pfad 5818" d="M330.3,285.634a1.958,1.958,0,0,1-1.123-1.574V270.281h0a1.9,1.9,0,0,1,1.109-1.56,5.954,5.954,0,0,1,5.4,0,2.014,2.014,0,0,1,1.114,1.422v13.713C337.153,285.923,332.835,287.094,330.3,285.634Z" transform="translate(-173.149 -141.007)" fill="#ffdf2a"/>
        <g id="Gruppe_101" data-name="Gruppe 101" transform="translate(155.838 129.28)" opacity="0.5">
          <path id="Pfad_5819" data-name="Pfad 5819" d="M335.612,273.424c1.569.905,1.574,2.37,0,3.285a6.224,6.224,0,0,1-5.66,0c-1.569-.91-1.574-2.37,0-3.285A6.214,6.214,0,0,1,335.612,273.424Z" transform="translate(-328.774 -272.742)" fill="#ffb23d"/>
        </g>
        <g id="Gruppe_102" data-name="Gruppe 102" transform="translate(156.04 127.073)" opacity="0.5">
          <path id="Pfad_5820" data-name="Pfad 5820" d="M336.822,270.471a2,2,0,0,1-1.1,1.389,5.939,5.939,0,0,1-5.4,0,1.924,1.924,0,0,1-1.123-1.569h0a1.9,1.9,0,0,1,1.109-1.559,5.954,5.954,0,0,1,5.4,0,2.015,2.015,0,0,1,1.114,1.422A1.19,1.19,0,0,1,336.822,270.471Z" transform="translate(-329.2 -268.085)" fill="#ffc12a"/>
        </g>
        <path id="Pfad_5821" data-name="Pfad 5821" d="M330.335,300.9c-1.493-.863-1.5-2.261,0-3.119,2.147-1.247,5.854-.588,6.442,1.138C337.5,301.079,332.976,302.434,330.335,300.9Z" transform="translate(-173.167 -156.295)" fill="#ffc12a"/>
        <g id="Gruppe_103" data-name="Gruppe 103" transform="translate(158.533 122.759)" opacity="0.5">
          <path id="Pfad_5822" data-name="Pfad 5822" d="M339.413,266.476s-.038,12.442-.038,12.466c-.166.976-1.365,1.7-2.82,1.958a1.645,1.645,0,0,0,.754-1.607c0-.024,0-12.8.038-12.8.09-2-.332-5.622-1.939-6.83a3.5,3.5,0,0,0-.948-.512,3.261,3.261,0,0,1,3.029.512C339.077,260.855,339.5,264.481,339.413,266.476Z" transform="translate(-334.46 -258.984)" fill="#ffb23d"/>
        </g>
        <path id="Pfad_5823" data-name="Pfad 5823" d="M332.832,280.268c.265.147-2.64.232-2.635-1.744V267.015a30.334,30.334,0,0,1,.332-4.948,4.174,4.174,0,0,1,1.754-2.9,3.318,3.318,0,0,1,2.944-.54,3.555,3.555,0,0,0-1.081.54,4.18,4.18,0,0,0-1.759,2.9,30.862,30.862,0,0,0-.332,4.948v12.153a1.27,1.27,0,0,0,.777,1.1Z" transform="translate(-173.682 -135.968)" fill="url(#linear-gradient-5)" style="mix-blend-mode: screen;isolation: isolate"/>
        <path id="Pfad_5824" data-name="Pfad 5824" d="M336.811,277.907v7.5c-.175,1.01-1.384,1.73-2.844,1.981a6.162,6.162,0,0,1-3.977-.583,2.038,2.038,0,0,1-1.18-1.65V277.67c0,1.536,2.541,2.683,5.152,2.233C335.422,279.642,336.636,278.926,336.811,277.907Z" transform="translate(-172.955 -146.054)" fill="#fff"/>
        <path id="Pfad_5825" data-name="Pfad 5825" d="M337.1,257.291v.588a.915.915,0,0,1-.531.739c-1.085.63-2.944.237-3.1-.63v-.706c0-.948,1.948-1.422,3.1-.74a.891.891,0,0,1,.536.773Z" transform="translate(-175.406 -134.771)" fill="#ffc12a"/>
        <path id="Pfad_5826" data-name="Pfad 5826" d="M336.55,256.558a.785.785,0,0,1,0,1.488,2.844,2.844,0,0,1-2.574,0,.785.785,0,0,1,0-1.488A2.844,2.844,0,0,1,336.55,256.558Z" transform="translate(-175.391 -134.787)" fill="#bf6900"/>
        <path id="Pfad_5827" data-name="Pfad 5827" d="M337.106,254.116v1.422a.915.915,0,0,1-.531.739c-1.081.63-2.939.237-3.1-.635V254.1c0-.948,1.953-1.422,3.1-.739a.9.9,0,0,1,.536.773Z" transform="translate(-175.411 -133.098)" fill="#ffdf2a"/>
        <path id="Pfad_5828" data-name="Pfad 5828" d="M336.553,253.39a.785.785,0,0,1,0,1.488,2.844,2.844,0,0,1-2.569,0,.784.784,0,0,1,0-1.488A2.844,2.844,0,0,1,336.553,253.39Z" transform="translate(-175.394 -133.121)" fill="#ffc12a"/>
        <path id="Pfad_5829" data-name="Pfad 5829" d="M307.142,305.868a1.36,1.36,0,0,1,0-2.579c1.9-1.1,5.181-.389,5.37,1.166C312.717,306.124,309.195,307.053,307.142,305.868Z" transform="translate(-161.07 -159.25)" fill="#ca9983"/>
        <path id="Pfad_5830" data-name="Pfad 5830" d="M311.316,295.921l-5.532-.147s-.649-7.826-.607-8.1h0a1.844,1.844,0,0,1,.948-1.166c1.977-1.152,5.441-.474,5.8,1.157C311.961,287.726,311.33,295.812,311.316,295.921Z" transform="translate(-160.523 -150.402)" fill="#d6bdb2"/>
        <path id="Pfad_5831" data-name="Pfad 5831" d="M308.529,285.859v.118c1.678,0,3.1.706,3.318,1.635v.3c-.18,2.019-.611,7.821-.611,7.821l-5.323-.137c-.024-.28-.64-7.712-.6-7.973.2-.976,1.678-1.645,3.237-1.645v-.118Zm0,0c-1.687,0-3.152.744-3.351,1.744h0c-.043.27.607,8.1.607,8.1l5.532.147c0-.09.645-8.176.63-8.262-.237-1.076-1.806-1.735-3.418-1.735Z" transform="translate(-160.523 -150.357)" fill="url(#linear-gradient-6)"/>
        <path id="Pfad_5832" data-name="Pfad 5832" d="M311.99,302.171s-.071.948-.085,1.152c0,.45-.365.848-.924,1.128-1.82.915-4.475.213-4.631-1.095,0,0-.1-1.422-.109-1.422.076-.744.92-1.218,1.64-1.422C309.7,300.023,312.108,300.749,311.99,302.171Z" transform="translate(-161.083 -157.989)" fill="#f0f0f0"/>
        <path id="Pfad_5833" data-name="Pfad 5833" d="M308.278,303.627c-1.943-.36-2.692-1.787-1.285-2.7,1.678-1.09,4.83-.474,5.01,1C312.165,303.162,310.074,303.949,308.278,303.627Z" transform="translate(-161.097 -157.995)" fill="#ffc12a"/>
        <path id="Pfad_5834" data-name="Pfad 5834" d="M311.577,296.345c-.137.7-1.062,1.1-1.759,1.256-1.744.4-3.6-.3-3.768-1.3,0,0-.427-4.986-.384-5.067a1.725,1.725,0,0,1,.9-1.085c1.834-1.071,5.053-.446,5.385,1.071C311.985,291.463,311.6,295.957,311.577,296.345Z" transform="translate(-160.78 -152.334)" fill="#ffdf2a"/>
        <g id="Gruppe_104" data-name="Gruppe 104" transform="translate(144.881 137.22)" opacity="0.5">
          <path id="Pfad_5835" data-name="Pfad 5835" d="M306.582,292.606c-1.242-.72-1.228-1.9,0-2.579,1.9-1.1,5.181-.389,5.37,1.161C312.157,292.862,308.635,293.786,306.582,292.606Z" transform="translate(-305.656 -289.493)" fill="#ffc12a"/>
        </g>
        <g id="Gruppe_105" data-name="Gruppe 105" transform="translate(148.997 138.48)" style="mix-blend-mode: multiply;isolation: isolate">
          <path id="Pfad_5836" data-name="Pfad 5836" d="M316.075,292.15c-.028.346.052-1.318-.659,6.162a3.007,3.007,0,0,1-1.076.446c.692-7.257.626-5.783.645-6A3.12,3.12,0,0,0,316.075,292.15Z" transform="translate(-314.34 -292.15)" fill="#f4f4f4"/>
        </g>
        <path id="Pfad_5837" data-name="Pfad 5837" d="M315.227,305.15l-.171,1.82a4.081,4.081,0,0,1-1.066.341l.161-1.716a3,3,0,0,0,1.076-.446Z" transform="translate(-165.159 -160.508)" fill="#fbfbfb" style="mix-blend-mode: multiply;isolation: isolate"/>
        <path id="Pfad_5838" data-name="Pfad 5838" d="M308.5,300.744a3.443,3.443,0,0,1-1.076-.393c-.4-4.3-.583-6.9-.635-7.65a3.651,3.651,0,0,0,1.086.507C308.131,295.582,308.25,297.772,308.5,300.744Z" transform="translate(-161.372 -153.96)" fill="#f9f9f9" style="mix-blend-mode: soft-light;isolation: isolate"/>
        <path id="Pfad_5839" data-name="Pfad 5839" d="M311.417,286.791c-1.678-1.555-5.9-1.038-6.266.825h0c-.209.948.844,1.692,1.853,1.991C310.132,290.541,313.251,288.45,311.417,286.791Zm-5.148,2.37a1.517,1.517,0,0,1-.9-1.5h0a1.763,1.763,0,0,1,.905-1.085c1.849-1.081,5.086-.446,5.413,1.076.4,1.664-3.228,2.8-5.423,1.5Z" transform="translate(-160.496 -150.369)" fill="url(#linear-gradient-7)"/>
        <path id="Pfad_5840" data-name="Pfad 5840" d="M278.972,305.868a1.36,1.36,0,0,1,0-2.579c1.9-1.1,5.181-.389,5.37,1.166C284.551,306.124,281.029,307.053,278.972,305.868Z" transform="translate(-146.253 -159.25)" fill="#ca9983"/>
        <path id="Pfad_5841" data-name="Pfad 5841" d="M283.186,295.921l-5.532-.147s-.649-7.826-.607-8.1h0a1.844,1.844,0,0,1,.948-1.166c1.977-1.152,5.442-.474,5.8,1.157C283.816,287.726,283.186,295.812,283.186,295.921Z" transform="translate(-145.727 -150.402)" fill="#d6bdb2"/>
        <path id="Pfad_5842" data-name="Pfad 5842" d="M280.369,285.87v.119c1.678,0,3.1.706,3.318,1.635v.3c-.18,2.019-.611,7.821-.611,7.821l-5.323-.137c0-.28-.64-7.712-.6-7.973.2-.976,1.678-1.645,3.237-1.645v-.119Zm0,0c-1.687,0-3.152.744-3.351,1.744h0c-.043.27.607,8.1.607,8.1l5.546.175c0-.09.645-8.176.63-8.262-.237-1.076-1.806-1.735-3.417-1.735Z" transform="translate(-145.711 -150.367)" fill="url(#linear-gradient-8)"/>
        <path id="Pfad_5843" data-name="Pfad 5843" d="M283.83,302.171s-.071.948-.085,1.152c0,.45-.365.848-.924,1.128-1.82.915-4.475.213-4.631-1.095,0,0-.1-1.422-.109-1.422.076-.744.92-1.218,1.64-1.422C281.535,300.023,283.948,300.749,283.83,302.171Z" transform="translate(-146.271 -157.989)" fill="#f0f0f0"/>
        <path id="Pfad_5844" data-name="Pfad 5844" d="M280.118,303.627c-1.943-.36-2.692-1.787-1.285-2.7,1.678-1.09,4.83-.474,5.01,1C284,303.162,281.914,303.949,280.118,303.627Z" transform="translate(-146.284 -157.995)" fill="#ffc12a"/>
        <path id="Pfad_5845" data-name="Pfad 5845" d="M283.438,296.345c-.138.7-1.062,1.1-1.759,1.256-1.744.4-3.6-.3-3.768-1.3,0,0-.427-4.986-.384-5.067a1.725,1.725,0,0,1,.9-1.085c1.834-1.071,5.053-.446,5.385,1.071C283.845,291.463,283.438,295.957,283.438,296.345Z" transform="translate(-145.978 -152.334)" fill="#ffdf2a"/>
        <g id="Gruppe_106" data-name="Gruppe 106" transform="translate(131.533 137.22)" opacity="0.5">
          <path id="Pfad_5846" data-name="Pfad 5846" d="M278.422,292.606c-1.242-.72-1.228-1.9,0-2.579,1.9-1.1,5.181-.389,5.37,1.161C284,292.862,280.475,293.786,278.422,292.606Z" transform="translate(-277.496 -289.493)" fill="#ffc12a"/>
        </g>
        <g id="Gruppe_107" data-name="Gruppe 107" transform="translate(135.644 138.48)" style="mix-blend-mode: multiply;isolation: isolate">
          <path id="Pfad_5847" data-name="Pfad 5847" d="M287.9,292.15c-.028.346.052-1.318-.659,6.162a3.006,3.006,0,0,1-1.076.446c.692-7.257.626-5.783.645-6A3.119,3.119,0,0,0,287.9,292.15Z" transform="translate(-286.17 -292.15)" fill="#f4f4f4"/>
        </g>
        <path id="Pfad_5848" data-name="Pfad 5848" d="M287.067,305.15l-.171,1.82a4.083,4.083,0,0,1-1.066.341l.161-1.716A3,3,0,0,0,287.067,305.15Z" transform="translate(-150.347 -160.508)" fill="#fbfbfb" style="mix-blend-mode: multiply;isolation: isolate"/>
        <path id="Pfad_5849" data-name="Pfad 5849" d="M280.346,300.744a3.43,3.43,0,0,1-1.081-.393c-.4-4.3-.583-6.9-.635-7.65a3.651,3.651,0,0,0,1.085.507C279.971,295.582,280.09,297.772,280.346,300.744Z" transform="translate(-146.56 -153.96)" fill="#f9f9f9" style="mix-blend-mode: soft-light;isolation: isolate"/>
        <path id="Pfad_5850" data-name="Pfad 5850" d="M283.257,286.791c-1.678-1.555-5.9-1.038-6.266.825h0c-.209.948.844,1.692,1.853,1.991C281.972,290.541,285.091,288.45,283.257,286.791Zm-5.148,2.37a1.517,1.517,0,0,1-.9-1.5h0a1.763,1.763,0,0,1,.905-1.085c1.849-1.081,5.086-.446,5.413,1.076.4,1.664-3.233,2.8-5.423,1.5Z" transform="translate(-145.683 -150.369)" fill="url(#linear-gradient-7)"/>
        <path id="Pfad_5851" data-name="Pfad 5851" d="M251.372,301.866a1.361,1.361,0,0,1,0-2.579c1.9-1.1,5.181-.389,5.37,1.166C256.951,302.122,253.429,303.046,251.372,301.866Z" transform="translate(-131.735 -157.144)" fill="#ca9983"/>
        <path id="Pfad_5852" data-name="Pfad 5852" d="M255.551,291.924l-5.536-.142s-.645-7.826-.607-8.1a1.844,1.844,0,0,1,.948-1.166c1.977-1.157,5.442-.474,5.8,1.152C256.191,283.728,255.565,291.815,255.551,291.924Z" transform="translate(-131.188 -148.301)" fill="#d6bdb2"/>
        <path id="Pfad_5853" data-name="Pfad 5853" d="M252.759,281.859v.118c1.678,0,3.1.7,3.318,1.635a.224.224,0,0,0,0,.066v.228c-.185,2.024-.616,7.826-.616,7.826l-5.323-.142c0-.275-.635-7.712-.6-7.973.2-.972,1.673-1.64,3.233-1.64v-.118Zm0,0c-1.687,0-3.152.744-3.351,1.744-.038.27.607,8.1.607,8.1l5.536.142c0-.085.64-8.172.626-8.262-.237-1.071-1.806-1.73-3.417-1.73Z" transform="translate(-131.188 -148.253)" fill="url(#linear-gradient-10)"/>
        <path id="Pfad_5854" data-name="Pfad 5854" d="M256.2,298.164s-.066.948-.081,1.157a1.422,1.422,0,0,1-.948,1.123c-1.815.92-4.475.213-4.631-1.09l-.1-1.422c.071-.739.92-1.213,1.635-1.422C253.91,296.017,256.327,296.746,256.2,298.164Z" transform="translate(-131.732 -155.883)" fill="#f0f0f0"/>
        <path id="Pfad_5855" data-name="Pfad 5855" d="M252.508,299.62c-1.943-.36-2.692-1.787-1.285-2.7,1.683-1.095,4.83-.474,5.01,1C256.395,299.155,254.3,299.947,252.508,299.62Z" transform="translate(-131.762 -155.888)" fill="#ffc12a"/>
        <path id="Pfad_5856" data-name="Pfad 5856" d="M255.782,292.344c-.137.7-1.062,1.095-1.754,1.256-1.749.4-3.6-.308-3.792-1.3,0,0-.427-4.986-.389-5.072a1.72,1.72,0,0,1,.9-1.081c1.834-1.071,5.053-.45,5.385,1.071C256.2,287.457,255.81,291.955,255.782,292.344Z" transform="translate(-131.419 -150.229)" fill="#ffdf2a"/>
        <g id="Gruppe_108" data-name="Gruppe 108" transform="translate(118.446 135.323)" opacity="0.5">
          <path id="Pfad_5857" data-name="Pfad 5857" d="M250.812,288.6a1.357,1.357,0,0,1,0-2.574c1.9-1.1,5.181-.393,5.37,1.161C256.391,288.861,252.869,289.785,250.812,288.6Z" transform="translate(-249.886 -285.491)" fill="#ffc12a"/>
        </g>
        <g id="Gruppe_109" data-name="Gruppe 109" transform="translate(122.562 136.579)" style="mix-blend-mode: multiply;isolation: isolate">
          <path id="Pfad_5858" data-name="Pfad 5858" d="M260.3,288.14c-.033.351.047-1.313-.659,6.162a3.08,3.08,0,0,1-1.076.45c.687-7.262.626-5.783.645-6.006A3.047,3.047,0,0,0,260.3,288.14Z" transform="translate(-258.57 -288.14)" fill="#f4f4f4"/>
        </g>
        <path id="Pfad_5859" data-name="Pfad 5859" d="M259.462,301.14l-.175,1.82a3.863,3.863,0,0,1-1.066.346l.166-1.716a3.08,3.08,0,0,0,1.076-.45Z" transform="translate(-135.824 -158.399)" fill="#fbfbfb" style="mix-blend-mode: multiply;isolation: isolate"/>
        <path id="Pfad_5860" data-name="Pfad 5860" d="M252.736,296.744a3.474,3.474,0,0,1-1.076-.393c-.4-4.3-.588-6.9-.64-7.65a3.651,3.651,0,0,0,1.085.507C252.361,291.582,252.48,293.767,252.736,296.744Z" transform="translate(-132.037 -151.856)" fill="#f9f9f9" style="mix-blend-mode: soft-light;isolation: isolate"/>
        <path id="Pfad_5861" data-name="Pfad 5861" d="M255.645,282.791c-1.678-1.555-5.9-1.038-6.266.825h0c-.213.948.839,1.692,1.849,1.991C254.361,286.541,257.48,284.45,255.645,282.791Zm-5.148,2.37a1.516,1.516,0,0,1-.9-1.5h0a1.8,1.8,0,0,1,.905-1.09c1.849-1.076,5.086-.446,5.418,1.081.393,1.659-3.233,2.8-5.427,1.493Z" transform="translate(-131.159 -148.265)" fill="url(#linear-gradient-11)"/>
        <g id="Gruppe_111" data-name="Gruppe 111" transform="translate(0 200.889)" style="mix-blend-mode: multiply;isolation: isolate">
          <g id="Gruppe_110" data-name="Gruppe 110" style="isolation: isolate">
            <path id="Pfad_5862" data-name="Pfad 5862" d="M.365,438.384C-3.872,454.2,29.8,464.5,49.571,452.391a18.647,18.647,0,0,0,6.295-5.816C66.4,428.4,29.042,416.4,8.12,429.065,4.74,431.014,1.261,434.469.365,438.384Z" transform="translate(0 -423.817)" fill="url(#linear-gradient-12)"/>
          </g>
        </g>
        <path id="Pfad_5863" data-name="Pfad 5863" d="M22.381,457.044v.047c.616,1.721,3.228,2.342,5.086.607l4.949-5.6a2.427,2.427,0,0,0,.526-.972c.318-1.185.5-2.8-.114-3.527H32.8c-2.18-2.195-6.778,1.517-9.006,3.83a1.3,1.3,0,0,0-.156.185A6.149,6.149,0,0,0,22.381,457.044Z" transform="translate(-11.669 -235.084)" fill="#a06b5f"/>
        <path id="Pfad_5864" data-name="Pfad 5864" d="M32.96,452.409a2.583,2.583,0,0,1-.521.981l-4.958,5.6c-1.858,1.73-4.465,1.114-5.077-.607v-.047a4.015,4.015,0,0,1-.2-1.142l.062.185v.047c.611,1.721,3.218,2.337,5.077.607l4.953-5.607a2.426,2.426,0,0,0,.526-.972,8.058,8.058,0,0,0,.294-2.071A5.943,5.943,0,0,1,32.96,452.409Z" transform="translate(-11.677 -236.374)" fill="#a06b5f" opacity="0.5" style="mix-blend-mode: multiply;isolation: isolate"/>
        <path id="Pfad_5865" data-name="Pfad 5865" d="M41.951,355.7c-.792,2.038-1.55,3.711-1.55,3.711-1.365,2.977-1.863,3.318-2.986,8.058a44.03,44.03,0,0,1-2.844,6.916c-1.484,3.318-4.977,12.822-7.191,19.372a4.038,4.038,0,0,1-5.38-.626h0c3.351-10.8,2.27-18.164,6.043-25.15,1.332-2.474,2.342-2.958,2.588-6.162.635-8.423-.578-11.016.9-18.149-.4-3.527-2.195-3.792-1.223-8.627a7.356,7.356,0,0,1,2.5-4.181c4.806.81,7.987,1.28,12.713,1.972-.161,3.479-.436,6.394-.673,8.556C44.387,345.17,43.685,351.223,41.951,355.7Z" transform="translate(-11.572 -174.032)" fill="#545a73"/>
        <g id="Gruppe_112" data-name="Gruppe 112" transform="translate(10.428 156.828)" opacity="0.3" style="mix-blend-mode: multiply;isolation: isolate">
          <path id="Pfad_5866" data-name="Pfad 5866" d="M41.951,355.7c-.792,2.038-1.55,3.711-1.55,3.711-1.365,2.977-1.863,3.318-2.986,8.058a44.03,44.03,0,0,1-2.844,6.916c-1.484,3.318-4.977,12.822-7.191,19.372a4.038,4.038,0,0,1-5.38-.626h0c3.351-10.8,2.27-18.164,6.043-25.15,1.332-2.474,2.342-2.958,2.588-6.162.635-8.423-.578-11.016.9-18.149-.4-3.527-2.195-3.792-1.223-8.627a7.356,7.356,0,0,1,2.5-4.181c4.806.81,7.987,1.28,12.713,1.972-.161,3.479-.436,6.394-.673,8.556C44.387,345.17,43.685,351.223,41.951,355.7Z" transform="translate(-22 -330.86)" fill="#545a73"/>
        </g>
        <path id="Pfad_5867" data-name="Pfad 5867" d="M77.287,470.8a3.175,3.175,0,0,1-.052-2.109c.2-1.19.389-2.19.536-2.943a28.009,28.009,0,0,1,3.237-.251c1.559-.028,8.589.2,10.077,1.484.474.393,1.128.976,1.076,1.692-.109,1.507-3.346,2.318-6.4,3.086-2.479.621-5.626,1.114-7.584-.076a2.328,2.328,0,0,1-.886-.882Z" transform="translate(-40.548 -244.85)" fill="#a06b5f"/>
        <path id="Pfad_5868" data-name="Pfad 5868" d="M92.14,471.627c-.1,1.5-3.346,2.318-6.4,3.081-2.488.626-5.631,1.114-7.584-.071a2.266,2.266,0,0,1-.91-.882,3.189,3.189,0,0,1-.052-2.114,1.948,1.948,0,0,0,.2,1,2.232,2.232,0,0,0,.905.882c1.939,1.195,5.081.7,7.584.085,2.631-.678,5.385-1.351,6.162-2.5A1.271,1.271,0,0,1,92.14,471.627Z" transform="translate(-40.527 -247.804)" fill="#a06b5f" opacity="0.5" style="mix-blend-mode: multiply;isolation: isolate"/>
        <path id="Pfad_5869" data-name="Pfad 5869" d="M73.379,369.366a43.764,43.764,0,0,1-.683,7.465c-.436,3.621-.948,13.774-1.133,20.7a4.091,4.091,0,0,1-5.366,1.076h0c0-11.324-3.247-18.012-1.7-25.852.545-2.773,1.36-3.545.649-6.679-1.9-8.219-3.849-10.319-4.56-17.585-1.422-3.237-4.171-3.318-4.678-8.219-.18-1.7-.275-3.09.611-4.451,1.133-.166,3.655-.256,4.645-.412,3.275-.5,6-.948,9.641-1.574C77.692,352.757,72.635,358.611,73.379,369.366Z" transform="translate(-29.345 -175.599)" fill="#545a73"/>
        <path id="Pfad_5870" data-name="Pfad 5870" d="M79.141,369.356a43.763,43.763,0,0,1-.683,7.465c-.436,3.621-.948,13.774-1.133,20.7A4.091,4.091,0,0,1,71.96,398.6h0a10.543,10.543,0,0,1,2.1-.9s.611-.308,1.076-.578c2.081-1.218,1.422-18.633,1.375-24.491-.057-7.679.848-7.622.474-15.031a38,38,0,0,0-4.631-16.723c-2.455-4.384-4.228-3.394-5.607-3.588a8.461,8.461,0,0,1,.161-1.9c3.275-.5,6-.948,9.641-1.574C83.455,352.747,78.4,358.6,79.141,369.356Z" transform="translate(-35.107 -175.589)" fill="#545a73" opacity="0.3" style="mix-blend-mode: multiply;isolation: isolate"/>
        <path id="Pfad_5871" data-name="Pfad 5871" d="M37.421,269.491a18.963,18.963,0,0,0,.744,2.569,31.2,31.2,0,0,1,2.5,11.475,50.244,50.244,0,0,1-2.067,11.2,16.587,16.587,0,0,0,2.934,2.4c6.845,4.621,14.343,3.446,19.984-1.469A73.977,73.977,0,0,1,58.5,282.318v-.948c1.759-5.4,2.318-8.954,1.645-11.632.18-1.943,0-3.451-1.076-4.233h0c-2.37-1.251-2.474-1.422-3.583-1.962-.882-.422-1.9-.834-2.413-1.138-1.394-.844-.237-.294-6.342-3.1a8.017,8.017,0,0,1-.768-.346c-2.583-.981-6.546-.379-8.361,1.967C36.013,262.969,36.6,265.652,37.421,269.491Z" transform="translate(-19.253 -135.974)" fill="#8e50ba"/>
        <path id="Pfad_5872" data-name="Pfad 5872" d="M63.723,304.651A16.428,16.428,0,0,1,49.2,308.637a19.519,19.519,0,0,1-8.4-4.92c1.422,1.071,5.944,4.034,10.58,3.711,1.64-.114,4.844-.355,6.243-2.531,1.526-2.37-.91-4.266-.739-9.48.156-4.6,2.138-5.508,2.038-10.035a16.661,16.661,0,0,0-1.583-6.636l3.422-3.157c2.517,3.048,2.5,6.968-.047,14.77C60.329,291.55,62.722,302.418,63.723,304.651Z" transform="translate(-21.461 -144.96)" fill="#8e50ba" opacity="0.5" style="mix-blend-mode: multiply;isolation: isolate"/>
        <path id="Pfad_5873" data-name="Pfad 5873" d="M39.9,272.951a38.871,38.871,0,0,1,1.616,4.844c.071.308.142.6.194.9a12.389,12.389,0,0,0,3.816-2.152,2.787,2.787,0,0,0,1.531.8c2.484.36,5.347-3.408,6.162-6.83a10.707,10.707,0,0,0-.142-5.432c.574-.583,1.161-1.185,1.749-1.773-.265-.166-.531-.332-.8-.474a1.577,1.577,0,0,1-.223-.137,28.071,28.071,0,0,0-5.328-2.488l-7.11,1.635c-.114.905-.337,2.569-.616,4.636C40.388,269.192,40.094,271.3,39.9,272.951Z" transform="translate(-20.988 -136.865)" fill="#8e50ba" opacity="0.5" style="mix-blend-mode: multiply;isolation: isolate"/>
        <path id="Pfad_5874" data-name="Pfad 5874" d="M51.648,248.834a3.8,3.8,0,0,1,0-2.65c1.664-6.456,2.266-10.371,4.527-10.926,2.74-.678,3.6-1.763,5.043,1.6s.284,8.091.052,8.887-1.725,1.228-1.725,1.228a1.465,1.465,0,0,0-.36.787,1.654,1.654,0,0,0,.872,1.545,6.309,6.309,0,0,1-4.1,1.607C54.648,250.91,52.4,250.446,51.648,248.834Z" transform="translate(-27.038 -123.366)" fill="#ffcfcd"/>
        <path id="Pfad_5875" data-name="Pfad 5875" d="M33.879,254.782c-.194.194-1,1.048-.8,1.844.308,1.048,2.109,1.228,2.517,1.256,2.65.251,4.773-2.01,5.347-2.654a2.64,2.64,0,0,0,1.83.948c2.427-.029,5.584-5.318,5.081-10.134-.365-3.318-2.46-5.532-1.384-7.793.422-.867,1.455-2,1.133-2.583-.128-.223-.365-.337-.782-.867a1.5,1.5,0,0,1-.223-.4,2.907,2.907,0,0,1,.152-1.929c.645-2.1,2.806,2.289,2.806,2.289l.474-5.162a2.218,2.218,0,0,0,1.176-2.626c-.474-1.9-4.47-3.825-4.47-3.825a.179.179,0,0,0-.066-.028,8.489,8.489,0,0,0-4.114-.645,9.38,9.38,0,0,0-7.252,4.944,11.727,11.727,0,0,0-1.313,5.906c.123,2.569.948,3.451,1.493,5.5a4.164,4.164,0,0,1,.137.559,9.817,9.817,0,0,1,.237,1.213c0,.152.043.4.043.531.057,1.365-2.081,2.19-2.844,3.711-.308.659-.5,1.749.265,3.574a3.56,3.56,0,0,0-1.9,2.18A3.811,3.811,0,0,0,33.879,254.782Z" transform="translate(-16.488 -116.999)" fill="#a14c50"/>
        <path id="Pfad_5876" data-name="Pfad 5876" d="M33.879,254.78c-.194.194-1,1.048-.8,1.844.308,1.048,2.109,1.228,2.517,1.256,2.65.251,4.773-2.01,5.347-2.654-.616.389-3.128,1.929-4.972,1.213a1.488,1.488,0,0,1-.948-.782,1.746,1.746,0,0,1,.7-1.744,3.785,3.785,0,0,1-2.792-1.844,1.929,1.929,0,0,1-.166-1.479,2.449,2.449,0,0,1,2.427-1.4c-.374-1.157-.739-2.844.1-3.74,1.019-1.119,2.877,0,3.792-.976,1.076-1.147-.853-3.394-1.7-8.883a21.468,21.468,0,0,1-.071-5.6c.654-6.162,6.352-6.954,9.385-6.882a8.489,8.489,0,0,0-4.138-.645,9.38,9.38,0,0,0-7.252,4.944,11.727,11.727,0,0,0-1.313,5.906c.123,2.569.948,3.451,1.493,5.5a4.164,4.164,0,0,1,.137.559,4.92,4.92,0,0,1,.28,1.744c.057,1.365-2.081,2.19-2.844,3.711-.308.659-.5,1.749.265,3.574a3.56,3.56,0,0,0-1.9,2.18A3.811,3.811,0,0,0,33.879,254.78Z" transform="translate(-16.488 -116.997)" fill="#a14c50" opacity="0.3" style="mix-blend-mode: multiply;isolation: isolate"/>
        <path id="Pfad_5877" data-name="Pfad 5877" d="M139.22,276.928c-.242-.318-2.138.374-3.522,1.683a12.984,12.984,0,0,0-1.673,2.09c-.441.626-.777,1.161-1,1.545l2.209,2.654c.92-.223,1.9-.474,2.953-.839.711-.232.54-.194,2.631-.948s2.787-.991,2.778-1.332c0-.2-.275-.37-.474-.427-.3-.09-.521.076-1.081.251a5.5,5.5,0,0,1-.848.194c2.5-1.1,2.887-1.109,3.185-1.763.038-.085.2-.446.062-.593s-.659.057-1.123.228a5.966,5.966,0,0,1-2.052.645c.8-.265,3.6-1.934,3.1-2.612-.332-.474-2.071.63-2.564.91a5.355,5.355,0,0,1-1.555.664,7.744,7.744,0,0,1,1-.654,23.343,23.343,0,0,0,1.92-1.365.574.574,0,0,0,.2-.218.526.526,0,0,0-.038-.6c-.137-.152-.417-.114-.7-.033-1.128.313-1.82,1.157-3.057,1.811-.811.427-1.73.706-1.82.55s.284-.5.607-.735.526-.251.7-.507C139.173,277.369,139.319,277.056,139.22,276.928Z" transform="translate(-69.969 -145.355)" fill="#ffcfcd"/>
        <path id="Pfad_5878" data-name="Pfad 5878" d="M86.738,281.139l2,1.488,1.578,1.161a131.5,131.5,0,0,0,13.708-4.858,5.849,5.849,0,0,1,2.289,4.318c-4.347,2.081-7.556,3.693-9.594,4.887-4,2.37-5.015,2.446-6.427,2.408-1.763-.047-4.129-1.607-8.864-4.74a13.6,13.6,0,0,1-4.475-4.029,5.788,5.788,0,0,1-1.313-4.062c.474-2.8,3.91-3.991,4.124-4.062l.763.839C84.221,278.523,84.889,279.731,86.738,281.139Z" transform="translate(-39.76 -143.939)" fill="#8e50ba"/>
        <path id="Pfad_5879" data-name="Pfad 5879" d="M469.48,475.459c-7.821.389-19.747-2.688-19.69-10.618.062-9.333,19.273-14.064,30.559-7.413C491.179,463.813,484.335,474.725,469.48,475.459Z" transform="translate(-236.59 -238.971)" fill="url(#linear-gradient-13)"/>
        <path id="Pfad_5880" data-name="Pfad 5880" d="M514.51,261.24q-.664,6.394-1.36,12.8c-.474,4.474-.607,7.868-2.9,12.495l-3.484-2.844.2-9.859Z" transform="translate(-266.562 -137.412)" fill="#c45d94"/>
        <path id="Pfad_5881" data-name="Pfad 5881" d="M514.51,261.24q-.664,6.394-1.36,12.8c-.474,4.474-.607,7.868-2.9,12.495l-3.484-2.844.2-9.859Z" transform="translate(-266.562 -137.412)" fill="#c45d94" opacity="0.3" style="mix-blend-mode: multiply;isolation: isolate"/>
        <path id="Pfad_5882" data-name="Pfad 5882" d="M499.3,395.575c0,1.337-.09,3.318.09,6.162s1.422,8.935,1.517,11.077a103.548,103.548,0,0,1-1.066,10.542c.033,0,.166.133.261.147.593.076,1.384-3.915,2.593-4.792s3.124.138,3.541-.573a.654.654,0,0,0-.057-.588c-1.7-3.82,1.574-11.708,1.422-17.87-.09-3.754-1.161-5-1.251-7.058-.057-1.346-.09-3.1-.09-4.47,0,0-.45-1.692-1.341-1.337s-6.252,3.394-6.252,4.825S499.3,394.234,499.3,395.575Z" transform="translate(-262.296 -203.439)" fill="#ffcfcd"/>
        <path id="Pfad_5883" data-name="Pfad 5883" d="M499.306,395.586c0,1.337-.09,3.318.09,6.162s1.422,8.935,1.517,11.077c.081,1.934-.882,9.442-1.066,10.542.28-.431.583-.872.92-1.318a21.718,21.718,0,0,1,5.214-4.93,3.062,3.062,0,0,0-1.422-1.337c-1.157-.474-1.9.256-2.489-.185-.749-.564.028-2.076-.047-5.271a13.564,13.564,0,0,0-.18-2.152c-.308-1.858-.981-3.247-1.777-6.124a15.076,15.076,0,0,1,.346-7.01c.37-.744,4.356-4.347,5.863-5.688v-1.18s-.446-1.692-1.341-1.337-6.252,3.394-6.252,4.825S499.306,394.244,499.306,395.586Z" transform="translate(-262.306 -203.449)" fill="#ffcfcd" opacity="0.5" style="mix-blend-mode: multiply;isolation: isolate"/>
        <path id="Pfad_5884" data-name="Pfad 5884" d="M495.995,461.42a12.642,12.642,0,0,0,4.517-.095,13.785,13.785,0,0,0,1.626-.446l.076,2.436a.649.649,0,0,0,.654.635.659.659,0,0,0,.654-.72c-.341-4,.607-6.243,1.057-7.063s1.45-1.716,1.27-3.318-1.27-3.621-2.446-3.986c-1.484-.474-2.915,2.005-3.072,2.261-1.166,1.9-.583,3.493-2.147,5.214-.412.474-.474.384-.834.829A6.579,6.579,0,0,0,495.995,461.42Z" transform="translate(-260.892 -236.07)" fill="#545a73"/>
        <g id="Gruppe_113" data-name="Gruppe 113" transform="translate(235.103 221.107)" opacity="0.5" style="mix-blend-mode: multiply;isolation: isolate">
          <path id="Pfad_5885" data-name="Pfad 5885" d="M496,470.712a12.642,12.642,0,0,0,4.517-.095,13.777,13.777,0,0,0,1.626-.446l.18-3.7a40.7,40.7,0,0,1-5.46,3.2c-.313.109-.6.213-.834.308A6.538,6.538,0,0,0,496,470.712Z" transform="translate(-496 -466.47)" fill="#545a73"/>
        </g>
        <path id="Pfad_5886" data-name="Pfad 5886" d="M476.916,434.409c.683.621,2.128.45,2.977.081,1.706-.739,1.991-3.076,3.465-6.361,1.057-2.337,1.616-2.659,3.147-2.659-1.673-6.508.536-10.812.536-17.334a26.914,26.914,0,0,0-1.251-7.328,33.856,33.856,0,0,1-.27-4.645c-.09-.536-7.233-2.844-8.058-1.962.218,4.318.474,1.536.806,11.077a45.3,45.3,0,0,0,1.251,8.058,63.714,63.714,0,0,1,.891,12.6c-.27,2.052-1.251,5.9-1.251,5.9a2.214,2.214,0,0,1-1.057,1.19C477.4,433.271,475.935,433.518,476.916,434.409Z" transform="translate(-250.687 -207.244)" fill="#ffcfcd"/>
        <path id="Pfad_5887" data-name="Pfad 5887" d="M477.27,434.409c.123.431,1.687.64,2.977.081,1.706-.739,1.991-3.076,3.465-6.361,2.09-.621,3.318-1.806,3.147-2.659a1.827,1.827,0,0,0-1.375-1.171c-1.266-.318-2.015.792-2.673.408-.261-.152-.389-.474-.593-3.157-.071-.9-.1-1.346-.114-1.635-.128-4.138-3.318-11.973-1.128-16.936.588-1.323,1.849-3.1,4.939-4.6,0-1.01,0-1.92-.043-2.214-.085-.531-7.233-2.844-8.058-1.962.218,4.318.474,1.536.806,11.077a45.319,45.319,0,0,0,1.251,8.058,63.714,63.714,0,0,1,.891,12.6c-.27,2.052-1.251,5.9-1.251,5.9a2.185,2.185,0,0,1-1.057,1.19C477.952,433.343,477.165,434.063,477.27,434.409Z" transform="translate(-251.04 -207.245)" fill="#ffcfcd" opacity="0.5" style="mix-blend-mode: multiply;isolation: isolate"/>
        <path id="Pfad_5888" data-name="Pfad 5888" d="M470.93,467.774a2.143,2.143,0,0,0,.664,1.484,2.981,2.981,0,0,0,.441.441c1.36,1.171,2.844,3.034,5.081,3.128,2.071.057,3.365-2.82,4.294-4.674v-.033c.123-.19.19-.284.218-.284.19.066.128,1.327.095,1.612-.062.882-.218,1.863-.218,3.062,0,.251,0,.692.284.882a.64.64,0,0,0,.63.128c.63-.223.284-1.706.882-4.266.19-.787.569-2.114.569-2.114.436-1.849,1.2-6.584-.6-7.228a2.185,2.185,0,0,0-.981-.123c-2.872.564-3.375,9.181-6.162,9.48-.441.062-1.545-.346-1.578-.758s.6-.915.6-.915S471.342,466.731,470.93,467.774Z" transform="translate(-247.71 -241.842)" fill="#545a73"/>
        <path id="Pfad_5889" data-name="Pfad 5889" d="M470.93,476.65a2.143,2.143,0,0,0,.664,1.484,2.98,2.98,0,0,0,.441.441c1.36,1.171,2.844,3.034,5.081,3.128s3.631-3.38,4.166-4.451a1.331,1.331,0,0,1,.128-.223c-.536.725-1.01,1.327-1.389,1.83a6.767,6.767,0,0,1-2.683,2.3C475.229,481.689,472.224,478.375,470.93,476.65Z" transform="translate(-247.71 -250.718)" fill="#545a73" opacity="0.5" style="mix-blend-mode: multiply;isolation: isolate"/>
        <path id="Pfad_5890" data-name="Pfad 5890" d="M491.042,308.77s3.531,6.608,3.892,8.959.635,6.878-.36,8.959c-1.559,3.256-.986,5.02-.986,19.955a22.538,22.538,0,0,1-5.214,4.166,14.654,14.654,0,0,1-5.214,1.977c-1.9.318-3.9.654-5.977-.408a7.892,7.892,0,0,1-3.617-4.266c-.981-23.126-.8-18.3-1.266-25.966l3.792-10.584s0,.18,3.166.474S491.042,308.77,491.042,308.77Z" transform="translate(-248.43 -162.413)" fill="#545a73"/>
        <path id="Pfad_5891" data-name="Pfad 5891" d="M472.665,333.119c.256,1.237.066-.72.735,15.035,0,0,2.441,3.7,3.617,4.266a10.172,10.172,0,0,0,2.782.649c2.621-2.678-2.564-14.879,1.83-17.912,1.033-.72,3.626-1.853,5.873-3.346,2.171-1.45,1.176-1.991,1.176-1.991s-4.266,1.356-6.162.905-3.522-2.8-3.617-4.882c-.066-1.536.611-7.721.948-10.836a13.082,13.082,0,0,0,7.11-1.076l.673-1.555.8.806a18.229,18.229,0,0,0,3.318-2.488c-.545-1.09-.948-1.844-.948-1.844s-8.589,3.527-11.755,3.252l-.792-.066.114.289-2.266-1.166c-1.588,2.2-3.318,6.688-4.015,11.068A41.77,41.77,0,0,0,472.665,333.119Z" transform="translate(-248.236 -162.455)" fill="#545a73" opacity="0.5" style="mix-blend-mode: multiply;isolation: isolate"/>
        <path id="Pfad_5892" data-name="Pfad 5892" d="M474.16,260.094c.446,3.915,2.086,17.225,3.124,20.382a.1.1,0,0,0,.033.066,1,1,0,0,0,.223.5,1.646,1.646,0,0,1,.251.19c.033,0,.033.033.062.033a6.635,6.635,0,0,0,.915.5.033.033,0,0,1,.033.033,9.534,9.534,0,0,0,1.924.536c1.8.251,5.873-.062,7.2-1.389a3.346,3.346,0,0,0,.725-1.607c.256.284.474.564.73.848a13.743,13.743,0,0,0,2.27-1.484,14.967,14.967,0,0,0,1.768-1.64,10.8,10.8,0,0,1-.948-5.214c.128-1.991.792-2.744,2.052-5.65,2.46-5.588,2.806-9.058,2.844-11.111.033-2.237-.346-3.318-1.071-4.133a5.171,5.171,0,0,0-3.82-1.45,7.7,7.7,0,0,0-2.337.441s-1.071.408-2.493.976c-.948.412-2.052.853-3.062,1.327C478.639,254.918,478.265,255.388,474.16,260.094Z" transform="translate(-249.409 -131.242)" fill="#c45d94"/>
        <path id="Pfad_5893" data-name="Pfad 5893" d="M486.144,255.511a4.74,4.74,0,0,0,.474,2.3c1.559,3.034,6.162,2.972,6.574,2.962,3.925-.109,7.992-2.939,7.958-5.394-.029-1.792-2.247-4.133-2.247-4.133h0l-4.986.569c-.948.412-2.052.853-3.062,1.327A51.772,51.772,0,0,0,486.144,255.511Z" transform="translate(-255.71 -132.157)" fill="#c45d94"/>
        <path id="Pfad_5894" data-name="Pfad 5894" d="M480.284,291.1a3.321,3.321,0,0,0,.218.6.1.1,0,0,0,.033.066,3.525,3.525,0,0,0,.474.692c.033,0,.033.033.062.033a4.569,4.569,0,0,0,.711.4c.085.038.142.1.237.133a18.72,18.72,0,0,0,2.526.692,11.584,11.584,0,0,0,5.157-.725,3.455,3.455,0,0,0,1.346-.744c-3.09.128-4.513-.758-5.214-1.578-.474-.536-1.171-1.64-.7-11.077.128-2.432.251-4.546-1.01-6.636a7.556,7.556,0,0,0-1.958-2.114,5.106,5.106,0,0,0-.536,1.322c-.692,2.588.915,4.892.948,5.622.062,1.545-.536,3.436-2.275,13.158A.213.213,0,0,0,480.284,291.1Z" transform="translate(-252.627 -142.461)" fill="#c45d94" opacity="0.3" style="mix-blend-mode: multiply;isolation: isolate"/>
        <path id="Pfad_5895" data-name="Pfad 5895" d="M465.925,356.049h0c-10.93-6.522-11.3-7.281-12.831-6.636-2.1.891-2.773,7.11-2.744,9.437h0l.716.863v.028c0,1.109.043,3.143.095,7.712h0c5.934,3.967,11.774,7.584,17.415,10.731,4.214-2.289,3.82-2.46,3.991-3.181V360.747h0C473.12,359.381,469.143,358.514,465.925,356.049Z" transform="translate(-236.884 -183.693)" fill="#803426"/>
        <path id="Pfad_5896" data-name="Pfad 5896" d="M491.543,372.65v14.267c-.166.721.223.9-3.991,3.185,0,0-.768-8.361-1.142-12.608v-.024c.142-3.005.341-3.413.678-3.982a3.256,3.256,0,0,1,2.906-1.64,3.583,3.583,0,0,1,1.327.474h0a.882.882,0,0,1,.223.327Z" transform="translate(-255.852 -195.592)" fill="#803426" style="mix-blend-mode: screen;isolation: isolate"/>
        <path id="Pfad_5897" data-name="Pfad 5897" d="M473.167,372.028a3.512,3.512,0,0,0-1.341-.474,3.256,3.256,0,0,0-2.906,1.64c-.337.569-.536.976-.678,3.982v.024c-.043.948-.09,2.195-.133,3.792a.507.507,0,0,1-.512.474c-1.9-.081-3.792-.147-5.688-.223a.474.474,0,0,0-.507.5,1.337,1.337,0,0,1-.687.754,1.26,1.26,0,0,1-.948.057,8.154,8.154,0,0,0-.777-.474c-.256-.166-.507-.322-.777-.474a.507.507,0,0,1-.218-.356,9.617,9.617,0,0,0-.4-1.8.473.473,0,0,0-.109-.209c-1.83-2.176-3.659-4.337-5.5-6.513a.523.523,0,0,1-.114-.308v-1.067c7.172,8.651,4.669,6.39,7.56,8.9h0c2.607.109,1.6.052,8.229.64-.588-5.731.09-8.058,2.152-9.115A2.616,2.616,0,0,1,473.167,372.028Z" transform="translate(-237.684 -195.306)" fill="#803426" style="mix-blend-mode: multiply;isolation: isolate"/>
        <path id="Pfad_5898" data-name="Pfad 5898" d="M466.66,388.765l-.085,2.417a12.908,12.908,0,0,1-2.019-1.284,18.413,18.413,0,0,1,.109-2.417c.289.289.678.607,1.422,1.266Z" transform="translate(-244.355 -203.814)" fill="#ff8900"/>
        <path id="Pfad_5899" data-name="Pfad 5899" d="M469.843,390.237,469.8,392a.948.948,0,0,1-1,.607c0-.811.033-1.607.052-2.417Z" transform="translate(-246.59 -205.24)" fill="#f05e1f"/>
        <path id="Pfad_5900" data-name="Pfad 5900" d="M472.627,360.774a.881.881,0,0,0-.209-.337h0a2.6,2.6,0,0,0-3.318-.256c-2.062,1.066-2.74,3.384-2.152,9.115-2.991-.265-6.873-.64-8.238-.64-.754-.659-1.142-.976-1.422-1.266-.806-.8-.82-1.232-6.129-7.631-.223-.275-.474-.564-.711-.863h0c-.033-2.308.645-8.532,2.74-9.437a1.83,1.83,0,0,1,.787-.19c1.218,0,3.1,1.474,12.04,6.821C469.2,358.532,473.172,359.395,472.627,360.774Z" transform="translate(-236.936 -183.716)" fill="#803426" opacity="0.5" style="mix-blend-mode: screen;isolation: isolate"/>
        <path id="Pfad_5901" data-name="Pfad 5901" d="M463.7,351.5a2.507,2.507,0,0,0-1.815,1.967c.062,1.157,1.687,1.356,1.692.474v-.322a.54.54,0,0,1,.355-.5.891.891,0,0,0,.474-.4C464.677,352.193,464.345,351.287,463.7,351.5Z" transform="translate(-242.95 -184.87)" fill="#733639"/>
        <path id="Pfad_5902" data-name="Pfad 5902" d="M471.982,346.774a13.376,13.376,0,0,1-.308-1.621,2.844,2.844,0,0,0-.1-.867.161.161,0,0,0-.038-.081.949.949,0,0,0-.223-.308c-.64-.744-1.721-.749-2.749-.948h0c-.678-.128-1.071-.251-1.337.057-.337.4-.4.374-.427.4a13.688,13.688,0,0,0-1.493,5.157,4.069,4.069,0,0,0,.076.73c.185.9.692.787,1.422,1.351a2.785,2.785,0,0,1,.289.256,1.341,1.341,0,0,0,.3.256.719.719,0,0,0,.118.043,1.023,1.023,0,0,0,.474.076,1.422,1.422,0,0,1,.7.081,1.314,1.314,0,0,1,.408.261,1.129,1.129,0,0,0,.474.251,2.191,2.191,0,0,0,.792.081c.161,0,.374-.261.474-.393a4.6,4.6,0,0,0,.346-.588c.147-.474.265-.877.36-1.27h0a5.307,5.307,0,0,1,.341-.678A3.612,3.612,0,0,0,471.982,346.774Z" transform="translate(-244.752 -180.319)" fill="url(#linear-gradient-14)"/>
        <path id="Pfad_5903" data-name="Pfad 5903" d="M476.326,354.53c.147,0,.555,0,1.5,1.493.877,1.384,1.759,2.768,1.218,3.7a1.392,1.392,0,0,1-2.318.038c-.664-.725-.043-1.379-.673-2.872-.3-.711-.635-1.024-.507-1.54A1.076,1.076,0,0,1,476.326,354.53Z" transform="translate(-250.125 -186.482)" fill="#733639"/>
        <path id="Pfad_5904" data-name="Pfad 5904" d="M468.29,304.753a6.728,6.728,0,0,1,2.067.052,5.806,5.806,0,0,1,3.01,1.588c.7-3.252,1.351-5.868,1.83-7.7.5-1.9,1.014-3.716,1.446-6.138.3-1.711.474-3.185.574-4.124s.142-1.375.156-1.872c.043-1.422-.137-2.285.024-5.915a44.484,44.484,0,0,0,.185-5.129c-.142-2.531-.237-4.029-1.375-5.133s-3.019-1.721-4.214-1c-1.27.758-1.422,2.711-1.375,5.953a116.259,116.259,0,0,0,.825,12.552c-.142.692-.351,1.725-.574,2.991-.5,2.844-.716,4.7-.9,5.977A58.345,58.345,0,0,1,468.29,304.753Z" transform="translate(-246.321 -141.531)" fill="#c45d94"/>
        <path id="Pfad_5905" data-name="Pfad 5905" d="M481.682,222c-.033,1.962.218,2.55.081,3.1a1.806,1.806,0,0,1-.185.417c-.849,1.763-.076,4.915.64,6.916a.815.815,0,0,0,.559.512,9.34,9.34,0,0,0,1.962.27.825.825,0,0,1,.744.986c-.531,2.7-.474,2.37-.474,2.37s1.289.593,1.536.673a5.745,5.745,0,0,0,3.062.678c1.7-.118,4.484-1.043,4.148-2.479a16.769,16.769,0,0,1,.109-1.939.692.692,0,0,0-.114-.446c-.948-1.683-4.313-15.049-5.432-15.727-1.806-1.076-4.83-.36-5.806,1.166A6.3,6.3,0,0,0,481.682,222Z" transform="translate(-253.115 -114.048)" fill="#ffcfcd"/>
        <path id="Pfad_5906" data-name="Pfad 5906" d="M489.1,245.21a.83.83,0,0,1,.536.948l-.474,2.37c2.872,1,3.868.422,5.939-1.3,3.365-2.792.948-9.835-.8-7.053-1.379,2.2-1.574,1.607-2.522,1.706C489.493,242.124,491.56,243.693,489.1,245.21Z" transform="translate(-257.267 -125.994)" fill="#ffcfcd" opacity="0.5" style="mix-blend-mode: multiply;isolation: isolate"/>
        <path id="Pfad_5907" data-name="Pfad 5907" d="M484.093,225.323c.128,1.232.223,2.465.318,3.692a4.644,4.644,0,0,0,.725-1.45c.284-.976.033-1.389.379-1.863a1.5,1.5,0,1,1,2.365,1.8,2.764,2.764,0,0,0-.218,1.578c-.3,3.4-1,3.967-2.1,5.825a3.631,3.631,0,0,0-.763,2.47,2.171,2.171,0,0,0,.427.834,6.453,6.453,0,0,0,3.574,2.043,9.3,9.3,0,0,0,4.029.19l.322-.066c.853-.19,3.6-.853,4.707-2.934a2.844,2.844,0,0,0,.156-2.242,13.614,13.614,0,0,1-1.1-5.332c.095-4.1,1.863-5.238,1.01-8.394a8.973,8.973,0,0,0-3-5.143c-3.721-2.939-8.532-2.465-11.016-.507a4.266,4.266,0,0,0-1.356,1.578C481.476,219.611,482.642,223.4,484.093,225.323Z" transform="translate(-253.601 -112.69)" fill="#a14c50"/>
        <path id="Pfad_5908" data-name="Pfad 5908" d="M484.091,227.059c.133,1.232.223,2.465.308,3.692a4.129,4.129,0,0,0,.725-1.45c.289-.948.047-1.384.4-1.849a1.486,1.486,0,1,1,2.351,1.782,4.741,4.741,0,0,0-.242,1.147c0,.218.024.417.024.436-.308,3.408-.991,3.982-2.09,5.83a3.51,3.51,0,0,0-.768,2.484,2.156,2.156,0,0,0,.436.834,6.229,6.229,0,0,0,3.564,2.024,9.006,9.006,0,0,0,4.024.2,3.045,3.045,0,0,0,.332-.066c.853-.2,3.6-.858,4.7-2.925a2.844,2.844,0,0,0,.156-2.242,7.963,7.963,0,0,1-4.1,2.9,4.484,4.484,0,0,1-2.967.066,3.792,3.792,0,0,1-1.758-1.45c-.948-1.564.242-3.166.635-5.475.593-3.408,1.583-9.2-3.076-10.755-1.422-.474-3.256-2.725-2.844-4.683a4.578,4.578,0,0,0-1.365,1.583C481.474,221.361,482.64,225.144,484.091,227.059Z" transform="translate(-253.599 -114.436)" fill="#a14c50" opacity="0.3" style="mix-blend-mode: multiply;isolation: isolate"/>
      </g>
    </g>
  </g>
</svg>
