<svg xmlns="http://www.w3.org/2000/svg" xmlns:xlink="http://www.w3.org/1999/xlink" width="200.111" height="268.578" viewBox="0 0 200.111 268.578">
  <defs>
    <linearGradient id="linear-gradient" x1="2.618" y1="0.737" x2="3.535" y2="-0.218" gradientUnits="objectBoundingBox">
      <stop offset="0" stop-color="#631e30"/>
      <stop offset="1" stop-color="#4d1725"/>
    </linearGradient>
    <linearGradient id="linear-gradient-2" x1="-56.892" y1="0.467" x2="-54.162" y2="0.761" gradientUnits="objectBoundingBox">
      <stop offset="0" stop-color="#ed7d88"/>
      <stop offset="1" stop-color="#ffcfcd"/>
    </linearGradient>
    <linearGradient id="linear-gradient-3" x1="-73.191" y1="3.683" x2="-78.886" y2="-1.397" gradientUnits="objectBoundingBox">
      <stop offset="0" stop-color="#e4b531"/>
      <stop offset="1" stop-color="#e48a20"/>
    </linearGradient>
    <linearGradient id="linear-gradient-4" x1="-20.877" y1="-0.183" x2="-21.258" y2="1.202" gradientUnits="objectBoundingBox">
      <stop offset="0" stop-color="#fad260"/>
      <stop offset="1" stop-color="#faaa4d"/>
    </linearGradient>
    <linearGradient id="linear-gradient-5" x1="-46.599" y1="1.691" x2="-49.963" y2="-0.52" xlink:href="#linear-gradient-3"/>
    <linearGradient id="linear-gradient-6" x1="-58.915" y1="-1.03" x2="-59.939" y2="2.693" xlink:href="#linear-gradient-4"/>
  </defs>
  <g id="stand-6" transform="translate(197.104 -46.375)" style="isolation: isolate">
    <g id="Ebene_2" data-name="Ebene 2" transform="translate(0)">
      <g id="street_food_stall" data-name="street food stall" transform="translate(-197.104 46.375)">
        <path id="Pfad_8383" data-name="Pfad 8383" d="M105.24,263.527l64.73,37.363,47.176-27.637L152.42,235.89Z" transform="translate(-60.113 -134.77)" fill="#ede2dc"/>
        <path id="Pfad_8384" data-name="Pfad 8384" d="M342.8,322.358c8.145.4,20.555-2.8,20.5-11.051-.064-9.718-20.062-14.644-31.812-7.716C320.208,310.235,327.333,321.6,342.8,322.358Z" transform="translate(-186.221 -171.597)" fill="#ede2dc"/>
        <path id="Pfad_8385" data-name="Pfad 8385" d="M340.271,316.934a9.919,9.919,0,0,0,5.028-2.821,14.572,14.572,0,0,0,2.752-.146c1.766-.21,1.5-1.187,1.608-2.735a9.614,9.614,0,0,0-.039-1.483,11.884,11.884,0,0,0-.167-1.183,7.069,7.069,0,0,1-6.6-1.316,9,9,0,0,1-1.449,2.855h0a45.059,45.059,0,0,1-5.89,4.171C333.687,317.122,337.309,317.543,340.271,316.934Z" transform="translate(-191.392 -175.539)" fill="#664e4c"/>
        <path id="Pfad_8386" data-name="Pfad 8386" d="M335.129,315.232c.553,1.243,3.485,1.157,5.144.81a9.984,9.984,0,0,0,5.033-2.829,15.382,15.382,0,0,0,2.748-.137c1.668-.2,1.53-1.076,1.586-2.478a8.642,8.642,0,0,0,.021-.879,3.856,3.856,0,0,0-.064-.57c0-.026-.1-.583-.1-.583a7.069,7.069,0,0,1-6.6-1.316c0,.03-.137.39-.137.4a11.816,11.816,0,0,1-.489,1.166h0a6.863,6.863,0,0,1-.819,1.286h0a14.206,14.206,0,0,1-2.731,1.736,7.056,7.056,0,0,0-2.7,1.633,6.7,6.7,0,0,0-.75,1.312C335.069,315.288,335.129,315.232,335.129,315.232Z" transform="translate(-191.45 -175.539)" fill="#a98575"/>
        <path id="Pfad_8387" data-name="Pfad 8387" d="M351.82,308.8h0c1.642,2.945,5.2,3.5,7.4.926a9.871,9.871,0,0,0-.167-1.183,7.069,7.069,0,0,1-6.6-1.316,12.059,12.059,0,0,1-.63,1.573Z" transform="translate(-200.99 -175.528)" fill="#664e4c"/>
        <path id="Pfad_8388" data-name="Pfad 8388" d="M354.517,195.1c-1.072,7.935-2.092,10.614-1.1,16.041v.051a21.068,21.068,0,0,1,.939,5.843c-.09,3.961-1.749,7.618-.9,15.972-2.04,2.821-5.491,2.233-7.253-.51a105.3,105.3,0,0,0-.236-14.339,102.346,102.346,0,0,0-2.572-15.827c-3.215-12.916-.429-26.209-.09-27.242a26.15,26.15,0,0,1,6.769,2.443C355.237,180.358,356.24,183.158,354.517,195.1Z" transform="translate(-195.302 -100.033)" fill="#6e433c"/>
        <path id="Pfad_8389" data-name="Pfad 8389" d="M355.374,217.108c-.09,3.961-1.749,7.618-.9,15.972-2.041,2.821-5.491,2.233-7.253-.51a1.764,1.764,0,0,0,.026-.352h0c2.666,1.213,4.715.326,4.681-2.889-.094-4.715,1.41-4.81,1.059-10.391-.429-7.176-2.212-7.545-2.212-15.608,0-8.535-2.259-8.676-2.079-14.781.107-3.464.759-5.388-.574-6.709a5.6,5.6,0,0,0-4.471-1.565s.056-1.873.069-1.873c1.355-8.826,11.651,2.491,10.43,12,.429,1.565.913,3.172,1.359,4.754-1.072,7.935-2.092,10.614-1.1,16.041v.051A20.116,20.116,0,0,1,355.374,217.108Z" transform="translate(-196.323 -100.105)" fill="#5b3832"/>
        <path id="Pfad_8390" data-name="Pfad 8390" d="M380.525,328.105c.4.939,7.622,3.429,7.622-3.691V317.92s-6.074-.051-6.169,1.552C381.832,322.944,379.239,325.495,380.525,328.105Z" transform="translate(-217.186 -181.635)" fill="#664e4c"/>
        <path id="Pfad_8391" data-name="Pfad 8391" d="M380.672,326.858c.4.939,7.622,3.429,7.622-3.691V317.92s-6.074-.051-6.169,1.552C381.851,323.214,379.712,325.014,380.672,326.858Z" transform="translate(-217.333 -181.635)" fill="#a98575"/>
        <path id="Pfad_8392" data-name="Pfad 8392" d="M384.02,320.389a5.856,5.856,0,0,0,6.284-.407V317.92a8.668,8.668,0,0,1-6.374.429A3.9,3.9,0,0,1,384.02,320.389Z" transform="translate(-219.336 -181.635)" fill="#664e4c"/>
        <path id="Pfad_8393" data-name="Pfad 8393" d="M367.508,237.627a6.033,6.033,0,0,1-4.287-.746c-.107-.073-.549-.489-.549-.587h0a1.578,1.578,0,0,1-.261-.857c0-20.5-5.384-39.01-7.828-48.835-2.418.171-5.946-2.508-6.915-9.722-.064-.459-.116-.943-.159-1.453,5.9-1.256,14.249-2.456,18.2,2.5A6.43,6.43,0,0,1,366.843,180c2.173,5.676.18,19.719,1.333,29.54h0c.24,2.615.592,2.761.969,6.212.729,7.189-.484,9.084.7,18.467A3,3,0,0,1,367.508,237.627Z" transform="translate(-198.528 -99.593)" fill="#6e433c"/>
        <path id="Pfad_8394" data-name="Pfad 8394" d="M377.089,245.157c-1.633.262-3.892.026-4.835-1.286a.045.045,0,0,0-.03-.039h0c.566.129,4.094.784,4.458-3.528.429-4.891-1.895-14.549-2.731-19.29a88.732,88.732,0,0,1-1.179-16c.146-4.235.6-7.069-1.085-10.065-1.788-3.176-4.99-4.771-7.407-5.62a17.437,17.437,0,0,0,12.1-1.8s.039,0,.051-.026c2.195,6.782-.154,24.435,1.646,32.151s-.034,11.506,1.307,22.115A2.933,2.933,0,0,1,377.089,245.157Z" transform="translate(-208.109 -107.123)" fill="#5b3832"/>
        <path id="Pfad_8395" data-name="Pfad 8395" d="M279.994,158.607l-.026.021a2.542,2.542,0,0,1-1.192.519c-.141,0-.493.069-.557-.064s.429-.6.857-.96.9-.669.9-.677a15.348,15.348,0,0,0-1.9,1.106c-.506.334-.9.622-1.286.489a.521.521,0,0,1-.364-.322c-.06-.283.352-.562,1.025-1.085a13.624,13.624,0,0,0,1.5-1.286,10.087,10.087,0,0,0-1.5.737c-1.187.664-1.642,1.007-2.006.814a.579.579,0,0,1-.3-.493c0-.33.429-.562.754-.754a14.854,14.854,0,0,0,2.01-1.367s-2.572,1.809-3.108,1.286a.532.532,0,0,1-.111-.377c0-.549.7-.935,1.093-1.17.673-.39,1.565-.947,2.778-1.783-.051,0-.939.309-1.445-.2-.09-.09-.223-.223-.2-.369.039-.244.51-.352,1.865-.566l2.954-.463a1.307,1.307,0,0,0,.733-.141c.382-.223-.257-.334,2.735,3.108a10.229,10.229,0,0,1-.78.827A52.087,52.087,0,0,1,279.994,158.607Z" transform="translate(-156.921 -86.504)" fill="#ffcfcd"/>
        <path id="Pfad_8396" data-name="Pfad 8396" d="M315.16,107.141c.544.21,3.241,7.673,2.311,9.534-.077.176-8.368,6.945-10.22,7.87-.287.133-.54.27-.54.27-12.337,5.53-11.883,5.1-13.079,5.44a4.55,4.55,0,0,0-2.611-3.918.077.077,0,0,1-.051,0c.141-.069.377-.15.643-.266,4.754-2.053,6.837-3.772,11.917-6.374.073-.069,2.443-2.525,4.244-4.372a53.387,53.387,0,0,0,4.214-4.78C313.583,108.513,314.586,106.914,315.16,107.141Z" transform="translate(-166.225 -61.2)" fill="#78c6d6"/>
        <path id="Pfad_8397" data-name="Pfad 8397" d="M366.094,111.019s-1.372,3.108-1.389,3.271c-3.134,9.148-2.328,10.584-2.418,11.874-.043,4.878.995,10.07.956,14.935-10.888,3-17.383.995-21.005-1.367,0,0,.523-3.858.562-5.2.09-3.164,0-6.64.051-6.653a87.625,87.625,0,0,1-1.513-14.288c-.15-7.956,1.616-8.432,4.964-9.289,3.725-1,7.9-.4,11.574.484a25.968,25.968,0,0,1,7.438,2.876A4.347,4.347,0,0,1,366.094,111.019Z" transform="translate(-194.997 -59.295)" fill="#78c6d6"/>
        <path id="Pfad_8398" data-name="Pfad 8398" d="M365.109,150.222c-.056.094-.334.189-.39.223h0a10.043,10.043,0,0,1-1.835.724,16.061,16.061,0,0,1-2.722.592c-5.238.832-12.346.2-16.491-2.5h-.021c-.274-.206-.219-.223-.2-.24.073-.167,1.286.429,2.851.626a10.222,10.222,0,0,0,2.572,0,11.97,11.97,0,0,0,7.163-3.922,22.128,22.128,0,0,0,5.573-15.57,77.024,77.024,0,0,0-.943-7.832,13.914,13.914,0,0,1,2.829-2.293,9.822,9.822,0,0,1,1.316,2.332,10.621,10.621,0,0,1,.759,2.572C362.807,136.358,365.967,136.23,365.109,150.222Z" transform="translate(-196.198 -68.576)" fill="#51b5c9"/>
        <path id="Pfad_8399" data-name="Pfad 8399" d="M365.547,94.274c.034,1.252.4,1.4.18,2.246-.343,1.4-3.97,3.952-5.11,4.823-1.543-1.92-2.246-3.189-2.032-5.2a7.561,7.561,0,0,0,.056-1.016,2.937,2.937,0,0,0-.2-1.089.244.244,0,0,1-.051-.18c.051-.073.287-.056.857-.129a13.027,13.027,0,0,0,2.7-.686c1.852-.746,2.122-2.572,5.384-3.464a7.481,7.481,0,0,0-1.783,4.694Z" transform="translate(-204.742 -51.179)" fill="#ffcfcd"/>
        <path id="Pfad_8400" data-name="Pfad 8400" d="M364.75,71.062a6.238,6.238,0,0,1-.574,1.239,5.7,5.7,0,0,1-.3,1.8c-.322.664-.506.652-1.059.81-2.3.643-4.03,5.487-8.608,4.553-2.3-.467-2.8-6.242-2.834-6.692a11.08,11.08,0,0,1,.857-5.856c2.028-4.535,8.672-3.858,10.846-.677A8.926,8.926,0,0,1,364.75,71.062Z" transform="translate(-200.705 -36.382)" fill="#ffcfcd"/>
        <path id="Pfad_8401" data-name="Pfad 8401" d="M369.216,72.1a3.912,3.912,0,0,1-.763,2.979,2.311,2.311,0,0,1-.969.622c-.309.077-.386,0-.579.1-.373.2-.326.617-.643,1.145-1.007,1.655-3.665,2.311-5.573,2.5,5.191-2.118,4.1-4.673,4.4-6.739.129-.913.506-1.286.4-1.98A6.458,6.458,0,0,0,364.6,68.7a6.248,6.248,0,0,0-.647-1.08c-.982-.977-2.448-.386-2.846-1.179a1.406,1.406,0,0,1,0-1.076,3.1,3.1,0,0,1,1.509-1.466c1.179-.772,3.232.21,4.54,2.658a19.984,19.984,0,0,1,2.058,5.543Z" transform="translate(-206.058 -36.358)" fill="#ffcfcd"/>
        <path id="Pfad_8402" data-name="Pfad 8402" d="M361.3,73.98c.047-.639.214-2.088.759-2.435a1.042,1.042,0,0,1,1.145.077c.939.746.06,2.041-.54,2.932a6.3,6.3,0,0,0-.857,1.869,8.276,8.276,0,0,0,1.123-1.26c1.938-2.645,3.284-7.879.223-11a7.364,7.364,0,0,0-8.736-1.183,6.859,6.859,0,0,0-2.508,2.958c-.913,1.959-.66,4.265-.429,4.265.064,0,.094-.36.176-.763.429-2.088,1.912-3.639,3.344-3.858.772-.111,1.333.609,2.336.592,2.058-.039,1.153-.06,3.069,2.452a3.82,3.82,0,0,1,.476.7c.27.634-.047,1.2-.283,2.058C360.247,72.629,359.921,74.734,361.3,73.98Z" transform="translate(-200.672 -35.446)" fill="#733639"/>
        <path id="Pfad_8403" data-name="Pfad 8403" d="M357.315,111.972s-2.808-.549-2.936-.51-1.779.656-1.779.656l2.486-3.918a8.891,8.891,0,0,0,2.229,3.772Z" transform="translate(-201.436 -61.817)" fill="#51b5c9"/>
        <path id="Pfad_8404" data-name="Pfad 8404" d="M355.355,102.52a7.566,7.566,0,0,1-.056,1.016,8.111,8.111,0,0,0-1.05,3.751v.107h-.034a3.585,3.585,0,0,0-.656.429,3.63,3.63,0,0,0-.939,1.072C352.611,106.468,352.808,103.862,355.355,102.52Z" transform="translate(-201.447 -58.572)" fill="#fff"/>
        <path id="Pfad_8405" data-name="Pfad 8405" d="M356.185,108.112a1.51,1.51,0,0,0,.056.626h.03c0,.03,0,.03.026.03.63.343,2.572.943,3.061,1.316a9.041,9.041,0,0,1-2.032-5.2A4.78,4.78,0,0,0,356.185,108.112Z" transform="translate(-203.478 -59.92)" fill="#b0e0ee"/>
        <path id="Pfad_8406" data-name="Pfad 8406" d="M370.6,105.519c0,3.228-1.835,3.069-3.755,6.859-.883-.857-1.758-1.715-2.611-2.572a3.431,3.431,0,0,0-.63.4l.459-1.136c.133.12,3.832-2.546,4.51-3.982C369.263,105.206,369.94,105.364,370.6,105.519Z" transform="translate(-207.721 -60.04)" fill="#51b5c9"/>
        <path id="Pfad_8407" data-name="Pfad 8407" d="M364.063,114.34l-.463,1.14.789-.995Z" transform="translate(-207.721 -65.325)" fill="#b0e0ee"/>
        <path id="Pfad_8408" data-name="Pfad 8408" d="M364.68,106.776c.909.913,1.715,1.715,2.7,2.7,2.208-3.382,3.455-3.858,3.678-6.473a2.5,2.5,0,0,0-1.895-1.9,2.5,2.5,0,0,1-.262,1.663A22.131,22.131,0,0,1,364.68,106.776Z" transform="translate(-208.338 -57.761)" fill="#fff"/>
        <path id="Pfad_8409" data-name="Pfad 8409" d="M450.163,99.762a1.844,1.844,0,0,1-.57.669,8.494,8.494,0,0,1-1.307.99,5.877,5.877,0,0,1-2.2.613,2.876,2.876,0,0,0,1.955-.086c1.076-.394,1.612-1.235,1.835-1.08.133.094.039.48-.064.746-.356.909-1.222,1.329-2.456,1.916a12.285,12.285,0,0,1-4.227,1.166,12.967,12.967,0,0,1-1.625,1.925c-1.316,1.157-2.109.141-2.795-.8h0a2.908,2.908,0,0,1-.163-3.644c.969-1.286.429-1.53,1.123-2.606a4.57,4.57,0,0,1,1.466-1.612c.664-.429.909-.253,1.582-.737.746-.536.939-1.076,1.286-.99s.6.827.463,1.243c-.232.857-1.865,1.183-1.865,1.286a8.45,8.45,0,0,0,3.948-1.449,9.148,9.148,0,0,0,1.213-1.085c.476-.527.647-.883.965-.857a.566.566,0,0,1,.463.347,1.625,1.625,0,0,1-.484,1.115,15.79,15.79,0,0,1-1.466,1.642,8.01,8.01,0,0,1-1.895,1.2c1.213-.231,2.182-.682,3.824-2.615.232-.27.562-.677.857-.6.193.051.274.309.279.326.107.369-.184.742-.562,1.209-.823,1.016-1.235,1.526-1.355,1.625A7.443,7.443,0,0,1,446,100.778a2.884,2.884,0,0,0,1.865-.364c1.389-.69,1.921-2.006,2.268-1.843A1.061,1.061,0,0,1,450.163,99.762Z" transform="translate(-250.211 -54.485)" fill="#ffcfcd"/>
        <path id="Pfad_8410" data-name="Pfad 8410" d="M384.265,109.28c8.218,2.045,8.325,6,16.045,8.775,2.109-2.658,6.113-8.145,6.113-8.145a3.305,3.305,0,0,0,1.543,2.606,3.245,3.245,0,0,0,2.9.12c-4.244,7.991-5.663,11.63-8.089,12.462-5.226,1.792-11.146-6.066-20.405-5.616a8.86,8.86,0,0,1-.857-4A9.35,9.35,0,0,1,384.265,109.28Z" transform="translate(-217.956 -62.434)" fill="#78c6d6"/>
        <path id="Pfad_8411" data-name="Pfad 8411" d="M376.308,135.882c-.626.39-.369,3.459,1.389,9.054a16.058,16.058,0,0,1-2.722.592,12.255,12.255,0,0,0-2.868-.184c-.536-2.075-.96-4.038-1.286-5.851a75.162,75.162,0,0,1-1.055-8.072c-.536-7.035-.776-10.828,1.333-14.811s4.625-6.43,6.739-7.489c-2,2.221-5.221,7.6-5.277,12.359,0,.39,0,1.427.094,2.666a38.679,38.679,0,0,0,1.183,7.09c-.15.609.39.909,1.222,1.166,1.286.39,3.429.6,4.63,1.77-.039.039-.133.073-.223.146A23.678,23.678,0,0,1,376.308,135.882Z" transform="translate(-211.032 -62.343)" fill="#51b5c9"/>
        <path id="Pfad_8412" data-name="Pfad 8412" d="M362.757,130.23h0c-.094.206-.184.39-.279.613-1.462.429-3.129.926-4.608,1.35-1.946,1.406,4.887,12.959,2.718,21.382-.219.857-1.286,4.385-4.368,6.109a8.044,8.044,0,0,1-4.218.9h-.056a14.182,14.182,0,0,1-3.648-.429c-2.242-.536-11.81,0-8.625-15.7,1.869-9.238.943-8.5.107-20.148-.129-1.779-.184-3.558-.313-5.316a22.514,22.514,0,0,1,.206-7.978c.034-.111.051-.24.107-.39.6-2.143,1.95-5.144,3.742-6.4.917-.639,1.955-1.252,2.739-.463-3.592,3.537-4.63,7.24-4.287,8.423.429,1.59,3,2.834,5.646,2.924a5.6,5.6,0,0,0,1.286-.111.712.712,0,0,0,.206-.034,5.92,5.92,0,0,0,1.852-.7c.073-.039,5.307-8.1,6.619-9.457l.039-.034a2.262,2.262,0,0,1,2.431.343c.039.051.206.236.206.3a2.721,2.721,0,0,1,.24.407c-4.038,2.722-5.629,7.369-6.074,12.222,0,0-.626,3.258,1.26,9.4a4.215,4.215,0,0,0,2.5,1.149h.094a10.971,10.971,0,0,0,3.961-.463A4.037,4.037,0,0,1,362.757,130.23Z" transform="translate(-193.683 -59.07)" fill="#cd3d32"/>
        <path id="Pfad_8413" data-name="Pfad 8413" d="M362.746,130.23h0a5.4,5.4,0,0,1-1.715.557,11.544,11.544,0,0,0-3.755,1.406c-2.611,1.963,5.071,12.162,2.7,21.382-.223.857-1.286,4.385-4.351,6.109a7.592,7.592,0,0,1-3.644.9h-.056a14.181,14.181,0,0,1-3.648-.429c-2.242-.536-11.81,0-8.625-15.7,1.869-9.238.943-8.5.107-20.148-.129-1.779-.184-3.558-.313-5.316a22.514,22.514,0,0,1,.206-7.978c.034-.111.051-.24.107-.39.6-2.143,1.95-5.144,3.742-6.4a3,3,0,0,1,2.182-.8,1.075,1.075,0,0,1,.317.15c-1.715,1.852-5.427,5.74-4.63,8.608.634,2.461,6.387,3.987,9.572,2.075.073-.039,5.307-8.1,6.619-9.457l.039-.034a2.262,2.262,0,0,1,2.431.343c.039.051.206.236.206.3-6.657,5.02-7.673,11.96-5.8,19.831a3.838,3.838,0,0,0,3.721,3.369h.094a13.537,13.537,0,0,0,3.961-.463A3.737,3.737,0,0,1,362.746,130.23Z" transform="translate(-193.672 -59.07)" fill="#cd3d32" style="mix-blend-mode: screen;isolation: isolate"/>
        <path id="Pfad_8414" data-name="Pfad 8414" d="M242.388,359.185h0c2.649-1.17,5.779,5.847,3.275,7.287h0l-2.1,1.209-3.206-7.33Z" transform="translate(-137.311 -205.136)" fill="#664057"/>
        <path id="Pfad_8415" data-name="Pfad 8415" d="M237.77,364.225a6.243,6.243,0,0,0,2.611,4.99c1.445.832,2.611-.051,2.611-1.972a6.261,6.261,0,0,0-2.611-4.99C238.94,361.421,237.77,362.3,237.77,364.225Z" transform="translate(-135.831 -206.785)" fill="#4f3243"/>
        <path id="Pfad_8416" data-name="Pfad 8416" d="M241.931,370.07c1.488.857,1.522-2.143,0-3.035S240.413,369.2,241.931,370.07Z" transform="translate(-137.557 -209.604)" fill="#f3ece6"/>
        <path id="Pfad_8417" data-name="Pfad 8417" d="M242.435,361.041c.09-.292.544-1.6,1.192-3.721a2.482,2.482,0,0,0,4.257.111v4.257a20.382,20.382,0,0,1-4.342,2.143C242.6,364.123,241.655,363.523,242.435,361.041Z" transform="translate(-138.331 -204.145)" fill="#906471"/>
        <path id="Pfad_8418" data-name="Pfad 8418" d="M245.6,355.949c0,1.56,4.257,1.53,4.257-.026C249.792,354.358,245.6,354.384,245.6,355.949Z" transform="translate(-140.304 -202.684)" fill="#4f3243"/>
        <path id="Pfad_8419" data-name="Pfad 8419" d="M113.593,284.615h0c2.649-1.17,5.779,5.847,3.275,7.288h0l-2.1,1.209-3.2-7.33Z" transform="translate(-63.73 -162.533)" fill="#664057"/>
        <path id="Pfad_8420" data-name="Pfad 8420" d="M109,289.659a6.268,6.268,0,0,0,2.611,4.99c1.44.836,2.611-.051,2.611-1.976a6.243,6.243,0,0,0-2.611-4.99C110.166,286.851,109,287.734,109,289.659Z" transform="translate(-62.262 -164.181)" fill="#4f3243"/>
        <path id="Pfad_8421" data-name="Pfad 8421" d="M113.141,295.5c1.488.857,1.518-2.143,0-3.039S111.619,294.624,113.141,295.5Z" transform="translate(-63.976 -166.998)" fill="#f3ece6"/>
        <path id="Pfad_8422" data-name="Pfad 8422" d="M113.629,286.421c.086-.287.544-1.6,1.187-3.721a2.482,2.482,0,0,0,4.257.111v4.257a20.381,20.381,0,0,1-4.342,2.143C113.8,289.525,112.87,288.924,113.629,286.421Z" transform="translate(-64.747 -161.513)" fill="#906471"/>
        <path id="Pfad_8423" data-name="Pfad 8423" d="M116.8,281.4c0,1.56,4.257,1.535,4.257-.026C120.992,279.794,116.8,279.82,116.8,281.4Z" transform="translate(-66.718 -160.086)" fill="#4f3243"/>
        <path id="Pfad_8424" data-name="Pfad 8424" d="M311.4,319.046h0c2.649-1.17,5.779,5.851,3.275,7.288h0l-2.1,1.213-3.194-7.309Z" transform="translate(-176.749 -182.204)" fill="#664057"/>
        <path id="Pfad_8425" data-name="Pfad 8425" d="M306.77,324.087a6.261,6.261,0,0,0,2.611,4.99c1.44.832,2.611-.051,2.611-1.976a6.249,6.249,0,0,0-2.611-4.99C307.936,321.275,306.77,322.162,306.77,324.087Z" transform="translate(-175.252 -183.85)" fill="#4f3243"/>
        <path id="Pfad_8426" data-name="Pfad 8426" d="M310.941,329.933c1.488.857,1.518-2.143,0-3.039S309.419,329.054,310.941,329.933Z" transform="translate(-176.984 -186.669)" fill="#f3ece6"/>
        <path id="Pfad_8427" data-name="Pfad 8427" d="M311.442,320.851c.086-.287.544-1.595,1.187-3.721a2.478,2.478,0,0,0,4.257.116V321.5a20.8,20.8,0,0,1-4.342,2.143C311.6,323.959,310.657,323.354,311.442,320.851Z" transform="translate(-177.755 -181.184)" fill="#906471"/>
        <path id="Pfad_8428" data-name="Pfad 8428" d="M314.6,315.818c0,1.56,4.257,1.53,4.257-.03S314.6,314.253,314.6,315.818Z" transform="translate(-179.726 -179.756)" fill="#4f3243"/>
        <path id="Pfad_8429" data-name="Pfad 8429" d="M168.608,232.909v36.536L107.02,233.728V197.17Z" transform="translate(-61.13 -112.648)" fill="#f9f1e6"/>
        <path id="Pfad_8430" data-name="Pfad 8430" d="M168.608,208.31,107.02,172.589l31.936-18.459,61.609,35.726Z" transform="translate(-61.13 -88.058)" fill="#f9f1e6"/>
        <path id="Pfad_8431" data-name="Pfad 8431" d="M282.648,274.052,250.69,292.506V255.953l31.958-18.433C282.652,238.476,282.648,271.891,282.648,274.052Z" transform="translate(-143.212 -135.701)" fill="#f9f1e6"/>
        <g id="Gruppe_218" data-name="Gruppe 218" transform="translate(107.478 101.819)" opacity="0.3" style="mix-blend-mode: multiply;isolation: isolate">
          <path id="Pfad_8432" data-name="Pfad 8432" d="M282.648,274.052,250.69,292.506V255.953l31.958-18.433C282.652,238.476,282.648,271.891,282.648,274.052Z" transform="translate(-250.69 -237.52)" fill="#906471"/>
        </g>
        <path id="Pfad_8433" data-name="Pfad 8433" d="M168.608,232.909v1.7L107.02,198.885V197.17Z" transform="translate(-61.13 -112.648)" fill="#906471" opacity="0.3" style="mix-blend-mode: multiply;isolation: isolate"/>
        <g id="Gruppe_220" data-name="Gruppe 220" transform="translate(43.558 62.587)" style="isolation: isolate">
          <g id="Gruppe_219" data-name="Gruppe 219" style="isolation: isolate">
            <path id="Pfad_8434" data-name="Pfad 8434" d="M286.055,233.19v1.62L252.55,254.384l0-1.62Z" transform="translate(-187.833 -195.814)" fill="#cd9d87"/>
            <path id="Pfad_8435" data-name="Pfad 8435" d="M166.307,229.048l0,1.62L101.59,193.3v-1.62Z" transform="translate(-101.586 -172.098)" fill="#f8dfb6"/>
            <path id="Pfad_8436" data-name="Pfad 8436" d="M199.794,183.372,166.3,202.945c-4.4-2.534-19.573-11.3-34.2-19.758l-30.517-17.6L135.1,146l30.929,17.863Z" transform="translate(-101.58 -146)" fill="#fcedce"/>
          </g>
        </g>
        <g id="Gruppe_221" data-name="Gruppe 221" transform="translate(57.365 62.587)" opacity="0.5" style="mix-blend-mode: multiply;isolation: isolate">
          <path id="Pfad_8437" data-name="Pfad 8437" d="M153.509,146,133.79,157.506l64.73,37.376,19.681-11.5Z" transform="translate(-133.79 -146)" fill="#ca9983"/>
        </g>
        <g id="Gruppe_222" data-name="Gruppe 222" transform="translate(111.203 116.171)" opacity="0.3">
          <path id="Pfad_8438" data-name="Pfad 8438" d="M259.38,285.952,285.366,271v7.588L259.4,293.527Zm25.206-13.628L260.152,286.39v5.826l24.435-14.065Z" transform="translate(-259.38 -271)" fill="#906471"/>
          <path id="Pfad_8439" data-name="Pfad 8439" d="M288.359,287.711l-6.949,4.012v-2.581l6.949-4.012Z" transform="translate(-271.966 -279.073)" fill="#906471"/>
        </g>
        <g id="Gruppe_223" data-name="Gruppe 223" transform="translate(111.203 133.318)" opacity="0.3">
          <path id="Pfad_8440" data-name="Pfad 8440" d="M259.38,318.913,273.025,311v11.146l-13.645,7.9Zm12.886-6.584-12.127,7.022v9.362l12.127-7.022Z" transform="translate(-259.38 -311)" fill="#906471"/>
          <path id="Pfad_8441" data-name="Pfad 8441" d="M274.063,319.8l-6.953,4.012v-2.581l6.953-4.012Z" transform="translate(-263.796 -314.554)" fill="#906471"/>
        </g>
        <g id="Gruppe_224" data-name="Gruppe 224" transform="translate(127.124 126.288)" opacity="0.3">
          <path id="Pfad_8442" data-name="Pfad 8442" d="M296.52,300.383l9.915-5.783v11.116l-9.915,5.774Zm9.157-4.467-8.4,4.9V310.2l8.4-4.9Z" transform="translate(-296.52 -294.6)" fill="#906471"/>
          <path id="Pfad_8443" data-name="Pfad 8443" d="M306.9,300.651l-6.953,4.012v-2.581l6.953-4.012Z" transform="translate(-298.48 -296.583)" fill="#906471"/>
        </g>
        <g id="Gruppe_225" data-name="Gruppe 225" transform="translate(111.503 108.181)" opacity="0.3">
          <path id="Pfad_8444" data-name="Pfad 8444" d="M260.11,273.327l-.03-7.485,1.389-.8.026,5.89,20.585-11.883-.026-5.886,1.389-.8.03,7.48Z" transform="translate(-260.08 -252.36)" fill="#906471"/>
        </g>
        <g id="Gruppe_226" data-name="Gruppe 226" transform="translate(111.434 106.762)" style="isolation: isolate">
          <path id="Pfad_8445" data-name="Pfad 8445" d="M311.18,250.92l.064,1.41,4.784,2.8-.064-1.415Z" transform="translate(-289.206 -250.118)" fill="#4d3041"/>
          <path id="Pfad_8446" data-name="Pfad 8446" d="M259.92,280.52l.069,1.41,4.784,2.8-.069-1.41Z" transform="translate(-259.92 -267.03)" fill="#906471"/>
          <path id="Pfad_8447" data-name="Pfad 8447" d="M271.08,269.065l.069,1.41,23.363-13.491-.069-1.415Z" transform="translate(-266.296 -252.775)" fill="#4d3041"/>
          <path id="Pfad_8448" data-name="Pfad 8448" d="M288.067,251.845l-4.784-2.795-1.389.8,3.4,1.993-20.581,11.887-3.408-1.993-1.389.8,4.784,2.8Z" transform="translate(-259.92 -249.05)" fill="#7e5165"/>
        </g>
        <path id="Pfad_8449" data-name="Pfad 8449" d="M175.44,68.2h0V5.23h3.048V68.2h0a.763.763,0,0,1-.429.626,2.4,2.4,0,0,1-2.143,0,.767.767,0,0,1-.476-.63Z" transform="translate(-100.22 -2.988)" fill="#7e5165"/>
        <path id="Pfad_8450" data-name="Pfad 8450" d="M320.232,90v61.571a.767.767,0,0,1-.454.622,2.379,2.379,0,0,1-2.143,0,.746.746,0,0,1-.454-.622v-58.3Z" transform="translate(-181.2 -51.419)" fill="#7e5165"/>
        <g id="Gruppe_227" data-name="Gruppe 227" transform="translate(75.117)" style="isolation: isolate">
          <path id="Pfad_8451" data-name="Pfad 8451" d="M241.508,37.025l-.592,2.1-1.513-.866L175.2,1.226,177.322,0Z" transform="translate(-175.2)" fill="#6daaaa"/>
        </g>
        <path id="Pfad_8452" data-name="Pfad 8452" d="M140.56,77.677v3.888A3.732,3.732,0,0,1,139,84.995l1.946-1.127a3.742,3.742,0,0,0,1.56-3.429V76.55Z" transform="translate(-79.401 -43.735)" fill="#f39200"/>
        <path id="Pfad_8453" data-name="Pfad 8453" d="M128.385,70.947v3.888c0,3.4-2.409,4.763-5.363,3.061a11.744,11.744,0,0,1-5.333-9.238V64.77Z" transform="translate(-67.226 -37.005)" fill="#4562ac"/>
        <g id="Gruppe_228" data-name="Gruppe 228" transform="translate(50.459 1.226)" style="isolation: isolate">
          <path id="Pfad_8454" data-name="Pfad 8454" d="M153.046,9.037,128.38,35.577,117.68,29.4,142.346,2.86Z" transform="translate(-117.68 -2.86)" fill="#4562ac"/>
        </g>
        <path id="Pfad_8455" data-name="Pfad 8455" d="M165.51,92.087v3.888a3.732,3.732,0,0,1-1.56,3.429l1.942-1.127a3.763,3.763,0,0,0,1.565-3.429V90.96Z" transform="translate(-93.656 -51.968)" fill="#00622c"/>
        <path id="Pfad_8456" data-name="Pfad 8456" d="M153.33,85.357v3.888c0,3.391-2.413,4.763-5.367,3.061a11.755,11.755,0,0,1-5.333-9.238V79.18Z" transform="translate(-81.475 -45.237)" fill="#6daaaa"/>
        <g id="Gruppe_229" data-name="Gruppe 229" transform="translate(61.159 7.403)" style="isolation: isolate">
          <path id="Pfad_8457" data-name="Pfad 8457" d="M178,23.447,153.335,49.987l-10.7-6.177L167.306,17.27Z" transform="translate(-142.64 -17.27)" fill="#6daaaa"/>
        </g>
        <path id="Pfad_8458" data-name="Pfad 8458" d="M190.47,106.492v3.888a3.732,3.732,0,0,1-1.56,3.429l1.946-1.132a3.742,3.742,0,0,0,1.56-3.429V105.36Z" transform="translate(-107.916 -60.195)" fill="#f39200"/>
        <path id="Pfad_8459" data-name="Pfad 8459" d="M178.3,99.767v3.888c0,3.391-2.409,4.763-5.363,3.056a11.761,11.761,0,0,1-5.333-9.234V93.59Z" transform="translate(-95.741 -53.47)" fill="#4562ac"/>
        <g id="Gruppe_230" data-name="Gruppe 230" transform="translate(71.855 13.58)" style="isolation: isolate">
          <path id="Pfad_8460" data-name="Pfad 8460" d="M202.956,37.857,178.29,64.4l-10.7-6.177L192.256,31.68Z" transform="translate(-167.59 -31.68)" fill="#4562ac"/>
        </g>
        <path id="Pfad_8461" data-name="Pfad 8461" d="M215.43,120.9v3.884a3.723,3.723,0,0,1-1.56,3.429l1.946-1.132a3.742,3.742,0,0,0,1.56-3.429V119.76Z" transform="translate(-122.176 -68.422)" fill="#00622c"/>
        <path id="Pfad_8462" data-name="Pfad 8462" d="M203.233,114.177v3.884c0,3.4-2.413,4.767-5.367,3.061a11.761,11.761,0,0,1-5.346-9.234V108Z" transform="translate(-109.979 -61.703)" fill="#6daaaa"/>
        <g id="Gruppe_231" data-name="Gruppe 231" transform="translate(82.554 19.758)" style="isolation: isolate">
          <path id="Pfad_8463" data-name="Pfad 8463" d="M227.916,52.267,203.25,78.807l-10.7-6.177L217.216,46.09Z" transform="translate(-192.55 -46.09)" fill="#6daaaa"/>
        </g>
        <path id="Pfad_8464" data-name="Pfad 8464" d="M240.375,135.3v3.888a3.725,3.725,0,0,1-1.565,3.429l1.946-1.132a3.742,3.742,0,0,0,1.56-3.429V134.17Z" transform="translate(-136.425 -76.655)" fill="#f39200"/>
        <path id="Pfad_8465" data-name="Pfad 8465" d="M228.2,128.583v3.888c0,3.4-2.413,4.767-5.367,3.061a11.762,11.762,0,0,1-5.333-9.238V122.41Z" transform="translate(-124.25 -69.936)" fill="#4562ac"/>
        <g id="Gruppe_232" data-name="Gruppe 232" transform="translate(93.254 25.935)" style="isolation: isolate">
          <path id="Pfad_8466" data-name="Pfad 8466" d="M252.872,66.677,228.205,93.212l-10.7-6.173L242.176,60.5Z" transform="translate(-217.51 -60.5)" fill="#4562ac"/>
        </g>
        <path id="Pfad_8467" data-name="Pfad 8467" d="M253.165,142.987v3.888c0,3.4-2.413,4.767-5.363,3.061a11.762,11.762,0,0,1-5.333-9.238V136.81Z" transform="translate(-138.516 -78.163)" fill="#6daaaa"/>
        <g id="Gruppe_233" data-name="Gruppe 233" transform="translate(103.95 32.112)" style="isolation: isolate">
          <path id="Pfad_8468" data-name="Pfad 8468" d="M277.826,81.083,253.16,107.622l-10.7-6.177L267.126,74.91Z" transform="translate(-242.46 -74.91)" fill="#6daaaa"/>
        </g>
        <path id="Pfad_8469" data-name="Pfad 8469" d="M292.126,86.35l-.592,2.109-1.8,1.925-3.048,3.232-19.372,20.632v2.388c0,3.245-1.595,3.712-3.519,4.823a3.81,3.81,0,0,0,1.548-3.489l.03-3.79L286.7,91.211l3.031-3.3.287-.3Z" transform="translate(-150.697 -49.334)" fill="#00622c"/>
        <g id="Gruppe_234" data-name="Gruppe 234" transform="translate(86.112 82.456)" opacity="0.3">
          <path id="Pfad_8470" data-name="Pfad 8470" d="M200.85,204.2l20.534-11.853,25.348,14.635-20.525,11.861Zm20.534-10.978L202.368,204.2l23.834,13.76,19.016-10.978Z" transform="translate(-200.85 -192.35)" fill="#906471"/>
          <path id="Pfad_8471" data-name="Pfad 8471" d="M277.413,231.54l-6.953,4.012,2.238,1.29,6.949-4.012Z" transform="translate(-240.62 -214.74)" fill="#906471"/>
        </g>
        <path id="Pfad_8472" data-name="Pfad 8472" d="M140.08,197.049a2.452,2.452,0,0,1,1.766-1.213c1.016-.133,1.638.982,2.688,1.115s1.672-.986,3.374-.493,1.9.857,2.572.656.917-.917,2.491-.622,3.048.917,3.768.557.3-1.016,2.259-.887,2.915.789,2.782.789-3.9.819-3.9.819l-5.731.326s-5.076.231-6.713.133a23.22,23.22,0,0,1-4.784-.952Z" transform="translate(-80.018 -111.879)" fill="#6cad1f"/>
        <path id="Pfad_8473" data-name="Pfad 8473" d="M150.742,196.012a46.5,46.5,0,0,1-7.073-.394c-2.881-.523-3.322.133-3.429.394a.78.78,0,0,0,.176,1.046c.429.394,14.279,1.136,16.766.656s4.891-1.093,4.891-1.093a1.029,1.029,0,0,0-.96-1.286C159.911,195.27,150.742,196.012,150.742,196.012Z" transform="translate(-80.036 -111.597)" fill="#f49447"/>
        <path id="Pfad_8474" data-name="Pfad 8474" d="M138.244,199.74a.2.2,0,0,0-.056.081.3.3,0,0,1,0-.056Z" transform="translate(-78.937 -114.116)" fill="#ab4e11"/>
        <path id="Pfad_8475" data-name="Pfad 8475" d="M140.08,196.886a2.452,2.452,0,0,1,1.766-1.213c1.132-.146,1.535,1.2,2.688,1.115.982-.077,1.26-1.042,2.521-1.05a2.885,2.885,0,0,1,.952.163c.973.356,1.312,1.123,2.143,1.106a1.809,1.809,0,0,0,.364-.056,2.748,2.748,0,0,0,1.157-.6,3.948,3.948,0,0,1,2.285-.814c1.38.064,2.028,1.65,2.816,1.346.313-.124.283-.364.72-.673a2.372,2.372,0,0,1,1.539-.214c1.963.133,2.915.789,2.782.789s-3.9.819-3.9.819l-5.731.326s-5.076.231-6.713.133a23.22,23.22,0,0,1-4.784-.952Z" transform="translate(-80.018 -111.717)" fill="#6cad1f"/>
        <path id="Pfad_8476" data-name="Pfad 8476" d="M162.306,198.912a2.5,2.5,0,0,1-1.92,1.488c-1.063.2-19.256.566-20.349.214s-1.968-1.179-1.92-1.92a.8.8,0,0,1,0-.146.15.15,0,0,1,0-.047.3.3,0,0,1,0-.056,1.055,1.055,0,0,1,.922-.754s6.859.39,9.65.566,10.833-.857,11.926-.827a1.818,1.818,0,0,1,1.608,1.166A.75.75,0,0,1,162.306,198.912Z" transform="translate(-78.894 -112.796)" fill="#cb550f"/>
        <path id="Pfad_8477" data-name="Pfad 8477" d="M162.306,200.364a2.5,2.5,0,0,1-1.92,1.488c-1.063.2-19.256.566-20.349.214s-1.968-1.179-1.92-1.92a.8.8,0,0,1,0-.146c.026.356,2.572-.03,2.821-.03a45.209,45.209,0,0,1,5.371.57c1.865.283,7.468-.206,8.252-.206s5.864-.523,6.43-.2.669.429,1.26-.086a.75.75,0,0,1,.056.317Z" transform="translate(-78.894 -114.248)" fill="#a6240d"/>
        <path id="Pfad_8478" data-name="Pfad 8478" d="M162.045,202.141a1.45,1.45,0,0,1-.137.472c-.36.759-1.406,1.65-3.314,2.191a38.477,38.477,0,0,1-9.127.742c-2.182-.086-5.2-.219-7.116-1.355a5.21,5.21,0,0,1-1.993-1.753c-.677-1.26.7-2,1.466-1.959,1.715.09,5.809,1.179,9,1.007s7.686-.746,9.431-.784S162.13,201.31,162.045,202.141Z" transform="translate(-80.073 -114.537)" fill="#f49447"/>
        <path id="Pfad_8479" data-name="Pfad 8479" d="M142.952,196.97c.326.047,1.573.952,3,1.41a8.236,8.236,0,0,0,4.518.622c1.2-.133,1.968-.2,2.649-.236,1.007-.051,1.025,0,2.1-.06.836-.047,1.449-.111,2.229-.2,1.488-.159,2.229-.24,2.718-.326a3.94,3.94,0,0,1,1.715-.163c.652.15,1.192.57,1.342.407.073-.077,0-.231,0-.279-.163-.652-1.243-1.11-3.6-.982-4.715.261-10.785,1-12.4.429a18.719,18.719,0,0,0-3.549-.96C142.626,196.511,142.231,196.871,142.952,196.97Z" transform="translate(-81.45 -112.328)" fill="#cb0a1d"/>
        <path id="Pfad_8480" data-name="Pfad 8480" d="M143.918,198.207c-.06-.21,2-.9,2.842-.784a4.44,4.44,0,0,1,1.222.429,8.575,8.575,0,0,0,1.92.429c1.548.189,3.078-.377,4.947-.553,2.461-.231,2.173.527,4.4.249,2.328-.291,4.351-1.333,4.715-.784.463.694-3.429,1.44-4.63,1.483-1.792.064-1.895-.429-3.858-.326-1.029.056-1.055.2-2.654.36a16.475,16.475,0,0,1-3.176.141c-1.582-.154-1.535-.677-3.078-.832A17.949,17.949,0,0,0,143.918,198.207Z" transform="translate(-82.211 -112.57)" fill="#f9d42d"/>
        <path id="Pfad_8481" data-name="Pfad 8481" d="M162.15,205.226c-.36.759-1.406,1.65-3.314,2.191a38.477,38.477,0,0,1-9.127.742c-2.182-.086-5.2-.219-7.116-1.355a5.21,5.21,0,0,1-1.993-1.753,20.846,20.846,0,0,0,4.887,1.693,25.659,25.659,0,0,0,5.6.429,25.263,25.263,0,0,0,7.8-.686A19.212,19.212,0,0,0,162.15,205.226Z" transform="translate(-80.315 -117.15)" fill="#b74e1e"/>
        <path id="Pfad_8482" data-name="Pfad 8482" d="M159.406,203.435a.15.15,0,0,0-.116-.266,38.091,38.091,0,0,1-6.242.24c-1.625-.107-2.143-.163-2.143-.163a20.094,20.094,0,0,0-2.572-.232,6.237,6.237,0,0,0-1.715.18C146.5,204.143,158.034,204.593,159.406,203.435Z" transform="translate(-83.754 -115.985)" fill="#fdd172"/>
        <path id="Pfad_8483" data-name="Pfad 8483" d="M235.465,219.136l-2.075-.2.87-.553-1.02-.532,1.037-.111.159-1.179.6.652.519.57Z" transform="translate(-133.243 -123.726)" fill="#cb550f"/>
        <path id="Pfad_8484" data-name="Pfad 8484" d="M236.173,219.915l.4-.506-.412-.364.459-.116.086-.849.519.57-.09,1.355Z" transform="translate(-134.911 -124.594)" fill="#a6240d"/>
        <path id="Pfad_8485" data-name="Pfad 8485" d="M279.845,206.24l-.66.326-1.037.514-.1.051-.459-.557a11.034,11.034,0,0,1,.382-1.055c.231-.574.476-1.17.476-1.17l.094.78.776-.056-.553.806Z" transform="translate(-158.581 -116.75)" fill="#cb550f"/>
        <path id="Pfad_8486" data-name="Pfad 8486" d="M279.185,208.126l-1.037.514-.557-.506a11.029,11.029,0,0,1,.382-1.055l.18.4.291-.214-.021.514Z" transform="translate(-158.581 -118.31)" fill="#a6240d"/>
        <path id="Pfad_8487" data-name="Pfad 8487" d="M247.935,215.2c-1.715.429-8.183,1.2-9.324-.137a2.144,2.144,0,0,1-.429-.776,2.792,2.792,0,0,1-.1-.429,1.479,1.479,0,0,1,1.715-1.715,20.729,20.729,0,0,0,13.289-3.6,2.144,2.144,0,0,1,1.59-.532,1.689,1.689,0,0,1,1.256,1.149C256.513,211.2,252.2,214.124,247.935,215.2Z" transform="translate(-135.995 -118.838)" fill="#cb550f"/>
        <path id="Pfad_8488" data-name="Pfad 8488" d="M240.41,213.824a14.7,14.7,0,0,0,8.106-.322,18.862,18.862,0,0,0,7.365-4.072,33.548,33.548,0,0,1-3.117,1.715,25.371,25.371,0,0,1-6.293,2.315A21.167,21.167,0,0,1,240.41,213.824Z" transform="translate(-137.339 -119.652)" fill="#f49447"/>
        <path id="Pfad_8489" data-name="Pfad 8489" d="M248.1,216.764c-1.715.429-8.183,1.2-9.324-.137a2.144,2.144,0,0,1-.429-.776.2.2,0,0,1,.03-.03s.857,1.153,4.955.909c3.086-.184,10.288-1.638,12.762-5.98C256.68,212.769,252.372,215.693,248.1,216.764Z" transform="translate(-136.162 -120.407)" fill="#a6240d"/>
        <path id="Pfad_8490" data-name="Pfad 8490" d="M222.839,210.081l-2.079-.2.87-.557-1.02-.527,1.037-.111.159-1.183.6.656.523.566Z" transform="translate(-126.027 -118.55)" fill="#cb550f"/>
        <path id="Pfad_8491" data-name="Pfad 8491" d="M223.543,210.86l.4-.5-.412-.364.459-.116.081-.849.523.566-.086,1.359Z" transform="translate(-127.695 -119.424)" fill="#a6240d"/>
        <path id="Pfad_8492" data-name="Pfad 8492" d="M267.238,197.19l-.656.326-1.037.51-.1.056-.442-.562a11.161,11.161,0,0,1,.382-1.05c.232-.574.476-1.17.476-1.17l.094.776.763-.047-.553.8Z" transform="translate(-151.388 -111.58)" fill="#cb550f"/>
        <path id="Pfad_8493" data-name="Pfad 8493" d="M266.582,199.076l-1.037.51L265,199.08a11.159,11.159,0,0,1,.382-1.05l.18.4.291-.214-.021.51Z" transform="translate(-151.388 -113.139)" fill="#a6240d"/>
        <path id="Pfad_8494" data-name="Pfad 8494" d="M235.3,206.16c-1.715.429-8.183,1.2-9.324-.141a2.114,2.114,0,0,1-.429-.776,2.568,2.568,0,0,1-.1-.429,1.479,1.479,0,0,1,1.715-1.715,20.7,20.7,0,0,0,13.289-3.6,2.143,2.143,0,0,1,1.595-.514,1.685,1.685,0,0,1,1.256,1.149C243.883,202.161,239.575,205.084,235.3,206.16Z" transform="translate(-128.779 -113.682)" fill="#cb550f"/>
        <path id="Pfad_8495" data-name="Pfad 8495" d="M227.78,204.77a14.668,14.668,0,0,0,8.111-.321,18.832,18.832,0,0,0,7.36-4.068,34.587,34.587,0,0,1-3.116,1.715,25.373,25.373,0,0,1-6.293,2.315,21.04,21.04,0,0,1-6.062.36Z" transform="translate(-130.123 -114.482)" fill="#f49447"/>
        <path id="Pfad_8496" data-name="Pfad 8496" d="M235.472,207.686c-1.715.429-8.183,1.2-9.324-.141a2.114,2.114,0,0,1-.429-.776l.03-.03s.857,1.153,4.955.913c3.086-.184,10.288-1.642,12.762-6C244.05,203.686,239.742,206.61,235.472,207.686Z" transform="translate(-128.946 -115.207)" fill="#a6240d"/>
        <path id="Pfad_8497" data-name="Pfad 8497" d="M246.482,228.948l-2.083-.017.814-.63-1.063-.437,1.025-.2.051-1.192.656.6.57.519Z" transform="translate(-139.476 -129.388)" fill="#cb550f"/>
        <path id="Pfad_8498" data-name="Pfad 8498" d="M247.22,229.733l.352-.536-.442-.326.446-.154.009-.857.57.519.03,1.363Z" transform="translate(-141.179 -130.182)" fill="#a6240d"/>
        <path id="Pfad_8499" data-name="Pfad 8499" d="M289.641,212.178l-.626.382-.99.6-.094.064-.51-.514c0-.077.141-.574.291-1.085.176-.592.364-1.209.364-1.209l.167.767.767-.124-.476.857Z" transform="translate(-164.197 -120.218)" fill="#cb550f"/>
        <path id="Pfad_8500" data-name="Pfad 8500" d="M289.015,214.2l-.99.6-.6-.429c0-.077.141-.574.291-1.085l.21.382.274-.24.026.51Z" transform="translate(-164.197 -121.858)" fill="#a6240d"/>
        <path id="Pfad_8501" data-name="Pfad 8501" d="M259.072,222.1c-1.685.587-8.042,1.929-9.3.694a2.208,2.208,0,0,1-.493-.733,3.4,3.4,0,0,1-.137-.429,1.479,1.479,0,0,1,1.548-1.839,20.739,20.739,0,0,0,12.925-4.771,2.144,2.144,0,0,1,1.535-.669,1.715,1.715,0,0,1,1.355,1.033C267.255,217.351,263.23,220.63,259.072,222.1Z" transform="translate(-142.3 -122.463)" fill="#cb550f"/>
        <path id="Pfad_8502" data-name="Pfad 8502" d="M251.3,221.511a14.712,14.712,0,0,0,8.046-1.046,18.918,18.918,0,0,0,6.97-4.715,33.864,33.864,0,0,1-2.949,2,25.185,25.185,0,0,1-6.061,2.868A21.2,21.2,0,0,1,251.3,221.511Z" transform="translate(-143.561 -123.263)" fill="#f49447"/>
        <path id="Pfad_8503" data-name="Pfad 8503" d="M259.315,223.484c-1.685.587-8.042,1.929-9.3.694a2.208,2.208,0,0,1-.493-.733l.03-.034s.973,1.072,5.016.463c3.061-.459,10.1-2.572,12.179-7.095C267.5,218.739,263.473,222.018,259.315,223.484Z" transform="translate(-142.544 -123.852)" fill="#a6240d"/>
        <path id="Pfad_8504" data-name="Pfad 8504" d="M169.25,210.315a2.461,2.461,0,0,1,.952-1.925c.819-.609,1.908.056,2.885-.343s.977-1.676,2.7-2.079,2.075-.189,2.572-.7.352-1.247,1.865-1.762,3.108-.69,3.558-1.359-.24-1.029,1.539-1.878,2.924-.742,2.812-.677-3,2.624-3,2.624l-4.844,3.1s-4.312,2.688-5.787,3.4a23.15,23.15,0,0,1-4.638,1.513Z" transform="translate(-96.684 -114.008)" fill="#6cad1f"/>
        <path id="Pfad_8505" data-name="Pfad 8505" d="M177.771,203.311a46.343,46.343,0,0,1-6.362,3.121c-2.774.956-2.829,1.74-2.812,2.032a.784.784,0,0,0,.664.827c.574.129,13.006-6,14.944-7.639s3.73-3.348,3.73-3.348a1.031,1.031,0,0,0-1.458-.634C185.41,198.171,177.771,203.311,177.771,203.311Z" transform="translate(-96.31 -112.86)" fill="#f49447"/>
        <path id="Pfad_8506" data-name="Pfad 8506" d="M168.234,226.45a.279.279,0,0,0,0,.1.24.24,0,0,1,0-.051Z" transform="translate(-96.101 -129.376)" fill="#ab4e11"/>
        <path id="Pfad_8507" data-name="Pfad 8507" d="M169.25,210.318a2.461,2.461,0,0,1,.952-1.925c.913-.682,1.925.3,2.885-.343.819-.549.587-1.522,1.685-2.143a2.829,2.829,0,0,1,.909-.322c1.025-.171,1.693.334,2.392-.081a1.461,1.461,0,0,0,.291-.227,2.7,2.7,0,0,0,.716-1.085,3.953,3.953,0,0,1,1.595-1.826c1.235-.622,2.572.429,3.112-.21.214-.257.073-.454.3-.934.124-.261.429-.549,1.239-.943,1.775-.857,2.924-.742,2.812-.677s-3,2.623-3,2.623l-4.848,3.1s-4.312,2.688-5.787,3.4a23.149,23.149,0,0,1-4.638,1.513Z" transform="translate(-96.684 -114.012)" fill="#6cad1f"/>
        <path id="Pfad_8508" data-name="Pfad 8508" d="M189.47,199.014a2.572,2.572,0,0,1-.947,2.238c-.806.707-16.517,9.924-17.64,10.155s-2.289-.064-2.615-.733a.971.971,0,0,1-.056-.141.162.162,0,0,1,0-.043.238.238,0,0,1,0-.051,1.05,1.05,0,0,1,.429-1.11s6.173-3,8.7-4.231,9-6.066,9.984-6.563a1.822,1.822,0,0,1,1.976.227A.858.858,0,0,1,189.47,199.014Z" transform="translate(-96.074 -113.318)" fill="#cb550f"/>
        <path id="Pfad_8509" data-name="Pfad 8509" d="M189.508,199.562a2.572,2.572,0,0,1-.947,2.238c-.806.707-16.517,9.924-17.64,10.155s-2.289-.064-2.615-.733a.971.971,0,0,1-.056-.141c.2.3,2.233-1.286,2.443-1.4a45.4,45.4,0,0,1,4.964-2.143c1.766-.669,6.409-3.837,7.095-4.222s4.857-3.331,5.5-3.318.8.06,1.055-.694A.858.858,0,0,1,189.508,199.562Z" transform="translate(-96.113 -113.865)" fill="#a6240d"/>
        <path id="Pfad_8510" data-name="Pfad 8510" d="M190.793,203.438a1.436,1.436,0,0,1,.111.48,5.033,5.033,0,0,1-1.818,3.532,38.587,38.587,0,0,1-7.592,5.118c-1.946.995-4.638,2.353-6.859,2.306a5.207,5.207,0,0,1-2.6-.557c-1.2-.767-.364-2.083.322-2.426,1.526-.754,5.641-1.818,8.338-3.528s6.336-4.411,7.84-5.307S190.463,202.671,190.793,203.438Z" transform="translate(-97.929 -115.739)" fill="#f49447"/>
        <path id="Pfad_8511" data-name="Pfad 8511" d="M171.042,209.782c.3-.12,1.835.056,3.314-.249a8.223,8.223,0,0,0,4.248-1.672c.982-.7,1.616-1.136,2.191-1.5.857-.54.9-.5,1.8-1.08.7-.429,1.2-.81,1.848-1.265,1.217-.857,1.826-1.286,2.208-1.616.75-.617.917-.836,1.406-.977.643-.184,1.316-.081,1.367-.3.026-.1-.1-.21-.133-.244-.463-.489-1.633-.36-3.622.909-3.97,2.529-8.916,6.156-10.6,6.456a18.863,18.863,0,0,0-3.562.9C170.531,209.52,170.36,210.026,171.042,209.782Z" transform="translate(-97.472 -114.616)" fill="#cb0a1d"/>
        <path id="Pfad_8512" data-name="Pfad 8512" d="M173.125,209.434c-.154-.154,1.286-1.762,2.092-2.075a4.377,4.377,0,0,1,1.286-.227,8.9,8.9,0,0,0,1.895-.553c1.44-.6,2.5-1.839,4.038-2.906,2.036-1.406,2.143-.6,3.961-1.933,1.886-1.4,3.138-3.3,3.725-3,.746.377-2.289,2.941-3.305,3.562-1.535.93-1.869.544-3.532,1.608-.857.553-.823.69-2.143,1.612a16.717,16.717,0,0,1-2.7,1.68c-1.453.643-1.672.163-3.091.784C173.849,208.641,173.236,209.55,173.125,209.434Z" transform="translate(-98.891 -113.527)" fill="#f9d42d"/>
        <path id="Pfad_8513" data-name="Pfad 8513" d="M191.716,205.7a5.033,5.033,0,0,1-1.818,3.532,38.589,38.589,0,0,1-7.592,5.118c-1.946.995-4.638,2.353-6.859,2.306a5.206,5.206,0,0,1-2.6-.557,20.824,20.824,0,0,0,5.088-.917,25.56,25.56,0,0,0,5.088-2.375,25.193,25.193,0,0,0,6.46-4.415,19.376,19.376,0,0,0,2.229-2.692Z" transform="translate(-98.741 -117.521)" fill="#b74e1e"/>
        <path id="Pfad_8514" data-name="Pfad 8514" d="M188.526,211.223a.15.15,0,0,0-.231-.176,37.234,37.234,0,0,1-5.324,3.262c-1.47.7-1.963.917-1.963.917a20.226,20.226,0,0,0-2.371,1.067,6.542,6.542,0,0,0-1.406.995C177.616,218.154,187.9,212.9,188.526,211.223Z" transform="translate(-101.243 -120.558)" fill="#fdd172"/>
        <path id="Pfad_8515" data-name="Pfad 8515" d="M247.6,252.243l-9.272,5.388-10.065-5.813,9.272-5.388Z" transform="translate(-130.398 -140.791)" fill="#ca9983"/>
        <path id="Pfad_8516" data-name="Pfad 8516" d="M250.415,238.086l-.549.317-4.145-3.022-4.613-2.654-2.889-11.377-.339-1.32.536.313,8.758,5.058.339,1.307Z" transform="translate(-135.894 -125.708)" fill="#e5d6c3"/>
        <path id="Pfad_8517" data-name="Pfad 8517" d="M249.866,238.4l-9.294-5.371-2.692-13,8.754,5.663Z" transform="translate(-135.894 -125.708)" fill="#e0c3b3"/>
        <path id="Pfad_8518" data-name="Pfad 8518" d="M243.862,227.126,242.07,235.8l-1.277,6.169-.69.4-.407-1.029-8.2-4.728,3.078-14.841.2-1.007,8.758,5.058Z" transform="translate(-132.243 -126.125)" fill="#e5d6c3"/>
        <path id="Pfad_8519" data-name="Pfad 8519" d="M233.311,220.03l-3.421,16.551,9.3,5.367,3.421-16.555Z" transform="translate(-131.329 -125.708)" fill="#f9f1e6"/>
        <path id="Pfad_8520" data-name="Pfad 8520" d="M245.737,230.017l-.154.75-6.233-3.6.154-.746Z" transform="translate(-136.734 -129.359)" fill="#e5d6c3"/>
        <path id="Pfad_8521" data-name="Pfad 8521" d="M244.467,235.711l-.154.746-6.233-3.6.154-.746Z" transform="translate(-136.008 -132.61)" fill="#e5d6c3"/>
        <path id="Pfad_8522" data-name="Pfad 8522" d="M243.207,241.4l-.154.746-6.233-3.6.154-.746Z" transform="translate(-135.288 -135.861)" fill="#e5d6c3"/>
        <path id="Pfad_8523" data-name="Pfad 8523" d="M241.937,247.1l-.154.75-6.233-3.6.154-.746Z" transform="translate(-134.563 -139.117)" fill="#e5d6c3"/>
        <path id="Pfad_8524" data-name="Pfad 8524" d="M162.17,250.918c5.521,3.189,9.992,10.931,9.971,17.276s-4.514,8.912-10.035,5.723S152.113,263,152.13,256.641,156.635,247.724,162.17,250.918Z" transform="translate(-86.903 -142.57)" fill="#de5148"/>
        <path id="Pfad_8525" data-name="Pfad 8525" d="M143.572,273.53l1.089,1.119.261,1.269-.57.073.716.639-.313.677-1.548-.412.922-.652-1.6-1.02,1.346.06Z" transform="translate(-81.418 -156.274)" fill="#f49447"/>
        <path id="Pfad_8526" data-name="Pfad 8526" d="M147.066,276.14l.887.909a3.048,3.048,0,0,0,.189,1.47c.077.184.171.394.287.613l-1.286-.334.313-.677-.716-.639.57-.073Z" transform="translate(-83.823 -157.765)" fill="#b74e1e"/>
        <path id="Pfad_8527" data-name="Pfad 8527" d="M172.4,274.41a2.971,2.971,0,0,1,.347,1.35c.026,2.744-3.948,5.389-8.479,5.976-1.916.244-8.848.056-11.78-1.638a3.481,3.481,0,0,1-.827-.634,6.13,6.13,0,0,1-.913-1.265l.034-.039a4.368,4.368,0,0,0,1.085.806,14.847,14.847,0,0,0,5.976,1.659C161.917,281.033,170.962,280.42,172.4,274.41Z" transform="translate(-86.114 -156.777)" fill="#b74e1e"/>
        <path id="Pfad_8528" data-name="Pfad 8528" d="M198.583,268.972l.2.767,1.179.694-.819.382a4.895,4.895,0,0,0-1.32-1.368c0-.253.03-.553.051-.857l.429.639Z" transform="translate(-113.007 -153.452)" fill="#b74e1e"/>
        <path id="Pfad_8529" data-name="Pfad 8529" d="M198.037,264.7l.472,1.2,1.02.094-.39,1.089,1.608.785-.742.347-.819.381.819-.381-1.179-.694-.2-.767-.3.257-.429-.639C197.973,265.549,198.033,264.743,198.037,264.7Z" transform="translate(-113.052 -151.229)" fill="#f49447"/>
        <path id="Pfad_8530" data-name="Pfad 8530" d="M171.093,271.7c-.124.171-2.413,3.429-8.145,4.527a18.6,18.6,0,0,1-10.768-1.286,25.013,25.013,0,0,0,8,.806,20.148,20.148,0,0,0,7.455-2.109,24.041,24.041,0,0,0,3.459-1.938Z" transform="translate(-86.931 -155.229)" fill="#fdd172"/>
        <path id="Pfad_8531" data-name="Pfad 8531" d="M151.166,276.117a4.37,4.37,0,0,1-1.085-.806,2.667,2.667,0,0,1-.352-.63,3.048,3.048,0,0,1-.189-1.47c.107-.553.532-.99,1.736-.716,7.313,1.689,13.289.253,16.32-2.5a1.783,1.783,0,0,1,1.912-.429,2.947,2.947,0,0,1,.476.223l.24.15a4.9,4.9,0,0,1,1.32,1.367q.081.137.154.27c-1.44,6-10.485,6.623-14.575,6.216A14.5,14.5,0,0,1,151.166,276.117Zm7.51-1.689a25.013,25.013,0,0,1-8-.806,18.6,18.6,0,0,0,10.768,1.286c5.714-1.11,8-4.355,8.145-4.527a24.05,24.05,0,0,1-3.429,1.92,20.148,20.148,0,0,1-7.455,2.109Z" transform="translate(-85.412 -153.944)" fill="#f49447"/>
        <path id="Pfad_8532" data-name="Pfad 8532" d="M127.518,596.621c8.282.407,20.9-2.846,20.847-11.24-.064-9.881-20.4-14.888-32.348-7.849C104.553,584.293,111.794,595.841,127.518,596.621Z" transform="translate(-63.066 -328.077)" fill="#f2e3dc" style="mix-blend-mode: multiply;isolation: isolate"/>
        <path id="Pfad_8533" data-name="Pfad 8533" d="M119.578,592.533v.043c.8,1.565,3.365,1.826,4.913-.051,0,0,3.061-4.531,4.012-5.946a2.263,2.263,0,0,0,.382-.99c.159-1.166.133-2.726-.544-3.339,0-.021,0-.021-.026,0h-.03c-2.345-1.818-6.259,2.285-8.1,4.763a1.14,1.14,0,0,0-.124.2A5.978,5.978,0,0,0,119.578,592.533Z" transform="translate(-68.068 -332.395)" fill="#526aa1"/>
        <path id="Pfad_8534" data-name="Pfad 8534" d="M129.027,586.785a2.464,2.464,0,0,1-.373,1.016c-.952,1.415-4.017,5.941-4.017,5.941-1.556,1.878-4.115,1.616-4.908.051v-.043a3.86,3.86,0,0,1-.339-1.063,1.547,1.547,0,0,1,.1.214c.793,1.56,3.352,1.826,4.908-.056l4.017-5.95a2.383,2.383,0,0,0,.377-.99,7.647,7.647,0,0,0,.021-2.006A5.781,5.781,0,0,1,129.027,586.785Z" transform="translate(-68.198 -333.596)" fill="#526aa1" opacity="0.5" style="mix-blend-mode: multiply;isolation: isolate"/>
        <path id="Pfad_8535" data-name="Pfad 8535" d="M132.982,481.721c-1.715,6.966-2.229,5.719-2.855,11.754a41.143,41.143,0,0,1-1.856,6.936c-1,3.331-3.146,12.817-4.441,19.329a3.867,3.867,0,0,1-5.2.073h0c1.848-10.691-.094-17.576,2.628-24.688.982-2.572,1.843-3.044,1.715-6.182-.244-5.273-2.859-17.126-3.224-18.81a20.548,20.548,0,0,1-.429-6.627h0a7.065,7.065,0,0,1,1.86-4.287c4.673.171,7.759.223,12.342.3C134,465.38,134.418,475.866,132.982,481.721Z" transform="translate(-67.763 -262.363)" fill="#ffc12a"/>
        <g id="Gruppe_235" data-name="Gruppe 235" transform="translate(50.867 196.857)" opacity="0.5" style="mix-blend-mode: multiply;isolation: isolate">
          <path id="Pfad_8536" data-name="Pfad 8536" d="M132.982,481.721c-1.715,6.966-2.229,5.719-2.855,11.754a41.143,41.143,0,0,1-1.856,6.936c-1,3.331-3.146,12.817-4.441,19.329a3.867,3.867,0,0,1-5.2.073h0c1.848-10.691-.094-17.576,2.628-24.688.982-2.572,1.843-3.044,1.715-6.182-.244-5.273-2.859-17.126-3.224-18.81a20.548,20.548,0,0,1-.429-6.627h0a7.065,7.065,0,0,1,1.86-4.287c4.673.171,7.759.223,12.342.3C134,465.38,134.418,475.866,132.982,481.721Z" transform="translate(-118.63 -459.22)" fill="#ffc12a"/>
        </g>
        <path id="Pfad_8537" data-name="Pfad 8537" d="M159.032,604.763c.043-1.158.094-2.143.141-2.868a26.5,26.5,0,0,1,3.044-.643c1.483-.223,8.2-.892,9.778.141.48.317,1.2.789,1.235,1.479.086,1.445-2.894,2.623-5.706,3.738-2.281.9-5.208,1.766-7.21.857C159.01,606.906,158.98,606.156,159.032,604.763Z" transform="translate(-90.838 -343.27)" fill="#526aa1"/>
        <path id="Pfad_8538" data-name="Pfad 8538" d="M173.221,604.967c.09,1.445-2.889,2.623-5.7,3.738-2.289.9-5.213,1.766-7.21.883a2.143,2.143,0,0,1-.973-.724,3.063,3.063,0,0,1-.317-2.006,1.852,1.852,0,0,0,1.286,1.65c2,.9,4.921.026,7.21-.857,2.413-.973,4.951-1.959,5.573-3.151A1.153,1.153,0,0,1,173.221,604.967Z" transform="translate(-90.83 -345.365)" fill="#526aa1" opacity="0.5" style="mix-blend-mode: multiply;isolation: isolate"/>
        <path id="Pfad_8539" data-name="Pfad 8539" d="M153.4,496.893a42.122,42.122,0,0,1-.656,7.167c-.429,3.472-.917,13.216-1.089,19.865a3.918,3.918,0,0,1-5.144,1.033h0c0-10.867-3.116-17.289-1.629-24.808.519-2.658,1.286-3.4.622-6.409-1.826-7.888-3.7-9.907-4.377-16.877-1.38-3.1-3.116-2.821-3.6-7.532a7.086,7.086,0,0,1,1.11-4.561c5.037-.742,7.288-1.132,12.294-1.972C157.526,480.959,152.686,486.574,153.4,496.893Z" transform="translate(-78.538 -264.409)" fill="#ffc12a"/>
        <path id="Pfad_8540" data-name="Pfad 8540" d="M158.77,496.915a42.124,42.124,0,0,1-.656,7.167c-.429,3.472-.917,13.216-1.089,19.865a3.918,3.918,0,0,1-5.144,1.033h0a10.022,10.022,0,0,1,2.015-.857s.592-.292,1.037-.553c1.993-1.17,1.359-17.88,1.316-23.5-.056-7.365.814-7.313.472-14.421a36.5,36.5,0,0,0-4.441-16.05c-2.358-4.21-4.06-3.258-5.384-3.429a7.9,7.9,0,0,1,.159-1.813c3.138-.48,5.757-.93,9.247-1.513C162.9,480.982,158.059,486.6,158.77,496.915Z" transform="translate(-83.911 -264.432)" fill="#ffc12a" opacity="0.5" style="mix-blend-mode: multiply;isolation: isolate"/>
        <path id="Pfad_8541" data-name="Pfad 8541" d="M121.543,412.918a42.728,42.728,0,0,1-3.627-2.315c-2.572-1.822-3-2.572-3.232-3.087s-.322-1.14-.141-3.249c.317-3.811.9-6.233,1.56-11.047.519,0,2.911,5.929,3.429,5.929.051.364.094.694.129.986A10.241,10.241,0,0,1,121.543,412.918Z" transform="translate(-65.374 -224.656)" fill="#79b7e4"/>
        <g id="Gruppe_236" data-name="Gruppe 236" transform="translate(49.074 168.564)" opacity="0.5" style="mix-blend-mode: multiply;isolation: isolate">
          <path id="Pfad_8542" data-name="Pfad 8542" d="M121.543,412.918a42.728,42.728,0,0,1-3.627-2.315c-2.572-1.822-3-2.572-3.232-3.087s-.322-1.14-.141-3.249c.317-3.811.9-6.233,1.56-11.047.519,0,2.911,5.929,3.429,5.929.051.364.094.694.129.986A10.241,10.241,0,0,1,121.543,412.918Z" transform="translate(-114.447 -393.22)" fill="#79b7e4"/>
        </g>
        <path id="Pfad_8543" data-name="Pfad 8543" d="M121.2,458.52c-.377.377-.652.429-1.029.8a22.793,22.793,0,0,0,20.148,5.946c-.1-.737-.3-1.14-.4-1.878Z" transform="translate(-68.643 -261.964)" fill="#e9f5fb"/>
        <path id="Pfad_8544" data-name="Pfad 8544" d="M139.369,409.159a27.31,27.31,0,0,0-.364,5.869,71.158,71.158,0,0,1-.193,9.5c-.27,1.007-9.86,1.74-19.29-5.427l2.628-5.71c.081-.334.45-1.822.45-1.822-1.963-5.753-2.413-8.213-2.962-9.684-1.445-3.858-3-10.837-.514-12.526.3-.206.694-.343,1.968-.339,3.764.039,7.356,1.5,11.476,3.562.343.167.767.39,1.312.69,1.072.587,2.572,1.509,4.767,3,1.522,1.042,3.052,2.383,3.369,4.218C142.661,403.848,139.793,406.368,139.369,409.159Z" transform="translate(-67.296 -222.256)" fill="#79b7e4"/>
        <path id="Pfad_8545" data-name="Pfad 8545" d="M141.646,422.527a27.159,27.159,0,0,0-.369,5.869,70.852,70.852,0,0,1-.2,9.5c-.266,1-9.86,1.745-19.29-5.427.081-.133.587-.977,1.183-1.985,3.8,2.666,8.093,2.645,10.528,1.286a8.153,8.153,0,0,0,3.284-3.751c2.748-5.324-.544-13.833-.429-14.146.39-1,4.548-2.079,7.6-1.016a4.125,4.125,0,0,1,.317,1.007C144.93,417.215,142.071,419.736,141.646,422.527Z" transform="translate(-69.569 -235.624)" fill="#79b7e4" opacity="0.5" style="mix-blend-mode: multiply;isolation: isolate"/>
        <path id="Pfad_8546" data-name="Pfad 8546" d="M198.8,416.435a17.633,17.633,0,0,0-2.323,2.8c1.1.793,1.162,1.642,1.2,3.044a2.319,2.319,0,0,1,1.076-.857c1.672-.339,2.066.579,2.786-.407a1.23,1.23,0,0,0,1.582-.69c.776.1,1.385-.382,1.367-.6l-.051-.21c.373-.06,2.512-.429,3.249-2.053.124-.279.253-.566.124-.75-.39-.549-2.465.776-4.943.313-1.428-.27-1.359-.8-.647-2.019.257-.429.287-.45.3-.549.047-.4-.347-.922-.669-.9-.429.039-.562.622-.857,1.106C200.342,415.625,199.927,415.355,198.8,416.435Z" transform="translate(-112.241 -236.275)" fill="#b47768"/>
        <path id="Pfad_8547" data-name="Pfad 8547" d="M196.48,421.965c1.1.793,1.162,1.642,1.2,3.044a2.353,2.353,0,0,1,1.072-.857h0c.724-1.715-.93-2.512.081-4.561.343-.712.939-.857,1.076-1.26A13.029,13.029,0,0,0,196.48,421.965Z" transform="translate(-112.241 -239.002)" fill="#a6645a"/>
        <path id="Pfad_8548" data-name="Pfad 8548" d="M196.49,424.642a2.143,2.143,0,0,1,2.572.377,6.06,6.06,0,0,1,1.325,3.284l-2.109,1.385Z" transform="translate(-112.247 -242.455)" fill="#e9f5fb"/>
        <path id="Pfad_8549" data-name="Pfad 8549" d="M167.25,441.107q1-13.842,1.436-28.687-.694,2.023-1.393,4.042s-1.779,24.392-1.715,24.567S167.25,441.107,167.25,441.107Z" transform="translate(-94.585 -235.625)" fill="#2e3346"/>
        <path id="Pfad_8550" data-name="Pfad 8550" d="M164.169,418c.094.339.283,1.286.682,3.618l7.5-6.237c2.349-.356,3.254,2.143,3.262,3.236,0,1.608-2.808,4.03-8.145,8.754-3.451,3.082-4.655,2.979-5.839,2.409h0a8.838,8.838,0,0,1-2.058-2.812c-.056-.081-.553-1.166-.553-1.17a94.46,94.46,0,0,0-3.7-8.934c-.047-.094-.2-.326-.356-.673-.922-2.023-1.136-5.217.4-6.486,2.276-1.882,5.388-2.263,7.193.124C164.264,412.09,163.222,414.658,164.169,418Z" transform="translate(-88.105 -233.195)" fill="#79b7e4"/>
        <path id="Pfad_8551" data-name="Pfad 8551" d="M141.544,367.976l-.12.034h0c-1.286.356-5.144,2.032-6.649-.206s-3.541-8.608-2.066-10.79c1.183-1.758,6.452-2.491,8.574-2.645l.36.857a.03.03,0,0,1,0,.021,25.356,25.356,0,0,1,1.779,7.193,10.287,10.287,0,0,1-.193,2.572C143.027,365.979,142.487,367.71,141.544,367.976Z" transform="translate(-75.515 -202.46)" fill="#b47768"/>
        <path id="Pfad_8552" data-name="Pfad 8552" d="M138,369.019a6.421,6.421,0,0,0,1.77-1.449,10.29,10.29,0,0,1-1.818.6c-.686.154-1.569.133-1.629-.09s.45-.39.857-.973a3,3,0,0,0,.429-1.74c.051-3.245,5.033-6.636.857-10.923A54.4,54.4,0,0,0,128,366.31c1.809,1.415,2.143,2.465,2.092,3.189a3.842,3.842,0,0,0,0,1.925,2.91,2.91,0,0,0,1.162,1.35,5.18,5.18,0,0,0,3.292.613,12,12,0,0,0,3.579-.686c-1.5-1.963-1.312-2.671-1.14-2.936A9.573,9.573,0,0,1,138,369.019Z" transform="translate(-73.117 -202.5)" fill="#a6645a"/>
        <path id="Pfad_8553" data-name="Pfad 8553" d="M132.307,389.57s-.429,2.113,2.212,2.572,6-1.149,6-1.149l-.167,1.792a14.85,14.85,0,0,1-2.233.63,7.686,7.686,0,0,1-3.858-.184,3.708,3.708,0,0,1-1.629-.926,2.074,2.074,0,0,1-.7-1.663,2.34,2.34,0,0,1,.377-1.072Z" transform="translate(-75.353 -222.571)" fill="#e9f5fb"/>
        <path id="Pfad_8554" data-name="Pfad 8554" d="M118.416,361.117a4.715,4.715,0,0,1-.75-1.376,4.994,4.994,0,0,1-.094-2.906,2.692,2.692,0,0,1-1.595-2.143,2.778,2.778,0,0,1,2.143-2.812c-1.668-1.68-1.415-4.175-.094-5.144a3.345,3.345,0,0,1,3.819.24,2.966,2.966,0,0,1,1.53-2.774,3.089,3.089,0,0,1,3.94,1.5,2.173,2.173,0,0,1,3.94,1.788,2.825,2.825,0,0,1,3.1,1.316,2.8,2.8,0,0,1-.189,3c-2.062,1.646-2.632,2.143-2.769,2.6-.1.343.163.682,0,1.14-.257.69-.9.686-1.35,1.17-1.05,1.119.617,3-.377,4.66-.54.9-1.2.634-1.543,1.526-.429,1.11.463,1.9.141,3.176a3.194,3.194,0,0,1-1.239,1.715,3.313,3.313,0,0,1-4.488,4.574,2.656,2.656,0,0,1-4.407-2.966c-1.1-1.685-1.093-2.782-.883-3.472.33-1.08,1.256-1.479,1.479-2.752A3.567,3.567,0,0,0,118.416,361.117Z" transform="translate(-66.247 -196.505)" fill="url(#linear-gradient)"/>
        <path id="Pfad_8555" data-name="Pfad 8555" d="M151.755,400.154a3.742,3.742,0,0,0-2.525.1c-3.639,1.586-3.322,9.765-2.409,25.022.15,2.491.36,5.749.639,9.585h-1.809c-.827-10.824-1.316-22.908-1.119-26.518.171-3.082.733-8.526,3.567-9.744a2.9,2.9,0,0,1,2.654.03A2.5,2.5,0,0,1,151.755,400.154Z" transform="translate(-82.537 -227.548)" fill="#2e3346"/>
        <path id="Pfad_8556" data-name="Pfad 8556" d="M144.577,484.656c-.034,1.715.339,3.751,1.715,4.364,1.62.75,7.583-.793,9.122-1.685a6.439,6.439,0,0,0,2.945-6.19c-.133-1.745-.587-4.668-2.319-4.835-.4,0-10.327,2.388-10.327,2.761A53.194,53.194,0,0,0,144.577,484.656Z" transform="translate(-82.586 -272.127)" fill="#2e3346"/>
        <path id="Pfad_8557" data-name="Pfad 8557" d="M151.34,478.4c.03,1.839.236,5.144,1.633,5.689,1.873.75,5.046.343,7.022-.682,1.089-.579,1.8-2.486,1.873-4.531.034-.034,0-.034,0-.034-.343-1.363-.922-2.452-1.976-2.572C159.583,476.287,154.195,477.547,151.34,478.4Z" transform="translate(-86.451 -272.104)" fill="#545a73"/>
        <path id="Pfad_8558" data-name="Pfad 8558" d="M166.308,491.45a1.512,1.512,0,0,1-.8,2.143c-1.046.24-1.479-.759-1.17-1.6Z" transform="translate(-93.823 -280.777)" fill="#fff"/>
        <path id="Pfad_8559" data-name="Pfad 8559" d="M28.7,351.134c-8.381.429-21.151-2.881-21.1-11.377.064-10,20.645-15.064,32.734-7.939C51.931,338.656,44.617,350.346,28.7,351.134Z" transform="translate(-4.335 -187.672)" fill="#ede2dc"/>
        <path id="Pfad_8560" data-name="Pfad 8560" d="M2.645,156.26A35.336,35.336,0,0,0-.017,170.694,33.33,33.33,0,0,0,.275,174.1c1.685,2.829,7.853,9.114,7.853,9.114h.857l.231-8.381L5.942,160.024Z" transform="translate(0.03 -89.275)" fill="url(#linear-gradient-2)"/>
        <path id="Pfad_8561" data-name="Pfad 8561" d="M.05,162.875a3.5,3.5,0,0,0,4.325,2.572c3.468-.827,2.143-11.574,2.143-11.574l-2.5-1.753a12.059,12.059,0,0,0-1.457,2.118A12.886,12.886,0,0,0,1.4,157.35C1,158.846.534,160.706.05,162.875Z" transform="translate(-0.016 -86.91)" fill="url(#linear-gradient-3)"/>
        <path id="Pfad_8562" data-name="Pfad 8562" d="M14.21,338.423s.073.583.193,1.286h.021a4.513,4.513,0,0,0,.694,1.89,3,3,0,0,0,1.715,1.115,3.909,3.909,0,0,0,3.562-1.993,16.846,16.846,0,0,0,.857-2.366,4.231,4.231,0,0,1,1.385-1.908c.716-.639,1.355-.973,1.432-1.929.107-1.11-.043-3.044-1-3.605h-.026a5.03,5.03,0,0,0-2.611-.034,4.439,4.439,0,0,1-.6.146C18.707,331.316,14.8,337.45,14.21,338.423Z" transform="translate(-8.106 -188.948)" fill="#355f6d"/>
        <path id="Pfad_8563" data-name="Pfad 8563" d="M22.255,346.88c-.643,1.14-.647,2.143-1.153,3.065a3.943,3.943,0,0,1-3.579,2,2.971,2.971,0,0,1-2.092-1.809,4.042,4.042,0,0,0,4.651-.159,6.979,6.979,0,0,0,1.445-1.963C21.676,347.742,21.929,347.36,22.255,346.88Z" transform="translate(-8.803 -198.181)" fill="#183e47"/>
        <path id="Pfad_8564" data-name="Pfad 8564" d="M10.277,280.425c.429,3.991,7.922,2.443,7.862-.969S17.247,265,18.627,260a147.739,147.739,0,0,0,3.146-17.374l2.332-1.466c-.051-4,0-2.143-.124-8.145-2-.223-10.678-1.119-13.413-1.393-2.075,11.253,1.5,14.121-.249,27.607C7.919,264.988,10.011,277.415,10.277,280.425Z" transform="translate(-5.231 -132.33)" fill="#6e4243"/>
        <path id="Pfad_8565" data-name="Pfad 8565" d="M11.52,289.84c.026.339.073.626.094.892.429,3.991,7.922,2.443,7.862-.969s-.892-14.459.489-19.458a151.729,151.729,0,0,0,3.146-17.374l.386-.24c-.026-.167-.047-.313-.073-.459-1.192-5.877-3.335.159-3.335.159a47.274,47.274,0,0,1-2.919,15.389c-3.181,10.923,1.86,18.506-2.165,21.305A5.093,5.093,0,0,1,11.52,289.84Z" transform="translate(-6.569 -142.637)" fill="#4a2b2e"/>
        <path id="Pfad_8566" data-name="Pfad 8566" d="M64.034,359.774h0a4.286,4.286,0,0,1-1.873,1.616c-2.216,1.085-6.73.283-8.934-.694l-.171.592a4.9,4.9,0,0,1-2.7.146,12.409,12.409,0,0,1-3.3-1.385,5.441,5.441,0,0,1-.364-1.629,6.606,6.606,0,0,1,.124-3c10.014-4.072,9.885,1.77,13.885,1.415a7.446,7.446,0,0,1,2.739.193c.369.107.9.262,1.085.6C64.822,358.347,64.274,359.367,64.034,359.774Z" transform="translate(-26.593 -202.232)" fill="#355f6d"/>
        <path id="Pfad_8567" data-name="Pfad 8567" d="M64.159,365.725a4.287,4.287,0,0,1-1.873,1.616c-2.216,1.085-6.73.283-8.934-.694l-.171.592a4.9,4.9,0,0,1-2.7.146,12.408,12.408,0,0,1-3.3-1.385,5.441,5.441,0,0,1-.364-1.629,9.622,9.622,0,0,0,4.287,1.822s.3.021,2.4-.189c2.066,1.037,5.83,2,7.918,1.153A19.641,19.641,0,0,0,64.159,365.725Z" transform="translate(-26.731 -208.173)" fill="#183e47"/>
        <path id="Pfad_8568" data-name="Pfad 8568" d="M28.3,232.4a16.692,16.692,0,0,0,.429,6.507c.922,3.327,2.079,3.228,3.674,7.913,2.246,6.8,1.5,5.406,3.262,9.825-.193,8.535-.051,17.147.36,25.721a7.189,7.189,0,0,0,3.6,1.436.823.823,0,0,0,.364.073c1.715.056,3.245-.909,4.578-2.864-.54-5.44-.073-7.639.184-14.146.184-4.205-.18-3.339-.18-11.574-.047-8.921,1.016-19.475-3.279-28.721a19.793,19.793,0,0,1-11.626-1.316C27.764,226.159,27.743,230.356,28.3,232.4Z" transform="translate(-15.976 -128.691)" fill="#6e4243"/>
        <path id="Pfad_8569" data-name="Pfad 8569" d="M11.72,229.915c6.516,6.645,9.628,3.781,13.936,5.4,4.625,1.715,2.756,3.772,3.742,8.406.8,3.759,2.186,4.81,3,8.741.429,2.032.163,30.007-2.066,31.293a.026.026,0,0,1-.026.026c1.4.236,3.275-.4,4.938-2.842V255.19c-.034-6.237.21-7.056.077-11.073-.712-14.073-1.638-10.511-2.572-17.773a20.143,20.143,0,0,1-12.432-1.175c-1.14.566-1.5,2.225-1.629,3.477-2.225-.244-4.471-.472-6.7-.694C11.939,228.488,11.84,229.165,11.72,229.915Z" transform="translate(-6.683 -128.645)" fill="#4a2b2e"/>
        <path id="Pfad_8570" data-name="Pfad 8570" d="M7.961,167.094c1.226,4.715,3.537,9.324.167,17.623a20.136,20.136,0,0,0,22.741,3.618c-2.752-14.678-2.413-10.49-2.392-18.064.171-13.649,5.3-14.361-12.775-20.9-.48-.163-1.4-.523-1.886-.66a6.072,6.072,0,0,0-3.408-.493,6.576,6.576,0,0,0-3.682,2.456C5.976,151.615,4.518,154.127,7.961,167.094Z" transform="translate(-3.284 -84.634)" fill="url(#linear-gradient-4)"/>
        <path id="Pfad_8571" data-name="Pfad 8571" d="M37.8,205.17a20.941,20.941,0,0,0,11.369-1.83c-2.954-15.737-2.542-11.107-2.281-20.722a39.112,39.112,0,0,1,.377-4.5.193.193,0,0,0-.047-.073c-2.9,4.754-7.318,1-6.216-3.648-3.88,16.354,3.387,20.529,3.219,24.863a5.791,5.791,0,0,1-3.3,4.655S39.455,204.5,37.8,205.17Z" transform="translate(-21.583 -99.639)" fill="url(#linear-gradient-5)"/>
        <path id="Pfad_8572" data-name="Pfad 8572" d="M22.315,153.911c.887,2.276,6.469,3.164,8.972-.579-1.642-.707-3.7-1.488-6.254-2.422a3.606,3.606,0,0,0-1.745.09A2.119,2.119,0,0,0,22.315,153.911Z" transform="translate(-12.614 -86.181)" fill="#fff"/>
        <path id="Pfad_8573" data-name="Pfad 8573" d="M18.025,131.309a1.908,1.908,0,0,0,.609,1.518,4.037,4.037,0,0,0,3.275.939,5.337,5.337,0,0,0,3.579-1.6l.369-.369c-2.448-3.884,2.392-.947,2.538-4.167a20.68,20.68,0,0,0-.159-3.228c.069-.369.716-.617.857-1.012.086-.249-.124-.51-.347-.827a11.489,11.489,0,0,1-1.033-1.813c1.518-10.4-16.29-9.354-13.778.857.69,2.859,2.765,3.472,3.708,6.524a9.165,9.165,0,0,1,.382,3.181Z" transform="translate(-7.81 -64.804)" fill="#ffcfcd"/>
        <path id="Pfad_8574" data-name="Pfad 8574" d="M23.614,148.427a1.633,1.633,0,0,0,.407,1.247,3.989,3.989,0,0,0,3.485,1.14,5.528,5.528,0,0,0,3.948-1.972c-.527-.857-1.123-2.07-.15-2.238a5.037,5.037,0,0,1-3.044-.883,3.43,3.43,0,0,1-.754-2.452c-.146.163-2.825,3.194-4.017,2.889A9.152,9.152,0,0,1,23.614,148.427Z" transform="translate(-13.408 -81.854)" fill="#ffcfcd"/>
        <path id="Pfad_8575" data-name="Pfad 8575" d="M13.351,121.771c.857,1.312,1.47,1.41,2.315,2.885a8.93,8.93,0,0,1,1.076,2.954,2.938,2.938,0,0,0,2.572.176.511.511,0,0,0,.12-.047h.026c.021-.026.069-.026.094-.073A3.989,3.989,0,0,0,21.86,124c-.094-.313-.429-.429-.72-1.355-.935-2.688,1.968-2.894,2.143-1.325.257,2.2,1.616,1.676,1.715.857a3.224,3.224,0,0,1-.377-3.314,1.063,1.063,0,0,0,.171-.9c-.36-1.037,2.036-1.779,2.619-3.181.562-1.256-.694-2.808-1.415-3.464a5.225,5.225,0,0,0-2.465-1.192,9.739,9.739,0,0,0-5.123-.253,8.346,8.346,0,0,0-4.677,2.885A8.262,8.262,0,0,0,13.351,121.771Z" transform="translate(-6.955 -62.644)" fill="#a14c50"/>
        <path id="Pfad_8576" data-name="Pfad 8576" d="M46.92,189.791v.026a71.589,71.589,0,0,1,2.418,9.508,41.484,41.484,0,0,0,7.356,12.955c.073.1.364.291.364.63a4,4,0,0,0-.1,1.209,3.712,3.712,0,0,0,.48,1.453c.553.9,1.183,1.063,1.59,1.573a1.959,1.959,0,0,1,.334,1.715.857.857,0,0,1-.532.167c-.219-.047-.292-.219-.506-.219a.54.54,0,0,0-.429.313c-.124.386.334.995.913,1.14a1.346,1.346,0,0,0,.9-.094c.579-.339,1.162-.652,1.745-.986-.343.429-.707.819-1.046,1.252-.63.339-1.042.724-.969.943s.724.244,1.162.146a2.276,2.276,0,0,0,1.256-.793,10.563,10.563,0,0,0,.857-1.085c.146.073-.27,1.037-.343,1.157-.6.167-.943.819-.857,1.037.141.317,1.183.429,1.813-.043a4.143,4.143,0,0,0,.8-1.569c.24.857.261,1.715.669,2.058,1.522,1.312.66-2.272-.034-4.617.823.026,1.865-.626,1.286-1.2-.167-.2-.459-.146-.857-.15a3.807,3.807,0,0,1-1.136-.2c-.913-1.256-2.675-2.594-3.519-3.708a.935.935,0,0,1-.167-.266,77.975,77.975,0,0,1-4.93-15.184,6.507,6.507,0,0,1-.334-1.428c-.141-.943.141-1.286.026-2.238-.047-.313-.094-.626-.146-.943-.626-.579-4.63-4.192-6.709-3.5A2.122,2.122,0,0,0,46.92,189.791Z" transform="translate(-26.794 -107.846)" fill="#ffcfcd"/>
        <path id="Pfad_8577" data-name="Pfad 8577" d="M48.685,164.181a2.236,2.236,0,0,1,2.216,1.012s2.118,1.608,3.258,7.288h0s.026.167.236,4.835c.249,3.236-7.665,3-7.935,1.4s-1.286-6.464-1.286-6.464S44.064,164.743,48.685,164.181Z" transform="translate(-25.73 -93.788)" fill="url(#linear-gradient-6)"/>
        <path id="Pfad_8578" data-name="Pfad 8578" d="M68.321,240.541c.064.506.6.827.819.947a5.307,5.307,0,0,1,3.481-1.157,1.2,1.2,0,0,0,.219-1C72.342,237.489,68.119,238.977,68.321,240.541Z" transform="translate(-39.017 -136.249)" fill="#5b5898"/>
        <path id="Pfad_8579" data-name="Pfad 8579" d="M73.049,238.658a1.35,1.35,0,1,0,.673-1.942A1.462,1.462,0,0,0,73.049,238.658Z" transform="translate(-41.64 -135.189)" fill="#7283bb"/>
        <path id="Pfad_8580" data-name="Pfad 8580" d="M75.109,239.772c1.325-.514.429-2.864-.909-2.349S73.788,240.278,75.109,239.772Z" transform="translate(-42.007 -135.603)" fill="#f4e0ef"/>
        <path id="Pfad_8581" data-name="Pfad 8581" d="M128.5,183.708c-.3,1.878-4.844,3.794-7.909,3.339-2.143-.313-2.525-1.672-.857-3.031,2.409-1.968,7.326-2.624,8.539-1.153A1.02,1.02,0,0,1,128.5,183.708Z" transform="translate(-67.803 -104.017)" fill="#ca9983"/>
        <path id="Pfad_8582" data-name="Pfad 8582" d="M123.1,175.942c-2.015,1.17-5.457.373-5.573-1.256V163.51h6.52v10.927A1.55,1.55,0,0,1,123.1,175.942Z" transform="translate(-67.135 -93.417)" fill="#ffae44"/>
        <path id="Pfad_8583" data-name="Pfad 8583" d="M123.027,159.837c1.286.737,1.286,1.938,0,2.675a5.058,5.058,0,0,1-4.613,0c-1.286-.737-1.286-1.938,0-2.675A5.05,5.05,0,0,1,123.027,159.837Z" transform="translate(-67.089 -91)" fill="#c77100"/>
        <path id="Pfad_8584" data-name="Pfad 8584" d="M124.016,168.713v6.109a1.925,1.925,0,0,1-.729.652,1.552,1.552,0,0,1-.39.184c-1.762.75-4.394.3-5.067-.99V168.55C118.67,170.273,122.854,170.415,124.016,168.713Z" transform="translate(-67.306 -96.297)" fill="#fcedce"/>
        <path id="Pfad_8585" data-name="Pfad 8585" d="M124.24,157.458c0-.056-.1-1.042-.1-1.1a.926.926,0,0,0-.579-.75,3.194,3.194,0,0,0-2.2-.2c-.5.111-1.1.429-1.1.947-.124,1.042-.086.682-.2,1.865.06.459.553.767.99.922h0a3.494,3.494,0,0,0,2.628-.171,1.05,1.05,0,0,0,.609-.754C124.3,158.127,124.257,157.629,124.24,157.458Z" transform="translate(-68.58 -88.728)" fill="#ffae44"/>
        <path id="Pfad_8586" data-name="Pfad 8586" d="M128.286,158.361c-.056.459-.553.789-.99.926-.129-1.753-.1-1.166-.3-3.747a2.814,2.814,0,0,1,.544.206.926.926,0,0,1,.579.75C128.213,157.538,128.179,157.19,128.286,158.361Z" transform="translate(-72.545 -88.864)" fill="#c77100" opacity="0.3" style="mix-blend-mode: multiply;isolation: isolate"/>
        <path id="Pfad_8587" data-name="Pfad 8587" d="M129.655,162.895v10.717a2.006,2.006,0,0,1-1.153,1.067c.077-6.687.1-5.418,0-10.717-.27-.429-.532-.892-.8-1.337.429-.137.935-.467.99-.926v-.339a1.247,1.247,0,0,1,.737.489,1.462,1.462,0,0,1,.227,1.046Z" transform="translate(-72.945 -92.189)" fill="#c77100" opacity="0.3" style="mix-blend-mode: multiply;isolation: isolate"/>
        <path id="Pfad_8588" data-name="Pfad 8588" d="M123.829,157.1a3.1,3.1,0,0,1-2.744,0c-.995-.54-.592-1.449.536-1.715a3.193,3.193,0,0,1,2.2.2C124.584,156.013,124.584,156.678,123.829,157.1Z" transform="translate(-68.843 -88.711)" fill="#c77100"/>
        <g id="Gruppe_237" data-name="Gruppe 237" transform="translate(52.526 62.686)" style="isolation: isolate">
          <path id="Pfad_8589" data-name="Pfad 8589" d="M123.885,146.65a.163.163,0,0,1-.086.12.55.55,0,0,1-.154.03h-.077c-.107,0-.261-.043-.261-.15,0,.116-.806,4.445-.806,4.561a.54.54,0,0,0,.317.429,1.68,1.68,0,0,0,1.526,0h0a.575.575,0,0,0,.3-.317.262.262,0,0,0,0-.077C124.669,151.121,123.906,146.8,123.885,146.65Z" transform="translate(-122.5 -146.471)" fill="#ffae44"/>
          <path id="Pfad_8590" data-name="Pfad 8590" d="M126.44,151.243a.261.261,0,0,1,0,.077.587.587,0,0,1-.3.317h0c-.129-1.089,0-.026-.544-4.887a.163.163,0,0,0,.086-.12C125.677,146.789,126.44,151.11,126.44,151.243Z" transform="translate(-124.271 -146.459)" fill="#c77100" opacity="0.3" style="mix-blend-mode: multiply;isolation: isolate"/>
          <path id="Pfad_8591" data-name="Pfad 8591" d="M124.857,146.283a.129.129,0,0,1,0,.244.454.454,0,0,1-.429,0c-.116-.069-.107-.171,0-.24A.463.463,0,0,1,124.857,146.283Z" transform="translate(-123.554 -146.232)" fill="#c77100"/>
        </g>
        <path id="Pfad_8592" data-name="Pfad 8592" d="M160.779,170.586a10.1,10.1,0,0,1-6.893,1.89c-2.143-.313-2.521-1.672-.857-3.031,2.353-1.92,7.287-2.671,8.539-1.153C162.19,169.042,161.534,169.968,160.779,170.586Z" transform="translate(-86.824 -95.687)" fill="#ca9983"/>
        <path id="Pfad_8593" data-name="Pfad 8593" d="M156.439,161.516a5.105,5.105,0,0,1-4.621,0,1.689,1.689,0,0,1-.96-1.26.577.577,0,0,1,0-.086V149.08h6.52v10.914A1.536,1.536,0,0,1,156.439,161.516Z" transform="translate(-86.175 -85.173)" fill="#e64e43"/>
        <path id="Pfad_8594" data-name="Pfad 8594" d="M156.387,145.409c1.286.737,1.286,1.938,0,2.675a5.058,5.058,0,0,1-4.613,0c-1.286-.737-1.286-1.938,0-2.675A5.058,5.058,0,0,1,156.387,145.409Z" transform="translate(-86.149 -82.758)" fill="#961e23"/>
        <path id="Pfad_8595" data-name="Pfad 8595" d="M157.65,143.8a1.033,1.033,0,0,1-.609.754,3.369,3.369,0,0,1-3.069-.039,1.063,1.063,0,0,1-.562-.716c.111-1.213.09-.986.2-1.865a.909.909,0,0,1,.57-.755,3.207,3.207,0,0,1,2.726,0,.93.93,0,0,1,.587.755C157.521,142.372,157.65,143.418,157.65,143.8Z" transform="translate(-87.634 -80.488)" fill="#e64e43"/>
        <path id="Pfad_8596" data-name="Pfad 8596" d="M157.366,154.283v6.109c-1.02,1.6-5.26,1.633-6.186-.154V154.12C152.02,155.843,156.2,155.985,157.366,154.283Z" transform="translate(-86.36 -88.052)" fill="#fcedce"/>
        <g id="Gruppe_238" data-name="Gruppe 238" transform="translate(68.751 60.49)" opacity="0.3" style="mix-blend-mode: multiply;isolation: isolate">
          <path id="Pfad_8597" data-name="Pfad 8597" d="M161.615,143.931a1.08,1.08,0,0,1-.609.763,2.044,2.044,0,0,1-.382.163l-.064-.913c-.026-.317-.056-.634-.077-.947v-.2c-.043-.566-.09-1.123-.133-1.689a2.573,2.573,0,0,1,.544.21.917.917,0,0,1,.579.75l.086.793v.3Z" transform="translate(-160.35 -141.11)" fill="#961e23"/>
        </g>
        <g id="Gruppe_239" data-name="Gruppe 239" transform="translate(69.042 62.981)" opacity="0.3" style="mix-blend-mode: multiply;isolation: isolate">
          <path id="Pfad_8598" data-name="Pfad 8598" d="M162.993,148.459v10.717a2.028,2.028,0,0,1-1.157,1.067c.081-7.137.094-5.86,0-10.717-.274-.429-.536-.9-.806-1.342.429-.133.935-.467.99-.926L162,146.92a1.256,1.256,0,0,1,.742.493A1.466,1.466,0,0,1,162.993,148.459Z" transform="translate(-161.03 -146.92)" fill="#961e23"/>
        </g>
        <path id="Pfad_8599" data-name="Pfad 8599" d="M157.755,141.963a.93.93,0,0,1-.566.75,2.039,2.039,0,0,1-.4.176,3.258,3.258,0,0,1-1.951,0,2.146,2.146,0,0,1-.39-.163.78.78,0,0,1,0-1.5,1.921,1.921,0,0,1,.532-.2,3.279,3.279,0,0,1,1.655,0,2.57,2.57,0,0,1,.544.21A.917.917,0,0,1,157.755,141.963Z" transform="translate(-87.903 -80.512)" fill="#961e23"/>
        <g id="Gruppe_240" data-name="Gruppe 240" transform="translate(66.826 56.538)" style="isolation: isolate">
          <path id="Pfad_8600" data-name="Pfad 8600" d="M157.24,132.22a.146.146,0,0,1-.086.12.746.746,0,0,1-.154.034.209.209,0,0,1-.073,0c-.111,0-.261-.047-.261-.154-.021.1-.806,4.458-.806,4.565a.536.536,0,0,0,.313.429,1.667,1.667,0,0,0,1.526,0h0a.561.561,0,0,0,.3-.317.159.159,0,0,0,0-.073C158.025,136.7,157.266,132.353,157.24,132.22Z" transform="translate(-155.86 -132.078)" fill="#c1272d"/>
          <path id="Pfad_8601" data-name="Pfad 8601" d="M158.226,131.937c.116.064.116.171,0,.24a.429.429,0,0,1-.407,0c-.111-.064-.111-.171,0-.231A.429.429,0,0,1,158.226,131.937Z" transform="translate(-156.931 -131.89)" fill="#961e23"/>
        </g>
        <g id="Gruppe_241" data-name="Gruppe 241" transform="translate(68.159 56.688)" opacity="0.3" style="mix-blend-mode: multiply;isolation: isolate">
          <path id="Pfad_8602" data-name="Pfad 8602" d="M159.8,136.75v.1a.158.158,0,0,1,0,.073.561.561,0,0,1-.3.317h0l-.107-.939h0l-.429-3.944a.146.146,0,0,0,.086-.12C159.279,133.736,159.54,135.249,159.8,136.75Z" transform="translate(-158.97 -132.24)" fill="#961e23"/>
        </g>
      </g>
    </g>
  </g>
</svg>
