<svg xmlns="http://www.w3.org/2000/svg" xmlns:xlink="http://www.w3.org/1999/xlink" width="182.87" height="192.207" viewBox="0 0 182.87 192.207">
  <defs>
    <linearGradient id="linear-gradient" x1="-443.659" y1="32.676" x2="-439.978" y2="30.346" gradientUnits="objectBoundingBox">
      <stop offset="0" stop-color="#ed7d88"/>
      <stop offset="1" stop-color="#ffcfcd"/>
    </linearGradient>
    <linearGradient id="linear-gradient-2" x1="109.858" y1="0.266" x2="104.709" y2="0.824" gradientUnits="objectBoundingBox">
      <stop offset="0" stop-color="#ed7d88"/>
      <stop offset="0.16" stop-color="#f08a93"/>
      <stop offset="1" stop-color="#ffcfcd"/>
    </linearGradient>
    <linearGradient id="linear-gradient-3" x1="-82.96" y1="0.8" x2="-83.384" y2="1.414" gradientUnits="objectBoundingBox">
      <stop offset="0" stop-color="#fa8960"/>
      <stop offset="1" stop-color="#fa4d4d"/>
    </linearGradient>
    <linearGradient id="linear-gradient-4" x1="109.392" y1="-1.559" x2="107.817" y2="2.57" xlink:href="#linear-gradient-2"/>
    <linearGradient id="linear-gradient-5" x1="-95.579" y1="0.941" x2="-96.059" y2="2.178" xlink:href="#linear-gradient-3"/>
  </defs>
  <g id="stand-4" style="isolation: isolate">
    <g id="Ebene_2" data-name="Ebene 2" transform="translate(0)">
      <g id="street_food_stall" data-name="street food stall">
        <path id="Pfad_6347" data-name="Pfad 6347" d="M339.765,295.692c-9.12-5.262-23.834-5.239-32.868,0s-9,13.782.1,19.04c9.924,5.726,26.233,5.121,34.735-1.222C348.858,308.225,348.194,300.563,339.765,295.692Z" transform="translate(-163.754 -159.177)" fill="#ede2dc"/>
        <path id="Pfad_6348" data-name="Pfad 6348" d="M367.54,330.676c.477,1.318,3.713,1.436,5.062,1.045,1.881-.55,3.808-2.272,4.008-4.262,0,0,.554-5.494.686-6.839l-6.816.609c-.282,2.058-1.868,5.453-2.581,7.2h0c-.045.123-.268.7-.286.836,0,0-.055.186-.059.209A2.24,2.24,0,0,0,367.54,330.676Z" transform="translate(-200.481 -174.926)" fill="#a98575"/>
        <path id="Pfad_6349" data-name="Pfad 6349" d="M375.367,330.16c-.945.332-1.445-.673-3.09-.945a9.834,9.834,0,0,0-2.767.227,31.224,31.224,0,0,0,1.768-4.712,2.707,2.707,0,0,0,2.158,1.595,10.243,10.243,0,0,0,3.435.118C377.176,328.211,376.158,329.883,375.367,330.16Z" transform="translate(-201.597 -177.169)" fill="#ba9d91"/>
        <path id="Pfad_6350" data-name="Pfad 6350" d="M376.615,335.076c-.2,1.99-2.127,3.722-4.012,4.267-1.363.391-4.58.273-5.053-1.05a2.554,2.554,0,0,1,.054-1.422c.073,1.895,3.885,1.849,5.135,1.49a5.766,5.766,0,0,0,3.926-3.772C376.651,334.745,376.628,334.913,376.615,335.076Z" transform="translate(-200.486 -182.548)" fill="#664e4c"/>
        <path id="Pfad_6351" data-name="Pfad 6351" d="M310.149,305.205a11.142,11.142,0,0,0,5.58-2.586,17.769,17.769,0,0,0,2.995,0c1.931-.127,1.686-1.118,1.868-2.658a8.238,8.238,0,0,0,.023-1.486.055.055,0,0,0,0-.036,9.652,9.652,0,0,0-.118-1.131v-.027a8.225,8.225,0,0,1-7.139-1.64,8.6,8.6,0,0,1-1.695,2.786h0a49.143,49.143,0,0,1-6.58,3.894C302.988,305.083,306.9,305.673,310.149,305.205Z" transform="translate(-166.125 -161.298)" fill="#664e4c"/>
        <path id="Pfad_6352" data-name="Pfad 6352" d="M304.65,303.247c.545,1.268,3.735,1.322,5.562,1.054a11.1,11.1,0,0,0,5.589-2.59,18.223,18.223,0,0,0,2.995,0c1.818-.123,1.709-1,1.818-2.4,0-.059.082-.791.064-.845a.055.055,0,0,0,0-.036.377.377,0,0,0,0-.159,2.919,2.919,0,0,0-.036-.413s-.073-.541-.077-.559,0,0,0-.027a8.225,8.225,0,0,1-7.121-1.627c-.045.127-.1.245-.159.373h0a11.285,11.285,0,0,1-.586,1.141h0a7.05,7.05,0,0,1-.95,1.245h0a49.147,49.147,0,0,1-6.58,3.894,3.636,3.636,0,0,0-.5.845A.41.41,0,0,1,304.65,303.247Z" transform="translate(-166.21 -161.298)" fill="#a98575"/>
        <path id="Pfad_6353" data-name="Pfad 6353" d="M306.76,305.428a3.862,3.862,0,0,0,4.022.577c1.659-.791,2.481-4.612,2.127-4.253A44.878,44.878,0,0,1,306.76,305.428Z" transform="translate(-167.362 -164.619)" fill="#ba9d91"/>
        <path id="Pfad_6354" data-name="Pfad 6354" d="M317.8,199.573c3.44,9.543,3.485,20.48,1.69,30.323,1.854,2.908,5.585,3.513,7.857.854-.6-9.315,1.759-12.178,1.695-16.963-.055-3.04-.75-3.558-.986-6.721-.286-3.962.5-6.484,1.409-10.8a.146.146,0,0,1,0-.041c2.136-10,2.726-15.114.454-18.063-3.135-4.09-11.469-4.626-11.469-4.626A53.37,53.37,0,0,0,317.8,199.573Z" transform="translate(-172.676 -94.681)" fill="#355f6d"/>
        <path id="Pfad_6355" data-name="Pfad 6355" d="M325.6,203.016c0,.654-.241,1.1-.327,3.04a40.631,40.631,0,0,0,.109,4.612c.454,5.108,1.472,5,1.622,11.1.141,5.594-1.509,5.657-1.6,10.356s-3.872,2.727-5,1.677c0,0,0-.027-.041-.036-.114.577-.141.809-.236,1.363,1.768,2.79,5.494,3.608,7.852.859-.6-9.256,1.763-12.269,1.686-16.968-.045-3.04-.741-3.553-.982-6.716-.291-3.962.523-6.516,1.291-10.288.168-.454.191-.55.191-.55,1.968-9.215,2.581-14.109,1.045-17.127-5.644-1.981-10.742-1.363-13.437.909.332,5.248,2.013,7.77,3.526,9.088a13.8,13.8,0,0,1,2.272,2.063A10.362,10.362,0,0,1,325.6,203.016Z" transform="translate(-173.374 -99.924)" fill="#183e47"/>
        <path id="Pfad_6356" data-name="Pfad 6356" d="M330.835,192.981a4.053,4.053,0,0,0,1.768,2.69,1.477,1.477,0,0,1,.845.991,64.679,64.679,0,0,0,2.577,8.72c1.845,5.248,2.577,5.93,4.335,9.679,1.313,2.822,2.4,5.453,2.985,6.444a31.752,31.752,0,0,1,1.727,4.062,96.692,96.692,0,0,1,5.1,21.68v.027a1.445,1.445,0,0,0,.845.909,7.566,7.566,0,0,0,6-.191,1.39,1.39,0,0,0,.709-1.672,35.759,35.759,0,0,1-1.363-6.816c-.454-4.771.5-5.512-.427-9.175-2.272-9.006-3.635-6.425-4.349-13.728-.659-6.884-.154-3.635-1.245-8.634-.3-1.3-1.191-4.326-1.313-4.667-.227-.813-.768-2.322-.782-2.363a8.049,8.049,0,0,1-.086-2.876h0c.336-4.458.641-6.239-2.336-10.8a16,16,0,0,0-1.3-1.795,41.075,41.075,0,0,1-8.207.3c-3.181.659-3.763.35-4.649,1C330.085,187.983,330.417,191.023,330.835,192.981Z" transform="translate(-180.308 -101.19)" fill="#355f6d"/>
        <path id="Pfad_6357" data-name="Pfad 6357" d="M354.914,193.33c2.595,3.967,1.154,6.853,2.513,12.724,1.44,6.189,2.59,16.027,2.59,16.027.722,1.363,1.863,1.6,3.408,6.816,1.918,6.466.627,5.367,1.3,9.584s2.926,7.271.877,8.338a6.108,6.108,0,0,1-5.571-.4c.027.2.055.409.082.623s.05.218.05.218a1.445,1.445,0,0,0,.845.909,7.566,7.566,0,0,0,6-.191,1.391,1.391,0,0,0,.709-1.672,35.764,35.764,0,0,1-1.363-6.816c-.454-4.771.5-5.512-.427-9.175-2.272-9.006-3.635-6.425-4.349-13.728-.659-6.884-.154-3.635-1.245-8.634-.482-2.086-1.786-6.253-2.049-6.9a3.215,3.215,0,0,1-.164-.686,9.543,9.543,0,0,1,.032-2.331c.336-4.458.641-6.239-2.336-10.8a16,16,0,0,0-1.3-1.795c-4.921,2.849-5.871,3.981-5.685,4.453.218.55,1.886.036,3.776,1.1A6.562,6.562,0,0,1,354.914,193.33Z" transform="translate(-190.305 -101.179)" fill="#183e47"/>
        <path id="Pfad_6358" data-name="Pfad 6358" d="M256.387,117.594a1.818,1.818,0,0,0,.291.75c1.054,2.063,2.986,2.563,5.289,2.726,0,0,1.718,1.1,1.795,1.154.241-.841,1.509-4.712,1.563-4.858a3.525,3.525,0,0,1-.532-.454c-1.7-1.322-1.118-2.245-1.622-3.131a4.848,4.848,0,0,1-.132-1.44c.068-.268.5-.7.418-1.177a.972.972,0,0,0-1.281-.659c-.486.268-.559.909-.609.954s-.454,1.363-.454,1.363l-.077.854a4.394,4.394,0,0,0-1.722-1.3c-.677-.282-.936-.164-1.027-.1a2.208,2.208,0,0,0-.613,1.236c-.532-.055-.7.677-.659,1.2a1.145,1.145,0,0,0-.177,1.568,1.858,1.858,0,0,0-.45,1.318Z" transform="translate(-139.877 -60.257)" fill="#ffcfcd"/>
        <path id="Pfad_6359" data-name="Pfad 6359" d="M260.444,117.823c-1.063-.236-.882-.182.073.114a3.553,3.553,0,0,1,.909.454h0c.114.064.2.118.2.123l.309.177c.454.25.491.909-.073,1.022-.155-.077-.364-.191-.454-.223a8.949,8.949,0,0,0-1.645-.5,8.043,8.043,0,0,1,2.177.909.609.609,0,0,1-.241.877l-2.313-.341s1.55.354,2.158.5c.559.277.055,1.681-.454,1.749a.818.818,0,0,1-.782-.686c-1.013-.4-1.018-.25-.518.268.264.268.491.35.4.732a.732.732,0,0,1,.673.032c.155.141.118.4.182.4s.109-.1.218-.568a1.554,1.554,0,0,0,.8-.8c.136-.254.168-.491.972-.154.2.091.8.168.218-1.113a3.872,3.872,0,0,1-.3-2.654l-.541-.3a1.387,1.387,0,0,1-.141.3c-.259.368-.414.332-.8.159h0C261.353,118.277,260.5,117.823,260.444,117.823Z" transform="translate(-141.517 -64.202)" fill="url(#linear-gradient)"/>
        <path id="Pfad_6360" data-name="Pfad 6360" d="M268.59,129.064c1.363.909,1.977,1.745,7.2,6.362a16.25,16.25,0,0,0,3.753,2.158,3.585,3.585,0,0,0,2.19.2c1.877-.454,2.481-1.009,4.04-2.495,2-1.922,1.981-1.949,2.558-2.872h0l-5.162-4.458-2.495,2.168a1.018,1.018,0,0,1-1.163.127c-3.226-1.786-6.816-4.362-7.834-4.935A19.859,19.859,0,0,0,268.59,129.064Z" transform="translate(-146.536 -68.373)" fill="#ffcfcd"/>
        <path id="Pfad_6361" data-name="Pfad 6361" d="M304.458,126.735l3.381-2.695c.477-1.3.936-2.726,1.363-4.226a50.634,50.634,0,0,0,1.559-8.634,9.339,9.339,0,0,0-2.854,1.268c-1.963,1.072-7.9,7.23-7.93,7.539C299.886,121.841,302.517,125.871,304.458,126.735Z" transform="translate(-163.66 -60.658)" fill="#3f2623"/>
        <path id="Pfad_6362" data-name="Pfad 6362" d="M313.216,125.317c1.718,7.561,1.209,9.465,1.745,14.337.509,4.608,0,4.926.454,5.907,1.5,3.035,5.339,3.967,7.457,4.485a15.973,15.973,0,0,0,9.961-.818c1.6-.7,3.095-1.363,3.813-2.881,1.032-2.295-.759-4.544-.759-6.789-.164-2.077,4.908-14.5,4.958-15.209.114-1.672.3-2.845-1.545-5.562a21.278,21.278,0,0,0-9.4-7.407c-2.527-1.1-8.07-3.258-10.874-2.272a10.414,10.414,0,0,0-5.676,5.621C312.153,117.71,312.5,122.208,313.216,125.317Z" transform="translate(-170.528 -59.391)" fill="#5b3832"/>
        <path id="Pfad_6363" data-name="Pfad 6363" d="M345.035,167.265a20.126,20.126,0,0,0,5.212-1.536,5.84,5.84,0,0,0,2.94-2.495c.954-2.1-.418-3.84-.727-6.466a2.026,2.026,0,0,1,0-.636c.364-3.181,4.753-12.315,4.917-14.9q-3.635-.7-7.225-1.427a24.035,24.035,0,0,0-4.862,6.684A24.641,24.641,0,0,0,345.035,167.265Z" transform="translate(-187.06 -76.273)" fill="#3f2623"/>
        <path id="Pfad_6364" data-name="Pfad 6364" d="M344.389,156.926a20.126,20.126,0,0,0,5.212-1.536c-1.859-5.835-1.645-7.561-1-7.952a20.25,20.25,0,0,0,3-1.5c.1-.068.177-.109.218-.15-1.995-1.9-6.053-1.468-5.689-3.031a39.025,39.025,0,0,1-1.181-7.121c-.091-1.241-.109-2.272-.1-2.667.055-4.78,4.185-9.879,6.185-12.124a17.76,17.76,0,0,0-7.643,7.239c-2.118,3.972-1.881,7.811-1.34,14.859A80.558,80.558,0,0,0,344.389,156.926Z" transform="translate(-186.414 -65.934)" fill="#3f2623"/>
        <path id="Pfad_6365" data-name="Pfad 6365" d="M332.361,140.02c-1.963,1.4,4.9,13,2.727,21.448-.227.872-1.3,4.408-4.385,6.135a7.861,7.861,0,0,1-4.244.909.05.05,0,0,1-.05,0,15.981,15.981,0,0,1-3.067-.454c-2.981-.7-9.543-44.033-9.452-45.441a10.561,10.561,0,0,1,1.286-5.2.268.268,0,0,0,0-.036,28.4,28.4,0,0,0,2.008-4.421c1.091-2.926,2.549-4.721,3.935-4.944a1.885,1.885,0,0,1,.55,0l.882.323a25.319,25.319,0,0,0-4.685,7.48c-1.082,2.39-1.627,3.581-1.481,4.126.65,2.445,6.407,4.035,9.606,2.081,1.136-.7,1.39-1.481,2.885-3.608.7-.991,4.476-6.157,5.635-5.771a1.84,1.84,0,0,1,.741.359,1.931,1.931,0,0,1,.609.827,16.127,16.127,0,0,0-6.984,11.983s-.8,4.067,2.027,11.742c.1.286,6.035.123,6.339.109l-.454,1.05Z" transform="translate(-171.251 -58.921)" fill="#664e4c"/>
        <path id="Pfad_6366" data-name="Pfad 6366" d="M334.2,161.5c-.227.872-1.3,4.408-4.385,6.135a7.611,7.611,0,0,1-3.635.909.059.059,0,0,1-.055,0,14.7,14.7,0,0,1-3.635-.432c-2.249-.532-11.556.254-8.361-15.518,1.881-9.279.645-8.761-.2-20.449-.127-1.777-.186-3.558-.314-5.335a22.609,22.609,0,0,1,.2-8,61.308,61.308,0,0,1,2.531-5.8c1.3-2.826,2.272-4.958,4.485-4.958l.886.323a25.157,25.157,0,0,0-4.69,7.48c-1.081,2.39-1.627,3.581-1.481,4.126.654,2.472,6.444,4.026,9.606,2.081,1.136-.7,1.391-1.481,2.886-3.608a45.664,45.664,0,0,1,5.139-6.1,2.367,2.367,0,0,1,2.213,1.1c-6.73,5-8.634,11.706-6.716,19.6.6,2.508,2.5,4.39,8.466,3.008a2.068,2.068,0,0,1-.023,1.749c-.373.591-1.141.682-1.818.822a11.7,11.7,0,0,0-3.776,1.422C328.858,142.014,336.579,152.252,334.2,161.5Z" transform="translate(-170.956 -58.956)" fill="#a98575"/>
        <path id="Pfad_6367" data-name="Pfad 6367" d="M353.987,161.557a3.5,3.5,0,0,1-2.4.377,5.039,5.039,0,0,1-3.835-6.066,4.653,4.653,0,0,1,4.521,1.109C354.891,159.822,353.987,161.557,353.987,161.557Z" transform="translate(-189.655 -84.944)" fill="#201312"/>
        <path id="Pfad_6368" data-name="Pfad 6368" d="M325.385,157.549a80.332,80.332,0,0,1-4.644,6.939c-8.443,6.28-7.816,4.453-14.337,8.07-.168.1-.318.182-.454.25a9.341,9.341,0,0,0-2.131,1.586c-3.726,3.317-3.931,4.5-6.439,4.421a.5.5,0,0,1,0-.245c.05-.223.323-.264.6-.513a1.363,1.363,0,0,0,.327-.523c-.768.573-.827.977-1.759,1.186-.218,0-.909-.068-1-.259-.127-.368.6-.486.936-.691a1.422,1.422,0,0,0,.613-.673c-.582.4-1.4.872-1.818,1.109-.75.391-1.281-.032-1.172-.386.023-.25.318-.3.709-.5a7.125,7.125,0,0,0,2.1-1.518c-.427.291-2.945,1.977-3.413,1.772a.864.864,0,0,1-.364-.373c-.164-.314.909-1.159.909-1.159.554-.454.909-.532,1.29-.854s2.1-1.622,1.9-2.081c-.668-.259-2.449.236-2.554-.663-.118-.818,2.726-1.068,2.726-1.1,1.177-.691,3.008-.486,3.444-.586a7.012,7.012,0,0,0,2.481-1.486c3.408-2.84,7.843-8.7,12.205-10.133.6-.2,1.241-1.713,1.69-2.84a14.254,14.254,0,0,1,2-3.494c1.227.663,2.445,1.322,3.635,2.009C323.59,155.564,325.607,157.141,325.385,157.549Z" transform="translate(-159.921 -83.371)" fill="#ffcfcd"/>
        <path id="Pfad_6369" data-name="Pfad 6369" d="M347.93,141.888a5.909,5.909,0,0,1,6.225,5.68c4.458-5.8,9.765-14.341,3.031-17.222-2.885-1-4.281.741-5.4,3.1Q349.689,137.758,347.93,141.888Z" transform="translate(-189.823 -70.959)" fill="#7d4d45"/>
        <path id="Pfad_6370" data-name="Pfad 6370" d="M347.93,155.8a5.909,5.909,0,0,1,6.225,5.68,5.514,5.514,0,0,0-1.718-4.58A4.221,4.221,0,0,0,347.93,155.8Z" transform="translate(-189.823 -84.866)" fill="#3f2623"/>
        <path id="Pfad_6371" data-name="Pfad 6371" d="M331.079,114.062a3.421,3.421,0,0,0,3.4,2.181,6.975,6.975,0,0,0,4.09-1.627,1.231,1.231,0,0,0,.223-.177,7.139,7.139,0,0,0,2.077-3.24,4.69,4.69,0,0,1-1.336-1.154,2.776,2.776,0,0,1-.6-1.79l.2-.7c-3.113,2.345-4.294.368-6.916.868-.909.168-1.45,1.481-1.6,2.386A5.044,5.044,0,0,0,331.079,114.062Z" transform="translate(-180.325 -58.678)" fill="#ffcfcd"/>
        <path id="Pfad_6372" data-name="Pfad 6372" d="M330.931,115.194a4.849,4.849,0,0,0,.872,1.268,3.072,3.072,0,0,0,1.654.909h0c2.477.509,5.93-1.4,7.107-4.208h0c.118-.286.223-.559.332-.859a4.839,4.839,0,0,1-1.363-1.177c-.513,3.4-4.976,5.626-6.934,4.09-1.6-1.227-1.59-3.912-.509-5.766-1.009.209-1.363,1.427-1.627,2.427h0a5.453,5.453,0,0,0,.468,3.317Z" transform="translate(-180.25 -59.715)" fill="#3f2623"/>
        <path id="Pfad_6373" data-name="Pfad 6373" d="M326.064,92.73a3.585,3.585,0,0,0,3.181,2.949c3.413.513,8.575-1.936,9.006-4.8.391-2.581-5.453-8.561-6.284-9.134-.709-.486-4.544.454-4.544.454S324.973,88.045,326.064,92.73Z" transform="translate(-177.741 -44.522)" fill="#ffcfcd"/>
        <path id="Pfad_6374" data-name="Pfad 6374" d="M329.606,80.74a1.554,1.554,0,0,1-1.436,1.072,5.339,5.339,0,0,0,2.04.254c1.391-.118,1.895-.777,2.527-.454.777.386.909,1.818.877,2.495s-.191.791-.191,1.618c0,.691.1,1.613.3,1.627.1,0,.273-.2.536-1.25a.777.777,0,0,1,.968-.845,1.1,1.1,0,0,1,.736.718c.75,1.327.4,2.222.05,3.953a.268.268,0,0,0,.077-.045.582.582,0,0,1,.214-.277,8.529,8.529,0,0,0,3.226-3.84,9.388,9.388,0,0,0,.8-3.694,7.939,7.939,0,0,0-.909-4.567c-1.9-3.326-7.575-4.412-10.111-2.972a3.21,3.21,0,0,0-.363.218h0a3.834,3.834,0,0,0-.954.563c-.909.718-1,1.454-1.686,1.622-.577.15-.882-.314-1.136-.1-.454.386-.109,2.272.959,3.258A3.181,3.181,0,0,0,329.606,80.74Z" transform="translate(-177.302 -40.324)" fill="#a14c50"/>
        <path id="Pfad_6375" data-name="Pfad 6375" d="M103.3,301.869l-50.058-28.9,51.5-29.319,50.058,28.9Z" transform="translate(-29.044 -132.933)" fill="#ede2dc"/>
        <path id="Pfad_6376" data-name="Pfad 6376" d="M92.33,277.726l68.616,39.607,49.985-29.3L142.343,248.43Z" transform="translate(-50.371 -135.54)" fill="#ede2dc"/>
        <path id="Pfad_6377" data-name="Pfad 6377" d="M116.112,263.686a2.622,2.622,0,0,1-1.322-2.272V218.536c0-1.54.945-2.272,2.1-1.586l1.054.5a5.051,5.051,0,0,1,2.1,4.012v39.943a2.626,2.626,0,0,1-3.931,2.272Z" transform="translate(-62.625 -118.224)" fill="#7e5165"/>
        <path id="Pfad_6378" data-name="Pfad 6378" d="M308.02,252.9c-5.557-3.217-8.279-.6-11.133,1.113,0,0,.454-.091,1.15-.2a8.8,8.8,0,0,0-.768,1.118,11.822,11.822,0,0,0-3.7,9.574c.577,6.225,3.431,12.246,5.067,15.277s5.948,8.611,11.915,8.179a15.341,15.341,0,0,0,2.331-.336,6.7,6.7,0,0,0,1.818-.209,5.8,5.8,0,0,1-.832.709c2.422-1.4,6.63-2.935,6.63-11.4C320.484,267.565,314.9,256.868,308.02,252.9Zm9.424,29.005a4.84,4.84,0,0,1-2.79,3.481c-1.859.759-4.149.518-6.634-.909-8.929-5.162-14.25-21.512-9.365-28.56a4.944,4.944,0,0,1,6.816-1.2c5.948,3.994,14.523,16.318,11.974,27.183Z" transform="translate(-160.138 -137.149)" fill="#664057"/>
        <path id="Pfad_6379" data-name="Pfad 6379" d="M305.225,255.967c-6.875-3.958-12.465.268-12.465,9.443s5.6,19.849,12.474,23.82c6.753,3.9,12.465-.1,12.465-9.429C317.689,269.949,311.459,259.462,305.225,255.967Zm0,31.582c-6.185-3.576-11.215-13.178-11.215-21.426s5.021-12.046,11.206-8.479c5.607,3.14,11.206,12.555,11.206,21.412C316.43,287.149,311.523,291.184,305.225,287.549Z" transform="translate(-159.723 -138.842)" fill="#7e5165"/>
        <path id="Pfad_6380" data-name="Pfad 6380" d="M317.277,286.9h0c-1.331-.768-2.417.055-2.417,1.818a5.824,5.824,0,0,0,2.417,4.617c1.331.773,2.417,0,2.417-1.818A5.792,5.792,0,0,0,317.277,286.9Z" transform="translate(-171.781 -156.374)" fill="#545a73"/>
        <path id="Pfad_6381" data-name="Pfad 6381" d="M177.165,242.45v38.734L111.88,243.318V204.57Z" transform="translate(-61.037 -111.611)" fill="#f9f1e6"/>
        <g id="Gruppe_124" data-name="Gruppe 124" transform="translate(53.883 99.089)" opacity="0.3">
          <path id="Pfad_6382" data-name="Pfad 6382" d="M140.332,261.656,118.57,249.087V218.06l21.762,12.564ZM119.37,248.624l20.158,11.637V231.093L119.37,219.451Z" transform="translate(-118.57 -218.06)" fill="#906471"/>
          <path id="Pfad_6383" data-name="Pfad 6383" d="M133.52,230.626l7.371,4.258v-2.74l-7.371-4.253Z" transform="translate(-126.727 -223.423)" fill="#906471"/>
        </g>
        <path id="Pfad_6384" data-name="Pfad 6384" d="M177.165,218.958,111.88,181.087l33.854-19.567,65.308,37.871Z" transform="translate(-61.037 -88.123)" fill="#f9f1e6"/>
        <path id="Pfad_6385" data-name="Pfad 6385" d="M289.426,283.635,255.55,303.2V264.45l33.876-19.54C289.431,245.923,289.426,281.345,289.426,283.635Z" transform="translate(-139.422 -133.62)" fill="#f9f1e6"/>
        <g id="Gruppe_125" data-name="Gruppe 125" transform="translate(116.128 111.29)" opacity="0.3" style="mix-blend-mode: multiply;isolation: isolate">
          <path id="Pfad_6386" data-name="Pfad 6386" d="M289.426,283.635,255.55,303.2V264.45l33.876-19.54C289.431,245.923,289.426,281.345,289.426,283.635Z" transform="translate(-255.55 -244.91)" fill="#906471"/>
        </g>
        <g id="Gruppe_126" data-name="Gruppe 126" transform="translate(76.54 112.208)" opacity="0.3">
          <path id="Pfad_6387" data-name="Pfad 6387" d="M195.954,270.8,168.43,254.964V246.93l27.524,15.841Zm-26.719-16.3,25.9,14.909v-6.171l-25.9-14.909Z" transform="translate(-168.43 -246.93)" fill="#906471"/>
          <path id="Pfad_6388" data-name="Pfad 6388" d="M190.71,263.776l7.366,4.253v-2.736l-7.366-4.253Z" transform="translate(-180.586 -254.628)" fill="#906471"/>
        </g>
        <g id="Gruppe_127" data-name="Gruppe 127" transform="translate(76.517 122.591)" opacity="0.3">
          <path id="Pfad_6389" data-name="Pfad 6389" d="M182.844,289.929l-14.464-8.37V269.78l14.464,8.37Zm-13.66-8.834,12.855,7.443v-9.924l-12.855-7.443Z" transform="translate(-168.38 -269.78)" fill="#906471"/>
          <path id="Pfad_6390" data-name="Pfad 6390" d="M176.26,278.7l7.371,4.253v-2.736l-7.371-4.253Z" transform="translate(-172.679 -273.152)" fill="#906471"/>
        </g>
        <path id="Pfad_6391" data-name="Pfad 6391" d="M177.165,242.45v1.8L111.88,206.383V204.57Z" transform="translate(-61.037 -111.611)" fill="#906471" opacity="0.3" style="mix-blend-mode: multiply;isolation: isolate"/>
        <path id="Pfad_6392" data-name="Pfad 6392" d="M215.771,304.185c-5.907-3.4-8.77-.636-11.787,1.181,0,0,.5-.1,1.218-.218a9.247,9.247,0,0,0-.818,1.186,12.526,12.526,0,0,0-3.917,10.138c.613,6.589,3.635,12.964,5.367,16.173s6.3,9.12,12.619,8.661a16.418,16.418,0,0,0,2.467-.354,7.111,7.111,0,0,0,1.909-.223,5.559,5.559,0,0,1-.882.75c2.567-1.477,7.025-3.108,7.025-12.069C228.972,319.694,223.051,308.384,215.771,304.185Zm10,30.709a5.135,5.135,0,0,1-2.958,3.69c-1.963.8-4.39.545-7.021-.972-9.456-5.453-15.086-22.78-9.915-30.241a5.239,5.239,0,0,1,7.2-1.263c6.3,4.235,15.377,17.286,12.678,28.787Z" transform="translate(-109.34 -165.08)" fill="#664057"/>
        <path id="Pfad_6393" data-name="Pfad 6393" d="M212.838,307.43h0c-7.271-4.194-13.178.282-13.178,10s5.907,21.017,13.21,25.224c7.152,4.131,13.178-.1,13.178-10C226.034,322.235,219.436,311.129,212.838,307.43Zm0,33.44c-6.548-3.785-11.878-13.96-11.878-22.684s5.321-12.755,11.869-8.979c5.939,3.322,11.865,13.3,11.865,22.671C224.7,340.457,219.509,344.719,212.838,340.87Z" transform="translate(-108.929 -166.871)" fill="#7e5165"/>
        <path id="Pfad_6394" data-name="Pfad 6394" d="M225.578,340.183h0c-1.413-.813-2.558.055-2.558,1.936a6.121,6.121,0,0,0,2.558,4.889c1.409.8,2.558,0,2.558-1.936A6.149,6.149,0,0,0,225.578,340.183Z" transform="translate(-121.674 -185.433)" fill="#7e5165"/>
        <g id="Gruppe_129" data-name="Gruppe 129" transform="translate(48.371 69.72)" style="isolation: isolate">
          <g id="Gruppe_128" data-name="Gruppe 128" style="isolation: isolate">
            <path id="Pfad_6395" data-name="Pfad 6395" d="M292.927,240.59v1.718L257.41,263.052l0-1.718Z" transform="translate(-188.807 -200.983)" fill="#cd9d87"/>
            <path id="Pfad_6396" data-name="Pfad 6396" d="M175.053,238.687l0,1.718L106.45,200.8V199.08Z" transform="translate(-106.445 -178.336)" fill="#f8dfb6"/>
            <path id="Pfad_6397" data-name="Pfad 6397" d="M210.55,193.027l-35.5,20.748c-4.662-2.681-20.748-11.974-36.258-20.939l-32.35-18.658,35.53-20.748,32.786,18.931Z" transform="translate(-106.44 -153.43)" fill="#fcedce"/>
          </g>
        </g>
        <path id="Pfad_6398" data-name="Pfad 6398" d="M177.486,206.27,155.72,193.724,178.113,181l21.762,12.569Z" transform="translate(-84.956 -98.751)" fill="#f9f1e6"/>
        <path id="Pfad_6399" data-name="Pfad 6399" d="M199.886,193.469l-1.154.659-20.6-11.9-21.217,12.087-1.172-.677L178.129,180.9Z" transform="translate(-84.967 -98.697)" fill="#d9c2b0"/>
        <path id="Pfad_6400" data-name="Pfad 6400" d="M183.966,193.08l-7.366,4.253,2.372,1.372,7.366-4.258Z" transform="translate(-96.348 -105.342)" fill="#d9c2b0"/>
        <path id="Pfad_6401" data-name="Pfad 6401" d="M212.706,234.55l-7.616,4.34v1.545l23.884,13.787,7.6-4.321v-1.563Z" transform="translate(-111.892 -127.968)" fill="#f9f1e6"/>
        <path id="Pfad_6402" data-name="Pfad 6402" d="M236.576,253.547v1.563l-7.6,4.321L205.09,245.645V244.1l23.884,13.787Z" transform="translate(-111.892 -133.178)" fill="#d9c2b0"/>
        <path id="Pfad_6403" data-name="Pfad 6403" d="M235.314,246.99l5.926,3.417-1.909,1.1-5.921-3.422Z" transform="translate(-127.343 -134.755)" fill="#d9c2b0"/>
        <path id="Pfad_6404" data-name="Pfad 6404" d="M259.01,208l-7.62,4.34v1.545L275.3,227.653l7.6-4.321v-1.563Z" transform="translate(-137.152 -113.482)" fill="#f9f1e6"/>
        <path id="Pfad_6405" data-name="Pfad 6405" d="M282.876,226.957v1.563l-7.6,4.321L251.39,219.055V217.51L275.274,231.3Z" transform="translate(-137.152 -118.671)" fill="#d9c2b0"/>
        <path id="Pfad_6406" data-name="Pfad 6406" d="M281.619,220.4l5.926,3.422-1.909,1.1L279.71,221.5Z" transform="translate(-152.603 -120.248)" fill="#d9c2b0"/>
        <path id="Pfad_6407" data-name="Pfad 6407" d="M235.85,221.25l-7.62,4.344v1.545l23.884,13.787,7.607-4.34v-1.568Z" transform="translate(-124.517 -120.711)" fill="#f9f1e6"/>
        <path id="Pfad_6408" data-name="Pfad 6408" d="M259.726,240.253v1.568l-7.6,4.321L228.24,232.355V230.81L252.124,244.6Z" transform="translate(-124.522 -125.927)" fill="#d9c2b0"/>
        <path id="Pfad_6409" data-name="Pfad 6409" d="M258.469,233.69l5.926,3.422-1.909,1.1-5.926-3.422Z" transform="translate(-139.973 -127.498)" fill="#d9c2b0"/>
        <g id="Gruppe_130" data-name="Gruppe 130" transform="translate(48.371 69.72)" opacity="0.5" style="mix-blend-mode: multiply;isolation: isolate">
          <path id="Pfad_6410" data-name="Pfad 6410" d="M141.97,153.43l-35.53,20.748,32.35,18.658,35.967-20.476Z" transform="translate(-106.44 -153.43)" fill="#ca9983"/>
        </g>
        <g id="Gruppe_131" data-name="Gruppe 131" transform="translate(120.077 116.139)" opacity="0.3">
          <path id="Pfad_6411" data-name="Pfad 6411" d="M264.24,271.416l27.524-15.836v8.029L264.24,279.446Zm26.7-14.446-25.9,14.909v6.157l25.9-14.909Z" transform="translate(-264.24 -255.58)" fill="#906471"/>
          <path id="Pfad_6412" data-name="Pfad 6412" d="M293.636,272.416l-7.366,4.258v-2.74l7.366-4.253Z" transform="translate(-276.259 -263.273)" fill="#906471"/>
        </g>
        <g id="Gruppe_132" data-name="Gruppe 132" transform="translate(120.077 126.517)" opacity="0.3">
          <path id="Pfad_6413" data-name="Pfad 6413" d="M264.24,294.256l27.524-15.836v8.029L264.24,302.286Zm26.7-14.446-25.9,14.909V300.9l25.9-14.909Z" transform="translate(-264.24 -278.42)" fill="#906471"/>
          <path id="Pfad_6414" data-name="Pfad 6414" d="M293.636,295.26l-7.366,4.253v-2.74l7.366-4.253Z" transform="translate(-276.259 -286.113)" fill="#906471"/>
        </g>
        <g id="Gruppe_133" data-name="Gruppe 133" transform="translate(120.077 144.698)" opacity="0.3">
          <path id="Pfad_6415" data-name="Pfad 6415" d="M264.24,326.8l14.464-8.37v11.778l-14.464,8.37Zm13.66-6.98-12.86,7.443v9.924l12.855-7.443Z" transform="translate(-264.24 -318.43)" fill="#906471"/>
          <path id="Pfad_6416" data-name="Pfad 6416" d="M279.346,327.35,271.98,331.6v-2.74l7.366-4.253Z" transform="translate(-268.463 -321.802)" fill="#906471"/>
        </g>
        <g id="Gruppe_134" data-name="Gruppe 134" transform="translate(136.954 137.232)" opacity="0.3">
          <path id="Pfad_6417" data-name="Pfad 6417" d="M301.38,308.125,311.891,302v11.778l-10.511,6.13Zm9.711-4.735-8.906,5.2v9.924l8.906-5.2Z" transform="translate(-301.38 -302)" fill="#906471"/>
          <path id="Pfad_6418" data-name="Pfad 6418" d="M312.181,308.2l-7.371,4.253v-2.736l7.371-4.253Z" transform="translate(-303.251 -303.888)" fill="#906471"/>
        </g>
        <path id="Pfad_6419" data-name="Pfad 6419" d="M161.14,100.207h0v-71h3.231v71h0a.827.827,0,0,1-.482.663,2.549,2.549,0,0,1-2.272,0,.813.813,0,0,1-.477-.663Z" transform="translate(-87.913 -15.937)" fill="#7e5165"/>
        <path id="Pfad_6420" data-name="Pfad 6420" d="M215.881,35.6v.036a11.253,11.253,0,0,1-5.08,8.579c-2.749,1.59-5.044.336-5.076-2.876a11.147,11.147,0,0,1-5.08,8.743c-2.781,1.6-5.049.336-5.08-2.876a11.126,11.126,0,0,1-5.062,8.743c-2.963,1.709-5.094.045-5.094-2.726a.427.427,0,0,1,0-.159,11.226,11.226,0,0,1-5.044,8.743c-2.886,1.663-5.08.145-5.08-2.749a.629.629,0,0,1,0-.159,11.215,11.215,0,0,1-5.049,8.757c-2.554,1.481-4.744.532-5.112-2.054a4.208,4.208,0,0,1,0-.677V.04c16.85,10.524,7.221,4.544,44.532,27.755,0,0-.3-.177,6.2,3.872Z" transform="translate(-90.079 -0.022)" fill="#6daaaa"/>
        <path id="Pfad_6421" data-name="Pfad 6421" d="M104.057,0V64.754c0,3.213-2.313,4.517-5.126,2.908a11.1,11.1,0,0,1-5.044-8.743c-.032,3.181-2.3,4.485-5.094,2.876a11.2,11.2,0,0,1-5.067-8.775c0,3.231-2.272,4.544-5.094,2.908a11.152,11.152,0,0,1-5.053-8.775c0,3.231-2.272,4.544-5.094,2.908a11.15,11.15,0,0,1-5.071-8.775c0,3.231-2.272,4.544-5.094,2.908a11.174,11.174,0,0,1-5.08-8.752c0-.077.082-3.735.082-3.813l6.171-3.858h0C77.874,16.332,87.144,10.506,104.025.018Z" transform="translate(-29.044)" fill="#6daaaa"/>
        <path id="Pfad_6422" data-name="Pfad 6422" d="M104.144,86.912v7.493L53.4,64.978l6.171-3.858h.018Z" transform="translate(-29.131 -33.346)" fill="#fdecce"/>
        <path id="Pfad_6423" data-name="Pfad 6423" d="M119.039,62.611V70.1L80.7,47.915l6.235-3.885Z" transform="translate(-44.026 -24.022)" fill="#fdecce"/>
        <path id="Pfad_6424" data-name="Pfad 6424" d="M134.01,38.315V45.8L108.14,30.826l6.225-3.876Z" transform="translate(-58.997 -14.704)" fill="#fdecce"/>
        <path id="Pfad_6425" data-name="Pfad 6425" d="M165.07,0Z" transform="translate(-90.057)" fill="#fcedce"/>
        <path id="Pfad_6426" data-name="Pfad 6426" d="M215.819,65,165.07,94.411V86.922L209.6,61.13Z" transform="translate(-90.057 -33.352)" fill="#e8d6b8"/>
        <path id="Pfad_6427" data-name="Pfad 6427" d="M203.372,47.915,165.07,70.1V62.611L197.147,44.03Z" transform="translate(-90.057 -24.022)" fill="#e8d6b8"/>
        <path id="Pfad_6428" data-name="Pfad 6428" d="M190.912,30.826,165.07,45.8V38.315L184.687,26.95Z" transform="translate(-90.057 -14.704)" fill="#e8d6b8"/>
        <g id="Gruppe_136" data-name="Gruppe 136" transform="translate(75.031 8.52)" opacity="0.3" style="mix-blend-mode: multiply;isolation: isolate">
          <g id="Gruppe_135" data-name="Gruppe 135" style="isolation: isolate">
            <path id="Pfad_6429" data-name="Pfad 6429" d="M215.881,45.81v.036a11.253,11.253,0,0,1-5.08,8.579c-2.749,1.59-5.044.336-5.076-2.876a11.147,11.147,0,0,1-5.08,8.743c-2.781,1.6-5.049.336-5.08-2.876a11.126,11.126,0,0,1-5.062,8.743c-2.963,1.709-5.094.045-5.094-2.726a.427.427,0,0,1,0-.159,11.226,11.226,0,0,1-5.044,8.743c-2.886,1.663-5.08.145-5.08-2.749a.629.629,0,0,1,0-.159,11.215,11.215,0,0,1-5.049,8.757c-2.554,1.481-4.744.532-5.112-2.054a4.208,4.208,0,0,1,0-.677V26.511c.027,0,13.382-7.725,13.405-7.761,40.9,25.333,27.855,17.222,37.335,23.125Z" transform="translate(-165.11 -18.75)" fill="#6daaaa"/>
          </g>
        </g>
        <path id="Pfad_6430" data-name="Pfad 6430" d="M163.491,12.582l-7.9,4.576L147.7,12.582c4.385-2.726,2.767-1.722,7.893-4.912h0C160.714,10.86,158.883,9.715,163.491,12.582Z" transform="translate(-80.58 -4.185)" fill="#fdecce"/>
        <g id="Gruppe_137" data-name="Gruppe 137" transform="translate(75.03 31.645)" style="isolation: isolate">
          <path id="Pfad_6431" data-name="Pfad 6431" d="M215.881,73.575v.036a11.253,11.253,0,0,1-5.08,8.579c-2.749,1.59-5.044.336-5.076-2.876a11.147,11.147,0,0,1-5.08,8.743c-2.781,1.6-5.049.336-5.08-2.876a11.126,11.126,0,0,1-5.062,8.743c-2.963,1.709-5.094.045-5.094-2.726a.427.427,0,0,1,0-.159,11.226,11.226,0,0,1-5.044,8.743c-2.886,1.663-5.08.145-5.08-2.749a.628.628,0,0,1,0-.159,11.215,11.215,0,0,1-5.049,8.757c-2.554,1.481-4.744.532-5.112-2.054a3.988,3.988,0,0,1,0-.677V99.027L215.831,69.64Z" transform="translate(-165.108 -69.64)" fill="#6daaaa"/>
        </g>
        <path id="Pfad_6432" data-name="Pfad 6432" d="M136.7,191.822l-9.829,5.707-10.67-6.157,9.829-5.712Z" transform="translate(-63.394 -101.294)" fill="#ca9983"/>
        <path id="Pfad_6433" data-name="Pfad 6433" d="M139.107,178.394l-.582.336-4.394-3.2-4.889-2.813-3.063-12.06-.359-1.4.568.336,9.284,5.358.359,1.391Z" transform="translate(-68.643 -86.885)" fill="#bd7569"/>
        <path id="Pfad_6434" data-name="Pfad 6434" d="M138.525,178.731l-9.852-5.694L125.82,159.25l9.279,6.007Z" transform="translate(-68.643 -86.885)" fill="#915044"/>
        <path id="Pfad_6435" data-name="Pfad 6435" d="M132.544,166.738l-1.9,9.193-1.354,6.539-.732.423-.432-1.091-8.7-5.012,3.263-15.732.209-1.068,9.284,5.358Z" transform="translate(-65.157 -87.289)" fill="#bd7569"/>
        <path id="Pfad_6436" data-name="Pfad 6436" d="M121.456,159.25,117.83,176.8l9.856,5.689,3.626-17.545Z" transform="translate(-64.284 -86.885)" fill="#f1b988"/>
        <path id="Pfad_6437" data-name="Pfad 6437" d="M134.055,169.463l-.168.8-6.607-3.817.164-.791Z" transform="translate(-69.439 -90.377)" fill="#bd7569"/>
        <path id="Pfad_6438" data-name="Pfad 6438" d="M132.791,175.157l-.164.791-6.607-3.817.164-.791Z" transform="translate(-68.752 -93.481)" fill="#bd7569"/>
        <path id="Pfad_6439" data-name="Pfad 6439" d="M131.525,180.847l-.168.791-6.607-3.817.164-.791Z" transform="translate(-68.059 -96.585)" fill="#bd7569"/>
        <path id="Pfad_6440" data-name="Pfad 6440" d="M130.261,186.537l-.164.8-6.607-3.817.164-.8Z" transform="translate(-67.372 -99.69)" fill="#bd7569"/>
        <path id="Pfad_6441" data-name="Pfad 6441" d="M265.14,385.632l17.886,10.211,10.352-1.15,14.727-8.379L286.647,373.24Z" transform="translate(-144.654 -203.635)" fill="#ede2dc"/>
        <path id="Pfad_6442" data-name="Pfad 6442" d="M305.078,324.3l-17.068-9.852-1.191,1.059,7.62,28.814,2.272,1.313,1.191-1.059-.609-2.308,10.779,6.225,1.154,4.371,2.272,1.313,1.191-1.063Zm-8.956,13.519-4.676-17.608,10.779,6.225,4.671,17.6Z" transform="translate(-156.483 -171.56)" fill="#f1b988"/>
        <path id="Pfad_6443" data-name="Pfad 6443" d="M303.844,326.626,286.79,316.77l7.616,28.814,2.272,1.327,1.2-1.068-.623-2.295,10.792,6.207,1.15,4.381,2.272,1.3ZM294.9,340.159l1.172-1.068-4.644-17.6,10.77,6.207,4.68,17.6.55,2.086Z" transform="translate(-156.466 -172.826)" fill="#bd7569"/>
        <path id="Pfad_6444" data-name="Pfad 6444" d="M286.77,315.509l1.191-1.059,17.068,9.852-1.191,1.063Z" transform="translate(-156.455 -171.56)" fill="#f1b988"/>
        <path id="Pfad_6445" data-name="Pfad 6445" d="M275.967,316.78l-1.191.323-7.807,37.775,2.277,1.313,1.191-.323,1-4.826,11.515,6.648-1.186,5.73,2.277,1.313,1.191-.323,7.807-37.775Z" transform="translate(-145.653 -172.831)" fill="#fcedce"/>
        <path id="Pfad_6446" data-name="Pfad 6446" d="M282.342,327.8l-.259,1.2-4.9,23.707-1.2.336,5.112-24.616.232-1.2h.027Z" transform="translate(-150.568 -178.533)" fill="#f1b988"/>
        <g id="Gruppe_138" data-name="Gruppe 138" transform="translate(125.412 174.176)" style="isolation: isolate">
          <path id="Pfad_6447" data-name="Pfad 6447" d="M288.681,389.948l-.186.913-12.514-7.225.886-.259.314-.077.782.441Z" transform="translate(-275.98 -383.3)" fill="#f1b988"/>
        </g>
        <path id="Pfad_6448" data-name="Pfad 6448" d="M273.161,390.9l1,.582-1,4.826-1.191.323Z" transform="translate(-148.386 -213.27)" fill="#f1b988"/>
        <path id="Pfad_6449" data-name="Pfad 6449" d="M312.337,338.793l1.191-.323-7.807,37.775-1.191.323Z" transform="translate(-166.145 -184.665)" fill="#f1b988"/>
        <path id="Pfad_6450" data-name="Pfad 6450" d="M284.15,317.1l1.191-.323,17.068,9.856-1.191.323Z" transform="translate(-155.026 -172.831)" fill="#f1b988"/>
        <path id="Pfad_6451" data-name="Pfad 6451" d="M295.283,335.165l-.264,1.2-4.9,23.679-10.72-6.207-.782-.441,5.162-24.906Z" transform="translate(-152.009 -179.22)" fill="#ffa6bf"/>
        <path id="Pfad_6452" data-name="Pfad 6452" d="M285.5,366.21l8.488,4.9h0l-.454,2.122-8.488-4.9Z" transform="translate(-155.517 -199.8)" fill="#f4f0e7"/>
        <path id="Pfad_6453" data-name="Pfad 6453" d="M287.454,358.1l8.484,4.9h0l-.454,2.122-8.484-4.9Z" transform="translate(-156.581 -195.375)" fill="#f4f0e7"/>
        <path id="Pfad_6454" data-name="Pfad 6454" d="M289.418,350l8.488,4.9h0l-.454,2.122L289,352.113Z" transform="translate(-157.672 -190.956)" fill="#f4f0e7"/>
        <path id="Pfad_6455" data-name="Pfad 6455" d="M291.336,341.87l8.488,4.9h0l-.454,2.122-8.47-4.9Z" transform="translate(-158.709 -186.52)" fill="#f4f0e7"/>
        <path id="Pfad_6456" data-name="Pfad 6456" d="M295.283,335.165l-.264,1.2-10.715-6.2-4.9,23.675-.782-.441,5.162-24.906Z" transform="translate(-152.009 -179.22)" fill="#906471" opacity="0.3" style="mix-blend-mode: multiply;isolation: isolate"/>
        <path id="Pfad_6457" data-name="Pfad 6457" d="M21.555,387.485c9.215.454,23.261-3.181,23.175-12.505-.068-10.992-22.7-16.563-35.989-8.729C-4,373.771,4.06,386.621,21.555,387.485Z" transform="translate(-1.367 -197.822)" fill="#ede2dc"/>
        <path id="Pfad_6458" data-name="Pfad 6458" d="M28.252,243.029c-.486-.4-.859-.718-.972-.809a4.776,4.776,0,0,1,.972.809Z" transform="translate(-14.881 -132.152)" fill="#ffcfcd"/>
        <path id="Pfad_6459" data-name="Pfad 6459" d="M31.378,234.41a3.8,3.8,0,0,0-1.341.841c-.2.209-2.027,2.027-2.367,2.39.173-.209,2.9-3.276,3.108-3.381C30.942,234.305,31.142,234.36,31.378,234.41Z" transform="translate(-15.093 -127.809)" fill="#ffcfcd"/>
        <path id="Pfad_6460" data-name="Pfad 6460" d="M45.084,242.081a1.109,1.109,0,0,1-.454-.541A2.231,2.231,0,0,0,45.084,242.081Z" transform="translate(-24.347 -131.781)" fill="#ffcfcd"/>
        <path id="Pfad_6461" data-name="Pfad 6461" d="M51.116,249.39a.682.682,0,0,0-.186-.2.409.409,0,0,1,.186.2Z" transform="translate(-27.784 -135.955)" fill="#ffcfcd"/>
        <path id="Pfad_6462" data-name="Pfad 6462" d="M39.316,241.112a.409.409,0,0,1-.1.036c-.909.245-3.635-1.5-3.785-1.55a17.981,17.981,0,0,0,2.581,1.65h0c.082.064.2.168.2.277s-.041.4-.123.454a1.509,1.509,0,0,1-.7.086,15.528,15.528,0,0,1-1.977-1.081A10.13,10.13,0,0,1,36.9,242.23c.123.277,0,.345-.291.373a3.285,3.285,0,0,1-1.427-.382c-.5-.25-1.522-.554-.632,0,.114.073,1.054.582,1.027.723s-.423.254-.454.254c-.759.127-2.726-1.281-3.563-1.781a15.564,15.564,0,0,1-3.008-2.1,4.435,4.435,0,0,0-1.286-1.2h0a1.3,1.3,0,0,1,.114-.15s0-.027,0-.027c.077-.1,2.313-2.336,2.413-2.445a3.8,3.8,0,0,1,1.341-.841l.782.191a6.362,6.362,0,0,1,0,.986,5.835,5.835,0,0,0-.086,1.259c.032.214.109.777.454.95a3.5,3.5,0,0,0,1.172.027,3.949,3.949,0,0,0,1.595-.609c-.059.1.364.777.609.963a27.329,27.329,0,0,0,2.908,1.65c.336.168.645.2.813.5S39.648,240.93,39.316,241.112Z" transform="translate(-14.875 -128.022)" fill="#ffcfcd"/>
        <path id="Pfad_6463" data-name="Pfad 6463" d="M44.513,241.1a.332.332,0,0,1-.059-.336A.909.909,0,0,0,44.513,241.1Z" transform="translate(-24.238 -131.356)" fill="#ed7d88"/>
        <path id="Pfad_6464" data-name="Pfad 6464" d="M46.479,243.307a3.09,3.09,0,0,1-.659-.427C45.984,242.994,46.22,243.139,46.479,243.307Z" transform="translate(-24.996 -132.512)" fill="#ed7d88"/>
        <path id="Pfad_6465" data-name="Pfad 6465" d="M16.5,211.38a2.9,2.9,0,0,1-2.408,1.654,7.714,7.714,0,0,1-2.876-1.213c-.454-.241-6.153-3.7-6.975-4.453a28.662,28.662,0,0,1-3.367-3.794A4.208,4.208,0,0,1,0,200.847a21.476,21.476,0,0,1,.373-3.181C.587,196.6,1.95,187.81,2.3,186.956s2.495-.636,4.63,3.858c1.4,2.936,1.313,7.121.736,10.633a39.674,39.674,0,0,0,8.393,6.216A3.581,3.581,0,0,1,16.5,211.38Z" transform="translate(0.006 -101.785)" fill="#fa6755"/>
        <path id="Pfad_6466" data-name="Pfad 6466" d="M42.572,237.8c-.268.2-.691,0-.954-.109a2.386,2.386,0,0,0-.968-.073h-.027a3.949,3.949,0,0,1-1.581.613,3.5,3.5,0,0,1-1.172-.027c-.359-.173-.454-.736-.454-.95A5.834,5.834,0,0,1,37.5,236a6.362,6.362,0,0,0,0-.986c1.986.477,5,1.218,5.221,2.181C42.772,237.5,42.84,237.618,42.572,237.8Z" transform="translate(-20.407 -128.219)" fill="url(#linear-gradient-2)"/>
        <path id="Pfad_6467" data-name="Pfad 6467" d="M13.423,375.967c0,1.454,2.676,3.126,5.158,1.431,1.072-.718.741-1.291,2.245-2.554a6.307,6.307,0,0,1,1.913-1.29c.95-.377,1.745-.482,2.195-1.477.6-1.122,1.313-3.181.7-4.181H25.6l-.023-.023c-1.918-2.563-7.221.532-9.879,2.554A6.5,6.5,0,0,0,13.423,375.967Z" transform="translate(-7.285 -200.178)" fill="#664e4c"/>
        <path id="Pfad_6468" data-name="Pfad 6468" d="M13.39,375.911c0,.027.023.027.023.05.759,1.513,2.985,2.081,4.967.809,1.05-.713.713-1.286,2.245-2.554a6.41,6.41,0,0,1,1.909-1.286,4.613,4.613,0,0,0,1.768-.859c1.086-1.091,1.613-4.2,1.309-4.2l-.023-.023c-1.886-2.527-7.875.523-10.07,2.727A6.47,6.47,0,0,0,13.39,375.911Z" transform="translate(-7.275 -200.172)" fill="#a98575"/>
        <path id="Pfad_6469" data-name="Pfad 6469" d="M62.434,393.505a41.71,41.71,0,0,1-9.729,1.063c-1.481.114-4.281-.409-5.185-1.677-.668-.936-.582-2.849-.482-3.994a3.725,3.725,0,0,1,.582-2.131c.909-1.209,2.767-1.172,3.181-1.168a15.931,15.931,0,0,1,2.881.673,46.623,46.623,0,0,1,5.117,1.722c2.8.977,4.926,1.322,5.544,3.108C64.856,392.51,63.829,393.133,62.434,393.505Z" transform="translate(-25.623 -210.377)" fill="#664e4c"/>
        <path id="Pfad_6470" data-name="Pfad 6470" d="M64.3,391.113c-.159.809-1.2,1.145-1.99,1.363a43.046,43.046,0,0,1-9.734,1.077,10.052,10.052,0,0,1-3.9-.718c-1.945-.813-1.863-2.367-1.631-4.462h0c.209-1.69,1.013-2.763,3.713-2.763,1.363.027,8.634,2.467,11.119,3.5C63.1,389.582,63.907,389.95,64.3,391.113Z" transform="translate(-25.601 -210.384)" fill="#a98575"/>
        <path id="Pfad_6471" data-name="Pfad 6471" d="M47.5,383.827a4.024,4.024,0,0,0,6.571-.877,3.426,3.426,0,0,1-3.294,4.93C47.7,387.935,46.767,385.731,47.5,383.827Z" transform="translate(-25.784 -208.933)" fill="#664e4c"/>
        <path id="Pfad_6472" data-name="Pfad 6472" d="M33.559,314.09a4.583,4.583,0,0,1-3.994,2.486,6.171,6.171,0,0,1-3.5-1.963,62.6,62.6,0,0,0,.118-11.36c-.559-5.076-1.863-12.41-1.218-15.077-1.322-3.785-3.245-12.542-4.34-15.45-.609,4.34.277,5.453-1.881,14.578,0,0,.15-.882-1.59,22.193,0,0-.082,2.349-1.645,3.181-1.486.8-5.044-.041-4.376-2.349,0-9.92-1.863-16.745-.822-24.893.318-14.209-2.681-24.384-.659-29.432.259-.791.868-2.345,1.427-2.372l10.983,2.44c3.181,2.781,7.421,2.408,9.543-.232a56.483,56.483,0,0,1,2.358,12.955s0,.036,0,.055c.2,3.554.145,5,.055,18.495,0,0,.118,2.8.118,4.4C34.236,302.42,32.869,305.424,33.559,314.09Z" transform="translate(-4.878 -138.378)" fill="#355f6d"/>
        <path id="Pfad_6473" data-name="Pfad 6473" d="M34.456,303.67a73.724,73.724,0,0,0-.191,12.087,4.583,4.583,0,0,1-3.994,2.486,6.171,6.171,0,0,1-3.5-1.963c.182-.741,2.34-.282,3.844-1.654a5.941,5.941,0,0,0,1.581-4.067c.236-2.626.354-25.779.277-26.715a13.873,13.873,0,0,0-.882-3.84c-1.768-4.6-.554-10.783-3.976-13.437-1.931-1.5-2.726.155-7.421-1.168-5-1.4-10.451-5.062-9.92-7.5a6.753,6.753,0,0,1,.359-1c1.286-1.145,15.273,2.749,16.777,2.749a6.607,6.607,0,0,0,4.921-2.149c3.04,10.133,2.422,16.727,2.422,24.7C34.565,289.506,35.256,296.576,34.456,303.67Z" transform="translate(-5.584 -140.045)" fill="#183e47"/>
        <path id="Pfad_6474" data-name="Pfad 6474" d="M21.669,299.41v.05c0,.018-.391,1.763-.423,1.763-.064,2.39.191-.845-1.545,22.184,0,0-.082,2.349-1.645,3.181-1.49.8-5.044-.041-4.376-2.349a6.171,6.171,0,0,1,2.086-1.318c2.858-1.463,2.218-9.152,2.331-12.8.145-4.708,1.086-14.568,1.568-15.836a10.906,10.906,0,0,0,.568-1.927c1.163-6.225-2.649-6.157-2.4-13.178a26.376,26.376,0,0,0,3.967,6.448c.573.414,1.05.75,1.363.968A45.085,45.085,0,0,1,21.669,299.41Z" transform="translate(-7.416 -152.317)" fill="#183e47"/>
        <path id="Pfad_6475" data-name="Pfad 6475" d="M8.9,216.3a21.1,21.1,0,0,0,8.57,3.349c5.258.909,10.7.145,12.269-3.435v-.036c.073-.168.136-.354.2-.536.232-.763-.036-1.254-.4-2.749-.65-2.686-1.3-9.747-.318-18.049-.05-.686-.123-1.336-.209-1.949.232-1.949.427-3.481.418-4.24a3.026,3.026,0,0,0-1.082-2.395c-.341-.282-.736-.563-1.127-.854a.173.173,0,0,1-.05-.064.027.027,0,0,0-.023,0,32.891,32.891,0,0,0-6.18-3.54c-3.09-1.363-7.052-2.886-7.884-3.181a.227.227,0,0,1-.073-.023h-.086l-.7-.236c-1.681-.527-4.09-.882-6.766,2.59a2.521,2.521,0,0,0-.2.3.086.086,0,0,0,0,.05c-1.79,2.945,2.377,14.591,2.931,22.33C8.7,210.845,5.9,214.08,8.9,216.3Z" transform="translate(-2.618 -97.128)" fill="url(#linear-gradient-3)"/>
        <path id="Pfad_6476" data-name="Pfad 6476" d="M32.67,233.191c5.258.909,10.7.145,12.269-3.435v-.036c.073-.168.136-.354.2-.536.232-.763-.036-1.254-.4-2.749-.65-2.686-1.3-9.747-.318-18.049-.05-.686-.123-1.336-.209-1.949-.036-.3-.073-.586-.123-.859l-5.626-2.726a34.453,34.453,0,0,0-.509,6.544c.145,7.67,2.795,10.62,1.89,15C39.4,226.734,37.841,229.938,32.67,233.191Z" transform="translate(-17.821 -110.673)" fill="#fa6755"/>
        <path id="Pfad_6477" data-name="Pfad 6477" d="M18.785,164.323c-.136,2.558,4.685,3.635,7.411.832l.359-.373c-2.04-3.235,1-1.718,2.122-3.026s1.659-11.651-1.136-13.9a6.662,6.662,0,0,0-4.172-1.313c-4.776,0-9.456,4.844-8.666,8.093.691,2.849,2.754,3.458,3.694,6.5A9.088,9.088,0,0,1,18.785,164.323Z" transform="translate(-7.972 -79.952)" fill="#ffcfcd"/>
        <path id="Pfad_6478" data-name="Pfad 6478" d="M31.032,183.347a6.162,6.162,0,0,1-3.481,2.726c-1.818.513-4.608.291-5.653-1.568-.663-1.209-.577-3.045.327-3.772a3.7,3.7,0,0,1,1.032-.6c1.581.6,4.458,1.736,6.816,2.776C30.418,183.07,30.732,183.206,31.032,183.347Z" transform="translate(-11.707 -98.277)" fill="#fff"/>
        <path id="Pfad_6479" data-name="Pfad 6479" d="M23.612,179.633c-.145,2.477,5.148,3.844,7.78.391-.523-.832-1.05-2.068-.086-2.236a5.172,5.172,0,0,1-3.09-.863,3.56,3.56,0,0,1-.754-2.445c-.141.164-2.795,3.181-3.981,2.895A8.979,8.979,0,0,1,23.612,179.633Z" transform="translate(-12.807 -95.194)" fill="url(#linear-gradient-4)"/>
        <path id="Pfad_6480" data-name="Pfad 6480" d="M28.257,148.041c-.4.968-1.781.75-2.536,2.149a3.063,3.063,0,0,0-.314.909s-1.227,5.544-1.49,3.349c-.186-1.568-3.072-1.363-2.131,1.322a8.565,8.565,0,0,0,.718,1.363c.055,2.627-2.6,4.958-5.085,3.613a10.012,10.012,0,0,0-1.082-3.058c-.836-1.518-1.468-1.613-2.3-2.963a7.872,7.872,0,0,1,.791-9.256.2.2,0,0,1,.068-.077,8.434,8.434,0,0,1,4.153-2.336,9.543,9.543,0,0,1,5.089.241,5.094,5.094,0,0,1,2.436,1.2C27.253,145.092,28.748,146.846,28.257,148.041Z" transform="translate(-7.033 -77.921)" fill="#a14c50"/>
        <path id="Pfad_6481" data-name="Pfad 6481" d="M88.7,189.556c.2-1.241.618-4.09-.345-3.285-.609.5-.545,1.268-.886,2.372-.268.872-.773,1.9-1.036,1.854s-.373-.745-.223-1.363.482-.872.354-1.286c0-.055-.082-.268-.223-.3a.254.254,0,0,0-.191.059,4.544,4.544,0,0,0-1.44,1.513,8.3,8.3,0,0,0-.518,3.7c0,.877.064,1.595.109,2.077a10.765,10.765,0,0,1,3.635,1.313A9.317,9.317,0,0,0,88.7,189.556Z" transform="translate(-45.929 -101.55)" fill="#ffcfcd"/>
        <path id="Pfad_6482" data-name="Pfad 6482" d="M65.712,200.627c-1.027,5.453-3.635,9.833-4.839,12.11a4.867,4.867,0,0,1-.686.909,5.055,5.055,0,0,1-.4.368,4.4,4.4,0,0,1-2.272.959h-.109a2.2,2.2,0,0,1-.345,0,2.053,2.053,0,0,1-.341,0l-.282.023c-.077,0-.486-.059-.573-.077a7.99,7.99,0,0,1-1.595-.6c-1.554-.872-6.307-7.307-7.725-9.152-.577-.732-1.468-1.818-2.672-3.09-.218-1.254-2.036-6.33,4.462-7.907a16.954,16.954,0,0,1,3.1,2.863c2.122,2.676,5.589,10,5.589,10s3.667-5.453,5.058-7.725A2.831,2.831,0,0,1,65.712,200.627Z" transform="translate(-23.717 -105.937)" fill="url(#linear-gradient-5)"/>
      </g>
    </g>
  </g>
</svg>
