<svg xmlns="http://www.w3.org/2000/svg" width="388" height="389.211" viewBox="0 0 388 389.211">
  <g id="Gruppe_767" data-name="Gruppe 767" transform="translate(-669.53 -128.36)">
    <path id="Pfad_13319" data-name="Pfad 13319" d="M1057.53,321.965A193.392,193.392,0,0,1,956.818,491.719c-1.047.6-2.094,1.157-3.141,1.717a193.472,193.472,0,0,1-32.461,13.437c-3.067.933-6.133,1.829-9.237,2.613a195.479,195.479,0,0,1-48.467,6.084A193.255,193.255,0,0,1,807.6,507.4a190.157,190.157,0,0,1-35.752-14.781,193.478,193.478,0,0,1-102.32-170.65c0-106.936,86.837-193.6,193.981-193.6S1057.53,215.029,1057.53,321.965Z" transform="translate(0)" fill="#f1ece1"/>
    <g id="Gruppe_746" data-name="Gruppe 746" transform="translate(772.505 199.541)">
      <path id="Pfad_13320" data-name="Pfad 13320" d="M798.435,217.267c0,6.262-19.821,10.209-44.537,10.209s-44.755-5.074-44.755-11.337S729.182,204.8,753.9,204.8,798.435,211,798.435,217.267Z" transform="translate(-664.42 12.282)" fill="#c67500"/>
      <path id="Pfad_13321" data-name="Pfad 13321" d="M699.741,191.463c1.548,12.382-1.919,34.52,13.147,37.687,9.384,1.975,17.644-9.062,18.008-20.9s-6.974-26.845-15.669-30.881C705.749,172.968,698.138,178.62,699.741,191.463Z" transform="translate(-688.052 -64.605)" fill="#eab885"/>
      <path id="Pfad_13322" data-name="Pfad 13322" d="M707.115,175.308c-3.471.416-7.87,10.58-7.057,16.557,2.309,16.955-2.091,35.371,12.978,38.541a10.777,10.777,0,0,0,6.84-.843C697.2,228.634,704.709,178.67,707.115,175.308Z" transform="translate(-686.862 -66.168)" fill="#f5d39c"/>
      <path id="Pfad_13323" data-name="Pfad 13323" d="M872.831,334.966c-.254.187-.508.375-.8.562-5.225,3.523-16.654,8.882-31.493,13.492-2.866.937-5.842,1.836-8.962,2.623-14.912,4.01-32.291,7.008-49.852,6.9-20.608-.112-37.588-3.71-51.412-8.994a102.032,102.032,0,0,1-32.945-20.05s2.467-21.474,2.794-28.07c.943-20.687,21.261-27.471,36.464-31.668.8-.187,1.56-.412,2.358-.637.581-.15,1.161-.3,1.705-.412,1.56-.45,3.048-.862,4.39-1.237a32.969,32.969,0,0,0,5.769-2.174c1.669-.9,2.757-3.448,3.374-6.858a51.421,51.421,0,0,0,0-14.953v-.075a43.56,43.56,0,0,0-.762-4.347,45.018,45.018,0,0,0-2.25-7.87c-6.857-17.2-1.705-25.784,18.939-25.672l24.708-17.539,2.25-1.611a29.514,29.514,0,0,1,10.594,1.8c11.683,4.5,14.585,17.052,14.513,31.706l-5.007,7.983c-.363,1.087-.689,2.174-.98,3.223a72.4,72.4,0,0,0-2.068,9.107,3.218,3.218,0,0,0-.109.824,60.07,60.07,0,0,0-.29,18.289c.544,3.485,1.451,5.809,2.358,6.6a37.1,37.1,0,0,0,7.075,4.61,12.08,12.08,0,0,0,1.415.675c1.633.824,3.338,1.537,5.116,2.249.762.3,1.524.6,2.286.937,2.032.75,4.136,1.537,6.277,2.361h.036c3.084,1.162,6.241,2.4,9.288,3.785a50.462,50.462,0,0,1,14.84,9.744c.036.037.073.075.073.112a35,35,0,0,1,9.4,17.427,7.134,7.134,0,0,1,.145.862,51.516,51.516,0,0,1,1.088,9.931C873.267,323.948,872.831,334.966,872.831,334.966Z" transform="translate(-693.978 -40.512)" fill="#f5d39c"/>
      <path id="Pfad_13324" data-name="Pfad 13324" d="M830.685,280.726a28.27,28.27,0,0,0-.727-5.936c-.326-10.958-6.9-23-22.385-27.587-15.887-4.7-34.7-3.684-39.118-16.179s.453-32.909.453-32.909l-19.2,12.5s12.476,28.006,2.053,35.232c-4.374,3.032-10.2,8.608-37.083,3.838,15.223,15.448,50.572.6,50.864,1.731a35.154,35.154,0,0,1-2.275,10.171c-1.188,2.226-2.414,4.542-2.23,6.787a.684.684,0,0,0,.877.573c3.961-1.33,6.7-5.479,8.863-8.447a51.591,51.591,0,0,0,5.457-9.515c17.734,6.884,37.012,10.906,41.753,24.671a94.987,94.987,0,0,1,3.946,15.017,32.058,32.058,0,0,1-.157,3.287c-.468,4.655-2.968,8.339-6.337,11.888-.461.487.026,3.425.735,3.028,3.159-1.769,13.06-5.876,13.574-7.926C829.793,300.829,831.019,283.754,830.685,280.726Z" transform="translate(-652.196 -8.238)" fill="#eab885"/>
      <path id="Pfad_13325" data-name="Pfad 13325" d="M769.434,191.488c-6.96,15.812-5.116,36.851-20.44,38.343-9.541.926-16.538-10.955-15.594-22.76s7.758-26.166,16.846-29.221C760.155,174.518,774.2,180.645,769.434,191.488Z" transform="translate(-601.003 -61.831)" fill="#f5d39c"/>
      <path id="Pfad_13326" data-name="Pfad 13326" d="M766.335,182.213c-.75-2.455-4.021-2.691-6.2-3.2-3.343,10.6-2.759,23.461-11.015,31.732a20.564,20.564,0,0,1-10.419,5.5,31.885,31.885,0,0,1-4.051,3.718c2.579,2.575,5.854,4.411,9.377,3.68C760.241,220.285,754.984,202.952,766.335,182.213Z" transform="translate(-597.327 -56.264)" fill="#eab885"/>
      <path id="Pfad_13327" data-name="Pfad 13327" d="M834.738,234.528a64.457,64.457,0,0,0,.593-8.71c0-36.4-30.627-65.911-68.408-65.911s-64.578,13.087-64.578,49.488c0,7.173-.3,42.117-.3,45.047,0,25.578,14.954,43.237,36.5,59.225,6.327,6.1,16.183,10.025,27.264,10.025a42.789,42.789,0,0,0,19.464-4.512c30.278-6.791,51.215-40.419,51.215-71.663C836.488,240.371,836.923,240.974,834.738,234.528Z" transform="translate(-681.127 -107.85)" fill="#f5d39c"/>
      <path id="Pfad_13328" data-name="Pfad 13328" d="M838.157,219.477c-.5-12.354-1.236-24.7-2.79-36.966l-.068-.53c-26.788-34.518-85.705-7.4-99.491-2.4.9,2.749,75.288-12.354,90.026,26.1,2.3,6.023,2.631,36.214-3.322,49.725-6.338,14.387-13.915,26.834-27.306,34.833-8.279,4.942-20.1,10.747-29.71,10.633-9.986-.122-22.248-6.009-30.314-11.878-30.562-22.242-33-45.126-33-45.126-.094,3.063,1.826,10.754,4.357,16.373,4.192,9.3,12.88,19.283,20.558,25.757,7.9,6.664,9.034,7.916,18.042,12.862.823,9.148-.625,23.663-12.847,22.228,2,11.975,36.26,16.073,33.97,15.425-30.458-8.625-15.587-27.171-15.3-35.545,15.015,7.161,33.715,1.711,48.047-5.844s26.382-20.163,31.684-35.638C834.968,247.005,838.692,232.679,838.157,219.477Z" transform="translate(-680.753 -91.854)" fill="#eab885"/>
      <ellipse id="Ellipse_614" data-name="Ellipse 614" cx="10.681" cy="8.908" rx="10.681" ry="8.908" transform="translate(108.579 126.933)" fill="#fff"/>
      <path id="Pfad_13329" data-name="Pfad 13329" d="M744.141,188.137a8.553,8.553,0,1,1-8.545-8.181A8.369,8.369,0,0,1,744.141,188.137Z" transform="translate(-616.31 -53.429)" fill="#8ea624"/>
      <path id="Pfad_13330" data-name="Pfad 13330" d="M742.4,187.431a7.546,7.546,0,1,1-7.536-7.218A7.384,7.384,0,0,1,742.4,187.431Z" transform="translate(-615.562 -52.727)" fill="#aaba34"/>
      <path id="Pfad_13331" data-name="Pfad 13331" d="M739.768,186.133a5.97,5.97,0,1,1-5.97-5.97A5.972,5.972,0,0,1,739.768,186.133Z" transform="translate(-614.157 -52.832)" fill="#1d1e1e"/>
      <path id="Pfad_13332" data-name="Pfad 13332" d="M733.731,182.057a1.9,1.9,0,1,1-2.717-1.154A2.114,2.114,0,0,1,733.731,182.057Z" transform="translate(-607.959 -51.267)" fill="#fff"/>
      <path id="Pfad_13333" data-name="Pfad 13333" d="M730.2,183.247a1.127,1.127,0,1,1-1.611-.686A1.252,1.252,0,0,1,730.2,183.247Z" transform="translate(-613.342 -46.653)" fill="#fff"/>
      <path id="Pfad_13334" data-name="Pfad 13334" d="M729.248,182.23a.748.748,0,1,1-.232-1.139A.827.827,0,0,1,729.248,182.23Z" transform="translate(-613.941 -50.441)" fill="#fff"/>
      <path id="Pfad_13335" data-name="Pfad 13335" d="M727.769,188.563c0,4.921-4.782,8.908-10.681,8.908s-10.681-3.988-10.681-8.908,4.782-8.908,10.681-8.908S727.769,183.646,727.769,188.563Z" transform="translate(-670.443 -54.242)" fill="#fff"/>
      <path id="Pfad_13336" data-name="Pfad 13336" d="M724.067,187.721a8.553,8.553,0,1,1-8.545-8.181A8.369,8.369,0,0,1,724.067,187.721Z" transform="translate(-668.917 -54.531)" fill="#8ea624"/>
      <path id="Pfad_13337" data-name="Pfad 13337" d="M722.326,187.015a7.548,7.548,0,1,1-7.54-7.218A7.384,7.384,0,0,1,722.326,187.015Z" transform="translate(-668.198 -53.829)" fill="#aaba34"/>
      <circle id="Ellipse_615" data-name="Ellipse 615" cx="5.971" cy="5.971" r="5.971" transform="translate(40.917 125.813)" fill="#1d1e1e"/>
      <path id="Pfad_13338" data-name="Pfad 13338" d="M713.657,181.642a1.9,1.9,0,1,1-2.717-1.154A2.109,2.109,0,0,1,713.657,181.642Z" transform="translate(-660.748 -52.372)" fill="#fff"/>
      <path id="Pfad_13339" data-name="Pfad 13339" d="M710.126,182.831a1.126,1.126,0,1,1-1.608-.686A1.247,1.247,0,0,1,710.126,182.831Z" transform="translate(-666.152 -47.757)" fill="#fff"/>
      <path id="Pfad_13340" data-name="Pfad 13340" d="M709.173,181.816a.748.748,0,1,1-.232-1.139A.828.828,0,0,1,709.173,181.816Z" transform="translate(-666.759 -51.546)" fill="#fff"/>
      <path id="Pfad_13341" data-name="Pfad 13341" d="M727.947,185.71s-6.779-.48-9.849,2.912a9.256,9.256,0,0,0-1.316,10.726c2.414,4.182,8.136,5.505,8.136,3.512s-3.238-.491-5.6-3.549a7.317,7.317,0,0,1,.667-9.53c2.312-2.155,6.352-1.866,7.522-2,1.675-.2,2.417-1.016,2.117-1.428A2.3,2.3,0,0,0,727.947,185.71Z" transform="translate(-646.175 -38.267)" fill="#c89369"/>
      <path id="Pfad_13342" data-name="Pfad 13342" d="M718.349,234.015a.907.907,0,0,0-.157-.851c-3.931-5.194-8.14-13.166-14.706-16.636-.4-.543-.791-1.094-1.233-1.627-1.03-1.237-3.433-.049-2.391,1.2.053.064.094.131.146.195a1.253,1.253,0,0,0,.2,1.345,44.174,44.174,0,0,1,3.223,3.751c6.36,11.779,4.377,25.762,3.763,38.526-.03.626,7.975,7.132,8.417,5.7,2.736-8.815.637-21.74,2.957-30.637A1.041,1.041,0,0,0,718.349,234.015Z" transform="translate(-687.838 36.45)" fill="#eab885"/>
      <path id="Pfad_13343" data-name="Pfad 13343" d="M726.412,186.642a14.683,14.683,0,0,1,10.355-4.332c6.754-.154,12.39,4.074,12.39,4.074s-2.323-3.913-5.236-5.134C731.059,175.856,726.412,186.642,726.412,186.642Z" transform="translate(-618.114 -53.903)" fill="#5f2e1c"/>
      <path id="Pfad_13344" data-name="Pfad 13344" d="M706.155,186.175a14.682,14.682,0,0,1,10.355-4.332c6.753-.154,12.393,4.074,12.393,4.074s-2.324-3.913-5.236-5.134C710.806,175.393,706.155,186.175,706.155,186.175Z" transform="translate(-671.113 -55.138)" fill="#5f2e1c"/>
      <path id="Pfad_13345" data-name="Pfad 13345" d="M876.49,278.6c-1.016.6-2.033,1.162-3.05,1.724-5.229,3.523-16.667,8.882-31.519,13.492-2.869.937-5.846,1.836-8.969,2.623-14.924,4.01-32.318,7.008-49.893,6.9-20.625-.112-37.619-3.71-51.454-8.994A181.3,181.3,0,0,1,696.89,279.5c.073-1.8.145-3.9.218-6.184.581-19.376.98-22.261,1.525-24.7,5.556-24.847,21.17-27.471,38.927-37.027.726-.375,1.489-.787,2.215-1.237,1.126-.637,2.288-1.312,3.413-2.024.944-.6,1.924-1.2,2.905-1.874a6.255,6.255,0,0,0,.29,5.809,13.117,13.117,0,0,0,1.017,1.612,24.942,24.942,0,0,0,5.483,5.4,55.836,55.836,0,0,0,20.589,9.107h.073a41.105,41.105,0,0,0,5.156.862,42.456,42.456,0,0,0,6.5.262c17.938-.75,30.357-6.034,36.566-11.281.4-.337.762-.675,1.126-.975a15.578,15.578,0,0,0,1.67-1.949c2.106-2.773,2.324-5.284.472-6.821a.788.788,0,0,0-.181-.15c1.452.787,2.542,2.473,3.849,3.448a33.281,33.281,0,0,0,3.377,2.249c.763.45,1.561.9,2.36,1.312,10.458,5.509,22.3,7.27,30.72,16.6C875.982,243.9,879.068,265.486,876.49,278.6Z" transform="translate(-695.297 14.689)" fill="#e0921a"/>
      <path id="Pfad_13346" data-name="Pfad 13346" d="M747.713,175.778c10.809,2.039,19,12.2,18.915,13.705s-8.695-8.518-21.04-9.118-14.931,2.144-17.138,3.2c-4.186,2-4.415-.967-3.845-2.9S732.527,172.911,747.713,175.778Z" transform="translate(-623.932 -66.549)" fill="#70431d"/>
      <path id="Pfad_13347" data-name="Pfad 13347" d="M721.8,175.45c-10.831,1.908-19.147,11.959-19.083,13.473s8.8-8.41,21.152-8.86,14.9,2.331,17.1,3.41c4.16,2.05,4.426-.911,3.879-2.852S737.027,172.775,721.8,175.45Z" transform="translate(-679.278 -67.16)" fill="#70431d"/>
      <path id="Pfad_13348" data-name="Pfad 13348" d="M800.047,211.292c-.208,11.7-20.508,23.063-44.935,23.063s-44.825-12.772-44.825-26.923l-2.21,1.053c0,14.875,21.355,28.021,47.035,28.021s45.574-10.632,47.251-23.985Z" transform="translate(-664.558 19.111)" fill="#fdad56"/>
      <path id="Pfad_13349" data-name="Pfad 13349" d="M827.763,222.8c2.125,2.29,1.083,23.243,1.083,23.243-69.1,19.3-101.3,5.835-123.468-1.372-2.162.2,0-12.442,0-12.442C755.129,269.187,821.745,232.831,827.763,222.8Z" transform="translate(-677.345 59.581)" fill="#d87900"/>
      <path id="Pfad_13350" data-name="Pfad 13350" d="M738.314,210.852s11.951,5.869,17.056,12.154c10.921,13.443,10.441,43.05,9.253,44.354-9.129,5.419-21.808,9.231-22.31,9.332s4.617-8.56,7.964-21.07C756.348,232.948,738.314,210.852,738.314,210.852Z" transform="translate(-587.265 26.757)" fill="#d87900"/>
      <path id="Pfad_13351" data-name="Pfad 13351" d="M720.284,251.775a91.292,91.292,0,0,1-22.381-8.62c6.236-1.079,9.542-3.564,11.419-5.711,3.073-3.512,9.485-14.309,11.34-18.023C720.684,219.377,720.725,219.29,720.284,251.775Z" transform="translate(-692.516 50.294)" fill="#d87900"/>
      <g id="Gruppe_744" data-name="Gruppe 744" transform="translate(12.049 117.372)">
        <path id="Pfad_13352" data-name="Pfad 13352" d="M745.751,177.96H713.858c-4.947,0-9.219,2.436-11.018,5.884-.112.225-.225.487-.337.712a8.2,8.2,0,0,0-.562,2.848v14.354a7.554,7.554,0,0,0,.412,2.436c1.349,4.085,6,7.083,11.505,7.083h31.893c6.559,0,11.918-4.272,11.918-9.519V187.479C757.668,182.232,752.309,177.96,745.751,177.96Zm8.058,23.048c0,3.935-4.2,7.2-9.332,7.2H715.132c-5.134,0-9.332-3.26-9.332-7.2V188.266c0-3.973,4.2-7.233,9.332-7.233h29.344c5.134,0,9.332,3.26,9.332,7.233Z" transform="translate(-693.47 -176.248)" fill="#58731e"/>
        <path id="Pfad_13353" data-name="Pfad 13353" d="M776.8,184.294a9.011,9.011,0,0,0-2.548-3.3c-.187-.187-.375-.337-.6-.525a13.079,13.079,0,0,0-4.31-2.024,15.63,15.63,0,0,0-3.785-.487H733.665c-6.558,0-11.955,4.272-11.955,9.519v14.279c0,4.572,4.085,8.395,9.481,9.332a17.438,17.438,0,0,0,2.474.187h32.005c6.521-.037,11.805-4.31,11.805-9.519V187.479A7.716,7.716,0,0,0,776.8,184.294Zm-3.26,16.715c0,3.635-3.635,6.708-8.245,7.121a5.68,5.68,0,0,1-1.125.075H734.752c-5.172,0-9.369-3.26-9.369-7.2V188.266c0-3.973,4.2-7.233,9.369-7.233h29.419a10.261,10.261,0,0,1,7.758,3.223,5.973,5.973,0,0,1,1.612,4.01Z" transform="translate(-644.937 -176.248)" fill="#58731e"/>
        <path id="Pfad_13354" data-name="Pfad 13354" d="M722.652,185.064h9.774a6.092,6.092,0,0,1,5.591,4.254,7.38,7.38,0,0,0,.221-1.765c0-3.706-2.713-6.738-6.026-6.738h-9.774c-3.313,0-6.026,3.032-6.026,6.738a7.39,7.39,0,0,0,.431,2.481A6.2,6.2,0,0,1,722.652,185.064Z" transform="translate(-656.557 -168.406)" fill="#58731e"/>
        <path id="Pfad_13355" data-name="Pfad 13355" d="M735.8,187.129l13.777-9.626v3.612L737.127,190.7Z" transform="translate(-606.228 -177.503)" fill="#58731e"/>
        <path id="Pfad_13356" data-name="Pfad 13356" d="M711.569,187.129,699.68,177.5v3.612l10.742,9.584Z" transform="translate(-699.68 -177.503)" fill="#58731e"/>
      </g>
      <path id="Pfad_13357" data-name="Pfad 13357" d="M857.65,174.016c-10.55-11.839-25.8-9.9-27.451-11.329-44.106-38.376-116.31-8.428-130.438,42.739-3.288,11.906-3.992,24.259-2.66,32.706,1.263,8.028,5.055-2.354,5.244,1.507,1.4,28.651,11.185,48.57,11.185,48.57s.276-25.735,4.878-32.354c.258-.371.512-.783.77-1.218,12.488,1.582,44.269,1.889,70.81-11.873,2.392-1.24,4.587-2.436,6.641-3.594a19.532,19.532,0,0,1-5.121,6.113,39.953,39.953,0,0,1-18.654,8.125s9.911,3.309,25.648-5.116c6.725-3.6,11.007-9.5,13.762-15.276v0c-2.689,13.548-10.4,18.038-10.4,18.038s13.189-3.354,22.16-19.147a25.1,25.1,0,0,0,2.834-7.75,63.217,63.217,0,0,1,13.842,17.382c2.482,4.524,7.309,17.955,8.939,22.876,1.549,4.681,4.914,19.9,4.914,19.9S895.673,216.687,857.65,174.016Z" transform="translate(-696.465 -145.287)" fill="#3d2012"/>
      <path id="Pfad_13358" data-name="Pfad 13358" d="M817.262,163.041s-18.308-23.88-65.664-14.046c-27.781,5.768-51.789,33.853-50.283,38.122,50.785-46.449,109.9-23.577,112.581-21.351-.27.825,4.317,9.313.607,19.645,0,0-4.613-12.307-5.419-10.531-2,4.411-11.667,10.085-16.355,11.835,6.322-14.6,14-15.8,14-15.8l-27.842,1.357c12.041-8.429,29.3-5.228,29.3-5.228s-6.69-3.808-20.163-4c-58.494-.855-67.072,36.918-68.38,43.323,14.1-17.389,27.976-23.506,33.516-24.465,10.433-1.8,2.417,2.56-3.624,10.389-8.226,10.662-8.856,18.825-8.856,18.825,11.314-13.945,27.879-14.964,30.086-10.55s-8.128,9.628-14.148,13.945,14-6.427,24.832-8.68c-12.341,33.71-67.769,38.777-67.769,38.777s2.087,2.961,22.512,2.406c40.692-1.1,58.8-25.533,58.8-25.533l-1.2,5.869c-1.207,5.869-6.772,14.9-6.772,14.9a42.827,42.827,0,0,0,19.334-28.52c3.025,6.622-.529,22.123-.529,22.123s5.1-6.7,11.356-25.158C824.783,188.222,817.262,163.041,817.262,163.041Z" transform="translate(-683.322 -141.628)" fill="#5f2e1c"/>
      <path id="Pfad_13359" data-name="Pfad 13359" d="M733.529,151s17.768,1.724,25.934,11.355,11.693,17.014,13.192,27.167c5.116,34.662-13.844,70.427-13.844,70.427s4.587-37.083,2.807-49.96c-3.751-27.186-19.585-37.923-19.585-37.923s-2.1,16.456-4.3,25.282-4.208,10.636-4.208,10.636,3.257-24.832,2.256-42.787A76.643,76.643,0,0,0,733.529,151Z" transform="translate(-600.413 -129.588)" fill="#5f2e1c"/>
      <g id="Gruppe_745" data-name="Gruppe 745" transform="translate(61.977 173.183)">
        <path id="Pfad_13360" data-name="Pfad 13360" d="M713.706,193.866c3.834,3.287,13.942,3.879,22.842,3.879s17.693-.592,23.172-4.977c-3.1,14.395-13.949,23.071-24.9,23.071S713.751,205.8,713.706,193.866Z" transform="translate(-713.706 -192.768)" fill="#6e0b17"/>
        <path id="Pfad_13361" data-name="Pfad 13361" d="M731.7,195.052a85.634,85.634,0,0,1-16.231-1.2c1.747,5.325,9.3,6.06,15.984,6.4,6.506.334,13.091-1.885,15.343-6.51A66.376,66.376,0,0,1,731.7,195.052Z" transform="translate(-708.859 -190.075)" fill="#fff"/>
        <path id="Pfad_13362" data-name="Pfad 13362" d="M727.049,203.13a22.283,22.283,0,0,0,10.613-2.773,9.5,9.5,0,0,0-10.426-1.9c-3.909-1.566-8.23-1.675-10.7,1.51A19.767,19.767,0,0,0,727.049,203.13Z" transform="translate(-705.938 -180.059)" fill="#e1354c"/>
      </g>
    </g>
  </g>
</svg>
