<svg xmlns="http://www.w3.org/2000/svg" width="148.89" height="149" viewBox="0 0 148.89 149">
  <g id="Gruppe_732" data-name="Gruppe 732" transform="translate(-891.85 -321.147)">
    <path id="Pfad_12653" data-name="Pfad 12653" d="M818.67,338.108a74.384,74.384,0,0,1-39.551,65.756c-.258.143-.517.287-.775.416a73.444,73.444,0,0,1-12.428,5.052l-.129.043a74.84,74.84,0,0,1-44.76-.517c-.014,0-.029,0-.029-.014a72.093,72.093,0,0,1-10.074-4.147c-.215-.1-.416-.2-.617-.3A74.449,74.449,0,1,1,818.67,338.108Z" transform="translate(222.07 57.478)" fill="#f1ece1"/>
    <g id="Gruppe_693" data-name="Gruppe 693" transform="translate(932.369 350.175)">
      <g id="Gruppe_691" data-name="Gruppe 691">
        <path id="Pfad_12876" data-name="Pfad 12876" d="M743.037,345.653c0,2.3-7.29,3.754-16.383,3.754s-16.462-1.867-16.462-4.17,7.371-4.17,16.462-4.17S743.037,343.35,743.037,345.653Z" transform="translate(-692.715 -259.023)" fill="#c67400"/>
        <path id="Pfad_12877" data-name="Pfad 12877" d="M701.034,319.023c.568,4.555-.707,12.7,4.835,13.864,3.451.725,6.491-3.335,6.624-7.689s-2.565-9.875-5.763-11.36C703.243,312.221,700.443,314.3,701.034,319.023Z" transform="translate(-696.734 -271.105)" fill="#e9b783"/>
        <path id="Pfad_12878" data-name="Pfad 12878" d="M704,312.735c-1.276.154-2.895,3.892-2.6,6.091.85,6.237-.768,13.01,4.775,14.177a3.958,3.958,0,0,0,2.516-.31C700.356,332.351,703.117,313.972,704,312.735Z" transform="translate(-696.554 -271.35)" fill="#f4d29a"/>
        <path id="Pfad_12879" data-name="Pfad 12879" d="M765.547,378.028c-1.736,1.234-5.927,3.186-11.481,4.937l-.129.043a77.87,77.87,0,0,1-23,3.688,55,55,0,0,1-21.756-4.2c-.014,0-.029,0-.029-.014a37.614,37.614,0,0,1-10.261-6.458s.933-7.907,1.062-10.333c.373-7.62,8.08-10.117,13.849-11.653.3-.072.6-.158.89-.23.23-.057.445-.115.66-.172.6-.158,1.148-.3,1.665-.445a13.1,13.1,0,0,0,2.181-.789,3.469,3.469,0,0,0,1.292-2.54,18.4,18.4,0,0,0,0-5.482v-.029c-.072-.545-.172-1.091-.287-1.622a16.564,16.564,0,0,0-.861-2.884c-2.612-6.314-.646-9.472,7.19-9.429l9.4-6.458.847-.588a11.192,11.192,0,0,1,4.033.66c4.449,1.65,5.539,6.271,5.511,11.653l-1.894,2.942c-.143.387-.258.789-.373,1.177a24.678,24.678,0,0,0-.789,3.372.926.926,0,0,0-.043.287,21.42,21.42,0,0,0-.115,6.731,4.45,4.45,0,0,0,.9,2.425,13.3,13.3,0,0,0,2.7,1.708c.172.072.344.158.517.23.617.3,1.277.574,1.966.847.273.1.56.215.847.33.8.287,1.636.588,2.469.89,1.162.431,2.339.875,3.487,1.392a18.97,18.97,0,0,1,5.611,3.573,12.73,12.73,0,0,1,3.616,6.487c.014,0,0,.014,0,.014a18.786,18.786,0,0,1,.459,3.9C765.719,373.967,765.547,378.028,765.547,378.028Z" transform="translate(-697.634 -266.724)" fill="#f4d29a"/>
        <path id="Pfad_12880" data-name="Pfad 12880" d="M758.186,365.033a10.461,10.461,0,0,0-.268-2.184c-.121-4.03-2.539-8.461-8.233-10.147-5.845-1.729-12.765-1.356-14.39-5.951s.167-12.1.167-12.1l-7.062,4.6s4.589,10.3.756,12.959c-1.609,1.115-3.751,3.167-13.642,1.412,5.6,5.683,18.6.221,18.711.637a12.933,12.933,0,0,1-.837,3.74,4.877,4.877,0,0,0-.819,2.5.252.252,0,0,0,.321.212c1.458-.491,2.467-2.016,3.26-3.108a18.96,18.96,0,0,0,2.008-3.5c6.524,2.533,13.615,4.013,15.358,9.075a34.848,34.848,0,0,1,1.451,5.524,11.365,11.365,0,0,1-.057,1.21,7.431,7.431,0,0,1-2.331,4.373c-.171.178.009,1.26.27,1.114,1.162-.65,4.8-2.163,4.994-2.916C757.858,372.426,758.308,366.146,758.186,365.033Z" transform="translate(-690.4 -261.817)" fill="#e9b783"/>
        <path id="Pfad_12881" data-name="Pfad 12881" d="M746.7,319.654c-2.559,5.818-1.881,13.557-7.518,14.1-3.51.342-6.083-4.028-5.736-8.371s2.854-9.625,6.2-10.749C743.284,313.414,748.453,315.667,746.7,319.654Z" transform="translate(-682.613 -270.667)" fill="#f4d29a"/>
        <path id="Pfad_12882" data-name="Pfad 12882" d="M746.351,317.47c-.276-.9-1.478-.989-2.28-1.177-1.23,3.9-1.015,8.631-4.051,11.672a7.562,7.562,0,0,1-3.833,2.025,11.666,11.666,0,0,1-1.49,1.368,3.871,3.871,0,0,0,3.448,1.353C744.109,331.475,742.175,325.1,746.351,317.47Z" transform="translate(-682.054 -269.802)" fill="#e9b783"/>
        <path id="Pfad_12883" data-name="Pfad 12883" d="M754.285,325.391a22.537,22.537,0,0,0,.228-3.2c0-13.391-11.75-24.246-26.245-24.246s-24.778,4.815-24.778,18.2c0,2.639-.113,15.493-.113,16.571,0,9.41,5.736,15.905,14,21.786a15.514,15.514,0,0,0,10.46,3.687,17,17,0,0,0,7.468-1.659c11.617-2.5,19.651-14.869,19.651-26.361C754.958,327.54,755.125,327.762,754.285,325.391Z" transform="translate(-695.681 -277.786)" fill="#f4d29a"/>
        <path id="Pfad_12884" data-name="Pfad 12884" d="M755.652,323.664c-.192-4.759-.474-9.516-1.069-14.239l-.026-.2c-10.274-13.3-32.868-2.852-38.156-.926.343,1.059,28.874-4.759,34.525,10.056.884,2.319,1.009,13.95-1.273,19.154-2.431,5.542-5.337,10.336-10.472,13.417-3.174,1.9-7.711,4.142-11.395,4.1-3.829-.046-8.53-2.313-11.624-4.575-11.722-8.567-12.655-17.382-12.655-17.382a19.423,19.423,0,0,0,1.672,6.306,31.379,31.379,0,0,0,7.881,9.922,30.974,30.974,0,0,0,6.92,4.954c.316,3.525-.24,9.116-4.927,8.562.768,4.614,13.906,6.192,13.028,5.943-11.682-3.322-5.977-10.466-5.868-13.692,5.757,2.758,12.929.66,18.425-2.252a25.132,25.132,0,0,0,12.151-13.727C754.431,334.268,755.858,328.75,755.652,323.664Z" transform="translate(-695.625 -275.769)" fill="#e9b783"/>
        <ellipse id="Ellipse_540" data-name="Ellipse 540" cx="3.929" cy="3.277" rx="3.929" ry="3.277" transform="translate(41.378 47.952)" fill="#fff"/>
        <path id="Pfad_12885" data-name="Pfad 12885" d="M733.682,320.209a3.147,3.147,0,1,1-3.144-3.009A3.078,3.078,0,0,1,733.682,320.209Z" transform="translate(-685.231 -269.407)" fill="#8da423"/>
        <path id="Pfad_12886" data-name="Pfad 12886" d="M733.2,320.1a2.776,2.776,0,1,1-2.774-2.655A2.717,2.717,0,0,1,733.2,320.1Z" transform="translate(-685.119 -269.299)" fill="#a8b933"/>
        <path id="Pfad_12887" data-name="Pfad 12887" d="M732.534,319.6a2.2,2.2,0,1,1-2.2-2.2A2.2,2.2,0,0,1,732.534,319.6Z" transform="translate(-684.906 -269.32)" fill="#1d1e1e"/>
        <path id="Pfad_12888" data-name="Pfad 12888" d="M731.673,318.428a.7.7,0,1,1-1-.425A.777.777,0,0,1,731.673,318.428Z" transform="translate(-683.948 -269.086)" fill="#fff"/>
        <path id="Pfad_12889" data-name="Pfad 12889" d="M729.152,319.891a.414.414,0,1,1-.593-.251A.46.46,0,0,1,729.152,319.891Z" transform="translate(-684.808 -268.363)" fill="#fff"/>
        <path id="Pfad_12890" data-name="Pfad 12890" d="M728.664,318.669a.275.275,0,1,1-.085-.418A.3.3,0,0,1,728.664,318.669Z" transform="translate(-684.906 -268.961)" fill="#fff"/>
        <path id="Pfad_12891" data-name="Pfad 12891" d="M715.422,320.189c0,1.81-1.759,3.276-3.929,3.276s-3.928-1.467-3.928-3.276,1.758-3.278,3.928-3.278S715.422,318.379,715.422,320.189Z" transform="translate(-693.859 -269.533)" fill="#fff"/>
        <path id="Pfad_12892" data-name="Pfad 12892" d="M714.4,319.81a3.146,3.146,0,1,1-3.143-3.009A3.078,3.078,0,0,1,714.4,319.81Z" transform="translate(-693.621 -269.58)" fill="#8da423"/>
        <path id="Pfad_12893" data-name="Pfad 12893" d="M713.917,319.7a2.776,2.776,0,1,1-2.774-2.656A2.716,2.716,0,0,1,713.917,319.7Z" transform="translate(-693.509 -269.474)" fill="#a8b933"/>
        <circle id="Ellipse_541" data-name="Ellipse 541" cx="2.196" cy="2.196" r="2.196" transform="translate(15.563 47.505)" fill="#1d1e1e"/>
        <path id="Pfad_12894" data-name="Pfad 12894" d="M712.39,318.028a.7.7,0,1,1-1-.425A.778.778,0,0,1,712.39,318.028Z" transform="translate(-692.338 -269.26)" fill="#fff"/>
        <path id="Pfad_12895" data-name="Pfad 12895" d="M709.869,319.491a.415.415,0,1,1-.593-.251A.46.46,0,0,1,709.869,319.491Z" transform="translate(-693.198 -268.537)" fill="#fff"/>
        <path id="Pfad_12896" data-name="Pfad 12896" d="M709.381,318.271a.275.275,0,1,1-.086-.419A.3.3,0,0,1,709.381,318.271Z" transform="translate(-693.296 -269.134)" fill="#fff"/>
        <path id="Pfad_12897" data-name="Pfad 12897" d="M720.961,322.714s-2.494-.177-3.624,1.071a3.406,3.406,0,0,0-.484,3.946c.887,1.538,2.992,2.025,2.992,1.29s-1.191-.179-2.061-1.3a2.693,2.693,0,0,1,.245-3.506,4.514,4.514,0,0,1,2.768-.738c.616-.073.888-.372.778-.524A.84.84,0,0,0,720.961,322.714Z" transform="translate(-690.001 -267.012)" fill="#c79369"/>
        <path id="Pfad_12898" data-name="Pfad 12898" d="M707.925,357.491a.333.333,0,0,0-.059-.313c-1.445-1.911-2.994-4.842-5.409-6.119-.148-.2-.291-.4-.455-.6-.377-.454-1.261-.017-.878.443.019.023.034.047.053.07a.462.462,0,0,0,.072.5,16.129,16.129,0,0,1,1.185,1.381c2.339,4.333,1.612,9.476,1.385,14.17-.011.231,2.933,2.623,3.1,2.1,1.006-3.24.232-7.995,1.088-11.268A.381.381,0,0,0,707.925,357.491Z" transform="translate(-696.702 -255.02)" fill="#e9b783"/>
        <path id="Pfad_12899" data-name="Pfad 12899" d="M726.781,319.531a5.4,5.4,0,0,1,3.809-1.593,8.217,8.217,0,0,1,4.559,1.5,5.243,5.243,0,0,0-1.926-1.887C728.491,315.564,726.781,319.531,726.781,319.531Z" transform="translate(-685.498 -269.498)" fill="#5f2e1c"/>
        <path id="Pfad_12900" data-name="Pfad 12900" d="M707.323,319.084a5.4,5.4,0,0,1,3.809-1.594,8.218,8.218,0,0,1,4.558,1.5,5.229,5.229,0,0,0-1.926-1.889C709.032,315.116,707.323,319.084,707.323,319.084Z" transform="translate(-693.964 -269.692)" fill="#5f2e1c"/>
        <path id="Pfad_12901" data-name="Pfad 12901" d="M766.766,369.5c-.258.144-.517.287-.775.416a73.439,73.439,0,0,1-12.428,5.052l-.129.043a74.84,74.84,0,0,1-44.76-.517c-.014,0-.029,0-.029-.014a72.1,72.1,0,0,1-10.074-4.147,27.421,27.421,0,0,1,.631-12.155c.818-2.87,1.435-4.607,2.985-6.487,2.885-3.5,7.147-4.721,11.782-7.132.287-.158.574-.3.847-.474.43-.215.861-.474,1.292-.732.029-.014.043-.014.057-.043.33-.187.674-.4,1-.617.014-.014.029-.014.043-.029a2.239,2.239,0,0,0,.115,2.138,3.556,3.556,0,0,0,.387.6,9.53,9.53,0,0,0,2.081,1.966.014.014,0,0,0,.014.014,21.429,21.429,0,0,0,7.807,3.344c.014,0,.014.014.029,0a17.711,17.711,0,0,0,1.88.316h.014a16.746,16.746,0,0,0,2.526.1c6.8-.287,11.524-2.21,13.877-4.147a5.362,5.362,0,0,0,.416-.359,7.293,7.293,0,0,0,.66-.7c.7-.9.832-1.736.359-2.311.143.115.3.244.473.4q.323.28.732.6a12.933,12.933,0,0,0,1.277.89,8.619,8.619,0,0,0,.875.545c2.741,1.536,5.238,1.966,8.8,4.047.057.029.258.143.531.316.23.144.531.316.847.531.718.488,1.406,1,1.507,1.076a12.1,12.1,0,0,1,2.985,4.678C767.039,361.129,766.853,367.86,766.766,369.5Z" transform="translate(-697.946 -258.329)" fill="#e09219"/>
        <path id="Pfad_12902" data-name="Pfad 12902" d="M733.226,313.594c4.023.435,7.32,3.919,7.335,4.476s-3.437-2.87-7.98-2.732-5.413,1.221-6.192,1.672c-1.477.854-1.646-.225-1.494-.952S727.574,312.986,733.226,313.594Z" transform="translate(-686.338 -271.019)" fill="#6f441d"/>
        <path id="Pfad_12903" data-name="Pfad 12903" d="M711.242,313.36c-4.022.435-7.32,3.919-7.335,4.476s3.437-2.87,7.981-2.732,5.412,1.221,6.191,1.672c1.477.854,1.648-.225,1.494-.952S716.895,312.752,711.242,313.36Z" transform="translate(-695.451 -271.121)" fill="#6f441d"/>
        <path id="Pfad_12904" data-name="Pfad 12904" d="M745.075,345.013c-.08,4.305-8,8.484-17.543,8.484s-17.5-4.7-17.5-9.9l-.862.387c0,5.472,8.338,10.307,18.363,10.307s17.794-3.911,18.448-8.821Z" transform="translate(-693.161 -257.923)" fill="#fcab55"/>
        <path id="Pfad_12905" data-name="Pfad 12905" d="M738.215,346.879s4.4,2.158,6.274,4.47c4.017,4.945,3.84,15.836,3.4,16.317a41.3,41.3,0,0,1-8.207,3.431,58.881,58.881,0,0,0,2.93-7.749C744.848,355.007,738.215,346.879,738.215,346.879Z" transform="translate(-680.523 -256.494)" fill="#d67800"/>
        <g id="Gruppe_690" data-name="Gruppe 690" transform="translate(4.432 44.412)">
          <path id="Pfad_12906" data-name="Pfad 12906" d="M719.9,315.3c-.158,0-.33-.014-.5-.014H707.658a1.933,1.933,0,0,0-.287.014,4.837,4.837,0,0,0-2.784.99c-.014,0-.014,0-.029.014a3.441,3.441,0,0,0-.961,1.134,1.56,1.56,0,0,0-.115.273,2.566,2.566,0,0,0-.215,1.033v5.3a2.8,2.8,0,0,0,.158.918,4.383,4.383,0,0,0,4.233,2.583H719.4c2.411,0,4.377-1.579,4.377-3.5v-5.267C723.774,316.979,722.081,315.516,719.9,315.3Zm2.454,8.453c0,1.464-1.55,2.655-3.43,2.655H708.132c-1.894,0-3.444-1.191-3.444-2.655V319.06c0-1.449,1.55-2.641,3.444-2.641h10.792c1.88,0,3.43,1.191,3.43,2.641Z" transform="translate(-700.161 -314.651)" fill="#59721e"/>
          <path id="Pfad_12907" data-name="Pfad 12907" d="M742.516,317.611a3.555,3.555,0,0,0-.918-1.22,4.744,4.744,0,0,0-1.32-.761,5.11,5.11,0,0,0-1.894-.344H726.659a4.712,4.712,0,0,0-.646.043c-2.11.244-3.745,1.693-3.745,3.444v5.267c0,1.679,1.507,3.085,3.487,3.43a6.076,6.076,0,0,0,.9.072h11.768c2.4-.014,4.348-1.593,4.348-3.5v-5.267A2.7,2.7,0,0,0,742.516,317.611Zm-1.191,6.142c0,1.349-1.32,2.468-3.028,2.626a1.959,1.959,0,0,1-.416.029H727.06c-1.894,0-3.444-1.191-3.444-2.655V319.06a2.9,2.9,0,0,1,2.712-2.569,3.018,3.018,0,0,1,.732-.072h10.821a3.824,3.824,0,0,1,2.856,1.162,2.214,2.214,0,0,1,.588,1.478Z" transform="translate(-691.894 -314.651)" fill="#59721e"/>
          <path id="Pfad_12908" data-name="Pfad 12908" d="M719.471,319.587h3.595a2.243,2.243,0,0,1,2.058,1.566,2.759,2.759,0,0,0,.08-.65,2.365,2.365,0,0,0-2.217-2.478h-3.595a2.365,2.365,0,0,0-2.216,2.478,2.734,2.734,0,0,0,.158.914A2.283,2.283,0,0,1,719.471,319.587Z" transform="translate(-694.109 -313.46)" fill="#59721e"/>
          <path id="Pfad_12909" data-name="Pfad 12909" d="M735.8,318.384l5.068-3.541v1.329l-4.579,3.525Z" transform="translate(-686.007 -314.844)" fill="#59721e"/>
          <path id="Pfad_12910" data-name="Pfad 12910" d="M705.475,318.384l-4.373-3.541v1.329l3.951,3.525Z" transform="translate(-701.102 -314.844)" fill="#59721e"/>
        </g>
        <path id="Pfad_12911" data-name="Pfad 12911" d="M759.24,294.465c-4.008-4.355-9.8-3.642-10.427-4.167-16.753-14.117-44.181-3.1-49.546,15.72a29.7,29.7,0,0,0-1.012,12.032c.479,2.952,1.922-.867,1.993.552A48.575,48.575,0,0,0,704.5,336.47s.1-9.467,1.853-11.9c.1-.136.2-.287.293-.448,4.744.581,16.815.695,26.9-4.367.908-.456,1.744-.9,2.524-1.322a7.277,7.277,0,0,1-1.946,2.247,15.453,15.453,0,0,1-7.087,2.989s3.764,1.218,9.743-1.881a12.2,12.2,0,0,0,5.227-5.62v0c-1.022,4.983-3.952,6.634-3.952,6.634a15,15,0,0,0,8.418-7.043,9.033,9.033,0,0,0,1.076-2.85A23.408,23.408,0,0,1,752.8,319.3a77.373,77.373,0,0,1,3.4,8.414c.588,1.722,1.867,7.322,1.867,7.322S773.684,310.161,759.24,294.465Z" transform="translate(-698.014 -283.897)" fill="#3c2012"/>
        <path id="Pfad_12912" data-name="Pfad 12912" d="M745.283,291.216s-6.733-8.783-24.154-5.166c-10.219,2.121-19.049,12.452-18.5,14.024,18.681-17.086,40.425-8.672,41.412-7.854-.1.3,1.589,3.426.222,7.227,0,0-1.7-4.528-1.993-3.875-.738,1.623-4.291,3.71-6.014,4.354,2.325-5.37,5.148-5.812,5.148-5.812l-10.241.5c4.429-3.1,10.776-1.922,10.776-1.922s-2.461-1.4-7.417-1.474c-21.516-.313-24.672,13.582-25.153,15.937,5.186-6.4,10.291-8.646,12.327-9,3.837-.664.89.94-1.332,3.82-3.027,3.922-3.258,6.924-3.258,6.924,4.162-5.13,10.254-5.5,11.066-3.88s-2.989,3.542-5.2,5.129,5.149-2.364,9.134-3.192c-4.539,12.4-24.929,14.263-24.929,14.263s.768,1.089,8.282.885c14.968-.406,21.628-9.391,21.628-9.391l-.442,2.158a23.019,23.019,0,0,1-2.491,5.481,15.753,15.753,0,0,0,7.114-10.491c1.112,2.435-.2,8.137-.2,8.137s1.877-2.463,4.176-9.253C748.051,300.48,745.283,291.216,745.283,291.216Z" transform="translate(-696.015 -283.34)" fill="#5f2e1c"/>
        <path id="Pfad_12913" data-name="Pfad 12913" d="M733.618,289.385s6.535.634,9.539,4.177,4.3,6.258,4.853,9.994c1.883,12.751-5.092,25.9-5.092,25.9s1.686-13.641,1.033-18.376c-1.38-10-7.205-13.951-7.205-13.951s-.771,6.053-1.58,9.3-1.548,3.912-1.548,3.912a104.642,104.642,0,0,0,.831-15.74A28.219,28.219,0,0,0,733.618,289.385Z" transform="translate(-682.523 -281.509)" fill="#5f2e1c"/>
      </g>
      <g id="Gruppe_692" data-name="Gruppe 692" transform="translate(22.68 67.699)">
        <path id="Pfad_12914" data-name="Pfad 12914" d="M726.172,337.879a4.116,4.116,0,0,0-4.569-.838c-1.594-.641-3.352-.723-4.47.41-2.285-1.627-3.71-2.821-3.218-4.005.2-.476.736-2.011,1.574-2.174a.122.122,0,0,0,.066-.017,18.662,18.662,0,0,1,3.337-.181h.1c.97.017,2.071.033,3.3.083a44.312,44.312,0,0,1,5.785.362.48.48,0,0,1,.149.016c1.068.181,1.679,1.715,1.877,2.257C730.565,335.04,728.819,336.351,726.172,337.879Z" transform="translate(-713.818 -331.071)" fill="#6e0b17"/>
        <path id="Pfad_12915" data-name="Pfad 12915" d="M727.551,331.519a8.317,8.317,0,0,1-5.9,1.758c-2.58-.148-5.423-.395-6.623-2.022a18.662,18.662,0,0,1,3.337-.181h.1c.97.017,2.071.033,3.3.083A44.309,44.309,0,0,1,727.551,331.519Z" transform="translate(-713.292 -331.071)" fill="#fff"/>
        <path id="Pfad_12916" data-name="Pfad 12916" d="M725.167,336.215a.426.426,0,0,0-.116.065,8.45,8.45,0,0,1-4.536,1.151,8.622,8.622,0,0,1-4.387-1.643c1.116-1.134,2.876-1.052,4.47-.41A4.117,4.117,0,0,1,725.167,336.215Z" transform="translate(-712.814 -329.4)" fill="#e1354c"/>
      </g>
    </g>
  </g>
</svg>
