<svg xmlns="http://www.w3.org/2000/svg" viewBox="0 0 122 122"><defs><style>.a{fill:#afca0b;stroke:#afca0b;stroke-miterlimit:10;}</style></defs><path class="a" d="M75.86,35.2h-.38a17.43,17.43,0,0,0-10.08-7V26.64a4.76,4.76,0,0,0-9.52,0v1.52a17.28,17.28,0,0,0-10.08,7h-.38A3.83,3.83,0,0,0,41.61,39V43.1a5.11,5.11,0,0,0,1.9,3.66V94.43c0,4.57,7.53,8.14,17.13,8.14S77.76,99,77.76,94.43V46.76a5.09,5.09,0,0,0,1.91-3.66V39A3.83,3.83,0,0,0,75.86,35.2ZM47.38,36.26a15.36,15.36,0,0,1,9-6.26l1.41-.38v-3a2.86,2.86,0,0,1,5.71,0v3l1.42.38a15.59,15.59,0,0,1,9,6.25l.56.86,0,.07C71.05,38.92,66,40,60.64,40a32.22,32.22,0,0,1-13.87-2.79l0-.06Zm28.48,23c0,3-6.25,6.24-15.22,6.24a1,1,0,0,0,0,1.9c6.71,0,12.4-1.75,15.22-4.36v5.73c0,1.82-2.3,3.7-6,4.9a1,1,0,0,0,.51,1.84l.08,0a14.56,14.56,0,0,0,5.41-2.9v5.71c0,2.95-6.25,6.24-15.22,6.24a1,1,0,0,0,0,1.9c6.71,0,12.4-1.75,15.22-4.36V94.43c0,2.95-6.25,6.24-15.22,6.24s-15.22-3.29-15.22-6.24V48.15c3.47,2.07,9,3.42,15.22,3.42s11.74-1.35,15.22-3.42Zm1.9-16.13c0,2.74-6.51,6.56-17.12,6.56S43.51,45.84,43.51,43.1V39A1.92,1.92,0,0,1,44,37.73c3.68,2.59,9.84,4.13,16.62,4.13s13-1.57,16.62-4.13a1.91,1.91,0,0,1,.5,1.28Z"/></svg>