<svg xmlns="http://www.w3.org/2000/svg" viewBox="0 0 122 122"><defs><style>.a{fill:orange;stroke:orange;stroke-width:0.55px;}</style></defs><path class="a" d="M101.82,43.93l-.14-.12-7.2-2.4L92,33.87,84.37,31.3,82,24l-.15-.15a2.67,2.67,0,0,0-2.37-.74,2.73,2.73,0,0,0-2,1.56L69.71,43.12a11.69,11.69,0,0,0-9.18,3.33L45.46,61.51a11.74,11.74,0,0,0-3.31,9.31l-18.37,7.6A2.66,2.66,0,0,0,23,82.83l.14.13,7.29,2.4,2.48,7.53,7.54,2.49,2.4,7.31.15.15a2.72,2.72,0,0,0,4.38-.82L55,83.58a11.46,11.46,0,0,0,1.17.06,11,11,0,0,0,8-3.41L79.24,65.16a11.57,11.57,0,0,0,3.31-9.37l18.35-7.62a2.44,2.44,0,0,0,1.7-1.8A2.5,2.5,0,0,0,101.82,43.93Zm-56.1,57.38a.93.93,0,0,1-1.23.46l-.12-.07L41.82,94l-7.53-2.48L31.8,84,24.06,81.4a.87.87,0,0,1,.21-1.23,1,1,0,0,1,.17-.1l18-7.46a12,12,0,0,0,1.42,3.23l-5,3a.89.89,0,0,0-.31,1.22.88.88,0,0,0,1.22.3h0L45,77.25c.16.17.31.34.48.5l2.49,2.49.35.33L45.14,86a.89.89,0,0,0,1.54.88l3-5.2a11.58,11.58,0,0,0,3.49,1.58ZM78,63.91,62.91,79a9.35,9.35,0,0,1-8.35,2.75A9.84,9.84,0,0,1,49.19,79l-2.5-2.5A9.47,9.47,0,0,1,44,71.15a9.93,9.93,0,0,1,2.76-8.38L61.78,47.7a10,10,0,0,1,8.36-2.77,9.66,9.66,0,0,1,5.45,2.77l2.49,2.48a9.34,9.34,0,0,1,2.67,5.34A9.88,9.88,0,0,1,78,63.91Zm22.37-17.43L82.25,54a10.84,10.84,0,0,0-1.51-3.34l5.14-3A.89.89,0,1,0,85,46.14h0l-5.37,3.1-.3-.32-2.48-2.48-.37-.35,3.1-5.32A.89.89,0,0,0,78,39.89l-3,5.1a11.43,11.43,0,0,0-3.55-1.58l7.55-18a.9.9,0,0,1,.68-.53.87.87,0,0,1,.67.14L83,32.7l7.62,2.57,2.48,7.53,7.66,2.56a.69.69,0,0,1,.15.6A.71.71,0,0,1,100.36,46.48Z"/></svg>