<svg xmlns="http://www.w3.org/2000/svg" viewBox="0 0 122 122"><defs><style>.a{fill:orange;stroke:orange;stroke-width:0.49px;}</style></defs><path class="a" d="M96.39,77.88,92,76.32V69l3.53-1.49a.82.82,0,0,0-.18-1.56l-5.81-1v-7.2L96.43,55a.83.83,0,0,0,.45-1.06.85.85,0,0,0-.49-.46L92,51.92V44.58l3.53-1.49A.81.81,0,0,0,96,42a.79.79,0,0,0-.46-.45L68.2,31.49a.86.86,0,0,0-.55,0L30.81,44.34a.65.65,0,0,0-.22.11c-.1.08-2.57,2-2.57,7.73a16.07,16.07,0,0,0,.45,3.91c-1,.81-2.89,3-2.89,7.48a14.77,14.77,0,0,0,2.94,8.94,15.13,15.13,0,0,0-.5,4.07c0,5.73,2.52,8.06,2.62,8.15a.64.64,0,0,0,.25.15l26,10.24a.8.8,0,0,0,.3.06.81.81,0,0,0,.31-.06L96.43,79.4a.83.83,0,0,0,.45-1.06A.85.85,0,0,0,96.39,77.88ZM87.92,65.11,57.18,77.36,31.43,67.22V60.71l25.49,10a.78.78,0,0,0,.6,0L87.91,58.44ZM57.21,93.49,31.65,83.43c-.4-.44-2-2.5-2-6.85a13.29,13.29,0,0,1,.54-4,.79.79,0,0,0-.17-.79,13,13,0,0,1-2.81-8.21c0-4.84,2.5-6.4,2.6-6.47a.79.79,0,0,0,.37-.93,13.81,13.81,0,0,1-.53-4c0-4.32,1.51-6,1.85-6.36l36.41-12.7L93,42.38s0,0,0,0L57.21,56.89,33.36,47.5A.82.82,0,0,0,32.3,48a.73.73,0,0,0-.06.3v8.13a.84.84,0,0,0,.52.76l24.16,9.51a.88.88,0,0,0,.6,0L90.81,53.2l3,1.09s0,0,0,0L57.21,69.09,30.92,58.76a.81.81,0,0,0-1.06.46.72.72,0,0,0-.06.29v8.27a.81.81,0,0,0,.52.75L56.88,79a.78.78,0,0,0,.6,0L88.82,66.51l3.46.56s0,0,0,0L57.21,81.29,33.36,71.9a.82.82,0,0,0-1.06.46.77.77,0,0,0-.06.3v8.13a.84.84,0,0,0,.52.76l24.16,9.51a.78.78,0,0,0,.6,0L90.81,77.61l3,1.08s0,0,0,0ZM90.37,51.63,57.21,65,33.87,55.83V49.45l23.05,9.07a.78.78,0,0,0,.6,0L90.37,45.25Zm0,24.4L57.21,89.42,33.87,80.23V73.85l23.05,9.07a.78.78,0,0,0,.6,0L90.37,69.65Z"/></svg>