<svg xmlns="http://www.w3.org/2000/svg" width="112.319" height="121.979" viewBox="0 0 112.319 121.979">
  <g id="Icons" transform="translate(-7 -3)">
    <path id="Pfad_22348" data-name="Pfad 22348" d="M75.5,89.127c1.462-2.98,4.909-9.653,8.067-13.1a32.455,32.455,0,0,0,5.985-9.807,36.442,36.442,0,0,0,2.4-11.936V53.1A34.475,34.475,0,1,0,23,53.1v1.186a36.44,36.44,0,0,0,2.4,11.932,32.455,32.455,0,0,0,5.985,9.807c3.158,3.435,6.605,10.124,8.067,13.1a2.637,2.637,0,0,0,2.359,1.462H73.14A2.637,2.637,0,0,0,75.5,89.127Zm-2.442-1.3H41.892c-1.779-3.618-5.206-10.122-8.441-13.64a29.589,29.589,0,0,1-5.473-8.963,33.647,33.647,0,0,1-2.22-10.988V53.148A31.717,31.717,0,1,1,89.191,53.1V54.24a33.607,33.607,0,0,1-2.206,10.978,29.538,29.538,0,0,1-5.447,8.941C78.25,77.75,74.826,84.24,73.057,87.83Z" transform="translate(5.685 5.541)" fill="#8b8980" stroke="#8b8980" stroke-width="2"/>
    <path id="Pfad_22349" data-name="Pfad 22349" d="M69.1,78.246a1.379,1.379,0,0,0-1.379-1.379H37.379a1.379,1.379,0,0,0,0,2.758H67.717A1.379,1.379,0,0,0,69.1,78.246Z" transform="translate(10.612 27.615)" fill="#8b8980" stroke="#8b8980" stroke-width="2"/>
    <path id="Pfad_22350" data-name="Pfad 22350" d="M43.6,84.583a1.379,1.379,0,0,0-1.384,1.374c0,.039,0,.079,0,.118a7.99,7.99,0,0,0,15.93,0,1.379,1.379,0,0,0-1.264-1.485q-.057,0-.115,0Zm6.6,6.091a5.284,5.284,0,0,1-4.875-3.333h9.737A5.272,5.272,0,0,1,50.2,90.674Z" transform="translate(12.968 30.54)" fill="#8b8980" stroke="#8b8980" stroke-width="2"/>
    <path id="Pfad_22351" data-name="Pfad 22351" d="M47,5.379V17.79a1.379,1.379,0,1,0,2.758,0V5.379a1.379,1.379,0,1,0-2.758,0Z" transform="translate(14.78)" fill="#8b8980" stroke="#8b8980" stroke-width="2"/>
    <path id="Pfad_22352" data-name="Pfad 22352" d="M23.169,44.379A1.379,1.379,0,0,0,21.79,43H9.379a1.379,1.379,0,0,0,0,2.758H21.79A1.379,1.379,0,0,0,23.169,44.379Z" transform="translate(0 14.78)" fill="#8b8980" stroke="#8b8980" stroke-width="2"/>
    <path id="Pfad_22353" data-name="Pfad 22353" d="M77,44.379a1.379,1.379,0,0,0,1.379,1.379H90.79a1.379,1.379,0,0,0,0-2.758H78.379A1.379,1.379,0,0,0,77,44.379Z" transform="translate(26.15 14.78)" fill="#8b8980" stroke="#8b8980" stroke-width="2"/>
    <path id="Pfad_22354" data-name="Pfad 22354" d="M19.827,15.827a1.379,1.379,0,0,0,0,1.95L28.6,26.553a1.379,1.379,0,0,0,1.95-1.95l-8.776-8.776A1.379,1.379,0,0,0,19.827,15.827Z" transform="translate(4.329 4.329)" fill="#8b8980" stroke="#8b8980" stroke-width="2"/>
    <path id="Pfad_22355" data-name="Pfad 22355" d="M77.4,75.347a1.379,1.379,0,0,0,1.95-1.95l-8.776-8.776a1.379,1.379,0,1,0-1.984,1.916l.034.034Z" transform="translate(22.815 22.815)" fill="#8b8980" stroke="#8b8980" stroke-width="2"/>
    <path id="Pfad_22356" data-name="Pfad 22356" d="M79.347,15.827a1.379,1.379,0,0,0-1.95,0L68.622,24.6a1.379,1.379,0,0,0,1.916,1.984l.034-.034,8.776-8.776A1.379,1.379,0,0,0,79.347,15.827Z" transform="translate(22.815 4.329)" fill="#8b8980" stroke="#8b8980" stroke-width="2"/>
    <path id="Pfad_22357" data-name="Pfad 22357" d="M20.8,75.751a1.379,1.379,0,0,0,.975-.4l8.776-8.776a1.379,1.379,0,1,0-1.916-1.984l-.034.034L19.827,73.4a1.379,1.379,0,0,0,.975,2.354Z" transform="translate(4.329 22.815)" fill="#8b8980" stroke="#8b8980" stroke-width="2"/>
  </g>
</svg>
