<svg xmlns="http://www.w3.org/2000/svg" width="149.647" height="127.297" viewBox="0 0 149.647 127.297">
  <g id="image62" transform="translate(-7.676 -13.676)">
    <path id="Pfad_22338" data-name="Pfad 22338" d="M38.674,69.039A14.417,14.417,0,1,0,24.262,54.616v.006a14.414,14.414,0,0,0,14.41,14.417Zm0-25.108a10.692,10.692,0,1,1-10.687,10.7v-.007A10.7,10.7,0,0,1,38.674,43.931Z" transform="translate(14.026 22.6)" fill="orange" stroke="orange" stroke-width="0.649"/>
    <path id="Pfad_22339" data-name="Pfad 22339" d="M72.124,65.9A39.568,39.568,0,0,0,57.859,58.92,41.445,41.445,0,0,0,45.8,57.1a45.706,45.706,0,0,0-12.035,1.818,46.453,46.453,0,0,0-14.272,6.973A9.156,9.156,0,0,0,16,72.931V86.713H75.6V72.931A9.145,9.145,0,0,0,72.124,65.9Zm-.25,17.088H19.725V72.931a5.367,5.367,0,0,1,2.026-4.083A43.272,43.272,0,0,1,34.764,62.5,42.064,42.064,0,0,1,45.8,60.825,37.822,37.822,0,0,1,56.812,62.5a35.975,35.975,0,0,1,12.967,6.3,5.4,5.4,0,0,1,2.1,4.131Z" transform="translate(6.9 37.173)" fill="orange" stroke="orange" stroke-width="0.649"/>
    <rect id="Rechteck_8214" data-name="Rechteck 8214" width="45" height="3" transform="translate(97.215 75.648)" fill="orange" stroke="orange" stroke-width="0.649"/>
    <rect id="Rechteck_8215" data-name="Rechteck 8215" width="45" height="4" transform="translate(97.215 90.648)" fill="orange" stroke="orange" stroke-width="0.649"/>
    <rect id="Rechteck_8216" data-name="Rechteck 8216" width="45" height="4" transform="translate(97.215 104.648)" fill="orange" stroke="orange" stroke-width="0.649"/>
    <rect id="Rechteck_8217" data-name="Rechteck 8217" width="45" height="3" transform="translate(97.215 120.648)" fill="orange" stroke="orange" stroke-width="0.649"/>
    <path id="Pfad_22340" data-name="Pfad 22340" d="M149.548,36.35H95.536V21.45A7.45,7.45,0,0,0,88.087,14H76.912a7.45,7.45,0,0,0-7.45,7.45v14.9H15.45A7.45,7.45,0,0,0,8,43.8v89.4a7.45,7.45,0,0,0,7.45,7.45h134.1A7.45,7.45,0,0,0,157,133.2V43.8A7.45,7.45,0,0,0,149.548,36.35ZM73.187,21.45a3.725,3.725,0,0,1,3.725-3.725H88.087a3.725,3.725,0,0,1,3.725,3.725V41.937a3.725,3.725,0,0,1-3.725,3.725H76.912a3.725,3.725,0,0,1-3.725-3.725ZM153.273,133.2a3.725,3.725,0,0,1-3.725,3.725H15.45a3.725,3.725,0,0,1-3.725-3.725V43.8a3.725,3.725,0,0,1,3.725-3.725H69.462v1.862a7.45,7.45,0,0,0,7.45,7.45H88.087a7.45,7.45,0,0,0,7.45-7.45V40.075h54.012a3.725,3.725,0,0,1,3.725,3.725Z" transform="translate(0 0)" fill="orange" stroke="orange" stroke-width="0.649"/>
  </g>
</svg>
