<svg xmlns="http://www.w3.org/2000/svg" width="95.295" height="126.982" viewBox="0 0 95.295 126.982">
  <g id="Icons" transform="translate(-17.833 -7.812)">
    <path id="Pfad_22342" data-name="Pfad 22342" d="M50.04,24.079A5.539,5.539,0,1,0,50.04,13h-.158A5.479,5.479,0,0,0,44.5,18.539,5.549,5.549,0,0,0,50.04,24.079Zm-1.728-7.217a2.3,2.3,0,0,1,1.624-.7h.1a2.374,2.374,0,1,1-2.374,2.374c0-.008,0-.016,0-.024a2.3,2.3,0,0,1,.644-1.649Z" transform="translate(15.441 2.926)" fill="#8b8980" stroke="#8b8980" stroke-width="0.333"/>
    <path id="Pfad_22343" data-name="Pfad 22343" d="M49.274,35.529l-2.238-2.238L35.494,44.832l-5.212-5.21L28.044,41.86l7.45,7.45Z" transform="translate(5.853 14.749)" fill="#8b8980" stroke="#8b8980" stroke-width="0.333"/>
    <rect id="Rechteck_8218" data-name="Rechteck 8218" width="33.236" height="3.165" transform="translate(63.9 53.907)" fill="#8b8980" stroke="#8b8980" stroke-width="0.333"/>
    <path id="Pfad_22344" data-name="Pfad 22344" d="M49.274,47.531l-2.238-2.238L35.494,56.836l-5.212-5.212-2.238,2.238,7.45,7.45Z" transform="translate(5.853 21.742)" fill="#8b8980" stroke="#8b8980" stroke-width="0.333"/>
    <rect id="Rechteck_8219" data-name="Rechteck 8219" width="33.236" height="3.165" transform="translate(63.9 72.903)" fill="#8b8980" stroke="#8b8980" stroke-width="0.333"/>
    <path id="Pfad_22345" data-name="Pfad 22345" d="M49.274,59.531l-2.238-2.238L35.494,68.836l-5.212-5.212-2.238,2.238,7.45,7.45Z" transform="translate(5.853 28.735)" fill="#8b8980" stroke="#8b8980" stroke-width="0.333"/>
    <rect id="Rechteck_8220" data-name="Rechteck 8220" width="33.236" height="3.165" transform="translate(63.9 91.895)" fill="#8b8980" stroke="#8b8980" stroke-width="0.333"/>
    <path id="Pfad_22346" data-name="Pfad 22346" d="M49.274,71.531l-2.238-2.238L35.494,80.836l-5.212-5.212-2.238,2.238,7.45,7.45Z" transform="translate(5.853 35.727)" fill="#8b8980" stroke="#8b8980" stroke-width="0.333"/>
    <rect id="Rechteck_8221" data-name="Rechteck 8221" width="33.236" height="3.165" transform="translate(63.9 110.887)" fill="#8b8980" stroke="#8b8980" stroke-width="0.333"/>
    <path id="Pfad_22347" data-name="Pfad 22347" d="M112.961,25.389a6.331,6.331,0,0,0-6.331-6.331H82.89V15.892a7.923,7.923,0,0,0-7.913-7.913H55.985a7.923,7.923,0,0,0-7.913,7.913v3.165H24.331A6.331,6.331,0,0,0,18,25.389V128.3a6.331,6.331,0,0,0,6.331,6.331h82.3a6.331,6.331,0,0,0,6.331-6.331ZM44.906,22.223h6.331V15.892a4.748,4.748,0,0,1,4.748-4.748H74.977a4.748,4.748,0,0,1,4.748,4.748v6.331h6.331V34.918H44.906Zm61.725,109.239h-82.3a3.165,3.165,0,0,1-3.165-3.165V25.389a3.165,3.165,0,0,1,3.165-3.165H41.74v15.86H89.221V22.223h17.41a3.165,3.165,0,0,1,3.165,3.165V128.3A3.165,3.165,0,0,1,106.631,131.462Z" transform="translate(0 0)" fill="#8b8980" stroke="#8b8980" stroke-width="0.333"/>
  </g>
</svg>
