<svg xmlns="http://www.w3.org/2000/svg" viewBox="0 0 122 122"><defs><style>.a{fill:orange;stroke:orange;stroke-width:0.52px;}</style></defs><path class="a" d="M103.55,69.63V30.1H28.94V25.32a9.22,9.22,0,0,0-9.21-9.21h-.12a1.17,1.17,0,0,0,0,2.33h.12a6.89,6.89,0,0,1,6.88,6.88V83.73a8.15,8.15,0,0,0,7.68,8.13,7.57,7.57,0,1,0,8,0H85.54a7.57,7.57,0,1,0,8,0h8.81a1.17,1.17,0,0,0,0-2.33H34.77a5.84,5.84,0,0,1-5.83-5.83v-7.1Zm-14,33.92a5.25,5.25,0,1,1,5.25-5.25,5.25,5.25,0,0,1-5.25,5.25Zm-51.29,0a5.25,5.25,0,1,1,5.24-5.25,5.25,5.25,0,0,1-5.24,5.25ZM28.94,46.42H45.26V58.08H28.94ZM82.57,58.08H66.25V46.42H82.57ZM84.9,46.42h16.32V58.08H84.9Zm-18.65,14H82.57v8.85L66.25,70.79ZM63.91,71,47.59,72.54V60.41H63.91Zm2.34-26.92V32.43H82.57V44.09Zm-2.34,0H47.59V32.43H63.91Zm0,2.33V58.08H47.59V46.42Zm-35,14H45.26V72.76L28.94,74.28ZM84.9,69V60.41h16.32v7.1Zm16.32-25H84.9V32.43h16.32Zm-56-11.66V44.09H28.94V32.43Z"/></svg>