<svg id="paper-fab_mini_done" data-name="paper-fab mini done" xmlns="http://www.w3.org/2000/svg" width="34.114" height="31.768" viewBox="0 0 34.114 31.768">
  <g id="check_2" data-name="check 2">
    <g id="Shape" fill="#afca0b">
      <path d="M11.546,23.506,4.62,15.062,2.213,17.793,11.45,29.057,32.058,5.639l-2.31-2.811Z" stroke="none"/>
      <path d="M 11.40923595428467 31.3807315826416 L 10.28610515594482 30.01095390319824 L 1.049888134002686 18.74648857116699 L 0.2402246296405792 17.75902366638184 L 1.084632158279419 16.80051040649414 L 3.491136074066162 14.06885051727295 L 4.660830497741699 12.74111938476562 L 5.782788753509521 14.10885143280029 L 11.58663463592529 21.18404006958008 L 28.61900520324707 1.836411476135254 L 29.78656387329102 0.5101335048675537 L 30.90938949584961 1.876390337944031 L 33.21946334838867 4.687310695648193 L 34.03003692626953 5.673634052276611 L 33.18745040893555 6.631184577941895 L 12.57933044433594 30.05098342895508 L 11.40923595428467 31.3807315826416 Z M 4.186331272125244 17.82790565490723 L 11.49008369445801 26.73372650146484 L 30.08611297607422 5.604796886444092 L 29.70951080322266 5.1464524269104 L 12.67563247680664 24.49969673156738 L 11.50582695007324 25.82879257202148 L 10.38296222686768 24.45967674255371 L 4.578655242919922 17.38248252868652 L 4.186331272125244 17.82790565490723 Z" stroke="none" fill="#afca0b"/>
    </g>
  </g>
</svg>
