<svg xmlns="http://www.w3.org/2000/svg" viewBox="0 0 122 122"><defs><style>.a{fill:orange;stroke:orange;stroke-width:0.53px;}</style></defs><line class="a" x1="38.21" y1="53.25" x2="38.21" y2="75.53"/><polyline class="a" points="37.61 75.53 37.61 53.25 39.2 53.25 39.2 75.53"/><line class="a" x1="38.21" y1="53.25" x2="38.21" y2="75.53"/><rect class="a" x="37.61" y="53.25" width="1.59" height="22.27"/><line class="a" x1="38.21" y1="53.25" x2="38.21" y2="75.53"/><polyline class="a" points="37.61 75.53 37.61 53.25 39.2 53.25 39.2 75.53"/><line class="a" x1="38.21" y1="53.25" x2="38.21" y2="75.53"/><rect class="a" x="37.61" y="53.25" width="1.59" height="22.27"/><line class="a" x1="38.21" y1="53.25" x2="38.21" y2="75.53"/><polyline class="a" points="37.61 75.53 37.61 53.25 39.2 53.25 39.2 75.53"/><line class="a" x1="38.21" y1="53.25" x2="38.21" y2="75.53"/><rect class="a" x="37.61" y="53.25" width="1.59" height="22.27"/><line class="a" x1="38.21" y1="53.25" x2="38.21" y2="75.53"/><polyline class="a" points="37.61 75.53 37.61 53.25 39.2 53.25 39.2 75.53"/><line class="a" x1="38.21" y1="53.25" x2="38.21" y2="75.53"/><rect class="a" x="43.94" y="53.25" width="1.59" height="22.27"/><line class="a" x1="44.54" y1="53.25" x2="44.54" y2="75.53"/><polyline class="a" points="43.94 75.53 43.94 53.25 45.53 53.25 45.53 75.53"/><line class="a" x1="44.54" y1="53.25" x2="44.54" y2="75.53"/><rect class="a" x="43.94" y="53.25" width="1.59" height="22.27"/><line class="a" x1="44.54" y1="53.25" x2="44.54" y2="75.53"/><polyline class="a" points="43.94 75.53 43.94 53.25 45.53 53.25 45.53 75.53"/><line class="a" x1="44.54" y1="53.25" x2="44.54" y2="75.53"/><rect class="a" x="43.94" y="53.25" width="1.59" height="22.27"/><line class="a" x1="44.54" y1="53.25" x2="44.54" y2="75.53"/><polyline class="a" points="43.94 75.53 43.94 53.25 45.53 53.25 45.53 75.53"/><line class="a" x1="44.54" y1="53.25" x2="44.54" y2="75.53"/><rect class="a" x="43.94" y="53.25" width="1.59" height="22.27"/><line class="a" x1="44.54" y1="53.25" x2="44.54" y2="75.53"/><line class="a" x1="44.54" y1="53.25" x2="44.54" y2="75.53"/><rect class="a" x="50.47" y="53.25" width="1.59" height="22.27"/><line class="a" x1="51.07" y1="53.25" x2="51.07" y2="75.53"/><polyline class="a" points="50.47 75.53 50.47 53.25 52.06 53.25 52.06 75.53"/><line class="a" x1="51.07" y1="53.25" x2="51.07" y2="75.53"/><rect class="a" x="50.47" y="53.25" width="1.59" height="22.27"/><line class="a" x1="51.07" y1="53.25" x2="51.07" y2="75.53"/><polyline class="a" points="50.47 75.53 50.47 53.25 52.06 53.25 52.06 75.53"/><line class="a" x1="51.07" y1="53.25" x2="51.07" y2="75.53"/><rect class="a" x="50.47" y="53.25" width="1.59" height="22.27"/><line class="a" x1="51.07" y1="53.25" x2="51.07" y2="75.53"/><polyline class="a" points="50.47 75.53 50.47 53.25 52.06 53.25 52.06 75.53"/><line class="a" x1="51.07" y1="53.25" x2="51.07" y2="75.53"/><rect class="a" x="50.47" y="53.25" width="1.59" height="22.27"/><line class="a" x1="51.07" y1="53.25" x2="51.07" y2="75.53"/><line class="a" x1="51.07" y1="53.25" x2="51.07" y2="75.53"/><rect class="a" x="56.8" y="53.25" width="1.59" height="22.27"/><line class="a" x1="57.4" y1="53.25" x2="57.4" y2="75.53"/><polyline class="a" points="56.8 75.53 56.8 53.25 58.39 53.25 58.39 75.53"/><line class="a" x1="57.4" y1="53.25" x2="57.4" y2="75.53"/><rect class="a" x="56.8" y="53.25" width="1.59" height="22.27"/><line class="a" x1="57.4" y1="53.25" x2="57.4" y2="75.53"/><polyline class="a" points="56.8 75.53 56.8 53.25 58.39 53.25 58.39 75.53"/><line class="a" x1="57.4" y1="53.25" x2="57.4" y2="75.53"/><rect class="a" x="56.8" y="53.25" width="1.59" height="22.27"/><line class="a" x1="57.4" y1="53.25" x2="57.4" y2="75.53"/><polyline class="a" points="56.8 75.53 56.8 53.25 58.39 53.25 58.39 75.53"/><line class="a" x1="57.4" y1="53.25" x2="57.4" y2="75.53"/><rect class="a" x="56.8" y="53.25" width="1.59" height="22.27"/><line class="a" x1="57.4" y1="53.25" x2="57.4" y2="75.53"/><rect class="a" x="63.46" y="53.25" width="1.59" height="22.27"/><line class="a" x1="64.06" y1="53.25" x2="64.06" y2="75.53"/><polyline class="a" points="63.47 75.53 63.47 53.25 65.06 53.25 65.06 75.53"/><line class="a" x1="64.06" y1="53.25" x2="64.06" y2="75.53"/><rect class="a" x="63.46" y="53.25" width="1.59" height="22.27"/><line class="a" x1="64.06" y1="53.25" x2="64.06" y2="75.53"/><polyline class="a" points="63.47 75.53 63.47 53.25 65.06 53.25 65.06 75.53"/><line class="a" x1="64.06" y1="53.25" x2="64.06" y2="75.53"/><rect class="a" x="63.46" y="53.25" width="1.59" height="22.27"/><line class="a" x1="64.06" y1="53.25" x2="64.06" y2="75.53"/><polyline class="a" points="63.47 75.53 63.47 53.25 65.06 53.25 65.06 75.53"/><line class="a" x1="64.06" y1="53.25" x2="64.06" y2="75.53"/><rect class="a" x="63.46" y="53.25" width="1.59" height="22.27"/><line class="a" x1="64.06" y1="53.25" x2="64.06" y2="75.53"/><line class="a" x1="64.06" y1="53.25" x2="64.06" y2="75.53"/><rect class="a" x="69.8" y="53.25" width="1.59" height="22.27"/><line class="a" x1="70.39" y1="53.25" x2="70.39" y2="75.53"/><polyline class="a" points="69.8 75.53 69.8 53.25 71.39 53.25 71.39 75.53"/><line class="a" x1="70.39" y1="53.25" x2="70.39" y2="75.53"/><rect class="a" x="69.8" y="53.25" width="1.59" height="22.27"/><line class="a" x1="70.39" y1="53.25" x2="70.39" y2="75.53"/><polyline class="a" points="69.8 75.53 69.8 53.25 71.39 53.25 71.39 75.53"/><line class="a" x1="70.39" y1="53.25" x2="70.39" y2="75.53"/><rect class="a" x="69.8" y="53.25" width="1.59" height="22.27"/><line class="a" x1="70.39" y1="53.25" x2="70.39" y2="75.53"/><polyline class="a" points="69.8 75.53 69.8 53.25 71.39 53.25 71.39 75.53"/><line class="a" x1="70.39" y1="53.25" x2="70.39" y2="75.53"/><rect class="a" x="69.8" y="53.25" width="1.59" height="22.27"/><line class="a" x1="70.39" y1="53.25" x2="70.39" y2="75.53"/><line class="a" x1="70.39" y1="53.25" x2="70.39" y2="75.53"/><rect class="a" x="76.32" y="53.25" width="1.59" height="22.27"/><line class="a" x1="76.92" y1="53.25" x2="76.92" y2="75.53"/><polyline class="a" points="76.32 75.53 76.32 53.25 77.92 53.25 77.92 75.53"/><line class="a" x1="76.92" y1="53.25" x2="76.92" y2="75.53"/><rect class="a" x="76.32" y="53.25" width="1.59" height="22.27"/><line class="a" x1="76.92" y1="53.25" x2="76.92" y2="75.53"/><polyline class="a" points="76.32 75.53 76.32 53.25 77.92 53.25 77.92 75.53"/><line class="a" x1="76.92" y1="53.25" x2="76.92" y2="75.53"/><rect class="a" x="76.32" y="53.25" width="1.59" height="22.27"/><line class="a" x1="76.92" y1="53.25" x2="76.92" y2="75.53"/><polyline class="a" points="76.32 75.53 76.32 53.25 77.92 53.25 77.92 75.53"/><line class="a" x1="76.92" y1="53.25" x2="76.92" y2="75.53"/><rect class="a" x="76.32" y="53.25" width="1.59" height="22.27"/><line class="a" x1="76.92" y1="53.25" x2="76.92" y2="75.53"/><polyline class="a" points="76.32 75.53 76.32 53.25 77.92 53.25 77.92 75.53"/><rect class="a" x="82.65" y="53.25" width="1.59" height="22.27"/><line class="a" x1="83.25" y1="53.25" x2="83.25" y2="75.53"/><polyline class="a" points="82.66 75.53 82.66 53.25 84.25 53.25 84.25 75.53"/><line class="a" x1="83.25" y1="53.25" x2="83.25" y2="75.53"/><rect class="a" x="82.65" y="53.25" width="1.59" height="22.27"/><line class="a" x1="83.25" y1="53.25" x2="83.25" y2="75.53"/><polyline class="a" points="82.66 75.53 82.66 53.25 84.25 53.25 84.25 75.53"/><line class="a" x1="83.25" y1="53.25" x2="83.25" y2="75.53"/><rect class="a" x="82.65" y="53.25" width="1.59" height="22.27"/><line class="a" x1="83.25" y1="53.25" x2="83.25" y2="75.53"/><polyline class="a" points="82.66 75.53 82.66 53.25 84.25 53.25 84.25 75.53"/><line class="a" x1="83.25" y1="53.25" x2="83.25" y2="75.53"/><rect class="a" x="82.65" y="53.25" width="1.59" height="22.27"/><line class="a" x1="83.25" y1="53.25" x2="83.25" y2="75.53"/><rect class="a" x="37.61" y="53.25" width="1.59" height="22.27"/><path class="a" d="M96.08,58H91.31V49.28a2.39,2.39,0,0,0-2.39-2.39H32.44a2.38,2.38,0,0,0-2.38,2.39V79.5a2.38,2.38,0,0,0,2.38,2.39H88.92a2.39,2.39,0,0,0,2.39-2.39V70.75h4.77a2.38,2.38,0,0,0,2.38-2.38v-8A2.37,2.37,0,0,0,96.08,58ZM89.71,79.5a.79.79,0,0,1-.79.8H32.44a.79.79,0,0,1-.79-.8V49.28a.79.79,0,0,1,.79-.8H88.92a.79.79,0,0,1,.79.8Zm7.16-11.13a.79.79,0,0,1-.79.79H91.31V59.62h4.77a.79.79,0,0,1,.79.79Z"/><polyline class="a" points="43.94 75.53 43.94 53.25 45.53 53.25 45.53 75.53"/><polyline class="a" points="50.47 75.53 50.47 53.25 52.06 53.25 52.06 75.53"/><polyline class="a" points="56.8 75.53 56.8 53.25 58.39 53.25 58.39 75.53"/><line class="a" x1="57.4" y1="53.25" x2="57.4" y2="75.53"/><polyline class="a" points="63.47 75.53 63.47 53.25 65.06 53.25 65.06 75.53"/><polyline class="a" points="69.8 75.53 69.8 53.25 71.39 53.25 71.39 75.53"/><line class="a" x1="76.92" y1="53.25" x2="76.92" y2="75.53"/><polyline class="a" points="82.66 75.53 82.66 53.25 84.25 53.25 84.25 75.53"/><line class="a" x1="83.25" y1="53.25" x2="83.25" y2="75.53"/></svg>