<svg xmlns="http://www.w3.org/2000/svg" viewBox="0 0 122 122"><defs><style>.a{fill:#afca0b;stroke:#afca0b;}</style></defs><path class="a" d="M37.63,75.82a.47.47,0,0,0-.46.46V99.14H34.89V85.89H34V99.14H31.69V76.28a.47.47,0,0,0-.46-.46.46.46,0,0,0-.46.45h0v23.77h7.31V76.28a.46.46,0,0,0-.45-.46Z"/><path class="a" d="M34.43,69.89a3.2,3.2,0,1,0-3.2-3.2h0A3.2,3.2,0,0,0,34.43,69.89Zm0-5.49a2.29,2.29,0,1,1-2.29,2.29,2.28,2.28,0,0,1,2.29-2.29Z"/><path class="a" d="M47.69,69.89a3.2,3.2,0,1,0-3.2-3.2h0A3.2,3.2,0,0,0,47.69,69.89Zm0-5.49a2.29,2.29,0,1,1-2.29,2.29,2.28,2.28,0,0,1,2.29-2.29Z"/><path class="a" d="M51.34,80.79V76.27a.46.46,0,0,0-.92,0h0v4.58l2.15,7.77H42.8L44.93,81v-4.7a.46.46,0,0,0-.46-.46.45.45,0,0,0-.45.45h0v4.52L41.6,89.54H44v10.51h7.31V89.54h2.43l-2.43-8.75Zm-6.4,8.75h2.29v9.6H44.94Zm5.48,9.6H48.14v-9.6h2.28Z"/><path class="a" d="M62.59,91.19a.47.47,0,0,0-.46.46v7.5H60.76v-5h-.91v5H58.48V90a.46.46,0,0,0-.46-.46.45.45,0,0,0-.45.45h0v10.07h5.48V91.65a.46.46,0,0,0-.45-.46h0Z"/><path class="a" d="M60.31,86.81A2.29,2.29,0,1,0,58,84.52a2.3,2.3,0,0,0,2.29,2.29Zm0-3.66a1.37,1.37,0,1,1-1.37,1.37h0a1.36,1.36,0,0,1,1.36-1.37Z"/><path class="a" d="M65.83,93.68l-1.72-4.12,0,0,0,0a5.31,5.31,0,0,0-2-1.7,4.78,4.78,0,0,0-1.78-.46l-.37,0H57.52l-2.1-3.1a2.93,2.93,0,0,0,0-.66l-2-9.27a2.82,2.82,0,0,0-.49-1,7.08,7.08,0,0,0-3-2.08,6.16,6.16,0,0,0-4.51,0,7.19,7.19,0,0,0-3,2.1,2.94,2.94,0,0,0-.48,1l-1.16,5.4h0l-.62-5.36,0-.07a2.73,2.73,0,0,0-.49-1,7.17,7.17,0,0,0-3-2.08,6.47,6.47,0,0,0-2.26-.42,6.18,6.18,0,0,0-2.24.42,7.19,7.19,0,0,0-3,2.1,2.77,2.77,0,0,0-.47.94l-1.08,9.3a1.78,1.78,0,0,0,1,2.13.45.45,0,1,0,.38-.82c-.3-.14-.59-.39-.46-1.19l1.06-9.2a2.19,2.19,0,0,1,.3-.59,6.34,6.34,0,0,1,2.62-1.82,5.69,5.69,0,0,1,1.92-.37,5.35,5.35,0,0,1,1.94.37,6.2,6.2,0,0,1,2.59,1.8,2,2,0,0,1,.31.6l.93,8-.22,1a1.76,1.76,0,0,0,1,2.13.45.45,0,0,0,.38-.82c-.3-.14-.59-.39-.47-1.14l2-9.21a2.12,2.12,0,0,1,.31-.62,6.28,6.28,0,0,1,2.61-1.82,5.28,5.28,0,0,1,3.87,0,6.33,6.33,0,0,1,2.59,1.8,1.9,1.9,0,0,1,.31.6l2,9.22a1.46,1.46,0,0,1,0,.51v0a.74.74,0,0,1-.47.61.45.45,0,1,0,.38.82,1.74,1.74,0,0,0,.62-.45L56.91,88a.46.46,0,0,0,.38.2h2.9a4,4,0,0,1,1.44.38,4.47,4.47,0,0,1,1.66,1.36L65,94.05a.69.69,0,0,1-.37.9h0a.47.47,0,0,0-.26.6.46.46,0,0,0,.59.26,1.57,1.57,0,0,0,1-1.06,1.61,1.61,0,0,0-.09-1.1Z"/><path class="a" d="M61.55,17.14a44.93,44.93,0,0,0-38.49,68l1.1-2.89c-.26-.49-.54-1-.79-1.46a42.55,42.55,0,0,1,37-61.29v43l30.39,30.4a42.46,42.46,0,0,1-36.84,11l-3,1.59A30.19,30.19,0,0,0,61.55,107a44.9,44.9,0,0,0,0-89.8Zm1.19,2.39a42.56,42.56,0,0,1,41.32,41.33H62.74Zm29.7,71.72-28-28s0,0,0,0h39.62a42.33,42.33,0,0,1-11.63,28Z"/></svg>