<svg xmlns="http://www.w3.org/2000/svg" viewBox="0 0 122 122"><defs><style>.a{fill:orange;stroke:orange;}</style></defs><path class="a" d="M37.1,74.75a.46.46,0,0,0-.46.46h0V98.06H34.35V84.81h-.91V98.06H31.15V75.21a.46.46,0,0,0-.46-.46h0a.46.46,0,0,0-.46.45h0V99h7.31V75.21a.46.46,0,0,0-.45-.46Z"/><path class="a" d="M33.9,68.82a3.2,3.2,0,1,0-3.2-3.19A3.2,3.2,0,0,0,33.9,68.82Zm0-5.48a2.29,2.29,0,1,1-2.29,2.29,2.29,2.29,0,0,1,2.29-2.29Z"/><path class="a" d="M47.15,68.82A3.2,3.2,0,1,0,44,65.63,3.2,3.2,0,0,0,47.15,68.82Zm0-5.48a2.29,2.29,0,1,1-2.29,2.29,2.29,2.29,0,0,1,2.29-2.29Z"/><path class="a" d="M50.8,79.72V75.2a.47.47,0,0,0-.46-.46h0a.46.46,0,0,0-.46.45h0v4.58L52,87.54H42.26l2.13-7.64V75.2a.46.46,0,0,0-.46-.46h0a.46.46,0,0,0-.46.45h0v4.52l-2.42,8.74h2.42V99h7.31V88.46h2.43L50.8,79.72Zm-6.4,8.74h2.29v9.6H44.4Zm5.48,9.6H47.6v-9.6h2.28Z"/><path class="a" d="M62,90.11a.47.47,0,0,0-.46.46h0v7.49H60.22V93H59.3v5H57.94V88.91a.47.47,0,0,0-.46-.46h0a.46.46,0,0,0-.46.45h0V99H62.5v-8.4a.46.46,0,0,0-.45-.46h0Z"/><path class="a" d="M59.76,85.73a2.29,2.29,0,1,0-2.29-2.29h0a2.28,2.28,0,0,0,2.28,2.29Zm0-3.66a1.37,1.37,0,1,1-1.37,1.37,1.37,1.37,0,0,1,1.37-1.37Z"/><path class="a" d="M65.27,92.6l-1.71-4.11,0-.06v0a5.27,5.27,0,0,0-2-1.69,4.85,4.85,0,0,0-1.78-.47l-.37,0H57l-2.1-3.09a2.44,2.44,0,0,0,0-.66l-2-9.27a2.82,2.82,0,0,0-.49-1,7.23,7.23,0,0,0-3-2.08,6.13,6.13,0,0,0-4.5,0,7.12,7.12,0,0,0-3,2.1,3,3,0,0,0-.48,1l-1.16,5.39h0l-.62-5.35,0-.08a2.82,2.82,0,0,0-.49-1,7.15,7.15,0,0,0-3-2.07,6.42,6.42,0,0,0-2.25-.43,6.11,6.11,0,0,0-2.24.43,7.12,7.12,0,0,0-3,2.1,2.64,2.64,0,0,0-.47.93l-1.08,9.3a1.8,1.8,0,0,0,1,2.14.46.46,0,0,0,.38-.83c-.29-.14-.58-.39-.46-1.19l1.07-9.2a1.61,1.61,0,0,1,.3-.58A6.39,6.39,0,0,1,32,71a5.69,5.69,0,0,1,1.92-.37,5.57,5.57,0,0,1,1.94.37,6.33,6.33,0,0,1,2.59,1.8,2.13,2.13,0,0,1,.31.6l.93,8-.23,1a1.78,1.78,0,0,0,1,2.13.44.44,0,0,0,.6-.22.45.45,0,0,0-.22-.6c-.3-.14-.58-.39-.46-1.14l2-9.21a1.9,1.9,0,0,1,.31-.62A6.31,6.31,0,0,1,45.22,71a5.25,5.25,0,0,1,3.86,0,6.33,6.33,0,0,1,2.59,1.8,1.9,1.9,0,0,1,.31.6l2,9.22a1.74,1.74,0,0,1,0,.51v0a.73.73,0,0,1-.47.61.46.46,0,0,0-.24.6.45.45,0,0,0,.59.24l0,0a1.63,1.63,0,0,0,.62-.45l1.87,2.76a.45.45,0,0,0,.37.2h2.91a4,4,0,0,1,1.44.37,4.44,4.44,0,0,1,1.65,1.36L64.46,93a.7.7,0,0,1-.37.9h0a.46.46,0,0,0,.16.89.32.32,0,0,0,.16,0,1.61,1.61,0,0,0,1-1,1.73,1.73,0,0,0-.09-1.1Z"/><path class="a" d="M61,16.11a44.89,44.89,0,0,0-38.47,68l1.1-2.88c-.27-.49-.55-1-.79-1.47a42.53,42.53,0,0,1,37-61.25v43L90.2,91.85a42.44,42.44,0,0,1-36.83,11l-2.95,1.59A30.34,30.34,0,0,0,61,105.87a44.88,44.88,0,0,0,0-89.76Zm1.19,2.39a42.55,42.55,0,0,1,41.3,41.3H62.19ZM91.87,90.18l-28-28s0,0,0,0h39.6a42.38,42.38,0,0,1-11.63,28Z"/></svg>