<svg xmlns="http://www.w3.org/2000/svg" viewBox="0 0 122 122"><defs><style>.a{fill:orange;stroke:orange;stroke-width:0.53px;}</style></defs><path class="a" d="M97.59,46H57.52a0,0,0,0,1,0,0h0l9.27-2a6.3,6.3,0,0,0,3.67-2.25,6,6,0,0,0-1.08-8.43,5.68,5.68,0,0,0-.93-.6,6.38,6.38,0,0,0-4.3-.47l-26.84,6A6.64,6.64,0,0,0,34,40.41L25.8,51h-7v2h7.5a1,1,0,0,0,.79-.39l8.49-11a4.6,4.6,0,0,1,2.23-1.55l26.84-6a4.3,4.3,0,0,1,2.74.25A4,4,0,0,1,66.58,42l-18.5,4.1a1,1,0,0,0,.22,2H97.62a4.14,4.14,0,0,1,4.18,3.85A4,4,0,0,1,98,56H70.8a1,1,0,1,0,.09,2,3.5,3.5,0,0,1,2.62.63c4.14,3.45,2.09,8.38-1.63,9.2a1,1,0,0,0-.76,1.2.93.93,0,0,0,.27.48A4.94,4.94,0,0,1,72.8,73a5.19,5.19,0,0,1-5.22,5H67.2a1,1,0,0,0-.71,1.71,4.64,4.64,0,0,1,1.31,3.33,5.21,5.21,0,0,1-5.22,5H44.8c-7.42,0-10.63-2.51-13.47-4.72C29.17,81.61,27.13,80,23.8,80h-5v2h5c2.64,0,4.26,1.26,6.3,2.86C33,87.17,36.7,90,44.8,90H62.52a7.23,7.23,0,0,0,7.28-7.09,6.77,6.77,0,0,0-.74-3,7,7,0,0,0,4.69-10.6,6.93,6.93,0,0,0,3.41-9.2A6.67,6.67,0,0,0,75.71,58s0,0,0,0H97.8a5.94,5.94,0,0,0,6-5.87v-.21A6.14,6.14,0,0,0,97.59,46Z"/></svg>