<svg xmlns="http://www.w3.org/2000/svg" viewBox="0 0 122 122"><defs><style>.a{fill:#afca0b;stroke:#afca0b;stroke-width:0.33px;}</style></defs><path class="a" d="M97.55,46H57.49s0,0,0,0h0l9.27-2a6.3,6.3,0,0,0,3.67-2.25,6,6,0,0,0-1.08-8.43,5.68,5.68,0,0,0-.93-.6,6.39,6.39,0,0,0-4.3-.47l-26.84,6A6.64,6.64,0,0,0,34,40.41L25.77,51h-7v2h7.5a1,1,0,0,0,.8-.39l8.48-11a4.68,4.68,0,0,1,2.24-1.55l26.84-6a4.3,4.3,0,0,1,2.74.25A4,4,0,0,1,66.55,42l-18.5,4.1a1,1,0,0,0,.21,2H97.58a4.12,4.12,0,0,1,4.18,3.85A3.94,3.94,0,0,1,98,56H70.76a1,1,0,1,0,.1,2,3.51,3.51,0,0,1,2.62.63c4.13,3.45,2.09,8.38-1.63,9.2a1,1,0,0,0-.76,1.2.93.93,0,0,0,.27.48A4.89,4.89,0,0,1,72.76,73a5.17,5.17,0,0,1-5.21,5h-.39a1,1,0,0,0-.7,1.71,4.63,4.63,0,0,1,1.3,3.33,5.2,5.2,0,0,1-5.21,5H44.76c-7.41,0-10.63-2.51-13.46-4.72C29.14,81.61,27.1,80,23.76,80h-5v2h5c2.65,0,4.26,1.26,6.3,2.86C33,87.17,36.66,90,44.76,90H62.49a7.23,7.23,0,0,0,7.27-7.09,6.63,6.63,0,0,0-.73-3,7,7,0,0,0,5.61-8.21,6.83,6.83,0,0,0-.92-2.39,6.94,6.94,0,0,0,3.41-9.2A6.84,6.84,0,0,0,75.68,58s0,0,0,0H97.76a5.93,5.93,0,0,0,6-5.87v-.21A6.14,6.14,0,0,0,97.55,46Z"/></svg>