<svg xmlns="http://www.w3.org/2000/svg" viewBox="0 0 122 122"><defs><style>.a{fill:#afca0b;stroke:#afca0b;stroke-width:0.59px;}</style></defs><circle class="a" cx="88.17" cy="60.22" r="1.78"/><path class="a" d="M81,52.36V62.89H78.72L65.25,49.42l-2.07.46,13,13H68.9L57.2,51.19l-2.07.45L66.38,62.89H59.09L49.15,53l-2.07.45,9.48,9.48H49.27L41.1,54.72,39,55.18l7.71,7.71H36.92L23.11,53.17a56.35,56.35,0,0,0,2.58,10.62,61.38,61.38,0,0,0-2.58,10.62l13.78-9.73h9.85L39,72.39l2.07.46,8.17-8.17h7.29l-9.48,9.48,2.07.46,9.94-9.94h7.29L55.13,75.93l2.07.45,11.7-11.7h7.3l-13,13,2.07.45L78.72,64.68H81V75.21c10-2.41,20.53-8.3,20.53-11.42S91,54.77,81,52.36Zm-55.36,18c.45-2,1-4,1.72-6.06l.19-.59-.21-.58a48.39,48.39,0,0,1-1.72-6l9.42,6.64Zm57.14,2.48V54.68c9.18,2.65,16.5,7.41,17,9.11C99.31,65.49,92,70.25,82.81,72.89Z"/></svg>