<svg xmlns="http://www.w3.org/2000/svg" viewBox="0 0 122 122"><defs><style>.a{fill:#afca0b;stroke:#afca0b;stroke-width:0.62px;}</style></defs><path class="a" d="M90.1,36.56a19,19,0,0,0-26.9,0h0C58.77,41,57,53.39,54.4,58.08c-5.07,9.22-9.87,9.75-6.81,14.25L41,78.89a7.11,7.11,0,1,0-3.32,9.49,7.4,7.4,0,0,0,1.82-1.26h0A7.13,7.13,0,0,0,49.62,97.2a7.25,7.25,0,0,0,1.68-7.66,6.48,6.48,0,0,0-3.54-3.92l6.56-6.56a4.53,4.53,0,0,0,2.52,1c2.66,0,4.51-3.88,11.83-7.67,4.79-2.49,17-4.47,21.43-8.9A19,19,0,0,0,90.1,36.56ZM46.57,84.42A1.7,1.7,0,0,0,47,87.14a5.42,5.42,0,1,1-7.23,2.53,5.36,5.36,0,0,1,1.05-1.49,1.68,1.68,0,0,0-2.38-2.38,5.56,5.56,0,1,1,1-6.19,1.69,1.69,0,0,0,2.24.81,1.82,1.82,0,0,0,.48-.34l6.4-6.41c.57.67,1.26,1.4,2.11,2.25S52.32,77.45,53,78ZM88.9,62.26c-2.51,2.52-8.47,4.34-13.26,5.81a52.25,52.25,0,0,0-7.75,2.78,40.37,40.37,0,0,0-8,5.53c-1.34,1.14-2.31,2-3,2-1.16,0-3.36-2.06-4.91-3.61s-3.54-3.66-3.62-4.83c-.05-.7.67-1.57,2-3.19a44.49,44.49,0,0,0,5.53-7.81,46.84,46.84,0,0,0,2.93-8.2c1.47-4.93,3.14-10.51,5.58-13A17.33,17.33,0,0,1,88.9,62.26Z"/></svg>