<svg xmlns="http://www.w3.org/2000/svg" viewBox="0 0 122 122"><defs><style>.a{fill:#afca0b;stroke:#afca0b;stroke-width:0.54px;}</style></defs><path class="a" d="M46.64,65.28a13.74,13.74,0,0,1,4.75-3.09A117.31,117.31,0,0,1,68.71,57a1,1,0,0,0,.84-1,1,1,0,0,0-1-1l-.2,0a122.07,122.07,0,0,0-17.67,5.28,15.84,15.84,0,0,0-5.44,3.54c-3.7,3.67-8.55,8.72-11.88,12.38,0,0,0,0,0,0,1.2-.47,2.58-1,4.09-1.51C40.4,71.6,43.85,68,46.64,65.28Z"/><path class="a" d="M56,56c2.26-2.26,4.45-4.49,6.57-6.64l2.5-2.54a13.83,13.83,0,0,1,5-3.25A114.07,114.07,0,0,1,86,38.76a1,1,0,0,0,.83-1,1,1,0,0,0-1-1l-.2,0A116.1,116.1,0,0,0,69.36,41.7a15.7,15.7,0,0,0-5.68,3.72L61.18,48Q58,51.19,54.61,54.59L53,56.23c-.61.64-1.23,1.28-1.64,1.69,0,0,0,0,0,0,1.38-.52,2.8-1,4.25-1.5C55.77,56.26,55.91,56.11,56,56Z"/><path class="a" d="M98.26,27.22C91,20,79.7,29.67,69.64,39.45c0,0,0,0,0,0,1.31-.49,2.86-1.05,4.59-1.63,10-9.31,17.72-14.08,22.6-9.2a6.46,6.46,0,0,1,2.07,4.77c0,7.08-10.56,17.45-22.77,29.46C74,65,71.75,67.19,69.48,69.45S65,74,62.88,76.12c-12,12.2-22.37,22.74-29.45,22.77h0a6.46,6.46,0,0,1-4.74-2.07c-2.78-2.78-2.74-6.36.11-11.27a13.84,13.84,0,0,1,7.16-6,105.41,105.41,0,0,1,14.54-4.3,1,1,0,0,0,.83-1,1,1,0,0,0-1-1,.69.69,0,0,0-.2,0,108.06,108.06,0,0,0-14.85,4.38A15.93,15.93,0,0,0,27,84.55c-3.33,5.73-3.27,10.21.2,13.68a8.46,8.46,0,0,0,6.16,2.66h0c7.91,0,18-10.33,30.86-23.37,2.13-2.16,4.33-4.39,6.59-6.65s4.5-4.46,6.66-6.59c13-12.83,23.33-23,23.36-30.87A8.48,8.48,0,0,0,98.26,27.22Z"/></svg>