<svg xmlns="http://www.w3.org/2000/svg" viewBox="0 0 122 122"><defs><style>.a{fill:#afca0b;stroke:#afca0b;stroke-width:0.59px;}</style></defs><path class="a" d="M66.77,50.51h.11c.86-.12,1.7-.26,2.5-.43A.88.88,0,0,0,70,49a.87.87,0,0,0-1-.67c-.75.16-1.54.3-2.35.4a.88.88,0,0,0,.11,1.75Z"/><path class="a" d="M61,34.94l1.25,0,1.26,0a.88.88,0,1,0-.06-1.76c-.79,0-1.6,0-2.4,0a.89.89,0,0,0-.9.85A.88.88,0,0,0,61,34.94Z"/><path class="a" d="M66.77,45.23h.11c.86-.11,1.7-.26,2.5-.43a.88.88,0,0,0,.66-1,.87.87,0,0,0-1-.67c-.75.16-1.54.3-2.35.4a.88.88,0,0,0-.76,1A.87.87,0,0,0,66.77,45.23Z"/><path class="a" d="M66.77,61.07h.11l1.36-.2c.55-.52,1.13-1,1.72-1.48a.87.87,0,0,0-.95-.46c-.75.16-1.54.29-2.35.4a.86.86,0,0,0-.76,1A.88.88,0,0,0,66.77,61.07Z"/><path class="a" d="M66.77,55.79h.11c.86-.11,1.7-.25,2.5-.42a.88.88,0,0,0,.66-1,.87.87,0,0,0-1-.67c-.75.16-1.54.29-2.35.4a.88.88,0,0,0,.11,1.75Z"/><path class="a" d="M66.77,40h.11c.86-.11,1.7-.26,2.5-.43A.88.88,0,0,0,69,37.8c-.75.16-1.54.3-2.35.4A.88.88,0,0,0,66.77,40Z"/><path class="a" d="M57.67,61.07h.11a.88.88,0,0,0,.11-1.75c-.81-.1-1.6-.24-2.35-.4a.89.89,0,0,0-1,.47c.59.47,1.15,1,1.7,1.46Z"/><path class="a" d="M63.47,64.85c-.79,0-1.6,0-2.4,0a.89.89,0,0,0-.83.55c.28.39.55.8.81,1.21.4,0,.81,0,1.22,0s.81,0,1.2,0c.27-.42.55-.84.84-1.24A.89.89,0,0,0,63.47,64.85Z"/><path class="a" d="M61,61.33c.41,0,.82,0,1.25,0s.84,0,1.26,0a.87.87,0,0,0,.85-.91h0a.87.87,0,0,0-.88-.85h0c-.79,0-1.6,0-2.4,0a.88.88,0,0,0-.9.85.87.87,0,0,0,.85.91Z"/><path class="a" d="M55.17,50.08c.8.17,1.64.32,2.5.43h.11a.88.88,0,0,0,.11-1.76c-.81-.1-1.6-.24-2.35-.4a.88.88,0,0,0-.37,1.72Z"/><path class="a" d="M55.17,55.36c.8.17,1.64.32,2.5.43h.11A.88.88,0,0,0,57.89,54c-.81-.1-1.6-.24-2.35-.4a.88.88,0,0,0-.37,1.72Z"/><path class="a" d="M55.17,44.8c.8.18,1.64.32,2.5.43h.11a.88.88,0,0,0,.11-1.76c-.81-.1-1.6-.23-2.35-.4a.88.88,0,0,0-.37,1.72Z"/><path class="a" d="M55.17,39.53c.8.17,1.64.31,2.5.42h.11a.88.88,0,0,0,.11-1.75c-.81-.11-1.6-.24-2.35-.4a.86.86,0,0,0-1,.69.89.89,0,0,0,.66,1Z"/><path class="a" d="M61,56.06l1.25,0q.63,0,1.26,0a.87.87,0,0,0,.85-.9h0a.87.87,0,0,0-.87-.86h0c-.79,0-1.6,0-2.4,0a.88.88,0,0,0,0,1.75Z"/><path class="a" d="M61,45.5l1.25,0,1.26,0a.88.88,0,0,0,.85-.91h0a.86.86,0,0,0-.88-.85h0c-.79,0-1.6,0-2.4,0a.87.87,0,0,0-.9.85.88.88,0,0,0,.85.91Z"/><path class="a" d="M61,50.78l1.25,0,1.26,0a.88.88,0,0,0,.85-.91.87.87,0,0,0-.91-.85c-.79,0-1.6,0-2.4,0a.88.88,0,0,0,0,1.76Z"/><path class="a" d="M61,40.22l1.25,0,1.26,0a.88.88,0,0,0,.85-.91h0a.85.85,0,0,0-.87-.85h0c-.79,0-1.6,0-2.4,0a.88.88,0,0,0,0,1.76Z"/><path class="a" d="M94.56,58.57c-2.7-2.7-6.74-3.41-12.34-2.16A26.76,26.76,0,0,0,77,58.15c-1-12.23-4.85-22.82-10.53-28.49a6.18,6.18,0,0,0-8.39,0c-5.68,5.67-9.57,16.26-10.53,28.49a26.54,26.54,0,0,0-5.23-1.74c-5.6-1.25-9.64-.54-12.34,2.16a.88.88,0,0,0,.59,1.5c.48,0,11.64.58,11.64,14.25,0,9.21,6.18,15,12.28,16a14.23,14.23,0,0,0,2.06.2,5.88,5.88,0,0,0,11.45,0,14.5,14.5,0,0,0,2.07-.2c6.09-1,12.27-6.79,12.27-16,0-13.67,11.16-14.23,11.64-14.25a.88.88,0,0,0,.59-1.5Zm-44.72-5.1a15.37,15.37,0,0,0,2.06,1,.88.88,0,0,0,.62-1.65,13.22,13.22,0,0,1-2.09-1,.84.84,0,0,0-.3-.11c.18-1,.38-2,.6-3a11.43,11.43,0,0,0,1.17.5.88.88,0,0,0,.62-1.65,12.68,12.68,0,0,1-1.36-.59c.27-1,.56-2,.88-3l.17,0a.89.89,0,0,0,.82-.57.87.87,0,0,0-.43-1.08,36.44,36.44,0,0,1,3.83-7.8c.41.07.81.15,1.24.2h.11a.88.88,0,0,0,0-1.76h-.16l0,0a21.81,21.81,0,0,1,1.74-2,4.16,4.16,0,0,1,5.89,0,21.81,21.81,0,0,1,1.74,2l0,0a.88.88,0,1,0-.29,1.74h.25c.42-.05.81-.13,1.22-.2a36.67,36.67,0,0,1,3.83,7.8.87.87,0,0,0,.41,1.64l.15,0c.31,1,.61,2,.88,3a13.29,13.29,0,0,1-1.34.59.88.88,0,0,0,.62,1.65c.41-.16.78-.32,1.15-.5.22,1,.42,2,.6,3a.77.77,0,0,0-.29.1,14.11,14.11,0,0,1-2.08,1,.88.88,0,1,0,.62,1.64,15.07,15.07,0,0,0,2-.94q.41,2.69.6,5.52a25.48,25.48,0,0,0-8.23,7.08.7.7,0,0,0-.16.14c-.22.31-.42.63-.63,1s-.25.38-.37.57l-.37.59a28.86,28.86,0,0,0-3.25,7.6s0,0,0,0A26.83,26.83,0,0,0,49.24,59Q49.43,56.16,49.84,53.47ZM80.57,74.32c0,8.61-5.6,13.43-10.79,14.27a12.15,12.15,0,0,1-2,.17h-.55a.91.91,0,0,0-.88.82,4.2,4.2,0,0,1-6.6,3,3.75,3.75,0,0,1-1.59-3,.89.89,0,0,0-.88-.8h-.55a11.06,11.06,0,0,1-2-.17C49.56,87.75,44,82.93,44,74.32c0-11.54-7.4-14.77-11.18-15.67,0,0,0,0,0,0,2.2-1.21,5.21-1.38,9.15-.5,10.6,2.35,18.06,11,19.47,22.56a0,0,0,0,1,0,0c-.09.74-.16,1.49-.21,2.26a.88.88,0,0,0,.83.93h0a.88.88,0,0,0,.88-.82,29.26,29.26,0,0,1,5.38-15.86l0-.08a24,24,0,0,1,14.23-9c3.94-.88,7-.71,9.15.51,0,0,0,0,0,0-3.77.9-11.18,4.13-11.18,15.67Z"/></svg>