<svg xmlns="http://www.w3.org/2000/svg" viewBox="0 0 122 122"><defs><style>.a{fill:#afca0b;stroke:#afca0b;stroke-width:0.57px;}</style></defs><path class="a" d="M76.67,55.33V52.89a6.8,6.8,0,0,0-.73-3.07L68.08,34.09V27.42a1.72,1.72,0,0,0-1.72-1.72H57.77a1.72,1.72,0,0,0-1.72,1.72v6.67L48.19,49.82a6.93,6.93,0,0,0-.72,3.07v2.44a4.72,4.72,0,0,0,2,3.87,4.71,4.71,0,0,0-2,3.86v.86a4.72,4.72,0,0,0,2,3.87,4.71,4.71,0,0,0-2,3.86v.86a4.74,4.74,0,0,0,2,3.87,4.71,4.71,0,0,0-2,3.86v9.88a6,6,0,0,0,6,6H70.65a6,6,0,0,0,6-6V80.24a4.71,4.71,0,0,0-2-3.86,4.75,4.75,0,0,0,2-3.87v-.86a4.71,4.71,0,0,0-2-3.86,4.73,4.73,0,0,0,2-3.87v-.86a4.71,4.71,0,0,0-2-3.86A4.73,4.73,0,0,0,76.67,55.33ZM57.77,27.42h8.59v6H57.77ZM75,55.33a3,3,0,0,1-3,3h-3v1.72h3a3,3,0,0,1,3,3v.86a3,3,0,0,1-3,3h-3v1.72h3a3,3,0,0,1,3,3v.86a3,3,0,0,1-3,3h-3v1.71h3a3,3,0,0,1,3,3v9.88a4.29,4.29,0,0,1-4.3,4.29H53.48a4.3,4.3,0,0,1-4.3-4.29V80.24a3,3,0,0,1,3-3h3V75.52h-3a3,3,0,0,1-3-3v-.86a3,3,0,0,1,3-3h3V66.93h-3a3,3,0,0,1-3-3v-.86a3,3,0,0,1,3-3h3V58.34h-3a3,3,0,0,1-3-3V52.89a5.3,5.3,0,0,1,.55-2.31l7.71-15.43h9.25l7.72,15.43A5.29,5.29,0,0,1,75,52.89Z"/><path class="a" d="M76.67,55.33V52.89a6.8,6.8,0,0,0-.73-3.07L68.08,34.09V27.42a1.72,1.72,0,0,0-1.72-1.72H57.77a1.72,1.72,0,0,0-1.72,1.72v6.67L48.19,49.82a6.93,6.93,0,0,0-.72,3.07v2.44a4.72,4.72,0,0,0,2,3.87,4.71,4.71,0,0,0-2,3.86v.86a4.72,4.72,0,0,0,2,3.87,4.71,4.71,0,0,0-2,3.86v.86a4.74,4.74,0,0,0,2,3.87,4.71,4.71,0,0,0-2,3.86v9.88a6,6,0,0,0,6,6H70.65a6,6,0,0,0,6-6V80.24a4.71,4.71,0,0,0-2-3.86,4.75,4.75,0,0,0,2-3.87v-.86a4.71,4.71,0,0,0-2-3.86,4.73,4.73,0,0,0,2-3.87v-.86a4.71,4.71,0,0,0-2-3.86A4.73,4.73,0,0,0,76.67,55.33ZM57.77,27.42h8.59v6H57.77ZM75,55.33a3,3,0,0,1-3,3h-3v1.72h3a3,3,0,0,1,3,3v.86a3,3,0,0,1-3,3h-3v1.72h3a3,3,0,0,1,3,3v.86a3,3,0,0,1-3,3h-3v1.71h3a3,3,0,0,1,3,3v9.88a4.29,4.29,0,0,1-4.3,4.29H53.48a4.3,4.3,0,0,1-4.3-4.29V80.24a3,3,0,0,1,3-3h3V75.52h-3a3,3,0,0,1-3-3v-.86a3,3,0,0,1,3-3h3V66.93h-3a3,3,0,0,1-3-3v-.86a3,3,0,0,1,3-3h3V58.34h-3a3,3,0,0,1-3-3V52.89a5.3,5.3,0,0,1,.55-2.31l7.71-15.43h9.25l7.72,15.43A5.29,5.29,0,0,1,75,52.89Z"/></svg>