<svg xmlns="http://www.w3.org/2000/svg" viewBox="0 0 122 122"><defs><style>.a{fill:orange;stroke:orange;stroke-width:0.55px;}</style></defs><path class="a" d="M57.72,40.25a4.38,4.38,0,1,0-4.37-4.37A4.37,4.37,0,0,0,57.72,40.25Zm0-7a2.63,2.63,0,1,1-2.62,2.63A2.63,2.63,0,0,1,57.72,33.25Z"/><circle class="a" cx="72.59" cy="47.24" r="1.75"/><circle class="a" cx="41.11" cy="38.5" r="1.75"/><path class="a" d="M91.82,47.24a3.5,3.5,0,1,0-3.49-3.5A3.49,3.49,0,0,0,91.82,47.24Zm0-5.24a1.75,1.75,0,1,1-1.75,1.74A1.74,1.74,0,0,1,91.82,42Z"/><path class="a" d="M82.64,35.88a2.19,2.19,0,1,0-2.18-2.19A2.19,2.19,0,0,0,82.64,35.88Z"/><path class="a" d="M26.25,73.47a2.63,2.63,0,1,0,2.62,2.63A2.63,2.63,0,0,0,26.25,73.47Zm0,3.5a.88.88,0,1,1,.87-.87A.87.87,0,0,1,26.25,77Z"/><path class="a" d="M97.42,84.2h0a5.24,5.24,0,0,0-3.75-3.78,6.51,6.51,0,0,0-2.9-5V56.86a4.39,4.39,0,0,0-4.37-4.37H58.93a4.79,4.79,0,0,0-7.54-5.69,4.64,4.64,0,0,0-2.17-.43,4.79,4.79,0,0,0-5.91-3.32,4.74,4.74,0,0,0-1.59.79,7.43,7.43,0,0,0-10.13,2.78,8.2,8.2,0,0,0-.66,1.56,4.74,4.74,0,0,0-.75-.06,4.8,4.8,0,0,0-.44,9.59h0a6.94,6.94,0,0,0,.94,3.51,5.68,5.68,0,0,0,3,10.5,5.35,5.35,0,0,0,1.13-.12v9.74a4.38,4.38,0,0,0,4.37,4.37h24.1a5.25,5.25,0,0,0,6.37,6.36,3.48,3.48,0,0,0,.62-.21,9.61,9.61,0,0,0,12,1,6.56,6.56,0,0,0,8.28-2.41,5.24,5.24,0,0,0,6.88-6.2ZM29.74,66a4,4,0,0,1,2.53-3.67L33.38,62s0,0,0,0h0L32.64,61a5.15,5.15,0,0,1-1.08-4.07l.17-1.14h0L30.48,56l-.3,0a3.06,3.06,0,0,1,0-6.12,3,3,0,0,1,1.1.21l1,.38h0l.17-1.05a5.67,5.67,0,0,1,6.49-4.71,5.61,5.61,0,0,1,2.36,1l.6.42h0l.51-.52a3,3,0,0,1,5.22,1.89l.08,1h0l1-.23a3,3,0,0,1,2.38.41l.67.44h0l.49-.63a3.05,3.05,0,1,1,4.83,3.73,3.12,3.12,0,0,1-1.43,1L55,53.4h0l0,.66a1.24,1.24,0,0,0,0,.18,2.62,2.62,0,0,1-5.16.63l-.15-.61h0l-.62,0A3,3,0,0,1,48,53.89l-.81-.42h0l-.38.83a4.36,4.36,0,0,1-4,2.56H42v.86a5.2,5.2,0,0,1-2,4.11l-.64.51h0l.48.67a2.18,2.18,0,0,1-1.6,3.43l-.6.05h0l-.17.58a3.93,3.93,0,0,1-7.72-1Zm6.82,15.3V70.92A5.69,5.69,0,0,0,39,68.1a3.9,3.9,0,0,0,2.91-4.7,4,4,0,0,0-.23-.69,7,7,0,0,0,2-4.16A6.13,6.13,0,0,0,48,55.76l.41.11a4.37,4.37,0,0,0,8.41-1.29,6.42,6.42,0,0,0,.56-.34h29A2.63,2.63,0,0,1,89,56.86V74.65a6.55,6.55,0,0,0-7,2.12,9.53,9.53,0,0,0-3.72-1.42,2.53,2.53,0,0,0,.2-1V63.83a2.62,2.62,0,0,0-2.6-2.6H49.65a2.61,2.61,0,0,0-2.6,2.6V74.37a2.61,2.61,0,0,0,2.6,2.6H71.36a9.63,9.63,0,0,0-3.62,4.81,4.5,4.5,0,0,0-.64.11,5.18,5.18,0,0,0-3,2.08H39.18A2.63,2.63,0,0,1,36.56,81.34Zm40.22-7a.85.85,0,0,1-.85.85H49.65a.85.85,0,0,1-.85-.85V63.83a.85.85,0,0,1,.85-.85H75.93a.85.85,0,0,1,.85.85Zm16.41,14.5a3.49,3.49,0,0,1-2.59-.36L89.79,88h0l-.39.85A4.8,4.8,0,0,1,83,91.22a2.75,2.75,0,0,1-.38-.2l-.5-.29h0l-.46.35a7.86,7.86,0,0,1-10.56-.88l-.45-.49h0L70,90a3.07,3.07,0,0,1-.82.33,3.49,3.49,0,0,1-1.7-6.78,3.22,3.22,0,0,1,.87-.09h.68l.17-.65a7.87,7.87,0,0,1,9.6-5.61,8,8,0,0,1,2.88,1.44l.77.61h0l.5-.85a4.81,4.81,0,0,1,8.93,2.67l0,.8h0l.81.09a3.49,3.49,0,0,1,.47,6.86Z"/></svg>