<svg xmlns="http://www.w3.org/2000/svg" viewBox="0 0 122 122"><defs><style>.a{fill:#afca0b;stroke:#afca0b;stroke-width:0.49px;}</style></defs><path class="a" d="M30.41,91.06H36.9a2.38,2.38,0,0,0,2.34-1.94L45.67,61h0a170.94,170.94,0,0,1-2.42,27.65,2.38,2.38,0,0,0,1.61,2.73A57.8,57.8,0,0,0,61.58,94.2a58.61,58.61,0,0,0,16.71-2.78,2.35,2.35,0,0,0,1.6-2.71,175.56,175.56,0,0,1-2.41-27.65h0s0,0,0,0l6.42,28.06a2.46,2.46,0,0,0,2.34,1.94h6.62a2.49,2.49,0,0,0,1.87-.85,2.53,2.53,0,0,0,.56-2v0L86,44a8.83,8.83,0,0,0-5.49-6.48L70,32.94a2.16,2.16,0,0,0-1.52-.15,4.32,4.32,0,0,0-1.6,1,8,8,0,0,1-5.31,2.34,7.92,7.92,0,0,1-5.25-2.33,4,4,0,0,0-1.65-1,2.66,2.66,0,0,0-1.37.08l-.13,0L42.66,37.5A8.77,8.77,0,0,0,37.14,44L27.87,88.09a2.35,2.35,0,0,0,.71,2.29A2.68,2.68,0,0,0,30.41,91.06Zm-.92-2.6,9.27-44.12A7.18,7.18,0,0,1,43.28,39l10.5-4.57a1.29,1.29,0,0,1,.55,0,5.34,5.34,0,0,1,.93.69,9.6,9.6,0,0,0,6.32,2.71A9.68,9.68,0,0,0,68,35.09a5,5,0,0,1,.91-.68.52.52,0,0,1,.44,0l10.6,4.61a7.17,7.17,0,0,1,4.48,5.28l9.27,44.09a.88.88,0,0,1-.18.7.76.76,0,0,1-.61.26H86.25a.8.8,0,0,1-.72-.64l-7.82-34.2a.84.84,0,0,0-1-.63.85.85,0,0,0-.64.75C74.93,69.08,77.91,87,78.26,89a.7.7,0,0,1-.48.81,56.46,56.46,0,0,1-16.2,2.71,56.73,56.73,0,0,1-16.19-2.7A.72.72,0,0,1,44.9,89c.56-3.25,3.3-20.19,2.19-34.32a.84.84,0,0,0-.77-.76h-.06a.82.82,0,0,0-.81.64L37.62,88.77a.71.71,0,0,1-.72.62H30.29a.84.84,0,0,1-.66-.32A.71.71,0,0,1,29.49,88.46Z"/></svg>