<svg xmlns="http://www.w3.org/2000/svg" viewBox="0 0 122 122"><defs><style>.a{fill:orange;stroke:orange;stroke-width:0.7px;}</style></defs><path class="a" d="M92.21,71.7a11.58,11.58,0,0,1,11.56,11.07,9.19,9.19,0,0,1,0,1v.1a13.32,13.32,0,0,1-4.55,9.35l-.81.63v10.44H88.22V98.88H84a3.38,3.38,0,0,1-2-.57,3.28,3.28,0,0,1-1.43-2.71V90.69H77.19l3.16-5.5.27-.48v-.88a11.6,11.6,0,0,1,11-12.1Zm-.64-2.07a13.67,13.67,0,0,0-13,14.29v.22L75.4,89.6c-1.09,1.68,0,3.05,1.14,3.18h2V95.6A5.37,5.37,0,0,0,83.91,101h2.22v5.45H100.5V94.92a13.84,13.84,0,0,0,5.36-11c0-.42,0-.83,0-1.25a13.66,13.66,0,0,0-13.65-13Z"/><path class="a" d="M74.26,74.26a.79.79,0,1,1,0,1.57h-.15a.87.87,0,0,1-.62-.62.79.79,0,0,1,.62-.93h.15m0-2.09a2.88,2.88,0,0,0,0,5.75h.19a3,3,0,0,0,2.68-2.68,2.88,2.88,0,0,0-2.68-3.06h-.19Z"/><path class="a" d="M65.22,66.49a2.92,2.92,0,1,1,0,5.83H65a3.06,3.06,0,0,1-2.73-2.72A2.92,2.92,0,0,1,65,66.5h.18m0-2.09a5,5,0,0,0,.07,10h.16a5.16,5.16,0,0,0,4.81-4.8,5,5,0,0,0-4.81-5.2h-.23Z"/><path class="a" d="M51.17,16.47h.21A8.84,8.84,0,0,1,59.62,23s0,0,0,0a8.63,8.63,0,0,1,15.84,4.79,7.71,7.71,0,0,1-.25,2s0,0,0,0a7.8,7.8,0,0,1,2-.26,8.66,8.66,0,0,1,.26,17.32h-.34a0,0,0,0,0,0,0,8.61,8.61,0,0,1-8.56,7.79,7.63,7.63,0,0,1-.82,0,8.59,8.59,0,0,1-4.46-1.77h0a7.32,7.32,0,0,1,.09.93,8.68,8.68,0,0,1-8.68,8.67h0A8.68,8.68,0,0,1,46,54.54s0,0,0,0a8.5,8.5,0,0,1-6.9,3.54h0a8.69,8.69,0,0,1-8.66-8.67v-.77a0,0,0,0,0,0,0h0a9.08,9.08,0,0,1-3.45.77h-.09a8.66,8.66,0,0,1-.09-17.32H27a7.73,7.73,0,0,1,2,.25h0a7.37,7.37,0,0,1-.25-2,8.68,8.68,0,0,1,8.66-8.66,8.92,8.92,0,0,1,5.36,1.81h0a8.59,8.59,0,0,1,8.44-7m0-2.08a10.68,10.68,0,0,0-9.62,6,11,11,0,0,0-4.19-.84A10.79,10.79,0,0,0,26.62,30a10.76,10.76,0,0,0,.25,21.51H27a12.48,12.48,0,0,0,1.5-.14,10.83,10.83,0,0,0,10.59,8.8A10.54,10.54,0,0,0,45,58.39a10.78,10.78,0,0,0,20.21-2.25,11.42,11.42,0,0,0,2.39.5c.33,0,.68,0,1,0a10.64,10.64,0,0,0,10.33-7.95,10.75,10.75,0,0,0-1.33-21.35A10.8,10.8,0,0,0,66.81,17a10.6,10.6,0,0,0-6.6,2.29,11,11,0,0,0-9-4.89Z"/></svg>