<svg xmlns="http://www.w3.org/2000/svg" viewBox="0 0 122 122"><defs><style>.a{fill:#afca0b;stroke:#afca0b;stroke-width:0.49px;}</style></defs><path class="a" d="M100.35,72.75V64.88c0-5.32-8.53-8.87-18.84-10.31V48.25c0-1.77-1-4.21-5.55-6.54V33.84c0-7.2-15.4-11.08-29.93-11.08S16.11,26.64,16.11,33.84v8.87c0,2.66,2.1,4.88,5.54,6.65v7.87c-4.55,2.33-5.54,4.88-5.54,6.54v8.87c0,7.2,15.4,11.08,29.93,11.08v4.44c0,7.2,15.4,11.08,29.92,11.08s29.93-3.88,29.93-11.08V79.29C105.89,77.63,104.9,75.08,100.35,72.75Zm3.32,6.65c0,4.21-11.41,8.87-27.71,8.87-13,0-22.83-3-26.38-6.32h0a66.15,66.15,0,0,0,20.73,3c13.52,0,27.93-3.43,29.7-9.64,2.45,1.22,3.67,2.66,3.67,4.1ZM84.83,89.93v6.65c-1.44.11-2.88.33-4.43.33V90.26A27.36,27.36,0,0,0,84.83,89.93Zm2.22-.22c1.55-.22,3-.44,4.43-.78v6.54a43.13,43.13,0,0,1-4.43.78Zm6.65-1.33a29,29,0,0,0,4.43-1.44v6.43a29.79,29.79,0,0,1-4.43,1.55ZM58.23,94.92a30.32,30.32,0,0,1-4.44-1.55V86.94c1.45.55,2.89,1,4.44,1.44Zm2.21-6c1.44.34,2.88.56,4.44.78v6.65c-1.56-.22-3.11-.55-4.44-.78Zm6.65,1c1.44.11,3,.33,4.44.33v6.65l-4.44-.33ZM40.49,65v.33c-1.55-.22-3.1-.55-4.43-.77V58c1.44.33,2.88.55,4.43.77Zm2.22,8.87V69.43A13.44,13.44,0,0,0,46,71.64V78C43.92,76.52,42.71,75.19,42.71,73.86Zm55.42,0c0,1.33-1.22,2.77-3.32,4V71.53a13.44,13.44,0,0,0,3.32-2.21ZM92.59,79a30.2,30.2,0,0,1-4.43,1.55V74a30.14,30.14,0,0,0,4.43-1.44Zm-6.65,2.1a43.13,43.13,0,0,1-4.43.78V75.19c1.55-.22,3-.44,4.43-.78Zm-6.65,1.11c-1.44.11-2.88.33-4.43.33V75.85l4.43-.33Zm-6.65.44H68.2V76h4.44Zm-6.65,0-4.43-.33V75.63c1.44.11,3,.33,4.43.33ZM59.34,82c-1.55-.22-3.11-.56-4.44-.78V74.63c1.44.34,2.89.56,4.44.78Zm-6.65-1.44A29.23,29.23,0,0,1,48.25,79V72.53c1.44.55,2.88,1,4.44,1.44ZM98.13,65c0,4.21-11.41,8.87-27.71,8.87S42.71,69.2,42.71,65s11.42-8.87,27.71-8.87S98.13,60.78,98.13,65ZM42.71,60.56V58.89c.66.11,1.33.11,2,.22A23.51,23.51,0,0,0,42.71,60.56Zm34.7-6.43c.69-.45,1.35-.93,2-1.44v1.66C78.62,54.24,78.07,54.24,77.41,54.13Zm-1.67-10c2.33,1.33,3.55,2.77,3.55,4.1,0,1.89-2.44,4-6.54,5.54H70.42c-7.76,0-15.85,1.11-21.61,3.33C37.17,56.79,28.52,54,25.3,50.91h0a66,66,0,0,0,20.73,3C59.56,53.91,74,50.47,75.74,44.15ZM33.84,57.34v6.54a29.79,29.79,0,0,1-4.43-1.55V55.9A34.18,34.18,0,0,0,33.84,57.34ZM27.19,54.9v6.32c-2.11-1.33-3.32-2.66-3.32-4V52.8A16.91,16.91,0,0,0,27.19,54.9Zm-3.32-7V41.49c1.44.56,2.88,1,4.43,1.44v6.54a33.85,33.85,0,0,1-4.44-1.55ZM30.52,50V43.49c1.44.33,2.88.55,4.43.77v6.65c-1.56-.22-3-.55-4.43-.88Zm6.65,1.1V44.48c1.44.11,3,.34,4.43.34v6.65a28.64,28.64,0,0,1-4.43-.34Zm6.65.45V44.93h4.43v6.65H46a16.45,16.45,0,0,1-2.22,0Zm6.65,0V44.93l4.44-.34v6.66l-4.44.33Zm6.65-.67V44.26c1.55-.22,3-.44,4.44-.77V50a45.25,45.25,0,0,1-4.44.88Zm6.65-1.44V42.93a28.29,28.29,0,0,0,4.43-1.44v6.43a29.79,29.79,0,0,1-4.43,1.55Zm6.65-2.66V40.49a13.44,13.44,0,0,0,3.32-2.21v4.43c0,1.44-1.1,2.77-3.32,4.1Zm-48.77,0c-2.11-1.33-3.33-2.66-3.33-4V38.39a13.44,13.44,0,0,0,3.32,2.21ZM18.32,34c0-4.21,11.42-8.87,27.72-8.87S73.75,29.74,73.75,34,62.33,42.82,46,42.82,18.32,38.05,18.32,34Zm3.88,25.5c2,4.1,9.53,6.76,18.29,8v5c-13.3-.89-22.17-5-22.17-8.65,0-1.44,1.45-2.88,3.88-4.32Zm-.55,17.29c-2.11-1.33-3.33-2.66-3.33-4V68.32a13.44,13.44,0,0,0,3.32,2.21ZM28.3,79.4a30.32,30.32,0,0,1-4.44-1.55V71.42c1.44.55,2.88,1,4.44,1.44ZM35,80.84c-1.55-.22-3.1-.55-4.43-.78V73.53c1.44.33,2.88.55,4.43.77Zm2.21-6.43,3.44.33a7.09,7.09,0,0,0,1,2.33V81.5l-4.44-.33Zm6.65,4.66c.67.44,1.45.88,2.22,1.33v1.1H43.81Zm4.44,9.19V83.84a13.73,13.73,0,0,0,3.32,2.21v6.32c-2.11-1.44-3.32-2.77-3.32-4.1Zm25.5,2.12h4.43V97H73.75Zm26.6-4.44a13.44,13.44,0,0,0,3.32-2.21v4.43c0,1.33-1.22,2.77-3.32,4Z"/></svg>