<svg xmlns="http://www.w3.org/2000/svg" viewBox="0 0 122 122"><defs><style>.a{fill:#afca0b;stroke:#afca0b;stroke-width:0.59px;}</style></defs><path class="a" d="M83.53,46a13.16,13.16,0,0,0-6.23-3,11.4,11.4,0,0,0,3.19-2c5.37-4.83,5.4-13.19,5.4-13.54v-.84l-.83-.09c-.36,0-8.76-.91-14,3.92A14.24,14.24,0,0,0,67,36.52a27.39,27.39,0,0,0-4.58-8.82l-1.51,1.11a25.3,25.3,0,0,1,5.29,13.05c-.21-.13-.41-.26-.61-.41l-1.47-1.12-.56-.4a13,13,0,0,0-7.44-2.69h-.15c-13.18,0-22.77,8.4-25.66,22.51-2.07,10.1,2.22,20.53,12.09,29.37,1.67,1.49,2.95,2.7,4,3.66,2.74,2.58,3.87,3.65,6.13,4.11a36.27,36.27,0,0,0,14.51-1C79.28,92.31,88.68,83,90.9,72.19S90.48,52.2,83.53,46Zm-15-8.48a12.45,12.45,0,0,1,3.72-5.7C76,28.43,81.78,28.26,84,28.34c-.16,2.16-.94,7.85-4.75,11.27-2.43,2.26-7,3.14-10.65,3.22A10.53,10.53,0,0,1,68.57,37.54Zm20.5,34.28C87,82,78.1,90.7,66.45,94.09a34.39,34.39,0,0,1-13.69,1c-1.68-.35-2.55-1.17-5.16-3.63-1-1-2.32-2.18-4-3.69-9.36-8.38-13.45-18.18-11.51-27.59,2.7-13.18,11.6-21,23.83-21h.14a11.13,11.13,0,0,1,6.42,2.38l.46.32L64.41,43a12,12,0,0,0,1.31.83l-1.56,1.63a29.81,29.81,0,0,1-2.86,2.64c-5,4-8,9.76-7.71,15.83a.93.93,0,0,0,.93.89h0a1,1,0,0,0,.89-1c-.39-8.1,5.69-15.54,14.92-18.45a14.25,14.25,0,0,1,1.91-.44l.3,0a11.42,11.42,0,0,1,9.71,2.57C88.72,53.13,91.12,61.79,89.07,71.82Z"/></svg>