<svg id="Selection_Control_Radio_Off_Enabled" data-name="Selection Control / Radio / Off / Enabled" xmlns="http://www.w3.org/2000/svg" width="35" height="35" viewBox="0 0 35 35">
  <path id="Selection_Control_Radio_Off_Enabled-2" data-name="Selection Control / Radio / Off / Enabled" d="M22.5-328A17.506,17.506,0,0,0,5-310.5,17.506,17.506,0,0,0,22.5-293,17.506,17.506,0,0,0,40-310.5,17.506,17.506,0,0,0,22.5-328Zm0,31.5a14,14,0,0,1-14-14,14,14,0,0,1,14-14,14,14,0,0,1,14,14A14,14,0,0,1,22.5-296.5Z" transform="translate(-5 328)"/>
</svg>
