<svg xmlns="http://www.w3.org/2000/svg" width="350" height="347.469" viewBox="0 0 350 347.469">
  <g id="Gruppe_2052" data-name="Gruppe 2052" transform="translate(-93.091 321.11)">
    <g id="Gruppe_2053" data-name="Gruppe 2053" transform="translate(275.983 -320.928)">
      <path id="Pfad_22225" data-name="Pfad 22225" d="M214.371-329.469a159.636,159.636,0,0,1,143.577,89.857L214.371-169.833Z" transform="translate(-214.371 329.469)" fill="#afca0b" fill-rule="evenodd"/>
    </g>
    <g id="Gruppe_2059" data-name="Gruppe 2059" transform="translate(283.455 -218.869)">
      <path id="Pfad_22227" data-name="Pfad 22227" d="M363.787-249.346a159.635,159.635,0,0,1,6.621,123.854l-150.2-54.075Z" transform="translate(-220.21 249.346)" fill="#afca0b" fill-rule="evenodd"/>
    </g>
    <g id="Gruppe_2058" data-name="Gruppe 2058" transform="translate(280.429 -139.422)">
      <path id="Pfad_22229" data-name="Pfad 22229" d="M368.044-132.748a159.635,159.635,0,0,1-52.356,72.062L217.845-186.823Z" transform="translate(-217.845 186.823)" fill="#afca0b" fill-rule="evenodd"/>
    </g>
    <g id="Gruppe_2057" data-name="Gruppe 2057" transform="translate(275.54 -134.841)">
      <path id="Pfad_22231" data-name="Pfad 22231" d="M311.639-57.105a159.635,159.635,0,0,1-42.825,23.719L213.8-183.243Z" transform="translate(-213.797 183.243)" fill="orange" fill-rule="evenodd"/>
    </g>
    <g id="Gruppe_2056" data-name="Gruppe 2056" transform="translate(147.465 -133.283)">
      <path id="Pfad_22233" data-name="Pfad 22233" d="M285.446-32.17A159.636,159.636,0,0,1,113.375-73.48L230.429-182.025Z" transform="translate(-113.375 182.025)" fill="orange" fill-rule="evenodd"/>
    </g>
    <g id="Gruppe_2055" data-name="Gruppe 2055" transform="translate(93.091 -222.417)">
      <path id="Pfad_22235" data-name="Pfad 22235" d="M113.221-67.428A159.636,159.636,0,0,1,89.9-252l140.37,76.025Z" transform="translate(-70.636 251.997)" fill="orange" fill-rule="evenodd"/>
    </g>
    <g id="Gruppe_2054" data-name="Gruppe 2054" transform="translate(120.028 -321.111)">
      <path id="Pfad_22237" data-name="Pfad 22237" d="M91.684-246a159.636,159.636,0,0,1,140.37-83.611v159.636Z" transform="translate(-91.684 329.612)" fill="#eee7d9" fill-rule="evenodd"/>
    </g>
  </g>
</svg>
