<svg xmlns="http://www.w3.org/2000/svg" width="182.113" height="107.575" viewBox="0 0 182.113 107.575">
  <g id="Unbenannt-2_Zeichenfläche_1" data-name="Unbenannt-2_Zeichenfläche 1" transform="translate(0.75 0.778)">
    <path id="Pfad_22312" data-name="Pfad 22312" d="M170.294,124.371H134.887c-.9,0-1.206-.27-1.2-1.19v-18.37a9.708,9.708,0,0,1,8.812-9.859c1.547-.19,3.1-.1,4.656-.143,3.894-.1,7.8-.143,11.7-.23h23c4.981.087,9.962.1,14.935.262,4.37.143,7.733,2.015,9.613,6.131a7.488,7.488,0,0,1,.65,3.173v19.036c0,.88-.254,1.229-1.19,1.221q-13.135-.048-26.262,0h-9.328Z" transform="translate(-27.445 -19.356)" fill="none" stroke="#45934a" stroke-miterlimit="10" stroke-width="3.5"/>
    <path id="Pfad_22313" data-name="Pfad 22313" d="M49.565,124.424H2.483c-1.483,0-1.483,0-1.483-1.459V112.3c0-12.048,14.007-16.791,21.637-17.45a12.635,12.635,0,0,1,7.178,1.095c2.61,1.348,6,9.764,8.09,9.772" transform="translate(0 -19.393)" fill="none" stroke="#45934a" stroke-miterlimit="10" stroke-width="3.5"/>
    <path id="Pfad_22314" data-name="Pfad 22314" d="M67.195,47.876V68.815c0,1.245,0,1.309-1.261,1.309H49.753c-1.237,0-1.269-.063-1.277-1.309,0-2,.04-3.966,0-6a1.824,1.824,0,0,1,.976-1.769,24,24,0,0,0,5.148-4.2,14.174,14.174,0,0,0,3.561-9.589v-.952c0-1.793.793-2.673,2.609-2.633a2.974,2.974,0,0,0,3.173-1.943,3.966,3.966,0,0,0-.563-4.2A2.784,2.784,0,0,0,61,36.494c-2.142,0-2.832-.73-2.863-2.855-.048-2.689.143-5.386-.127-8.074a6.932,6.932,0,0,0-1.333-3.617,13.063,13.063,0,0,0-5.33-4.465c-1.079-.444-1.261-.286-1.333.857a7.86,7.86,0,0,1-8.106,7.646H30.8a8.162,8.162,0,0,0-8.495,8.059c-.1,1.674-.9,2.427-2.61,2.451a3.088,3.088,0,0,0-3.276,2.181,4.275,4.275,0,0,0,1.015,4.394,2.792,2.792,0,0,0,1.864.587c2.268,0,3.046.793,3,3.054a14.6,14.6,0,0,0,6.464,12.762c.793.6,1.642,1.2,2.5,1.745a1.388,1.388,0,0,1,.714,1.325v6.472c0,.793-.278,1.126-1.1,1.126H14.41c-.857,0-1.15-.309-1.15-1.174,0-13.579,0-27.158.079-40.737a26,26,0,0,1,3.966-13.254c3.561-5.933,8.384-10.525,15.07-12.6C42.607-.8,51.665,1.579,59.343,9c5.552,5.4,7.932,12.159,7.932,19.829C67.179,35.193,67.195,41.539,67.195,47.876Z" transform="translate(-2.536 0)" fill="none" stroke="#45934a" stroke-miterlimit="10" stroke-width="3.5"/>
    <path id="Pfad_22315" data-name="Pfad 22315" d="M181.97,73.924V67.642a1.459,1.459,0,0,1,.793-1.388A25.833,25.833,0,0,0,187.982,62a13.917,13.917,0,0,0,3.347-9.558c0-2.379.579-2.927,2.9-3.006a2.633,2.633,0,0,0,2.173-1.15,3.736,3.736,0,0,0,.19-4.053,2.808,2.808,0,0,0-2.935-1.642,2.224,2.224,0,0,1-2.514-2.522c0-1.967-.063-3.966,0-5.9a9.224,9.224,0,0,0-3.775-8.1,10.383,10.383,0,0,0-2.887-1.8c-.706-.246-1.031-.087-1.095.738-.381,4.719-3.4,7.472-8.154,7.48H164.766a7.813,7.813,0,0,0-8.027,7.5c-.143,1.872-.912,2.6-2.776,2.617a3.076,3.076,0,0,0-3.093,3.363c-.016,2.007,1.142,3.45,3.038,3.45s2.855.857,2.792,2.879a13.373,13.373,0,0,0,2.609,8.852,20.892,20.892,0,0,0,5.631,4.918,1.832,1.832,0,0,1,1.1,1.729v6.091" transform="translate(-30.999 -4.792)" fill="none" stroke="#45934a" stroke-miterlimit="10" stroke-width="3.5"/>
    <path id="Pfad_22316" data-name="Pfad 22316" d="M158.4,56.671c-7.035.523-12.445-11.445-12.445-15.07,0-3.966-.04-7.868,0-11.8.143-10.486,4.688-18.695,13.23-24.588a23.987,23.987,0,0,1,18.346-3.744,25.262,25.262,0,0,1,10.747,4.386c6.71,4.894,10.771,11.4,11.414,19.829.238,3.173.119,6.274.214,10.018v6.155c0,3.276-3.879,13.484-12.326,14.729" transform="translate(-29.979 -0.007)" fill="none" stroke="#45934a" stroke-miterlimit="10" stroke-width="3.5"/>
    <path id="Pfad_22317" data-name="Pfad 22317" d="M44.97,105.706c2.594,0,5.187-8.408,7.789-9.756a12.264,12.264,0,0,1,7.186-1.095c7.63.65,21.629,5.393,21.629,17.45v10.668c0,1.459,0,1.459-1.483,1.459H35.46" transform="translate(-7.128 -19.394)" fill="none" stroke="#45934a" stroke-miterlimit="10" stroke-width="3.5"/>
    <path id="Pfad_22318" data-name="Pfad 22318" d="M44.876,68.759a9.653,9.653,0,0,1-6.559-2.379,1.38,1.38,0,0,1-.476-1.547A1.214,1.214,0,0,1,39.015,64a1.229,1.229,0,0,1,1,.452c2.142,2.221,6.988,2.379,9.32,0a1.285,1.285,0,1,1,1.785,1.84,8.645,8.645,0,0,1-5.092,2.379A5.818,5.818,0,0,1,44.876,68.759Z" transform="translate(-7.605 -13.031)" fill="#45934a"/>
    <path id="Pfad_22319" data-name="Pfad 22319" d="M179.013,69.02a9.653,9.653,0,0,1-6.559-2.379,1.38,1.38,0,0,1-.476-1.586,1.229,1.229,0,0,1,1.174-.865,1.261,1.261,0,0,1,1,.46c2.142,2.221,6.988,2.379,9.32,0a1.285,1.285,0,1,1,1.785,1.84,8.646,8.646,0,0,1-5.092,2.379A10.25,10.25,0,0,1,179.013,69.02Z" transform="translate(-35.347 -13.07)" fill="#45934a"/>
    <path id="Pfad_22320" data-name="Pfad 22320" d="M38,49.736a2.625,2.625,0,0,1-.619,1.888,1.713,1.713,0,0,1-2.84-.357,2.721,2.721,0,0,1,.246-3.077,1.7,1.7,0,0,1,2.689.1A2.379,2.379,0,0,1,38,49.736Z" transform="translate(-6.863 -9.633)" fill="#45934a"/>
    <path id="Pfad_22321" data-name="Pfad 22321" d="M57.79,49.736a2.665,2.665,0,0,1-.627,1.888,1.713,1.713,0,0,1-2.84-.357,2.7,2.7,0,0,1,.246-3.077,1.7,1.7,0,0,1,2.689.1A2.491,2.491,0,0,1,57.79,49.736Z" transform="translate(-10.953 -9.633)" fill="#45934a"/>
    <path id="Pfad_22322" data-name="Pfad 22322" d="M171.352,51.955a2.665,2.665,0,0,1-.619,1.888,1.713,1.713,0,0,1-2.84-.357,2.7,2.7,0,0,1,.246-3.077,1.689,1.689,0,0,1,2.689.1A2.475,2.475,0,0,1,171.352,51.955Z" transform="translate(-34.444 -10.091)" fill="#45934a"/>
    <path id="Pfad_22323" data-name="Pfad 22323" d="M191.182,51.955a2.665,2.665,0,0,1-.619,1.888,1.713,1.713,0,0,1-2.84-.357,2.7,2.7,0,0,1,.246-3.077,1.689,1.689,0,0,1,2.689.1A2.475,2.475,0,0,1,191.182,51.955Z" transform="translate(-38.546 -10.091)" fill="#45934a"/>
  </g>
</svg>
