<svg xmlns="http://www.w3.org/2000/svg" width="122" height="117.139" viewBox="0 0 122 117.139">
  <g id="Gruppe_1907" data-name="Gruppe 1907" transform="translate(-14.423 141.172)">
    <g id="Gruppe_1987" data-name="Gruppe 1987" transform="translate(78.336 -141.172)">
      <path id="Pfad_22161" data-name="Pfad 22161" d="M66.809-141.172a55.49,55.49,0,0,1,49.908,31.235L66.809-85.681Z" transform="translate(-66.809 141.172)" fill="#eee7d9" fill-rule="evenodd"/>
    </g>
    <g id="Gruppe_1990" data-name="Gruppe 1990" transform="translate(80.933 -105.529)">
      <path id="Pfad_22163" data-name="Pfad 22163" d="M118.847-111.958a55.49,55.49,0,0,1,2.3,43.052L68.938-87.7Z" transform="translate(-68.938 111.958)" fill="#eee7d9" fill-rule="evenodd"/>
    </g>
    <g id="Gruppe_1991" data-name="Gruppe 1991" transform="translate(79.881 -77.716)">
      <path id="Pfad_22165" data-name="Pfad 22165" d="M120.286-70.364a55.492,55.492,0,0,1-18.2,25.049L68.076-89.16Z" transform="translate(-68.076 89.16)" fill="#eee7d9" fill-rule="evenodd"/>
    </g>
    <g id="Gruppe_1989" data-name="Gruppe 1989" transform="translate(78.081 -76.123)">
      <path id="Pfad_22167" data-name="Pfad 22167" d="M100.611-44.009a55.49,55.49,0,0,1-14.886,8.245L66.6-87.855Z" transform="translate(-66.6 87.855)" fill="#f39100" fill-rule="evenodd"/>
    </g>
    <g id="Gruppe_1988" data-name="Gruppe 1988" transform="translate(14.423 -135.497)">
      <path id="Pfad_22169" data-name="Pfad 22169" d="M89.053-28.939A55.49,55.49,0,0,1,17.838-61.906,55.49,55.49,0,0,1,50.8-133.121a55.491,55.491,0,0,1,19.124-3.4v55.49Z" transform="translate(-14.423 136.52)" fill="#eee7d9" fill-rule="evenodd"/>
    </g>
  </g>
</svg>
