<svg xmlns="http://www.w3.org/2000/svg" width="105.14" height="107.799" viewBox="0 0 105.14 107.799">
  <g id="Icons" transform="translate(-4.619 -3.6)">
    <path id="Pfad_22135" data-name="Pfad 22135" d="M81.44,59.339A13.444,13.444,0,0,1,94.885,72.2c.018.406.018.817,0,1.223l0,.061v.061A15.49,15.49,0,0,1,89.59,84.412l-.939.728V97.275H76.805V90.932H71.93a4,4,0,0,1-2.285-.657,3.809,3.809,0,0,1-1.666-3.154v-5.7H63.993c-.012,0-.016-.008-.01-.018l3.669-6.391.322-.561V73.48l0-.055A13.488,13.488,0,0,1,80.817,59.353C81.025,59.344,81.234,59.339,81.44,59.339Zm-.734-2.41a15.9,15.9,0,0,0-15.16,16.607V73.8l-3.641,6.344c-1.268,1.957-.053,3.542,1.322,3.7h2.325v3.277a6.237,6.237,0,0,0,6.236,6.238h2.59V99.7h16.7V86.329A16.108,16.108,0,0,0,97.31,73.536q.033-.721,0-1.443A15.9,15.9,0,0,0,81.44,56.912S80.952,56.918,80.706,56.929Z" transform="translate(12.032 11.297)" fill="#45934a" stroke="#45934a" stroke-width="0.8"/>
    <path id="Pfad_22136" data-name="Pfad 22136" d="M61.307,61.783a.916.916,0,1,1-.184,1.814,1,1,0,0,1-.713-.713.917.917,0,0,1,.9-1.1m0-2.427a3.343,3.343,0,1,0,0,6.686q.106,0,.213-.007a3.488,3.488,0,0,0,3.122-3.122,3.343,3.343,0,0,0-3.122-3.55Q61.414,59.356,61.307,59.356Z" transform="translate(11.305 11.819)" fill="#45934a" stroke="#45934a" stroke-width="0.8"/>
    <path id="Pfad_22137" data-name="Pfad 22137" d="M53.08,54.343a3.391,3.391,0,1,1,0,6.782q-.107,0-.215-.007A3.541,3.541,0,0,1,49.7,57.953a3.394,3.394,0,0,1,3.171-3.6q.106-.007.212-.007m-.035-2.427a5.818,5.818,0,1,0,.073,11.636q.095,0,.189,0a6,6,0,0,0,5.586-5.586,5.817,5.817,0,0,0-5.584-6.041q-.114,0-.228,0Z" transform="translate(9.02 10.231)" fill="#45934a" stroke="#45934a" stroke-width="0.8"/>
    <path id="Pfad_22138" data-name="Pfad 22138" d="M45.76,6.427l.25,0a10.244,10.244,0,0,1,9.574,7.527c0,.013.013.015.02,0a10,10,0,0,1,8.344-4.512A10.1,10.1,0,0,1,74.02,19.521a9.137,9.137,0,0,1-.3,2.3c0,.01,0,.017.014.014a9.134,9.134,0,0,1,2.3-.3,10.074,10.074,0,0,1,.3,20.139c-.089,0-.34.007-.392.007a.011.011,0,0,0-.01.01,10.007,10.007,0,0,1-9.948,9.057q-.473,0-.952-.045a10.006,10.006,0,0,1-5.19-2.054c-.012-.009-.021,0-.019.01a8.332,8.332,0,0,1,.1,1.081A10.094,10.094,0,0,1,49.828,59.822h-.015a10.093,10.093,0,0,1-10.033-9.144c0-.017-.011-.019-.02-.006a9.873,9.873,0,0,1-8.013,4.106h-.026A10.1,10.1,0,0,1,21.651,44.7v-.889a.011.011,0,0,0-.009-.012h-.007a10.692,10.692,0,0,1-4.011.9h-.108a10.074,10.074,0,0,1-.1-20.147h.212a9.123,9.123,0,0,1,2.3.3c.01,0,.017,0,.014-.014a8.576,8.576,0,0,1-.3-2.3A10.1,10.1,0,0,1,29.712,12.471a10.363,10.363,0,0,1,6.228,2.1.011.011,0,0,0,.015,0,.01.01,0,0,0,0-.007,9.973,9.973,0,0,1,9.8-8.142M45.76,4a12.4,12.4,0,0,0-11.174,7.026,12.878,12.878,0,0,0-4.88-.982,12.559,12.559,0,0,0-12.488,12.09,12.5,12.5,0,0,0,.3,25h.174a13.172,13.172,0,0,0,1.746-.164A12.58,12.58,0,0,0,31.748,57.205a12.314,12.314,0,0,0,6.787-2.046,12.529,12.529,0,0,0,23.495-2.624,12.436,12.436,0,0,0,2.774.586c.392.036.789.056,1.18.056a12.365,12.365,0,0,0,12.007-9.24A12.5,12.5,0,0,0,76.439,19.12a12.562,12.562,0,0,0-12.494-12.1A12.388,12.388,0,0,0,56.27,9.685,12.738,12.738,0,0,0,45.837,4Z" transform="translate(0)" fill="#45934a" stroke="#45934a" stroke-width="0.8"/>
  </g>
</svg>
