<svg xmlns="http://www.w3.org/2000/svg" width="168.242" height="105.682" viewBox="0 0 168.242 105.682">
  <g id="Icons" transform="translate(-3.408 -20.067)">
    <path id="Pfad_22043" data-name="Pfad 22043" d="M32.247,40.952a1.886,1.886,0,0,0-1.886-1.886h0a1.886,1.886,0,0,0-1.886,1.886V54.937L34.482,76.82H11.148L17.155,55.2V40.952a1.886,1.886,0,0,0-1.886-1.886h0a1.886,1.886,0,0,0-1.886,1.886V54.678L6.185,80.6h7.2v28.3H32.247V80.6h7.2l-7.2-25.92ZM17.155,80.6h3.773v24.524H17.155Zm11.319,24.524H24.7V80.6h3.773Z" transform="translate(2.462 16.842)" fill="#45934a"/>
    <path id="Pfad_22044" data-name="Pfad 22044" d="M48.978,39.067a1.886,1.886,0,0,0-1.886,1.886v64.179H43.319V67.364H39.546v37.769H35.773V40.953a1.886,1.886,0,0,0-3.773,0v67.952H50.865V40.953A1.886,1.886,0,0,0,48.978,39.067Z" transform="translate(25.346 16.843)" fill="#45934a"/>
    <path id="Pfad_22045" data-name="Pfad 22045" d="M41.432,38.932A9.432,9.432,0,1,0,32,29.5,9.432,9.432,0,0,0,41.432,38.932Zm0-15.092A5.659,5.659,0,1,1,35.773,29.5,5.659,5.659,0,0,1,41.432,23.84Z" transform="translate(25.346 0)" fill="#45934a"/>
    <path id="Pfad_22046" data-name="Pfad 22046" d="M19.432,38.932A9.432,9.432,0,1,0,10,29.5,9.432,9.432,0,0,0,19.432,38.932Zm0-15.092A5.659,5.659,0,1,1,13.773,29.5,5.659,5.659,0,0,1,19.432,23.84Z" transform="translate(5.844 0)" fill="#45934a"/>
    <path id="Pfad_22047" data-name="Pfad 22047" d="M76.247,40.952a1.886,1.886,0,0,0-1.886-1.886h0a1.886,1.886,0,0,0-1.886,1.886V54.937L78.483,76.82H55.149L61.156,55.2V40.952a1.886,1.886,0,0,0-1.886-1.886h0a1.886,1.886,0,0,0-1.886,1.886V54.678l-7.2,25.92h7.2v28.3H76.247V80.6h7.2l-7.2-25.918ZM61.156,80.6h3.773v24.524H61.156Zm11.319,24.524H68.7V80.6h3.773Z" transform="translate(41.465 16.842)" fill="#45934a"/>
    <path id="Pfad_22048" data-name="Pfad 22048" d="M92.978,39.067a1.886,1.886,0,0,0-1.886,1.886v64.179H87.319V67.364H83.546v37.769H79.773V40.953a1.886,1.886,0,0,0-3.773,0v67.952H94.865V40.953A1.886,1.886,0,0,0,92.978,39.067Z" transform="translate(64.35 16.843)" fill="#45934a"/>
    <path id="Pfad_22049" data-name="Pfad 22049" d="M85.432,38.932A9.432,9.432,0,1,0,76,29.5,9.432,9.432,0,0,0,85.432,38.932Zm0-15.092A5.659,5.659,0,1,1,79.773,29.5,5.659,5.659,0,0,1,85.432,23.84Z" transform="translate(64.35 0)" fill="#45934a"/>
    <path id="Pfad_22050" data-name="Pfad 22050" d="M63.432,38.932A9.432,9.432,0,1,0,54,29.5,9.432,9.432,0,0,0,63.432,38.932Zm0-15.092A5.659,5.659,0,1,1,57.773,29.5,5.659,5.659,0,0,1,63.432,23.84Z" transform="translate(44.848 0)" fill="#45934a"/>
    <path id="Pfad_22051" data-name="Pfad 22051" d="M171.543,67.095l-4.782-27.127a5.6,5.6,0,0,0-1.956-3.03,23.666,23.666,0,0,0-8.042-3.916,28.51,28.51,0,0,0-6.929-.955,25.876,25.876,0,0,0-6.776.962,23.628,23.628,0,0,0-8.017,3.911,5.342,5.342,0,0,0-1.979,3.137l-4.014,21.3a.019.019,0,1,1-.038,0l-4.028-21.411a5.266,5.266,0,0,0-1.956-3.03,23.636,23.636,0,0,0-8.006-3.907,25.926,25.926,0,0,0-6.791-.964,28.577,28.577,0,0,0-6.957.962,23.445,23.445,0,0,0-7.923,3.848A5.709,5.709,0,0,0,91.272,40.1L87.431,62.332a.019.019,0,0,1-.038,0L83.756,39.968a5.6,5.6,0,0,0-1.956-3.03,23.665,23.665,0,0,0-8.042-3.916,28.51,28.51,0,0,0-6.929-.955,25.876,25.876,0,0,0-6.776.962,23.628,23.628,0,0,0-8.017,3.911,5.342,5.342,0,0,0-1.979,3.137l-4.014,21.3a.019.019,0,1,1-.038,0L41.977,39.968a5.267,5.267,0,0,0-1.956-3.03,23.636,23.636,0,0,0-8.006-3.907,25.926,25.926,0,0,0-6.791-.964,28.577,28.577,0,0,0-6.957.962,23.445,23.445,0,0,0-7.923,3.848A5.714,5.714,0,0,0,8.268,40.1L3.508,67.11A6.5,6.5,0,0,0,6.845,73.98a1.886,1.886,0,1,0,1.842-3.293c-.047-.026-.1-.051-.144-.073a2.733,2.733,0,0,1-1.321-2.866l4.737-26.867a2.075,2.075,0,0,1,.566-.926,19.845,19.845,0,0,1,6.7-3.275,24.894,24.894,0,0,1,6.014-.841,22.156,22.156,0,0,1,5.8.834,19.846,19.846,0,0,1,6.723,3.282,1.448,1.448,0,0,1,.538.817L44.175,72.03a1.886,1.886,0,0,0,3.709,0l5.848-31.149a1.537,1.537,0,0,1,.566-.926,19.869,19.869,0,0,1,6.735-3.284,22.1,22.1,0,0,1,5.793-.832,24.828,24.828,0,0,1,5.986.834A20.031,20.031,0,0,1,79.6,40a2.353,2.353,0,0,1,.464.726L85.5,74.137a1.886,1.886,0,0,0,1.853,1.583h.009a1.886,1.886,0,0,0,1.858-1.564l5.742-33.273a2.076,2.076,0,0,1,.566-.926,19.844,19.844,0,0,1,6.7-3.275,24.894,24.894,0,0,1,6.014-.841,22.156,22.156,0,0,1,5.8.834,19.846,19.846,0,0,1,6.723,3.282,1.448,1.448,0,0,1,.538.817l5.876,31.257a1.886,1.886,0,0,0,3.709,0l5.848-31.149a1.537,1.537,0,0,1,.566-.926,19.87,19.87,0,0,1,6.735-3.284,22.1,22.1,0,0,1,5.793-.832,24.828,24.828,0,0,1,5.986.834A20.03,20.03,0,0,1,162.607,40a2.265,2.265,0,0,1,.468.755l4.76,26.976a2.667,2.667,0,0,1-1.741,3.039,2.478,2.478,0,0,1-1.083.051,1.887,1.887,0,0,0-.658,3.716,6.238,6.238,0,0,0,2.717-.123A6.431,6.431,0,0,0,171.543,67.095Z" transform="translate(0 10.638)" fill="#45934a"/>
  </g>
</svg>
