<svg xmlns="http://www.w3.org/2000/svg" width="122" height="121.473" viewBox="0 0 122 121.473">
  <g id="Gruppe_1918" data-name="Gruppe 1918" transform="translate(-63.654 129.203)">
    <g id="Gruppe_1996" data-name="Gruppe 1996" transform="translate(127.379 -129.203)">
      <path id="Pfad_22178" data-name="Pfad 22178" d="M115.718-129.2a55.669,55.669,0,0,1,50.069,31.335L115.718-73.533Z" transform="translate(-115.718 129.203)" fill="#eee7d9" fill-rule="evenodd"/>
    </g>
    <g id="Gruppe_1995" data-name="Gruppe 1995" transform="translate(129.984 -93.446)">
      <path id="Pfad_22180" data-name="Pfad 22180" d="M167.916-99.989A55.669,55.669,0,0,1,170.225-56.8L117.847-75.655Z" transform="translate(-117.847 99.989)" fill="#eee7d9" fill-rule="evenodd"/>
    </g>
    <g id="Gruppe_1994" data-name="Gruppe 1994" transform="translate(128.929 -65.542)">
      <path id="Pfad_22182" data-name="Pfad 22182" d="M169.363-58.334A55.67,55.67,0,0,1,151.1-33.2l-34.12-43.987Z" transform="translate(-116.985 77.191)" fill="#eee7d9" fill-rule="evenodd"/>
    </g>
    <g id="Gruppe_1993" data-name="Gruppe 1993" transform="translate(127.123 -63.945)">
      <path id="Pfad_22184" data-name="Pfad 22184" d="M149.629-31.9a55.67,55.67,0,0,1-14.934,8.271L115.509-75.886Z" transform="translate(-115.509 75.886)" fill="#eee7d9" fill-rule="evenodd"/>
    </g>
    <g id="Gruppe_1992" data-name="Gruppe 1992" transform="translate(82.306 -63.401)">
      <path id="Pfad_22186" data-name="Pfad 22186" d="M138.9-23.183A55.669,55.669,0,0,1,78.893-37.59l40.82-37.853Z" transform="translate(-78.893 75.442)" fill="#f39100" fill-rule="evenodd"/>
    </g>
    <g id="Gruppe_1997" data-name="Gruppe 1997" transform="translate(63.654 -126.711)">
      <path id="Pfad_22188" data-name="Pfad 22188" d="M78.5-33.645a55.669,55.669,0,0,1,2.967-78.673,55.67,55.67,0,0,1,37.853-14.849V-71.5Z" transform="translate(-63.654 127.167)" fill="#eee7d9" fill-rule="evenodd"/>
    </g>
  </g>
</svg>
