<svg xmlns="http://www.w3.org/2000/svg" width="122" height="121.118" viewBox="0 0 122 121.118">
  <g id="Gruppe_1930" data-name="Gruppe 1930" transform="translate(-63.309 129.255)">
    <g id="Gruppe_2004" data-name="Gruppe 2004" transform="translate(127.235 -129.191)">
      <path id="Pfad_22193" data-name="Pfad 22193" d="M115.718-129.2a55.477,55.477,0,0,1,49.9,31.227l-49.9,24.25Z" transform="translate(-115.718 129.203)" fill="#eee7d9" fill-rule="evenodd"/>
    </g>
    <g id="Gruppe_2003" data-name="Gruppe 2003" transform="translate(129.832 -93.557)">
      <path id="Pfad_22195" data-name="Pfad 22195" d="M167.744-99.989a55.477,55.477,0,0,1,2.3,43.043l-52.2-18.792Z" transform="translate(-117.847 99.989)" fill="#eee7d9" fill-rule="evenodd"/>
    </g>
    <g id="Gruppe_2002" data-name="Gruppe 2002" transform="translate(128.78 -65.75)">
      <path id="Pfad_22197" data-name="Pfad 22197" d="M169.183-58.4a55.478,55.478,0,0,1-18.2,25.044l-34-43.836Z" transform="translate(-116.985 77.191)" fill="#eee7d9" fill-rule="evenodd"/>
    </g>
    <g id="Gruppe_2001" data-name="Gruppe 2001" transform="translate(126.98 -64.158)">
      <path id="Pfad_22199" data-name="Pfad 22199" d="M149.511-32.05a55.477,55.477,0,0,1-14.883,8.243l-19.12-52.079Z" transform="translate(-115.509 75.886)" fill="#eee7d9" fill-rule="evenodd"/>
    </g>
    <g id="Gruppe_2000" data-name="Gruppe 2000" transform="translate(82.317 -63.617)">
      <path id="Pfad_22201" data-name="Pfad 22201" d="M138.692-23.363a55.478,55.478,0,0,1-59.8-14.357l40.679-37.722Z" transform="translate(-78.893 75.442)" fill="#eee7d9" fill-rule="evenodd"/>
    </g>
    <g id="Gruppe_1999" data-name="Gruppe 1999" transform="translate(63.309 -94.736)">
      <path id="Pfad_22203" data-name="Pfad 22203" d="M78.109-36.812a55.478,55.478,0,0,1-8.1-64.143l48.782,26.421Z" transform="translate(-63.309 100.955)" fill="#f39100" fill-rule="evenodd"/>
    </g>
    <g id="Gruppe_1998" data-name="Gruppe 1998" transform="translate(72.67 -129.255)">
      <path id="Pfad_22205" data-name="Pfad 22205" d="M70.984-100.2a55.478,55.478,0,0,1,48.782-29.057v55.478Z" transform="translate(-70.984 129.255)" fill="#eee7d9" fill-rule="evenodd"/>
    </g>
  </g>
</svg>
