<svg xmlns="http://www.w3.org/2000/svg" xmlns:xlink="http://www.w3.org/1999/xlink" width="122" height="133.465" viewBox="0 0 122 133.465">
  <defs>
    <clipPath id="clip-path">
      <path id="Pfad_22248" data-name="Pfad 22248" d="M-.04,133.425l121.83-.17.17-133.3H-.04Z" transform="translate(0.04 0.04)" fill="none"/>
    </clipPath>
  </defs>
  <g id="Die_junge_Familie_Zeichenfläche_1_Zeichenfläche_1" data-name="Die junge Familie_Zeichenfläche 1_Zeichenfläche 1" transform="translate(0.04 0.04)">
    <g id="Gruppe_1978" data-name="Gruppe 1978" transform="translate(67.34 1.3)">
      <path id="Pfad_22246" data-name="Pfad 22246" d="M67.39,1.3a60.24,60.24,0,0,1,52.79,31.221l-52.79,29Z" transform="translate(-67.39 -1.3)" fill="#acc435" fill-rule="evenodd"/>
      <path id="Pfad_22253" data-name="Pfad 22253" d="M67.39,1.3a60.24,60.24,0,0,1,52.79,31.221l-52.79,29Z" transform="translate(-67.39 -1.3)" fill="#acc435" fill-rule="evenodd"/>
    </g>
    <g id="Gruppe_1975" data-name="Gruppe 1975" transform="translate(-0.04 -0.04)" clip-path="url(#clip-path)">
      <path id="Pfad_22247" data-name="Pfad 22247" d="M113.694,43.4a60.215,60.215,0,0,1-23.73,81.776h0a60.215,60.215,0,0,1-81.806-23.76h0a60.205,60.205,0,0,1,23.76-81.776h0A60.175,60.175,0,0,1,60.905,12.19V72.4Z" transform="translate(0.04 0.035)" fill="#ede7da" fill-rule="evenodd"/>
    </g>
  </g>
</svg>
