<svg xmlns="http://www.w3.org/2000/svg" width="122" height="119.797" viewBox="0 0 122 119.797">
  <g id="Gruppe_1982" data-name="Gruppe 1982" transform="translate(-688.31 -14295.168)">
    <g id="Gruppe_1980" data-name="Gruppe 1980" transform="translate(752.376 14295.168)">
      <path id="Pfad_22120" data-name="Pfad 22120" d="M84.635-133.336a55.343,55.343,0,0,1,49.776,31.152L84.635-77.993Z" transform="translate(-84.635 133.336)" fill="#eee7d9" fill-rule="evenodd"/>
    </g>
    <g id="Gruppe_1981" data-name="Gruppe 1981" transform="translate(754.966 14331.29)">
      <path id="Pfad_22122" data-name="Pfad 22122" d="M137-97.788a55.343,55.343,0,0,1,2.3,42.938L87.225-73.6Z" transform="translate(-87.225 97.788)" fill="#afca0b" fill-rule="evenodd"/>
    </g>
    <g id="Gruppe_1979" data-name="Gruppe 1979" transform="translate(688.31 14303.041)">
      <path id="Pfad_22124" data-name="Pfad 22124" d="M130.487-50.555A55.992,55.992,0,0,1,58.848-16.863a55.946,55.946,0,0,1-33.71-71.6,55.983,55.983,0,0,1,52.674-37v55.954Z" transform="translate(-21.813 125.463)" fill="#eee7d9" fill-rule="evenodd"/>
    </g>
  </g>
</svg>
