<svg xmlns="http://www.w3.org/2000/svg" width="122" height="117.703" viewBox="0 0 122 117.703">
  <g id="Gruppe_1896" data-name="Gruppe 1896" transform="translate(-23.581 128.498)">
    <g id="Gruppe_1984" data-name="Gruppe 1984" transform="translate(88.156 -128.497)">
      <path id="Pfad_22126" data-name="Pfad 22126" d="M88.089-128.5a54.857,54.857,0,0,1,49.339,30.878L88.089-73.64Z" transform="translate(-88.089 128.497)" fill="#eee7d9" fill-rule="evenodd"/>
    </g>
    <g id="Gruppe_1986" data-name="Gruppe 1986" transform="translate(90.724 -92.516)">
      <path id="Pfad_22128" data-name="Pfad 22128" d="M140.059-92.4a54.858,54.858,0,0,1,2.275,42.561L90.72-68.416Z" transform="translate(-90.72 92.395)" fill="#eee7d9" fill-rule="evenodd"/>
    </g>
    <g id="Gruppe_1983" data-name="Gruppe 1983" transform="translate(89.684 -64.208)">
      <path id="Pfad_22130" data-name="Pfad 22130" d="M141.269-45.641a54.858,54.858,0,0,1-17.992,24.764L89.655-64.223Z" transform="translate(-89.655 64.223)" fill="#afca0b" fill-rule="evenodd"/>
    </g>
    <g id="Gruppe_1985" data-name="Gruppe 1985" transform="translate(23.581 -122.07)">
      <path id="Pfad_22132" data-name="Pfad 22132" d="M112.064-22.315A54.345,54.345,0,0,1,35.1-32.176a56.167,56.167,0,0,1,9.723-78.061,54.366,54.366,0,0,1,33.622-11.675v55.636Z" transform="translate(-23.581 121.912)" fill="#eee7d9" fill-rule="evenodd"/>
    </g>
  </g>
</svg>
