<svg xmlns="http://www.w3.org/2000/svg" viewBox="0 0 122 122"><defs><style>.a{fill:orange;stroke:orange;stroke-width:0.32px;}</style></defs><circle class="a" cx="45.42" cy="67.43" r="1.63"/><circle class="a" cx="49.08" cy="54" r="1.22"/><circle class="a" cx="53.15" cy="61.33" r="1.22"/><circle class="a" cx="71.05" cy="67.02" r="1.22"/><circle class="a" cx="73.09" cy="59.29" r="1.63"/><path class="a" d="M60.88,30.81a.82.82,0,0,0,.81-.82V25.92a.81.81,0,0,0-1.62,0V30A.82.82,0,0,0,60.88,30.81Z"/><path class="a" d="M56.86,30.79a.82.82,0,0,0,1.15,0,.81.81,0,0,0,0-1.15l0,0-2.88-2.88A.81.81,0,0,0,54,27.91Z"/><path class="a" d="M64.32,31a.83.83,0,0,0,.58-.24l2.88-2.88a.81.81,0,1,0-1.13-1.17l0,0-2.88,2.88a.81.81,0,0,0,0,1.15A.82.82,0,0,0,64.32,31Z"/><path class="a" d="M76.11,89.08a5.16,5.16,0,0,1-2,1.25l-2.31.83h0c-1.89.76-2.15,1.7-2,2.37.22,1.24,2,1.57,3.93,1.57a26.61,26.61,0,0,0,4.27-.41c1.31-.22,7.79-1.41,7.39-3.84-.11-.66-.67-1.46-2.74-1.55H80.07a5.11,5.11,0,0,1-2.34-.5l-.13-.65-2-11.85a7.35,7.35,0,0,0,2.22-.92,8.56,8.56,0,0,0,3.84-8.71L74.28,33.05a1.35,1.35,0,0,0-1.37-1.11l-.28,0-11.4,2a1.42,1.42,0,0,0-.35.11,1.65,1.65,0,0,0-.36-.11l-11.4-2-.28,0a1.35,1.35,0,0,0-1.37,1.11L40.12,66.67A8.55,8.55,0,0,0,44,75.37a7.53,7.53,0,0,0,2.23.93l-2,11.85L44,88.8a5.15,5.15,0,0,1-2.35.5H39.18c-2,.09-2.6.9-2.71,1.56-.4,2.42,6.08,3.61,7.37,3.83a24.49,24.49,0,0,0,4.26.41c.33,0,.65,0,.94,0,.69,0,2.77-.18,3-1.54.11-.67-.14-1.61-2-2.37l-2.35-.85a5.11,5.11,0,0,1-2-1.24l2.15-12.49A8.27,8.27,0,0,0,49,76.7a6.64,6.64,0,0,0,1.26-.12A8.58,8.58,0,0,0,57,69.68l3.85-28.09s0,0,0,0l3.85,28.09a8.57,8.57,0,0,0,6.74,6.9,6.75,6.75,0,0,0,1.27.12A8.52,8.52,0,0,0,74,76.59l2,11.83Zm-29,2.78,2.29.83a3.47,3.47,0,0,1,.93.5s0,0,0,0c-.65.28-2.84.48-6.24-.12s-5.38-1.48-5.92-2h0a3.21,3.21,0,0,1,1-.17l2.43,0a7.4,7.4,0,0,0,2.93-.58,7.5,7.5,0,0,0,2.56,1.52Zm8.27-22.44A7,7,0,0,1,50,75a5,5,0,0,1-1,.09A7,7,0,0,1,47.8,75L47,74.82a6,6,0,0,1-2.2-.82,6.92,6.92,0,0,1-3.12-7l3.88-17.71a10.47,10.47,0,0,0,3.09.51,12.65,12.65,0,0,0,3.9-.74,7.77,7.77,0,0,1,5.64-.14Zm3-22.16a9.24,9.24,0,0,0-6.34.24,9,9,0,0,1-6.17.18L49,33.6l11,2ZM72.73,33.6l3.08,14.08a8.88,8.88,0,0,1-6.16-.18,9.3,9.3,0,0,0-6.34-.24L61.7,35.56ZM71.8,75a7,7,0,0,1-5.46-5.56L63.53,48.91a7.75,7.75,0,0,1,5.63.14,12.65,12.65,0,0,0,3.9.74,10.54,10.54,0,0,0,3.1-.51L80,67a6.93,6.93,0,0,1-3.11,7,6,6,0,0,1-2.2.82l-.78.14a6.87,6.87,0,0,1-1.2.11A4.91,4.91,0,0,1,71.8,75Zm5.82,18.11c-3.37.6-5.55.4-6.22.12h0a3.12,3.12,0,0,1,.92-.52l2.27-.81a7.56,7.56,0,0,0,2.58-1.52,7.68,7.68,0,0,0,2.92.58h2.42a3.51,3.51,0,0,1,1.06.17s0,0,0,0C83,91.6,81,92.53,77.62,93.09Z"/></svg>