<svg xmlns="http://www.w3.org/2000/svg" viewBox="0 0 122 122"><defs><style>.a{fill:#fff;stroke:#fff;stroke-width:0.55px;}</style></defs><path class="a" d="M23.13,49H40.35v8l8-8h6.88l4.59,8,4.59-8h6.89l8,8V49H97.72a4.6,4.6,0,0,0,4.59-4.59V20.26a4.59,4.59,0,0,0-4.59-4.58H23.13a4.59,4.59,0,0,0-4.59,4.58v24.1A4.6,4.6,0,0,0,23.13,49ZM20.84,20.26A2.29,2.29,0,0,1,23.13,18H97.72A2.29,2.29,0,0,1,100,20.26h0v24.1a2.3,2.3,0,0,1-2.29,2.3H77.06v4.78L73,47.33l-.67-.67H63.11l-.66,1.15-2.6,4.55-2.59-4.55-.66-1.15H47.43l-.67.67-4.11,4.11V46.66H23.13a2.3,2.3,0,0,1-2.29-2.3Z"/><rect class="a" x="36.87" y="26.1" width="53.98" height="1.98"/><rect class="a" x="29.93" y="31.55" width="60.91" height="2.48"/><rect class="a" x="48.26" y="37.49" width="42.59" height="2.48"/><path class="a" d="M76.22,71.6a8.88,8.88,0,1,0,8.88-8.88,8.87,8.87,0,0,0-8.88,8.88Zm15.46,0A6.59,6.59,0,1,1,85.1,65a6.58,6.58,0,0,1,6.58,6.59Z"/><path class="a" d="M28,71.84A8.88,8.88,0,1,0,36.9,63,8.89,8.89,0,0,0,28,71.84Zm15.47,0a6.59,6.59,0,1,1-6.59-6.59,6.59,6.59,0,0,1,6.59,6.59Z"/><path class="a" d="M101.31,87.53a24.31,24.31,0,0,0-8.78-4.3A25.64,25.64,0,0,0,85.1,82.1a28.24,28.24,0,0,0-7.42,1.12,28.64,28.64,0,0,0-8.79,4.3,5.35,5.35,0,0,0-.5.45l.7.18c.7.2,1.36.42,2,.65a26.52,26.52,0,0,1,7.19-3.36,25.64,25.64,0,0,1,6.8-1,23.28,23.28,0,0,1,6.78,1,22.09,22.09,0,0,1,8,3.88,3.3,3.3,0,0,1,1.29,2.54V99.2h2.3V91.86A5.65,5.65,0,0,0,101.31,87.53Z"/><path class="a" d="M50.74,88.88c.74-.27,1.48-.53,2.21-.74l.46-.11-.29-.26a24.2,24.2,0,0,0-8.79-4.3,25.59,25.59,0,0,0-7.43-1.13,28.17,28.17,0,0,0-7.41,1.12,28.53,28.53,0,0,0-8.79,4.3,5.63,5.63,0,0,0-2.16,4.34v7.34h2.3V92.1a3.29,3.29,0,0,1,1.24-2.52,26.79,26.79,0,0,1,8-3.91,25.7,25.7,0,0,1,6.8-1,23.35,23.35,0,0,1,6.79,1A23.56,23.56,0,0,1,50.74,88.88Z"/><path class="a" d="M77.22,94.65a24.36,24.36,0,0,0-8.79-4.3A25.3,25.3,0,0,0,61,89.23a27.76,27.76,0,0,0-7.41,1.12,28.56,28.56,0,0,0-8.8,4.29A5.65,5.65,0,0,0,42.64,99v7.34h2.29V99a3.33,3.33,0,0,1,1.25-2.52,26.8,26.8,0,0,1,8-3.91,26.1,26.1,0,0,1,6.8-1,23.22,23.22,0,0,1,6.78,1,22.11,22.11,0,0,1,8,3.89A3.34,3.34,0,0,1,77.07,99v7.34h2.29V99A5.67,5.67,0,0,0,77.22,94.65Z"/><path class="a" d="M52.12,78.72A8.88,8.88,0,1,0,61,69.84a8.87,8.87,0,0,0-8.88,8.88Zm15.46,0A6.58,6.58,0,1,1,61,72.13a6.58,6.58,0,0,1,6.58,6.59Z"/></svg>