<svg xmlns="http://www.w3.org/2000/svg" viewBox="0 0 122 122"><defs><style>.a,.b{stroke:#000;}.b{stroke-width:0.47px;}</style></defs><path class="a" d="M50,22.2H48.78V63.71H73.2V22.2ZM72,62.49H50V23.42H72Z"/><path class="a" d="M75,16.1H47a1.22,1.22,0,0,0-1.22,1.22V68.6A1.23,1.23,0,0,0,47,69.82H75a1.24,1.24,0,0,0,1.22-1.22V17.32A1.22,1.22,0,0,0,75,16.1Zm0,52.5H47V17.32H75Z"/><path class="a" d="M58.55,20.37H64a.61.61,0,0,0,.61-.61.61.61,0,0,0-.61-.61H58.55a.61.61,0,0,0-.61.61.61.61,0,0,0,.61.61Z"/><path class="b" d="M50.85,79.15H73a2.77,2.77,0,1,1,0,5.54H56.39a.93.93,0,0,0,0,1.85H73a4.62,4.62,0,0,0,0-9.24H50.85a9.61,9.61,0,0,0-4.74,1.29L20,91.16a.93.93,0,0,0,.73,1.7l.08,0L47,80.23A7.66,7.66,0,0,1,50.85,79.15Z"/><path class="b" d="M98,69.82a4.23,4.23,0,0,0-2.4.67l-15.8,9.05a.93.93,0,0,0,.89,1.63l0,0,15.84-9.09A2.49,2.49,0,0,1,98,71.67a2.77,2.77,0,0,1,2.77,2.77,3.22,3.22,0,0,1-1,2.16L74.42,95.12a2.88,2.88,0,0,1-1.68.57H55.47c-9.45,0-17.13,2.88-22.82,8.59a.92.92,0,1,0,1.19,1.41l.11-.11c5.34-5.34,12.58-8,21.52-8H72.74a4.66,4.66,0,0,0,2.76-.93L100.9,78,101,78a5,5,0,0,0,1.57-3.52A4.62,4.62,0,0,0,98,69.82Z"/></svg>