<svg xmlns="http://www.w3.org/2000/svg" viewBox="0 0 122 122"><defs><style>.a{fill:#fff;stroke:#fff;}</style></defs><path class="a" d="M93.49,49.81a5.27,5.27,0,1,0-5.26-5.26h0A5.26,5.26,0,0,0,93.49,49.81Zm0-8.18a2.92,2.92,0,1,1-2.92,2.92h0a2.92,2.92,0,0,1,2.92-2.92Z"/><path class="a" d="M84,73.26A1.18,1.18,0,0,0,84.62,71a1.32,1.32,0,0,1-.86-1.47L86.34,56a1.06,1.06,0,0,1,.26-.43,10.64,10.64,0,0,1,3.61-1.76,13.21,13.21,0,0,1,3.25-.46h.05a13.61,13.61,0,0,1,3.24.45,10.81,10.81,0,0,1,3.65,1.79,1.2,1.2,0,0,1,.21.34l2.6,13.55a1.3,1.3,0,0,1-.85,1.5,1.18,1.18,0,0,0-.83,1.44,1.16,1.16,0,0,0,1.43.83h0a3.66,3.66,0,0,0,2.55-4.18l-2.61-13.64a3.12,3.12,0,0,0-1.13-1.73,13,13,0,0,0-4.45-2.17A15.36,15.36,0,0,0,93.51,51h-.05a15.19,15.19,0,0,0-3.84.53,12.85,12.85,0,0,0-4.37,2.12,3.18,3.18,0,0,0-1.19,1.84L81.46,69.1A3.64,3.64,0,0,0,84,73.26Z"/><path class="a" d="M60.65,31.05a5.27,5.27,0,1,0-5.27-5.27h0A5.28,5.28,0,0,0,60.65,31.05Zm0-8.19a2.92,2.92,0,1,1-2.92,2.92h0a2.92,2.92,0,0,1,2.92-2.92Z"/><path class="a" d="M31.32,40.43a5.27,5.27,0,1,0-5.26-5.27h0A5.27,5.27,0,0,0,31.32,40.43Zm0-8.19a2.93,2.93,0,1,1-2.92,2.93h0a2.93,2.93,0,0,1,2.92-2.93Z"/><path class="a" d="M21.84,63.88a1.18,1.18,0,1,0,.61-2.27h0a1.3,1.3,0,0,1-.85-1.48l2.57-13.51a1,1,0,0,1,.26-.42A10.66,10.66,0,0,1,28,44.43,13.78,13.78,0,0,1,31.29,44h.06a13.12,13.12,0,0,1,3.23.46,10.79,10.79,0,0,1,3.65,1.78,1.25,1.25,0,0,1,.21.35L41,60.11a1.31,1.31,0,0,1-.85,1.5,1.17,1.17,0,0,0,.6,2.27h0a3.67,3.67,0,0,0,2.55-4.18L40.74,46.06a3.18,3.18,0,0,0-1.13-1.74,13,13,0,0,0-4.45-2.16,15.85,15.85,0,0,0-3.82-.53h-.05a16,16,0,0,0-3.83.53,13.19,13.19,0,0,0-4.38,2.12,3.25,3.25,0,0,0-1.19,1.84l-2.6,13.6A3.65,3.65,0,0,0,21.84,63.88Z"/><path class="a" d="M99.36,92.09V60.4A1.18,1.18,0,1,0,97,60.33V92.09H94.67V72.15H92.32V92.09H90V60.4a1.17,1.17,0,1,0-2.34,0V92.09H77.42V73.32H66.51V37h0a1.17,1.17,0,0,0,1.06-.67l8.72-18.76A1.19,1.19,0,0,0,75.79,16a1.17,1.17,0,0,0-1.57.53h0l0,.06-8,17.17a9.35,9.35,0,0,0-2.76-1.22,11,11,0,0,0-2.8-.39h0a11.22,11.22,0,0,0-2.82.39,9.69,9.69,0,0,0-2.73,1.21l-8-17.16a1.17,1.17,0,0,0-2.13,1l8.72,18.76a1.14,1.14,0,0,0,1.06.66h0V73.32H44.58V82.7H37.19V51a1.18,1.18,0,0,0-2.35,0V82.7H32.5V62.77H30.15V82.7H27.8V51a1.17,1.17,0,0,0-2.34,0V82.7H14.08v23.47h93.84V92.09Zm-41-57.33a9.38,9.38,0,0,1,2.23-.32h0a9.22,9.22,0,0,1,2.22.31,6.71,6.71,0,0,1,1.29.49V73.32H61.82V53.38H59.48V73.31H57.13V35.23A6.79,6.79,0,0,1,58.39,34.76ZM75.08,94.44h30.49v9.39H16.43V85.05H46.92V75.66H75.08Z"/></svg>