<svg xmlns="http://www.w3.org/2000/svg" viewBox="0 0 122 122"><defs><style>.a{fill:#fff;stroke:#fff;stroke-width:0.35px;}</style></defs><path class="a" d="M68.7,65.09a7.95,7.95,0,1,1-8,7.94h0a8,8,0,0,1,8-7.94m0-2.27A10.22,10.22,0,1,0,78.92,73,10.22,10.22,0,0,0,68.7,62.82Z"/><path class="a" d="M89.16,106.42H86.89V96.76a3.47,3.47,0,0,0-1.45-2.94,23.21,23.21,0,0,0-9-4.33,29.74,29.74,0,0,0-7.72-1.26,24.58,24.58,0,0,0-7.56,1.23A28.32,28.32,0,0,0,52,93.82a3.76,3.76,0,0,0-1.46,3v9.65H48.25V96.76A6,6,0,0,1,50.63,92a30.75,30.75,0,0,1,9.83-4.7A26.75,26.75,0,0,1,68.69,86,31.84,31.84,0,0,1,77,87.3,25.46,25.46,0,0,1,86.79,92a5.7,5.7,0,0,1,2.36,4.79Z"/><path class="a" d="M40.91,49.17A7.95,7.95,0,1,1,33,57.11h0a7.94,7.94,0,0,1,7.95-7.94m0-2.28A10.22,10.22,0,1,0,51.12,57.11,10.22,10.22,0,0,0,40.91,46.89Z"/><path class="a" d="M56.27,74.23a24.81,24.81,0,0,0-7.09-2.85A31.84,31.84,0,0,0,40.9,70a26.23,26.23,0,0,0-8.24,1.33,30.34,30.34,0,0,0-9.83,4.7,6.05,6.05,0,0,0-2.39,4.76V90.5h2.28V80.84a3.75,3.75,0,0,1,1.45-3,28.51,28.51,0,0,1,9.14-4.35,24.29,24.29,0,0,1,7.57-1.23,29.81,29.81,0,0,1,7.72,1.26A23.15,23.15,0,0,1,57,77.45,12.38,12.38,0,0,1,56.27,74.23Z"/><path class="a" d="M99.17,17.85a.13.13,0,0,1,.12.12V47.25a.15.15,0,0,1-.11.13H71.57l-.67.67-5.52,5.62v-6.3H56.32c-.06,0-.12-.06-.12-.16V18a.12.12,0,0,1,.1-.11H99.17m0-2.27H56.3A2.38,2.38,0,0,0,53.94,18V47.21a2.38,2.38,0,0,0,2.34,2.43h6.84v9.59l9.41-9.59H99.18a2.39,2.39,0,0,0,2.38-2.39V18A2.39,2.39,0,0,0,99.18,15.58Z"/><path class="a" d="M77.63,21.12h-.11a5.34,5.34,0,0,0-.8,0A6.7,6.7,0,0,0,70.43,28v.14h2.28V28a4.52,4.52,0,0,1,0-.52,4.42,4.42,0,0,1,4.43-4l.37,0h.18a4.74,4.74,0,0,1,4.66,4.81c0,2.63-1.94,4.39-4.83,4.39H76.41V38.2H78.7V34.84l.35-.05a6.38,6.38,0,0,0,5.6-6.57v-.16A7,7,0,0,0,77.63,21.12Z"/><path class="a" d="M77.55,44a1.85,1.85,0,1,1,1.87-1.82A1.84,1.84,0,0,1,77.55,44h0Z"/></svg>