<svg xmlns="http://www.w3.org/2000/svg" viewBox="0 0 122 122"><defs><style>.a{stroke:#000;stroke-width:0.67px;}</style></defs><path class="a" d="M75.26,72.24h.09c.65-.09,1.3-.2,1.91-.33A.68.68,0,0,0,77,70.59c-.58.12-1.19.23-1.81.31a.67.67,0,0,0-.57.76.66.66,0,0,0,.66.58Z"/><path class="a" d="M70.84,60.29l1,0,1,0a.68.68,0,0,0,0-1.35c-.61,0-1.23,0-1.84,0a.69.69,0,0,0-.7.65.67.67,0,0,0,.65.7Z"/><path class="a" d="M75.26,68.19h.09c.65-.09,1.3-.2,1.91-.33a.68.68,0,0,0,.49-.82.66.66,0,0,0-.77-.5c-.58.12-1.19.23-1.81.31a.67.67,0,0,0-.57.76.66.66,0,0,0,.66.58Z"/><path class="a" d="M75.26,80.34h.09l1-.16c.42-.4.86-.77,1.32-1.13a.68.68,0,0,0-.73-.36c-.58.13-1.19.23-1.81.31a.67.67,0,0,0,.09,1.34Z"/><path class="a" d="M75.26,76.29h.09c.65-.09,1.3-.2,1.91-.33A.68.68,0,0,0,77,74.64c-.58.12-1.19.23-1.81.31a.67.67,0,0,0-.57.76.66.66,0,0,0,.66.58Z"/><path class="a" d="M75.26,64.14h.09c.65-.09,1.3-.2,1.91-.33a.68.68,0,0,0,.49-.82.66.66,0,0,0-.77-.5c-.58.12-1.19.23-1.81.31a.67.67,0,0,0-.57.76.66.66,0,0,0,.66.58Z"/><path class="a" d="M68.27,80.34h.09A.68.68,0,0,0,68.44,79c-.61-.08-1.22-.18-1.8-.31a.66.66,0,0,0-.73.37c.44.35.88.73,1.3,1.12Z"/><path class="a" d="M72.73,83.25c-.61,0-1.23,0-1.84,0a.68.68,0,0,0-.64.41c.21.31.42.62.62.94h1.86c.21-.33.42-.65.64-1A.67.67,0,0,0,72.73,83.25Z"/><path class="a" d="M70.84,80.55h1.94a.69.69,0,0,0,.65-.7h0a.66.66,0,0,0-.68-.65h0c-.61,0-1.24,0-1.85,0a.67.67,0,0,0-.69.65.69.69,0,0,0,.65.7Z"/><path class="a" d="M66.35,71.91q.93.2,1.92.33h.09a.67.67,0,0,0,.67-.68.69.69,0,0,0-.59-.66c-.62-.08-1.22-.18-1.8-.31a.69.69,0,0,0-.79.55.67.67,0,0,0,.5.77Z"/><path class="a" d="M66.35,76q.93.2,1.92.33h.09a.67.67,0,0,0,.67-.68.69.69,0,0,0-.59-.66c-.62-.08-1.22-.18-1.8-.31a.69.69,0,0,0-.79.55.67.67,0,0,0,.5.77Z"/><path class="a" d="M66.35,67.86q.93.19,1.92.33h.09a.68.68,0,0,0,.67-.68.69.69,0,0,0-.59-.66c-.62-.08-1.22-.18-1.8-.31a.68.68,0,0,0-.29,1.32Z"/><path class="a" d="M66.35,63.81q.93.19,1.92.33h.09a.68.68,0,0,0,.67-.68.69.69,0,0,0-.59-.66c-.62-.08-1.22-.19-1.8-.31a.68.68,0,0,0-.79.54.69.69,0,0,0,.5.78Z"/><path class="a" d="M70.84,76.5h1.94a.69.69,0,0,0,.65-.7h0a.68.68,0,0,0-.68-.66h0c-.61,0-1.24,0-1.85,0a.68.68,0,0,0-.69.66.67.67,0,0,0,.65.69Z"/><path class="a" d="M70.84,68.39l1,0,1,0a.67.67,0,0,0,.65-.69h0a.68.68,0,0,0-.68-.66h0c-.61,0-1.24,0-1.85,0a.68.68,0,0,0-.69.66.67.67,0,0,0,.65.69Z"/><path class="a" d="M70.84,72.45h1.94a.67.67,0,0,0,.64-.71.66.66,0,0,0-.69-.64c-.61,0-1.23,0-1.84,0a.68.68,0,1,0,0,1.35Z"/><path class="a" d="M70.84,64.34l1,0,1,0a.67.67,0,0,0,.65-.69h0a.68.68,0,0,0-.68-.66h0c-.61,0-1.24,0-1.85,0a.68.68,0,0,0-.69.66.67.67,0,0,0,.65.69Z"/><path class="a" d="M96.58,78.43c-2.07-2.08-5.17-2.61-9.47-1.66a21.05,21.05,0,0,0-4,1.33c-.73-9.38-3.71-17.51-8.08-21.86a4.73,4.73,0,0,0-6.43,0c-4.36,4.35-7.35,12.48-8.08,21.86a20.28,20.28,0,0,0-2.6-1V76.6a5.29,5.29,0,0,0-2.26-4.32A5.29,5.29,0,0,0,57.9,68V67a5.27,5.27,0,0,0-2.26-4.32,5.29,5.29,0,0,0,2.26-4.33v-1a5.31,5.31,0,0,0-2.26-4.33,5.27,5.27,0,0,0,2.26-4.32V46a7.76,7.76,0,0,0-.81-3.44L48.28,25V17.49a1.92,1.92,0,0,0-1.92-1.92H36.75a1.92,1.92,0,0,0-1.92,1.92V25L26,42.55A7.76,7.76,0,0,0,25.22,46v2.74a5.26,5.26,0,0,0,2.25,4.32,5.3,5.3,0,0,0-2.25,4.33v1a5.3,5.3,0,0,0,2.25,4.33A5.26,5.26,0,0,0,25.22,67v1a5.28,5.28,0,0,0,2.25,4.33,5.26,5.26,0,0,0-2.25,4.32V87.66a6.74,6.74,0,0,0,6.72,6.73H51.17a6.73,6.73,0,0,0,5.28-2.58c.54,6.31,5,10.28,9.37,11a12.19,12.19,0,0,0,1.59.14,4.5,4.5,0,0,0,8.78,0,12.19,12.19,0,0,0,1.59-.14c4.68-.76,9.41-5.22,9.41-12.28,0-10.5,8.57-10.93,8.94-10.94a.68.68,0,0,0,.65-.7A.69.69,0,0,0,96.58,78.43ZM62.26,74.51a10.73,10.73,0,0,0,1.58.73A.67.67,0,1,0,64.32,74a11.13,11.13,0,0,1-1.6-.75.75.75,0,0,0-.24-.08c.14-.79.29-1.58.47-2.34a9.16,9.16,0,0,0,.89.38.67.67,0,1,0,.48-1.26,10.9,10.9,0,0,1-1-.46c.2-.79.43-1.56.67-2.31l.13,0a.67.67,0,0,0,.63-.43.66.66,0,0,0-.33-.83,28.23,28.23,0,0,1,2.94-6c.32,0,.62.12,1,.16h.09a.68.68,0,0,0,0-1.35h-.08l0,0a15.9,15.9,0,0,1,1.33-1.52,3.19,3.19,0,0,1,4.52,0,15.9,15.9,0,0,1,1.33,1.52l0,0a.67.67,0,0,0-.77.56.68.68,0,0,0,.56.78h.18c.32,0,.63-.11.94-.16a28.23,28.23,0,0,1,2.94,6,.65.65,0,0,0-.32.82.68.68,0,0,0,.63.44l.11,0c.25.75.47,1.52.68,2.31a9.44,9.44,0,0,1-1,.45.68.68,0,0,0,.48,1.27c.31-.12.6-.25.88-.38.17.76.33,1.54.46,2.34a.63.63,0,0,0-.22.07,9.33,9.33,0,0,1-1.6.75.68.68,0,0,0,.48,1.27,11.68,11.68,0,0,0,1.57-.72q.3,2.06.45,4.23a19.62,19.62,0,0,0-6.31,5.43.43.43,0,0,0-.12.11c-.17.24-.32.49-.49.73l-.28.44c-.1.15-.2.3-.29.45a22.58,22.58,0,0,0-2.49,5.83s0,0,0,0a20.62,20.62,0,0,0-10-13C61.9,77.3,62.06,75.89,62.26,74.51Zm-25.51-57h9.61v6.73H36.75ZM56,87.66a4.8,4.8,0,0,1-4.8,4.8H31.94a4.8,4.8,0,0,1-4.8-4.8V76.6a3.36,3.36,0,0,1,3.36-3.36h3.37V71.32H30.5A3.36,3.36,0,0,1,27.14,68V67a3.35,3.35,0,0,1,3.36-3.36h3.37V61.7H30.5a3.35,3.35,0,0,1-3.36-3.36v-1A3.35,3.35,0,0,1,30.5,54h3.37V52.09H30.5a3.35,3.35,0,0,1-3.36-3.36V46a5.79,5.79,0,0,1,.61-2.58l8.63-17.27H46.73l8.64,17.27A5.78,5.78,0,0,1,56,46v2.74a3.35,3.35,0,0,1-3.36,3.36H49.25V54h3.36A3.36,3.36,0,0,1,56,57.38v1a3.35,3.35,0,0,1-3.36,3.36H49.25v1.93h3.36A3.35,3.35,0,0,1,56,67v1a3.36,3.36,0,0,1-3.36,3.37H49.25v1.92h3.36A3.36,3.36,0,0,1,56,76.6v.07c-4-.81-7-.23-9,1.76a.68.68,0,0,0,0,.95.74.74,0,0,0,.46.2A9.3,9.3,0,0,1,56,86.81Zm38.46-9.17c-2.9.69-8.58,3.17-8.58,12h0c0,6.6-4.29,10.3-8.28,10.94a8.59,8.59,0,0,1-1.52.13h-.42a.69.69,0,0,0-.67.63,3.23,3.23,0,0,1-5.07,2.3,2.88,2.88,0,0,1-1.22-2.31.67.67,0,0,0-.67-.61h-.44a8.67,8.67,0,0,1-1.52-.13c-4-.64-8.28-4.34-8.28-11,0-.45,0-.88,0-1.29a13,13,0,0,0-1.74-6,10.69,10.69,0,0,0-6.8-4.79h0c1.65-.91,3.88-1,6.8-.43l.22,0c.58.13,1.15.28,1.71.46,7.23,2.3,12.23,8.62,13.24,16.85,0,0,0,0,0,0-.07.57-.13,1.15-.16,1.74a.68.68,0,0,0,.63.72h0a.69.69,0,0,0,.68-.64,22.47,22.47,0,0,1,4.12-12.17l0-.06a18.39,18.39,0,0,1,10.92-6.92c3-.68,5.33-.55,7,.39Z"/></svg>