<svg xmlns="http://www.w3.org/2000/svg" viewBox="0 0 122 122"><defs><style>.a{fill:#fff;stroke:#fff;}</style></defs><path class="a" d="M103.66,69.65V30H28.86V25.23A9.24,9.24,0,0,0,19.63,16h-.12a1.17,1.17,0,0,0-.07,2.34h.19a6.9,6.9,0,0,1,6.9,6.9h0V83.78a8.19,8.19,0,0,0,7.7,8.16,7.59,7.59,0,1,0,8,0H85.6a7.6,7.6,0,1,0,8.06,0h8.83a1.17,1.17,0,0,0,.07-2.34H34.7a5.85,5.85,0,0,1-5.84-5.84V76.66Zm-14,34a5.26,5.26,0,1,1,5.26-5.26,5.27,5.27,0,0,1-5.26,5.26Zm-51.42,0a5.26,5.26,0,1,1,5.26-5.26,5.27,5.27,0,0,1-5.26,5.26ZM28.86,46.38H45.22V58.07H28.86ZM82.62,58.07H66.26V46.38H82.62ZM85,46.38h16.36V58.07H85Zm-18.7,14H82.62v8.87L66.26,70.8ZM63.92,71,47.56,72.56V60.4H63.92Zm2.34-27V32.35H82.62V44Zm-2.34,0H47.56V32.35H63.92Zm0,2.34V58.07H47.56V46.38Zm-35.06,14H45.22V72.78L28.86,74.31ZM85,69.05V60.4h16.36v7.12Zm16.36-25H85V32.35h16.36ZM45.22,32.35V44H28.86V32.35Z"/></svg>