<svg xmlns="http://www.w3.org/2000/svg" viewBox="0 0 122 122"><defs><style>.a{fill:orange;stroke:orange;stroke-width:0.63px;}</style></defs><path class="a" d="M59.24,62.68H34.64a4.39,4.39,0,0,1-4.39-4.39V33.67a4.39,4.39,0,0,1,4.39-4.39h24.6a4.4,4.4,0,0,1,4.4,4.39V58.29A4.4,4.4,0,0,1,59.24,62.68ZM34.64,31A2.64,2.64,0,0,0,32,33.67V58.29a2.64,2.64,0,0,0,2.64,2.63h24.6a2.64,2.64,0,0,0,2.64-2.63V33.67A2.64,2.64,0,0,0,59.24,31Z"/><path class="a" d="M75.94,98.54h0a4.32,4.32,0,0,1-3.11-1.29l-17.4-17.4a4.41,4.41,0,0,1,0-6.22l17.4-17.39a4.37,4.37,0,0,1,3.11-1.3h0A4.36,4.36,0,0,1,79,56.23l17.4,17.41a4.38,4.38,0,0,1,0,6.21L79.05,97.25A4.34,4.34,0,0,1,75.94,98.54Zm-19.29-20,0,0L74.07,96a2.59,2.59,0,0,0,1.87.77h0A2.55,2.55,0,0,0,77.8,96l17.4-17.4a2.64,2.64,0,0,0,0-3.73h0L77.8,57.47a2.63,2.63,0,0,0-1.86-.77h0a2.68,2.68,0,0,0-1.87.77L56.68,74.88A2.63,2.63,0,0,0,56.65,78.58Z"/><path class="a" d="M53.09,57a2.2,2.2,0,1,1,2.2-2.2A2.21,2.21,0,0,1,53.09,57Z"/><path class="a" d="M40.79,57a2.2,2.2,0,1,1,2.2-2.2A2.21,2.21,0,0,1,40.79,57Z"/><circle class="a" cx="53.09" cy="45.98" r="2.2"/><circle class="a" cx="40.79" cy="45.98" r="2.2"/><path class="a" d="M53.09,39.39a2.2,2.2,0,1,1,2.2-2.2A2.21,2.21,0,0,1,53.09,39.39Z"/><path class="a" d="M40.79,39.39a2.2,2.2,0,1,1,2.2-2.2A2.21,2.21,0,0,1,40.79,39.39Z"/><path class="a" d="M74.07,89.5a2.19,2.19,0,1,1,1.56-.64A2.16,2.16,0,0,1,74.07,89.5Z"/><path class="a" d="M80.29,83.29a2.2,2.2,0,1,1,2.19-2.2,2.22,2.22,0,0,1-.64,1.56A2.2,2.2,0,0,1,80.29,83.29Z"/><path class="a" d="M65.37,80.8a2.2,2.2,0,1,1,1.56-.64A2.19,2.19,0,0,1,65.37,80.8Z"/><path class="a" d="M86.5,77.08a2.2,2.2,0,1,1,0-4.4,2.25,2.25,0,0,1,1.55.65,2.19,2.19,0,0,1-1.55,3.75Z"/><path class="a" d="M71.59,74.59A2.2,2.2,0,1,1,73.15,74,2.24,2.24,0,0,1,71.59,74.59Z"/><path class="a" d="M77.8,68.38a2.2,2.2,0,1,1,1.56-.65A2.17,2.17,0,0,1,77.8,68.38Z"/></svg>