<svg xmlns="http://www.w3.org/2000/svg" viewBox="0 0 122 122"><defs><style>.a{fill:orange;stroke:orange;stroke-width:0.51px;}</style></defs><path class="a" d="M66.72,44.87l-1.1-17.7h1.46V25.34a3.65,3.65,0,0,0-3.65-3.65H58a3.66,3.66,0,0,0-3.65,3.65v1.83h1.46l-1.09,17.7a10.94,10.94,0,0,0-5.84,9.68v43.8c0,2,5.29,3.65,11.86,3.65s11.87-1.64,11.87-3.65V54.55A10.94,10.94,0,0,0,66.72,44.87ZM58,23.52h5.48a1.83,1.83,0,0,1,1.83,1.82H56.13A1.83,1.83,0,0,1,58,23.52Zm6.24,10h-7l.39-6.28v-.11H63.8v.11ZM50.65,81.72V54.55a9.08,9.08,0,0,1,4.87-8.06l.91-.48.06-1,.59-9.61H64.3L64.89,45,65,46l.92.48a9.07,9.07,0,0,1,4.86,8.06V81.72h0v.2h0V98.15c-.67.73-4.19,2-10,2s-9.36-1.29-10-2V81.92h.26"/></svg>