<svg xmlns="http://www.w3.org/2000/svg" viewBox="0 0 122 122"><defs><style>.a{fill:orange;stroke:orange;stroke-width:0.72px;}</style></defs><path class="a" d="M44.63,30.06H42.81V91.93H79.19V30.06ZM77.37,90.11H44.63V31.88H77.37Z"/><path class="a" d="M81.92,21H40.08a1.83,1.83,0,0,0-1.82,1.82V99.21A1.83,1.83,0,0,0,40.08,101H81.92a1.83,1.83,0,0,0,1.82-1.82V22.79A1.83,1.83,0,0,0,81.92,21Zm0,78.24H40.08V22.79H81.92Z"/><path class="a" d="M57.36,27.34h8.19a.91.91,0,0,0,0-1.82H57.36a.91.91,0,1,0,0,1.82Z"/></svg>