<svg xmlns="http://www.w3.org/2000/svg" viewBox="0 0 122 122"><defs><style>.a{fill:#afca0b;stroke:#afca0b;stroke-width:0.54px;}</style></defs><path class="a" d="M92.72,44.36a1.11,1.11,0,0,0-1.5-.4L84,48.1l1.75-6.43a1.1,1.1,0,1,0-2.12-.57L81.3,49.65,75.42,53l3.37-12.43A1.1,1.1,0,0,0,76.67,40L72.73,54.57l-5.4,3.1a7.65,7.65,0,0,0-4.94-2.87V48.58L73.05,37.92a1.1,1.1,0,1,0-1.55-1.55l-9.11,9.11V38.7l6.27-6.27a1.09,1.09,0,0,0,0-1.55,1.11,1.11,0,0,0-1.53,0l-4.71,4.71V27.26a1.1,1.1,0,0,0-2.2,0v8.33l-4.71-4.71a1.1,1.1,0,0,0-1.55,1.55l6.26,6.27v6.78l-9.1-9.11a1.1,1.1,0,0,0-1.55,1.55L60.19,48.58V54.8a7.68,7.68,0,0,0-4.88,2.79L50,54.43l-3.76-14.6a1.1,1.1,0,1,0-2.13.55l3.21,12.47L41.44,49.4l-2.21-8.58a1.1,1.1,0,0,0-2.13.55l1.66,6.46-7.17-4.24a1.12,1.12,0,0,0-1.51.39,1.11,1.11,0,0,0,.39,1.51l7.18,4.24-6.46,1.66a1.1,1.1,0,0,0,.27,2.16.86.86,0,0,0,.28,0l8.58-2.21,5.84,3.45L33.69,58a1.09,1.09,0,0,0-.8,1.33,1.11,1.11,0,0,0,1.07.83.84.84,0,0,0,.27,0l14.6-3.76,5.35,3.16a7.63,7.63,0,0,0,0,5.75l-5.39,3.1L34.21,64.39a1.1,1.1,0,0,0-.66,2.1l.08,0,12.44,3.36-5.88,3.38-8.55-2.32A1.1,1.1,0,0,0,31,73l.08,0,6.44,1.74-7.23,4.15a1.11,1.11,0,0,0-.4,1.5,1.09,1.09,0,0,0,1.5.4L38.6,76.7l-1.74,6.43a1.1,1.1,0,0,0,.76,1.35,1,1,0,0,0,.29,0A1.09,1.09,0,0,0,39,83.71l2.32-8.56,5.87-3.37L43.79,84.21a1.1,1.1,0,1,0,2.12.57l3.94-14.55,5.4-3.09A7.69,7.69,0,0,0,60.19,70v6.22L49.54,86.88a1.09,1.09,0,0,0,0,1.55,1.11,1.11,0,0,0,1.53,0l9.1-9.1V86.1l-6.26,6.27a1.1,1.1,0,0,0,1.55,1.55l4.71-4.71v8.33a1.1,1.1,0,1,0,2.2,0V89.21l4.71,4.71a1.1,1.1,0,0,0,1.56,0,1.09,1.09,0,0,0,0-1.55l0,0L62.39,86.1V79.33l9.11,9.1a1.1,1.1,0,0,0,1.58-1.52l0,0L62.39,76.22V70a7.69,7.69,0,0,0,4.89-2.79l5.36,3.16L76.39,85a1.11,1.11,0,0,0,1.07.82,1.24,1.24,0,0,0,.27,0,1.1,1.1,0,0,0,.79-1.34L75.31,72l5.83,3.45L83.36,84a1.09,1.09,0,0,0,1.06.82,1.24,1.24,0,0,0,.27,0,1.1,1.1,0,0,0,.79-1.34h0L83.82,77,91,81.21a1.1,1.1,0,1,0,1.12-1.89l-7.17-4.24,6.45-1.66a1.1,1.1,0,1,0-.55-2.13L82.26,73.5l-5.84-3.44,12.47-3.21a1.1,1.1,0,1,0-.55-2.13L73.75,68.48,68.4,65.32a7.63,7.63,0,0,0,0-5.75l5.39-3.1,14.55,3.94a1,1,0,0,0,.29,0A1.1,1.1,0,0,0,89,58.29L76.52,54.93l5.87-3.38L91,53.87a.92.92,0,0,0,.29,0,1.1,1.1,0,0,0,.28-2.16L85.09,50l7.22-4.15a1.1,1.1,0,0,0,.41-1.5ZM61.29,67.89a5.49,5.49,0,1,1,5.49-5.49A5.49,5.49,0,0,1,61.29,67.89Z"/></svg>