<svg xmlns="http://www.w3.org/2000/svg" viewBox="0 0 122 122"><defs><style>.a{fill:#afca0b;stroke:#afca0b;stroke-width:0.52px;}</style></defs><path class="a" d="M94.65,71.2l-1.28-.57-2.9-16.08c-.2-4.56-17-6.22-28.31-6.22S34,50,33.85,54.55L31,70.61l-1.36.61C27.21,72.47,26,73.88,26,75.42c0,6,18.64,9.17,36.18,9.17s36.17-3.22,36.17-9.17C98.33,73.88,97.11,72.47,94.65,71.2ZM88.42,53.87h0c-2.51,1.44-11.4,3.88-26.26,3.88S38.4,55.33,35.9,53.89h0c2.21-1.82,12-4,26.26-4S86.21,52.05,88.42,53.87ZM62.16,83c-20.39,0-34.61-4-34.61-7.6,0-.88,1-1.87,2.76-2.79l.33-.15-.32,1.81a.82.82,0,0,0,.59.94.79.79,0,0,0,.95-.58v0l3.45-19.28c3.46,1.87,12.81,4,26.85,4s23.4-2.14,26.86-4L92.5,74.67a.77.77,0,0,0,.89.66.79.79,0,0,0,.67-.89.09.09,0,0,1,0,0l-.34-1.89.26.12c1.8.93,2.79,1.92,2.79,2.8C96.76,79,82.55,83,62.16,83Z"/><path class="a" d="M75.53,68a3.85,3.85,0,0,0-2.07-3.4,3.71,3.71,0,0,0-1.76-.42h0a3.84,3.84,0,0,0-3.78,3.29H56.41a3.84,3.84,0,0,0-3.78-3.29h0a3.71,3.71,0,0,0-1.76.42,3.84,3.84,0,0,0-1.64,5.17,3.73,3.73,0,0,0,.47.7,3.84,3.84,0,0,0-.8,3.38,3.49,3.49,0,0,0,.4,1,3.83,3.83,0,0,0,7.11-1.38H67.92a3.82,3.82,0,0,0,4.32,3.26,3.88,3.88,0,0,0,2.18-1.09,3.84,3.84,0,0,0,.21-5.17A3.83,3.83,0,0,0,75.53,68ZM73.3,74.49a2.25,2.25,0,0,1-3.85-1.58,1.09,1.09,0,0,1,0-.18l.09-.87H54.77l.09.87a1,1,0,0,1,0,.16,2.26,2.26,0,0,1-2.24,2.27A2.29,2.29,0,0,1,51,74.49a2.25,2.25,0,0,1,0-3.18h0a2,2,0,0,1,.27-.23l.84-.63h0l-.84-.63a1.55,1.55,0,0,1-.27-.24,2.26,2.26,0,0,1,1.59-3.85h0A2.26,2.26,0,0,1,54.87,68v.18L54.8,69H69.52l-.07-.85c0-.06,0-.12,0-.18a2.27,2.27,0,0,1,2.25-2.26h0A2.26,2.26,0,0,1,74,68a2.29,2.29,0,0,1-.66,1.6L73,69.8l-.85.63h0l.85.63a2.72,2.72,0,0,1,.39.37,2.09,2.09,0,0,1,.51,1.08,2.25,2.25,0,0,1-.62,2Z"/></svg>