<svg xmlns="http://www.w3.org/2000/svg" viewBox="0 0 122 122"><defs><style>.a{fill:orange;stroke:orange;stroke-width:0.47px;}</style></defs><path class="a" d="M50.06,65.53H74a3,3,0,0,1,0,6H56a1,1,0,0,0-1,1,1,1,0,0,0,1,1H74a5,5,0,0,0,0-10H50.06a10.32,10.32,0,0,0-5.12,1.39L16.73,78.49a1,1,0,0,0,.79,1.84l.08,0,28.27-13.6A8.34,8.34,0,0,1,50.06,65.53Z"/><path class="a" d="M100.89,55.46a4.7,4.7,0,0,0-2.6.73L81.25,66a1,1,0,1,0,1,1.75l0,0,17.1-9.8a2.63,2.63,0,0,1,1.54-.43,3,3,0,0,1,3,3,3.47,3.47,0,0,1-1.06,2.34l-27.33,20a3,3,0,0,1-1.81.62H55c-10.19,0-18.48,3.11-24.63,9.27a1,1,0,0,0,1.27,1.54.93.93,0,0,0,.14-.14c5.76-5.76,13.57-8.68,23.22-8.68H73.68a5,5,0,0,0,3-1l27.41-20,.11-.1a5.36,5.36,0,0,0,1.69-3.79A5,5,0,0,0,100.89,55.46Z"/><path class="a" d="M57.31,56.68l1.71,0,.09.1A6.85,6.85,0,0,1,61,60.84a.49.49,0,0,0,0,.11,1,1,0,0,0,0,.16,1.74,1.74,0,0,0,.11.18l.1.12a1.09,1.09,0,0,0,.17.13l.12.07.24.06.11,0h.18l.11,0a.68.68,0,0,0,.2-.07.56.56,0,0,0,.15-.1.81.81,0,0,0,.25-.27l.09-.18a.8.8,0,0,0,0-.18l0-.11a11.62,11.62,0,0,1,5.1-9.43c1.19,0,2.63.14,4.23.14,4.44,0,10-.67,13.85-4.56,6.58-6.77,5-19.13,5-19.13a28.29,28.29,0,0,0-3.32-.17c-4.13,0-11.18.72-15.61,5.15C67.65,37.44,67,45.14,67,49.63a14.06,14.06,0,0,0-5.36,7.17,16.54,16.54,0,0,0-1-1.32l-.35-.42c.25-3.69.61-9.67-3.4-14.25-3.2-3.64-8.53-4.33-12.06-4.33a25.38,25.38,0,0,0-3.59.25s-1.35,10.48,4.09,15.64C49.44,56.3,53.91,56.68,57.31,56.68ZM73.64,34.16c4-4,10.61-4.57,14.21-4.57.55,0,1,0,1.46,0,.16,3.36,0,11.23-4.54,15.87-2.7,2.71-6.65,4-12.44,4-.63,0-1.22,0-1.79,0,3.55-4.14,6.44-6.78,9-8.21a1,1,0,0,0,.37-1.36,1,1,0,0,0-1.34-.38c-2.78,1.54-5.84,4.3-9.53,8.6.24-6.36,1.77-11,4.57-13.93ZM43.1,38.54c.49,0,1.08,0,1.72,0,2.75,0,7.78.47,10.57,3.65,3,3.41,3.16,7.82,3,11.24a27.9,27.9,0,0,0-7.59-8.13,1,1,0,0,0-1.4.23,1,1,0,0,0,.24,1.39,26.39,26.39,0,0,1,7.21,7.82c-3.33,0-6.84-.6-10.15-3.75C43.2,47.62,43,41.43,43.1,38.54Z"/></svg>