<svg xmlns="http://www.w3.org/2000/svg" viewBox="0 0 122 122"><defs><style>.a{fill:orange;stroke:orange;stroke-width:0.51px;}</style></defs><path class="a" d="M66.72,44.87l-1.1-17.7h1.46V25.34a3.65,3.65,0,0,0-3.65-3.65H58a3.66,3.66,0,0,0-3.65,3.65v1.83h1.46l-1.09,17.7a10.94,10.94,0,0,0-5.84,9.68v43.8c0,2,5.29,3.65,11.86,3.65s11.87-1.64,11.87-3.65V54.55A10.94,10.94,0,0,0,66.72,44.87ZM56.13,25.34A1.83,1.83,0,0,1,58,23.52h5.48a1.83,1.83,0,0,1,1.83,1.82Zm1.46,1.94v-.11h6.2v.11l.39,6.28h-7ZM55.52,46.49l.91-.48.06-1,.59-9.61H64.3L64.89,45,65,46l.92.48a9.07,9.07,0,0,1,4.86,8.06v11H66.32C65,62.69,63,60.93,60.69,60.93s-4.3,1.76-5.63,4.57H50.65v-11A9.08,9.08,0,0,1,55.52,46.49ZM67,67.32h3.69V80.1H67A21.91,21.91,0,0,0,67,67.32Zm-.87,6.39c0,5.93-2.51,11-5.48,11s-5.47-5-5.47-11,2.5-10.95,5.47-10.95S66.17,67.78,66.17,73.71ZM54.35,80.1h-3.7V67.32h3.7A21.75,21.75,0,0,0,54.35,80.1Zm6.34,20.07c-5.85,0-9.36-1.29-10-2V81.92h4.41c1.33,2.81,3.34,4.57,5.63,4.57s4.3-1.76,5.63-4.57h4.41V98.15C70.06,98.88,66.54,100.17,60.69,100.17Z"/></svg>