<svg xmlns="http://www.w3.org/2000/svg" xmlns:xlink="http://www.w3.org/1999/xlink" width="150" height="120" viewBox="0 0 150 120">
  <defs>
    <clipPath id="clip-path">
      <path id="Pfad_13365" data-name="Pfad 13365" d="M0-226.772H150v120H0Z" transform="translate(0 226.772)" fill="none"/>
    </clipPath>
  </defs>
  <g id="Gruppe_785" data-name="Gruppe 785" transform="translate(0 226.772)">
    <g id="Gruppe_784" data-name="Gruppe 784" transform="translate(0 -226.772)" clip-path="url(#clip-path)">
      <g id="Gruppe_782" data-name="Gruppe 782" transform="translate(37.63 -0.001)">
        <path id="Pfad_13363" data-name="Pfad 13363" d="M-60.734-42.137c-.165.08-.25.123-.338.165-1,.473-1.979.98-2.994,1.411A50.521,50.521,0,0,1-70.7-38.327a.449.449,0,0,0-.381.394c-.3,1.364-.582,2.732-.944,4.079a36.884,36.884,0,0,1-3.5,8.613c-.812,1.434-1.733,2.8-2.652,4.163-.081.121-.156.246-.233.37a.237.237,0,0,0,.184-.007c.391-.186.786-.365,1.169-.564a27.825,27.825,0,0,0,5.377-3.676,34.627,34.627,0,0,0,6.208-7.135A38.98,38.98,0,0,0-60.92-41.54c.056-.174.107-.346.185-.6m-9.737.292c.121-.015.195-.016.265-.033,1.1-.267,2.212-.514,3.308-.809a37.011,37.011,0,0,0,6.619-2.364.677.677,0,0,0,.423-.545c.206-1.129.383-2.261.49-3.4a33.381,33.381,0,0,0,.085-4.217.423.423,0,0,0-.278-.423c-.866-.393-1.712-.836-2.593-1.189a51.049,51.049,0,0,0-8.022-2.353,2.056,2.056,0,0,0-.278-.02,63.526,63.526,0,0,1-.02,15.356m-32.713,20.761c-.042-.115-.061-.185-.092-.249q-.383-.789-.769-1.575a38.767,38.767,0,0,1-1.712-3.96,45.01,45.01,0,0,1-2.3-10.07c-.053-.468-.048-.468-.516-.564a56.547,56.547,0,0,1-7.751-2.137,38.354,38.354,0,0,1-6.3-2.9c-.1-.057-.2-.111-.356-.2.034.151.046.233.071.311a36.941,36.941,0,0,0,2.926,6.819,31.73,31.73,0,0,0,7.382,8.856,38.255,38.255,0,0,0,9.115,5.562c.084.037.174.061.306.106m-5.37-36.85a1.528,1.528,0,0,0-.2.011c-.65.114-1.3.221-1.949.347a62.465,62.465,0,0,0-8.622,2.275,23.677,23.677,0,0,0-5.133,2.406c-.485.314-.419.177-.383.741a37.554,37.554,0,0,0,.914,6.127.463.463,0,0,0,.265.34c.659.327,1.305.681,1.974.984a37.677,37.677,0,0,0,5.172,1.825,66.64,66.64,0,0,0,7.435,1.682c.2.033.4.053.647.089a99.063,99.063,0,0,1-.12-16.828m6.672,21.558c.019.148.029.265.049.379a53.329,53.329,0,0,0,1.369,5.977A27.773,27.773,0,0,0-98.634-25.2a13.438,13.438,0,0,0,2.584,3.6,6.96,6.96,0,0,0,4.71,2.053,9.328,9.328,0,0,0,3.956-.749,12.865,12.865,0,0,0,4.062-2.8,24.156,24.156,0,0,0,4.286-5.763,42.286,42.286,0,0,0,3.269-8.015c.024-.078.034-.159.058-.273a91.661,91.661,0,0,1-26.174.781M-74.7-41.06a57.444,57.444,0,0,0,1.075-7.2c.093-1.078.156-2.159.216-3.24.113-2.011.1-4.026.032-6.039-.008-.259-.014-.265-.275-.3-1.164-.173-2.328-.37-3.5-.5-1.784-.206-3.572-.383-5.362-.546-2.082-.189-4.17-.274-6.26-.308-3.175-.053-6.345-.014-9.514.182-1.35.084-2.7.186-4.049.282a1.943,1.943,0,0,0-.261.053c-.413,2.881-.229,16.823.249,18.353A115.7,115.7,0,0,0-74.7-41.06m15.081-15.2a.533.533,0,0,0,.034-.124,2.022,2.022,0,0,0-.019-.226,49.9,49.9,0,0,0-1.544-7.165A45.853,45.853,0,0,0-63.839-70.8a35.541,35.541,0,0,0-2.827-4.773,30.367,30.367,0,0,0-6.127-6.676,21.643,21.643,0,0,0-6.918-3.7,12.764,12.764,0,0,0-5.841-.4,13.776,13.776,0,0,0-6.52,2.882,19.349,19.349,0,0,0-4.522,5.23c-.4.666-.763,1.359-1.155,2.033a32.321,32.321,0,0,0-2.572,5.561,40.266,40.266,0,0,0-1.84,7.66c-.014.1-.01.207-.015.33a89.724,89.724,0,0,1,28.5,1.151c-.011-.173-.012-.3-.027-.429-.087-.709-.166-1.419-.269-2.126a58.492,58.492,0,0,0-1.693-7.9,1.341,1.341,0,0,1-.053-.253.679.679,0,0,1,.5-.741.7.7,0,0,1,.83.343,3.234,3.234,0,0,1,.131.3,52.181,52.181,0,0,1,3.079,10.343c.074.38.141.761.212,1.138A43.577,43.577,0,0,1-59.62-56.257m-65.272,1.18c.11-.063.166-.089.216-.125a31.4,31.4,0,0,1,5.962-3.281,50.588,50.588,0,0,1,8.774-2.785c.559-.129,1.12-.249,1.679-.374a1.276,1.276,0,0,0,.122-.044c.041-.25.087-.515.129-.78a50.516,50.516,0,0,1,1.973-8.3,40.861,40.861,0,0,1,3.118-7.129,25.568,25.568,0,0,1,5.654-7.022A18.76,18.76,0,0,1-89.2-89.049a18.861,18.861,0,0,1,4.253-.445,24.089,24.089,0,0,1,8.422,1.684,27.655,27.655,0,0,1,7.129,3.958,32.193,32.193,0,0,1,3.853,3.48,40.327,40.327,0,0,1,3.433,4.156,47,47,0,0,1,3.572,5.69,36.811,36.811,0,0,1,3.852,11.661,39.364,39.364,0,0,1,.36,8.163,39.1,39.1,0,0,1-1.63,9.183,40.277,40.277,0,0,1-5.186,10.895,39.071,39.071,0,0,1-6.128,7.085,37.064,37.064,0,0,1-8.792,5.952,38.474,38.474,0,0,1-8.525,2.893,39.475,39.475,0,0,1-4.774.764,35.237,35.237,0,0,1-6.488.034,32.243,32.243,0,0,1-11.291-3.134,36.293,36.293,0,0,1-6.175-3.822,45.342,45.342,0,0,1-5.962-5.5,38.615,38.615,0,0,1-4.514-5.98A35,35,0,0,1-127.7-41.36a36.741,36.741,0,0,1-1.117-6.091,39.6,39.6,0,0,1-.039-7.137,40.01,40.01,0,0,1,1.27-7.282,33.943,33.943,0,0,1,3.823-8.855,33.592,33.592,0,0,1,5.6-6.887,2.152,2.152,0,0,1,.3-.248.98.98,0,0,1,1.223.13.987.987,0,0,1,.169,1.247,6.144,6.144,0,0,1-.39.519,39.581,39.581,0,0,0-5.038,8.086,31.432,31.432,0,0,0-2.7,9.218c-.141,1.1-.2,2.22-.294,3.331-.005.063,0,.128,0,.254" transform="translate(128.994 89.495)" fill="#01632e"/>
      </g>
      <g id="Gruppe_783" data-name="Gruppe 783" transform="translate(0.002 91.743)">
        <path id="Pfad_13364" data-name="Pfad 13364" d="M-126.39-9.619c-2.677-1.258-4.3-2.121-4.3-3.508,0-1.081.943-1.726,2.523-1.726a6.624,6.624,0,0,1,4.551,1.836l.586.554,3.324-3.806-.436-.511a10.519,10.519,0,0,0-8.025-3.648c-6.354,0-9.2,3.876-9.2,7.718,0,5.225,4.315,7.377,7.784,9.1C-127.166-2.4-125.078-1.36-125.078.3c0,.326-.149,1.954-3.091,1.954A8.5,8.5,0,0,1-133.7.272l-.592-.494-3.376,3.965.554.506a12.928,12.928,0,0,0,8.943,3.58,10.406,10.406,0,0,0,7.144-2.463,7.771,7.771,0,0,0,2.583-5.821c0-5.429-4.4-7.5-7.945-9.163M-147.759,1.075a9.495,9.495,0,0,1-4.153.948,4.043,4.043,0,0,1-4.039-4.039V-19.972h-6.865v17.5a10.309,10.309,0,0,0,10.3,10.3,19.7,19.7,0,0,0,11.291-3.553l.334-.232V-19.972h-6.865Zm-27.99-13.519a2.583,2.583,0,0,0-2.6-2.561c-.731,0-1.277,0-1.916.046V-10h2.029a2.439,2.439,0,0,0,1.758-.7,2.439,2.439,0,0,0,.729-1.746m-4.514,14.789c.655.039,1.386.06,2.068.06,2.448,0,5.367-.609,5.367-3.508,0-.823-.333-3.509-4.609-3.509h-2.826Zm14.375-3.259a8,8,0,0,1-2.029,5.389c-2.032,2.226-5.414,3.354-10.051,3.354a30.839,30.839,0,0,1-8.6-1.206l-.564-.159V-18.8l.522-.182a25.281,25.281,0,0,1,8.334-1.447c6.817,0,9.235,4.1,9.235,7.6a6.53,6.53,0,0,1-1.807,4.4,8.081,8.081,0,0,1,4.952,7.505M-197.934-6.3a8.712,8.712,0,0,0-2.454-6.414,7.488,7.488,0,0,0-5.186-2.139,7.487,7.487,0,0,0-5.186,2.139A8.721,8.721,0,0,0-213.214-6.3,8.712,8.712,0,0,0-210.76.114a7.487,7.487,0,0,0,5.186,2.139A7.488,7.488,0,0,0-200.388.114,8.721,8.721,0,0,0-197.934-6.3m7.244,0c0,7.922-6.539,14.129-14.887,14.129S-220.463,1.623-220.463-6.3s6.539-14.129,14.887-14.129S-190.69-14.223-190.69-6.3m-40.734-13.673h-6.865V7.373h15.967v-5.5h-9.1Zm-23.4,11.265H-242.5V3.857l-.289.233a16.923,16.923,0,0,1-10.767,3.738c-8.348,0-14.887-6.206-14.887-14.129s6.539-14.129,14.887-14.129a15.562,15.562,0,0,1,9.979,3.561l.5.419-2.587,4.473-.7-.525a12.046,12.046,0,0,0-7.2-2.348,7.486,7.486,0,0,0-5.186,2.139A8.719,8.719,0,0,0-261.2-6.3,8.711,8.711,0,0,0-258.742.117a7.486,7.486,0,0,0,5.186,2.139,13.146,13.146,0,0,0,4.191-.677V-3.469l-5.461.038Z" transform="translate(268.44 20.429)" fill="#ff9027"/>
      </g>
    </g>
  </g>
</svg>
