<svg xmlns="http://www.w3.org/2000/svg" width="152.245" height="120" viewBox="0 0 152.245 120">
  <g id="Gruppe_1580" data-name="Gruppe 1580" transform="translate(-1151.923 -669.953)">
    <g id="Gruppe_1579" data-name="Gruppe 1579" transform="translate(0 8.889)">
      <g id="Icon_Kamera" transform="translate(1151.923 661.064)">
        <path id="Pfad_21798" data-name="Pfad 21798" d="M10,38.5a36.841,36.841,0,0,1,1.8-5.136c3.192-6.233,8.33-9.628,15.452-9.7,7.279-.063,14.566,0,21.852,0h1.569c.314-1.5.5-2.917.91-4.273a12.862,12.862,0,0,1,11.3-9.126c3.255-.2,6.526-.22,9.789-.227q17.028-.047,34.049,0A14.225,14.225,0,0,1,115.9,12.89a12.826,12.826,0,0,1,5.091,9.032c.055.533.165,1.066.267,1.741h23.123c9.161,0,15.977,5.669,17.632,14.646a16.956,16.956,0,0,1,.157,2.964c0,23.631-.133,47.263.078,70.9.071,7.9-6.1,17.939-17.86,17.845-11.044-.086-22.1,0-33.147,0H28.04c-8.126,0-14.832-4.626-17.256-11.855-.29-.87-.541-1.756-.784-2.634Z" transform="translate(-10 -10.02)"/>
        <path id="Pfad_21799" data-name="Pfad 21799" d="M132.876,85.669A35.618,35.618,0,1,1,97.507,49.8a35.528,35.528,0,0,1,35.369,35.867Zm-7.953.173a27.7,27.7,0,1,0-27.806,27.453C112.639,113.349,125.1,100.815,124.922,85.842Z" transform="translate(-21.136 -18.645)" fill="#fff"/>
        <path id="Pfad_21800" data-name="Pfad 21800" d="M177.828,56.768a7.059,7.059,0,1,1-6.981-7.138A7.059,7.059,0,0,1,177.828,56.768Z" transform="translate(-43.146 -18.575)" fill="#fff"/>
        <path id="Pfad_21801" data-name="Pfad 21801" d="M124.82,89.747c-.322,13.334-11.765,24.056-25.609,23.531A24.692,24.692,0,1,1,124.82,89.747Z" transform="translate(-24.116 -21.669)" fill="#fff"/>
      </g>
    </g>
  </g>
</svg>
