<svg id="Gruppe_36" data-name="Gruppe 36" xmlns="http://www.w3.org/2000/svg" xmlns:xlink="http://www.w3.org/1999/xlink" width="458.514" height="377.558" viewBox="0 0 458.514 377.558">
  <defs>
    <clipPath id="clip-path">
      <rect id="Rechteck_7678" data-name="Rechteck 7678" width="458.514" height="377.558" fill="none"/>
    </clipPath>
  </defs>
  <g id="Gruppe_35" data-name="Gruppe 35" clip-path="url(#clip-path)">
    <path id="Pfad_5652" data-name="Pfad 5652" d="M854.315,402.2H748.644a129.234,129.234,0,1,0-114.682,0H528.294a66.245,66.245,0,1,0,0,132.49H854.315a66.245,66.245,0,1,0,0-132.49" transform="translate(-462.047 -157.128)" fill="#fff"/>
    <path id="Pfad_5653" data-name="Pfad 5653" d="M550.056,266.36c.292-.169.443-.239.574-.334a83.581,83.581,0,0,1,15.847-8.726,134.231,134.231,0,0,1,23.323-7.4c1.484-.342,2.974-.662,4.462-.994a2.442,2.442,0,0,0,.323-.118c.111-.662.233-1.366.344-2.072a134.309,134.309,0,0,1,5.245-22.052,108.669,108.669,0,0,1,8.288-18.949,67.94,67.94,0,0,1,15.026-18.669,48.406,48.406,0,0,1,32.753-12.169,64.076,64.076,0,0,1,22.388,4.475,73.5,73.5,0,0,1,18.949,10.521,85.418,85.418,0,0,1,10.243,9.25,107.084,107.084,0,0,1,9.126,11.041,125.281,125.281,0,0,1,9.493,15.124,97.8,97.8,0,0,1,10.238,31,106.047,106.047,0,0,1-3.373,46.112,107.136,107.136,0,0,1-13.788,28.959,103.936,103.936,0,0,1-16.285,18.831,98.538,98.538,0,0,1-23.37,15.822A102.288,102.288,0,0,1,657.2,373.7a105.639,105.639,0,0,1-12.691,2.03,93.862,93.862,0,0,1-17.244.089,85.734,85.734,0,0,1-30.014-8.33,96.515,96.515,0,0,1-16.413-10.16,120.682,120.682,0,0,1-15.848-14.618,102.5,102.5,0,0,1-12-15.9,92.954,92.954,0,0,1-10.388-24,97.84,97.84,0,0,1-2.971-16.192,108.615,108.615,0,0,1,3.276-38.327,90.258,90.258,0,0,1,10.155-23.535,89.22,89.22,0,0,1,14.883-18.3,5.845,5.845,0,0,1,.8-.662,2.682,2.682,0,0,1,3.7,3.663,16.352,16.352,0,0,1-1.04,1.38,105.159,105.159,0,0,0-13.388,21.49,83.593,83.593,0,0,0-7.181,24.5c-.374,2.939-.527,5.9-.78,8.853-.015.169,0,.34,0,.677m173.5-3.139a1.506,1.506,0,0,0,.091-.329,5.945,5.945,0,0,0-.051-.6,132.748,132.748,0,0,0-4.111-19.046,121.574,121.574,0,0,0-7.142-18.681,94.339,94.339,0,0,0-7.513-12.686,80.8,80.8,0,0,0-16.283-17.744,57.523,57.523,0,0,0-18.393-9.835,33.892,33.892,0,0,0-15.53-1.063,36.584,36.584,0,0,0-17.325,7.668,51.39,51.39,0,0,0-12.02,13.9c-1.075,1.767-2.029,3.609-3.07,5.4a85.828,85.828,0,0,0-6.837,14.784,107.075,107.075,0,0,0-4.891,20.354c-.039.271-.027.551-.042.874a238.493,238.493,0,0,1,75.766,3.062c-.029-.46-.032-.8-.074-1.139-.229-1.885-.44-3.773-.713-5.651a155.592,155.592,0,0,0-4.5-20.994,3.451,3.451,0,0,1-.142-.672,1.8,1.8,0,0,1,1.333-1.966,1.864,1.864,0,0,1,2.206.912c.136.251.236.524.349.789a139.068,139.068,0,0,1,8.185,27.491c.194,1.011.372,2.025.554,3.024,10.531,2.954,20.8,6.372,30.15,12.145m-40.083,40.391a152.568,152.568,0,0,0,2.854-19.139c.248-2.868.413-5.741.576-8.612.3-5.348.273-10.7.088-16.052-.024-.687-.039-.7-.733-.807-3.1-.458-6.2-.981-9.308-1.341-4.743-.548-9.5-1.019-14.251-1.451-5.532-.5-11.083-.726-16.639-.819-8.433-.143-16.866-.039-25.286.482-3.591.222-7.176.5-10.763.751a4.647,4.647,0,0,0-.7.148c-1.1,7.655-.608,44.716.664,48.78a307.493,307.493,0,0,0,73.493-1.941m-72.252,12.45c.051.4.076.7.13,1.008a141.556,141.556,0,0,0,3.639,15.884,73.8,73.8,0,0,0,4.868,12.8,35.7,35.7,0,0,0,6.868,9.56,18.51,18.51,0,0,0,12.521,5.458,24.814,24.814,0,0,0,10.514-1.99,34.207,34.207,0,0,0,10.8-7.459,64.273,64.273,0,0,0,11.4-15.316,112.4,112.4,0,0,0,8.679-21.293c.064-.209.093-.428.155-.726a243.638,243.638,0,0,1-69.571,2.074m-17.734-57.3a5.275,5.275,0,0,0-.529.029c-1.73.3-3.461.586-5.183.922a166.286,166.286,0,0,0-22.917,6.052,62.909,62.909,0,0,0-13.639,6.4c-1.289.832-1.112.468-1.016,1.973a99.936,99.936,0,0,0,2.428,16.287,1.226,1.226,0,0,0,.7.9c1.751.869,3.471,1.81,5.25,2.618a99.91,99.91,0,0,0,13.739,4.839,177.37,177.37,0,0,0,19.762,4.47c.524.089,1.055.148,1.72.236a263.268,263.268,0,0,1-.32-44.723m14.275,97.949c-.111-.307-.162-.494-.244-.664q-1.016-2.1-2.046-4.185a102.959,102.959,0,0,1-4.551-10.526,119.6,119.6,0,0,1-6.123-26.767c-.147-1.242-.126-1.242-1.373-1.5a150.343,150.343,0,0,1-20.6-5.682,101.794,101.794,0,0,1-16.748-7.7c-.263-.152-.527-.295-.945-.529.091.4.121.62.187.827a98.244,98.244,0,0,0,7.778,18.125,84.36,84.36,0,0,0,19.623,23.539,101.591,101.591,0,0,0,24.233,14.782c.221.1.46.16.81.281m86.953-55.185c.322-.039.517-.042.706-.088,2.93-.709,5.877-1.366,8.79-2.152A98.338,98.338,0,0,0,721.8,293a1.8,1.8,0,0,0,1.131-1.447c.548-3,1.016-6.008,1.3-9.046a88.282,88.282,0,0,0,.226-11.21,1.129,1.129,0,0,0-.736-1.124c-2.3-1.045-4.554-2.221-6.9-3.161a135.855,135.855,0,0,0-21.325-6.254,5.37,5.37,0,0,0-.736-.052,168.863,168.863,0,0,1-.056,40.818m25.882-.775c-.436.214-.666.329-.9.438-2.649,1.257-5.262,2.6-7.958,3.751a134.224,134.224,0,0,1-17.646,5.944,1.193,1.193,0,0,0-1.013,1.048c-.79,3.624-1.543,7.262-2.51,10.841a97.9,97.9,0,0,1-9.294,22.89c-2.157,3.81-4.6,7.436-7.046,11.065-.216.32-.413.652-.62.979a.635.635,0,0,0,.49-.019c1.038-.5,2.088-.971,3.109-1.5a73.855,73.855,0,0,0,14.293-9.771A92.081,92.081,0,0,0,708,327.456a103.777,103.777,0,0,0,12.1-25.117c.148-.458.285-.92.492-1.589" transform="translate(-409.231 -144.973)" fill="#00622c"/>
    <path id="Pfad_5654" data-name="Pfad 5654" d="M515.987,351.572h32.764v33.4l-.768.62a44.973,44.973,0,0,1-28.619,9.936c-22.189,0-39.569-16.5-39.569-37.552s17.38-37.554,39.569-37.554a41.362,41.362,0,0,1,26.529,9.454l1.333,1.114-6.875,11.887-1.863-1.4a32.007,32.007,0,0,0-19.124-6.243,19.91,19.91,0,0,0-13.791,5.687c-4.266,4.18-6.522,10.076-6.522,17.05s2.256,12.868,6.522,17.046a19.9,19.9,0,0,0,13.791,5.688,34.913,34.913,0,0,0,11.141-1.8V365.5l-14.517.1Zm62.2-29.941H559.939v72.686h42.442V379.7h-24.2Zm108.274,36.344c0,21.057-17.382,37.552-39.571,37.552s-39.567-16.5-39.567-37.552,17.38-37.554,39.567-37.554,39.571,16.5,39.571,37.554m-19.255,0c0-6.974-2.255-12.87-6.526-17.05a19.562,19.562,0,0,0-27.579,0c-4.268,4.18-6.524,10.076-6.524,17.05s2.256,12.868,6.524,17.046a19.558,19.558,0,0,0,27.579,0c4.271-4.179,6.526-10.074,6.526-17.046m85.183,14.315A21.271,21.271,0,0,1,747,386.614c-5.405,5.912-14.393,8.913-26.718,8.913a81.988,81.988,0,0,1-22.848-3.206l-1.5-.426V324.75l1.385-.484a67.257,67.257,0,0,1,22.153-3.845c18.118,0,24.548,10.888,24.548,20.212a17.365,17.365,0,0,1-4.792,11.707,21.48,21.48,0,0,1,13.159,19.95m-38.208,8.662c1.739.1,3.683.16,5.493.16,6.509,0,14.268-1.618,14.268-9.328,0-2.187-.883-9.324-12.25-9.324h-7.511Zm12-39.311a6.866,6.866,0,0,0-6.908-6.805c-1.943,0-3.4,0-5.09.123v13.188h5.4a6.486,6.486,0,0,0,6.6-6.505m74.4,35.936a25.249,25.249,0,0,1-11.04,2.527A10.749,10.749,0,0,1,778.8,369.367V321.631H760.552v46.526a27.4,27.4,0,0,0,27.37,27.37,52.357,52.357,0,0,0,30.012-9.442l.886-.617V321.631H800.576Zm56.8-28.425c-7.114-3.343-11.436-5.639-11.436-9.324,0-2.873,2.505-4.59,6.7-4.59a17.615,17.615,0,0,1,12.093,4.881l1.562,1.474,8.836-10.12-1.159-1.356a27.96,27.96,0,0,0-21.331-9.7c-16.886,0-24.447,10.3-24.447,20.516,0,13.889,11.473,19.606,20.689,24.2,6.426,3.2,11.975,5.968,11.975,10.379,0,.868-.4,5.193-8.217,5.193a22.589,22.589,0,0,1-14.7-5.265l-1.57-1.318L827.4,384.667l1.469,1.345a34.375,34.375,0,0,0,23.776,9.515c7.7,0,14.268-2.263,18.991-6.546A20.655,20.655,0,0,0,878.5,373.5c0-14.423-11.715-19.926-21.127-24.347" transform="translate(-449.891 -45.283)" fill="orange"/>
  </g>
</svg>
