<svg xmlns="http://www.w3.org/2000/svg" width="149.014" height="149" viewBox="0 0 149.014 149">
  <g id="Gruppe_672" data-name="Gruppe 672" transform="translate(-671.79 -399.72)">
    <path id="Pfad_12610" data-name="Pfad 12610" d="M820.8,474.22a74.5,74.5,0,0,1-42.141,67.118c-.689.345-1.393.661-2.1.977a.05.05,0,0,0-.029.014,73.424,73.424,0,0,1-19.131,5.558.244.244,0,0,0-.1.014,73.41,73.41,0,0,1-11.016.819,74.176,74.176,0,0,1-27.677-5.314c-.172-.072-.345-.144-.517-.2a1.762,1.762,0,0,0-.244-.1c-1.092-.459-2.169-.934-3.232-1.451-1.365-.632-2.715-1.307-4.022-2.025-.689-.373-1.365-.747-2.025-1.149-.23-.129-.474-.273-.7-.417A74.508,74.508,0,1,1,820.8,474.22Z" transform="translate(0 0)" fill="#f1ece1"/>
    <g id="Gruppe_671" data-name="Gruppe 671" transform="translate(707.868 425.476)">
      <path id="Pfad_12611" data-name="Pfad 12611" d="M743.324,481.971c0,2.4-7.6,3.911-17.07,3.911s-17.151-1.945-17.151-4.345,7.678-4.345,17.151-4.345S743.324,479.57,743.324,481.971Z" transform="translate(-691.589 -391.677)" fill="#c67500"/>
      <path id="Pfad_12612" data-name="Pfad 12612" d="M766.758,515.709c-.359.259-.819.531-1.364.847a.05.05,0,0,0-.029.014,73.431,73.431,0,0,1-19.131,5.558.244.244,0,0,0-.1.014,73.409,73.409,0,0,1-11.016.819,74.177,74.177,0,0,1-27.677-5.314c-.172-.072-.345-.144-.517-.2a1.774,1.774,0,0,0-.244-.1c-1.092-.46-2.169-.934-3.232-1.451-1.365-.632-2.715-1.307-4.022-2.025-.689-.373-1.365-.747-2.025-1.149.259-2.212.9-7.856,1.005-9.867.374-7.928,8.417-10.528,14.435-12.137.316-.086.618-.158.933-.244.216-.057.445-.115.661-.172h.014c.632-.158,1.206-.316,1.738-.474a12.3,12.3,0,0,0,2.284-.819,3.645,3.645,0,0,0,1.336-2.628,18.386,18.386,0,0,0,.072-5.142c0-.057-.014-.115-.014-.187-.072-.531-.144-1.077-.259-1.609a17.839,17.839,0,0,0-.991-3.5c-1.192-2.887-1.465-5.142-.7-6.765a.3.3,0,0,1,.043-.1v-.014c1.005-1.982,3.648-2.973,8.158-2.959l8.962-6.162,1.336-.919.373-.259a10.926,10.926,0,0,1,5.156,1.12,7.239,7.239,0,0,1,2,1.508c2.2,2.356,2.815,6.061,2.786,10.212l-1.393,2.154-.014.014-.575.891a29.366,29.366,0,0,0-1.092,4.122c-.029.129-.057.259-.072.373a22.78,22.78,0,0,0-.2,7.555,4.694,4.694,0,0,0,.933,2.528,14.747,14.747,0,0,0,2.8,1.767,4.874,4.874,0,0,0,.56.259c.646.316,1.321.589,2.025.862l.9.345c.8.3,1.623.6,2.47.919h.029c1.221.445,2.47.919,3.677,1.451a19.8,19.8,0,0,1,5.874,3.749A13.361,13.361,0,0,1,766.4,505.3a4.2,4.2,0,0,1,.072.417,19.508,19.508,0,0,1,.417,3.72C766.931,511.486,766.758,515.709,766.758,515.709Z" transform="translate(-696.695 -399.718)" fill="#f5d39c"/>
      <path id="Pfad_12613" data-name="Pfad 12613" d="M759.1,502.167a10.833,10.833,0,0,0-.28-2.275c-.125-4.2-2.644-8.816-8.577-10.572-6.09-1.8-13.3-1.413-14.992-6.2s.174-12.611.174-12.611l-7.358,4.79s4.781,10.733.789,13.5c-1.676,1.162-3.908,3.3-14.214,1.471,5.836,5.922,19.383.231,19.495.665a13.462,13.462,0,0,1-.872,3.9,5.071,5.071,0,0,0-.854,2.6.264.264,0,0,0,.336.22c1.518-.51,2.569-2.1,3.4-3.237a19.836,19.836,0,0,0,2.093-3.648c6.8,2.638,14.183,4.181,16,9.455a36.481,36.481,0,0,1,1.514,5.755c0,.422-.019.843-.06,1.261a7.754,7.754,0,0,1-2.429,4.556c-.178.185.009,1.313.281,1.161,1.209-.678,5-2.254,5.2-3.038C758.759,509.87,759.229,503.328,759.1,502.167Z" transform="translate(-689.172 -394.593)" fill="#eab885"/>
      <path id="Pfad_12614" data-name="Pfad 12614" d="M710.521,483.483c4.84.589,5.443-5.128,5.142-8.8a14.3,14.3,0,0,0,2.3.962c-.345,3.447-5.774,10.643,6.133,14.032C725.013,489.947,711.311,488.295,710.521,483.483Z" transform="translate(-690.97 -392.773)" fill="#eab885"/>
      <path id="Pfad_12615" data-name="Pfad 12615" d="M767.82,506.7c0,.029-.043.072-.115.115-.689.345-1.393.661-2.1.977a.05.05,0,0,0-.029.014,73.428,73.428,0,0,1-19.131,5.558.244.244,0,0,0-.1.014,73.41,73.41,0,0,1-11.016.819,74.175,74.175,0,0,1-27.677-5.314c-.172-.072-.345-.144-.517-.2a1.769,1.769,0,0,0-.244-.1c-1.092-.46-2.169-.934-3.232-1.451-1.365-.632-2.715-1.307-4.022-2.025-.689-.373-1.365-.747-2.025-1.149-.23-.129-.474-.273-.7-.417a46.926,46.926,0,0,1,.6-8.531c2.2-9.523,8.373-10.528,15.4-14.19.287-.158.589-.3.876-.474.46-.244.9-.5,1.365-.79.014-.014.029-.014.043-.029.359-.2.733-.445,1.092-.675a2.3,2.3,0,0,0,.115,2.212,6.536,6.536,0,0,0,.4.632,9.722,9.722,0,0,0,2.169,2.068,22.435,22.435,0,0,0,8.144,3.49h.057a15.838,15.838,0,0,0,1.982.33h.029a17.329,17.329,0,0,0,2.571.1c7.067-.287,11.979-2.284,14.435-4.294.172-.144.33-.273.474-.4a6.027,6.027,0,0,0,.661-.747c.819-1.034.919-1.982.23-2.585.029.014.043.014.058.043.488.3.891.847,1.35,1.192a13.2,13.2,0,0,0,1.336.862c.3.172.618.345.934.5C758.886,486.146,768.423,485.17,767.82,506.7Z" transform="translate(-696.909 -390.953)" fill="#e0921a"/>
      <path id="Pfad_12616" data-name="Pfad 12616" d="M745.446,481.3c-.085,4.486-8.34,8.839-18.278,8.839s-18.232-4.893-18.232-10.317l-.9.4c0,5.7,8.687,10.739,19.131,10.739s18.54-4.075,19.222-9.192Z" transform="translate(-692.054 -390.529)" fill="#fdad56"/>
      <path id="Pfad_12617" data-name="Pfad 12617" d="M738.274,483.242s4.58,2.166,6.537,4.486c4.185,4.961,4,15.885,3.546,16.366a43.955,43.955,0,0,1-8.55,3.443,57.775,57.775,0,0,0,3.052-7.773C745.185,491.4,738.274,483.242,738.274,483.242Z" transform="translate(-678.862 -389.037)" fill="#d87900"/>
      <g id="Gruppe_670" data-name="Gruppe 670" transform="translate(2.795)">
        <path id="Pfad_12618" data-name="Pfad 12618" d="M700.449,450.711c-.148,4.781-2.773,12.957,2.743,15.049,3.435,1.3,7.219-2.386,8.057-6.847s-1.05-10.578-4.1-12.622C703.818,444.064,700.6,445.754,700.449,450.711Z" transform="translate(-698.488 -405.579)" fill="#eab885"/>
        <path id="Pfad_12619" data-name="Pfad 12619" d="M704.564,444.747c-1.339-.047-3.608,3.539-3.654,5.85-.131,6.557-2.887,13.27,2.63,15.362a4.13,4.13,0,0,0,2.64.086C697.648,464.349,703.452,445.876,704.564,444.747Z" transform="translate(-698.309 -405.832)" fill="#f5d39c"/>
        <path id="Pfad_12620" data-name="Pfad 12620" d="M747.458,458.489c-3.572,5.576-4.121,13.652-10.012,13.307-3.668-.214-5.613-5.128-4.556-9.541s4.49-9.448,8.111-10.066C744.949,451.516,749.906,454.669,747.458,458.489Z" transform="translate(-684.131 -402.625)" fill="#f5d39c"/>
        <path id="Pfad_12621" data-name="Pfad 12621" d="M747.57,456.107c-.139-.974-1.363-1.257-2.157-1.58-1.895,3.816-2.435,8.721-6.051,11.362a7.892,7.892,0,0,1-4.271,1.466,12.282,12.282,0,0,1-1.754,1.168,4.031,4.031,0,0,0,3.331,1.949C743.005,470.161,742.041,463.287,747.57,456.107Z" transform="translate(-683.811 -401.565)" fill="#eab885"/>
        <path id="Pfad_12622" data-name="Pfad 12622" d="M755.448,470.038a27.329,27.329,0,0,1-1.218,4.81,30.22,30.22,0,0,1-2.493,5.337,4.607,4.607,0,0,1-.26.454c-4.457,7.3-11.974,12.882-20.5,13.365a18.549,18.549,0,0,1-11.508-.419,15.214,15.214,0,0,1-2.054-.9,14.373,14.373,0,0,1-2.121-1.306,13.467,13.467,0,0,1-1.548-1.347c-.012-.017-.023-.033-.037-.036a11.538,11.538,0,0,1-.868-.964,45.973,45.973,0,0,1-8.024-9.936c-.217-.382-.418-.763-.606-1.14a13.615,13.615,0,0,1-.646-1.352,20.206,20.206,0,0,1-.829-2.136c-.076-.26-.165-.521-.24-.794s-.149-.531-.208-.8-.121-.527-.18-.8c-.043-.2-.085-.391-.112-.585-.026-.121-.039-.224-.063-.345s-.02-.254-.037-.381c-.085-.636-.152-1.264-.182-1.834-.014-.191-.013-.381-.029-.557,0-.349-.012-.671,0-.944a21.476,21.476,0,0,1,.266-3.085l.03-.2c.126-.809.549-3.316,1.014-6.195.066-.425.149-.863.218-1.3l.056-.355c.287-1.744.579-3.515.819-5.047a1.864,1.864,0,0,0,.062-.4c.277-1.584.48-2.875.585-3.543,1.626-10.387,8.481-14.808,18.134-15.363a48.566,48.566,0,0,1,10.3.623,28.533,28.533,0,0,1,16.191,8.292,24.837,24.837,0,0,1,1.886,2.156c-.016.013,0,.014,0,.014a4.39,4.39,0,0,1,.373.494c.169.215.325.429.478.656a24.127,24.127,0,0,1,4.289,16.809c-.026.257-.066.513-.106.768l-.05.326c-.079.409-.158.819-.25,1.227-.012.07-.037.139-.05.224-.121.49-.257.992-.4,1.478C756.007,467.582,755.872,467.328,755.448,470.038Z" transform="translate(-697.621 -411.448)" fill="#f5d39c"/>
        <path id="Pfad_12623" data-name="Pfad 12623" d="M756.42,465.861a40.631,40.631,0,0,1-1.926,5.994c-.768,1.93-1.659,3.811-2.562,5.589l-.25.484c-.06.108-.1.2-.164.309A26.163,26.163,0,0,1,736.8,490.412c-5.408,1.857-12.063,2.865-17.33.471a13.619,13.619,0,0,1-2-1.129c-.012.072-.036.141-.05.225a14.373,14.373,0,0,1-2.121-1.306.317.317,0,0,1,0-.116c-.609-.474-1.115-.872-1.553-1.231-.012-.017-.023-.033-.037-.036a34.521,34.521,0,0,1-4.737-4.942,38.243,38.243,0,0,1-4.155-5.958c-.217-.382-.418-.763-.606-1.14-.234-.458-.455-.9-.646-1.352a20.206,20.206,0,0,1-.829-2.136c-.076-.26-.165-.521-.24-.794a.349.349,0,0,1-.04-.108c-.066-.228-.118-.455-.168-.7-.059-.271-.121-.527-.18-.8-.029-.194-.07-.389-.1-.582-.026-.121-.039-.224-.066-.33-.111-.774-.194-1.543-.231-2.232-.014-.191-.013-.381-.029-.557,0-.349-.012-.671,0-.944.022-.23.04-.445.067-.615a10.969,10.969,0,0,0,.149,2.015c0,.014,0,.014.01.03a21.587,21.587,0,0,0,.53,2.555l.089.274c1.063,3.7,3.568,9.151,9.446,15.058,2.83,2.827,7.3,5.912,11.226,6.582,3.8.639,8.825-.929,12.4-2.391,5.527-2.245,9.221-6.436,12.523-11.457a.492.492,0,0,1,.076-.119c.116-.185.23-.356.346-.542a14.259,14.259,0,0,0,.879-1.622,46.145,46.145,0,0,0,3.177-11.845c.088-.554.156-1.1.222-1.609.085-.816.16-1.574.174-2.226a9.278,9.278,0,0,0-.062-2.2c-.936-4.421-3.892-7.543-7.709-9.725a9.99,9.99,0,0,0-1.083-.606c-.066-.04-.147-.082-.228-.124-.5-.251-1-.49-1.515-.717l-.327-.138c-.356-.144-.7-.284-1.053-.427-.672-.251-1.349-.488-2.028-.7-.8-.271-1.636-.5-2.46-.72a68.394,68.394,0,0,0-9.586-1.734c-4.55-.553-7.862-.664-7.921-1.037a113.65,113.65,0,0,1,13.6-2.377,41.607,41.607,0,0,1,12.414.475.974.974,0,0,1,.211.047,21.177,21.177,0,0,1,3.227.926,19.775,19.775,0,0,1,2.6,1.133c.121.063.228.124.346.2a6.468,6.468,0,0,1,.668.381,16.568,16.568,0,0,1,6.048,6.312c0,.073-.009.144,0,.217-.112,3.5-.366,6.979-.721,10.456q-.213,2.191-.467,4.375A27.632,27.632,0,0,1,756.42,465.861Z" transform="translate(-697.621 -408.748)" fill="#eab885"/>
        <ellipse id="Ellipse_499" data-name="Ellipse 499" cx="3.414" cy="4.093" rx="3.414" ry="4.093" transform="translate(39.065 57.887) rotate(-81.103)" fill="#fff"/>
        <path id="Pfad_12624" data-name="Pfad 12624" d="M733.514,457.2a3.278,3.278,0,1,1-2.751-3.6A3.208,3.208,0,0,1,733.514,457.2Z" transform="translate(-686.573 -401.988)" fill="#8ea624"/>
        <path id="Pfad_12625" data-name="Pfad 12625" d="M733.016,457.031a2.892,2.892,0,1,1-2.427-3.18A2.829,2.829,0,0,1,733.016,457.031Z" transform="translate(-686.456 -401.876)" fill="#aaba34"/>
        <path id="Pfad_12626" data-name="Pfad 12626" d="M732.389,456.428a2.288,2.288,0,1,1-1.906-2.614A2.287,2.287,0,0,1,732.389,456.428Z" transform="translate(-686.209 -401.889)" fill="#1d1e1e"/>
        <path id="Pfad_12627" data-name="Pfad 12627" d="M731.609,455.159a.729.729,0,1,1-.961-.6A.808.808,0,0,1,731.609,455.159Z" transform="translate(-685.179 -401.565)" fill="#fff"/>
        <path id="Pfad_12628" data-name="Pfad 12628" d="M728.766,456.269a.432.432,0,1,1-.569-.355A.479.479,0,0,1,728.766,456.269Z" transform="translate(-686.169 -400.968)" fill="#fff"/>
        <path id="Pfad_12629" data-name="Pfad 12629" d="M728.458,454.934a.286.286,0,1,1-.02-.444A.318.318,0,0,1,728.458,454.934Z" transform="translate(-686.171 -401.601)" fill="#fff"/>
        <path id="Pfad_12630" data-name="Pfad 12630" d="M714.753,454.209c-.292,1.863-2.34,3.089-4.573,2.739s-3.808-2.143-3.516-4.006,2.338-3.089,4.573-2.74S715.044,452.346,714.753,454.209Z" transform="translate(-695.463 -403.478)" fill="#fff"/>
        <path id="Pfad_12631" data-name="Pfad 12631" d="M713.746,453.687a3.278,3.278,0,1,1-2.75-3.6A3.206,3.206,0,0,1,713.746,453.687Z" transform="translate(-695.197 -403.522)" fill="#8ea624"/>
        <path id="Pfad_12632" data-name="Pfad 12632" d="M713.248,453.515a2.892,2.892,0,1,1-2.426-3.18A2.829,2.829,0,0,1,713.248,453.515Z" transform="translate(-695.08 -403.41)" fill="#aaba34"/>
        <circle id="Ellipse_500" data-name="Ellipse 500" cx="2.288" cy="2.288" r="2.288" transform="translate(13.239 46.848)" fill="#1d1e1e"/>
        <path id="Pfad_12633" data-name="Pfad 12633" d="M711.841,451.643a.73.73,0,1,1-.961-.6A.81.81,0,0,1,711.841,451.643Z" transform="translate(-693.804 -403.099)" fill="#fff"/>
        <path id="Pfad_12634" data-name="Pfad 12634" d="M709,452.752a.432.432,0,1,1-.569-.353A.48.48,0,0,1,709,452.752Z" transform="translate(-694.793 -402.502)" fill="#fff"/>
        <path id="Pfad_12635" data-name="Pfad 12635" d="M708.69,451.419a.287.287,0,1,1-.02-.445A.318.318,0,0,1,708.69,451.419Z" transform="translate(-694.795 -403.135)" fill="#fff"/>
        <path id="Pfad_12636" data-name="Pfad 12636" d="M720.048,457.691s-2.539-.583-3.9.518a3.551,3.551,0,0,0-1.135,3.984c.666,1.726,2.755,2.565,2.873,1.811s-1.2-.378-1.91-1.676a2.805,2.805,0,0,1,.817-3.569c1-.678,2.516-.33,2.967-.313.646.023.975-.24.886-.415C720.5,457.754,720.048,457.691,720.048,457.691Z" transform="translate(-691.9 -400.252)" fill="#c89369"/>
        <path id="Pfad_12637" data-name="Pfad 12637" d="M726.487,455.358a5.622,5.622,0,0,1,4.178-1.027,8.557,8.557,0,0,1,4.45,2.277,5.456,5.456,0,0,0-1.678-2.254C728.887,451.55,726.487,455.358,726.487,455.358Z" transform="translate(-686.799 -402.09)" fill="#5f2e1c"/>
        <path id="Pfad_12638" data-name="Pfad 12638" d="M706.546,451.765a5.629,5.629,0,0,1,4.178-1.027,8.565,8.565,0,0,1,4.451,2.277,5.451,5.451,0,0,0-1.679-2.254C708.946,447.957,706.546,451.765,706.546,451.765Z" transform="translate(-695.499 -403.658)" fill="#5f2e1c"/>
        <path id="Pfad_12639" data-name="Pfad 12639" d="M734.91,446.892a8.636,8.636,0,0,1,3.729,2.18c1.653,1.433,2.91,3.316,2.771,3.444-.037.036-.181-.065-.253-.113l-.068-.046a26.109,26.109,0,0,0-5.755-3.234,11.348,11.348,0,0,0-7.44,1.5,6.892,6.892,0,0,1-1.228.529c-.978.355-1.194.281-1.3.21-.335-.23-.325-.868-.241-1.228.326-1.423,2.574-2.062,4.534-2.62C732,446.85,733.256,446.491,734.91,446.892Z" transform="translate(-687.414 -404.969)" fill="#70431d"/>
        <path id="Pfad_12640" data-name="Pfad 12640" d="M710.591,446.016c-4.19.458-7.621,4.093-7.635,4.674s3.576-3,8.31-2.858,5.64,1.264,6.453,1.732c1.54.889,1.715-.237,1.556-.993S716.48,445.372,710.591,446.016Z" transform="translate(-697.066 -405.325)" fill="#70431d"/>
        <g id="Gruppe_668" data-name="Gruppe 668" transform="translate(2.447 41.543)">
          <path id="Pfad_12641" data-name="Pfad 12641" d="M719.9,449.788l-11.289-1.767-.79-.129c-.129-.014-.273-.043-.4-.057a5.223,5.223,0,0,0-2.786.531c-.014,0-.014.014-.029.014a3.75,3.75,0,0,0-1.307,1.092,1.419,1.419,0,0,0-.158.244v.014a2.932,2.932,0,0,0-.4,1.034v.029l-.847,5.4a3.177,3.177,0,0,0,.014.977v.014a4.567,4.567,0,0,0,3.935,3.318l3.3.517,8.776,1.379c2.485.388,4.768-.919,5.085-2.9l.373-2.356.273-1.738.2-1.307C724.152,452.115,722.385,450.176,719.9,449.788Zm2.442,4.366-.761,4.826c-.23,1.508-2.011,2.485-3.964,2.169l-7.928-1.235-3.174-.5c-1.953-.3-3.346-1.781-3.117-3.275l.761-4.826c.23-1.508,2.011-2.485,3.964-2.169l1.106.172,10,1.566C721.179,451.181,722.572,452.661,722.342,454.154Z" transform="translate(-699.991 -446.035)" fill="#58731e"/>
          <path id="Pfad_12642" data-name="Pfad 12642" d="M743.3,455.906a3.384,3.384,0,0,0-.761-1.408,5.209,5.209,0,0,0-3.1-1.666l-12.079-1.882c-2.485-.388-4.768.9-5.084,2.887l-.172,1.135-.244,1.522-.431,2.758c-.273,1.767,1.12,3.5,3.174,4.122a4.69,4.69,0,0,0,.776.187l8.086,1.264,3.993.632h.029c2.47.373,4.74-.934,5.056-2.9l.8-5.128.043-.287A2.989,2.989,0,0,0,743.3,455.906Zm-1.451,1.307-.761,4.826c-.215,1.393-1.781,2.327-3.562,2.212a2.022,2.022,0,0,1-.4-.043l-5.659-.89-5.487-.862h-.043c-1.925-.33-3.318-1.8-3.074-3.275l.747-4.826c.244-1.508,2.025-2.485,3.978-2.169l11.146,1.738a3.914,3.914,0,0,1,2.743,1.68A2.3,2.3,0,0,1,741.854,457.213Z" transform="translate(-691.468 -444.699)" fill="#58731e"/>
          <path id="Pfad_12643" data-name="Pfad 12643" d="M718.969,454.313l3.7.579a2.337,2.337,0,0,1,1.866,1.943,2.8,2.8,0,0,0,.188-.656,2.463,2.463,0,0,0-1.883-2.907l-3.7-.58a2.466,2.466,0,0,0-2.682,2.195,2.816,2.816,0,0,0,.017.965A2.375,2.375,0,0,1,718.969,454.313Z" transform="translate(-693.637 -443.92)" fill="#58731e"/>
          <path id="Pfad_12644" data-name="Pfad 12644" d="M735.994,455.559l5.787-2.828-.214,1.367-5.281,2.891Z" transform="translate(-685.099 -443.892)" fill="#58731e"/>
          <path id="Pfad_12645" data-name="Pfad 12645" d="M704.7,450.926l-3.931-4.349-.214,1.367,3.5,4.265Z" transform="translate(-700.559 -446.577)" fill="#58731e"/>
        </g>
        <path id="Pfad_12646" data-name="Pfad 12646" d="M765.43,433.51c-3.424-5.128-9.5-5.327-10.062-5.969-14.97-17.23-44.976-10.31-53.533,8.2a30.949,30.949,0,0,0-2.979,12.22c.017,3.117,2.117-.582,1.962.89a50.629,50.629,0,0,0,1.494,19.077s1.634-9.728,3.825-11.953c.122-.125.247-.264.373-.414,4.79,1.363,17.2,3.424,28.39-.162,1.008-.323,1.939-.641,2.811-.954a7.575,7.575,0,0,1-2.366,2,16.1,16.1,0,0,1-7.775,1.935s3.678,1.86,10.331-.368a12.708,12.708,0,0,0,6.287-4.941h0c-1.854,4.965-5.138,6.192-5.138,6.192a15.62,15.62,0,0,0,9.8-5.892,9.453,9.453,0,0,0,1.568-2.762,24.379,24.379,0,0,1,4.381,7.428,80.486,80.486,0,0,1,2.14,9.208c.327,1.869.742,7.838.742,7.838S777.767,451.993,765.43,433.51Z" transform="translate(-698.855 -417.653)" fill="#3d2012"/>
        <path id="Pfad_12647" data-name="Pfad 12647" d="M750.71,428.238s-5.517-10.126-24.031-9.209c-10.861.537-21.616,9.748-21.3,11.454,21.981-14.578,43.008-2.413,43.891-1.412-.151.3,1.083,3.782-.935,7.474,0,0-1.017-4.934-1.426-4.309-1.021,1.551-5.016,3.127-6.894,3.513,3.259-5.153,6.236-5.153,6.236-5.153l-10.623-1.138c5.059-2.478,11.4-.243,11.4-.243s-2.308-1.838-7.4-2.712c-22.1-3.789-27.584,10.005-28.458,12.352,6.37-5.75,11.986-7.242,14.139-7.276,4.057-.066.764,1.112-1.986,3.719-3.747,3.549-4.47,6.6-4.47,6.6,5.112-4.609,11.443-4.013,12.017-2.21s-3.648,3.164-6.183,4.441,5.68-1.6,9.916-1.814c-6.67,12.033-27.959,10.666-27.959,10.666s.615,1.245,8.382,2.246c15.473,1.994,23.778-6.183,23.778-6.183l-.8,2.152a23.935,23.935,0,0,1-3.447,5.24,16.415,16.415,0,0,0,9.013-9.652c.753,2.686-1.512,8.345-1.512,8.345s2.328-2.233,5.79-8.853C752.066,438.219,750.71,428.238,750.71,428.238Z" transform="translate(-696.01 -417.078)" fill="#5f2e1c"/>
        <path id="Pfad_12648" data-name="Pfad 12648" d="M739.274,425.628s6.624,1.706,9.146,5.837,3.42,7.135,3.385,11.069c-.118,13.428-9.416,25.845-9.416,25.845s3.934-13.77,4.024-18.749c.191-10.518-5.169-15.521-5.169-15.521s-1.767,6.106-3.124,9.319-2.225,3.777-2.225,3.777a109.084,109.084,0,0,0,3.391-16.068A29.43,29.43,0,0,0,739.274,425.628Z" transform="translate(-682.694 -414.173)" fill="#5f2e1c"/>
        <g id="Gruppe_669" data-name="Gruppe 669" transform="translate(18.369 68.432)">
          <path id="Pfad_12649" data-name="Pfad 12649" d="M726.863,468.859a11.634,11.634,0,0,1-3.708,1.586,10.824,10.824,0,0,1-4.613.122,11.494,11.494,0,0,1-3.874-1.537c-.014,0-.027,0-.026-.019a11.749,11.749,0,0,1-3-2.766,16.6,16.6,0,0,1,3.1-.794,16.4,16.4,0,0,1,4.435,0,15.527,15.527,0,0,1,4.452,1.366h.014A16.293,16.293,0,0,1,726.863,468.859Z" transform="translate(-711.644 -465.298)" fill="#6e0b17"/>
          <path id="Pfad_12650" data-name="Pfad 12650" d="M722.693,466.813a17.315,17.315,0,0,1-4.345-.289,38.357,38.357,0,0,1-4.543-1.074,16.4,16.4,0,0,1,4.435,0A15.527,15.527,0,0,1,722.693,466.813Z" transform="translate(-710.701 -465.298)" fill="#fff"/>
        </g>
        <path id="Pfad_12651" data-name="Pfad 12651" d="M722.3,469.536a10.824,10.824,0,0,1-4.613.122,11.494,11.494,0,0,1-3.874-1.537c-.014,0-.027,0-.026-.019-.065-.055-.115-.106-.178-.159,1.283-.948,3.013-.589,4.491.281A4.116,4.116,0,0,1,722.3,469.536Z" transform="translate(-692.419 -395.957)" fill="#e1354c"/>
      </g>
    </g>
  </g>
</svg>
