<svg id="Selection_Control_Radio_On_Enabled" data-name="Selection Control / Radio / On / Enabled" xmlns="http://www.w3.org/2000/svg" width="35" height="35" viewBox="0 0 35 35">
  <path id="Selection_Control_Radio_On_Enabled-2" data-name="Selection Control / Radio / On / Enabled" d="M22.5-384A17.506,17.506,0,0,0,5-366.5,17.506,17.506,0,0,0,22.5-349,17.506,17.506,0,0,0,40-366.5,17.506,17.506,0,0,0,22.5-384Zm0,31.5a14,14,0,0,1-14-14,14,14,0,0,1,14-14,14,14,0,0,1,14,14A14,14,0,0,1,22.5-352.5Zm0-5.25a8.75,8.75,0,0,0,8.75-8.75,8.75,8.75,0,0,0-8.75-8.75,8.75,8.75,0,0,0-8.75,8.75A8.75,8.75,0,0,0,22.5-357.75Z" transform="translate(-5 384)" fill="orange"/>
</svg>
