<svg xmlns="http://www.w3.org/2000/svg" xmlns:xlink="http://www.w3.org/1999/xlink" width="398" height="318.401" viewBox="0 0 398 318.401">
  <defs>
    <clipPath id="clip-path">
      <path id="Pfad_13365" data-name="Pfad 13365" d="M0-226.772H398v318.4H0Z" transform="translate(0 226.772)" fill="none"/>
    </clipPath>
  </defs>
  <g id="Gruppe_785" data-name="Gruppe 785" transform="translate(9.5 280.905)">
    <g id="Gruppe_784" data-name="Gruppe 784" transform="translate(-9.5 -280.905)" clip-path="url(#clip-path)">
      <g id="Gruppe_782" data-name="Gruppe 782" transform="translate(99.845)">
        <path id="Pfad_13363" data-name="Pfad 13363" d="M52.121,36.16c-.437.212-.664.327-.9.437-2.644,1.255-5.251,2.6-7.944,3.745a134.05,134.05,0,0,1-17.614,5.934,1.191,1.191,0,0,0-1.011,1.046c-.789,3.618-1.542,7.249-2.5,10.822a97.866,97.866,0,0,1-9.278,22.848c-2.154,3.8-4.6,7.423-7.036,11.046-.215.32-.413.651-.618.977A.628.628,0,0,0,5.708,93c1.038-.494,2.085-.967,3.1-1.5a73.83,73.83,0,0,0,14.268-9.754A91.876,91.876,0,0,0,39.55,62.818,103.428,103.428,0,0,0,51.629,37.746c.149-.456.285-.918.491-1.585m-25.836.774c.322-.039.517-.044.7-.088,2.927-.709,5.869-1.365,8.778-2.147A98.2,98.2,0,0,0,53.33,28.427a1.8,1.8,0,0,0,1.127-1.445c.548-2.995,1.015-6,1.3-9.031a88.572,88.572,0,0,0,.225-11.189,1.129,1.129,0,0,0-.737-1.123C52.946,4.6,50.7,3.422,48.361,2.484A135.454,135.454,0,0,0,27.077-3.76a5.455,5.455,0,0,0-.737-.052,168.555,168.555,0,0,1-.055,40.746m-86.8,55.087c-.111-.306-.161-.491-.244-.661q-1.015-2.093-2.042-4.18a102.856,102.856,0,0,1-4.544-10.507,119.427,119.427,0,0,1-6.112-26.718c-.147-1.241-.126-1.241-1.37-1.5a150.033,150.033,0,0,1-20.565-5.671,101.767,101.767,0,0,1-16.718-7.69c-.261-.152-.527-.295-.944-.529.09.4.121.619.188.826A98.016,98.016,0,0,0-105.1,53.486a84.19,84.19,0,0,0,19.588,23.5A101.5,101.5,0,0,0-61.326,91.74c.223.1.462.161.812.281M-74.764-5.755c-.261.014-.4.006-.531.029-1.724.3-3.453.585-5.171.921a165.745,165.745,0,0,0-22.876,6.04A62.824,62.824,0,0,0-116.957,7.62c-1.288.833-1.111.469-1.015,1.971a99.641,99.641,0,0,0,2.425,16.256,1.228,1.228,0,0,0,.7.9c1.748.868,3.464,1.806,5.239,2.612a99.968,99.968,0,0,0,13.716,4.831,176.815,176.815,0,0,0,19.727,4.464c.524.088,1.053.145,1.717.236a262.846,262.846,0,0,1-.319-44.646m17.7,57.2c.049.393.076.7.129,1.007A141.5,141.5,0,0,0-53.3,68.306a73.685,73.685,0,0,0,4.859,12.78,35.655,35.655,0,0,0,6.857,9.542,18.467,18.467,0,0,0,12.5,5.448,24.749,24.749,0,0,0,10.5-1.987A34.136,34.136,0,0,0-7.813,86.645,64.1,64.1,0,0,0,3.566,71.355,112.2,112.2,0,0,0,12.231,50.1c.063-.208.091-.427.154-.724a243.207,243.207,0,0,1-69.448,2.071M15.061,39.018a152.428,152.428,0,0,0,2.852-19.106c.247-2.86.413-5.729.574-8.6.3-5.34.272-10.682.086-16.023-.022-.687-.037-.7-.73-.806-3.1-.458-6.183-.98-9.291-1.339C3.817-7.4-.927-7.869-5.674-8.3c-5.524-.5-11.064-.726-16.609-.819-8.42-.142-16.836-.038-25.244.483-3.582.222-7.162.493-10.744.748a5.156,5.156,0,0,0-.694.147c-1.1,7.644-.608,44.638.661,48.7a307,307,0,0,0,73.363-1.939M55.074-1.3a1.415,1.415,0,0,0,.09-.329,5.365,5.365,0,0,0-.051-.6,132.4,132.4,0,0,0-4.1-19.012,121.661,121.661,0,0,0-7.13-18.647,94.3,94.3,0,0,0-7.5-12.665A80.574,80.574,0,0,0,20.124-70.266,57.432,57.432,0,0,0,1.768-80.084a33.869,33.869,0,0,0-15.505-1.06A36.552,36.552,0,0,0-31.03-73.49a51.337,51.337,0,0,0-12,13.878c-1.074,1.766-2.023,3.606-3.065,5.393A85.761,85.761,0,0,0-52.92-39.464,106.841,106.841,0,0,0-57.8-19.145c-.038.272-.027.55-.041.875a238.067,238.067,0,0,1,75.63,3.055c-.028-.459-.031-.8-.072-1.137-.23-1.881-.439-3.766-.713-5.64a155.2,155.2,0,0,0-4.49-20.957,3.561,3.561,0,0,1-.142-.673A1.8,1.8,0,0,1,13.7-45.585a1.86,1.86,0,0,1,2.2.911,8.582,8.582,0,0,1,.347.788,138.455,138.455,0,0,1,8.17,27.442c.2,1.008.373,2.02.557,3.019C35.49-10.477,45.737-7.065,55.074-1.3M-118.114,1.83c.291-.167.441-.237.574-.331a83.323,83.323,0,0,1,15.818-8.711A134.228,134.228,0,0,1-78.443-14.6c1.483-.341,2.971-.66,4.455-.991a3.388,3.388,0,0,0,.324-.117c.11-.664.232-1.366.341-2.07a134.035,134.035,0,0,1,5.237-22.014,108.42,108.42,0,0,1,8.273-18.915,67.84,67.84,0,0,1,15-18.636A49.778,49.778,0,0,1-23.4-88.312a50.044,50.044,0,0,1,11.284-1.181,63.915,63.915,0,0,1,22.347,4.469,73.377,73.377,0,0,1,18.917,10.5,85.419,85.419,0,0,1,10.223,9.234,107,107,0,0,1,9.11,11.022,124.711,124.711,0,0,1,9.477,15.1A97.672,97.672,0,0,1,68.178-8.227a104.443,104.443,0,0,1,.956,21.659A103.748,103.748,0,0,1,64.809,37.8,106.869,106.869,0,0,1,51.044,66.709a103.669,103.669,0,0,1-16.255,18.8A98.341,98.341,0,0,1,11.462,101.3a102.084,102.084,0,0,1-22.621,7.677A104.739,104.739,0,0,1-23.826,111a93.5,93.5,0,0,1-17.214.09A85.552,85.552,0,0,1-71,102.777,96.3,96.3,0,0,1-87.385,92.636,120.3,120.3,0,0,1-103.2,78.045a102.457,102.457,0,0,1-11.978-15.867A92.858,92.858,0,0,1-125.55,38.22a97.489,97.489,0,0,1-2.963-16.162,105.081,105.081,0,0,1-.1-18.938A106.165,106.165,0,0,1-125.244-16.2a90.062,90.062,0,0,1,10.136-23.493A89.13,89.13,0,0,1-100.25-57.966a5.709,5.709,0,0,1,.793-.659,2.6,2.6,0,0,1,3.246.345,2.619,2.619,0,0,1,.448,3.309A16.3,16.3,0,0,1-96.8-53.594,105.02,105.02,0,0,0-110.164-32.14a83.4,83.4,0,0,0-7.168,24.459c-.373,2.932-.528,5.89-.779,8.837-.014.168,0,.338,0,.674" transform="translate(128.993 89.493)" fill="#01632e"/>
      </g>
      <g id="Gruppe_783" data-name="Gruppe 783" transform="translate(0 243.429)">
        <path id="Pfad_13364" data-name="Pfad 13364" d="M108.467,8.253c-7.1-3.337-11.415-5.629-11.415-9.308,0-2.868,2.5-4.58,6.693-4.58A17.574,17.574,0,0,1,115.814-.762l1.56,1.47,8.82-10.1-1.157-1.355a27.91,27.91,0,0,0-21.293-9.68c-16.859,0-24.4,10.285-24.4,20.478,0,13.864,11.45,19.573,20.652,24.157,6.414,3.2,11.954,5.959,11.954,10.362,0,.865-.4,5.184-8.2,5.184A22.544,22.544,0,0,1,89.068,34.5L87.5,33.187,78.542,43.706l1.469,1.342a34.3,34.3,0,0,0,23.734,9.5c7.686,0,14.243-2.261,18.959-6.536a20.62,20.62,0,0,0,6.853-15.452c0-14.4-11.694-19.891-21.09-24.306m-56.7,28.375a25.193,25.193,0,0,1-11.02,2.522A10.729,10.729,0,0,1,30.032,28.432V-19.219H11.817V27.225A27.354,27.354,0,0,0,39.138,54.547,52.264,52.264,0,0,0,69.1,45.12l.886-.616V-19.219H51.769ZM-22.5.757a6.853,6.853,0,0,0-6.9-6.794c-1.939,0-3.388,0-5.083.121V7.248h5.385A6.473,6.473,0,0,0-22.5.757M-34.475,40c1.738.1,3.677.16,5.487.16,6.5,0,14.24-1.616,14.24-9.309,0-2.185-.883-9.31-12.228-9.31h-7.5ZM3.666,31.35a21.228,21.228,0,0,1-5.383,14.3c-5.392,5.905-14.365,8.9-26.669,8.9a81.826,81.826,0,0,1-22.808-3.2l-1.5-.427V-16.106l1.384-.482A67.079,67.079,0,0,1-29.19-20.426c18.087,0,24.5,10.869,24.5,20.176A17.326,17.326,0,0,1-9.47,11.436,21.442,21.442,0,0,1,3.666,31.35M-81.366,17.06c0-6.961-2.252-12.846-6.512-17.019a19.867,19.867,0,0,0-13.767-5.675A19.864,19.864,0,0,0-115.41.041c-4.26,4.173-6.512,10.057-6.512,17.019s2.252,12.846,6.512,17.019a19.865,19.865,0,0,0,13.765,5.677,19.869,19.869,0,0,0,13.767-5.677c4.26-4.173,6.512-10.057,6.512-17.019m19.22,0c0,21.02-17.35,37.487-39.5,37.487s-39.5-16.467-39.5-37.487,17.351-37.486,39.5-37.486,39.5,16.465,39.5,37.486m-108.08-36.278h-18.215V53.338h42.366V38.748h-24.151Zm-62.087,29.89h32.7V44.009l-.767.619a44.9,44.9,0,0,1-28.568,9.918c-22.149,0-39.5-16.467-39.5-37.487s17.35-37.486,39.5-37.486a41.291,41.291,0,0,1,26.482,9.437l1.331,1.112L-207.994,1.99-209.853.6a31.963,31.963,0,0,0-19.091-6.23A19.862,19.862,0,0,0-242.709.041c-4.261,4.173-6.513,10.057-6.513,17.019s2.252,12.846,6.513,17.019a19.863,19.863,0,0,0,13.765,5.677,34.879,34.879,0,0,0,11.12-1.8V24.571l-14.49.1Z" transform="translate(268.443 20.426)" fill="orange"/>
      </g>
    </g>
  </g>
</svg>
