<svg id="GLOBUS-Logo-Responsive_gruen_HG" data-name="GLOBUS-Logo-Responsive_gruen HG" xmlns="http://www.w3.org/2000/svg" width="258.095" height="94.977" viewBox="0 0 258.095 94.977">
  <g id="Boundingbox">
    <rect id="Rechteck_8066" data-name="Rechteck 8066" width="258.095" height="94.977" fill="none"/>
  </g>
  <g id="GLOBUS">
    <rect id="Rechteck_8067" data-name="Rechteck 8067" width="258.095" height="94.977" fill="#00622c"/>
    <g id="Gruppe_1467" data-name="Gruppe 1467">
      <path id="Pfad_21782" data-name="Pfad 21782" d="M47.492,25.807a21.677,21.677,0,0,0,0,43.355H210.611a21.677,21.677,0,0,0,0-43.355Z" fill="#fff"/>
      <g id="Gruppe_1466" data-name="Gruppe 1466">
        <g id="Gruppe_1465" data-name="Gruppe 1465">
          <path id="Pfad_21783" data-name="Pfad 21783" d="M81.909,45.634H94.525V58.5l-.3.24a17.3,17.3,0,0,1-11.021,3.824c-8.544,0-15.238-6.352-15.238-14.459s6.694-14.459,15.238-14.459a15.913,15.913,0,0,1,10.22,3.642l.517.43L91.3,42.291l-.714-.539a12.326,12.326,0,0,0-7.364-2.4,7.668,7.668,0,0,0-5.31,2.192A8.918,8.918,0,0,0,75.4,48.1a8.918,8.918,0,0,0,2.513,6.563,7.668,7.668,0,0,0,5.31,2.192,13.541,13.541,0,0,0,4.29-.692V51l-5.587.036v-5.4Z" fill="#f7a600"/>
          <path id="Pfad_21784" data-name="Pfad 21784" d="M105.859,34.1H98.837V62.1h16.345V56.466h-9.324Z" fill="#f7a600"/>
          <path id="Pfad_21785" data-name="Pfad 21785" d="M147.56,48.1c0,8.107-6.694,14.459-15.238,14.459S117.084,56.211,117.084,48.1s6.694-14.459,15.238-14.459S147.56,39.989,147.56,48.1Zm-7.415,0a8.906,8.906,0,0,0-2.513-6.563,7.527,7.527,0,0,0-10.62,0A8.918,8.918,0,0,0,124.5,48.1a8.918,8.918,0,0,0,2.513,6.563,7.527,7.527,0,0,0,10.62,0A8.947,8.947,0,0,0,140.145,48.1Z" fill="#f7a600"/>
          <path id="Pfad_21786" data-name="Pfad 21786" d="M172.945,53.611a8.183,8.183,0,0,1-2.076,5.514c-2.083,2.28-5.543,3.431-10.285,3.431a31.575,31.575,0,0,1-8.8-1.231l-.575-.168V35.3l.532-.189a25.862,25.862,0,0,1,8.53-1.479c6.978,0,9.455,4.2,9.455,7.787a6.675,6.675,0,0,1-1.843,4.509A8.291,8.291,0,0,1,172.945,53.611Zm-14.714,3.336c.67.036,1.42.058,2.12.058,2.506,0,5.492-.626,5.492-3.591,0-.845-.342-3.591-4.72-3.591h-2.892Zm4.618-15.136a2.647,2.647,0,0,0-2.659-2.622c-.75,0-1.3,0-1.959.044v5.077h2.076A2.485,2.485,0,0,0,162.849,41.81Z" fill="#f7a600"/>
          <path id="Pfad_21787" data-name="Pfad 21787" d="M191.5,55.65a9.681,9.681,0,0,1-4.254.976,4.144,4.144,0,0,1-4.137-4.137V34.1h-7.029V52.023a10.551,10.551,0,0,0,10.54,10.54,20.206,20.206,0,0,0,11.56-3.635l.342-.24V34.1H191.5V55.65Z" fill="#f7a600"/>
          <path id="Pfad_21788" data-name="Pfad 21788" d="M213.371,44.7c-2.739-1.289-4.407-2.171-4.407-3.591,0-1.107.969-1.77,2.579-1.77A6.777,6.777,0,0,1,216.2,41.22l.6.568,3.4-3.9-.444-.524a10.755,10.755,0,0,0-8.216-3.737c-6.5,0-9.411,3.97-9.411,7.9,0,5.346,4.414,7.554,7.969,9.316,2.477,1.231,4.611,2.3,4.611,4,0,.335-.153,2-3.161,2a8.691,8.691,0,0,1-5.66-2.025l-.6-.51-3.453,4.057.568.517a13.236,13.236,0,0,0,9.156,3.664,10.674,10.674,0,0,0,7.313-2.52,7.955,7.955,0,0,0,2.644-5.958C221.508,48.526,217,46.407,213.371,44.7Z" fill="#f7a600"/>
        </g>
        <path id="Pfad_21789" data-name="Pfad 21789" d="M35.014,46.771a.3.3,0,0,0,.08-.051A12.277,12.277,0,0,1,37.4,45.452,19.775,19.775,0,0,1,40.8,44.374c.219-.051.43-.095.648-.146.015,0,.022-.007.044-.015.015-.095.036-.2.051-.3a19.443,19.443,0,0,1,.765-3.212,16.025,16.025,0,0,1,1.209-2.761A9.864,9.864,0,0,1,45.7,35.226a7.277,7.277,0,0,1,3.125-1.6,7.35,7.35,0,0,1,1.646-.175,9.392,9.392,0,0,1,3.256.648,10.773,10.773,0,0,1,2.761,1.53,13.062,13.062,0,0,1,1.493,1.348,14.825,14.825,0,0,1,1.326,1.61,19.21,19.21,0,0,1,1.384,2.2A14.153,14.153,0,0,1,62.184,45.3a15.329,15.329,0,0,1,.168,2.236c0,.306-.007.612-.029.918a14.747,14.747,0,0,1-.634,3.555,15.6,15.6,0,0,1-2.01,4.217,15.161,15.161,0,0,1-2.367,2.739,14.348,14.348,0,0,1-3.4,2.3,15.073,15.073,0,0,1-3.3,1.122,15.785,15.785,0,0,1-1.85.3c-.444.044-.9.066-1.34.066-.393,0-.779-.015-1.173-.051a12.391,12.391,0,0,1-4.37-1.216,14.175,14.175,0,0,1-2.389-1.479,17.727,17.727,0,0,1-2.309-2.127,14.634,14.634,0,0,1-1.748-2.316,13.816,13.816,0,0,1-1.515-3.5,13.594,13.594,0,0,1-.43-2.36c-.044-.481-.073-.961-.073-1.45,0-.437.022-.874.058-1.318a15.441,15.441,0,0,1,.5-2.819A13.344,13.344,0,0,1,35.444,40.7a13.139,13.139,0,0,1,2.163-2.666.476.476,0,0,1,.117-.095.384.384,0,0,1,.473.051.389.389,0,0,1,.066.481,2.127,2.127,0,0,1-.153.2A15.135,15.135,0,0,0,36.158,41.8a12.2,12.2,0,0,0-1.049,3.569c-.051.43-.08.86-.117,1.289A.164.164,0,0,1,35.014,46.771Zm25.261-.459a.185.185,0,0,0,.015-.051.355.355,0,0,0-.007-.087,19.019,19.019,0,0,0-.6-2.775,18.018,18.018,0,0,0-1.042-2.717,13.864,13.864,0,0,0-1.093-1.85,11.777,11.777,0,0,0-2.375-2.586A8.509,8.509,0,0,0,52.5,34.81a4.946,4.946,0,0,0-2.258-.153,5.372,5.372,0,0,0-2.52,1.114A7.39,7.39,0,0,0,45.97,37.8c-.16.255-.3.524-.444.787a12.5,12.5,0,0,0-1,2.149,15.846,15.846,0,0,0-.714,2.965.667.667,0,0,0-.007.124,34.6,34.6,0,0,1,11.028.444,1.405,1.405,0,0,1-.007-.168c-.036-.277-.066-.546-.1-.823a23.1,23.1,0,0,0-.656-3.059c-.007-.029-.015-.066-.022-.095a.257.257,0,0,1,.2-.284.275.275,0,0,1,.32.131.564.564,0,0,1,.051.117,20.7,20.7,0,0,1,1.195,4c.029.146.051.291.08.437A17.577,17.577,0,0,1,60.275,46.312ZM54.441,52.19a21.673,21.673,0,0,0,.415-2.79c.036-.415.058-.838.08-1.253.044-.779.036-1.559.015-2.338,0-.1-.007-.1-.109-.117-.452-.066-.9-.146-1.355-.2-.692-.08-1.384-.146-2.076-.211-.809-.073-1.617-.109-2.426-.117-1.231-.022-2.455-.007-3.678.073-.524.029-1.042.073-1.566.109a.42.42,0,0,0-.1.022,48.059,48.059,0,0,0,.095,7.1A45.03,45.03,0,0,0,54.441,52.19ZM43.923,54c.007.058.015.1.022.146a20.792,20.792,0,0,0,.532,2.309,11.287,11.287,0,0,0,.707,1.865,5.119,5.119,0,0,0,1,1.391A2.728,2.728,0,0,0,48,60.508a3.557,3.557,0,0,0,1.53-.291A4.987,4.987,0,0,0,51.1,59.132,9.406,9.406,0,0,0,52.766,56.9a16.23,16.23,0,0,0,1.267-3.1q.011-.044.022-.109A34.993,34.993,0,0,1,43.923,54Zm-2.586-8.34a.249.249,0,0,0-.08.007L40.5,45.8a24.2,24.2,0,0,0-3.336.881,9.168,9.168,0,0,0-1.989.932c-.189.124-.16.066-.146.284a14.606,14.606,0,0,0,.357,2.375.172.172,0,0,0,.1.131c.255.124.5.262.765.379a14.848,14.848,0,0,0,2,.707,26.051,26.051,0,0,0,2.877.648c.073.015.153.022.248.036A38.887,38.887,0,0,1,41.337,45.664ZM43.42,59.918a.429.429,0,0,0-.036-.095c-.1-.2-.2-.408-.3-.612a14.915,14.915,0,0,1-.663-1.53,16.994,16.994,0,0,1-.889-3.9c-.022-.182-.022-.182-.2-.219a21.558,21.558,0,0,1-3-.83,15.08,15.08,0,0,1-2.44-1.122c-.036-.022-.08-.044-.138-.08a1.061,1.061,0,0,0,.029.124A14.816,14.816,0,0,0,36.916,54.3a12.337,12.337,0,0,0,2.855,3.431A14.936,14.936,0,0,0,43.3,59.875.491.491,0,0,0,43.42,59.918Zm12.66-8.034c.044-.007.073-.007.1-.015.43-.1.86-.2,1.282-.313a13.97,13.97,0,0,0,2.564-.918.277.277,0,0,0,.168-.211c.08-.437.146-.874.189-1.318a12.2,12.2,0,0,0,.029-1.632.15.15,0,0,0-.109-.16c-.335-.153-.663-.32-1.005-.459a19.94,19.94,0,0,0-3.1-.911.482.482,0,0,0-.109-.007A24.961,24.961,0,0,1,56.08,51.884Zm3.766-.109c-.066.029-.095.051-.131.066-.386.182-.765.379-1.158.546a19.752,19.752,0,0,1-2.571.867.17.17,0,0,0-.146.153c-.117.524-.226,1.056-.364,1.581a14.259,14.259,0,0,1-1.355,3.336c-.313.554-.67,1.085-1.027,1.61-.029.044-.058.095-.087.146a.121.121,0,0,0,.073,0c.153-.073.306-.138.452-.219a10.962,10.962,0,0,0,2.083-1.42,13.365,13.365,0,0,0,2.4-2.761,15.123,15.123,0,0,0,1.763-3.657A2.107,2.107,0,0,1,59.846,51.775Z" fill="#00622c"/>
      </g>
    </g>
  </g>
</svg>
