<svg id="Ebene_1_00000042017511389589585780000013794324791599970947_" xmlns="http://www.w3.org/2000/svg" width="398" height="146.46" viewBox="0 0 398 146.46">
  <g id="Boundingbox">
    <rect id="Rechteck_7894" data-name="Rechteck 7894" width="398" height="146.46" fill="none"/>
  </g>
  <g id="Gruppe_1170" data-name="Gruppe 1170" transform="translate(1.95 0.82)">
    <path id="Pfad_21722" data-name="Pfad 21722" d="M323.787,145.55h-250C-22.23,141.7-22.331,4.628,73.786.73h250c96.015,3.853,96.116,140.934,0,144.82Z" transform="translate(-1.736 -0.73)" fill="none" stroke="#f0f" stroke-width="1" stroke-dasharray="5.001 5.001"/>
  </g>
  <g id="Gruppe_1171" data-name="Gruppe 1171" transform="translate(21.058 20.162)">
    <path id="Pfad_21723" data-name="Pfad 21723" d="M324.049,124.074H69.33A50.406,50.406,0,0,1,18.919,73.663C16.538,43.976,39.193,17.871,69.33,17.95H324.049A50.406,50.406,0,0,1,374.46,68.361c2.381,29.687-20.275,55.8-50.411,55.713Z" transform="translate(-18.747 -17.95)" fill="none" stroke="#f0f" stroke-width="1" stroke-dasharray="5.033 5.033"/>
  </g>
  <g id="Gruppe_1173" data-name="Gruppe 1173" transform="translate(190.278 101.323)">
    <rect id="Rechteck_7895" data-name="Rechteck 7895" width="13.737" height="13.749" transform="translate(0 4.846)" fill="none"/>
    <text id="X" transform="translate(0.004 17)" fill="aqua" font-size="16" font-family="Roboto"><tspan x="0" y="0">X</tspan></text>
    <g id="Gruppe_1172" data-name="Gruppe 1172" transform="translate(10.266 12.586)">
      <path id="Pfad_21724" data-name="Pfad 21724" d="M179.427,111.7l-.887-.562,6.077-9.727.887.562Zm7.47-1.55h.91v1.09h-.91v1.46H185.56v-1.46h-3.2l-.056-.854,3.224-4.426h1.37v4.19Zm-3.246,0h1.91v-2.471l-.146.236Z" transform="translate(-178.54 -101.41)" fill="aqua"/>
    </g>
  </g>
  <g id="Gruppe_1178" data-name="Gruppe 1178" transform="translate(190.806 126.972)">
    <g id="Gruppe_1176" data-name="Gruppe 1176">
      <g id="Gruppe_1174" data-name="Gruppe 1174">
        <path id="Pfad_21725" data-name="Pfad 21725" d="M174.756,117.69l2.909-4.65h1.876l-3.83,6.009,3.931,6.122h-1.9l-2.988-4.74-3,4.74H169.87l3.931-6.122-3.842-6.009h1.876Z" transform="translate(-169.87 -113.04)" fill="aqua"/>
      </g>
      <g id="Gruppe_1175" data-name="Gruppe 1175" transform="translate(9.525 6.886)">
        <path id="Pfad_21726" data-name="Pfad 21726" d="M179.215,129.2l-.865-.55,5.931-9.48.865.55Z" transform="translate(-178.35 -119.17)" fill="aqua"/>
      </g>
    </g>
    <g id="Gruppe_1177" data-name="Gruppe 1177" transform="translate(14.288 11.289)">
      <path id="Pfad_21727" data-name="Pfad 21727" d="M187.779,129.773h-5.021v-.9l2.516-2.359a2.327,2.327,0,0,0,.91-1.438.855.855,0,0,0-.27-.663,1.093,1.093,0,0,0-.775-.258,1.192,1.192,0,0,0-.921.326,1.179,1.179,0,0,0-.3.809H182.59a2.078,2.078,0,0,1,.7-1.584,2.619,2.619,0,0,1,1.808-.618,2.656,2.656,0,0,1,1.752.539,1.8,1.8,0,0,1,.64,1.46,2.6,2.6,0,0,1-.9,1.775l-.708.663L184.4,128.74h3.347V129.8h.034v-.022Z" transform="translate(-182.59 -123.09)" fill="aqua"/>
    </g>
  </g>
  <g id="Ebene_2_00000008135434729600304650000007952525882944336019_" transform="translate(39.808 39.797)">
    <g id="GLOBUS">
      <g id="GLOBUS-2">
        <path id="Fläche_Weiß" d="M68.868,35.43a33.428,33.428,0,0,0,0,66.856h251.54a33.428,33.428,0,0,0,0-66.856Z" transform="translate(-35.44 -35.43)" fill="#fff" stroke="#f0f" stroke-width="1"/>
        <g id="Icon_GLOBUS" transform="translate(11.727 11.782)">
          <g id="GLOBUS-3" transform="translate(53.287 0.281)">
            <path id="Pfad_21728" data-name="Pfad 21728" d="M114.819,64.68h19.455V84.505l-.461.371a26.689,26.689,0,0,1-16.995,5.9c-13.176,0-23.5-9.795-23.5-22.3s10.323-22.3,23.5-22.3A24.522,24.522,0,0,1,132.577,51.8l.8.663L129.3,59.513l-1.1-.831a19.028,19.028,0,0,0-11.356-3.707,11.822,11.822,0,0,0-8.188,3.381,13.789,13.789,0,0,0-3.875,10.12,13.727,13.727,0,0,0,3.875,10.12,11.822,11.822,0,0,0,8.188,3.381,21.027,21.027,0,0,0,6.616-1.067V72.947L114.841,73Z" transform="translate(-93.32 -46.169)" fill="orange"/>
            <path id="Pfad_21729" data-name="Pfad 21729" d="M146.529,46.82H135.69V89.975H160.9V81.3H146.529Z" transform="translate(-88.098 -46.09)" fill="orange"/>
            <path id="Pfad_21730" data-name="Pfad 21730" d="M207.737,68.476c0,12.5-10.323,22.3-23.5,22.3s-23.5-9.795-23.5-22.3,10.323-22.3,23.5-22.3S207.737,55.975,207.737,68.476Zm-11.435,0a13.771,13.771,0,0,0-3.875-10.12,11.613,11.613,0,0,0-16.377,0,13.789,13.789,0,0,0-3.875,10.12A13.727,13.727,0,0,0,176.05,78.6a11.613,11.613,0,0,0,16.377,0A13.727,13.727,0,0,0,196.3,68.476Z" transform="translate(-85.011 -46.169)" fill="orange"/>
            <path id="Pfad_21731" data-name="Pfad 21731" d="M241.118,76.981a12.613,12.613,0,0,1-3.2,8.5c-3.212,3.516-8.548,5.29-15.86,5.29a48.633,48.633,0,0,1-13.569-1.9l-.887-.258V48.742l.82-.292a39.751,39.751,0,0,1,13.153-2.28c10.761,0,14.58,6.47,14.58,12.008a10.337,10.337,0,0,1-2.842,6.953A12.773,12.773,0,0,1,241.118,76.981Zm-22.69,5.144c1.033.056,2.19.09,3.269.09,3.864,0,8.469-.966,8.469-5.538,0-1.3-.528-5.538-7.279-5.538h-4.459Zm7.121-23.341a4.082,4.082,0,0,0-4.1-4.044c-1.157,0-2.011,0-3.022.067v7.829h3.2a3.85,3.85,0,0,0,3.92-3.774C225.549,58.829,225.549,58.807,225.549,58.784Z" transform="translate(-79.235 -46.17)" fill="orange"/>
            <path id="Pfad_21732" data-name="Pfad 21732" d="M265.519,80.034a15.049,15.049,0,0,1-6.56,1.505,6.39,6.39,0,0,1-6.38-6.38V46.82H241.74V74.452a16.27,16.27,0,0,0,16.253,16.253,31.138,31.138,0,0,0,17.826-5.6l.528-.371V46.82H265.508l.011,33.214Z" transform="translate(-75.028 -46.09)" fill="orange"/>
            <path id="Pfad_21733" data-name="Pfad 21733" d="M294.892,63.243c-4.223-1.988-6.8-3.347-6.8-5.538,0-1.707,1.494-2.729,3.976-2.729a10.43,10.43,0,0,1,7.178,2.9l.932.876,5.246-6.009-.685-.809a16.624,16.624,0,0,0-12.67-5.762c-10.031,0-14.512,6.122-14.512,12.187,0,8.245,6.807,11.648,12.288,14.366,3.819,1.9,7.11,3.549,7.11,6.167,0,.517-.236,3.078-4.875,3.078a13.374,13.374,0,0,1-8.728-3.123l-.932-.786L277.1,84.315l.876.8a20.415,20.415,0,0,0,14.119,5.65,16.454,16.454,0,0,0,11.277-3.886,12.25,12.25,0,0,0,4.077-9.188C307.439,69.129,300.475,65.861,294.892,63.243Z" transform="translate(-70.67 -46.17)" fill="orange"/>
          </g>
          <path id="Icon" d="M48.351,66.453a.467.467,0,0,0,.124-.079,18.59,18.59,0,0,1,3.561-1.954,30.811,30.811,0,0,1,5.234-1.662c.337-.079.663-.146,1-.225.022-.011.045-.011.067-.022.022-.146.056-.3.079-.461A29.983,29.983,0,0,1,59.595,57.1a24.712,24.712,0,0,1,1.865-4.257,15.211,15.211,0,0,1,3.37-4.19,10.867,10.867,0,0,1,7.357-2.729,14.483,14.483,0,0,1,5.021,1,16.613,16.613,0,0,1,4.257,2.359,19.236,19.236,0,0,1,2.3,2.078,21.623,21.623,0,0,1,2.044,2.482,28.677,28.677,0,0,1,2.134,3.392,22.105,22.105,0,0,1,2.3,6.964,23.638,23.638,0,0,1,.258,3.448c0,.472-.011.944-.045,1.415a22.74,22.74,0,0,1-.977,5.481,23.725,23.725,0,0,1-3.1,6.5,23.379,23.379,0,0,1-3.651,4.223,22.126,22.126,0,0,1-5.246,3.549,23.045,23.045,0,0,1-5.088,1.73,24.343,24.343,0,0,1-2.853.461c-.685.067-1.382.1-2.067.1-.607,0-1.2-.022-1.808-.079a19.108,19.108,0,0,1-6.739-1.876,22.139,22.139,0,0,1-3.684-2.28,28.144,28.144,0,0,1-3.561-3.28,23.266,23.266,0,0,1-2.7-3.572,21.3,21.3,0,0,1-2.336-5.392,20.963,20.963,0,0,1-.663-3.639c-.067-.741-.112-1.483-.112-2.235,0-.674.034-1.348.09-2.033a23.811,23.811,0,0,1,.764-4.347,20.034,20.034,0,0,1,2.28-5.279,20.333,20.333,0,0,1,3.336-4.111,1.134,1.134,0,0,1,.18-.146.6.6,0,0,1,.831.831,2.09,2.09,0,0,1-.236.315,23.824,23.824,0,0,0-3.01,4.83,18.819,18.819,0,0,0-1.617,5.5c-.079.663-.124,1.325-.18,1.988A.232.232,0,0,1,48.351,66.453Zm38.954-.708a.716.716,0,0,0,.022-.079.547.547,0,0,0-.011-.135,29.329,29.329,0,0,0-.921-4.28,26.635,26.635,0,0,0-1.606-4.19A22.115,22.115,0,0,0,83.1,54.21a18.161,18.161,0,0,0-3.662-3.988,13.122,13.122,0,0,0-4.134-2.213,7.617,7.617,0,0,0-3.482-.236,8.284,8.284,0,0,0-3.886,1.719,11.4,11.4,0,0,0-2.7,3.123c-.247.393-.461.809-.685,1.213a19.271,19.271,0,0,0-1.539,3.314,23.587,23.587,0,0,0-1.1,4.572,1.028,1.028,0,0,0-.011.191,53.682,53.682,0,0,1,17.006.685,2.167,2.167,0,0,1-.011-.258c-.056-.427-.1-.842-.157-1.269a33.915,33.915,0,0,0-1.011-4.718c-.011-.045-.022-.1-.034-.146a.4.4,0,0,1,.3-.438.419.419,0,0,1,.494.2.87.87,0,0,1,.079.18,31.926,31.926,0,0,1,1.842,6.167c.045.225.079.449.124.674A27.9,27.9,0,0,1,87.305,65.745ZM78.3,74.81a34.545,34.545,0,0,0,.64-4.3c.056-.64.09-1.292.124-1.932.067-1.2.056-2.4.022-3.606,0-.157-.011-.157-.168-.18-.7-.1-1.393-.225-2.089-.3-1.067-.124-2.134-.225-3.2-.326-1.247-.112-2.494-.168-3.74-.18-1.9-.034-3.785-.011-5.672.112-.809.045-1.606.112-2.415.168l-.157.034a74.252,74.252,0,0,0,.146,10.952A68.81,68.81,0,0,0,78.3,74.81Zm-16.22,2.8c.011.09.022.157.034.225a29.722,29.722,0,0,0,.82,3.561,16.457,16.457,0,0,0,1.09,2.876,8.07,8.07,0,0,0,1.539,2.145,4.134,4.134,0,0,0,2.808,1.224,5.486,5.486,0,0,0,2.359-.449,7.691,7.691,0,0,0,2.426-1.674,14.206,14.206,0,0,0,2.561-3.437,26.094,26.094,0,0,0,1.954-4.785q.017-.067.034-.168A53.975,53.975,0,0,1,62.077,77.607ZM58.1,64.746a.461.461,0,0,0-.124.011l-1.168.2a37.312,37.312,0,0,0-5.144,1.359A14.137,14.137,0,0,0,48.6,67.756c-.292.191-.247.1-.225.438a21.2,21.2,0,0,0,.55,3.662.266.266,0,0,0,.157.2c.393.191.775.4,1.179.584a22.9,22.9,0,0,0,3.089,1.09,40.171,40.171,0,0,0,4.437,1c.112.022.236.034.382.056A58.78,58.78,0,0,1,58.1,64.746Zm3.2,21.993a.662.662,0,0,0-.056-.146c-.157-.315-.3-.629-.461-.944a23,23,0,0,1-1.022-2.359,26.948,26.948,0,0,1-1.37-6.009c-.034-.281-.034-.281-.3-.337a33.243,33.243,0,0,1-4.628-1.281,23.255,23.255,0,0,1-3.763-1.73c-.056-.034-.124-.067-.213-.124a1.638,1.638,0,0,0,.045.191,22.846,22.846,0,0,0,1.741,4.066,19.186,19.186,0,0,0,4.4,5.29,22.668,22.668,0,0,0,5.437,3.314C61.167,86.694,61.224,86.705,61.3,86.739ZM80.824,74.349c.067-.011.112-.011.157-.022.663-.157,1.325-.3,1.977-.483a22.406,22.406,0,0,0,3.954-1.415.428.428,0,0,0,.258-.326c.124-.674.225-1.348.292-2.033a18.816,18.816,0,0,0,.045-2.516.231.231,0,0,0-.168-.247c-.517-.236-1.022-.494-1.55-.708A30.748,30.748,0,0,0,81,65.2a.85.85,0,0,0-.168-.011A37.913,37.913,0,0,1,80.824,74.349Zm5.807-.18c-.1.045-.146.079-.2.1-.6.281-1.179.584-1.786.842a31.038,31.038,0,0,1-3.965,1.337.262.262,0,0,0-.225.236c-.18.809-.348,1.629-.562,2.437A21.987,21.987,0,0,1,77.8,84.268c-.483.854-1.033,1.674-1.584,2.482-.045.067-.09.146-.135.225a.191.191,0,0,0,.112,0c.236-.112.472-.213.7-.337a16.905,16.905,0,0,0,3.212-2.19,20.61,20.61,0,0,0,3.707-4.257,23.523,23.523,0,0,0,2.718-5.639c.034-.124.056-.225.1-.382Z" transform="translate(-45.88 -45.919)" fill="#00622c"/>
        </g>
      </g>
    </g>
  </g>
</svg>
