<svg id="GLOBUS-Logo-Responsive_grauer_HG_neg_Abstaende" data-name="GLOBUS-Logo-Responsive_grauer HG_neg_Abstaende" xmlns="http://www.w3.org/2000/svg" width="398" height="146.46" viewBox="0 0 398 146.46">
  <g id="Ebene_1_00000042017511389589585780000013794324791599970947_">
    <rect id="Rechteck_7899" data-name="Rechteck 7899" width="398" height="146.46" fill="#928e85"/>
    <g id="Boundingbox">
      <rect id="Rechteck_7900" data-name="Rechteck 7900" width="398" height="146.46" fill="none"/>
    </g>
    <g id="Gruppe_1191" data-name="Gruppe 1191" transform="translate(1.95 0.82)">
      <path id="Pfad_21748" data-name="Pfad 21748" d="M323.787,145.55h-250C-22.23,141.7-22.331,4.628,73.786.73h250c96.015,3.853,96.116,140.934,0,144.82Z" transform="translate(-1.736 -0.73)" fill="none" stroke="#f0f" stroke-width="1" stroke-dasharray="5.001 5.001"/>
    </g>
    <g id="Gruppe_1192" data-name="Gruppe 1192" transform="translate(21.058 20.162)">
      <path id="Pfad_21749" data-name="Pfad 21749" d="M324.049,124.074H69.33A50.406,50.406,0,0,1,18.919,73.663C16.538,43.976,39.193,17.871,69.33,17.95H324.049A50.406,50.406,0,0,1,374.46,68.361c2.381,29.687-20.275,55.8-50.411,55.713Z" transform="translate(-18.747 -17.95)" fill="none" stroke="#f0f" stroke-width="1" stroke-dasharray="5.033 5.033"/>
    </g>
    <g id="Gruppe_1194" data-name="Gruppe 1194" transform="translate(190.278 101.323)">
      <rect id="Rechteck_7901" data-name="Rechteck 7901" width="13.737" height="13.749" transform="translate(0 4.846)" fill="none"/>
      <text id="X" transform="translate(0.004 17)" fill="aqua" font-size="16" font-family="Roboto"><tspan x="0" y="0">X</tspan></text>
      <g id="Gruppe_1193" data-name="Gruppe 1193" transform="translate(10.266 12.586)">
        <path id="Pfad_21750" data-name="Pfad 21750" d="M179.427,111.7l-.887-.562,6.077-9.727.887.562Zm7.47-1.55h.91v1.09h-.91v1.46H185.56v-1.46h-3.2l-.056-.854,3.224-4.426h1.37v4.19Zm-3.246,0h1.91v-2.471l-.146.236Z" transform="translate(-178.54 -101.41)" fill="aqua"/>
      </g>
    </g>
    <g id="Gruppe_1199" data-name="Gruppe 1199" transform="translate(190.806 126.972)">
      <g id="Gruppe_1197" data-name="Gruppe 1197">
        <g id="Gruppe_1195" data-name="Gruppe 1195">
          <path id="Pfad_21751" data-name="Pfad 21751" d="M174.756,117.69l2.909-4.65h1.876l-3.83,6.009,3.931,6.122h-1.9l-2.988-4.74-3,4.74H169.87l3.931-6.122-3.842-6.009h1.876Z" transform="translate(-169.87 -113.04)" fill="aqua"/>
        </g>
        <g id="Gruppe_1196" data-name="Gruppe 1196" transform="translate(9.525 6.886)">
          <path id="Pfad_21752" data-name="Pfad 21752" d="M179.215,129.2l-.865-.55,5.931-9.48.865.55Z" transform="translate(-178.35 -119.17)" fill="aqua"/>
        </g>
      </g>
      <g id="Gruppe_1198" data-name="Gruppe 1198" transform="translate(14.288 11.289)">
        <path id="Pfad_21753" data-name="Pfad 21753" d="M187.779,129.773h-5.021v-.9l2.516-2.359a2.327,2.327,0,0,0,.91-1.438.855.855,0,0,0-.27-.663,1.093,1.093,0,0,0-.775-.258,1.192,1.192,0,0,0-.921.326,1.179,1.179,0,0,0-.3.809H182.59a2.078,2.078,0,0,1,.7-1.584,2.619,2.619,0,0,1,1.808-.618,2.656,2.656,0,0,1,1.752.539,1.8,1.8,0,0,1,.64,1.46,2.6,2.6,0,0,1-.9,1.775l-.708.663L184.4,128.74h3.347V129.8h.034v-.022Z" transform="translate(-182.59 -123.09)" fill="aqua"/>
      </g>
    </g>
  </g>
  <g id="Gruppe_1200" data-name="Gruppe 1200" transform="translate(39.808 39.797)">
    <path id="Pfad_21754" data-name="Pfad 21754" d="M68.868,35.43a33.428,33.428,0,0,0,0,66.856h251.54a33.428,33.428,0,0,0,0-66.856Z" transform="translate(-35.44 -35.43)" fill="#fff" stroke="#f0f" stroke-width="1"/>
    <path id="Pfad_21755" data-name="Pfad 21755" d="M114.809,64.679h19.455V84.515l-.461.371a26.671,26.671,0,0,1-16.995,5.9c-13.176,0-23.5-9.795-23.5-22.3s10.323-22.3,23.5-22.3a24.487,24.487,0,0,1,15.748,5.616l.8.663-4.077,7.054-1.1-.831a19.008,19.008,0,0,0-11.356-3.707,11.824,11.824,0,0,0-8.188,3.381,13.752,13.752,0,0,0-3.875,10.12,13.734,13.734,0,0,0,3.875,10.12,11.824,11.824,0,0,0,8.188,3.381,20.881,20.881,0,0,0,6.616-1.067V72.957l-8.615.056-.011-8.334Z" transform="translate(-28.308 -34.104)"/>
    <path id="Pfad_21756" data-name="Pfad 21756" d="M146.518,46.82H135.69V89.986H160.9V81.3H146.518Z" transform="translate(-23.085 -34.026)"/>
    <path id="Pfad_21757" data-name="Pfad 21757" d="M207.737,68.476c0,12.5-10.323,22.3-23.5,22.3s-23.5-9.795-23.5-22.3,10.323-22.3,23.5-22.3,23.5,9.795,23.5,22.3Zm-11.435,0a13.734,13.734,0,0,0-3.875-10.12,11.606,11.606,0,0,0-16.377,0,13.752,13.752,0,0,0-3.875,10.12A13.734,13.734,0,0,0,176.05,78.6a11.606,11.606,0,0,0,16.377,0,13.761,13.761,0,0,0,3.875-10.12Z" transform="translate(-19.997 -34.105)"/>
    <path id="Pfad_21758" data-name="Pfad 21758" d="M241.108,76.981a12.619,12.619,0,0,1-3.2,8.5c-3.212,3.516-8.548,5.29-15.86,5.29a48.692,48.692,0,0,1-13.569-1.9l-.887-.258V48.742l.82-.292a39.88,39.88,0,0,1,13.153-2.28c10.761,0,14.58,6.47,14.58,12.008A10.294,10.294,0,0,1,233.3,65.13a12.762,12.762,0,0,1,7.807,11.85Zm-22.69,5.144c1.033.056,2.19.09,3.269.09,3.864,0,8.469-.966,8.469-5.538,0-1.3-.528-5.538-7.279-5.538h-4.459V82.125Zm7.121-23.341a4.082,4.082,0,0,0-4.1-4.044c-1.157,0-2.011,0-3.022.067v7.829h3.2a3.832,3.832,0,0,0,3.92-3.853Z" transform="translate(-14.223 -34.106)"/>
    <path id="Pfad_21759" data-name="Pfad 21759" d="M265.519,80.046a14.928,14.928,0,0,1-6.56,1.505,6.39,6.39,0,0,1-6.38-6.38V46.82H241.74V74.452a16.27,16.27,0,0,0,16.253,16.253,31.159,31.159,0,0,0,17.826-5.6l.528-.371V46.82H265.508l.011,33.226Z" transform="translate(-10.014 -34.026)"/>
    <path id="Pfad_21760" data-name="Pfad 21760" d="M294.882,63.243c-4.223-1.988-6.8-3.347-6.8-5.538,0-1.707,1.494-2.729,3.976-2.729a10.451,10.451,0,0,1,7.178,2.9l.932.876,5.246-6.009-.685-.809a16.586,16.586,0,0,0-12.67-5.762c-10.031,0-14.512,6.122-14.512,12.187,0,8.245,6.807,11.648,12.288,14.366,3.819,1.9,7.11,3.549,7.11,6.167,0,.517-.236,3.089-4.875,3.089a13.4,13.4,0,0,1-8.728-3.123l-.932-.786-5.324,6.256.876.8a20.411,20.411,0,0,0,14.119,5.65,16.461,16.461,0,0,0,11.277-3.886A12.267,12.267,0,0,0,307.44,77.7c-.011-8.559-6.964-11.828-12.558-14.456Z" transform="translate(-5.657 -34.106)"/>
    <path id="Pfad_21761" data-name="Pfad 21761" d="M48.341,66.454a.467.467,0,0,0,.124-.079,18.932,18.932,0,0,1,3.561-1.954,30.5,30.5,0,0,1,5.234-1.662c.337-.079.663-.146,1-.225.022,0,.034-.011.067-.022.022-.146.056-.3.079-.461A29.982,29.982,0,0,1,59.585,57.1a24.712,24.712,0,0,1,1.865-4.257,15.211,15.211,0,0,1,3.37-4.19,11.222,11.222,0,0,1,4.819-2.471,11.335,11.335,0,0,1,2.539-.27,14.483,14.483,0,0,1,5.021,1,16.613,16.613,0,0,1,4.257,2.359,20.141,20.141,0,0,1,2.3,2.078A22.86,22.86,0,0,1,85.8,53.829a29.622,29.622,0,0,1,2.134,3.392,21.824,21.824,0,0,1,2.3,6.964,23.636,23.636,0,0,1,.258,3.448c0,.472-.011.944-.045,1.427a22.741,22.741,0,0,1-.977,5.481,24.053,24.053,0,0,1-3.1,6.5,23.379,23.379,0,0,1-3.651,4.223,22.126,22.126,0,0,1-5.246,3.549,23.244,23.244,0,0,1-5.088,1.73,24.342,24.342,0,0,1-2.853.461c-.685.067-1.382.1-2.067.1-.607,0-1.2-.022-1.808-.079a19.108,19.108,0,0,1-6.739-1.876,21.86,21.86,0,0,1-3.684-2.28,27.336,27.336,0,0,1-3.561-3.28,22.567,22.567,0,0,1-2.7-3.572,21.305,21.305,0,0,1-2.336-5.392,20.962,20.962,0,0,1-.663-3.639c-.067-.741-.112-1.483-.112-2.235,0-.674.034-1.348.09-2.033a23.811,23.811,0,0,1,.764-4.347A20.577,20.577,0,0,1,49,57.1a19.944,19.944,0,0,1,3.347-4.111.733.733,0,0,1,.18-.146.593.593,0,0,1,.73.079.6.6,0,0,1,.1.741,3.278,3.278,0,0,1-.236.315,23.824,23.824,0,0,0-3.01,4.83,18.819,18.819,0,0,0-1.617,5.5c-.079.663-.124,1.325-.18,1.988a.333.333,0,0,1,.022.157Zm38.954-.7a.285.285,0,0,0,.022-.079.547.547,0,0,0-.011-.135,29.33,29.33,0,0,0-.921-4.28,27.785,27.785,0,0,0-1.606-4.19,21.381,21.381,0,0,0-1.685-2.853,18.161,18.161,0,0,0-3.662-3.988A13.122,13.122,0,0,0,75.3,48.022a7.628,7.628,0,0,0-3.482-.236A8.283,8.283,0,0,0,67.931,49.5a11.4,11.4,0,0,0-2.7,3.123c-.247.393-.461.809-.685,1.213a19.27,19.27,0,0,0-1.539,3.314,24.436,24.436,0,0,0-1.1,4.572,1.028,1.028,0,0,0-.011.191A53.356,53.356,0,0,1,78.9,62.6a2.168,2.168,0,0,1-.011-.258c-.056-.427-.1-.842-.157-1.269a35.618,35.618,0,0,0-1.011-4.718c-.011-.045-.022-.1-.034-.146a.4.4,0,0,1,.3-.438.424.424,0,0,1,.494.2.869.869,0,0,1,.079.18,31.926,31.926,0,0,1,1.842,6.167c.045.225.079.449.124.674A27.1,27.1,0,0,1,87.3,65.758Zm-9,9.065a33.422,33.422,0,0,0,.64-4.3c.056-.64.09-1.292.124-1.932.067-1.2.056-2.4.022-3.606,0-.157-.011-.157-.168-.18-.7-.1-1.393-.225-2.089-.3-1.067-.124-2.134-.225-3.2-.326-1.247-.112-2.494-.168-3.74-.18-1.9-.034-3.785-.011-5.672.112-.809.045-1.606.112-2.415.168a.648.648,0,0,0-.157.034,74.112,74.112,0,0,0,.146,10.952A69.44,69.44,0,0,0,78.3,74.822Zm-16.22,2.8c.011.09.022.157.034.225a32.059,32.059,0,0,0,.82,3.561,17.405,17.405,0,0,0,1.09,2.876,7.9,7.9,0,0,0,1.539,2.145,4.208,4.208,0,0,0,2.808,1.224,5.486,5.486,0,0,0,2.359-.449,7.691,7.691,0,0,0,2.426-1.674,14.5,14.5,0,0,0,2.561-3.437A25.028,25.028,0,0,0,77.669,77.3q.017-.067.034-.168a54.361,54.361,0,0,1-15.624.483ZM58.091,64.747a.384.384,0,0,0-.124.011l-1.168.2a37.311,37.311,0,0,0-5.144,1.359,14.138,14.138,0,0,0-3.066,1.438c-.292.191-.247.1-.225.438a22.523,22.523,0,0,0,.55,3.662.266.266,0,0,0,.157.2c.393.191.775.4,1.179.584a22.9,22.9,0,0,0,3.089,1.09,40.172,40.172,0,0,0,4.437,1c.112.022.236.034.382.056a59.96,59.96,0,0,1-.067-10.042ZM61.3,86.74a.662.662,0,0,0-.056-.146c-.157-.315-.3-.629-.461-.944a23,23,0,0,1-1.022-2.359,26.205,26.205,0,0,1-1.37-6.009c-.034-.281-.034-.281-.3-.337a33.242,33.242,0,0,1-4.628-1.281,23.254,23.254,0,0,1-3.763-1.73c-.056-.034-.124-.067-.213-.124a1.637,1.637,0,0,0,.045.191,22.846,22.846,0,0,0,1.741,4.066,19.024,19.024,0,0,0,4.4,5.29,23.033,23.033,0,0,0,5.437,3.314.757.757,0,0,0,.191.067ZM80.825,74.351c.067-.011.112-.011.157-.022.663-.157,1.325-.3,1.977-.483a21.544,21.544,0,0,0,3.954-1.415.428.428,0,0,0,.258-.326c.124-.674.225-1.348.292-2.033a18.817,18.817,0,0,0,.045-2.516.231.231,0,0,0-.168-.247c-.517-.236-1.022-.494-1.55-.708a30.749,30.749,0,0,0-4.785-1.4.744.744,0,0,0-.168-.011,38.491,38.491,0,0,1-.011,9.166Zm5.807-.168c-.1.045-.146.079-.2.1-.6.281-1.179.584-1.786.842a30.46,30.46,0,0,1-3.965,1.337.263.263,0,0,0-.225.236c-.18.809-.348,1.629-.562,2.437A21.988,21.988,0,0,1,77.8,84.28c-.483.854-1.033,1.674-1.584,2.482-.045.067-.09.146-.135.225a.187.187,0,0,0,.112,0c.236-.112.472-.213.7-.337a16.9,16.9,0,0,0,3.212-2.19A20.61,20.61,0,0,0,83.813,80.2a23.32,23.32,0,0,0,2.718-5.639,2.759,2.759,0,0,1,.1-.382Z" transform="translate(-34.155 -34.138)"/>
  </g>
</svg>
