<svg id="Ebene_1_00000042017511389589585780000013794324791599970947_" xmlns="http://www.w3.org/2000/svg" width="398" height="146.46" viewBox="0 0 398 146.46">
  <rect id="Rechteck_7896" data-name="Rechteck 7896" width="398" height="146.46" fill="#928e85"/>
  <g id="Boundingbox">
    <rect id="Rechteck_7897" data-name="Rechteck 7897" width="398" height="146.46" fill="none"/>
  </g>
  <g id="Gruppe_1181" data-name="Gruppe 1181" transform="translate(39.808 39.797)">
    <path id="Pfad_21734" data-name="Pfad 21734" d="M68.868,35.43a33.428,33.428,0,0,0,0,66.856h251.54a33.428,33.428,0,0,0,0-66.856Z" transform="translate(-35.44 -35.43)" stroke="#f0f" stroke-width="1"/>
    <g id="Gruppe_1180" data-name="Gruppe 1180" transform="translate(11.727 11.805)">
      <g id="Gruppe_1179" data-name="Gruppe 1179" transform="translate(53.287 0.27)">
        <path id="Pfad_21735" data-name="Pfad 21735" d="M133.06,84.873a25.964,25.964,0,0,1-16.7,5.92c-12.951,0-23.038-9.817-23.038-22.3s10.1-22.3,23.038-22.3a23.76,23.76,0,0,1,15.456,5.627l.494.416-3.628,6.414-.7-.528a19.2,19.2,0,0,0-11.637-3.875,12.147,12.147,0,0,0-8.514,3.583,14.671,14.671,0,0,0-4.01,10.671,14.671,14.671,0,0,0,4.01,10.671,12.164,12.164,0,0,0,8.514,3.572,21.288,21.288,0,0,0,7.076-1.224V72.585l-8.615.056V65.082h18.534V84.638Z" transform="translate(-93.32 -46.178)" fill="#fff"/>
        <path id="Pfad_21736" data-name="Pfad 21736" d="M135.85,89.983V46.85h9.918v35.2h14.366v7.93Z" transform="translate(-88.078 -46.097)" fill="#fff"/>
        <path id="Pfad_21737" data-name="Pfad 21737" d="M184.1,90.793c-12.94,0-23.038-9.817-23.038-22.3s10.1-22.3,23.038-22.3,23.038,9.817,23.038,22.3S197.049,90.793,184.1,90.793Zm8.514-32.967a11.907,11.907,0,0,0-17.028,0,14.671,14.671,0,0,0-4.01,10.671,14.671,14.671,0,0,0,4.01,10.671,11.933,11.933,0,0,0,17.028,0,14.671,14.671,0,0,0,4.01-10.671A14.671,14.671,0,0,0,192.612,57.826Z" transform="translate(-84.971 -46.178)" fill="#fff"/>
        <path id="Pfad_21738" data-name="Pfad 21738" d="M237.6,85.547c-3.089,3.448-8.267,5.246-15.523,5.246a47.506,47.506,0,0,1-13.445-1.921l-.562-.157V48.682l.517-.18a38.792,38.792,0,0,1,13.007-2.3c10.5,0,14.119,6.391,14.119,11.783a10.673,10.673,0,0,1-3.179,7.267,12.829,12.829,0,0,1,5.066,20.3ZM221.47,54.007c-1.168,0-2.033,0-3.482.1v8.907h3.662a4.349,4.349,0,0,0,4.381-4.4A4.581,4.581,0,0,0,221.47,54.007Zm1.438,16.736h-4.92v12.12c1.471.09,2.64.124,3.718.124,3.8,0,8.93-.955,8.93-6.122C230.647,75.393,230.007,70.743,222.908,70.743Z" transform="translate(-79.177 -46.178)" fill="#fff"/>
        <path id="Pfad_21739" data-name="Pfad 21739" d="M275.759,85.074A30.174,30.174,0,0,1,258.2,90.713a15.983,15.983,0,0,1-15.793-16.13V46.85h9.918V75.324a6.916,6.916,0,0,0,6.829,6.975,15.487,15.487,0,0,0,7.02-1.707V46.85H276.1V84.838Z" transform="translate(-74.945 -46.097)" fill="#fff"/>
        <path id="Pfad_21740" data-name="Pfad 21740" d="M303.389,86.954A15.764,15.764,0,0,1,292.415,90.8a19.7,19.7,0,0,1-13.8-5.639l-.55-.517,4.751-5.695.584.505a13.717,13.717,0,0,0,9.031,3.291c4.942,0,5.335-2.876,5.335-3.617,0-2.808-3.359-4.673-7.368-6.717-5.526-2.808-12.03-6.167-12.03-14.254,0-5.908,4.268-11.974,14.063-11.974A16.023,16.023,0,0,1,304.748,51.9l.427.517-4.673,5.47-.584-.562a10.8,10.8,0,0,0-7.492-3.089c-2.572,0-4.437,1.1-4.437,3.257,0,2.606,2.977,4.111,7.054,6.077,5.639,2.707,12.277,5.931,12.277,14.344A12.241,12.241,0,0,1,303.389,86.954Z" transform="translate(-70.551 -46.18)" fill="#fff"/>
      </g>
      <path id="Pfad_21741" data-name="Pfad 21741" d="M89.046,74.538a24.032,24.032,0,0,1-6.683,10.738,21.8,21.8,0,0,1-5.189,3.549,23.779,23.779,0,0,1-9.918,2.291,19.153,19.153,0,0,1-8.447-1.943A24.05,24.05,0,0,1,51.631,83.6a21.536,21.536,0,0,1-5.639-12.592c-.067-.741-.112-1.483-.112-2.235,0-.674.034-1.348.079-2.033a24.79,24.79,0,0,1,.753-4.347,20.132,20.132,0,0,1,2.258-5.279,19.737,19.737,0,0,1,3.3-4.1,1.225,1.225,0,0,1,.146-.124.377.377,0,0,1,.517.517,2.875,2.875,0,0,1-.225.292,23.766,23.766,0,0,0-3.033,4.92,19.172,19.172,0,0,0-1.629,5.627c-.09.674-.124,1.348-.18,2.022v.562c.371-.213.393-.225.416-.236a.489.489,0,0,0,.079-.045A18.231,18.231,0,0,1,51.878,64.6a28.911,28.911,0,0,1,5.2-1.662c.337-.079.663-.146,1-.225.022,0,.034-.011.067-.022l.157-.056c.045-.281.079-.438.1-.607a30.081,30.081,0,0,1,1.168-4.965A24.616,24.616,0,0,1,61.414,52.8a14.8,14.8,0,0,1,3.325-4.167,10.545,10.545,0,0,1,7.211-2.7,13.906,13.906,0,0,1,4.942,1,16.138,16.138,0,0,1,4.2,2.359,21.754,21.754,0,0,1,4.3,4.549,28.642,28.642,0,0,1,2.112,3.4,22.169,22.169,0,0,1,2.527,10.412c0,.472-.011.944-.045,1.415A22.7,22.7,0,0,1,89.046,74.538Zm-1.741-9.053a30.25,30.25,0,0,0-.932-4.347,27.134,27.134,0,0,0-1.617-4.268,20.977,20.977,0,0,0-1.707-2.909,18.281,18.281,0,0,0-3.707-4.077,13.032,13.032,0,0,0-4.2-2.269,7.8,7.8,0,0,0-3.594-.247,8.4,8.4,0,0,0-4,1.786A11.78,11.78,0,0,0,64.8,52.365c-.247.4-.461.82-.7,1.224a18.867,18.867,0,0,0-1.55,3.392,24.5,24.5,0,0,0-1.112,4.661c-.011.067-.011.135-.022.483a53.512,53.512,0,0,1,17.489.719c-.022-.4-.022-.483-.034-.573-.056-.427-.1-.854-.157-1.292a36.761,36.761,0,0,0-1.011-4.8.494.494,0,0,1-.022-.112.2.2,0,0,1,.371-.112c.022.056.045.1.067.157a31.3,31.3,0,0,1,1.82,6.189c.045.225.079.461.146.82a26.336,26.336,0,0,1,7.1,2.92,2.3,2.3,0,0,0,.09-.326c.011-.045.022-.079.011-.1C87.317,65.586,87.305,65.529,87.305,65.484Zm-.1,1.606c-.517-.236-1.033-.505-1.561-.719a30.031,30.031,0,0,0-4.819-1.427.382.382,0,0,0-.112-.011c-.022,0-.056,0-.359-.022a39.423,39.423,0,0,1-.022,9.761c.371-.045.427-.045.472-.056.663-.157,1.325-.315,1.977-.494a22.258,22.258,0,0,0,3.988-1.438.626.626,0,0,0,.382-.494c.124-.685.225-1.382.292-2.067a21.852,21.852,0,0,0,.056-2.572A.479.479,0,0,0,87.2,67.091Zm-1.1,7.043c-.584.292-1.179.584-1.775.842A28.939,28.939,0,0,1,80.4,76.313a.5.5,0,0,0-.393.4c-.18.82-.348,1.64-.562,2.449A22.129,22.129,0,0,1,77.376,84.3c-.483.854-1.033,1.674-1.573,2.494-.045.079-.09.157-.3.483.393.112.483.1.562.067.236-.112.472-.225.708-.348a19.3,19.3,0,0,0,7-6.593,24.152,24.152,0,0,0,2.741-5.751c.034-.1.067-.213.27-.865Zm-7.38-9.593c-.7-.1-1.393-.225-2.1-.3-1.067-.124-2.134-.236-3.2-.326-1.247-.112-2.5-.168-3.752-.191-1.9-.034-3.8-.011-5.695.112-.809.045-1.617.112-2.415.168a.477.477,0,0,0-.124.022c-.022.011-.045.011-.225.056-.27,1.9-.168,10.345.18,11.468a69.475,69.475,0,0,0,16.86-.449,35.081,35.081,0,0,0,.674-4.527c.056-.651.09-1.3.135-1.954.067-1.224.067-2.437.022-3.662C79.072,64.676,78.993,64.586,78.724,64.541ZM61.583,77.447c.045.382.056.449.067.528a33.228,33.228,0,0,0,.82,3.628,11.507,11.507,0,0,0,2.7,5.167,4.391,4.391,0,0,0,2.954,1.3,5.787,5.787,0,0,0,2.46-.472,7.8,7.8,0,0,0,2.494-1.741,14.74,14.74,0,0,0,2.595-3.527,25.442,25.442,0,0,0,1.966-4.875c.011-.056.022-.112.112-.517A54.563,54.563,0,0,1,61.583,77.447ZM58.112,64.474a2.4,2.4,0,0,0-.4.022c-.393.067-.775.135-1.168.213a37.856,37.856,0,0,0-5.178,1.382,14.319,14.319,0,0,0-3.111,1.471c-.067.045-.124.079-.157.1-.236.157-.18.315-.168.55a23.15,23.15,0,0,0,.55,3.729.483.483,0,0,0,.281.359c.393.2.786.416,1.191.6a23.872,23.872,0,0,0,3.111,1.112,40.654,40.654,0,0,0,4.459,1.022c.124.022.236.034.674.09A61.325,61.325,0,0,1,58.112,64.474ZM61.224,86.68c-.157-.315-.3-.64-.461-.955a22.917,22.917,0,0,1-1.011-2.359,26.881,26.881,0,0,1-1.359-6.021.6.6,0,0,0-.124-.382.634.634,0,0,0-.371-.157A33.939,33.939,0,0,1,53.3,75.526a22.913,22.913,0,0,1-3.729-1.73c-.056-.034-.124-.067-.651-.371.135.6.146.651.157.708a22.526,22.526,0,0,0,1.764,4.156,19.342,19.342,0,0,0,4.459,5.4A22.683,22.683,0,0,0,60.8,87.073c.056.022.112.045.651.225C61.257,86.77,61.246,86.714,61.224,86.68Z" transform="translate(-45.88 -45.94)" fill="#fff"/>
    </g>
  </g>
  <g id="Gruppe_1182" data-name="Gruppe 1182" transform="translate(1.95 0.82)">
    <path id="Pfad_21742" data-name="Pfad 21742" d="M323.787,145.55h-250C-22.23,141.7-22.331,4.628,73.786.73h250c96.015,3.853,96.116,140.934,0,144.82Z" transform="translate(-1.736 -0.73)" fill="none" stroke="#f0f" stroke-width="1" stroke-dasharray="5.001 5.001"/>
  </g>
  <g id="Gruppe_1183" data-name="Gruppe 1183" transform="translate(21.058 20.162)">
    <path id="Pfad_21743" data-name="Pfad 21743" d="M324.049,124.074H69.33A50.406,50.406,0,0,1,18.919,73.663C16.538,43.976,39.193,17.871,69.33,17.95H324.049A50.406,50.406,0,0,1,374.46,68.361c2.381,29.687-20.275,55.8-50.411,55.713Z" transform="translate(-18.747 -17.95)" fill="none" stroke="#f0f" stroke-width="1" stroke-dasharray="5.033 5.033"/>
  </g>
  <g id="Gruppe_1185" data-name="Gruppe 1185" transform="translate(190.278 101.323)">
    <rect id="Rechteck_7898" data-name="Rechteck 7898" width="13.737" height="13.749" transform="translate(0 4.846)" fill="none"/>
    <text id="X" transform="translate(0.004 17)" fill="aqua" font-size="16" font-family="Roboto"><tspan x="0" y="0">X</tspan></text>
    <g id="Gruppe_1184" data-name="Gruppe 1184" transform="translate(10.266 12.586)">
      <path id="Pfad_21744" data-name="Pfad 21744" d="M179.427,111.7l-.887-.562,6.077-9.727.887.562Zm7.47-1.55h.91v1.09h-.91v1.46H185.56v-1.46h-3.2l-.056-.854,3.224-4.426h1.37v4.19Zm-3.246,0h1.91v-2.471l-.146.236Z" transform="translate(-178.54 -101.41)" fill="aqua"/>
    </g>
  </g>
  <g id="Gruppe_1190" data-name="Gruppe 1190" transform="translate(190.806 126.972)">
    <g id="Gruppe_1188" data-name="Gruppe 1188">
      <g id="Gruppe_1186" data-name="Gruppe 1186">
        <path id="Pfad_21745" data-name="Pfad 21745" d="M174.756,117.69l2.909-4.65h1.876l-3.83,6.009,3.931,6.122h-1.9l-2.988-4.74-3,4.74H169.87l3.931-6.122-3.842-6.009h1.876Z" transform="translate(-169.87 -113.04)" fill="aqua"/>
      </g>
      <g id="Gruppe_1187" data-name="Gruppe 1187" transform="translate(9.525 6.886)">
        <path id="Pfad_21746" data-name="Pfad 21746" d="M179.215,129.2l-.865-.55,5.931-9.48.865.55Z" transform="translate(-178.35 -119.17)" fill="aqua"/>
      </g>
    </g>
    <g id="Gruppe_1189" data-name="Gruppe 1189" transform="translate(14.288 11.289)">
      <path id="Pfad_21747" data-name="Pfad 21747" d="M187.779,129.773h-5.021v-.9l2.516-2.359a2.327,2.327,0,0,0,.91-1.438.855.855,0,0,0-.27-.663,1.093,1.093,0,0,0-.775-.258,1.192,1.192,0,0,0-.921.326,1.179,1.179,0,0,0-.3.809H182.59a2.078,2.078,0,0,1,.7-1.584,2.619,2.619,0,0,1,1.808-.618,2.656,2.656,0,0,1,1.752.539,1.8,1.8,0,0,1,.64,1.46,2.6,2.6,0,0,1-.9,1.775l-.708.663L184.4,128.74h3.347V129.8h.034v-.022Z" transform="translate(-182.59 -123.09)" fill="aqua"/>
    </g>
  </g>
</svg>
