<svg xmlns="http://www.w3.org/2000/svg" xmlns:xlink="http://www.w3.org/1999/xlink" width="260" height="208.001" viewBox="0 0 260 208.001">
  <defs>
    <clipPath id="clip-path">
      <path id="Pfad_13365" data-name="Pfad 13365" d="M0-226.772H260v208H0Z" transform="translate(0 226.772)" fill="none"/>
    </clipPath>
  </defs>
  <g id="Gruppe_1216" data-name="Gruppe 1216" transform="translate(24 227.772)">
    <g id="Gruppe_784" data-name="Gruppe 784" transform="translate(-24 -227.772)" clip-path="url(#clip-path)">
      <g id="Gruppe_782" data-name="Gruppe 782" transform="translate(65.226)">
        <path id="Pfad_13363" data-name="Pfad 13363" d="M-10.678-7.408c-.285.139-.434.214-.585.285-1.727.82-3.43,1.7-5.19,2.446A87.571,87.571,0,0,1-27.959-.8a.778.778,0,0,0-.66.683c-.515,2.364-1.007,4.736-1.636,7.07a63.933,63.933,0,0,1-6.061,14.926c-1.407,2.485-3,4.849-4.6,7.216-.14.209-.27.426-.4.638A.41.41,0,0,0-41,29.72c.678-.323,1.362-.632,2.027-.978a48.23,48.23,0,0,0,9.321-6.372,60.02,60.02,0,0,0,10.76-12.364A67.566,67.566,0,0,0-11-6.372c.1-.3.186-.6.321-1.036M-27.555-6.9c.21-.026.338-.028.459-.058,1.912-.463,3.834-.892,5.734-1.4a64.152,64.152,0,0,0,11.474-4.1,1.173,1.173,0,0,0,.737-.944c.358-1.956.663-3.918.849-5.9a57.862,57.862,0,0,0,.147-7.309.738.738,0,0,0-.482-.734c-1.5-.682-2.968-1.448-4.5-2.061a88.488,88.488,0,0,0-13.9-4.079,3.564,3.564,0,0,0-.482-.034A110.111,110.111,0,0,1-27.555-6.9m-56.7,35.986c-.072-.2-.105-.321-.16-.432q-.663-1.368-1.334-2.731a67.194,67.194,0,0,1-2.968-6.864A78.018,78.018,0,0,1-92.712,1.6c-.1-.811-.083-.811-.9-.978a98.011,98.011,0,0,1-13.435-3.7A66.481,66.481,0,0,1-117.963-8.1c-.171-.1-.344-.193-.616-.346.059.262.079.4.123.539a64.03,64.03,0,0,0,5.071,11.819,55,55,0,0,0,12.8,15.35,66.31,66.31,0,0,0,15.8,9.64c.146.064.3.105.53.183M-93.567-34.79c-.171.009-.26,0-.347.019-1.126.2-2.255.382-3.378.6a108.276,108.276,0,0,0-14.944,3.946,41.04,41.04,0,0,0-8.894,4.171c-.841.544-.726.306-.663,1.288a65.093,65.093,0,0,0,1.584,10.62.8.8,0,0,0,.46.589c1.142.567,2.263,1.18,3.422,1.706a65.3,65.3,0,0,0,8.96,3.156A115.507,115.507,0,0,0-94.481-5.778c.342.058.688.094,1.122.154a171.709,171.709,0,0,1-.208-29.166M-82,2.578c.032.257.05.459.084.658a92.437,92.437,0,0,0,2.373,10.356,48.136,48.136,0,0,0,3.175,8.349,23.292,23.292,0,0,0,4.48,6.233,12.064,12.064,0,0,0,8.164,3.559,16.167,16.167,0,0,0,6.856-1.3,22.3,22.3,0,0,0,7.041-4.863A41.872,41.872,0,0,0-42.4,15.583,73.3,73.3,0,0,0-36.736,1.7c.041-.136.06-.279.1-.473A158.879,158.879,0,0,1-82,2.578m47.115-8.119a99.575,99.575,0,0,0,1.863-12.482c.161-1.868.27-3.742.375-5.615.2-3.488.178-6.978.056-10.467-.015-.449-.024-.46-.477-.526-2.022-.3-4.039-.64-6.069-.875-3.093-.357-6.192-.664-9.293-.946-3.608-.327-7.228-.474-10.85-.535-5.5-.093-11-.025-16.491.316-2.34.145-4.679.322-7.019.489a3.37,3.37,0,0,0-.453.1c-.716,4.993-.4,29.16.432,31.812A200.555,200.555,0,0,0-34.888-5.541M-8.749-31.88a.924.924,0,0,0,.059-.215,3.506,3.506,0,0,0-.033-.392A86.493,86.493,0,0,0-11.4-44.907,79.476,79.476,0,0,0-16.06-57.088a61.6,61.6,0,0,0-4.9-8.273A52.636,52.636,0,0,0-31.58-76.933a37.518,37.518,0,0,0-11.991-6.414A22.125,22.125,0,0,0-53.7-84.039a23.878,23.878,0,0,0-11.3,5,33.537,33.537,0,0,0-7.839,9.066c-.7,1.154-1.322,2.355-2,3.523A56.024,56.024,0,0,0-79.3-56.81a69.8,69.8,0,0,0-3.189,13.273c-.025.178-.017.36-.027.571a155.521,155.521,0,0,1,49.406,2c-.018-.3-.02-.523-.047-.743-.15-1.229-.287-2.46-.466-3.684a101.383,101.383,0,0,0-2.933-13.69,2.327,2.327,0,0,1-.093-.439,1.178,1.178,0,0,1,.87-1.282,1.215,1.215,0,0,1,1.438.6,5.607,5.607,0,0,1,.227.515,90.447,90.447,0,0,1,5.337,17.927c.128.659.244,1.32.364,1.972,6.866,1.926,13.56,4.155,19.66,7.92m-113.138,2.045c.19-.109.288-.155.375-.216a54.432,54.432,0,0,1,10.333-5.69A87.687,87.687,0,0,1-95.97-40.569c.969-.223,1.941-.431,2.91-.648a2.213,2.213,0,0,0,.212-.076c.072-.434.151-.892.223-1.352A87.559,87.559,0,0,1-89.2-57.026a70.827,70.827,0,0,1,5.4-12.357A44.317,44.317,0,0,1-74-81.557a32.518,32.518,0,0,1,13.987-7.164,32.692,32.692,0,0,1,7.372-.771,41.754,41.754,0,0,1,14.6,2.92,47.934,47.934,0,0,1,12.358,6.86,55.8,55.8,0,0,1,6.678,6.033,69.9,69.9,0,0,1,5.951,7.2,81.47,81.47,0,0,1,6.191,9.863A63.806,63.806,0,0,1-.188-36.4,68.23,68.23,0,0,1,.436-22.256,67.776,67.776,0,0,1-2.389-6.336a69.814,69.814,0,0,1-8.992,18.884A67.724,67.724,0,0,1-22,24.829,64.243,64.243,0,0,1-37.238,35.146a66.688,66.688,0,0,1-14.777,5.015,68.423,68.423,0,0,1-8.275,1.324,61.079,61.079,0,0,1-11.245.059,55.888,55.888,0,0,1-19.572-5.433,62.908,62.908,0,0,1-10.7-6.625,78.59,78.59,0,0,1-10.333-9.532A66.933,66.933,0,0,1-119.97,9.588a60.661,60.661,0,0,1-6.774-15.651,63.687,63.687,0,0,1-1.935-10.558,68.649,68.649,0,0,1-.068-12.372,69.356,69.356,0,0,1,2.2-12.622,58.834,58.834,0,0,1,6.621-15.347A58.226,58.226,0,0,1-110.217-68.9a3.729,3.729,0,0,1,.518-.43,1.7,1.7,0,0,1,2.121.226,1.711,1.711,0,0,1,.293,2.162,10.648,10.648,0,0,1-.676.9,68.606,68.606,0,0,0-8.732,14.015,54.481,54.481,0,0,0-4.682,15.978c-.244,1.915-.345,3.848-.509,5.773-.009.11,0,.221,0,.44" transform="translate(128.993 89.493)" fill="#01632e"/>
      </g>
      <g id="Gruppe_783" data-name="Gruppe 783" transform="translate(0 159.024)">
        <path id="Pfad_13364" data-name="Pfad 13364" d="M-22.221-1.691c-4.64-2.18-7.457-3.677-7.457-6.08,0-1.874,1.634-2.992,4.372-2.992A11.48,11.48,0,0,1-17.421-7.58l1.019.96,5.762-6.6L-11.4-14.1a18.233,18.233,0,0,0-13.91-6.323c-11.013,0-15.942,6.719-15.942,13.378,0,9.057,7.48,12.786,13.491,15.781,4.19,2.089,7.809,3.893,7.809,6.769,0,.565-.259,3.386-5.358,3.386a14.727,14.727,0,0,1-9.588-3.434l-1.025-.857-5.851,6.872.959.877a22.408,22.408,0,0,0,15.5,6.205c5.021,0,9.3-1.477,12.385-4.27A13.471,13.471,0,0,0-8.443,14.187c0-9.406-7.64-12.994-13.778-15.878M-59.259,16.845a16.458,16.458,0,0,1-7.2,1.647,7.009,7.009,0,0,1-7-7V-19.637h-11.9V10.7A17.869,17.869,0,0,0-67.51,28.551a34.142,34.142,0,0,0,19.572-6.158l.579-.4V-19.637h-11.9ZM-107.775-6.588a4.477,4.477,0,0,0-4.5-4.438c-1.267,0-2.213,0-3.32.079v8.6h3.518a4.229,4.229,0,0,0,4.307-4.24M-115.6,19.046c1.136.067,2.4.1,3.585.1,4.244,0,9.3-1.056,9.3-6.081,0-1.427-.577-6.082-7.988-6.082h-4.9ZM-90.683,13.4a13.867,13.867,0,0,1-3.517,9.34c-3.522,3.858-9.384,5.813-17.422,5.813a53.454,53.454,0,0,1-14.9-2.09l-.977-.279V-17.6l.9-.315a43.821,43.821,0,0,1,14.446-2.508c11.816,0,16.007,7.1,16.007,13.181A11.318,11.318,0,0,1-99.265.389,14.007,14.007,0,0,1-90.683,13.4m-55.549-9.336a15.116,15.116,0,0,0-4.254-11.118,12.979,12.979,0,0,0-8.993-3.707,12.976,12.976,0,0,0-8.992,3.707,15.116,15.116,0,0,0-4.254,11.118,15.116,15.116,0,0,0,4.254,11.118,12.977,12.977,0,0,0,8.992,3.708,12.98,12.98,0,0,0,8.993-3.708,15.116,15.116,0,0,0,4.254-11.118m12.556,0c0,13.732-11.334,24.489-25.8,24.489s-25.8-10.757-25.8-24.489,11.335-24.488,25.8-24.488,25.8,10.756,25.8,24.488m-70.605-23.7h-11.9v47.4H-188.5V18.23h-15.777ZM-244.841-.111h21.365V21.667l-.5.4a29.333,29.333,0,0,1-18.663,6.479c-14.469,0-25.8-10.757-25.8-24.489s11.334-24.488,25.8-24.488a26.974,26.974,0,0,1,17.3,6.165l.87.726-4.483,7.752-1.214-.911a20.88,20.88,0,0,0-12.472-4.07,12.975,12.975,0,0,0-8.992,3.707,15.113,15.113,0,0,0-4.255,11.118,15.113,15.113,0,0,0,4.255,11.118,12.976,12.976,0,0,0,8.992,3.708,22.785,22.785,0,0,0,7.264-1.174V8.969l-9.466.065Z" transform="translate(268.443 20.426)" fill="orange"/>
      </g>
    </g>
  </g>
</svg>
