<svg xmlns="http://www.w3.org/2000/svg" xmlns:xlink="http://www.w3.org/1999/xlink" width="250" height="200.001" viewBox="0 0 250 200.001">
  <defs>
    <clipPath id="clip-path">
      <path id="Pfad_13365" data-name="Pfad 13365" d="M0-226.772H250v200H0Z" transform="translate(0 226.772)" fill="none"/>
    </clipPath>
  </defs>
  <g id="Gruppe_1202" data-name="Gruppe 1202" transform="translate(24 227.772)">
    <g id="Gruppe_784" data-name="Gruppe 784" transform="translate(-24 -227.772)" clip-path="url(#clip-path)">
      <g id="Gruppe_782" data-name="Gruppe 782" transform="translate(62.717)">
        <path id="Pfad_13363" data-name="Pfad 13363" d="M-15.228-10.565c-.274.133-.417.205-.563.274-1.661.788-3.3,1.633-4.99,2.352A84.2,84.2,0,0,1-31.845-4.211a.748.748,0,0,0-.635.657c-.5,2.273-.968,4.553-1.573,6.8A61.474,61.474,0,0,1-39.881,17.6c-1.353,2.389-2.888,4.663-4.419,6.938-.135.2-.259.409-.388.614a.394.394,0,0,0,.307-.012c.652-.31,1.31-.608,1.949-.94a46.375,46.375,0,0,0,8.962-6.127A57.711,57.711,0,0,0-23.124,6.18,64.967,64.967,0,0,0-15.537-9.569c.093-.287.179-.577.309-1m-16.229.486c.2-.025.325-.027.441-.056,1.839-.445,3.687-.857,5.514-1.348a61.685,61.685,0,0,0,11.033-3.94,1.128,1.128,0,0,0,.708-.908c.344-1.881.638-3.768.817-5.673a55.636,55.636,0,0,0,.141-7.028.709.709,0,0,0-.463-.706c-1.444-.655-2.854-1.393-4.324-1.982A85.085,85.085,0,0,0-30.959-35.64a3.426,3.426,0,0,0-.463-.033,105.876,105.876,0,0,1-.034,25.594m-54.522,34.6c-.07-.192-.1-.309-.153-.415q-.638-1.315-1.282-2.626a64.608,64.608,0,0,1-2.854-6.6A75.017,75.017,0,0,1-94.108-1.9c-.093-.78-.079-.78-.861-.94A94.241,94.241,0,0,1-107.886-6.4a63.924,63.924,0,0,1-10.5-4.83c-.164-.1-.331-.185-.593-.332.056.252.076.389.118.519A61.568,61.568,0,0,0-113.986.318a52.883,52.883,0,0,0,12.3,14.759,63.759,63.759,0,0,0,15.193,9.269c.14.062.29.1.51.176M-94.93-36.894c-.164.009-.25,0-.333.019-1.083.19-2.169.368-3.248.579a104.112,104.112,0,0,0-14.37,3.794,39.462,39.462,0,0,0-8.552,4.01c-.809.523-.7.295-.638,1.238a62.589,62.589,0,0,0,1.523,10.211.771.771,0,0,0,.442.566c1.1.545,2.176,1.134,3.291,1.64A62.793,62.793,0,0,0-108.2-11.8,111.065,111.065,0,0,0-95.808-9c.329.056.661.091,1.079.148a165.106,165.106,0,0,1-.2-28.044M-83.81-.963c.031.247.048.441.081.632a88.883,88.883,0,0,0,2.282,9.958,46.285,46.285,0,0,0,3.052,8.027,22.4,22.4,0,0,0,4.307,5.994,11.6,11.6,0,0,0,7.85,3.422,15.546,15.546,0,0,0,6.593-1.248,21.442,21.442,0,0,0,6.77-4.676,40.261,40.261,0,0,0,7.147-9.6A70.477,70.477,0,0,0-40.284-1.809c.04-.131.057-.268.1-.455A152.768,152.768,0,0,1-83.81-.963m45.3-7.807a95.746,95.746,0,0,0,1.791-12c.155-1.8.259-3.6.361-5.4.189-3.354.171-6.71.054-10.065-.014-.431-.023-.442-.459-.506-1.945-.288-3.884-.616-5.836-.841-2.974-.343-5.954-.639-8.936-.909-3.47-.315-6.95-.456-10.433-.514-5.289-.089-10.575-.024-15.857.3-2.25.139-4.5.31-6.749.47a3.241,3.241,0,0,0-.436.093c-.689,4.8-.382,28.039.415,30.589A192.841,192.841,0,0,0-38.507-8.77M-13.373-34.1a.889.889,0,0,0,.056-.206,3.371,3.371,0,0,0-.032-.377,83.166,83.166,0,0,0-2.576-11.942A76.419,76.419,0,0,0-20.4-58.335a59.234,59.234,0,0,0-4.711-7.955A50.612,50.612,0,0,0-35.327-77.416a36.075,36.075,0,0,0-11.53-6.167,21.275,21.275,0,0,0-9.739-.666,22.96,22.96,0,0,0-10.863,4.808A32.247,32.247,0,0,0-75-70.723c-.675,1.109-1.271,2.265-1.925,3.388a53.87,53.87,0,0,0-4.287,9.268A67.111,67.111,0,0,0-84.275-45.3c-.024.171-.017.346-.026.549a149.54,149.54,0,0,1,47.506,1.919c-.018-.288-.019-.5-.045-.714-.145-1.182-.276-2.365-.448-3.543a97.484,97.484,0,0,0-2.82-13.164,2.237,2.237,0,0,1-.089-.422,1.133,1.133,0,0,1,.837-1.233,1.168,1.168,0,0,1,1.383.572,5.39,5.39,0,0,1,.218.495,86.969,86.969,0,0,1,5.132,17.238c.123.633.235,1.269.35,1.9,6.6,1.852,13.039,4,18.9,7.616M-122.16-32.129c.183-.1.277-.149.361-.208a52.338,52.338,0,0,1,9.936-5.472A84.314,84.314,0,0,1-97.24-42.451c.931-.214,1.866-.415,2.8-.623a2.127,2.127,0,0,0,.2-.073c.069-.417.146-.858.214-1.3a84.191,84.191,0,0,1,3.29-13.828,68.1,68.1,0,0,1,5.2-11.882,42.613,42.613,0,0,1,9.423-11.706,31.267,31.267,0,0,1,13.449-6.889,31.435,31.435,0,0,1,7.088-.742,40.148,40.148,0,0,1,14.037,2.807,46.091,46.091,0,0,1,11.882,6.6,53.654,53.654,0,0,1,6.421,5.8,67.209,67.209,0,0,1,5.722,6.923,78.337,78.337,0,0,1,5.953,9.484,61.352,61.352,0,0,1,6.42,19.435,65.605,65.605,0,0,1,.6,13.6A65.169,65.169,0,0,1-7.258-9.534,67.129,67.129,0,0,1-15.9,8.624a65.119,65.119,0,0,1-10.21,11.808,61.772,61.772,0,0,1-14.653,9.92,64.123,64.123,0,0,1-14.209,4.822,65.792,65.792,0,0,1-7.957,1.273,58.729,58.729,0,0,1-10.813.056A53.739,53.739,0,0,1-92.565,31.28a60.489,60.489,0,0,1-10.292-6.37,75.568,75.568,0,0,1-9.936-9.165,64.359,64.359,0,0,1-7.524-9.967A58.328,58.328,0,0,1-126.83-9.271a61.239,61.239,0,0,1-1.861-10.152,66.01,66.01,0,0,1-.065-11.9,66.689,66.689,0,0,1,2.118-12.136,56.572,56.572,0,0,1,6.367-14.757,55.987,55.987,0,0,1,9.333-11.478,3.587,3.587,0,0,1,.5-.414,1.634,1.634,0,0,1,2.039.217,1.645,1.645,0,0,1,.281,2.079,10.238,10.238,0,0,1-.65.864,65.968,65.968,0,0,0-8.4,13.476,52.385,52.385,0,0,0-4.5,15.364c-.235,1.842-.332,3.7-.489,5.551-.009.106,0,.213,0,.423" transform="translate(128.993 89.493)" fill="#01632e"/>
      </g>
      <g id="Gruppe_783" data-name="Gruppe 783" transform="translate(0 152.908)">
        <path id="Pfad_13364" data-name="Pfad 13364" d="M-31.691-2.411c-4.462-2.1-7.17-3.536-7.17-5.846,0-1.8,1.572-2.877,4.2-2.877a11.039,11.039,0,0,1,7.581,3.06l.98.923,5.54-6.344-.727-.851a17.532,17.532,0,0,0-13.375-6.08c-10.59,0-15.329,6.46-15.329,12.863,0,8.708,7.192,12.294,12.973,15.174C-32.985,9.62-29.5,11.354-29.5,14.12c0,.543-.249,3.256-5.152,3.256a14.161,14.161,0,0,1-9.219-3.3l-.986-.824-5.626,6.608.923.843a21.546,21.546,0,0,0,14.908,5.966c4.828,0,8.946-1.42,11.909-4.105a12.953,12.953,0,0,0,4.3-9.706c0-9.044-7.346-12.495-13.248-15.267M-67.3,15.412A15.825,15.825,0,0,1-74.227,17a6.739,6.739,0,0,1-6.732-6.732V-19.668H-92.4V9.505A17.182,17.182,0,0,0-75.239,26.667,32.829,32.829,0,0,0-56.42,20.746l.557-.387V-19.668H-67.3ZM-113.954-7.12a4.3,4.3,0,0,0-4.331-4.268c-1.218,0-2.128,0-3.193.076v8.269h3.382a4.066,4.066,0,0,0,4.142-4.077m-7.524,24.648c1.092.064,2.31.1,3.447.1,4.081,0,8.945-1.015,8.945-5.847,0-1.372-.555-5.848-7.681-5.848h-4.71ZM-97.52,12.1a13.334,13.334,0,0,1-3.381,8.981c-3.387,3.709-9.023,5.59-16.752,5.59a51.4,51.4,0,0,1-14.326-2.01l-.939-.268v-42.1l.87-.3a42.135,42.135,0,0,1,13.891-2.411c11.361,0,15.392,6.827,15.392,12.674a10.883,10.883,0,0,1-3,7.34A13.468,13.468,0,0,1-97.52,12.1M-150.932,3.12a14.535,14.535,0,0,0-4.09-10.69,12.479,12.479,0,0,0-8.647-3.565,12.477,12.477,0,0,0-8.647,3.565,14.534,14.534,0,0,0-4.09,10.69,14.534,14.534,0,0,0,4.09,10.69,12.478,12.478,0,0,0,8.647,3.566,12.48,12.48,0,0,0,8.647-3.566,14.535,14.535,0,0,0,4.09-10.69m12.073,0c0,13.2-10.9,23.547-24.811,23.547S-188.481,16.324-188.481,3.12s10.9-23.546,24.811-23.546S-138.86-10.083-138.86,3.12m-67.89-22.788h-11.441V25.908h26.612V16.744h-15.17Zm-39,18.775h20.543V20.048l-.482.389a28.2,28.2,0,0,1-17.945,6.23c-13.913,0-24.811-10.343-24.811-23.547s10.9-23.546,24.811-23.546A25.937,25.937,0,0,1-227-14.5l.836.7-4.311,7.454-1.168-.876a20.077,20.077,0,0,0-11.992-3.913,12.476,12.476,0,0,0-8.647,3.565A14.532,14.532,0,0,0-256.37,3.12a14.532,14.532,0,0,0,4.091,10.69,12.477,12.477,0,0,0,8.647,3.566,21.909,21.909,0,0,0,6.985-1.129V7.839l-9.1.063Z" transform="translate(268.443 20.426)" fill="orange"/>
      </g>
    </g>
  </g>
</svg>
